<?xml version="1.0" encoding="UTF-8"?>
<!-- Generated by Pixelmator Pro 3.5 -->
<svg width="354" height="296" viewBox="0 0 354 296" xmlns="http://www.w3.org/2000/svg">
    <path id="Ellipse" fill="none" stroke="#000000" stroke-width="2" d="M 75 40 C 75 20.670044 59.329971 5 40 5 C 20.670033 5 5 20.670044 5 40 C 5 59.329956 20.670033 75 40 75 C 59.329971 75 75 59.329956 75 40 Z"/>
    <path id="Ellipse-copy-2" fill="none" stroke="#000000" stroke-width="2" d="M 75 257 C 75 237.670044 59.329971 222 40 222 C 20.670033 222 5 237.670044 5 257 C 5 276.329956 20.670033 292 40 292 C 59.329971 292 75 276.329956 75 257 Z"/>
    <path id="Ellipse-copy-4" fill="none" stroke="#000000" stroke-width="2" d="M 205 129 C 205 109.670029 189.329971 94 170 94 C 150.670029 94 135 109.670029 135 129 C 135 148.329971 150.670029 164 170 164 C 189.329971 164 205 148.329971 205 129 Z"/>
    <path id="Ellipse-copy-3" fill="none" stroke="#000000" stroke-width="2" d="M 348 257 C 348 237.670044 332.329956 222 313 222 C 293.670044 222 278 237.670044 278 257 C 278 276.329956 293.670044 292 313 292 C 332.329956 292 348 276.329956 348 257 Z"/>
    <path id="Ellipse-copy" fill="none" stroke="#000000" stroke-width="2" d="M 348 40 C 348 20.670044 332.329956 5 313 5 C 293.670044 5 278 20.670044 278 40 C 278 59.329956 293.670044 75 313 75 C 332.329956 75 348 59.329956 348 40 Z"/>
    <path id="Arrow" fill="#000000" fill-rule="evenodd" stroke="#000000" stroke-width="2" d="M 272 40 L 262 48 L 262 41.919998 L 81 41.919998 L 81 38.079987 L 262 38.079987 L 262 32 Z"/>
    <path id="Arrow-copy" fill="#000000" fill-rule="evenodd" stroke="#000000" stroke-width="2" d="M 272 257 L 262 265 L 262 258.919983 L 81 258.919983 L 81 255.080002 L 262 255.080002 L 262 249 Z"/>
    <path id="path1" fill="#000000" fill-rule="evenodd" stroke="#000000" stroke-width="2" d="M 143.479538 160.485306 L 141.122025 175.710571 L 136.313782 170.553925 L 71.168915 231.297104 L 67.790161 227.673508 L 132.935028 166.930313 L 128.126801 161.773666 Z"/>
    <path id="Arrow-copy-2" fill="#000000" fill-rule="evenodd" stroke="#000000" stroke-width="2" d="M 282.533295 228.416962 L 267.168884 227.276016 L 271.927399 222.073456 L 202.051392 158.161499 L 205.395218 154.505646 L 275.27121 218.417603 L 280.029724 213.215027 Z"/>
    <text id="X" xml:space="preserve" x="28" y="53" font-family="Helvetica Neue" font-size="30" fill="#000000">X</text>
    <text id="Y" xml:space="preserve" x="302" y="52" font-family="Helvetica Neue" font-size="30" fill="#000000">Y</text>
    <text id="text1" xml:space="preserve" x="302" y="270" font-family="Helvetica Neue" font-size="30" fill="#000000">Y</text>
    <text id="text2" xml:space="preserve" x="30" y="270" font-family="Helvetica Neue" font-size="30" fill="#000000">X</text>
    <text id="M" xml:space="preserve" x="156" y="141" font-family="Helvetica Neue" font-size="30" fill="#000000">M</text>
    <text id="a" xml:space="preserve" x="159" y="32" font-family="Helvetica Neue" font-size="30" fill="#000000">a</text>
    <text id="b" xml:space="preserve" x="78" y="194" font-family="Helvetica Neue" font-size="30" fill="#000000">b</text>
    <text id="c" xml:space="preserve" x="241" y="184" font-family="Helvetica Neue" font-size="30" fill="#000000">c</text>
    <text id="d" xml:space="preserve" x="161" y="248" font-family="Helvetica Neue" font-size="30" fill="#000000">d</text>
</svg>
