<?xml version="1.0" encoding="UTF-8" standalone="no"?>
<!-- This is a Stata 18.0 generated SVG file (http://www.stata.com) -->

<svg version="1.1" width="7.500in" height="4.500in" viewBox="0 0 5400 3240" xmlns="http://www.w3.org/2000/svg" xmlns:xlink="http://www.w3.org/1999/xlink">
	<desc>Stata Graph - Graph</desc>
	<rect x="0" y="0" width="5400" height="3240" style="fill:#FFFFFF;stroke:none"/>
	<rect x="0.00" y="0.00" width="5400.00" height="3240.00" style="fill:#FFFFFF"/>
	<rect x="3.24" y="3.24" width="5393.52" height="3233.52" style="fill:none;stroke:#FFFFFF;stroke-width:6.48"/>
	<rect x="346.44" y="113.40" width="4026.21" height="2653.26" style="fill:#FFFFFF"/>
	<rect x="349.68" y="116.64" width="4019.73" height="2646.78" style="fill:none;stroke:#FFFFFF;stroke-width:6.48"/>
	<line x1="346.44" y1="2695.28" x2="411.24" y2="2695.28" style="stroke:#F0F0F0;stroke-width:9.72"/>
	<line x1="443.64" y1="2695.28" x2="508.44" y2="2695.28" style="stroke:#F0F0F0;stroke-width:9.72"/>
	<line x1="540.84" y1="2695.28" x2="605.64" y2="2695.28" style="stroke:#F0F0F0;stroke-width:9.72"/>
	<line x1="638.04" y1="2695.28" x2="702.84" y2="2695.28" style="stroke:#F0F0F0;stroke-width:9.72"/>
	<line x1="735.24" y1="2695.28" x2="800.04" y2="2695.28" style="stroke:#F0F0F0;stroke-width:9.72"/>
	<line x1="832.44" y1="2695.28" x2="897.24" y2="2695.28" style="stroke:#F0F0F0;stroke-width:9.72"/>
	<line x1="929.64" y1="2695.28" x2="994.44" y2="2695.28" style="stroke:#F0F0F0;stroke-width:9.72"/>
	<line x1="1026.84" y1="2695.28" x2="1091.64" y2="2695.28" style="stroke:#F0F0F0;stroke-width:9.72"/>
	<line x1="1124.04" y1="2695.28" x2="1188.84" y2="2695.28" style="stroke:#F0F0F0;stroke-width:9.72"/>
	<line x1="1221.24" y1="2695.28" x2="1286.04" y2="2695.28" style="stroke:#F0F0F0;stroke-width:9.72"/>
	<line x1="1318.44" y1="2695.28" x2="1383.24" y2="2695.28" style="stroke:#F0F0F0;stroke-width:9.72"/>
	<line x1="1415.64" y1="2695.28" x2="1480.44" y2="2695.28" style="stroke:#F0F0F0;stroke-width:9.72"/>
	<line x1="1512.84" y1="2695.28" x2="1577.64" y2="2695.28" style="stroke:#F0F0F0;stroke-width:9.72"/>
	<line x1="1610.04" y1="2695.28" x2="1674.84" y2="2695.28" style="stroke:#F0F0F0;stroke-width:9.72"/>
	<line x1="1707.24" y1="2695.28" x2="1772.04" y2="2695.28" style="stroke:#F0F0F0;stroke-width:9.72"/>
	<line x1="1804.44" y1="2695.28" x2="1869.24" y2="2695.28" style="stroke:#F0F0F0;stroke-width:9.72"/>
	<line x1="1901.64" y1="2695.28" x2="1966.44" y2="2695.28" style="stroke:#F0F0F0;stroke-width:9.72"/>
	<line x1="1998.84" y1="2695.28" x2="2063.64" y2="2695.28" style="stroke:#F0F0F0;stroke-width:9.72"/>
	<line x1="2096.04" y1="2695.28" x2="2160.84" y2="2695.28" style="stroke:#F0F0F0;stroke-width:9.72"/>
	<line x1="2193.24" y1="2695.28" x2="2258.04" y2="2695.28" style="stroke:#F0F0F0;stroke-width:9.72"/>
	<line x1="2290.44" y1="2695.28" x2="2355.24" y2="2695.28" style="stroke:#F0F0F0;stroke-width:9.72"/>
	<line x1="2387.64" y1="2695.28" x2="2452.44" y2="2695.28" style="stroke:#F0F0F0;stroke-width:9.72"/>
	<line x1="2484.84" y1="2695.28" x2="2549.64" y2="2695.28" style="stroke:#F0F0F0;stroke-width:9.72"/>
	<line x1="2582.04" y1="2695.28" x2="2646.84" y2="2695.28" style="stroke:#F0F0F0;stroke-width:9.72"/>
	<line x1="2679.24" y1="2695.28" x2="2744.04" y2="2695.28" style="stroke:#F0F0F0;stroke-width:9.72"/>
	<line x1="2776.44" y1="2695.28" x2="2841.24" y2="2695.28" style="stroke:#F0F0F0;stroke-width:9.72"/>
	<line x1="2873.64" y1="2695.28" x2="2938.44" y2="2695.28" style="stroke:#F0F0F0;stroke-width:9.72"/>
	<line x1="2970.84" y1="2695.28" x2="3035.64" y2="2695.28" style="stroke:#F0F0F0;stroke-width:9.72"/>
	<line x1="3068.04" y1="2695.28" x2="3132.84" y2="2695.28" style="stroke:#F0F0F0;stroke-width:9.72"/>
	<line x1="3165.24" y1="2695.28" x2="3230.04" y2="2695.28" style="stroke:#F0F0F0;stroke-width:9.72"/>
	<line x1="3262.44" y1="2695.28" x2="3327.24" y2="2695.28" style="stroke:#F0F0F0;stroke-width:9.72"/>
	<line x1="3359.64" y1="2695.28" x2="3424.44" y2="2695.28" style="stroke:#F0F0F0;stroke-width:9.72"/>
	<line x1="3456.84" y1="2695.28" x2="3521.64" y2="2695.28" style="stroke:#F0F0F0;stroke-width:9.72"/>
	<line x1="3554.04" y1="2695.28" x2="3618.84" y2="2695.28" style="stroke:#F0F0F0;stroke-width:9.72"/>
	<line x1="3651.24" y1="2695.28" x2="3716.04" y2="2695.28" style="stroke:#F0F0F0;stroke-width:9.72"/>
	<line x1="3748.44" y1="2695.28" x2="3813.24" y2="2695.28" style="stroke:#F0F0F0;stroke-width:9.72"/>
	<line x1="3845.64" y1="2695.28" x2="3910.44" y2="2695.28" style="stroke:#F0F0F0;stroke-width:9.72"/>
	<line x1="3942.84" y1="2695.28" x2="4007.64" y2="2695.28" style="stroke:#F0F0F0;stroke-width:9.72"/>
	<line x1="4040.04" y1="2695.28" x2="4104.84" y2="2695.28" style="stroke:#F0F0F0;stroke-width:9.72"/>
	<line x1="4137.24" y1="2695.28" x2="4202.04" y2="2695.28" style="stroke:#F0F0F0;stroke-width:9.72"/>
	<line x1="4234.44" y1="2695.28" x2="4299.24" y2="2695.28" style="stroke:#F0F0F0;stroke-width:9.72"/>
	<line x1="4331.64" y1="2695.28" x2="4372.65" y2="2695.28" style="stroke:#F0F0F0;stroke-width:9.72"/>
	<line x1="346.44" y1="2067.69" x2="411.24" y2="2067.69" style="stroke:#F0F0F0;stroke-width:9.72"/>
	<line x1="443.64" y1="2067.69" x2="508.44" y2="2067.69" style="stroke:#F0F0F0;stroke-width:9.72"/>
	<line x1="540.84" y1="2067.69" x2="605.64" y2="2067.69" style="stroke:#F0F0F0;stroke-width:9.72"/>
	<line x1="638.04" y1="2067.69" x2="702.84" y2="2067.69" style="stroke:#F0F0F0;stroke-width:9.72"/>
	<line x1="735.24" y1="2067.69" x2="800.04" y2="2067.69" style="stroke:#F0F0F0;stroke-width:9.72"/>
	<line x1="832.44" y1="2067.69" x2="897.24" y2="2067.69" style="stroke:#F0F0F0;stroke-width:9.72"/>
	<line x1="929.64" y1="2067.69" x2="994.44" y2="2067.69" style="stroke:#F0F0F0;stroke-width:9.72"/>
	<line x1="1026.84" y1="2067.69" x2="1091.64" y2="2067.69" style="stroke:#F0F0F0;stroke-width:9.72"/>
	<line x1="1124.04" y1="2067.69" x2="1188.84" y2="2067.69" style="stroke:#F0F0F0;stroke-width:9.72"/>
	<line x1="1221.24" y1="2067.69" x2="1286.04" y2="2067.69" style="stroke:#F0F0F0;stroke-width:9.72"/>
	<line x1="1318.44" y1="2067.69" x2="1383.24" y2="2067.69" style="stroke:#F0F0F0;stroke-width:9.72"/>
	<line x1="1415.64" y1="2067.69" x2="1480.44" y2="2067.69" style="stroke:#F0F0F0;stroke-width:9.72"/>
	<line x1="1512.84" y1="2067.69" x2="1577.64" y2="2067.69" style="stroke:#F0F0F0;stroke-width:9.72"/>
	<line x1="1610.04" y1="2067.69" x2="1674.84" y2="2067.69" style="stroke:#F0F0F0;stroke-width:9.72"/>
	<line x1="1707.24" y1="2067.69" x2="1772.04" y2="2067.69" style="stroke:#F0F0F0;stroke-width:9.72"/>
	<line x1="1804.44" y1="2067.69" x2="1869.24" y2="2067.69" style="stroke:#F0F0F0;stroke-width:9.72"/>
	<line x1="1901.64" y1="2067.69" x2="1966.44" y2="2067.69" style="stroke:#F0F0F0;stroke-width:9.72"/>
	<line x1="1998.84" y1="2067.69" x2="2063.64" y2="2067.69" style="stroke:#F0F0F0;stroke-width:9.72"/>
	<line x1="2096.04" y1="2067.69" x2="2160.84" y2="2067.69" style="stroke:#F0F0F0;stroke-width:9.72"/>
	<line x1="2193.24" y1="2067.69" x2="2258.04" y2="2067.69" style="stroke:#F0F0F0;stroke-width:9.72"/>
	<line x1="2290.44" y1="2067.69" x2="2355.24" y2="2067.69" style="stroke:#F0F0F0;stroke-width:9.72"/>
	<line x1="2387.64" y1="2067.69" x2="2452.44" y2="2067.69" style="stroke:#F0F0F0;stroke-width:9.72"/>
	<line x1="2484.84" y1="2067.69" x2="2549.64" y2="2067.69" style="stroke:#F0F0F0;stroke-width:9.72"/>
	<line x1="2582.04" y1="2067.69" x2="2646.84" y2="2067.69" style="stroke:#F0F0F0;stroke-width:9.72"/>
	<line x1="2679.24" y1="2067.69" x2="2744.04" y2="2067.69" style="stroke:#F0F0F0;stroke-width:9.72"/>
	<line x1="2776.44" y1="2067.69" x2="2841.24" y2="2067.69" style="stroke:#F0F0F0;stroke-width:9.72"/>
	<line x1="2873.64" y1="2067.69" x2="2938.44" y2="2067.69" style="stroke:#F0F0F0;stroke-width:9.72"/>
	<line x1="2970.84" y1="2067.69" x2="3035.64" y2="2067.69" style="stroke:#F0F0F0;stroke-width:9.72"/>
	<line x1="3068.04" y1="2067.69" x2="3132.84" y2="2067.69" style="stroke:#F0F0F0;stroke-width:9.72"/>
	<line x1="3165.24" y1="2067.69" x2="3230.04" y2="2067.69" style="stroke:#F0F0F0;stroke-width:9.72"/>
	<line x1="3262.44" y1="2067.69" x2="3327.24" y2="2067.69" style="stroke:#F0F0F0;stroke-width:9.72"/>
	<line x1="3359.64" y1="2067.69" x2="3424.44" y2="2067.69" style="stroke:#F0F0F0;stroke-width:9.72"/>
	<line x1="3456.84" y1="2067.69" x2="3521.64" y2="2067.69" style="stroke:#F0F0F0;stroke-width:9.72"/>
	<line x1="3554.04" y1="2067.69" x2="3618.84" y2="2067.69" style="stroke:#F0F0F0;stroke-width:9.72"/>
	<line x1="3651.24" y1="2067.69" x2="3716.04" y2="2067.69" style="stroke:#F0F0F0;stroke-width:9.72"/>
	<line x1="3748.44" y1="2067.69" x2="3813.24" y2="2067.69" style="stroke:#F0F0F0;stroke-width:9.72"/>
	<line x1="3845.64" y1="2067.69" x2="3910.44" y2="2067.69" style="stroke:#F0F0F0;stroke-width:9.72"/>
	<line x1="3942.84" y1="2067.69" x2="4007.64" y2="2067.69" style="stroke:#F0F0F0;stroke-width:9.72"/>
	<line x1="4040.04" y1="2067.69" x2="4104.84" y2="2067.69" style="stroke:#F0F0F0;stroke-width:9.72"/>
	<line x1="4137.24" y1="2067.69" x2="4202.04" y2="2067.69" style="stroke:#F0F0F0;stroke-width:9.72"/>
	<line x1="4234.44" y1="2067.69" x2="4299.24" y2="2067.69" style="stroke:#F0F0F0;stroke-width:9.72"/>
	<line x1="4331.64" y1="2067.69" x2="4372.65" y2="2067.69" style="stroke:#F0F0F0;stroke-width:9.72"/>
	<line x1="346.44" y1="1439.94" x2="411.24" y2="1439.94" style="stroke:#F0F0F0;stroke-width:9.72"/>
	<line x1="443.64" y1="1439.94" x2="508.44" y2="1439.94" style="stroke:#F0F0F0;stroke-width:9.72"/>
	<line x1="540.84" y1="1439.94" x2="605.64" y2="1439.94" style="stroke:#F0F0F0;stroke-width:9.72"/>
	<line x1="638.04" y1="1439.94" x2="702.84" y2="1439.94" style="stroke:#F0F0F0;stroke-width:9.72"/>
	<line x1="735.24" y1="1439.94" x2="800.04" y2="1439.94" style="stroke:#F0F0F0;stroke-width:9.72"/>
	<line x1="832.44" y1="1439.94" x2="897.24" y2="1439.94" style="stroke:#F0F0F0;stroke-width:9.72"/>
	<line x1="929.64" y1="1439.94" x2="994.44" y2="1439.94" style="stroke:#F0F0F0;stroke-width:9.72"/>
	<line x1="1026.84" y1="1439.94" x2="1091.64" y2="1439.94" style="stroke:#F0F0F0;stroke-width:9.72"/>
	<line x1="1124.04" y1="1439.94" x2="1188.84" y2="1439.94" style="stroke:#F0F0F0;stroke-width:9.72"/>
	<line x1="1221.24" y1="1439.94" x2="1286.04" y2="1439.94" style="stroke:#F0F0F0;stroke-width:9.72"/>
	<line x1="1318.44" y1="1439.94" x2="1383.24" y2="1439.94" style="stroke:#F0F0F0;stroke-width:9.72"/>
	<line x1="1415.64" y1="1439.94" x2="1480.44" y2="1439.94" style="stroke:#F0F0F0;stroke-width:9.72"/>
	<line x1="1512.84" y1="1439.94" x2="1577.64" y2="1439.94" style="stroke:#F0F0F0;stroke-width:9.72"/>
	<line x1="1610.04" y1="1439.94" x2="1674.84" y2="1439.94" style="stroke:#F0F0F0;stroke-width:9.72"/>
	<line x1="1707.24" y1="1439.94" x2="1772.04" y2="1439.94" style="stroke:#F0F0F0;stroke-width:9.72"/>
	<line x1="1804.44" y1="1439.94" x2="1869.24" y2="1439.94" style="stroke:#F0F0F0;stroke-width:9.72"/>
	<line x1="1901.64" y1="1439.94" x2="1966.44" y2="1439.94" style="stroke:#F0F0F0;stroke-width:9.72"/>
	<line x1="1998.84" y1="1439.94" x2="2063.64" y2="1439.94" style="stroke:#F0F0F0;stroke-width:9.72"/>
	<line x1="2096.04" y1="1439.94" x2="2160.84" y2="1439.94" style="stroke:#F0F0F0;stroke-width:9.72"/>
	<line x1="2193.24" y1="1439.94" x2="2258.04" y2="1439.94" style="stroke:#F0F0F0;stroke-width:9.72"/>
	<line x1="2290.44" y1="1439.94" x2="2355.24" y2="1439.94" style="stroke:#F0F0F0;stroke-width:9.72"/>
	<line x1="2387.64" y1="1439.94" x2="2452.44" y2="1439.94" style="stroke:#F0F0F0;stroke-width:9.72"/>
	<line x1="2484.84" y1="1439.94" x2="2549.64" y2="1439.94" style="stroke:#F0F0F0;stroke-width:9.72"/>
	<line x1="2582.04" y1="1439.94" x2="2646.84" y2="1439.94" style="stroke:#F0F0F0;stroke-width:9.72"/>
	<line x1="2679.24" y1="1439.94" x2="2744.04" y2="1439.94" style="stroke:#F0F0F0;stroke-width:9.72"/>
	<line x1="2776.44" y1="1439.94" x2="2841.24" y2="1439.94" style="stroke:#F0F0F0;stroke-width:9.72"/>
	<line x1="2873.64" y1="1439.94" x2="2938.44" y2="1439.94" style="stroke:#F0F0F0;stroke-width:9.72"/>
	<line x1="2970.84" y1="1439.94" x2="3035.64" y2="1439.94" style="stroke:#F0F0F0;stroke-width:9.72"/>
	<line x1="3068.04" y1="1439.94" x2="3132.84" y2="1439.94" style="stroke:#F0F0F0;stroke-width:9.72"/>
	<line x1="3165.24" y1="1439.94" x2="3230.04" y2="1439.94" style="stroke:#F0F0F0;stroke-width:9.72"/>
	<line x1="3262.44" y1="1439.94" x2="3327.24" y2="1439.94" style="stroke:#F0F0F0;stroke-width:9.72"/>
	<line x1="3359.64" y1="1439.94" x2="3424.44" y2="1439.94" style="stroke:#F0F0F0;stroke-width:9.72"/>
	<line x1="3456.84" y1="1439.94" x2="3521.64" y2="1439.94" style="stroke:#F0F0F0;stroke-width:9.72"/>
	<line x1="3554.04" y1="1439.94" x2="3618.84" y2="1439.94" style="stroke:#F0F0F0;stroke-width:9.72"/>
	<line x1="3651.24" y1="1439.94" x2="3716.04" y2="1439.94" style="stroke:#F0F0F0;stroke-width:9.72"/>
	<line x1="3748.44" y1="1439.94" x2="3813.24" y2="1439.94" style="stroke:#F0F0F0;stroke-width:9.72"/>
	<line x1="3845.64" y1="1439.94" x2="3910.44" y2="1439.94" style="stroke:#F0F0F0;stroke-width:9.72"/>
	<line x1="3942.84" y1="1439.94" x2="4007.64" y2="1439.94" style="stroke:#F0F0F0;stroke-width:9.72"/>
	<line x1="4040.04" y1="1439.94" x2="4104.84" y2="1439.94" style="stroke:#F0F0F0;stroke-width:9.72"/>
	<line x1="4137.24" y1="1439.94" x2="4202.04" y2="1439.94" style="stroke:#F0F0F0;stroke-width:9.72"/>
	<line x1="4234.44" y1="1439.94" x2="4299.24" y2="1439.94" style="stroke:#F0F0F0;stroke-width:9.72"/>
	<line x1="4331.64" y1="1439.94" x2="4372.65" y2="1439.94" style="stroke:#F0F0F0;stroke-width:9.72"/>
	<line x1="346.44" y1="812.36" x2="411.24" y2="812.36" style="stroke:#F0F0F0;stroke-width:9.72"/>
	<line x1="443.64" y1="812.36" x2="508.44" y2="812.36" style="stroke:#F0F0F0;stroke-width:9.72"/>
	<line x1="540.84" y1="812.36" x2="605.64" y2="812.36" style="stroke:#F0F0F0;stroke-width:9.72"/>
	<line x1="638.04" y1="812.36" x2="702.84" y2="812.36" style="stroke:#F0F0F0;stroke-width:9.72"/>
	<line x1="735.24" y1="812.36" x2="800.04" y2="812.36" style="stroke:#F0F0F0;stroke-width:9.72"/>
	<line x1="832.44" y1="812.36" x2="897.24" y2="812.36" style="stroke:#F0F0F0;stroke-width:9.72"/>
	<line x1="929.64" y1="812.36" x2="994.44" y2="812.36" style="stroke:#F0F0F0;stroke-width:9.72"/>
	<line x1="1026.84" y1="812.36" x2="1091.64" y2="812.36" style="stroke:#F0F0F0;stroke-width:9.72"/>
	<line x1="1124.04" y1="812.36" x2="1188.84" y2="812.36" style="stroke:#F0F0F0;stroke-width:9.72"/>
	<line x1="1221.24" y1="812.36" x2="1286.04" y2="812.36" style="stroke:#F0F0F0;stroke-width:9.72"/>
	<line x1="1318.44" y1="812.36" x2="1383.24" y2="812.36" style="stroke:#F0F0F0;stroke-width:9.72"/>
	<line x1="1415.64" y1="812.36" x2="1480.44" y2="812.36" style="stroke:#F0F0F0;stroke-width:9.72"/>
	<line x1="1512.84" y1="812.36" x2="1577.64" y2="812.36" style="stroke:#F0F0F0;stroke-width:9.72"/>
	<line x1="1610.04" y1="812.36" x2="1674.84" y2="812.36" style="stroke:#F0F0F0;stroke-width:9.72"/>
	<line x1="1707.24" y1="812.36" x2="1772.04" y2="812.36" style="stroke:#F0F0F0;stroke-width:9.72"/>
	<line x1="1804.44" y1="812.36" x2="1869.24" y2="812.36" style="stroke:#F0F0F0;stroke-width:9.72"/>
	<line x1="1901.64" y1="812.36" x2="1966.44" y2="812.36" style="stroke:#F0F0F0;stroke-width:9.72"/>
	<line x1="1998.84" y1="812.36" x2="2063.64" y2="812.36" style="stroke:#F0F0F0;stroke-width:9.72"/>
	<line x1="2096.04" y1="812.36" x2="2160.84" y2="812.36" style="stroke:#F0F0F0;stroke-width:9.72"/>
	<line x1="2193.24" y1="812.36" x2="2258.04" y2="812.36" style="stroke:#F0F0F0;stroke-width:9.72"/>
	<line x1="2290.44" y1="812.36" x2="2355.24" y2="812.36" style="stroke:#F0F0F0;stroke-width:9.72"/>
	<line x1="2387.64" y1="812.36" x2="2452.44" y2="812.36" style="stroke:#F0F0F0;stroke-width:9.72"/>
	<line x1="2484.84" y1="812.36" x2="2549.64" y2="812.36" style="stroke:#F0F0F0;stroke-width:9.72"/>
	<line x1="2582.04" y1="812.36" x2="2646.84" y2="812.36" style="stroke:#F0F0F0;stroke-width:9.72"/>
	<line x1="2679.24" y1="812.36" x2="2744.04" y2="812.36" style="stroke:#F0F0F0;stroke-width:9.72"/>
	<line x1="2776.44" y1="812.36" x2="2841.24" y2="812.36" style="stroke:#F0F0F0;stroke-width:9.72"/>
	<line x1="2873.64" y1="812.36" x2="2938.44" y2="812.36" style="stroke:#F0F0F0;stroke-width:9.72"/>
	<line x1="2970.84" y1="812.36" x2="3035.64" y2="812.36" style="stroke:#F0F0F0;stroke-width:9.72"/>
	<line x1="3068.04" y1="812.36" x2="3132.84" y2="812.36" style="stroke:#F0F0F0;stroke-width:9.72"/>
	<line x1="3165.24" y1="812.36" x2="3230.04" y2="812.36" style="stroke:#F0F0F0;stroke-width:9.72"/>
	<line x1="3262.44" y1="812.36" x2="3327.24" y2="812.36" style="stroke:#F0F0F0;stroke-width:9.72"/>
	<line x1="3359.64" y1="812.36" x2="3424.44" y2="812.36" style="stroke:#F0F0F0;stroke-width:9.72"/>
	<line x1="3456.84" y1="812.36" x2="3521.64" y2="812.36" style="stroke:#F0F0F0;stroke-width:9.72"/>
	<line x1="3554.04" y1="812.36" x2="3618.84" y2="812.36" style="stroke:#F0F0F0;stroke-width:9.72"/>
	<line x1="3651.24" y1="812.36" x2="3716.04" y2="812.36" style="stroke:#F0F0F0;stroke-width:9.72"/>
	<line x1="3748.44" y1="812.36" x2="3813.24" y2="812.36" style="stroke:#F0F0F0;stroke-width:9.72"/>
	<line x1="3845.64" y1="812.36" x2="3910.44" y2="812.36" style="stroke:#F0F0F0;stroke-width:9.72"/>
	<line x1="3942.84" y1="812.36" x2="4007.64" y2="812.36" style="stroke:#F0F0F0;stroke-width:9.72"/>
	<line x1="4040.04" y1="812.36" x2="4104.84" y2="812.36" style="stroke:#F0F0F0;stroke-width:9.72"/>
	<line x1="4137.24" y1="812.36" x2="4202.04" y2="812.36" style="stroke:#F0F0F0;stroke-width:9.72"/>
	<line x1="4234.44" y1="812.36" x2="4299.24" y2="812.36" style="stroke:#F0F0F0;stroke-width:9.72"/>
	<line x1="4331.64" y1="812.36" x2="4372.65" y2="812.36" style="stroke:#F0F0F0;stroke-width:9.72"/>
	<line x1="346.44" y1="184.61" x2="411.24" y2="184.61" style="stroke:#F0F0F0;stroke-width:9.72"/>
	<line x1="443.64" y1="184.61" x2="508.44" y2="184.61" style="stroke:#F0F0F0;stroke-width:9.72"/>
	<line x1="540.84" y1="184.61" x2="605.64" y2="184.61" style="stroke:#F0F0F0;stroke-width:9.72"/>
	<line x1="638.04" y1="184.61" x2="702.84" y2="184.61" style="stroke:#F0F0F0;stroke-width:9.72"/>
	<line x1="735.24" y1="184.61" x2="800.04" y2="184.61" style="stroke:#F0F0F0;stroke-width:9.72"/>
	<line x1="832.44" y1="184.61" x2="897.24" y2="184.61" style="stroke:#F0F0F0;stroke-width:9.72"/>
	<line x1="929.64" y1="184.61" x2="994.44" y2="184.61" style="stroke:#F0F0F0;stroke-width:9.72"/>
	<line x1="1026.84" y1="184.61" x2="1091.64" y2="184.61" style="stroke:#F0F0F0;stroke-width:9.72"/>
	<line x1="1124.04" y1="184.61" x2="1188.84" y2="184.61" style="stroke:#F0F0F0;stroke-width:9.72"/>
	<line x1="1221.24" y1="184.61" x2="1286.04" y2="184.61" style="stroke:#F0F0F0;stroke-width:9.72"/>
	<line x1="1318.44" y1="184.61" x2="1383.24" y2="184.61" style="stroke:#F0F0F0;stroke-width:9.72"/>
	<line x1="1415.64" y1="184.61" x2="1480.44" y2="184.61" style="stroke:#F0F0F0;stroke-width:9.72"/>
	<line x1="1512.84" y1="184.61" x2="1577.64" y2="184.61" style="stroke:#F0F0F0;stroke-width:9.72"/>
	<line x1="1610.04" y1="184.61" x2="1674.84" y2="184.61" style="stroke:#F0F0F0;stroke-width:9.72"/>
	<line x1="1707.24" y1="184.61" x2="1772.04" y2="184.61" style="stroke:#F0F0F0;stroke-width:9.72"/>
	<line x1="1804.44" y1="184.61" x2="1869.24" y2="184.61" style="stroke:#F0F0F0;stroke-width:9.72"/>
	<line x1="1901.64" y1="184.61" x2="1966.44" y2="184.61" style="stroke:#F0F0F0;stroke-width:9.72"/>
	<line x1="1998.84" y1="184.61" x2="2063.64" y2="184.61" style="stroke:#F0F0F0;stroke-width:9.72"/>
	<line x1="2096.04" y1="184.61" x2="2160.84" y2="184.61" style="stroke:#F0F0F0;stroke-width:9.72"/>
	<line x1="2193.24" y1="184.61" x2="2258.04" y2="184.61" style="stroke:#F0F0F0;stroke-width:9.72"/>
	<line x1="2290.44" y1="184.61" x2="2355.24" y2="184.61" style="stroke:#F0F0F0;stroke-width:9.72"/>
	<line x1="2387.64" y1="184.61" x2="2452.44" y2="184.61" style="stroke:#F0F0F0;stroke-width:9.72"/>
	<line x1="2484.84" y1="184.61" x2="2549.64" y2="184.61" style="stroke:#F0F0F0;stroke-width:9.72"/>
	<line x1="2582.04" y1="184.61" x2="2646.84" y2="184.61" style="stroke:#F0F0F0;stroke-width:9.72"/>
	<line x1="2679.24" y1="184.61" x2="2744.04" y2="184.61" style="stroke:#F0F0F0;stroke-width:9.72"/>
	<line x1="2776.44" y1="184.61" x2="2841.24" y2="184.61" style="stroke:#F0F0F0;stroke-width:9.72"/>
	<line x1="2873.64" y1="184.61" x2="2938.44" y2="184.61" style="stroke:#F0F0F0;stroke-width:9.72"/>
	<line x1="2970.84" y1="184.61" x2="3035.64" y2="184.61" style="stroke:#F0F0F0;stroke-width:9.72"/>
	<line x1="3068.04" y1="184.61" x2="3132.84" y2="184.61" style="stroke:#F0F0F0;stroke-width:9.72"/>
	<line x1="3165.24" y1="184.61" x2="3230.04" y2="184.61" style="stroke:#F0F0F0;stroke-width:9.72"/>
	<line x1="3262.44" y1="184.61" x2="3327.24" y2="184.61" style="stroke:#F0F0F0;stroke-width:9.72"/>
	<line x1="3359.64" y1="184.61" x2="3424.44" y2="184.61" style="stroke:#F0F0F0;stroke-width:9.72"/>
	<line x1="3456.84" y1="184.61" x2="3521.64" y2="184.61" style="stroke:#F0F0F0;stroke-width:9.72"/>
	<line x1="3554.04" y1="184.61" x2="3618.84" y2="184.61" style="stroke:#F0F0F0;stroke-width:9.72"/>
	<line x1="3651.24" y1="184.61" x2="3716.04" y2="184.61" style="stroke:#F0F0F0;stroke-width:9.72"/>
	<line x1="3748.44" y1="184.61" x2="3813.24" y2="184.61" style="stroke:#F0F0F0;stroke-width:9.72"/>
	<line x1="3845.64" y1="184.61" x2="3910.44" y2="184.61" style="stroke:#F0F0F0;stroke-width:9.72"/>
	<line x1="3942.84" y1="184.61" x2="4007.64" y2="184.61" style="stroke:#F0F0F0;stroke-width:9.72"/>
	<line x1="4040.04" y1="184.61" x2="4104.84" y2="184.61" style="stroke:#F0F0F0;stroke-width:9.72"/>
	<line x1="4137.24" y1="184.61" x2="4202.04" y2="184.61" style="stroke:#F0F0F0;stroke-width:9.72"/>
	<line x1="4234.44" y1="184.61" x2="4299.24" y2="184.61" style="stroke:#F0F0F0;stroke-width:9.72"/>
	<line x1="4331.64" y1="184.61" x2="4372.65" y2="184.61" style="stroke:#F0F0F0;stroke-width:9.72"/>
	<line x1="417.66" y1="2766.66" x2="417.66" y2="2701.86" style="stroke:#F0F0F0;stroke-width:9.72"/>
	<line x1="417.66" y1="2669.46" x2="417.66" y2="2604.66" style="stroke:#F0F0F0;stroke-width:9.72"/>
	<line x1="417.66" y1="2572.26" x2="417.66" y2="2507.46" style="stroke:#F0F0F0;stroke-width:9.72"/>
	<line x1="417.66" y1="2475.06" x2="417.66" y2="2410.26" style="stroke:#F0F0F0;stroke-width:9.72"/>
	<line x1="417.66" y1="2377.86" x2="417.66" y2="2313.06" style="stroke:#F0F0F0;stroke-width:9.72"/>
	<line x1="417.66" y1="2280.66" x2="417.66" y2="2215.86" style="stroke:#F0F0F0;stroke-width:9.72"/>
	<line x1="417.66" y1="2183.46" x2="417.66" y2="2118.66" style="stroke:#F0F0F0;stroke-width:9.72"/>
	<line x1="417.66" y1="2086.26" x2="417.66" y2="2021.46" style="stroke:#F0F0F0;stroke-width:9.72"/>
	<line x1="417.66" y1="1989.06" x2="417.66" y2="1924.26" style="stroke:#F0F0F0;stroke-width:9.72"/>
	<line x1="417.66" y1="1891.86" x2="417.66" y2="1827.06" style="stroke:#F0F0F0;stroke-width:9.72"/>
	<line x1="417.66" y1="1794.66" x2="417.66" y2="1729.86" style="stroke:#F0F0F0;stroke-width:9.72"/>
	<line x1="417.66" y1="1697.46" x2="417.66" y2="1632.66" style="stroke:#F0F0F0;stroke-width:9.72"/>
	<line x1="417.66" y1="1600.26" x2="417.66" y2="1535.46" style="stroke:#F0F0F0;stroke-width:9.72"/>
	<line x1="417.66" y1="1503.06" x2="417.66" y2="1438.26" style="stroke:#F0F0F0;stroke-width:9.72"/>
	<line x1="417.66" y1="1405.86" x2="417.66" y2="1341.06" style="stroke:#F0F0F0;stroke-width:9.72"/>
	<line x1="417.66" y1="1308.66" x2="417.66" y2="1243.86" style="stroke:#F0F0F0;stroke-width:9.72"/>
	<line x1="417.66" y1="1211.46" x2="417.66" y2="1146.66" style="stroke:#F0F0F0;stroke-width:9.72"/>
	<line x1="417.66" y1="1114.26" x2="417.66" y2="1049.46" style="stroke:#F0F0F0;stroke-width:9.72"/>
	<line x1="417.66" y1="1017.06" x2="417.66" y2="952.26" style="stroke:#F0F0F0;stroke-width:9.72"/>
	<line x1="417.66" y1="919.86" x2="417.66" y2="855.06" style="stroke:#F0F0F0;stroke-width:9.72"/>
	<line x1="417.66" y1="822.66" x2="417.66" y2="757.86" style="stroke:#F0F0F0;stroke-width:9.72"/>
	<line x1="417.66" y1="725.46" x2="417.66" y2="660.66" style="stroke:#F0F0F0;stroke-width:9.72"/>
	<line x1="417.66" y1="628.26" x2="417.66" y2="563.46" style="stroke:#F0F0F0;stroke-width:9.72"/>
	<line x1="417.66" y1="531.06" x2="417.66" y2="466.26" style="stroke:#F0F0F0;stroke-width:9.72"/>
	<line x1="417.66" y1="433.86" x2="417.66" y2="369.06" style="stroke:#F0F0F0;stroke-width:9.72"/>
	<line x1="417.66" y1="336.66" x2="417.66" y2="271.86" style="stroke:#F0F0F0;stroke-width:9.72"/>
	<line x1="417.66" y1="239.46" x2="417.66" y2="174.66" style="stroke:#F0F0F0;stroke-width:9.72"/>
	<line x1="417.66" y1="142.26" x2="417.66" y2="113.40" style="stroke:#F0F0F0;stroke-width:9.72"/>
	<line x1="1388.64" y1="2766.66" x2="1388.64" y2="2701.86" style="stroke:#F0F0F0;stroke-width:9.72"/>
	<line x1="1388.64" y1="2669.46" x2="1388.64" y2="2604.66" style="stroke:#F0F0F0;stroke-width:9.72"/>
	<line x1="1388.64" y1="2572.26" x2="1388.64" y2="2507.46" style="stroke:#F0F0F0;stroke-width:9.72"/>
	<line x1="1388.64" y1="2475.06" x2="1388.64" y2="2410.26" style="stroke:#F0F0F0;stroke-width:9.72"/>
	<line x1="1388.64" y1="2377.86" x2="1388.64" y2="2313.06" style="stroke:#F0F0F0;stroke-width:9.72"/>
	<line x1="1388.64" y1="2280.66" x2="1388.64" y2="2215.86" style="stroke:#F0F0F0;stroke-width:9.72"/>
	<line x1="1388.64" y1="2183.46" x2="1388.64" y2="2118.66" style="stroke:#F0F0F0;stroke-width:9.72"/>
	<line x1="1388.64" y1="2086.26" x2="1388.64" y2="2021.46" style="stroke:#F0F0F0;stroke-width:9.72"/>
	<line x1="1388.64" y1="1989.06" x2="1388.64" y2="1924.26" style="stroke:#F0F0F0;stroke-width:9.72"/>
	<line x1="1388.64" y1="1891.86" x2="1388.64" y2="1827.06" style="stroke:#F0F0F0;stroke-width:9.72"/>
	<line x1="1388.64" y1="1794.66" x2="1388.64" y2="1729.86" style="stroke:#F0F0F0;stroke-width:9.72"/>
	<line x1="1388.64" y1="1697.46" x2="1388.64" y2="1632.66" style="stroke:#F0F0F0;stroke-width:9.72"/>
	<line x1="1388.64" y1="1600.26" x2="1388.64" y2="1535.46" style="stroke:#F0F0F0;stroke-width:9.72"/>
	<line x1="1388.64" y1="1503.06" x2="1388.64" y2="1438.26" style="stroke:#F0F0F0;stroke-width:9.72"/>
	<line x1="1388.64" y1="1405.86" x2="1388.64" y2="1341.06" style="stroke:#F0F0F0;stroke-width:9.72"/>
	<line x1="1388.64" y1="1308.66" x2="1388.64" y2="1243.86" style="stroke:#F0F0F0;stroke-width:9.72"/>
	<line x1="1388.64" y1="1211.46" x2="1388.64" y2="1146.66" style="stroke:#F0F0F0;stroke-width:9.72"/>
	<line x1="1388.64" y1="1114.26" x2="1388.64" y2="1049.46" style="stroke:#F0F0F0;stroke-width:9.72"/>
	<line x1="1388.64" y1="1017.06" x2="1388.64" y2="952.26" style="stroke:#F0F0F0;stroke-width:9.72"/>
	<line x1="1388.64" y1="919.86" x2="1388.64" y2="855.06" style="stroke:#F0F0F0;stroke-width:9.72"/>
	<line x1="1388.64" y1="822.66" x2="1388.64" y2="757.86" style="stroke:#F0F0F0;stroke-width:9.72"/>
	<line x1="1388.64" y1="725.46" x2="1388.64" y2="660.66" style="stroke:#F0F0F0;stroke-width:9.72"/>
	<line x1="1388.64" y1="628.26" x2="1388.64" y2="563.46" style="stroke:#F0F0F0;stroke-width:9.72"/>
	<line x1="1388.64" y1="531.06" x2="1388.64" y2="466.26" style="stroke:#F0F0F0;stroke-width:9.72"/>
	<line x1="1388.64" y1="433.86" x2="1388.64" y2="369.06" style="stroke:#F0F0F0;stroke-width:9.72"/>
	<line x1="1388.64" y1="336.66" x2="1388.64" y2="271.86" style="stroke:#F0F0F0;stroke-width:9.72"/>
	<line x1="1388.64" y1="239.46" x2="1388.64" y2="174.66" style="stroke:#F0F0F0;stroke-width:9.72"/>
	<line x1="1388.64" y1="142.26" x2="1388.64" y2="113.40" style="stroke:#F0F0F0;stroke-width:9.72"/>
	<line x1="2359.63" y1="2766.66" x2="2359.63" y2="2701.86" style="stroke:#F0F0F0;stroke-width:9.72"/>
	<line x1="2359.63" y1="2669.46" x2="2359.63" y2="2604.66" style="stroke:#F0F0F0;stroke-width:9.72"/>
	<line x1="2359.63" y1="2572.26" x2="2359.63" y2="2507.46" style="stroke:#F0F0F0;stroke-width:9.72"/>
	<line x1="2359.63" y1="2475.06" x2="2359.63" y2="2410.26" style="stroke:#F0F0F0;stroke-width:9.72"/>
	<line x1="2359.63" y1="2377.86" x2="2359.63" y2="2313.06" style="stroke:#F0F0F0;stroke-width:9.72"/>
	<line x1="2359.63" y1="2280.66" x2="2359.63" y2="2215.86" style="stroke:#F0F0F0;stroke-width:9.72"/>
	<line x1="2359.63" y1="2183.46" x2="2359.63" y2="2118.66" style="stroke:#F0F0F0;stroke-width:9.72"/>
	<line x1="2359.63" y1="2086.26" x2="2359.63" y2="2021.46" style="stroke:#F0F0F0;stroke-width:9.72"/>
	<line x1="2359.63" y1="1989.06" x2="2359.63" y2="1924.26" style="stroke:#F0F0F0;stroke-width:9.72"/>
	<line x1="2359.63" y1="1891.86" x2="2359.63" y2="1827.06" style="stroke:#F0F0F0;stroke-width:9.72"/>
	<line x1="2359.63" y1="1794.66" x2="2359.63" y2="1729.86" style="stroke:#F0F0F0;stroke-width:9.72"/>
	<line x1="2359.63" y1="1697.46" x2="2359.63" y2="1632.66" style="stroke:#F0F0F0;stroke-width:9.72"/>
	<line x1="2359.63" y1="1600.26" x2="2359.63" y2="1535.46" style="stroke:#F0F0F0;stroke-width:9.72"/>
	<line x1="2359.63" y1="1503.06" x2="2359.63" y2="1438.26" style="stroke:#F0F0F0;stroke-width:9.72"/>
	<line x1="2359.63" y1="1405.86" x2="2359.63" y2="1341.06" style="stroke:#F0F0F0;stroke-width:9.72"/>
	<line x1="2359.63" y1="1308.66" x2="2359.63" y2="1243.86" style="stroke:#F0F0F0;stroke-width:9.72"/>
	<line x1="2359.63" y1="1211.46" x2="2359.63" y2="1146.66" style="stroke:#F0F0F0;stroke-width:9.72"/>
	<line x1="2359.63" y1="1114.26" x2="2359.63" y2="1049.46" style="stroke:#F0F0F0;stroke-width:9.72"/>
	<line x1="2359.63" y1="1017.06" x2="2359.63" y2="952.26" style="stroke:#F0F0F0;stroke-width:9.72"/>
	<line x1="2359.63" y1="919.86" x2="2359.63" y2="855.06" style="stroke:#F0F0F0;stroke-width:9.72"/>
	<line x1="2359.63" y1="822.66" x2="2359.63" y2="757.86" style="stroke:#F0F0F0;stroke-width:9.72"/>
	<line x1="2359.63" y1="725.46" x2="2359.63" y2="660.66" style="stroke:#F0F0F0;stroke-width:9.72"/>
	<line x1="2359.63" y1="628.26" x2="2359.63" y2="563.46" style="stroke:#F0F0F0;stroke-width:9.72"/>
	<line x1="2359.63" y1="531.06" x2="2359.63" y2="466.26" style="stroke:#F0F0F0;stroke-width:9.72"/>
	<line x1="2359.63" y1="433.86" x2="2359.63" y2="369.06" style="stroke:#F0F0F0;stroke-width:9.72"/>
	<line x1="2359.63" y1="336.66" x2="2359.63" y2="271.86" style="stroke:#F0F0F0;stroke-width:9.72"/>
	<line x1="2359.63" y1="239.46" x2="2359.63" y2="174.66" style="stroke:#F0F0F0;stroke-width:9.72"/>
	<line x1="2359.63" y1="142.26" x2="2359.63" y2="113.40" style="stroke:#F0F0F0;stroke-width:9.72"/>
	<line x1="3330.45" y1="2766.66" x2="3330.45" y2="2701.86" style="stroke:#F0F0F0;stroke-width:9.72"/>
	<line x1="3330.45" y1="2669.46" x2="3330.45" y2="2604.66" style="stroke:#F0F0F0;stroke-width:9.72"/>
	<line x1="3330.45" y1="2572.26" x2="3330.45" y2="2507.46" style="stroke:#F0F0F0;stroke-width:9.72"/>
	<line x1="3330.45" y1="2475.06" x2="3330.45" y2="2410.26" style="stroke:#F0F0F0;stroke-width:9.72"/>
	<line x1="3330.45" y1="2377.86" x2="3330.45" y2="2313.06" style="stroke:#F0F0F0;stroke-width:9.72"/>
	<line x1="3330.45" y1="2280.66" x2="3330.45" y2="2215.86" style="stroke:#F0F0F0;stroke-width:9.72"/>
	<line x1="3330.45" y1="2183.46" x2="3330.45" y2="2118.66" style="stroke:#F0F0F0;stroke-width:9.72"/>
	<line x1="3330.45" y1="2086.26" x2="3330.45" y2="2021.46" style="stroke:#F0F0F0;stroke-width:9.72"/>
	<line x1="3330.45" y1="1989.06" x2="3330.45" y2="1924.26" style="stroke:#F0F0F0;stroke-width:9.72"/>
	<line x1="3330.45" y1="1891.86" x2="3330.45" y2="1827.06" style="stroke:#F0F0F0;stroke-width:9.72"/>
	<line x1="3330.45" y1="1794.66" x2="3330.45" y2="1729.86" style="stroke:#F0F0F0;stroke-width:9.72"/>
	<line x1="3330.45" y1="1697.46" x2="3330.45" y2="1632.66" style="stroke:#F0F0F0;stroke-width:9.72"/>
	<line x1="3330.45" y1="1600.26" x2="3330.45" y2="1535.46" style="stroke:#F0F0F0;stroke-width:9.72"/>
	<line x1="3330.45" y1="1503.06" x2="3330.45" y2="1438.26" style="stroke:#F0F0F0;stroke-width:9.72"/>
	<line x1="3330.45" y1="1405.86" x2="3330.45" y2="1341.06" style="stroke:#F0F0F0;stroke-width:9.72"/>
	<line x1="3330.45" y1="1308.66" x2="3330.45" y2="1243.86" style="stroke:#F0F0F0;stroke-width:9.72"/>
	<line x1="3330.45" y1="1211.46" x2="3330.45" y2="1146.66" style="stroke:#F0F0F0;stroke-width:9.72"/>
	<line x1="3330.45" y1="1114.26" x2="3330.45" y2="1049.46" style="stroke:#F0F0F0;stroke-width:9.72"/>
	<line x1="3330.45" y1="1017.06" x2="3330.45" y2="952.26" style="stroke:#F0F0F0;stroke-width:9.72"/>
	<line x1="3330.45" y1="919.86" x2="3330.45" y2="855.06" style="stroke:#F0F0F0;stroke-width:9.72"/>
	<line x1="3330.45" y1="822.66" x2="3330.45" y2="757.86" style="stroke:#F0F0F0;stroke-width:9.72"/>
	<line x1="3330.45" y1="725.46" x2="3330.45" y2="660.66" style="stroke:#F0F0F0;stroke-width:9.72"/>
	<line x1="3330.45" y1="628.26" x2="3330.45" y2="563.46" style="stroke:#F0F0F0;stroke-width:9.72"/>
	<line x1="3330.45" y1="531.06" x2="3330.45" y2="466.26" style="stroke:#F0F0F0;stroke-width:9.72"/>
	<line x1="3330.45" y1="433.86" x2="3330.45" y2="369.06" style="stroke:#F0F0F0;stroke-width:9.72"/>
	<line x1="3330.45" y1="336.66" x2="3330.45" y2="271.86" style="stroke:#F0F0F0;stroke-width:9.72"/>
	<line x1="3330.45" y1="239.46" x2="3330.45" y2="174.66" style="stroke:#F0F0F0;stroke-width:9.72"/>
	<line x1="3330.45" y1="142.26" x2="3330.45" y2="113.40" style="stroke:#F0F0F0;stroke-width:9.72"/>
	<line x1="4301.44" y1="2766.66" x2="4301.44" y2="2701.86" style="stroke:#F0F0F0;stroke-width:9.72"/>
	<line x1="4301.44" y1="2669.46" x2="4301.44" y2="2604.66" style="stroke:#F0F0F0;stroke-width:9.72"/>
	<line x1="4301.44" y1="2572.26" x2="4301.44" y2="2507.46" style="stroke:#F0F0F0;stroke-width:9.72"/>
	<line x1="4301.44" y1="2475.06" x2="4301.44" y2="2410.26" style="stroke:#F0F0F0;stroke-width:9.72"/>
	<line x1="4301.44" y1="2377.86" x2="4301.44" y2="2313.06" style="stroke:#F0F0F0;stroke-width:9.72"/>
	<line x1="4301.44" y1="2280.66" x2="4301.44" y2="2215.86" style="stroke:#F0F0F0;stroke-width:9.72"/>
	<line x1="4301.44" y1="2183.46" x2="4301.44" y2="2118.66" style="stroke:#F0F0F0;stroke-width:9.72"/>
	<line x1="4301.44" y1="2086.26" x2="4301.44" y2="2021.46" style="stroke:#F0F0F0;stroke-width:9.72"/>
	<line x1="4301.44" y1="1989.06" x2="4301.44" y2="1924.26" style="stroke:#F0F0F0;stroke-width:9.72"/>
	<line x1="4301.44" y1="1891.86" x2="4301.44" y2="1827.06" style="stroke:#F0F0F0;stroke-width:9.72"/>
	<line x1="4301.44" y1="1794.66" x2="4301.44" y2="1729.86" style="stroke:#F0F0F0;stroke-width:9.72"/>
	<line x1="4301.44" y1="1697.46" x2="4301.44" y2="1632.66" style="stroke:#F0F0F0;stroke-width:9.72"/>
	<line x1="4301.44" y1="1600.26" x2="4301.44" y2="1535.46" style="stroke:#F0F0F0;stroke-width:9.72"/>
	<line x1="4301.44" y1="1503.06" x2="4301.44" y2="1438.26" style="stroke:#F0F0F0;stroke-width:9.72"/>
	<line x1="4301.44" y1="1405.86" x2="4301.44" y2="1341.06" style="stroke:#F0F0F0;stroke-width:9.72"/>
	<line x1="4301.44" y1="1308.66" x2="4301.44" y2="1243.86" style="stroke:#F0F0F0;stroke-width:9.72"/>
	<line x1="4301.44" y1="1211.46" x2="4301.44" y2="1146.66" style="stroke:#F0F0F0;stroke-width:9.72"/>
	<line x1="4301.44" y1="1114.26" x2="4301.44" y2="1049.46" style="stroke:#F0F0F0;stroke-width:9.72"/>
	<line x1="4301.44" y1="1017.06" x2="4301.44" y2="952.26" style="stroke:#F0F0F0;stroke-width:9.72"/>
	<line x1="4301.44" y1="919.86" x2="4301.44" y2="855.06" style="stroke:#F0F0F0;stroke-width:9.72"/>
	<line x1="4301.44" y1="822.66" x2="4301.44" y2="757.86" style="stroke:#F0F0F0;stroke-width:9.72"/>
	<line x1="4301.44" y1="725.46" x2="4301.44" y2="660.66" style="stroke:#F0F0F0;stroke-width:9.72"/>
	<line x1="4301.44" y1="628.26" x2="4301.44" y2="563.46" style="stroke:#F0F0F0;stroke-width:9.72"/>
	<line x1="4301.44" y1="531.06" x2="4301.44" y2="466.26" style="stroke:#F0F0F0;stroke-width:9.72"/>
	<line x1="4301.44" y1="433.86" x2="4301.44" y2="369.06" style="stroke:#F0F0F0;stroke-width:9.72"/>
	<line x1="4301.44" y1="336.66" x2="4301.44" y2="271.86" style="stroke:#F0F0F0;stroke-width:9.72"/>
	<line x1="4301.44" y1="239.46" x2="4301.44" y2="174.66" style="stroke:#F0F0F0;stroke-width:9.72"/>
	<line x1="4301.44" y1="142.26" x2="4301.44" y2="113.40" style="stroke:#F0F0F0;stroke-width:9.72"/>
	<line x1="2359.63" y1="2766.66" x2="2359.63" y2="2701.86" style="stroke:#000000;stroke-width:9.72"/>
	<line x1="2359.63" y1="2669.46" x2="2359.63" y2="2604.66" style="stroke:#000000;stroke-width:9.72"/>
	<line x1="2359.63" y1="2572.26" x2="2359.63" y2="2507.46" style="stroke:#000000;stroke-width:9.72"/>
	<line x1="2359.63" y1="2475.06" x2="2359.63" y2="2410.26" style="stroke:#000000;stroke-width:9.72"/>
	<line x1="2359.63" y1="2377.86" x2="2359.63" y2="2313.06" style="stroke:#000000;stroke-width:9.72"/>
	<line x1="2359.63" y1="2280.66" x2="2359.63" y2="2215.86" style="stroke:#000000;stroke-width:9.72"/>
	<line x1="2359.63" y1="2183.46" x2="2359.63" y2="2118.66" style="stroke:#000000;stroke-width:9.72"/>
	<line x1="2359.63" y1="2086.26" x2="2359.63" y2="2021.46" style="stroke:#000000;stroke-width:9.72"/>
	<line x1="2359.63" y1="1989.06" x2="2359.63" y2="1924.26" style="stroke:#000000;stroke-width:9.72"/>
	<line x1="2359.63" y1="1891.86" x2="2359.63" y2="1827.06" style="stroke:#000000;stroke-width:9.72"/>
	<line x1="2359.63" y1="1794.66" x2="2359.63" y2="1729.86" style="stroke:#000000;stroke-width:9.72"/>
	<line x1="2359.63" y1="1697.46" x2="2359.63" y2="1632.66" style="stroke:#000000;stroke-width:9.72"/>
	<line x1="2359.63" y1="1600.26" x2="2359.63" y2="1535.46" style="stroke:#000000;stroke-width:9.72"/>
	<line x1="2359.63" y1="1503.06" x2="2359.63" y2="1438.26" style="stroke:#000000;stroke-width:9.72"/>
	<line x1="2359.63" y1="1405.86" x2="2359.63" y2="1341.06" style="stroke:#000000;stroke-width:9.72"/>
	<line x1="2359.63" y1="1308.66" x2="2359.63" y2="1243.86" style="stroke:#000000;stroke-width:9.72"/>
	<line x1="2359.63" y1="1211.46" x2="2359.63" y2="1146.66" style="stroke:#000000;stroke-width:9.72"/>
	<line x1="2359.63" y1="1114.26" x2="2359.63" y2="1049.46" style="stroke:#000000;stroke-width:9.72"/>
	<line x1="2359.63" y1="1017.06" x2="2359.63" y2="952.26" style="stroke:#000000;stroke-width:9.72"/>
	<line x1="2359.63" y1="919.86" x2="2359.63" y2="855.06" style="stroke:#000000;stroke-width:9.72"/>
	<line x1="2359.63" y1="822.66" x2="2359.63" y2="757.86" style="stroke:#000000;stroke-width:9.72"/>
	<line x1="2359.63" y1="725.46" x2="2359.63" y2="660.66" style="stroke:#000000;stroke-width:9.72"/>
	<line x1="2359.63" y1="628.26" x2="2359.63" y2="563.46" style="stroke:#000000;stroke-width:9.72"/>
	<line x1="2359.63" y1="531.06" x2="2359.63" y2="466.26" style="stroke:#000000;stroke-width:9.72"/>
	<line x1="2359.63" y1="433.86" x2="2359.63" y2="369.06" style="stroke:#000000;stroke-width:9.72"/>
	<line x1="2359.63" y1="336.66" x2="2359.63" y2="271.86" style="stroke:#000000;stroke-width:9.72"/>
	<line x1="2359.63" y1="239.46" x2="2359.63" y2="174.66" style="stroke:#000000;stroke-width:9.72"/>
	<line x1="2359.63" y1="142.26" x2="2359.63" y2="113.40" style="stroke:#000000;stroke-width:9.72"/>
	<path d=" M925.09 2656.46 L934.54 2651.40 L943.99 2646.51 L953.27 2641.28 L962.72 2636.38 L972.17 2630.64 L981.45 2624.91 L990.90 2619.00 L1000.35 2612.76 L1009.63 2606.51 L1019.08 2600.10 L1028.53 2593.86 L1037.81 2587.78 L1047.26 2582.21 L1056.71 2577.32 L1065.99 2572.76 L1075.44 2568.71 L1084.89 2564.16 L1094.18 2559.77 L1103.63 2555.89 L1113.08 2552.68 L1122.36 2549.81 L1131.81 2546.78 L1141.26 2542.73 L1150.54 2538.84 L1159.99 2534.79 L1169.44 2529.56 L1178.72 2525.01 L1188.17 2520.62 L1197.62 2516.57 L1206.90 2513.36 L1216.35 2508.64 L1225.80 2503.74 L1235.08 2498.68 L1244.53 2493.11 L1253.98 2486.70 L1263.26 2479.44 L1272.71 2472.53 L1282.16 2466.28 L1291.44 2459.19 L1300.89 2450.76 L1310.34 2441.64 L1319.63 2431.69 L1329.08 2422.07 L1338.53 2411.10 L1347.81 2400.81 L1357.26 2390.34 L1366.71 2380.05 L1375.99 2370.43 L1385.44 2358.45 L1394.89 2344.95 L1404.17 2329.43 L1413.62 2313.90 L1423.07 2298.71 L1432.35 2284.54 L1441.80 2270.19 L1451.25 2254.67 L1460.53 2237.96 L1469.98 2221.26 L1479.43 2204.38 L1488.71 2188.52 L1498.16 2172.99 L1507.61 2157.30 L1516.89 2142.62 L1526.34 2127.09 L1535.79 2113.26 L1545.08 2100.77 L1554.53 2086.59 L1563.98 2072.59 L1573.26 2056.73 L1582.71 2036.14 L1592.16 2015.55 L1601.44 1994.96 L1610.89 1971.68 L1620.34 1947.38 L1629.62 1921.73 L1639.07 1896.58 L1648.52 1871.78 L1657.80 1847.48 L1667.25 1823.34 L1676.70 1798.71 L1685.98 1771.88 L1695.43 1742.68 L1704.88 1712.48 L1714.16 1680.08 L1723.61 1647.17 L1733.06 1612.24 L1742.34 1576.46 L1751.79 1541.19 L1761.24 1504.74 L1770.53 1467.96 L1779.98 1430.33 L1789.43 1392.36 L1798.71 1352.53 L1808.16 1312.03 L1817.61 1271.87 L1826.89 1229.85 L1836.34 1187.83 L1845.79 1146.15 L1855.07 1102.44 L1864.52 1057.72 L1873.97 1013.68 L1883.25 970.65 L1892.70 928.80 L1902.15 888.81 L1911.43 849.66 L1920.88 810.00 L1930.33 771.19 L1939.61 732.38 L1949.06 693.56 L1958.51 656.44 L1967.79 622.35 L1977.24 589.95 L1986.69 558.22 L1995.98 530.04 L2005.43 506.93 L2014.88 489.38 L2024.16 471.15 L2033.61 455.46 L2043.06 441.62 L2052.34 424.74 L2061.79 407.19 L2071.24 392.18 L2080.52 374.46 L2089.97 357.24 L2099.42 340.03 L2108.70 324.34 L2118.15 310.50 L2127.60 300.21 L2136.88 294.13 L2146.33 292.28 L2155.78 292.11 L2165.06 292.28 L2174.51 293.12 L2183.96 294.30 L2193.24 297.17 L2202.69 300.88 L2212.14 302.74 L2221.43 302.23 L2230.88 300.21 L2240.32 300.38 L2249.61 298.86 L2259.06 298.69 L2268.51 293.63 L2277.79 289.57 L2287.24 287.72 L2296.69 283.50 L2305.97 278.27 L2315.42 273.54 L2324.87 270.34 L2334.15 267.97 L2343.60 268.14 L2353.05 272.19 L2362.33 277.09 L2371.78 284.01 L2381.23 292.78 L2390.51 301.05 L2399.96 308.14 L2409.41 314.55 L2418.69 314.38 L2428.14 311.34 L2437.59 306.28 L2446.88 302.40 L2456.32 300.21 L2465.78 300.38 L2475.06 303.24 L2484.51 309.82 L2493.96 315.56 L2503.24 322.99 L2512.69 330.92 L2522.14 339.86 L2531.42 348.64 L2540.87 359.94 L2550.32 368.55 L2559.60 379.52 L2569.05 391.33 L2578.50 400.78 L2587.78 411.92 L2597.23 424.91 L2606.68 440.78 L2615.96 458.83 L2625.41 482.46 L2634.86 508.95 L2644.14 538.99 L2653.59 571.39 L2663.04 606.15 L2672.33 643.11 L2681.78 679.89 L2691.23 712.63 L2700.51 743.85 L2709.96 775.57 L2719.41 804.26 L2728.69 832.28 L2738.14 856.57 L2747.59 880.20 L2756.87 908.72 L2766.32 937.41 L2775.77 964.74 L2785.05 992.76 L2794.50 1022.46 L2803.95 1055.87 L2813.23 1089.96 L2822.68 1127.59 L2832.13 1165.72 L2841.41 1206.06 L2850.86 1247.40 L2860.31 1288.58 L2869.59 1326.54 L2879.04 1364.51 L2888.49 1398.94 L2897.78 1432.01 L2907.23 1461.04 L2916.68 1489.89 L2925.96 1522.29 L2935.41 1555.37 L2944.86 1588.44 L2954.14 1621.69 L2963.59 1654.26 L2973.04 1687.16 L2982.32 1718.21 L2991.77 1746.23 L3001.05 1774.91 L3010.50 1805.29 L3019.95 1834.99 L3029.23 1865.87 L3038.68 1896.41 L3048.13 1922.57 L3057.41 1948.56 L3066.86 1973.36 L3076.31 1996.14 L3085.59 2015.55 L3095.04 2037.15 L3104.49 2059.59 L3113.78 2083.89 L3123.23 2108.03 L3132.68 2132.32 L3141.96 2157.30 L3151.41 2180.59 L3160.86 2200.67 L3170.14 2220.58 L3179.59 2239.14 L3189.04 2256.19 L3198.32 2271.54 L3207.77 2284.88 L3217.22 2296.69 L3226.50 2309.01 L3235.95 2321.83 L3245.40 2333.81 L3254.68 2345.79 L3264.13 2356.59 L3273.58 2368.24 L3282.86 2380.22 L3292.31 2391.19 L3301.76 2401.65 L3311.04 2412.11 L3320.49 2421.23 L3329.94 2428.65 L3339.23 2433.71 L3348.68 2437.26 L3358.13 2441.98 L3367.41 2447.72 L3376.86 2452.95 L3386.31 2458.18 L3395.59 2464.09 L3405.04 2471.18 L3414.49 2478.94 L3423.77 2487.04 L3433.22 2494.97 L3442.67 2502.56 L3451.95 2509.65 L3461.40 2515.73 L3470.85 2522.48 L3480.13 2530.07 L3489.58 2538.34 L3499.03 2546.27 L3508.31 2552.51 L3517.76 2557.57 L3527.21 2562.64 L3536.49 2567.19 L3545.94 2570.91 L3555.39 2574.28 L3564.68 2578.33 L3574.13 2582.72 L3583.58 2587.78 L3592.86 2592.68 L3602.31 2598.07 L3611.76 2603.98 L3621.04 2609.04 L3630.49 2613.60 L3639.94 2618.49 L3649.22 2622.88 L3658.67 2627.94 L3668.12 2632.33 L3677.40 2636.04 L3686.85 2639.42 L3696.30 2641.95 L3705.58 2644.48 L3715.03 2647.52 L3724.48 2650.56 L3733.76 2653.76" stroke-linejoin="round" style="fill:none;stroke:#1A85FF;stroke-width:9.72"/>
	<path d=" M920.03 2656.13 L929.31 2650.89 L938.59 2646.00 L947.87 2640.77 L957.15 2635.71 L966.26 2629.97 L975.54 2624.06 L984.83 2617.99 L994.11 2611.57 L1003.22 2605.16 L1012.50 2598.75 L1021.78 2592.68 L1031.06 2586.43 L1040.34 2580.86 L1049.46 2575.80 L1058.74 2571.24 L1068.02 2567.19 L1077.30 2562.64 L1086.41 2558.08 L1095.69 2554.20 L1104.97 2550.99 L1114.26 2548.13 L1123.54 2545.26 L1132.65 2541.21 L1141.93 2537.32 L1151.21 2533.11 L1160.49 2527.88 L1169.61 2523.15 L1178.89 2518.76 L1188.17 2514.71 L1197.45 2511.51 L1206.73 2507.12 L1215.84 2502.23 L1225.13 2497.33 L1234.41 2491.59 L1243.69 2485.18 L1252.97 2478.26 L1262.08 2471.18 L1271.36 2464.76 L1280.64 2458.18 L1289.93 2449.91 L1299.04 2441.14 L1308.32 2431.01 L1317.60 2421.56 L1326.88 2410.43 L1336.16 2399.79 L1345.28 2389.33 L1354.56 2378.87 L1363.84 2369.25 L1373.12 2357.27 L1382.23 2343.77 L1391.51 2328.58 L1400.79 2312.72 L1410.08 2297.03 L1419.36 2282.34 L1428.47 2268.00 L1437.75 2252.81 L1447.03 2235.43 L1456.31 2218.05 L1465.43 2200.84 L1474.71 2184.13 L1483.99 2168.44 L1493.27 2152.24 L1502.55 2137.73 L1511.66 2122.20 L1520.94 2107.69 L1530.23 2094.86 L1539.51 2081.19 L1548.62 2066.68 L1557.90 2052.34 L1567.18 2032.93 L1576.46 2011.67 L1585.74 1991.08 L1594.86 1968.47 L1604.14 1943.66 L1613.42 1918.01 L1622.70 1892.70 L1631.98 1867.22 L1641.09 1842.41 L1650.38 1817.78 L1659.66 1792.80 L1668.94 1767.15 L1678.05 1738.13 L1687.33 1708.09 L1696.61 1675.52 L1705.89 1641.26 L1715.18 1606.50 L1724.29 1569.54 L1733.57 1534.28 L1742.85 1497.83 L1752.13 1460.36 L1761.24 1422.23 L1770.53 1383.58 L1779.81 1344.26 L1789.09 1302.75 L1798.37 1262.42 L1807.48 1221.08 L1816.76 1178.21 L1826.04 1136.19 L1835.33 1092.82 L1844.44 1047.60 L1853.72 1003.39 L1863.00 959.01 L1872.28 915.64 L1881.56 874.46 L1890.68 834.97 L1899.96 794.81 L1909.24 755.49 L1918.52 715.84 L1927.80 676.69 L1936.91 638.55 L1946.19 603.28 L1955.48 569.70 L1964.76 538.31 L1973.87 508.11 L1983.15 482.29 L1992.43 462.71 L2001.71 444.49 L2010.99 426.77 L2020.11 412.76 L2029.39 396.56 L2038.67 377.66 L2047.95 362.64 L2057.06 345.26 L2066.34 327.21 L2075.63 311.01 L2084.91 295.14 L2094.19 279.79 L2103.30 267.64 L2112.58 259.88 L2121.86 256.33 L2131.14 255.99 L2140.26 255.66 L2149.54 257.34 L2158.82 257.85 L2168.10 259.88 L2177.38 262.91 L2186.49 264.43 L2195.78 266.12 L2205.06 264.26 L2214.34 262.91 L2223.45 260.38 L2232.73 260.55 L2242.01 255.66 L2251.29 250.26 L2260.57 248.40 L2269.69 245.53 L2278.97 240.30 L2288.25 235.07 L2297.53 230.85 L2306.81 228.32 L2315.93 228.99 L2325.21 232.37 L2334.49 236.08 L2343.77 241.99 L2352.88 250.59 L2362.16 258.36 L2371.44 266.79 L2380.73 272.87 L2390.01 275.23 L2399.12 272.87 L2408.40 267.97 L2417.68 263.76 L2426.96 261.73 L2436.07 260.55 L2445.36 263.08 L2454.64 267.13 L2463.92 273.21 L2473.20 279.11 L2482.31 285.19 L2491.59 292.95 L2500.88 301.89 L2510.16 312.86 L2519.27 322.48 L2528.55 332.78 L2537.83 345.77 L2547.11 356.40 L2556.39 367.71 L2565.51 379.35 L2574.79 393.86 L2584.07 410.91 L2593.35 433.18 L2602.63 458.16 L2611.74 488.19 L2621.03 520.09 L2630.31 555.19 L2639.59 591.81 L2648.70 629.78 L2657.98 665.21 L2667.26 697.95 L2676.54 730.52 L2685.83 759.54 L2694.94 790.26 L2704.22 815.74 L2713.50 839.36 L2722.78 867.88 L2731.89 897.24 L2741.18 926.94 L2750.46 955.29 L2759.74 984.32 L2769.02 1016.72 L2778.13 1053.00 L2787.41 1090.97 L2796.69 1129.61 L2805.98 1169.27 L2815.09 1209.77 L2824.37 1251.11 L2833.65 1291.44 L2842.93 1329.58 L2852.21 1366.71 L2861.33 1401.30 L2870.61 1432.01 L2879.89 1461.54 L2889.17 1493.44 L2898.28 1527.53 L2907.56 1561.78 L2916.84 1595.03 L2926.13 1628.10 L2935.41 1661.01 L2944.52 1691.72 L2953.80 1720.07 L2963.08 1749.94 L2972.36 1780.82 L2981.64 1810.52 L2990.76 1841.74 L3000.04 1871.61 L3009.32 1899.28 L3018.60 1926.28 L3027.71 1950.92 L3036.99 1973.87 L3046.28 1994.46 L3055.56 2016.06 L3064.84 2038.84 L3073.95 2062.63 L3083.23 2087.27 L3092.51 2112.07 L3101.79 2137.73 L3110.91 2161.18 L3120.19 2183.29 L3129.47 2203.71 L3138.75 2223.28 L3148.03 2241.17 L3157.14 2257.20 L3166.43 2270.70 L3175.71 2282.68 L3184.99 2295.34 L3194.10 2309.01 L3203.38 2322.51 L3212.66 2335.50 L3221.94 2347.14 L3231.23 2358.96 L3240.34 2371.78 L3249.62 2383.93 L3258.90 2394.90 L3268.18 2405.87 L3277.46 2414.98 L3286.58 2422.57 L3295.86 2427.81 L3305.14 2432.03 L3314.42 2436.92 L3323.53 2442.99 L3332.81 2449.57 L3342.09 2455.31 L3351.38 2461.56 L3360.66 2468.98 L3369.77 2476.91 L3379.05 2485.01 L3388.33 2493.79 L3397.61 2501.38 L3406.73 2508.30 L3416.01 2514.71 L3425.29 2521.63 L3434.57 2529.56 L3443.85 2537.49 L3452.96 2545.26 L3462.24 2551.67 L3471.53 2556.90 L3480.81 2561.79 L3489.92 2566.52 L3499.20 2569.56 L3508.48 2573.10 L3517.76 2577.15 L3527.04 2581.88 L3536.16 2587.11 L3545.44 2592.00 L3554.72 2597.57 L3564.00 2603.64 L3573.11 2608.88 L3582.39 2613.43 L3591.68 2618.49 L3600.96 2623.22 L3610.24 2628.28 L3619.35 2632.50 L3628.63 2635.54 L3637.91 2638.58 L3647.19 2640.94 L3656.48 2643.64 L3665.59 2646.68 L3674.87 2649.88 L3684.15 2653.26" stroke-linejoin="round" style="fill:none;stroke:#D41159;stroke-width:9.72"/>
	<line x1="346.44" y1="2766.66" x2="346.44" y2="113.40" style="stroke:#000000;stroke-width:6.48"/>
	<line x1="346.44" y1="2695.28" x2="301.39" y2="2695.28" style="stroke:#000000;stroke-width:6.48"/>
	<text x="278.94" y="2734.71" style="font-family:'Helvetica';font-size:112.56px;fill:#000000" text-anchor="end">0</text>
	<line x1="346.44" y1="2067.69" x2="301.39" y2="2067.69" style="stroke:#000000;stroke-width:6.48"/>
	<text x="278.94" y="2107.13" style="font-family:'Helvetica';font-size:112.56px;fill:#000000" text-anchor="end">1</text>
	<line x1="346.44" y1="1439.94" x2="301.39" y2="1439.94" style="stroke:#000000;stroke-width:6.48"/>
	<text x="278.94" y="1479.38" style="font-family:'Helvetica';font-size:112.56px;fill:#000000" text-anchor="end">2</text>
	<line x1="346.44" y1="812.36" x2="301.39" y2="812.36" style="stroke:#000000;stroke-width:6.48"/>
	<text x="278.94" y="851.80" style="font-family:'Helvetica';font-size:112.56px;fill:#000000" text-anchor="end">3</text>
	<line x1="346.44" y1="184.61" x2="301.39" y2="184.61" style="stroke:#000000;stroke-width:6.48"/>
	<text x="278.94" y="224.05" style="font-family:'Helvetica';font-size:112.56px;fill:#000000" text-anchor="end">4</text>
	<line x1="346.44" y1="2766.66" x2="4372.65" y2="2766.66" style="stroke:#000000;stroke-width:6.48"/>
	<line x1="417.66" y1="2766.66" x2="417.66" y2="2811.54" style="stroke:#000000;stroke-width:6.48"/>
	<text x="417.66" y="2912.86" style="font-family:'Helvetica';font-size:112.56px;fill:#000000" text-anchor="middle">0</text>
	<line x1="1388.64" y1="2766.66" x2="1388.64" y2="2811.54" style="stroke:#000000;stroke-width:6.48"/>
	<text x="1388.64" y="2912.86" style="font-family:'Helvetica';font-size:112.56px;fill:#000000" text-anchor="middle">.2</text>
	<line x1="2359.63" y1="2766.66" x2="2359.63" y2="2811.54" style="stroke:#000000;stroke-width:6.48"/>
	<text x="2359.63" y="2912.86" style="font-family:'Helvetica';font-size:112.56px;fill:#000000" text-anchor="middle">.4</text>
	<line x1="3330.45" y1="2766.66" x2="3330.45" y2="2811.54" style="stroke:#000000;stroke-width:6.48"/>
	<text x="3330.45" y="2912.86" style="font-family:'Helvetica';font-size:112.56px;fill:#000000" text-anchor="middle">.6</text>
	<line x1="4301.44" y1="2766.66" x2="4301.44" y2="2811.54" style="stroke:#000000;stroke-width:6.48"/>
	<text x="4301.44" y="2912.86" style="font-family:'Helvetica';font-size:112.56px;fill:#000000" text-anchor="middle">.8</text>
	<text x="2359.63" y="3070.31" style="font-family:'Helvetica';font-size:112.56px;fill:#000000" text-anchor="middle">x</text>
	<rect x="4411.63" y="1256.34" width="836.16" height="367.20" style="fill:#FFFFFF"/>
	<rect x="4414.87" y="1259.58" width="829.68" height="360.72" style="fill:none;stroke:#FFFFFF;stroke-width:6.48"/>
	<line x1="4460.23" y1="1361.31" x2="4719.43" y2="1361.31" style="stroke:#1A85FF;stroke-width:9.72"/>
	<line x1="4460.23" y1="1518.75" x2="4719.43" y2="1518.75" style="stroke:#D41159;stroke-width:9.72"/>
	<text x="4786.93" y="1400.74" style="font-family:'Helvetica';font-size:112.56px;fill:#000000">Logistic</text>
	<text x="4786.93" y="1558.19" style="font-family:'Helvetica';font-size:112.56px;fill:#000000">Poisson</text>
</svg>
