<?xml version="1.0" encoding="UTF-8" standalone="no"?>
<!-- This is a Stata 18.0 generated SVG file (http://www.stata.com) -->

<svg version="1.1" width="7.500in" height="4.500in" viewBox="0 0 5400 3240" xmlns="http://www.w3.org/2000/svg" xmlns:xlink="http://www.w3.org/1999/xlink">
	<desc>Stata Graph - Graph</desc>
	<rect x="0" y="0" width="5400" height="3240" style="fill:#FFFFFF;stroke:none"/>
	<rect x="0.00" y="0.00" width="5400.00" height="3240.00" style="fill:#FFFFFF"/>
	<rect x="3.24" y="3.24" width="5393.52" height="3233.52" style="fill:none;stroke:#FFFFFF;stroke-width:6.48"/>
	<rect x="346.95" y="113.40" width="4017.77" height="2653.26" style="fill:#FFFFFF"/>
	<rect x="350.19" y="116.64" width="4011.29" height="2646.78" style="fill:none;stroke:#FFFFFF;stroke-width:6.48"/>
	<line x1="346.95" y1="2695.28" x2="411.75" y2="2695.28" style="stroke:#F0F0F0;stroke-width:9.72"/>
	<line x1="444.15" y1="2695.28" x2="508.95" y2="2695.28" style="stroke:#F0F0F0;stroke-width:9.72"/>
	<line x1="541.35" y1="2695.28" x2="606.15" y2="2695.28" style="stroke:#F0F0F0;stroke-width:9.72"/>
	<line x1="638.55" y1="2695.28" x2="703.35" y2="2695.28" style="stroke:#F0F0F0;stroke-width:9.72"/>
	<line x1="735.75" y1="2695.28" x2="800.55" y2="2695.28" style="stroke:#F0F0F0;stroke-width:9.72"/>
	<line x1="832.95" y1="2695.28" x2="897.75" y2="2695.28" style="stroke:#F0F0F0;stroke-width:9.72"/>
	<line x1="930.15" y1="2695.28" x2="994.95" y2="2695.28" style="stroke:#F0F0F0;stroke-width:9.72"/>
	<line x1="1027.35" y1="2695.28" x2="1092.15" y2="2695.28" style="stroke:#F0F0F0;stroke-width:9.72"/>
	<line x1="1124.55" y1="2695.28" x2="1189.35" y2="2695.28" style="stroke:#F0F0F0;stroke-width:9.72"/>
	<line x1="1221.75" y1="2695.28" x2="1286.55" y2="2695.28" style="stroke:#F0F0F0;stroke-width:9.72"/>
	<line x1="1318.95" y1="2695.28" x2="1383.75" y2="2695.28" style="stroke:#F0F0F0;stroke-width:9.72"/>
	<line x1="1416.15" y1="2695.28" x2="1480.95" y2="2695.28" style="stroke:#F0F0F0;stroke-width:9.72"/>
	<line x1="1513.35" y1="2695.28" x2="1578.15" y2="2695.28" style="stroke:#F0F0F0;stroke-width:9.72"/>
	<line x1="1610.55" y1="2695.28" x2="1675.35" y2="2695.28" style="stroke:#F0F0F0;stroke-width:9.72"/>
	<line x1="1707.75" y1="2695.28" x2="1772.55" y2="2695.28" style="stroke:#F0F0F0;stroke-width:9.72"/>
	<line x1="1804.95" y1="2695.28" x2="1869.75" y2="2695.28" style="stroke:#F0F0F0;stroke-width:9.72"/>
	<line x1="1902.15" y1="2695.28" x2="1966.95" y2="2695.28" style="stroke:#F0F0F0;stroke-width:9.72"/>
	<line x1="1999.35" y1="2695.28" x2="2064.15" y2="2695.28" style="stroke:#F0F0F0;stroke-width:9.72"/>
	<line x1="2096.55" y1="2695.28" x2="2161.35" y2="2695.28" style="stroke:#F0F0F0;stroke-width:9.72"/>
	<line x1="2193.75" y1="2695.28" x2="2258.55" y2="2695.28" style="stroke:#F0F0F0;stroke-width:9.72"/>
	<line x1="2290.95" y1="2695.28" x2="2355.75" y2="2695.28" style="stroke:#F0F0F0;stroke-width:9.72"/>
	<line x1="2388.15" y1="2695.28" x2="2452.95" y2="2695.28" style="stroke:#F0F0F0;stroke-width:9.72"/>
	<line x1="2485.35" y1="2695.28" x2="2550.15" y2="2695.28" style="stroke:#F0F0F0;stroke-width:9.72"/>
	<line x1="2582.55" y1="2695.28" x2="2647.35" y2="2695.28" style="stroke:#F0F0F0;stroke-width:9.72"/>
	<line x1="2679.75" y1="2695.28" x2="2744.55" y2="2695.28" style="stroke:#F0F0F0;stroke-width:9.72"/>
	<line x1="2776.95" y1="2695.28" x2="2841.75" y2="2695.28" style="stroke:#F0F0F0;stroke-width:9.72"/>
	<line x1="2874.15" y1="2695.28" x2="2938.95" y2="2695.28" style="stroke:#F0F0F0;stroke-width:9.72"/>
	<line x1="2971.35" y1="2695.28" x2="3036.15" y2="2695.28" style="stroke:#F0F0F0;stroke-width:9.72"/>
	<line x1="3068.55" y1="2695.28" x2="3133.35" y2="2695.28" style="stroke:#F0F0F0;stroke-width:9.72"/>
	<line x1="3165.75" y1="2695.28" x2="3230.55" y2="2695.28" style="stroke:#F0F0F0;stroke-width:9.72"/>
	<line x1="3262.95" y1="2695.28" x2="3327.75" y2="2695.28" style="stroke:#F0F0F0;stroke-width:9.72"/>
	<line x1="3360.15" y1="2695.28" x2="3424.95" y2="2695.28" style="stroke:#F0F0F0;stroke-width:9.72"/>
	<line x1="3457.35" y1="2695.28" x2="3522.15" y2="2695.28" style="stroke:#F0F0F0;stroke-width:9.72"/>
	<line x1="3554.55" y1="2695.28" x2="3619.35" y2="2695.28" style="stroke:#F0F0F0;stroke-width:9.72"/>
	<line x1="3651.75" y1="2695.28" x2="3716.55" y2="2695.28" style="stroke:#F0F0F0;stroke-width:9.72"/>
	<line x1="3748.95" y1="2695.28" x2="3813.75" y2="2695.28" style="stroke:#F0F0F0;stroke-width:9.72"/>
	<line x1="3846.15" y1="2695.28" x2="3910.95" y2="2695.28" style="stroke:#F0F0F0;stroke-width:9.72"/>
	<line x1="3943.35" y1="2695.28" x2="4008.15" y2="2695.28" style="stroke:#F0F0F0;stroke-width:9.72"/>
	<line x1="4040.55" y1="2695.28" x2="4105.35" y2="2695.28" style="stroke:#F0F0F0;stroke-width:9.72"/>
	<line x1="4137.75" y1="2695.28" x2="4202.55" y2="2695.28" style="stroke:#F0F0F0;stroke-width:9.72"/>
	<line x1="4234.95" y1="2695.28" x2="4299.75" y2="2695.28" style="stroke:#F0F0F0;stroke-width:9.72"/>
	<line x1="4332.15" y1="2695.28" x2="4364.72" y2="2695.28" style="stroke:#F0F0F0;stroke-width:9.72"/>
	<line x1="346.95" y1="1858.44" x2="411.75" y2="1858.44" style="stroke:#F0F0F0;stroke-width:9.72"/>
	<line x1="444.15" y1="1858.44" x2="508.95" y2="1858.44" style="stroke:#F0F0F0;stroke-width:9.72"/>
	<line x1="541.35" y1="1858.44" x2="606.15" y2="1858.44" style="stroke:#F0F0F0;stroke-width:9.72"/>
	<line x1="638.55" y1="1858.44" x2="703.35" y2="1858.44" style="stroke:#F0F0F0;stroke-width:9.72"/>
	<line x1="735.75" y1="1858.44" x2="800.55" y2="1858.44" style="stroke:#F0F0F0;stroke-width:9.72"/>
	<line x1="832.95" y1="1858.44" x2="897.75" y2="1858.44" style="stroke:#F0F0F0;stroke-width:9.72"/>
	<line x1="930.15" y1="1858.44" x2="994.95" y2="1858.44" style="stroke:#F0F0F0;stroke-width:9.72"/>
	<line x1="1027.35" y1="1858.44" x2="1092.15" y2="1858.44" style="stroke:#F0F0F0;stroke-width:9.72"/>
	<line x1="1124.55" y1="1858.44" x2="1189.35" y2="1858.44" style="stroke:#F0F0F0;stroke-width:9.72"/>
	<line x1="1221.75" y1="1858.44" x2="1286.55" y2="1858.44" style="stroke:#F0F0F0;stroke-width:9.72"/>
	<line x1="1318.95" y1="1858.44" x2="1383.75" y2="1858.44" style="stroke:#F0F0F0;stroke-width:9.72"/>
	<line x1="1416.15" y1="1858.44" x2="1480.95" y2="1858.44" style="stroke:#F0F0F0;stroke-width:9.72"/>
	<line x1="1513.35" y1="1858.44" x2="1578.15" y2="1858.44" style="stroke:#F0F0F0;stroke-width:9.72"/>
	<line x1="1610.55" y1="1858.44" x2="1675.35" y2="1858.44" style="stroke:#F0F0F0;stroke-width:9.72"/>
	<line x1="1707.75" y1="1858.44" x2="1772.55" y2="1858.44" style="stroke:#F0F0F0;stroke-width:9.72"/>
	<line x1="1804.95" y1="1858.44" x2="1869.75" y2="1858.44" style="stroke:#F0F0F0;stroke-width:9.72"/>
	<line x1="1902.15" y1="1858.44" x2="1966.95" y2="1858.44" style="stroke:#F0F0F0;stroke-width:9.72"/>
	<line x1="1999.35" y1="1858.44" x2="2064.15" y2="1858.44" style="stroke:#F0F0F0;stroke-width:9.72"/>
	<line x1="2096.55" y1="1858.44" x2="2161.35" y2="1858.44" style="stroke:#F0F0F0;stroke-width:9.72"/>
	<line x1="2193.75" y1="1858.44" x2="2258.55" y2="1858.44" style="stroke:#F0F0F0;stroke-width:9.72"/>
	<line x1="2290.95" y1="1858.44" x2="2355.75" y2="1858.44" style="stroke:#F0F0F0;stroke-width:9.72"/>
	<line x1="2388.15" y1="1858.44" x2="2452.95" y2="1858.44" style="stroke:#F0F0F0;stroke-width:9.72"/>
	<line x1="2485.35" y1="1858.44" x2="2550.15" y2="1858.44" style="stroke:#F0F0F0;stroke-width:9.72"/>
	<line x1="2582.55" y1="1858.44" x2="2647.35" y2="1858.44" style="stroke:#F0F0F0;stroke-width:9.72"/>
	<line x1="2679.75" y1="1858.44" x2="2744.55" y2="1858.44" style="stroke:#F0F0F0;stroke-width:9.72"/>
	<line x1="2776.95" y1="1858.44" x2="2841.75" y2="1858.44" style="stroke:#F0F0F0;stroke-width:9.72"/>
	<line x1="2874.15" y1="1858.44" x2="2938.95" y2="1858.44" style="stroke:#F0F0F0;stroke-width:9.72"/>
	<line x1="2971.35" y1="1858.44" x2="3036.15" y2="1858.44" style="stroke:#F0F0F0;stroke-width:9.72"/>
	<line x1="3068.55" y1="1858.44" x2="3133.35" y2="1858.44" style="stroke:#F0F0F0;stroke-width:9.72"/>
	<line x1="3165.75" y1="1858.44" x2="3230.55" y2="1858.44" style="stroke:#F0F0F0;stroke-width:9.72"/>
	<line x1="3262.95" y1="1858.44" x2="3327.75" y2="1858.44" style="stroke:#F0F0F0;stroke-width:9.72"/>
	<line x1="3360.15" y1="1858.44" x2="3424.95" y2="1858.44" style="stroke:#F0F0F0;stroke-width:9.72"/>
	<line x1="3457.35" y1="1858.44" x2="3522.15" y2="1858.44" style="stroke:#F0F0F0;stroke-width:9.72"/>
	<line x1="3554.55" y1="1858.44" x2="3619.35" y2="1858.44" style="stroke:#F0F0F0;stroke-width:9.72"/>
	<line x1="3651.75" y1="1858.44" x2="3716.55" y2="1858.44" style="stroke:#F0F0F0;stroke-width:9.72"/>
	<line x1="3748.95" y1="1858.44" x2="3813.75" y2="1858.44" style="stroke:#F0F0F0;stroke-width:9.72"/>
	<line x1="3846.15" y1="1858.44" x2="3910.95" y2="1858.44" style="stroke:#F0F0F0;stroke-width:9.72"/>
	<line x1="3943.35" y1="1858.44" x2="4008.15" y2="1858.44" style="stroke:#F0F0F0;stroke-width:9.72"/>
	<line x1="4040.55" y1="1858.44" x2="4105.35" y2="1858.44" style="stroke:#F0F0F0;stroke-width:9.72"/>
	<line x1="4137.75" y1="1858.44" x2="4202.55" y2="1858.44" style="stroke:#F0F0F0;stroke-width:9.72"/>
	<line x1="4234.95" y1="1858.44" x2="4299.75" y2="1858.44" style="stroke:#F0F0F0;stroke-width:9.72"/>
	<line x1="4332.15" y1="1858.44" x2="4364.72" y2="1858.44" style="stroke:#F0F0F0;stroke-width:9.72"/>
	<line x1="346.95" y1="1021.61" x2="411.75" y2="1021.61" style="stroke:#F0F0F0;stroke-width:9.72"/>
	<line x1="444.15" y1="1021.61" x2="508.95" y2="1021.61" style="stroke:#F0F0F0;stroke-width:9.72"/>
	<line x1="541.35" y1="1021.61" x2="606.15" y2="1021.61" style="stroke:#F0F0F0;stroke-width:9.72"/>
	<line x1="638.55" y1="1021.61" x2="703.35" y2="1021.61" style="stroke:#F0F0F0;stroke-width:9.72"/>
	<line x1="735.75" y1="1021.61" x2="800.55" y2="1021.61" style="stroke:#F0F0F0;stroke-width:9.72"/>
	<line x1="832.95" y1="1021.61" x2="897.75" y2="1021.61" style="stroke:#F0F0F0;stroke-width:9.72"/>
	<line x1="930.15" y1="1021.61" x2="994.95" y2="1021.61" style="stroke:#F0F0F0;stroke-width:9.72"/>
	<line x1="1027.35" y1="1021.61" x2="1092.15" y2="1021.61" style="stroke:#F0F0F0;stroke-width:9.72"/>
	<line x1="1124.55" y1="1021.61" x2="1189.35" y2="1021.61" style="stroke:#F0F0F0;stroke-width:9.72"/>
	<line x1="1221.75" y1="1021.61" x2="1286.55" y2="1021.61" style="stroke:#F0F0F0;stroke-width:9.72"/>
	<line x1="1318.95" y1="1021.61" x2="1383.75" y2="1021.61" style="stroke:#F0F0F0;stroke-width:9.72"/>
	<line x1="1416.15" y1="1021.61" x2="1480.95" y2="1021.61" style="stroke:#F0F0F0;stroke-width:9.72"/>
	<line x1="1513.35" y1="1021.61" x2="1578.15" y2="1021.61" style="stroke:#F0F0F0;stroke-width:9.72"/>
	<line x1="1610.55" y1="1021.61" x2="1675.35" y2="1021.61" style="stroke:#F0F0F0;stroke-width:9.72"/>
	<line x1="1707.75" y1="1021.61" x2="1772.55" y2="1021.61" style="stroke:#F0F0F0;stroke-width:9.72"/>
	<line x1="1804.95" y1="1021.61" x2="1869.75" y2="1021.61" style="stroke:#F0F0F0;stroke-width:9.72"/>
	<line x1="1902.15" y1="1021.61" x2="1966.95" y2="1021.61" style="stroke:#F0F0F0;stroke-width:9.72"/>
	<line x1="1999.35" y1="1021.61" x2="2064.15" y2="1021.61" style="stroke:#F0F0F0;stroke-width:9.72"/>
	<line x1="2096.55" y1="1021.61" x2="2161.35" y2="1021.61" style="stroke:#F0F0F0;stroke-width:9.72"/>
	<line x1="2193.75" y1="1021.61" x2="2258.55" y2="1021.61" style="stroke:#F0F0F0;stroke-width:9.72"/>
	<line x1="2290.95" y1="1021.61" x2="2355.75" y2="1021.61" style="stroke:#F0F0F0;stroke-width:9.72"/>
	<line x1="2388.15" y1="1021.61" x2="2452.95" y2="1021.61" style="stroke:#F0F0F0;stroke-width:9.72"/>
	<line x1="2485.35" y1="1021.61" x2="2550.15" y2="1021.61" style="stroke:#F0F0F0;stroke-width:9.72"/>
	<line x1="2582.55" y1="1021.61" x2="2647.35" y2="1021.61" style="stroke:#F0F0F0;stroke-width:9.72"/>
	<line x1="2679.75" y1="1021.61" x2="2744.55" y2="1021.61" style="stroke:#F0F0F0;stroke-width:9.72"/>
	<line x1="2776.95" y1="1021.61" x2="2841.75" y2="1021.61" style="stroke:#F0F0F0;stroke-width:9.72"/>
	<line x1="2874.15" y1="1021.61" x2="2938.95" y2="1021.61" style="stroke:#F0F0F0;stroke-width:9.72"/>
	<line x1="2971.35" y1="1021.61" x2="3036.15" y2="1021.61" style="stroke:#F0F0F0;stroke-width:9.72"/>
	<line x1="3068.55" y1="1021.61" x2="3133.35" y2="1021.61" style="stroke:#F0F0F0;stroke-width:9.72"/>
	<line x1="3165.75" y1="1021.61" x2="3230.55" y2="1021.61" style="stroke:#F0F0F0;stroke-width:9.72"/>
	<line x1="3262.95" y1="1021.61" x2="3327.75" y2="1021.61" style="stroke:#F0F0F0;stroke-width:9.72"/>
	<line x1="3360.15" y1="1021.61" x2="3424.95" y2="1021.61" style="stroke:#F0F0F0;stroke-width:9.72"/>
	<line x1="3457.35" y1="1021.61" x2="3522.15" y2="1021.61" style="stroke:#F0F0F0;stroke-width:9.72"/>
	<line x1="3554.55" y1="1021.61" x2="3619.35" y2="1021.61" style="stroke:#F0F0F0;stroke-width:9.72"/>
	<line x1="3651.75" y1="1021.61" x2="3716.55" y2="1021.61" style="stroke:#F0F0F0;stroke-width:9.72"/>
	<line x1="3748.95" y1="1021.61" x2="3813.75" y2="1021.61" style="stroke:#F0F0F0;stroke-width:9.72"/>
	<line x1="3846.15" y1="1021.61" x2="3910.95" y2="1021.61" style="stroke:#F0F0F0;stroke-width:9.72"/>
	<line x1="3943.35" y1="1021.61" x2="4008.15" y2="1021.61" style="stroke:#F0F0F0;stroke-width:9.72"/>
	<line x1="4040.55" y1="1021.61" x2="4105.35" y2="1021.61" style="stroke:#F0F0F0;stroke-width:9.72"/>
	<line x1="4137.75" y1="1021.61" x2="4202.55" y2="1021.61" style="stroke:#F0F0F0;stroke-width:9.72"/>
	<line x1="4234.95" y1="1021.61" x2="4299.75" y2="1021.61" style="stroke:#F0F0F0;stroke-width:9.72"/>
	<line x1="4332.15" y1="1021.61" x2="4364.72" y2="1021.61" style="stroke:#F0F0F0;stroke-width:9.72"/>
	<line x1="346.95" y1="184.61" x2="411.75" y2="184.61" style="stroke:#F0F0F0;stroke-width:9.72"/>
	<line x1="444.15" y1="184.61" x2="508.95" y2="184.61" style="stroke:#F0F0F0;stroke-width:9.72"/>
	<line x1="541.35" y1="184.61" x2="606.15" y2="184.61" style="stroke:#F0F0F0;stroke-width:9.72"/>
	<line x1="638.55" y1="184.61" x2="703.35" y2="184.61" style="stroke:#F0F0F0;stroke-width:9.72"/>
	<line x1="735.75" y1="184.61" x2="800.55" y2="184.61" style="stroke:#F0F0F0;stroke-width:9.72"/>
	<line x1="832.95" y1="184.61" x2="897.75" y2="184.61" style="stroke:#F0F0F0;stroke-width:9.72"/>
	<line x1="930.15" y1="184.61" x2="994.95" y2="184.61" style="stroke:#F0F0F0;stroke-width:9.72"/>
	<line x1="1027.35" y1="184.61" x2="1092.15" y2="184.61" style="stroke:#F0F0F0;stroke-width:9.72"/>
	<line x1="1124.55" y1="184.61" x2="1189.35" y2="184.61" style="stroke:#F0F0F0;stroke-width:9.72"/>
	<line x1="1221.75" y1="184.61" x2="1286.55" y2="184.61" style="stroke:#F0F0F0;stroke-width:9.72"/>
	<line x1="1318.95" y1="184.61" x2="1383.75" y2="184.61" style="stroke:#F0F0F0;stroke-width:9.72"/>
	<line x1="1416.15" y1="184.61" x2="1480.95" y2="184.61" style="stroke:#F0F0F0;stroke-width:9.72"/>
	<line x1="1513.35" y1="184.61" x2="1578.15" y2="184.61" style="stroke:#F0F0F0;stroke-width:9.72"/>
	<line x1="1610.55" y1="184.61" x2="1675.35" y2="184.61" style="stroke:#F0F0F0;stroke-width:9.72"/>
	<line x1="1707.75" y1="184.61" x2="1772.55" y2="184.61" style="stroke:#F0F0F0;stroke-width:9.72"/>
	<line x1="1804.95" y1="184.61" x2="1869.75" y2="184.61" style="stroke:#F0F0F0;stroke-width:9.72"/>
	<line x1="1902.15" y1="184.61" x2="1966.95" y2="184.61" style="stroke:#F0F0F0;stroke-width:9.72"/>
	<line x1="1999.35" y1="184.61" x2="2064.15" y2="184.61" style="stroke:#F0F0F0;stroke-width:9.72"/>
	<line x1="2096.55" y1="184.61" x2="2161.35" y2="184.61" style="stroke:#F0F0F0;stroke-width:9.72"/>
	<line x1="2193.75" y1="184.61" x2="2258.55" y2="184.61" style="stroke:#F0F0F0;stroke-width:9.72"/>
	<line x1="2290.95" y1="184.61" x2="2355.75" y2="184.61" style="stroke:#F0F0F0;stroke-width:9.72"/>
	<line x1="2388.15" y1="184.61" x2="2452.95" y2="184.61" style="stroke:#F0F0F0;stroke-width:9.72"/>
	<line x1="2485.35" y1="184.61" x2="2550.15" y2="184.61" style="stroke:#F0F0F0;stroke-width:9.72"/>
	<line x1="2582.55" y1="184.61" x2="2647.35" y2="184.61" style="stroke:#F0F0F0;stroke-width:9.72"/>
	<line x1="2679.75" y1="184.61" x2="2744.55" y2="184.61" style="stroke:#F0F0F0;stroke-width:9.72"/>
	<line x1="2776.95" y1="184.61" x2="2841.75" y2="184.61" style="stroke:#F0F0F0;stroke-width:9.72"/>
	<line x1="2874.15" y1="184.61" x2="2938.95" y2="184.61" style="stroke:#F0F0F0;stroke-width:9.72"/>
	<line x1="2971.35" y1="184.61" x2="3036.15" y2="184.61" style="stroke:#F0F0F0;stroke-width:9.72"/>
	<line x1="3068.55" y1="184.61" x2="3133.35" y2="184.61" style="stroke:#F0F0F0;stroke-width:9.72"/>
	<line x1="3165.75" y1="184.61" x2="3230.55" y2="184.61" style="stroke:#F0F0F0;stroke-width:9.72"/>
	<line x1="3262.95" y1="184.61" x2="3327.75" y2="184.61" style="stroke:#F0F0F0;stroke-width:9.72"/>
	<line x1="3360.15" y1="184.61" x2="3424.95" y2="184.61" style="stroke:#F0F0F0;stroke-width:9.72"/>
	<line x1="3457.35" y1="184.61" x2="3522.15" y2="184.61" style="stroke:#F0F0F0;stroke-width:9.72"/>
	<line x1="3554.55" y1="184.61" x2="3619.35" y2="184.61" style="stroke:#F0F0F0;stroke-width:9.72"/>
	<line x1="3651.75" y1="184.61" x2="3716.55" y2="184.61" style="stroke:#F0F0F0;stroke-width:9.72"/>
	<line x1="3748.95" y1="184.61" x2="3813.75" y2="184.61" style="stroke:#F0F0F0;stroke-width:9.72"/>
	<line x1="3846.15" y1="184.61" x2="3910.95" y2="184.61" style="stroke:#F0F0F0;stroke-width:9.72"/>
	<line x1="3943.35" y1="184.61" x2="4008.15" y2="184.61" style="stroke:#F0F0F0;stroke-width:9.72"/>
	<line x1="4040.55" y1="184.61" x2="4105.35" y2="184.61" style="stroke:#F0F0F0;stroke-width:9.72"/>
	<line x1="4137.75" y1="184.61" x2="4202.55" y2="184.61" style="stroke:#F0F0F0;stroke-width:9.72"/>
	<line x1="4234.95" y1="184.61" x2="4299.75" y2="184.61" style="stroke:#F0F0F0;stroke-width:9.72"/>
	<line x1="4332.15" y1="184.61" x2="4364.72" y2="184.61" style="stroke:#F0F0F0;stroke-width:9.72"/>
	<line x1="418.16" y1="2766.66" x2="418.16" y2="2701.86" style="stroke:#F0F0F0;stroke-width:9.72"/>
	<line x1="418.16" y1="2669.46" x2="418.16" y2="2604.66" style="stroke:#F0F0F0;stroke-width:9.72"/>
	<line x1="418.16" y1="2572.26" x2="418.16" y2="2507.46" style="stroke:#F0F0F0;stroke-width:9.72"/>
	<line x1="418.16" y1="2475.06" x2="418.16" y2="2410.26" style="stroke:#F0F0F0;stroke-width:9.72"/>
	<line x1="418.16" y1="2377.86" x2="418.16" y2="2313.06" style="stroke:#F0F0F0;stroke-width:9.72"/>
	<line x1="418.16" y1="2280.66" x2="418.16" y2="2215.86" style="stroke:#F0F0F0;stroke-width:9.72"/>
	<line x1="418.16" y1="2183.46" x2="418.16" y2="2118.66" style="stroke:#F0F0F0;stroke-width:9.72"/>
	<line x1="418.16" y1="2086.26" x2="418.16" y2="2021.46" style="stroke:#F0F0F0;stroke-width:9.72"/>
	<line x1="418.16" y1="1989.06" x2="418.16" y2="1924.26" style="stroke:#F0F0F0;stroke-width:9.72"/>
	<line x1="418.16" y1="1891.86" x2="418.16" y2="1827.06" style="stroke:#F0F0F0;stroke-width:9.72"/>
	<line x1="418.16" y1="1794.66" x2="418.16" y2="1729.86" style="stroke:#F0F0F0;stroke-width:9.72"/>
	<line x1="418.16" y1="1697.46" x2="418.16" y2="1632.66" style="stroke:#F0F0F0;stroke-width:9.72"/>
	<line x1="418.16" y1="1600.26" x2="418.16" y2="1535.46" style="stroke:#F0F0F0;stroke-width:9.72"/>
	<line x1="418.16" y1="1503.06" x2="418.16" y2="1438.26" style="stroke:#F0F0F0;stroke-width:9.72"/>
	<line x1="418.16" y1="1405.86" x2="418.16" y2="1341.06" style="stroke:#F0F0F0;stroke-width:9.72"/>
	<line x1="418.16" y1="1308.66" x2="418.16" y2="1243.86" style="stroke:#F0F0F0;stroke-width:9.72"/>
	<line x1="418.16" y1="1211.46" x2="418.16" y2="1146.66" style="stroke:#F0F0F0;stroke-width:9.72"/>
	<line x1="418.16" y1="1114.26" x2="418.16" y2="1049.46" style="stroke:#F0F0F0;stroke-width:9.72"/>
	<line x1="418.16" y1="1017.06" x2="418.16" y2="952.26" style="stroke:#F0F0F0;stroke-width:9.72"/>
	<line x1="418.16" y1="919.86" x2="418.16" y2="855.06" style="stroke:#F0F0F0;stroke-width:9.72"/>
	<line x1="418.16" y1="822.66" x2="418.16" y2="757.86" style="stroke:#F0F0F0;stroke-width:9.72"/>
	<line x1="418.16" y1="725.46" x2="418.16" y2="660.66" style="stroke:#F0F0F0;stroke-width:9.72"/>
	<line x1="418.16" y1="628.26" x2="418.16" y2="563.46" style="stroke:#F0F0F0;stroke-width:9.72"/>
	<line x1="418.16" y1="531.06" x2="418.16" y2="466.26" style="stroke:#F0F0F0;stroke-width:9.72"/>
	<line x1="418.16" y1="433.86" x2="418.16" y2="369.06" style="stroke:#F0F0F0;stroke-width:9.72"/>
	<line x1="418.16" y1="336.66" x2="418.16" y2="271.86" style="stroke:#F0F0F0;stroke-width:9.72"/>
	<line x1="418.16" y1="239.46" x2="418.16" y2="174.66" style="stroke:#F0F0F0;stroke-width:9.72"/>
	<line x1="418.16" y1="142.26" x2="418.16" y2="113.40" style="stroke:#F0F0F0;stroke-width:9.72"/>
	<line x1="1184.96" y1="2766.66" x2="1184.96" y2="2701.86" style="stroke:#F0F0F0;stroke-width:9.72"/>
	<line x1="1184.96" y1="2669.46" x2="1184.96" y2="2604.66" style="stroke:#F0F0F0;stroke-width:9.72"/>
	<line x1="1184.96" y1="2572.26" x2="1184.96" y2="2507.46" style="stroke:#F0F0F0;stroke-width:9.72"/>
	<line x1="1184.96" y1="2475.06" x2="1184.96" y2="2410.26" style="stroke:#F0F0F0;stroke-width:9.72"/>
	<line x1="1184.96" y1="2377.86" x2="1184.96" y2="2313.06" style="stroke:#F0F0F0;stroke-width:9.72"/>
	<line x1="1184.96" y1="2280.66" x2="1184.96" y2="2215.86" style="stroke:#F0F0F0;stroke-width:9.72"/>
	<line x1="1184.96" y1="2183.46" x2="1184.96" y2="2118.66" style="stroke:#F0F0F0;stroke-width:9.72"/>
	<line x1="1184.96" y1="2086.26" x2="1184.96" y2="2021.46" style="stroke:#F0F0F0;stroke-width:9.72"/>
	<line x1="1184.96" y1="1989.06" x2="1184.96" y2="1924.26" style="stroke:#F0F0F0;stroke-width:9.72"/>
	<line x1="1184.96" y1="1891.86" x2="1184.96" y2="1827.06" style="stroke:#F0F0F0;stroke-width:9.72"/>
	<line x1="1184.96" y1="1794.66" x2="1184.96" y2="1729.86" style="stroke:#F0F0F0;stroke-width:9.72"/>
	<line x1="1184.96" y1="1697.46" x2="1184.96" y2="1632.66" style="stroke:#F0F0F0;stroke-width:9.72"/>
	<line x1="1184.96" y1="1600.26" x2="1184.96" y2="1535.46" style="stroke:#F0F0F0;stroke-width:9.72"/>
	<line x1="1184.96" y1="1503.06" x2="1184.96" y2="1438.26" style="stroke:#F0F0F0;stroke-width:9.72"/>
	<line x1="1184.96" y1="1405.86" x2="1184.96" y2="1341.06" style="stroke:#F0F0F0;stroke-width:9.72"/>
	<line x1="1184.96" y1="1308.66" x2="1184.96" y2="1243.86" style="stroke:#F0F0F0;stroke-width:9.72"/>
	<line x1="1184.96" y1="1211.46" x2="1184.96" y2="1146.66" style="stroke:#F0F0F0;stroke-width:9.72"/>
	<line x1="1184.96" y1="1114.26" x2="1184.96" y2="1049.46" style="stroke:#F0F0F0;stroke-width:9.72"/>
	<line x1="1184.96" y1="1017.06" x2="1184.96" y2="952.26" style="stroke:#F0F0F0;stroke-width:9.72"/>
	<line x1="1184.96" y1="919.86" x2="1184.96" y2="855.06" style="stroke:#F0F0F0;stroke-width:9.72"/>
	<line x1="1184.96" y1="822.66" x2="1184.96" y2="757.86" style="stroke:#F0F0F0;stroke-width:9.72"/>
	<line x1="1184.96" y1="725.46" x2="1184.96" y2="660.66" style="stroke:#F0F0F0;stroke-width:9.72"/>
	<line x1="1184.96" y1="628.26" x2="1184.96" y2="563.46" style="stroke:#F0F0F0;stroke-width:9.72"/>
	<line x1="1184.96" y1="531.06" x2="1184.96" y2="466.26" style="stroke:#F0F0F0;stroke-width:9.72"/>
	<line x1="1184.96" y1="433.86" x2="1184.96" y2="369.06" style="stroke:#F0F0F0;stroke-width:9.72"/>
	<line x1="1184.96" y1="336.66" x2="1184.96" y2="271.86" style="stroke:#F0F0F0;stroke-width:9.72"/>
	<line x1="1184.96" y1="239.46" x2="1184.96" y2="174.66" style="stroke:#F0F0F0;stroke-width:9.72"/>
	<line x1="1184.96" y1="142.26" x2="1184.96" y2="113.40" style="stroke:#F0F0F0;stroke-width:9.72"/>
	<line x1="1951.93" y1="2766.66" x2="1951.93" y2="2701.86" style="stroke:#F0F0F0;stroke-width:9.72"/>
	<line x1="1951.93" y1="2669.46" x2="1951.93" y2="2604.66" style="stroke:#F0F0F0;stroke-width:9.72"/>
	<line x1="1951.93" y1="2572.26" x2="1951.93" y2="2507.46" style="stroke:#F0F0F0;stroke-width:9.72"/>
	<line x1="1951.93" y1="2475.06" x2="1951.93" y2="2410.26" style="stroke:#F0F0F0;stroke-width:9.72"/>
	<line x1="1951.93" y1="2377.86" x2="1951.93" y2="2313.06" style="stroke:#F0F0F0;stroke-width:9.72"/>
	<line x1="1951.93" y1="2280.66" x2="1951.93" y2="2215.86" style="stroke:#F0F0F0;stroke-width:9.72"/>
	<line x1="1951.93" y1="2183.46" x2="1951.93" y2="2118.66" style="stroke:#F0F0F0;stroke-width:9.72"/>
	<line x1="1951.93" y1="2086.26" x2="1951.93" y2="2021.46" style="stroke:#F0F0F0;stroke-width:9.72"/>
	<line x1="1951.93" y1="1989.06" x2="1951.93" y2="1924.26" style="stroke:#F0F0F0;stroke-width:9.72"/>
	<line x1="1951.93" y1="1891.86" x2="1951.93" y2="1827.06" style="stroke:#F0F0F0;stroke-width:9.72"/>
	<line x1="1951.93" y1="1794.66" x2="1951.93" y2="1729.86" style="stroke:#F0F0F0;stroke-width:9.72"/>
	<line x1="1951.93" y1="1697.46" x2="1951.93" y2="1632.66" style="stroke:#F0F0F0;stroke-width:9.72"/>
	<line x1="1951.93" y1="1600.26" x2="1951.93" y2="1535.46" style="stroke:#F0F0F0;stroke-width:9.72"/>
	<line x1="1951.93" y1="1503.06" x2="1951.93" y2="1438.26" style="stroke:#F0F0F0;stroke-width:9.72"/>
	<line x1="1951.93" y1="1405.86" x2="1951.93" y2="1341.06" style="stroke:#F0F0F0;stroke-width:9.72"/>
	<line x1="1951.93" y1="1308.66" x2="1951.93" y2="1243.86" style="stroke:#F0F0F0;stroke-width:9.72"/>
	<line x1="1951.93" y1="1211.46" x2="1951.93" y2="1146.66" style="stroke:#F0F0F0;stroke-width:9.72"/>
	<line x1="1951.93" y1="1114.26" x2="1951.93" y2="1049.46" style="stroke:#F0F0F0;stroke-width:9.72"/>
	<line x1="1951.93" y1="1017.06" x2="1951.93" y2="952.26" style="stroke:#F0F0F0;stroke-width:9.72"/>
	<line x1="1951.93" y1="919.86" x2="1951.93" y2="855.06" style="stroke:#F0F0F0;stroke-width:9.72"/>
	<line x1="1951.93" y1="822.66" x2="1951.93" y2="757.86" style="stroke:#F0F0F0;stroke-width:9.72"/>
	<line x1="1951.93" y1="725.46" x2="1951.93" y2="660.66" style="stroke:#F0F0F0;stroke-width:9.72"/>
	<line x1="1951.93" y1="628.26" x2="1951.93" y2="563.46" style="stroke:#F0F0F0;stroke-width:9.72"/>
	<line x1="1951.93" y1="531.06" x2="1951.93" y2="466.26" style="stroke:#F0F0F0;stroke-width:9.72"/>
	<line x1="1951.93" y1="433.86" x2="1951.93" y2="369.06" style="stroke:#F0F0F0;stroke-width:9.72"/>
	<line x1="1951.93" y1="336.66" x2="1951.93" y2="271.86" style="stroke:#F0F0F0;stroke-width:9.72"/>
	<line x1="1951.93" y1="239.46" x2="1951.93" y2="174.66" style="stroke:#F0F0F0;stroke-width:9.72"/>
	<line x1="1951.93" y1="142.26" x2="1951.93" y2="113.40" style="stroke:#F0F0F0;stroke-width:9.72"/>
	<line x1="2718.73" y1="2766.66" x2="2718.73" y2="2701.86" style="stroke:#F0F0F0;stroke-width:9.72"/>
	<line x1="2718.73" y1="2669.46" x2="2718.73" y2="2604.66" style="stroke:#F0F0F0;stroke-width:9.72"/>
	<line x1="2718.73" y1="2572.26" x2="2718.73" y2="2507.46" style="stroke:#F0F0F0;stroke-width:9.72"/>
	<line x1="2718.73" y1="2475.06" x2="2718.73" y2="2410.26" style="stroke:#F0F0F0;stroke-width:9.72"/>
	<line x1="2718.73" y1="2377.86" x2="2718.73" y2="2313.06" style="stroke:#F0F0F0;stroke-width:9.72"/>
	<line x1="2718.73" y1="2280.66" x2="2718.73" y2="2215.86" style="stroke:#F0F0F0;stroke-width:9.72"/>
	<line x1="2718.73" y1="2183.46" x2="2718.73" y2="2118.66" style="stroke:#F0F0F0;stroke-width:9.72"/>
	<line x1="2718.73" y1="2086.26" x2="2718.73" y2="2021.46" style="stroke:#F0F0F0;stroke-width:9.72"/>
	<line x1="2718.73" y1="1989.06" x2="2718.73" y2="1924.26" style="stroke:#F0F0F0;stroke-width:9.72"/>
	<line x1="2718.73" y1="1891.86" x2="2718.73" y2="1827.06" style="stroke:#F0F0F0;stroke-width:9.72"/>
	<line x1="2718.73" y1="1794.66" x2="2718.73" y2="1729.86" style="stroke:#F0F0F0;stroke-width:9.72"/>
	<line x1="2718.73" y1="1697.46" x2="2718.73" y2="1632.66" style="stroke:#F0F0F0;stroke-width:9.72"/>
	<line x1="2718.73" y1="1600.26" x2="2718.73" y2="1535.46" style="stroke:#F0F0F0;stroke-width:9.72"/>
	<line x1="2718.73" y1="1503.06" x2="2718.73" y2="1438.26" style="stroke:#F0F0F0;stroke-width:9.72"/>
	<line x1="2718.73" y1="1405.86" x2="2718.73" y2="1341.06" style="stroke:#F0F0F0;stroke-width:9.72"/>
	<line x1="2718.73" y1="1308.66" x2="2718.73" y2="1243.86" style="stroke:#F0F0F0;stroke-width:9.72"/>
	<line x1="2718.73" y1="1211.46" x2="2718.73" y2="1146.66" style="stroke:#F0F0F0;stroke-width:9.72"/>
	<line x1="2718.73" y1="1114.26" x2="2718.73" y2="1049.46" style="stroke:#F0F0F0;stroke-width:9.72"/>
	<line x1="2718.73" y1="1017.06" x2="2718.73" y2="952.26" style="stroke:#F0F0F0;stroke-width:9.72"/>
	<line x1="2718.73" y1="919.86" x2="2718.73" y2="855.06" style="stroke:#F0F0F0;stroke-width:9.72"/>
	<line x1="2718.73" y1="822.66" x2="2718.73" y2="757.86" style="stroke:#F0F0F0;stroke-width:9.72"/>
	<line x1="2718.73" y1="725.46" x2="2718.73" y2="660.66" style="stroke:#F0F0F0;stroke-width:9.72"/>
	<line x1="2718.73" y1="628.26" x2="2718.73" y2="563.46" style="stroke:#F0F0F0;stroke-width:9.72"/>
	<line x1="2718.73" y1="531.06" x2="2718.73" y2="466.26" style="stroke:#F0F0F0;stroke-width:9.72"/>
	<line x1="2718.73" y1="433.86" x2="2718.73" y2="369.06" style="stroke:#F0F0F0;stroke-width:9.72"/>
	<line x1="2718.73" y1="336.66" x2="2718.73" y2="271.86" style="stroke:#F0F0F0;stroke-width:9.72"/>
	<line x1="2718.73" y1="239.46" x2="2718.73" y2="174.66" style="stroke:#F0F0F0;stroke-width:9.72"/>
	<line x1="2718.73" y1="142.26" x2="2718.73" y2="113.40" style="stroke:#F0F0F0;stroke-width:9.72"/>
	<line x1="3485.53" y1="2766.66" x2="3485.53" y2="2701.86" style="stroke:#F0F0F0;stroke-width:9.72"/>
	<line x1="3485.53" y1="2669.46" x2="3485.53" y2="2604.66" style="stroke:#F0F0F0;stroke-width:9.72"/>
	<line x1="3485.53" y1="2572.26" x2="3485.53" y2="2507.46" style="stroke:#F0F0F0;stroke-width:9.72"/>
	<line x1="3485.53" y1="2475.06" x2="3485.53" y2="2410.26" style="stroke:#F0F0F0;stroke-width:9.72"/>
	<line x1="3485.53" y1="2377.86" x2="3485.53" y2="2313.06" style="stroke:#F0F0F0;stroke-width:9.72"/>
	<line x1="3485.53" y1="2280.66" x2="3485.53" y2="2215.86" style="stroke:#F0F0F0;stroke-width:9.72"/>
	<line x1="3485.53" y1="2183.46" x2="3485.53" y2="2118.66" style="stroke:#F0F0F0;stroke-width:9.72"/>
	<line x1="3485.53" y1="2086.26" x2="3485.53" y2="2021.46" style="stroke:#F0F0F0;stroke-width:9.72"/>
	<line x1="3485.53" y1="1989.06" x2="3485.53" y2="1924.26" style="stroke:#F0F0F0;stroke-width:9.72"/>
	<line x1="3485.53" y1="1891.86" x2="3485.53" y2="1827.06" style="stroke:#F0F0F0;stroke-width:9.72"/>
	<line x1="3485.53" y1="1794.66" x2="3485.53" y2="1729.86" style="stroke:#F0F0F0;stroke-width:9.72"/>
	<line x1="3485.53" y1="1697.46" x2="3485.53" y2="1632.66" style="stroke:#F0F0F0;stroke-width:9.72"/>
	<line x1="3485.53" y1="1600.26" x2="3485.53" y2="1535.46" style="stroke:#F0F0F0;stroke-width:9.72"/>
	<line x1="3485.53" y1="1503.06" x2="3485.53" y2="1438.26" style="stroke:#F0F0F0;stroke-width:9.72"/>
	<line x1="3485.53" y1="1405.86" x2="3485.53" y2="1341.06" style="stroke:#F0F0F0;stroke-width:9.72"/>
	<line x1="3485.53" y1="1308.66" x2="3485.53" y2="1243.86" style="stroke:#F0F0F0;stroke-width:9.72"/>
	<line x1="3485.53" y1="1211.46" x2="3485.53" y2="1146.66" style="stroke:#F0F0F0;stroke-width:9.72"/>
	<line x1="3485.53" y1="1114.26" x2="3485.53" y2="1049.46" style="stroke:#F0F0F0;stroke-width:9.72"/>
	<line x1="3485.53" y1="1017.06" x2="3485.53" y2="952.26" style="stroke:#F0F0F0;stroke-width:9.72"/>
	<line x1="3485.53" y1="919.86" x2="3485.53" y2="855.06" style="stroke:#F0F0F0;stroke-width:9.72"/>
	<line x1="3485.53" y1="822.66" x2="3485.53" y2="757.86" style="stroke:#F0F0F0;stroke-width:9.72"/>
	<line x1="3485.53" y1="725.46" x2="3485.53" y2="660.66" style="stroke:#F0F0F0;stroke-width:9.72"/>
	<line x1="3485.53" y1="628.26" x2="3485.53" y2="563.46" style="stroke:#F0F0F0;stroke-width:9.72"/>
	<line x1="3485.53" y1="531.06" x2="3485.53" y2="466.26" style="stroke:#F0F0F0;stroke-width:9.72"/>
	<line x1="3485.53" y1="433.86" x2="3485.53" y2="369.06" style="stroke:#F0F0F0;stroke-width:9.72"/>
	<line x1="3485.53" y1="336.66" x2="3485.53" y2="271.86" style="stroke:#F0F0F0;stroke-width:9.72"/>
	<line x1="3485.53" y1="239.46" x2="3485.53" y2="174.66" style="stroke:#F0F0F0;stroke-width:9.72"/>
	<line x1="3485.53" y1="142.26" x2="3485.53" y2="113.40" style="stroke:#F0F0F0;stroke-width:9.72"/>
	<line x1="4252.33" y1="2766.66" x2="4252.33" y2="2701.86" style="stroke:#F0F0F0;stroke-width:9.72"/>
	<line x1="4252.33" y1="2669.46" x2="4252.33" y2="2604.66" style="stroke:#F0F0F0;stroke-width:9.72"/>
	<line x1="4252.33" y1="2572.26" x2="4252.33" y2="2507.46" style="stroke:#F0F0F0;stroke-width:9.72"/>
	<line x1="4252.33" y1="2475.06" x2="4252.33" y2="2410.26" style="stroke:#F0F0F0;stroke-width:9.72"/>
	<line x1="4252.33" y1="2377.86" x2="4252.33" y2="2313.06" style="stroke:#F0F0F0;stroke-width:9.72"/>
	<line x1="4252.33" y1="2280.66" x2="4252.33" y2="2215.86" style="stroke:#F0F0F0;stroke-width:9.72"/>
	<line x1="4252.33" y1="2183.46" x2="4252.33" y2="2118.66" style="stroke:#F0F0F0;stroke-width:9.72"/>
	<line x1="4252.33" y1="2086.26" x2="4252.33" y2="2021.46" style="stroke:#F0F0F0;stroke-width:9.72"/>
	<line x1="4252.33" y1="1989.06" x2="4252.33" y2="1924.26" style="stroke:#F0F0F0;stroke-width:9.72"/>
	<line x1="4252.33" y1="1891.86" x2="4252.33" y2="1827.06" style="stroke:#F0F0F0;stroke-width:9.72"/>
	<line x1="4252.33" y1="1794.66" x2="4252.33" y2="1729.86" style="stroke:#F0F0F0;stroke-width:9.72"/>
	<line x1="4252.33" y1="1697.46" x2="4252.33" y2="1632.66" style="stroke:#F0F0F0;stroke-width:9.72"/>
	<line x1="4252.33" y1="1600.26" x2="4252.33" y2="1535.46" style="stroke:#F0F0F0;stroke-width:9.72"/>
	<line x1="4252.33" y1="1503.06" x2="4252.33" y2="1438.26" style="stroke:#F0F0F0;stroke-width:9.72"/>
	<line x1="4252.33" y1="1405.86" x2="4252.33" y2="1341.06" style="stroke:#F0F0F0;stroke-width:9.72"/>
	<line x1="4252.33" y1="1308.66" x2="4252.33" y2="1243.86" style="stroke:#F0F0F0;stroke-width:9.72"/>
	<line x1="4252.33" y1="1211.46" x2="4252.33" y2="1146.66" style="stroke:#F0F0F0;stroke-width:9.72"/>
	<line x1="4252.33" y1="1114.26" x2="4252.33" y2="1049.46" style="stroke:#F0F0F0;stroke-width:9.72"/>
	<line x1="4252.33" y1="1017.06" x2="4252.33" y2="952.26" style="stroke:#F0F0F0;stroke-width:9.72"/>
	<line x1="4252.33" y1="919.86" x2="4252.33" y2="855.06" style="stroke:#F0F0F0;stroke-width:9.72"/>
	<line x1="4252.33" y1="822.66" x2="4252.33" y2="757.86" style="stroke:#F0F0F0;stroke-width:9.72"/>
	<line x1="4252.33" y1="725.46" x2="4252.33" y2="660.66" style="stroke:#F0F0F0;stroke-width:9.72"/>
	<line x1="4252.33" y1="628.26" x2="4252.33" y2="563.46" style="stroke:#F0F0F0;stroke-width:9.72"/>
	<line x1="4252.33" y1="531.06" x2="4252.33" y2="466.26" style="stroke:#F0F0F0;stroke-width:9.72"/>
	<line x1="4252.33" y1="433.86" x2="4252.33" y2="369.06" style="stroke:#F0F0F0;stroke-width:9.72"/>
	<line x1="4252.33" y1="336.66" x2="4252.33" y2="271.86" style="stroke:#F0F0F0;stroke-width:9.72"/>
	<line x1="4252.33" y1="239.46" x2="4252.33" y2="174.66" style="stroke:#F0F0F0;stroke-width:9.72"/>
	<line x1="4252.33" y1="142.26" x2="4252.33" y2="113.40" style="stroke:#F0F0F0;stroke-width:9.72"/>
	<line x1="2718.73" y1="2766.66" x2="2718.73" y2="2701.86" style="stroke:#000000;stroke-width:9.72"/>
	<line x1="2718.73" y1="2669.46" x2="2718.73" y2="2604.66" style="stroke:#000000;stroke-width:9.72"/>
	<line x1="2718.73" y1="2572.26" x2="2718.73" y2="2507.46" style="stroke:#000000;stroke-width:9.72"/>
	<line x1="2718.73" y1="2475.06" x2="2718.73" y2="2410.26" style="stroke:#000000;stroke-width:9.72"/>
	<line x1="2718.73" y1="2377.86" x2="2718.73" y2="2313.06" style="stroke:#000000;stroke-width:9.72"/>
	<line x1="2718.73" y1="2280.66" x2="2718.73" y2="2215.86" style="stroke:#000000;stroke-width:9.72"/>
	<line x1="2718.73" y1="2183.46" x2="2718.73" y2="2118.66" style="stroke:#000000;stroke-width:9.72"/>
	<line x1="2718.73" y1="2086.26" x2="2718.73" y2="2021.46" style="stroke:#000000;stroke-width:9.72"/>
	<line x1="2718.73" y1="1989.06" x2="2718.73" y2="1924.26" style="stroke:#000000;stroke-width:9.72"/>
	<line x1="2718.73" y1="1891.86" x2="2718.73" y2="1827.06" style="stroke:#000000;stroke-width:9.72"/>
	<line x1="2718.73" y1="1794.66" x2="2718.73" y2="1729.86" style="stroke:#000000;stroke-width:9.72"/>
	<line x1="2718.73" y1="1697.46" x2="2718.73" y2="1632.66" style="stroke:#000000;stroke-width:9.72"/>
	<line x1="2718.73" y1="1600.26" x2="2718.73" y2="1535.46" style="stroke:#000000;stroke-width:9.72"/>
	<line x1="2718.73" y1="1503.06" x2="2718.73" y2="1438.26" style="stroke:#000000;stroke-width:9.72"/>
	<line x1="2718.73" y1="1405.86" x2="2718.73" y2="1341.06" style="stroke:#000000;stroke-width:9.72"/>
	<line x1="2718.73" y1="1308.66" x2="2718.73" y2="1243.86" style="stroke:#000000;stroke-width:9.72"/>
	<line x1="2718.73" y1="1211.46" x2="2718.73" y2="1146.66" style="stroke:#000000;stroke-width:9.72"/>
	<line x1="2718.73" y1="1114.26" x2="2718.73" y2="1049.46" style="stroke:#000000;stroke-width:9.72"/>
	<line x1="2718.73" y1="1017.06" x2="2718.73" y2="952.26" style="stroke:#000000;stroke-width:9.72"/>
	<line x1="2718.73" y1="919.86" x2="2718.73" y2="855.06" style="stroke:#000000;stroke-width:9.72"/>
	<line x1="2718.73" y1="822.66" x2="2718.73" y2="757.86" style="stroke:#000000;stroke-width:9.72"/>
	<line x1="2718.73" y1="725.46" x2="2718.73" y2="660.66" style="stroke:#000000;stroke-width:9.72"/>
	<line x1="2718.73" y1="628.26" x2="2718.73" y2="563.46" style="stroke:#000000;stroke-width:9.72"/>
	<line x1="2718.73" y1="531.06" x2="2718.73" y2="466.26" style="stroke:#000000;stroke-width:9.72"/>
	<line x1="2718.73" y1="433.86" x2="2718.73" y2="369.06" style="stroke:#000000;stroke-width:9.72"/>
	<line x1="2718.73" y1="336.66" x2="2718.73" y2="271.86" style="stroke:#000000;stroke-width:9.72"/>
	<line x1="2718.73" y1="239.46" x2="2718.73" y2="174.66" style="stroke:#000000;stroke-width:9.72"/>
	<line x1="2718.73" y1="142.26" x2="2718.73" y2="113.40" style="stroke:#000000;stroke-width:9.72"/>
	<path d=" M837.34 2686.50 L848.98 2686.50 L860.46 2686.50 L872.10 2686.67 L883.58 2686.16 L895.22 2685.49 L906.69 2684.98 L918.34 2684.64 L929.81 2684.14 L941.46 2683.97 L952.93 2683.63 L964.58 2683.46 L976.05 2683.29 L987.69 2683.29 L999.17 2683.29 L1010.81 2682.79 L1022.29 2682.28 L1033.93 2681.78 L1045.41 2681.44 L1057.05 2681.10 L1068.53 2680.93 L1080.17 2680.76 L1091.64 2680.93 L1103.29 2680.93 L1114.76 2680.59 L1126.41 2680.09 L1137.88 2679.75 L1149.53 2679.41 L1161.00 2678.74 L1172.64 2677.22 L1184.12 2675.70 L1195.76 2674.18 L1207.24 2672.83 L1218.88 2671.65 L1230.36 2670.47 L1242.00 2668.44 L1253.47 2666.25 L1265.12 2664.23 L1276.59 2662.03 L1288.24 2659.67 L1299.71 2656.80 L1311.36 2653.76 L1322.83 2650.39 L1334.48 2645.33 L1345.95 2639.08 L1357.59 2632.50 L1369.07 2624.74 L1380.71 2615.63 L1392.19 2606.51 L1403.83 2597.74 L1415.31 2587.95 L1426.95 2576.98 L1438.43 2565.68 L1450.07 2554.20 L1461.54 2543.40 L1473.19 2532.60 L1484.66 2521.63 L1496.31 2511.51 L1507.78 2502.06 L1519.43 2492.10 L1530.90 2480.29 L1542.54 2467.13 L1554.02 2452.44 L1565.66 2437.26 L1577.14 2422.24 L1588.78 2408.06 L1600.26 2393.89 L1611.90 2377.69 L1623.38 2361.99 L1634.85 2346.13 L1646.49 2328.07 L1657.97 2309.51 L1669.61 2290.44 L1681.09 2271.21 L1692.73 2253.49 L1704.21 2233.57 L1715.85 2211.81 L1727.33 2191.73 L1738.97 2172.32 L1750.44 2151.90 L1762.09 2130.64 L1773.56 2107.35 L1785.21 2080.86 L1796.68 2054.53 L1808.33 2030.06 L1819.80 2007.28 L1831.44 1985.34 L1842.92 1963.41 L1854.56 1941.47 L1866.04 1920.38 L1877.68 1899.79 L1889.16 1879.54 L1900.80 1859.12 L1912.28 1838.36 L1923.92 1815.58 L1935.39 1790.61 L1947.04 1766.14 L1958.51 1739.31 L1970.16 1714.67 L1981.63 1690.88 L1993.28 1668.60 L2004.75 1647.17 L2016.39 1624.73 L2027.87 1603.29 L2039.51 1583.72 L2050.99 1564.48 L2062.63 1544.91 L2074.11 1524.32 L2085.75 1500.36 L2097.23 1474.54 L2108.87 1448.55 L2120.34 1424.08 L2131.99 1400.63 L2143.46 1377.51 L2155.11 1352.87 L2166.58 1329.58 L2178.23 1306.13 L2189.70 1281.99 L2201.34 1256.18 L2212.82 1229.85 L2224.46 1204.37 L2235.94 1177.37 L2247.58 1148.68 L2259.06 1120.67 L2270.70 1095.53 L2282.18 1071.90 L2293.82 1045.91 L2305.29 1019.25 L2316.94 989.38 L2328.41 959.01 L2340.06 930.49 L2351.53 905.85 L2363.18 883.24 L2374.65 863.66 L2386.29 840.71 L2397.77 815.57 L2409.41 790.59 L2420.89 765.62 L2432.53 742.16 L2444.01 722.25 L2455.65 705.04 L2467.13 684.79 L2478.77 663.69 L2490.24 643.28 L2501.89 623.19 L2513.36 604.97 L2524.84 589.44 L2536.48 576.79 L2547.96 565.65 L2559.60 554.51 L2571.07 541.52 L2582.72 528.36 L2594.19 513.34 L2605.84 500.01 L2617.31 486.51 L2628.96 468.79 L2640.43 450.06 L2652.08 433.86 L2663.55 421.71 L2675.19 410.74 L2686.67 401.12 L2698.31 391.16 L2709.79 383.74 L2721.43 379.52 L2732.91 378.34 L2744.55 377.16 L2756.03 379.18 L2767.67 379.86 L2779.14 379.86 L2790.79 381.88 L2802.26 385.93 L2813.91 393.53 L2825.38 401.63 L2837.03 411.58 L2848.50 419.34 L2860.14 430.48 L2871.62 441.28 L2883.26 452.59 L2894.74 466.43 L2906.38 484.82 L2917.86 505.07 L2929.50 522.79 L2940.98 537.47 L2952.62 552.66 L2964.09 567.68 L2975.74 585.22 L2987.21 605.14 L2998.86 626.23 L3010.33 649.18 L3021.98 672.13 L3033.45 698.12 L3045.09 725.79 L3056.57 753.97 L3068.21 781.82 L3079.69 812.03 L3091.33 843.75 L3102.81 873.45 L3114.45 898.76 L3125.93 922.05 L3137.57 944.49 L3149.04 967.28 L3160.69 989.38 L3172.16 1007.61 L3183.81 1024.31 L3195.28 1044.06 L3206.93 1065.82 L3218.40 1087.76 L3230.04 1110.21 L3241.52 1132.14 L3253.16 1153.41 L3264.64 1175.85 L3276.28 1199.64 L3287.76 1224.96 L3299.40 1250.94 L3310.88 1276.76 L3322.52 1304.10 L3333.99 1332.11 L3345.64 1362.32 L3357.11 1391.85 L3368.76 1422.73 L3380.23 1453.28 L3391.88 1484.33 L3403.35 1516.05 L3414.83 1545.24 L3426.47 1572.58 L3437.94 1600.26 L3449.59 1628.94 L3461.06 1656.96 L3472.71 1685.31 L3484.18 1713.83 L3495.83 1743.86 L3507.30 1774.91 L3518.94 1804.28 L3530.42 1833.98 L3542.06 1865.19 L3553.54 1896.41 L3565.18 1926.96 L3576.66 1958.34 L3588.30 1991.76 L3599.78 2024.16 L3611.42 2055.21 L3622.89 2087.44 L3634.54 2115.96 L3646.01 2143.13 L3657.66 2168.27 L3669.13 2192.40 L3680.78 2215.69 L3692.25 2238.30 L3703.89 2260.24 L3715.37 2279.14 L3727.01 2296.52 L3738.49 2313.23 L3750.13 2330.27 L3761.61 2347.65 L3773.25 2365.03 L3784.73 2380.73 L3796.37 2395.24 L3807.84 2407.73 L3819.49 2419.03 L3830.96 2429.32 L3842.61 2439.62 L3854.08 2450.08 L3865.73 2460.54 L3877.20 2470.33 L3888.84 2478.60 L3900.32 2486.53 L3911.96 2495.31 L3923.44 2503.57 L3935.08 2511.17 L3946.56 2518.59 L3958.20 2525.68 L3969.68 2531.59 L3981.32 2536.31 L3992.79 2540.70 L4004.44 2545.26 L4015.91 2550.32 L4027.56 2555.89 L4039.03 2561.12 L4050.68 2566.18 L4062.15 2571.41 L4073.79 2577.32 L4085.27 2583.23 L4096.91 2589.47 L4108.39 2594.19 L4120.03 2598.92 L4131.51 2604.15 L4143.15 2609.89 L4154.63 2616.13 L4166.27 2621.87 L4177.74 2626.26 L4189.39 2630.81 L4200.86 2635.20 L4212.51 2639.59 L4223.98 2643.47 L4235.63 2646.68 L4247.10 2649.21 L4258.74 2651.74 L4270.22 2653.93 L4281.86 2655.62 L4293.34 2657.64" stroke-linejoin="round" style="fill:none;stroke:#1A85FF;stroke-width:9.72"/>
	<path d=" M838.69 2686.33 L850.16 2686.33 L861.64 2686.50 L873.11 2686.50 L884.42 2686.16 L895.89 2685.49 L907.37 2684.98 L918.84 2684.64 L930.15 2684.14 L941.63 2683.80 L953.10 2683.63 L964.58 2683.46 L975.88 2683.29 L987.36 2683.29 L998.83 2683.29 L1010.31 2682.96 L1021.61 2682.28 L1033.09 2681.78 L1044.56 2681.44 L1056.04 2681.10 L1067.34 2680.93 L1078.82 2680.76 L1090.29 2680.76 L1101.77 2680.93 L1113.08 2680.59 L1124.55 2680.09 L1136.03 2679.58 L1147.50 2679.24 L1158.81 2678.91 L1170.28 2677.56 L1181.76 2675.87 L1193.23 2674.35 L1204.54 2673.00 L1216.01 2671.82 L1227.49 2670.64 L1238.79 2668.95 L1250.27 2666.76 L1261.74 2664.56 L1273.22 2662.54 L1284.53 2660.18 L1296.00 2657.48 L1307.47 2654.61 L1318.95 2651.40 L1330.26 2647.01 L1341.73 2640.94 L1353.21 2634.69 L1364.68 2627.27 L1375.99 2618.66 L1387.46 2609.21 L1398.94 2600.27 L1410.41 2591.49 L1421.72 2580.36 L1433.19 2569.39 L1444.67 2557.74 L1456.14 2546.61 L1467.45 2535.81 L1478.93 2524.84 L1490.40 2514.21 L1501.88 2504.59 L1513.18 2494.97 L1524.66 2484.34 L1536.13 2471.18 L1547.61 2457.00 L1558.91 2441.81 L1570.39 2426.79 L1581.86 2412.28 L1593.34 2398.11 L1604.64 2382.92 L1616.12 2366.89 L1627.59 2351.19 L1639.07 2334.32 L1650.38 2315.76 L1661.85 2297.03 L1673.33 2277.79 L1684.80 2259.39 L1696.11 2240.83 L1707.58 2219.40 L1719.06 2198.31 L1730.53 2178.73 L1741.84 2159.16 L1753.31 2137.73 L1764.79 2116.29 L1776.26 2090.98 L1787.57 2064.15 L1799.04 2038.33 L1810.52 2014.88 L1821.99 1992.60 L1833.30 1970.66 L1844.78 1948.22 L1856.25 1927.29 L1867.73 1905.69 L1879.03 1885.44 L1890.51 1864.86 L1901.98 1844.27 L1913.46 1822.67 L1924.76 1798.54 L1936.24 1773.73 L1947.71 1748.08 L1959.19 1722.09 L1970.49 1697.96 L1981.97 1674.34 L1993.44 1652.57 L2004.92 1631.14 L2016.23 1608.36 L2027.70 1587.94 L2039.18 1569.04 L2050.65 1548.96 L2061.96 1528.54 L2073.43 1508.29 L2084.91 1483.31 L2096.38 1457.16 L2107.69 1431.34 L2119.16 1407.71 L2130.64 1384.76 L2142.11 1360.29 L2153.42 1336.50 L2164.89 1313.38 L2176.37 1289.25 L2187.84 1264.61 L2199.15 1238.29 L2210.63 1211.96 L2222.10 1186.31 L2233.57 1158.30 L2244.88 1129.95 L2256.36 1102.44 L2267.83 1077.30 L2279.31 1053.00 L2290.61 1027.01 L2302.09 998.32 L2313.56 968.12 L2325.04 937.74 L2336.34 909.90 L2347.82 885.60 L2359.29 863.83 L2370.77 842.91 L2382.07 819.45 L2393.55 793.46 L2405.03 768.82 L2416.50 743.34 L2427.81 721.07 L2439.28 702.34 L2450.76 684.11 L2462.06 663.02 L2473.54 642.43 L2485.01 622.01 L2496.49 602.10 L2507.79 584.72 L2519.27 569.87 L2530.74 557.55 L2542.22 546.24 L2553.53 535.11 L2565.00 521.44 L2576.48 508.11 L2587.95 492.75 L2599.26 479.76 L2610.73 465.07 L2622.21 446.68 L2633.68 427.61 L2644.99 412.76 L2656.46 400.78 L2667.94 390.49 L2679.41 380.53 L2690.72 370.57 L2702.19 363.66 L2713.67 360.62 L2725.14 359.10 L2736.45 358.26 L2747.93 360.11 L2759.40 360.28 L2770.88 360.45 L2782.18 363.32 L2793.66 368.38 L2805.13 376.14 L2816.61 384.24 L2827.91 394.03 L2839.39 402.13 L2850.86 413.10 L2862.34 423.22 L2873.64 434.87 L2885.12 449.04 L2896.59 467.61 L2908.07 487.69 L2919.38 504.56 L2930.85 519.24 L2942.33 534.26 L2953.80 549.11 L2965.11 567.00 L2976.58 587.25 L2988.06 608.68 L2999.53 631.63 L3010.84 655.76 L3022.31 682.43 L3033.79 710.27 L3045.26 737.94 L3056.57 766.29 L3068.04 797.51 L3079.52 829.07 L3090.99 857.76 L3102.30 882.39 L3113.78 905.51 L3125.25 928.29 L3136.73 951.58 L3148.03 973.35 L3159.51 991.41 L3170.98 1007.94 L3182.46 1028.70 L3193.76 1049.96 L3205.24 1072.74 L3216.71 1095.19 L3228.19 1116.28 L3239.49 1137.88 L3250.97 1160.66 L3262.44 1184.96 L3273.92 1210.78 L3285.23 1236.94 L3296.70 1263.60 L3308.18 1291.44 L3319.65 1319.79 L3330.96 1350.00 L3342.43 1380.04 L3353.91 1411.59 L3365.38 1442.81 L3376.69 1474.20 L3388.16 1506.43 L3399.64 1535.29 L3411.11 1562.46 L3422.42 1590.30 L3433.89 1619.49 L3445.37 1648.18 L3456.84 1677.21 L3468.15 1706.40 L3479.63 1736.94 L3491.10 1767.15 L3502.58 1796.85 L3513.88 1827.39 L3525.36 1858.95 L3536.83 1890.84 L3548.31 1922.23 L3559.61 1954.29 L3571.09 1988.04 L3582.56 2020.28 L3594.04 2052.17 L3605.34 2084.40 L3616.82 2113.09 L3628.29 2139.75 L3639.77 2164.73 L3651.08 2189.03 L3662.55 2212.65 L3674.03 2235.77 L3685.50 2257.54 L3696.81 2277.28 L3708.28 2294.49 L3719.76 2311.20 L3731.06 2328.58 L3742.54 2346.30 L3754.01 2363.68 L3765.49 2379.38 L3776.79 2393.38 L3788.27 2406.04 L3799.74 2417.34 L3811.22 2428.31 L3822.53 2438.78 L3834.00 2449.57 L3845.48 2460.21 L3856.95 2469.66 L3868.26 2477.59 L3879.73 2485.86 L3891.21 2494.46 L3902.68 2502.73 L3913.99 2510.16 L3925.46 2517.92 L3936.94 2524.84 L3948.41 2530.57 L3959.72 2535.30 L3971.19 2539.69 L3982.67 2544.41 L3994.14 2549.48 L4005.45 2554.54 L4016.93 2559.60 L4028.40 2564.66 L4039.88 2570.06 L4051.18 2575.97 L4062.66 2582.04 L4074.13 2588.46 L4085.61 2593.35 L4096.91 2598.24 L4108.39 2603.64 L4119.86 2609.55 L4131.34 2616.13 L4142.64 2621.53 L4154.12 2626.09 L4165.59 2630.81 L4177.07 2635.37 L4188.38 2639.76 L4199.85 2643.47 L4211.33 2646.51 L4222.80 2649.38 L4234.11 2652.24 L4245.58 2654.10 L4257.06 2655.96" stroke-linejoin="round" style="fill:none;stroke:#D41159;stroke-width:9.72"/>
	<line x1="346.95" y1="2766.66" x2="346.95" y2="113.40" style="stroke:#000000;stroke-width:6.48"/>
	<line x1="346.95" y1="2695.28" x2="301.89" y2="2695.28" style="stroke:#000000;stroke-width:6.48"/>
	<text x="279.45" y="2734.71" style="font-family:'Helvetica';font-size:112.56px;fill:#000000" text-anchor="end">0</text>
	<line x1="346.95" y1="1858.44" x2="301.89" y2="1858.44" style="stroke:#000000;stroke-width:6.48"/>
	<text x="279.45" y="1897.88" style="font-family:'Helvetica';font-size:112.56px;fill:#000000" text-anchor="end">1</text>
	<line x1="346.95" y1="1021.61" x2="301.89" y2="1021.61" style="stroke:#000000;stroke-width:6.48"/>
	<text x="279.45" y="1061.05" style="font-family:'Helvetica';font-size:112.56px;fill:#000000" text-anchor="end">2</text>
	<line x1="346.95" y1="184.61" x2="301.89" y2="184.61" style="stroke:#000000;stroke-width:6.48"/>
	<text x="279.45" y="224.05" style="font-family:'Helvetica';font-size:112.56px;fill:#000000" text-anchor="end">3</text>
	<line x1="346.95" y1="2766.66" x2="4364.72" y2="2766.66" style="stroke:#000000;stroke-width:6.48"/>
	<line x1="418.16" y1="2766.66" x2="418.16" y2="2811.54" style="stroke:#000000;stroke-width:6.48"/>
	<text x="418.16" y="2912.86" style="font-family:'Helvetica';font-size:112.56px;fill:#000000" text-anchor="middle">-.2</text>
	<line x1="1184.96" y1="2766.66" x2="1184.96" y2="2811.54" style="stroke:#000000;stroke-width:6.48"/>
	<text x="1184.96" y="2912.86" style="font-family:'Helvetica';font-size:112.56px;fill:#000000" text-anchor="middle">0</text>
	<line x1="1951.93" y1="2766.66" x2="1951.93" y2="2811.54" style="stroke:#000000;stroke-width:6.48"/>
	<text x="1951.93" y="2912.86" style="font-family:'Helvetica';font-size:112.56px;fill:#000000" text-anchor="middle">.2</text>
	<line x1="2718.73" y1="2766.66" x2="2718.73" y2="2811.54" style="stroke:#000000;stroke-width:6.48"/>
	<text x="2718.73" y="2912.86" style="font-family:'Helvetica';font-size:112.56px;fill:#000000" text-anchor="middle">.4</text>
	<line x1="3485.53" y1="2766.66" x2="3485.53" y2="2811.54" style="stroke:#000000;stroke-width:6.48"/>
	<text x="3485.53" y="2912.86" style="font-family:'Helvetica';font-size:112.56px;fill:#000000" text-anchor="middle">.6</text>
	<line x1="4252.33" y1="2766.66" x2="4252.33" y2="2811.54" style="stroke:#000000;stroke-width:6.48"/>
	<text x="4252.33" y="2912.86" style="font-family:'Helvetica';font-size:112.56px;fill:#000000" text-anchor="middle">.8</text>
	<text x="2355.75" y="3070.31" style="font-family:'Helvetica';font-size:112.56px;fill:#000000" text-anchor="middle">x</text>
	<rect x="4403.53" y="1256.34" width="844.26" height="367.20" style="fill:#FFFFFF"/>
	<rect x="4406.77" y="1259.58" width="837.78" height="360.72" style="fill:none;stroke:#FFFFFF;stroke-width:6.48"/>
	<line x1="4452.13" y1="1361.31" x2="4711.33" y2="1361.31" style="stroke:#1A85FF;stroke-width:9.72"/>
	<line x1="4452.13" y1="1518.75" x2="4711.33" y2="1518.75" style="stroke:#D41159;stroke-width:9.72"/>
	<text x="4778.83" y="1400.74" style="font-family:'Helvetica';font-size:112.56px;fill:#000000">Logistic</text>
	<text x="4778.83" y="1558.19" style="font-family:'Helvetica';font-size:112.56px;fill:#000000">Poisson</text>
</svg>
