<?xml version="1.0" encoding="UTF-8" standalone="no"?>
<!-- This is a Stata 18.0 generated SVG file (http://www.stata.com) -->

<svg version="1.1" width="7.500in" height="4.500in" viewBox="0 0 5400 3240" xmlns="http://www.w3.org/2000/svg" xmlns:xlink="http://www.w3.org/1999/xlink">
	<desc>Stata Graph - Graph</desc>
	<rect x="0" y="0" width="5400" height="3240" style="fill:#FFFFFF;stroke:none"/>
	<rect x="0.00" y="0.00" width="5400.00" height="3240.00" style="fill:#FFFFFF"/>
	<rect x="3.24" y="3.24" width="5393.52" height="3233.52" style="fill:none;stroke:#FFFFFF;stroke-width:6.48"/>
	<rect x="412.59" y="113.40" width="3952.13" height="2653.26" style="fill:#FFFFFF"/>
	<rect x="415.83" y="116.64" width="3945.65" height="2646.78" style="fill:none;stroke:#FFFFFF;stroke-width:6.48"/>
	<line x1="412.59" y1="2650.39" x2="477.39" y2="2650.39" style="stroke:#F0F0F0;stroke-width:9.72"/>
	<line x1="509.79" y1="2650.39" x2="574.59" y2="2650.39" style="stroke:#F0F0F0;stroke-width:9.72"/>
	<line x1="606.99" y1="2650.39" x2="671.79" y2="2650.39" style="stroke:#F0F0F0;stroke-width:9.72"/>
	<line x1="704.19" y1="2650.39" x2="768.99" y2="2650.39" style="stroke:#F0F0F0;stroke-width:9.72"/>
	<line x1="801.39" y1="2650.39" x2="866.19" y2="2650.39" style="stroke:#F0F0F0;stroke-width:9.72"/>
	<line x1="898.59" y1="2650.39" x2="963.39" y2="2650.39" style="stroke:#F0F0F0;stroke-width:9.72"/>
	<line x1="995.79" y1="2650.39" x2="1060.59" y2="2650.39" style="stroke:#F0F0F0;stroke-width:9.72"/>
	<line x1="1092.99" y1="2650.39" x2="1157.79" y2="2650.39" style="stroke:#F0F0F0;stroke-width:9.72"/>
	<line x1="1190.19" y1="2650.39" x2="1254.99" y2="2650.39" style="stroke:#F0F0F0;stroke-width:9.72"/>
	<line x1="1287.39" y1="2650.39" x2="1352.19" y2="2650.39" style="stroke:#F0F0F0;stroke-width:9.72"/>
	<line x1="1384.59" y1="2650.39" x2="1449.39" y2="2650.39" style="stroke:#F0F0F0;stroke-width:9.72"/>
	<line x1="1481.79" y1="2650.39" x2="1546.59" y2="2650.39" style="stroke:#F0F0F0;stroke-width:9.72"/>
	<line x1="1578.99" y1="2650.39" x2="1643.79" y2="2650.39" style="stroke:#F0F0F0;stroke-width:9.72"/>
	<line x1="1676.19" y1="2650.39" x2="1740.99" y2="2650.39" style="stroke:#F0F0F0;stroke-width:9.72"/>
	<line x1="1773.39" y1="2650.39" x2="1838.19" y2="2650.39" style="stroke:#F0F0F0;stroke-width:9.72"/>
	<line x1="1870.59" y1="2650.39" x2="1935.39" y2="2650.39" style="stroke:#F0F0F0;stroke-width:9.72"/>
	<line x1="1967.79" y1="2650.39" x2="2032.59" y2="2650.39" style="stroke:#F0F0F0;stroke-width:9.72"/>
	<line x1="2064.99" y1="2650.39" x2="2129.79" y2="2650.39" style="stroke:#F0F0F0;stroke-width:9.72"/>
	<line x1="2162.19" y1="2650.39" x2="2226.99" y2="2650.39" style="stroke:#F0F0F0;stroke-width:9.72"/>
	<line x1="2259.39" y1="2650.39" x2="2324.19" y2="2650.39" style="stroke:#F0F0F0;stroke-width:9.72"/>
	<line x1="2356.59" y1="2650.39" x2="2421.39" y2="2650.39" style="stroke:#F0F0F0;stroke-width:9.72"/>
	<line x1="2453.79" y1="2650.39" x2="2518.59" y2="2650.39" style="stroke:#F0F0F0;stroke-width:9.72"/>
	<line x1="2550.99" y1="2650.39" x2="2615.79" y2="2650.39" style="stroke:#F0F0F0;stroke-width:9.72"/>
	<line x1="2648.19" y1="2650.39" x2="2712.99" y2="2650.39" style="stroke:#F0F0F0;stroke-width:9.72"/>
	<line x1="2745.39" y1="2650.39" x2="2810.19" y2="2650.39" style="stroke:#F0F0F0;stroke-width:9.72"/>
	<line x1="2842.59" y1="2650.39" x2="2907.39" y2="2650.39" style="stroke:#F0F0F0;stroke-width:9.72"/>
	<line x1="2939.79" y1="2650.39" x2="3004.59" y2="2650.39" style="stroke:#F0F0F0;stroke-width:9.72"/>
	<line x1="3036.99" y1="2650.39" x2="3101.79" y2="2650.39" style="stroke:#F0F0F0;stroke-width:9.72"/>
	<line x1="3134.19" y1="2650.39" x2="3198.99" y2="2650.39" style="stroke:#F0F0F0;stroke-width:9.72"/>
	<line x1="3231.39" y1="2650.39" x2="3296.19" y2="2650.39" style="stroke:#F0F0F0;stroke-width:9.72"/>
	<line x1="3328.59" y1="2650.39" x2="3393.39" y2="2650.39" style="stroke:#F0F0F0;stroke-width:9.72"/>
	<line x1="3425.79" y1="2650.39" x2="3490.59" y2="2650.39" style="stroke:#F0F0F0;stroke-width:9.72"/>
	<line x1="3522.99" y1="2650.39" x2="3587.79" y2="2650.39" style="stroke:#F0F0F0;stroke-width:9.72"/>
	<line x1="3620.19" y1="2650.39" x2="3684.99" y2="2650.39" style="stroke:#F0F0F0;stroke-width:9.72"/>
	<line x1="3717.39" y1="2650.39" x2="3782.19" y2="2650.39" style="stroke:#F0F0F0;stroke-width:9.72"/>
	<line x1="3814.59" y1="2650.39" x2="3879.39" y2="2650.39" style="stroke:#F0F0F0;stroke-width:9.72"/>
	<line x1="3911.79" y1="2650.39" x2="3976.59" y2="2650.39" style="stroke:#F0F0F0;stroke-width:9.72"/>
	<line x1="4008.99" y1="2650.39" x2="4073.79" y2="2650.39" style="stroke:#F0F0F0;stroke-width:9.72"/>
	<line x1="4106.19" y1="2650.39" x2="4170.99" y2="2650.39" style="stroke:#F0F0F0;stroke-width:9.72"/>
	<line x1="4203.39" y1="2650.39" x2="4268.19" y2="2650.39" style="stroke:#F0F0F0;stroke-width:9.72"/>
	<line x1="4300.59" y1="2650.39" x2="4364.72" y2="2650.39" style="stroke:#F0F0F0;stroke-width:9.72"/>
	<line x1="412.59" y1="2051.83" x2="477.39" y2="2051.83" style="stroke:#F0F0F0;stroke-width:9.72"/>
	<line x1="509.79" y1="2051.83" x2="574.59" y2="2051.83" style="stroke:#F0F0F0;stroke-width:9.72"/>
	<line x1="606.99" y1="2051.83" x2="671.79" y2="2051.83" style="stroke:#F0F0F0;stroke-width:9.72"/>
	<line x1="704.19" y1="2051.83" x2="768.99" y2="2051.83" style="stroke:#F0F0F0;stroke-width:9.72"/>
	<line x1="801.39" y1="2051.83" x2="866.19" y2="2051.83" style="stroke:#F0F0F0;stroke-width:9.72"/>
	<line x1="898.59" y1="2051.83" x2="963.39" y2="2051.83" style="stroke:#F0F0F0;stroke-width:9.72"/>
	<line x1="995.79" y1="2051.83" x2="1060.59" y2="2051.83" style="stroke:#F0F0F0;stroke-width:9.72"/>
	<line x1="1092.99" y1="2051.83" x2="1157.79" y2="2051.83" style="stroke:#F0F0F0;stroke-width:9.72"/>
	<line x1="1190.19" y1="2051.83" x2="1254.99" y2="2051.83" style="stroke:#F0F0F0;stroke-width:9.72"/>
	<line x1="1287.39" y1="2051.83" x2="1352.19" y2="2051.83" style="stroke:#F0F0F0;stroke-width:9.72"/>
	<line x1="1384.59" y1="2051.83" x2="1449.39" y2="2051.83" style="stroke:#F0F0F0;stroke-width:9.72"/>
	<line x1="1481.79" y1="2051.83" x2="1546.59" y2="2051.83" style="stroke:#F0F0F0;stroke-width:9.72"/>
	<line x1="1578.99" y1="2051.83" x2="1643.79" y2="2051.83" style="stroke:#F0F0F0;stroke-width:9.72"/>
	<line x1="1676.19" y1="2051.83" x2="1740.99" y2="2051.83" style="stroke:#F0F0F0;stroke-width:9.72"/>
	<line x1="1773.39" y1="2051.83" x2="1838.19" y2="2051.83" style="stroke:#F0F0F0;stroke-width:9.72"/>
	<line x1="1870.59" y1="2051.83" x2="1935.39" y2="2051.83" style="stroke:#F0F0F0;stroke-width:9.72"/>
	<line x1="1967.79" y1="2051.83" x2="2032.59" y2="2051.83" style="stroke:#F0F0F0;stroke-width:9.72"/>
	<line x1="2064.99" y1="2051.83" x2="2129.79" y2="2051.83" style="stroke:#F0F0F0;stroke-width:9.72"/>
	<line x1="2162.19" y1="2051.83" x2="2226.99" y2="2051.83" style="stroke:#F0F0F0;stroke-width:9.72"/>
	<line x1="2259.39" y1="2051.83" x2="2324.19" y2="2051.83" style="stroke:#F0F0F0;stroke-width:9.72"/>
	<line x1="2356.59" y1="2051.83" x2="2421.39" y2="2051.83" style="stroke:#F0F0F0;stroke-width:9.72"/>
	<line x1="2453.79" y1="2051.83" x2="2518.59" y2="2051.83" style="stroke:#F0F0F0;stroke-width:9.72"/>
	<line x1="2550.99" y1="2051.83" x2="2615.79" y2="2051.83" style="stroke:#F0F0F0;stroke-width:9.72"/>
	<line x1="2648.19" y1="2051.83" x2="2712.99" y2="2051.83" style="stroke:#F0F0F0;stroke-width:9.72"/>
	<line x1="2745.39" y1="2051.83" x2="2810.19" y2="2051.83" style="stroke:#F0F0F0;stroke-width:9.72"/>
	<line x1="2842.59" y1="2051.83" x2="2907.39" y2="2051.83" style="stroke:#F0F0F0;stroke-width:9.72"/>
	<line x1="2939.79" y1="2051.83" x2="3004.59" y2="2051.83" style="stroke:#F0F0F0;stroke-width:9.72"/>
	<line x1="3036.99" y1="2051.83" x2="3101.79" y2="2051.83" style="stroke:#F0F0F0;stroke-width:9.72"/>
	<line x1="3134.19" y1="2051.83" x2="3198.99" y2="2051.83" style="stroke:#F0F0F0;stroke-width:9.72"/>
	<line x1="3231.39" y1="2051.83" x2="3296.19" y2="2051.83" style="stroke:#F0F0F0;stroke-width:9.72"/>
	<line x1="3328.59" y1="2051.83" x2="3393.39" y2="2051.83" style="stroke:#F0F0F0;stroke-width:9.72"/>
	<line x1="3425.79" y1="2051.83" x2="3490.59" y2="2051.83" style="stroke:#F0F0F0;stroke-width:9.72"/>
	<line x1="3522.99" y1="2051.83" x2="3587.79" y2="2051.83" style="stroke:#F0F0F0;stroke-width:9.72"/>
	<line x1="3620.19" y1="2051.83" x2="3684.99" y2="2051.83" style="stroke:#F0F0F0;stroke-width:9.72"/>
	<line x1="3717.39" y1="2051.83" x2="3782.19" y2="2051.83" style="stroke:#F0F0F0;stroke-width:9.72"/>
	<line x1="3814.59" y1="2051.83" x2="3879.39" y2="2051.83" style="stroke:#F0F0F0;stroke-width:9.72"/>
	<line x1="3911.79" y1="2051.83" x2="3976.59" y2="2051.83" style="stroke:#F0F0F0;stroke-width:9.72"/>
	<line x1="4008.99" y1="2051.83" x2="4073.79" y2="2051.83" style="stroke:#F0F0F0;stroke-width:9.72"/>
	<line x1="4106.19" y1="2051.83" x2="4170.99" y2="2051.83" style="stroke:#F0F0F0;stroke-width:9.72"/>
	<line x1="4203.39" y1="2051.83" x2="4268.19" y2="2051.83" style="stroke:#F0F0F0;stroke-width:9.72"/>
	<line x1="4300.59" y1="2051.83" x2="4364.72" y2="2051.83" style="stroke:#F0F0F0;stroke-width:9.72"/>
	<line x1="412.59" y1="1453.44" x2="477.39" y2="1453.44" style="stroke:#F0F0F0;stroke-width:9.72"/>
	<line x1="509.79" y1="1453.44" x2="574.59" y2="1453.44" style="stroke:#F0F0F0;stroke-width:9.72"/>
	<line x1="606.99" y1="1453.44" x2="671.79" y2="1453.44" style="stroke:#F0F0F0;stroke-width:9.72"/>
	<line x1="704.19" y1="1453.44" x2="768.99" y2="1453.44" style="stroke:#F0F0F0;stroke-width:9.72"/>
	<line x1="801.39" y1="1453.44" x2="866.19" y2="1453.44" style="stroke:#F0F0F0;stroke-width:9.72"/>
	<line x1="898.59" y1="1453.44" x2="963.39" y2="1453.44" style="stroke:#F0F0F0;stroke-width:9.72"/>
	<line x1="995.79" y1="1453.44" x2="1060.59" y2="1453.44" style="stroke:#F0F0F0;stroke-width:9.72"/>
	<line x1="1092.99" y1="1453.44" x2="1157.79" y2="1453.44" style="stroke:#F0F0F0;stroke-width:9.72"/>
	<line x1="1190.19" y1="1453.44" x2="1254.99" y2="1453.44" style="stroke:#F0F0F0;stroke-width:9.72"/>
	<line x1="1287.39" y1="1453.44" x2="1352.19" y2="1453.44" style="stroke:#F0F0F0;stroke-width:9.72"/>
	<line x1="1384.59" y1="1453.44" x2="1449.39" y2="1453.44" style="stroke:#F0F0F0;stroke-width:9.72"/>
	<line x1="1481.79" y1="1453.44" x2="1546.59" y2="1453.44" style="stroke:#F0F0F0;stroke-width:9.72"/>
	<line x1="1578.99" y1="1453.44" x2="1643.79" y2="1453.44" style="stroke:#F0F0F0;stroke-width:9.72"/>
	<line x1="1676.19" y1="1453.44" x2="1740.99" y2="1453.44" style="stroke:#F0F0F0;stroke-width:9.72"/>
	<line x1="1773.39" y1="1453.44" x2="1838.19" y2="1453.44" style="stroke:#F0F0F0;stroke-width:9.72"/>
	<line x1="1870.59" y1="1453.44" x2="1935.39" y2="1453.44" style="stroke:#F0F0F0;stroke-width:9.72"/>
	<line x1="1967.79" y1="1453.44" x2="2032.59" y2="1453.44" style="stroke:#F0F0F0;stroke-width:9.72"/>
	<line x1="2064.99" y1="1453.44" x2="2129.79" y2="1453.44" style="stroke:#F0F0F0;stroke-width:9.72"/>
	<line x1="2162.19" y1="1453.44" x2="2226.99" y2="1453.44" style="stroke:#F0F0F0;stroke-width:9.72"/>
	<line x1="2259.39" y1="1453.44" x2="2324.19" y2="1453.44" style="stroke:#F0F0F0;stroke-width:9.72"/>
	<line x1="2356.59" y1="1453.44" x2="2421.39" y2="1453.44" style="stroke:#F0F0F0;stroke-width:9.72"/>
	<line x1="2453.79" y1="1453.44" x2="2518.59" y2="1453.44" style="stroke:#F0F0F0;stroke-width:9.72"/>
	<line x1="2550.99" y1="1453.44" x2="2615.79" y2="1453.44" style="stroke:#F0F0F0;stroke-width:9.72"/>
	<line x1="2648.19" y1="1453.44" x2="2712.99" y2="1453.44" style="stroke:#F0F0F0;stroke-width:9.72"/>
	<line x1="2745.39" y1="1453.44" x2="2810.19" y2="1453.44" style="stroke:#F0F0F0;stroke-width:9.72"/>
	<line x1="2842.59" y1="1453.44" x2="2907.39" y2="1453.44" style="stroke:#F0F0F0;stroke-width:9.72"/>
	<line x1="2939.79" y1="1453.44" x2="3004.59" y2="1453.44" style="stroke:#F0F0F0;stroke-width:9.72"/>
	<line x1="3036.99" y1="1453.44" x2="3101.79" y2="1453.44" style="stroke:#F0F0F0;stroke-width:9.72"/>
	<line x1="3134.19" y1="1453.44" x2="3198.99" y2="1453.44" style="stroke:#F0F0F0;stroke-width:9.72"/>
	<line x1="3231.39" y1="1453.44" x2="3296.19" y2="1453.44" style="stroke:#F0F0F0;stroke-width:9.72"/>
	<line x1="3328.59" y1="1453.44" x2="3393.39" y2="1453.44" style="stroke:#F0F0F0;stroke-width:9.72"/>
	<line x1="3425.79" y1="1453.44" x2="3490.59" y2="1453.44" style="stroke:#F0F0F0;stroke-width:9.72"/>
	<line x1="3522.99" y1="1453.44" x2="3587.79" y2="1453.44" style="stroke:#F0F0F0;stroke-width:9.72"/>
	<line x1="3620.19" y1="1453.44" x2="3684.99" y2="1453.44" style="stroke:#F0F0F0;stroke-width:9.72"/>
	<line x1="3717.39" y1="1453.44" x2="3782.19" y2="1453.44" style="stroke:#F0F0F0;stroke-width:9.72"/>
	<line x1="3814.59" y1="1453.44" x2="3879.39" y2="1453.44" style="stroke:#F0F0F0;stroke-width:9.72"/>
	<line x1="3911.79" y1="1453.44" x2="3976.59" y2="1453.44" style="stroke:#F0F0F0;stroke-width:9.72"/>
	<line x1="4008.99" y1="1453.44" x2="4073.79" y2="1453.44" style="stroke:#F0F0F0;stroke-width:9.72"/>
	<line x1="4106.19" y1="1453.44" x2="4170.99" y2="1453.44" style="stroke:#F0F0F0;stroke-width:9.72"/>
	<line x1="4203.39" y1="1453.44" x2="4268.19" y2="1453.44" style="stroke:#F0F0F0;stroke-width:9.72"/>
	<line x1="4300.59" y1="1453.44" x2="4364.72" y2="1453.44" style="stroke:#F0F0F0;stroke-width:9.72"/>
	<line x1="412.59" y1="855.06" x2="477.39" y2="855.06" style="stroke:#F0F0F0;stroke-width:9.72"/>
	<line x1="509.79" y1="855.06" x2="574.59" y2="855.06" style="stroke:#F0F0F0;stroke-width:9.72"/>
	<line x1="606.99" y1="855.06" x2="671.79" y2="855.06" style="stroke:#F0F0F0;stroke-width:9.72"/>
	<line x1="704.19" y1="855.06" x2="768.99" y2="855.06" style="stroke:#F0F0F0;stroke-width:9.72"/>
	<line x1="801.39" y1="855.06" x2="866.19" y2="855.06" style="stroke:#F0F0F0;stroke-width:9.72"/>
	<line x1="898.59" y1="855.06" x2="963.39" y2="855.06" style="stroke:#F0F0F0;stroke-width:9.72"/>
	<line x1="995.79" y1="855.06" x2="1060.59" y2="855.06" style="stroke:#F0F0F0;stroke-width:9.72"/>
	<line x1="1092.99" y1="855.06" x2="1157.79" y2="855.06" style="stroke:#F0F0F0;stroke-width:9.72"/>
	<line x1="1190.19" y1="855.06" x2="1254.99" y2="855.06" style="stroke:#F0F0F0;stroke-width:9.72"/>
	<line x1="1287.39" y1="855.06" x2="1352.19" y2="855.06" style="stroke:#F0F0F0;stroke-width:9.72"/>
	<line x1="1384.59" y1="855.06" x2="1449.39" y2="855.06" style="stroke:#F0F0F0;stroke-width:9.72"/>
	<line x1="1481.79" y1="855.06" x2="1546.59" y2="855.06" style="stroke:#F0F0F0;stroke-width:9.72"/>
	<line x1="1578.99" y1="855.06" x2="1643.79" y2="855.06" style="stroke:#F0F0F0;stroke-width:9.72"/>
	<line x1="1676.19" y1="855.06" x2="1740.99" y2="855.06" style="stroke:#F0F0F0;stroke-width:9.72"/>
	<line x1="1773.39" y1="855.06" x2="1838.19" y2="855.06" style="stroke:#F0F0F0;stroke-width:9.72"/>
	<line x1="1870.59" y1="855.06" x2="1935.39" y2="855.06" style="stroke:#F0F0F0;stroke-width:9.72"/>
	<line x1="1967.79" y1="855.06" x2="2032.59" y2="855.06" style="stroke:#F0F0F0;stroke-width:9.72"/>
	<line x1="2064.99" y1="855.06" x2="2129.79" y2="855.06" style="stroke:#F0F0F0;stroke-width:9.72"/>
	<line x1="2162.19" y1="855.06" x2="2226.99" y2="855.06" style="stroke:#F0F0F0;stroke-width:9.72"/>
	<line x1="2259.39" y1="855.06" x2="2324.19" y2="855.06" style="stroke:#F0F0F0;stroke-width:9.72"/>
	<line x1="2356.59" y1="855.06" x2="2421.39" y2="855.06" style="stroke:#F0F0F0;stroke-width:9.72"/>
	<line x1="2453.79" y1="855.06" x2="2518.59" y2="855.06" style="stroke:#F0F0F0;stroke-width:9.72"/>
	<line x1="2550.99" y1="855.06" x2="2615.79" y2="855.06" style="stroke:#F0F0F0;stroke-width:9.72"/>
	<line x1="2648.19" y1="855.06" x2="2712.99" y2="855.06" style="stroke:#F0F0F0;stroke-width:9.72"/>
	<line x1="2745.39" y1="855.06" x2="2810.19" y2="855.06" style="stroke:#F0F0F0;stroke-width:9.72"/>
	<line x1="2842.59" y1="855.06" x2="2907.39" y2="855.06" style="stroke:#F0F0F0;stroke-width:9.72"/>
	<line x1="2939.79" y1="855.06" x2="3004.59" y2="855.06" style="stroke:#F0F0F0;stroke-width:9.72"/>
	<line x1="3036.99" y1="855.06" x2="3101.79" y2="855.06" style="stroke:#F0F0F0;stroke-width:9.72"/>
	<line x1="3134.19" y1="855.06" x2="3198.99" y2="855.06" style="stroke:#F0F0F0;stroke-width:9.72"/>
	<line x1="3231.39" y1="855.06" x2="3296.19" y2="855.06" style="stroke:#F0F0F0;stroke-width:9.72"/>
	<line x1="3328.59" y1="855.06" x2="3393.39" y2="855.06" style="stroke:#F0F0F0;stroke-width:9.72"/>
	<line x1="3425.79" y1="855.06" x2="3490.59" y2="855.06" style="stroke:#F0F0F0;stroke-width:9.72"/>
	<line x1="3522.99" y1="855.06" x2="3587.79" y2="855.06" style="stroke:#F0F0F0;stroke-width:9.72"/>
	<line x1="3620.19" y1="855.06" x2="3684.99" y2="855.06" style="stroke:#F0F0F0;stroke-width:9.72"/>
	<line x1="3717.39" y1="855.06" x2="3782.19" y2="855.06" style="stroke:#F0F0F0;stroke-width:9.72"/>
	<line x1="3814.59" y1="855.06" x2="3879.39" y2="855.06" style="stroke:#F0F0F0;stroke-width:9.72"/>
	<line x1="3911.79" y1="855.06" x2="3976.59" y2="855.06" style="stroke:#F0F0F0;stroke-width:9.72"/>
	<line x1="4008.99" y1="855.06" x2="4073.79" y2="855.06" style="stroke:#F0F0F0;stroke-width:9.72"/>
	<line x1="4106.19" y1="855.06" x2="4170.99" y2="855.06" style="stroke:#F0F0F0;stroke-width:9.72"/>
	<line x1="4203.39" y1="855.06" x2="4268.19" y2="855.06" style="stroke:#F0F0F0;stroke-width:9.72"/>
	<line x1="4300.59" y1="855.06" x2="4364.72" y2="855.06" style="stroke:#F0F0F0;stroke-width:9.72"/>
	<line x1="412.59" y1="256.50" x2="477.39" y2="256.50" style="stroke:#F0F0F0;stroke-width:9.72"/>
	<line x1="509.79" y1="256.50" x2="574.59" y2="256.50" style="stroke:#F0F0F0;stroke-width:9.72"/>
	<line x1="606.99" y1="256.50" x2="671.79" y2="256.50" style="stroke:#F0F0F0;stroke-width:9.72"/>
	<line x1="704.19" y1="256.50" x2="768.99" y2="256.50" style="stroke:#F0F0F0;stroke-width:9.72"/>
	<line x1="801.39" y1="256.50" x2="866.19" y2="256.50" style="stroke:#F0F0F0;stroke-width:9.72"/>
	<line x1="898.59" y1="256.50" x2="963.39" y2="256.50" style="stroke:#F0F0F0;stroke-width:9.72"/>
	<line x1="995.79" y1="256.50" x2="1060.59" y2="256.50" style="stroke:#F0F0F0;stroke-width:9.72"/>
	<line x1="1092.99" y1="256.50" x2="1157.79" y2="256.50" style="stroke:#F0F0F0;stroke-width:9.72"/>
	<line x1="1190.19" y1="256.50" x2="1254.99" y2="256.50" style="stroke:#F0F0F0;stroke-width:9.72"/>
	<line x1="1287.39" y1="256.50" x2="1352.19" y2="256.50" style="stroke:#F0F0F0;stroke-width:9.72"/>
	<line x1="1384.59" y1="256.50" x2="1449.39" y2="256.50" style="stroke:#F0F0F0;stroke-width:9.72"/>
	<line x1="1481.79" y1="256.50" x2="1546.59" y2="256.50" style="stroke:#F0F0F0;stroke-width:9.72"/>
	<line x1="1578.99" y1="256.50" x2="1643.79" y2="256.50" style="stroke:#F0F0F0;stroke-width:9.72"/>
	<line x1="1676.19" y1="256.50" x2="1740.99" y2="256.50" style="stroke:#F0F0F0;stroke-width:9.72"/>
	<line x1="1773.39" y1="256.50" x2="1838.19" y2="256.50" style="stroke:#F0F0F0;stroke-width:9.72"/>
	<line x1="1870.59" y1="256.50" x2="1935.39" y2="256.50" style="stroke:#F0F0F0;stroke-width:9.72"/>
	<line x1="1967.79" y1="256.50" x2="2032.59" y2="256.50" style="stroke:#F0F0F0;stroke-width:9.72"/>
	<line x1="2064.99" y1="256.50" x2="2129.79" y2="256.50" style="stroke:#F0F0F0;stroke-width:9.72"/>
	<line x1="2162.19" y1="256.50" x2="2226.99" y2="256.50" style="stroke:#F0F0F0;stroke-width:9.72"/>
	<line x1="2259.39" y1="256.50" x2="2324.19" y2="256.50" style="stroke:#F0F0F0;stroke-width:9.72"/>
	<line x1="2356.59" y1="256.50" x2="2421.39" y2="256.50" style="stroke:#F0F0F0;stroke-width:9.72"/>
	<line x1="2453.79" y1="256.50" x2="2518.59" y2="256.50" style="stroke:#F0F0F0;stroke-width:9.72"/>
	<line x1="2550.99" y1="256.50" x2="2615.79" y2="256.50" style="stroke:#F0F0F0;stroke-width:9.72"/>
	<line x1="2648.19" y1="256.50" x2="2712.99" y2="256.50" style="stroke:#F0F0F0;stroke-width:9.72"/>
	<line x1="2745.39" y1="256.50" x2="2810.19" y2="256.50" style="stroke:#F0F0F0;stroke-width:9.72"/>
	<line x1="2842.59" y1="256.50" x2="2907.39" y2="256.50" style="stroke:#F0F0F0;stroke-width:9.72"/>
	<line x1="2939.79" y1="256.50" x2="3004.59" y2="256.50" style="stroke:#F0F0F0;stroke-width:9.72"/>
	<line x1="3036.99" y1="256.50" x2="3101.79" y2="256.50" style="stroke:#F0F0F0;stroke-width:9.72"/>
	<line x1="3134.19" y1="256.50" x2="3198.99" y2="256.50" style="stroke:#F0F0F0;stroke-width:9.72"/>
	<line x1="3231.39" y1="256.50" x2="3296.19" y2="256.50" style="stroke:#F0F0F0;stroke-width:9.72"/>
	<line x1="3328.59" y1="256.50" x2="3393.39" y2="256.50" style="stroke:#F0F0F0;stroke-width:9.72"/>
	<line x1="3425.79" y1="256.50" x2="3490.59" y2="256.50" style="stroke:#F0F0F0;stroke-width:9.72"/>
	<line x1="3522.99" y1="256.50" x2="3587.79" y2="256.50" style="stroke:#F0F0F0;stroke-width:9.72"/>
	<line x1="3620.19" y1="256.50" x2="3684.99" y2="256.50" style="stroke:#F0F0F0;stroke-width:9.72"/>
	<line x1="3717.39" y1="256.50" x2="3782.19" y2="256.50" style="stroke:#F0F0F0;stroke-width:9.72"/>
	<line x1="3814.59" y1="256.50" x2="3879.39" y2="256.50" style="stroke:#F0F0F0;stroke-width:9.72"/>
	<line x1="3911.79" y1="256.50" x2="3976.59" y2="256.50" style="stroke:#F0F0F0;stroke-width:9.72"/>
	<line x1="4008.99" y1="256.50" x2="4073.79" y2="256.50" style="stroke:#F0F0F0;stroke-width:9.72"/>
	<line x1="4106.19" y1="256.50" x2="4170.99" y2="256.50" style="stroke:#F0F0F0;stroke-width:9.72"/>
	<line x1="4203.39" y1="256.50" x2="4268.19" y2="256.50" style="stroke:#F0F0F0;stroke-width:9.72"/>
	<line x1="4300.59" y1="256.50" x2="4364.72" y2="256.50" style="stroke:#F0F0F0;stroke-width:9.72"/>
	<line x1="740.14" y1="2766.66" x2="740.14" y2="2701.86" style="stroke:#F0F0F0;stroke-width:9.72"/>
	<line x1="740.14" y1="2669.46" x2="740.14" y2="2604.66" style="stroke:#F0F0F0;stroke-width:9.72"/>
	<line x1="740.14" y1="2572.26" x2="740.14" y2="2507.46" style="stroke:#F0F0F0;stroke-width:9.72"/>
	<line x1="740.14" y1="2475.06" x2="740.14" y2="2410.26" style="stroke:#F0F0F0;stroke-width:9.72"/>
	<line x1="740.14" y1="2377.86" x2="740.14" y2="2313.06" style="stroke:#F0F0F0;stroke-width:9.72"/>
	<line x1="740.14" y1="2280.66" x2="740.14" y2="2215.86" style="stroke:#F0F0F0;stroke-width:9.72"/>
	<line x1="740.14" y1="2183.46" x2="740.14" y2="2118.66" style="stroke:#F0F0F0;stroke-width:9.72"/>
	<line x1="740.14" y1="2086.26" x2="740.14" y2="2021.46" style="stroke:#F0F0F0;stroke-width:9.72"/>
	<line x1="740.14" y1="1989.06" x2="740.14" y2="1924.26" style="stroke:#F0F0F0;stroke-width:9.72"/>
	<line x1="740.14" y1="1891.86" x2="740.14" y2="1827.06" style="stroke:#F0F0F0;stroke-width:9.72"/>
	<line x1="740.14" y1="1794.66" x2="740.14" y2="1729.86" style="stroke:#F0F0F0;stroke-width:9.72"/>
	<line x1="740.14" y1="1697.46" x2="740.14" y2="1632.66" style="stroke:#F0F0F0;stroke-width:9.72"/>
	<line x1="740.14" y1="1600.26" x2="740.14" y2="1535.46" style="stroke:#F0F0F0;stroke-width:9.72"/>
	<line x1="740.14" y1="1503.06" x2="740.14" y2="1438.26" style="stroke:#F0F0F0;stroke-width:9.72"/>
	<line x1="740.14" y1="1405.86" x2="740.14" y2="1341.06" style="stroke:#F0F0F0;stroke-width:9.72"/>
	<line x1="740.14" y1="1308.66" x2="740.14" y2="1243.86" style="stroke:#F0F0F0;stroke-width:9.72"/>
	<line x1="740.14" y1="1211.46" x2="740.14" y2="1146.66" style="stroke:#F0F0F0;stroke-width:9.72"/>
	<line x1="740.14" y1="1114.26" x2="740.14" y2="1049.46" style="stroke:#F0F0F0;stroke-width:9.72"/>
	<line x1="740.14" y1="1017.06" x2="740.14" y2="952.26" style="stroke:#F0F0F0;stroke-width:9.72"/>
	<line x1="740.14" y1="919.86" x2="740.14" y2="855.06" style="stroke:#F0F0F0;stroke-width:9.72"/>
	<line x1="740.14" y1="822.66" x2="740.14" y2="757.86" style="stroke:#F0F0F0;stroke-width:9.72"/>
	<line x1="740.14" y1="725.46" x2="740.14" y2="660.66" style="stroke:#F0F0F0;stroke-width:9.72"/>
	<line x1="740.14" y1="628.26" x2="740.14" y2="563.46" style="stroke:#F0F0F0;stroke-width:9.72"/>
	<line x1="740.14" y1="531.06" x2="740.14" y2="466.26" style="stroke:#F0F0F0;stroke-width:9.72"/>
	<line x1="740.14" y1="433.86" x2="740.14" y2="369.06" style="stroke:#F0F0F0;stroke-width:9.72"/>
	<line x1="740.14" y1="336.66" x2="740.14" y2="271.86" style="stroke:#F0F0F0;stroke-width:9.72"/>
	<line x1="740.14" y1="239.46" x2="740.14" y2="174.66" style="stroke:#F0F0F0;stroke-width:9.72"/>
	<line x1="740.14" y1="142.26" x2="740.14" y2="113.40" style="stroke:#F0F0F0;stroke-width:9.72"/>
	<line x1="1897.93" y1="2766.66" x2="1897.93" y2="2701.86" style="stroke:#F0F0F0;stroke-width:9.72"/>
	<line x1="1897.93" y1="2669.46" x2="1897.93" y2="2604.66" style="stroke:#F0F0F0;stroke-width:9.72"/>
	<line x1="1897.93" y1="2572.26" x2="1897.93" y2="2507.46" style="stroke:#F0F0F0;stroke-width:9.72"/>
	<line x1="1897.93" y1="2475.06" x2="1897.93" y2="2410.26" style="stroke:#F0F0F0;stroke-width:9.72"/>
	<line x1="1897.93" y1="2377.86" x2="1897.93" y2="2313.06" style="stroke:#F0F0F0;stroke-width:9.72"/>
	<line x1="1897.93" y1="2280.66" x2="1897.93" y2="2215.86" style="stroke:#F0F0F0;stroke-width:9.72"/>
	<line x1="1897.93" y1="2183.46" x2="1897.93" y2="2118.66" style="stroke:#F0F0F0;stroke-width:9.72"/>
	<line x1="1897.93" y1="2086.26" x2="1897.93" y2="2021.46" style="stroke:#F0F0F0;stroke-width:9.72"/>
	<line x1="1897.93" y1="1989.06" x2="1897.93" y2="1924.26" style="stroke:#F0F0F0;stroke-width:9.72"/>
	<line x1="1897.93" y1="1891.86" x2="1897.93" y2="1827.06" style="stroke:#F0F0F0;stroke-width:9.72"/>
	<line x1="1897.93" y1="1794.66" x2="1897.93" y2="1729.86" style="stroke:#F0F0F0;stroke-width:9.72"/>
	<line x1="1897.93" y1="1697.46" x2="1897.93" y2="1632.66" style="stroke:#F0F0F0;stroke-width:9.72"/>
	<line x1="1897.93" y1="1600.26" x2="1897.93" y2="1535.46" style="stroke:#F0F0F0;stroke-width:9.72"/>
	<line x1="1897.93" y1="1503.06" x2="1897.93" y2="1438.26" style="stroke:#F0F0F0;stroke-width:9.72"/>
	<line x1="1897.93" y1="1405.86" x2="1897.93" y2="1341.06" style="stroke:#F0F0F0;stroke-width:9.72"/>
	<line x1="1897.93" y1="1308.66" x2="1897.93" y2="1243.86" style="stroke:#F0F0F0;stroke-width:9.72"/>
	<line x1="1897.93" y1="1211.46" x2="1897.93" y2="1146.66" style="stroke:#F0F0F0;stroke-width:9.72"/>
	<line x1="1897.93" y1="1114.26" x2="1897.93" y2="1049.46" style="stroke:#F0F0F0;stroke-width:9.72"/>
	<line x1="1897.93" y1="1017.06" x2="1897.93" y2="952.26" style="stroke:#F0F0F0;stroke-width:9.72"/>
	<line x1="1897.93" y1="919.86" x2="1897.93" y2="855.06" style="stroke:#F0F0F0;stroke-width:9.72"/>
	<line x1="1897.93" y1="822.66" x2="1897.93" y2="757.86" style="stroke:#F0F0F0;stroke-width:9.72"/>
	<line x1="1897.93" y1="725.46" x2="1897.93" y2="660.66" style="stroke:#F0F0F0;stroke-width:9.72"/>
	<line x1="1897.93" y1="628.26" x2="1897.93" y2="563.46" style="stroke:#F0F0F0;stroke-width:9.72"/>
	<line x1="1897.93" y1="531.06" x2="1897.93" y2="466.26" style="stroke:#F0F0F0;stroke-width:9.72"/>
	<line x1="1897.93" y1="433.86" x2="1897.93" y2="369.06" style="stroke:#F0F0F0;stroke-width:9.72"/>
	<line x1="1897.93" y1="336.66" x2="1897.93" y2="271.86" style="stroke:#F0F0F0;stroke-width:9.72"/>
	<line x1="1897.93" y1="239.46" x2="1897.93" y2="174.66" style="stroke:#F0F0F0;stroke-width:9.72"/>
	<line x1="1897.93" y1="142.26" x2="1897.93" y2="113.40" style="stroke:#F0F0F0;stroke-width:9.72"/>
	<line x1="3055.73" y1="2766.66" x2="3055.73" y2="2701.86" style="stroke:#F0F0F0;stroke-width:9.72"/>
	<line x1="3055.73" y1="2669.46" x2="3055.73" y2="2604.66" style="stroke:#F0F0F0;stroke-width:9.72"/>
	<line x1="3055.73" y1="2572.26" x2="3055.73" y2="2507.46" style="stroke:#F0F0F0;stroke-width:9.72"/>
	<line x1="3055.73" y1="2475.06" x2="3055.73" y2="2410.26" style="stroke:#F0F0F0;stroke-width:9.72"/>
	<line x1="3055.73" y1="2377.86" x2="3055.73" y2="2313.06" style="stroke:#F0F0F0;stroke-width:9.72"/>
	<line x1="3055.73" y1="2280.66" x2="3055.73" y2="2215.86" style="stroke:#F0F0F0;stroke-width:9.72"/>
	<line x1="3055.73" y1="2183.46" x2="3055.73" y2="2118.66" style="stroke:#F0F0F0;stroke-width:9.72"/>
	<line x1="3055.73" y1="2086.26" x2="3055.73" y2="2021.46" style="stroke:#F0F0F0;stroke-width:9.72"/>
	<line x1="3055.73" y1="1989.06" x2="3055.73" y2="1924.26" style="stroke:#F0F0F0;stroke-width:9.72"/>
	<line x1="3055.73" y1="1891.86" x2="3055.73" y2="1827.06" style="stroke:#F0F0F0;stroke-width:9.72"/>
	<line x1="3055.73" y1="1794.66" x2="3055.73" y2="1729.86" style="stroke:#F0F0F0;stroke-width:9.72"/>
	<line x1="3055.73" y1="1697.46" x2="3055.73" y2="1632.66" style="stroke:#F0F0F0;stroke-width:9.72"/>
	<line x1="3055.73" y1="1600.26" x2="3055.73" y2="1535.46" style="stroke:#F0F0F0;stroke-width:9.72"/>
	<line x1="3055.73" y1="1503.06" x2="3055.73" y2="1438.26" style="stroke:#F0F0F0;stroke-width:9.72"/>
	<line x1="3055.73" y1="1405.86" x2="3055.73" y2="1341.06" style="stroke:#F0F0F0;stroke-width:9.72"/>
	<line x1="3055.73" y1="1308.66" x2="3055.73" y2="1243.86" style="stroke:#F0F0F0;stroke-width:9.72"/>
	<line x1="3055.73" y1="1211.46" x2="3055.73" y2="1146.66" style="stroke:#F0F0F0;stroke-width:9.72"/>
	<line x1="3055.73" y1="1114.26" x2="3055.73" y2="1049.46" style="stroke:#F0F0F0;stroke-width:9.72"/>
	<line x1="3055.73" y1="1017.06" x2="3055.73" y2="952.26" style="stroke:#F0F0F0;stroke-width:9.72"/>
	<line x1="3055.73" y1="919.86" x2="3055.73" y2="855.06" style="stroke:#F0F0F0;stroke-width:9.72"/>
	<line x1="3055.73" y1="822.66" x2="3055.73" y2="757.86" style="stroke:#F0F0F0;stroke-width:9.72"/>
	<line x1="3055.73" y1="725.46" x2="3055.73" y2="660.66" style="stroke:#F0F0F0;stroke-width:9.72"/>
	<line x1="3055.73" y1="628.26" x2="3055.73" y2="563.46" style="stroke:#F0F0F0;stroke-width:9.72"/>
	<line x1="3055.73" y1="531.06" x2="3055.73" y2="466.26" style="stroke:#F0F0F0;stroke-width:9.72"/>
	<line x1="3055.73" y1="433.86" x2="3055.73" y2="369.06" style="stroke:#F0F0F0;stroke-width:9.72"/>
	<line x1="3055.73" y1="336.66" x2="3055.73" y2="271.86" style="stroke:#F0F0F0;stroke-width:9.72"/>
	<line x1="3055.73" y1="239.46" x2="3055.73" y2="174.66" style="stroke:#F0F0F0;stroke-width:9.72"/>
	<line x1="3055.73" y1="142.26" x2="3055.73" y2="113.40" style="stroke:#F0F0F0;stroke-width:9.72"/>
	<line x1="4213.52" y1="2766.66" x2="4213.52" y2="2701.86" style="stroke:#F0F0F0;stroke-width:9.72"/>
	<line x1="4213.52" y1="2669.46" x2="4213.52" y2="2604.66" style="stroke:#F0F0F0;stroke-width:9.72"/>
	<line x1="4213.52" y1="2572.26" x2="4213.52" y2="2507.46" style="stroke:#F0F0F0;stroke-width:9.72"/>
	<line x1="4213.52" y1="2475.06" x2="4213.52" y2="2410.26" style="stroke:#F0F0F0;stroke-width:9.72"/>
	<line x1="4213.52" y1="2377.86" x2="4213.52" y2="2313.06" style="stroke:#F0F0F0;stroke-width:9.72"/>
	<line x1="4213.52" y1="2280.66" x2="4213.52" y2="2215.86" style="stroke:#F0F0F0;stroke-width:9.72"/>
	<line x1="4213.52" y1="2183.46" x2="4213.52" y2="2118.66" style="stroke:#F0F0F0;stroke-width:9.72"/>
	<line x1="4213.52" y1="2086.26" x2="4213.52" y2="2021.46" style="stroke:#F0F0F0;stroke-width:9.72"/>
	<line x1="4213.52" y1="1989.06" x2="4213.52" y2="1924.26" style="stroke:#F0F0F0;stroke-width:9.72"/>
	<line x1="4213.52" y1="1891.86" x2="4213.52" y2="1827.06" style="stroke:#F0F0F0;stroke-width:9.72"/>
	<line x1="4213.52" y1="1794.66" x2="4213.52" y2="1729.86" style="stroke:#F0F0F0;stroke-width:9.72"/>
	<line x1="4213.52" y1="1697.46" x2="4213.52" y2="1632.66" style="stroke:#F0F0F0;stroke-width:9.72"/>
	<line x1="4213.52" y1="1600.26" x2="4213.52" y2="1535.46" style="stroke:#F0F0F0;stroke-width:9.72"/>
	<line x1="4213.52" y1="1503.06" x2="4213.52" y2="1438.26" style="stroke:#F0F0F0;stroke-width:9.72"/>
	<line x1="4213.52" y1="1405.86" x2="4213.52" y2="1341.06" style="stroke:#F0F0F0;stroke-width:9.72"/>
	<line x1="4213.52" y1="1308.66" x2="4213.52" y2="1243.86" style="stroke:#F0F0F0;stroke-width:9.72"/>
	<line x1="4213.52" y1="1211.46" x2="4213.52" y2="1146.66" style="stroke:#F0F0F0;stroke-width:9.72"/>
	<line x1="4213.52" y1="1114.26" x2="4213.52" y2="1049.46" style="stroke:#F0F0F0;stroke-width:9.72"/>
	<line x1="4213.52" y1="1017.06" x2="4213.52" y2="952.26" style="stroke:#F0F0F0;stroke-width:9.72"/>
	<line x1="4213.52" y1="919.86" x2="4213.52" y2="855.06" style="stroke:#F0F0F0;stroke-width:9.72"/>
	<line x1="4213.52" y1="822.66" x2="4213.52" y2="757.86" style="stroke:#F0F0F0;stroke-width:9.72"/>
	<line x1="4213.52" y1="725.46" x2="4213.52" y2="660.66" style="stroke:#F0F0F0;stroke-width:9.72"/>
	<line x1="4213.52" y1="628.26" x2="4213.52" y2="563.46" style="stroke:#F0F0F0;stroke-width:9.72"/>
	<line x1="4213.52" y1="531.06" x2="4213.52" y2="466.26" style="stroke:#F0F0F0;stroke-width:9.72"/>
	<line x1="4213.52" y1="433.86" x2="4213.52" y2="369.06" style="stroke:#F0F0F0;stroke-width:9.72"/>
	<line x1="4213.52" y1="336.66" x2="4213.52" y2="271.86" style="stroke:#F0F0F0;stroke-width:9.72"/>
	<line x1="4213.52" y1="239.46" x2="4213.52" y2="174.66" style="stroke:#F0F0F0;stroke-width:9.72"/>
	<line x1="4213.52" y1="142.26" x2="4213.52" y2="113.40" style="stroke:#F0F0F0;stroke-width:9.72"/>
	<line x1="3055.73" y1="2766.66" x2="3055.73" y2="2701.86" style="stroke:#000000;stroke-width:9.72"/>
	<line x1="3055.73" y1="2669.46" x2="3055.73" y2="2604.66" style="stroke:#000000;stroke-width:9.72"/>
	<line x1="3055.73" y1="2572.26" x2="3055.73" y2="2507.46" style="stroke:#000000;stroke-width:9.72"/>
	<line x1="3055.73" y1="2475.06" x2="3055.73" y2="2410.26" style="stroke:#000000;stroke-width:9.72"/>
	<line x1="3055.73" y1="2377.86" x2="3055.73" y2="2313.06" style="stroke:#000000;stroke-width:9.72"/>
	<line x1="3055.73" y1="2280.66" x2="3055.73" y2="2215.86" style="stroke:#000000;stroke-width:9.72"/>
	<line x1="3055.73" y1="2183.46" x2="3055.73" y2="2118.66" style="stroke:#000000;stroke-width:9.72"/>
	<line x1="3055.73" y1="2086.26" x2="3055.73" y2="2021.46" style="stroke:#000000;stroke-width:9.72"/>
	<line x1="3055.73" y1="1989.06" x2="3055.73" y2="1924.26" style="stroke:#000000;stroke-width:9.72"/>
	<line x1="3055.73" y1="1891.86" x2="3055.73" y2="1827.06" style="stroke:#000000;stroke-width:9.72"/>
	<line x1="3055.73" y1="1794.66" x2="3055.73" y2="1729.86" style="stroke:#000000;stroke-width:9.72"/>
	<line x1="3055.73" y1="1697.46" x2="3055.73" y2="1632.66" style="stroke:#000000;stroke-width:9.72"/>
	<line x1="3055.73" y1="1600.26" x2="3055.73" y2="1535.46" style="stroke:#000000;stroke-width:9.72"/>
	<line x1="3055.73" y1="1503.06" x2="3055.73" y2="1438.26" style="stroke:#000000;stroke-width:9.72"/>
	<line x1="3055.73" y1="1405.86" x2="3055.73" y2="1341.06" style="stroke:#000000;stroke-width:9.72"/>
	<line x1="3055.73" y1="1308.66" x2="3055.73" y2="1243.86" style="stroke:#000000;stroke-width:9.72"/>
	<line x1="3055.73" y1="1211.46" x2="3055.73" y2="1146.66" style="stroke:#000000;stroke-width:9.72"/>
	<line x1="3055.73" y1="1114.26" x2="3055.73" y2="1049.46" style="stroke:#000000;stroke-width:9.72"/>
	<line x1="3055.73" y1="1017.06" x2="3055.73" y2="952.26" style="stroke:#000000;stroke-width:9.72"/>
	<line x1="3055.73" y1="919.86" x2="3055.73" y2="855.06" style="stroke:#000000;stroke-width:9.72"/>
	<line x1="3055.73" y1="822.66" x2="3055.73" y2="757.86" style="stroke:#000000;stroke-width:9.72"/>
	<line x1="3055.73" y1="725.46" x2="3055.73" y2="660.66" style="stroke:#000000;stroke-width:9.72"/>
	<line x1="3055.73" y1="628.26" x2="3055.73" y2="563.46" style="stroke:#000000;stroke-width:9.72"/>
	<line x1="3055.73" y1="531.06" x2="3055.73" y2="466.26" style="stroke:#000000;stroke-width:9.72"/>
	<line x1="3055.73" y1="433.86" x2="3055.73" y2="369.06" style="stroke:#000000;stroke-width:9.72"/>
	<line x1="3055.73" y1="336.66" x2="3055.73" y2="271.86" style="stroke:#000000;stroke-width:9.72"/>
	<line x1="3055.73" y1="239.46" x2="3055.73" y2="174.66" style="stroke:#000000;stroke-width:9.72"/>
	<line x1="3055.73" y1="142.26" x2="3055.73" y2="113.40" style="stroke:#000000;stroke-width:9.72"/>
	<path d=" M1342.24 2695.44 L1352.19 2689.71 L1361.98 2683.97 L1371.94 2678.40 L1381.73 2673.00 L1391.68 2667.60 L1401.47 2662.54 L1411.43 2657.31 L1421.21 2652.41 L1431.17 2647.52 L1440.96 2642.79 L1450.91 2638.07 L1460.70 2633.51 L1470.66 2629.13 L1480.44 2624.91 L1490.40 2620.69 L1500.19 2616.64 L1510.14 2612.59 L1519.93 2608.71 L1529.89 2599.26 L1539.68 2588.79 L1549.63 2578.50 L1559.42 2568.38 L1569.38 2558.25 L1579.16 2548.46 L1589.12 2538.84 L1598.91 2529.39 L1608.86 2518.26 L1618.65 2502.23 L1628.61 2486.36 L1638.39 2470.84 L1648.18 2455.48 L1658.14 2440.29 L1667.93 2425.28 L1677.88 2410.59 L1687.67 2396.25 L1697.63 2381.91 L1707.41 2367.90 L1717.37 2354.06 L1727.16 2340.56 L1737.11 2327.23 L1746.90 2314.07 L1756.86 2301.24 L1766.64 2283.86 L1776.60 2264.63 L1786.39 2245.56 L1796.34 2226.82 L1806.13 2208.26 L1816.09 2190.21 L1825.88 2172.15 L1835.83 2154.60 L1845.62 2137.22 L1855.58 2120.18 L1865.36 2103.47 L1875.32 2086.93 L1885.11 2070.73 L1895.06 2054.70 L1904.85 2039.18 L1914.81 2023.82 L1924.59 2008.63 L1934.55 1993.78 L1944.34 1979.27 L1954.29 1965.09 L1964.08 1951.09 L1974.04 1937.42 L1983.83 1924.09 L1993.78 1910.93 L2003.57 1898.10 L2013.53 1885.61 L2023.31 1873.29 L2033.10 1861.31 L2043.06 1849.67 L2052.84 1838.19 L2062.80 1827.06 L2072.59 1816.26 L2082.54 1805.63 L2092.33 1795.33 L2102.29 1785.21 L2112.07 1775.59 L2122.03 1766.14 L2131.82 1756.86 L2141.78 1748.08 L2151.56 1739.48 L2161.52 1731.04 L2171.31 1723.11 L2181.26 1715.34 L2191.05 1707.92 L2201.01 1700.66 L2210.79 1693.74 L2220.75 1687.16 L2230.54 1680.75 L2240.49 1674.68 L2250.28 1668.94 L2260.24 1663.37 L2270.03 1658.14 L2279.98 1653.24 L2289.77 1648.52 L2299.73 1644.13 L2309.51 1640.08 L2319.47 1636.20 L2329.26 1632.66 L2339.21 1629.45 L2349.00 1626.58 L2358.96 1623.88 L2368.74 1621.35 L2378.70 1619.33 L2388.49 1617.47 L2398.28 1615.95 L2408.23 1614.60 L2418.02 1613.59 L2427.98 1612.91 L2437.76 1612.07 L2447.72 1604.98 L2457.51 1598.23 L2467.46 1591.99 L2477.25 1585.91 L2487.21 1580.18 L2496.99 1574.78 L2506.95 1569.71 L2516.74 1564.99 L2526.69 1560.77 L2536.48 1556.72 L2546.44 1553.01 L2556.23 1549.63 L2566.18 1540.86 L2575.97 1531.07 L2585.93 1521.79 L2595.71 1512.68 L2605.67 1503.73 L2615.46 1495.29 L2625.41 1487.03 L2635.20 1478.93 L2645.16 1471.33 L2654.94 1463.91 L2664.90 1456.65 L2674.69 1449.90 L2684.64 1443.32 L2694.43 1430.16 L2704.39 1417.16 L2714.18 1404.68 L2724.13 1392.53 L2733.92 1380.54 L2743.88 1369.07 L2753.66 1357.93 L2763.62 1347.13 L2773.41 1336.50 L2783.19 1326.38 L2793.15 1316.59 L2802.94 1307.14 L2812.89 1297.86 L2822.68 1282.33 L2832.64 1266.97 L2842.43 1252.13 L2852.38 1237.44 L2862.17 1223.44 L2872.13 1209.60 L2881.91 1196.27 L2891.87 1183.28 L2901.66 1170.62 L2911.61 1158.47 L2921.40 1146.66 L2931.36 1135.35 L2941.14 1124.38 L2951.10 1113.75 L2960.89 1103.46 L2970.84 1093.67 L2980.63 1084.22 L2990.59 1075.28 L3000.38 1066.67 L3010.33 1058.40 L3020.12 1050.47 L3030.08 1043.04 L3039.86 1035.96 L3049.82 1029.21 L3059.61 1016.04 L3069.56 1003.39 L3079.35 989.89 L3089.31 971.16 L3099.09 952.93 L3109.05 935.21 L3118.84 918.00 L3128.79 901.46 L3138.58 885.26 L3148.54 869.57 L3158.33 854.38 L3168.11 839.70 L3178.07 825.53 L3187.86 811.86 L3197.81 798.69 L3207.60 786.04 L3217.56 773.89 L3227.34 762.24 L3237.30 751.11 L3247.09 740.47 L3257.04 730.52 L3266.83 720.90 L3276.79 711.79 L3286.58 703.18 L3296.53 695.08 L3306.32 687.49 L3316.28 680.40 L3326.06 673.82 L3336.02 667.91 L3345.81 662.34 L3355.76 657.28 L3365.55 652.72 L3375.51 648.68 L3385.29 645.30 L3395.25 642.26 L3405.04 639.73 L3414.99 637.71 L3424.78 636.19 L3434.74 635.34 L3444.53 634.84 L3454.48 634.84 L3464.27 635.34 L3474.23 636.53 L3484.01 638.04 L3493.97 640.07 L3503.76 642.60 L3513.71 645.81 L3523.50 649.35 L3533.29 653.40 L3543.24 657.96 L3553.03 663.19 L3562.99 668.76 L3572.78 674.83 L3582.73 678.71 L3592.52 678.88 L3602.48 679.56 L3612.26 680.57 L3622.22 682.09 L3632.01 683.94 L3641.96 686.47 L3651.75 689.34 L3661.71 692.55 L3671.49 696.26 L3681.45 700.48 L3691.24 705.21 L3701.19 710.27 L3710.98 715.84 L3720.94 721.91 L3730.73 728.32 L3740.68 735.24 L3750.47 742.67 L3760.43 750.43 L3770.21 758.70 L3780.17 767.47 L3789.96 776.59 L3799.91 786.21 L3809.70 796.33 L3819.66 806.79 L3829.44 817.76 L3839.40 829.24 L3849.19 841.05 L3859.14 853.37 L3868.93 866.19 L3878.89 879.36 L3888.68 893.03 L3898.63 907.20 L3908.42 921.71 L3918.21 936.73 L3928.16 952.26 L3937.95 968.12 L3947.91 984.66 L3957.69 997.99 L3967.65 1008.28 L3977.44 1018.91 L3987.39 1030.05 L3997.18 1041.53 L4007.14 1053.34 L4016.93 1065.66 L4026.88 1078.31 L4036.67 1091.31 L4046.63 1098.22 L4056.41 1105.14 L4066.37 1112.23 L4076.16 1119.66 L4086.11 1127.59 L4095.90 1135.69 L4105.86 1144.29 L4115.64 1153.07 L4125.60 1162.18 L4135.39 1171.80 L4145.34 1181.59 L4155.13 1191.88 L4165.09 1202.34 L4174.88 1213.31 L4184.83 1224.45 L4194.62 1233.56 L4204.58 1238.46 L4214.36 1243.69 L4224.32 1249.09 L4234.11 1254.83 L4244.06 1260.90 L4253.85 1267.14 L4263.81 1273.72 L4273.59 1280.64 L4283.55 1287.73 L4293.34 1295.16" stroke-linejoin="round" style="fill:none;stroke:#1A85FF;stroke-width:9.72"/>
	<path d=" M483.81 2624.91 L492.24 2616.47 L500.68 2608.37 L509.12 2600.27 L517.73 2592.34 L526.16 2584.74 L534.60 2577.15 L543.04 2569.73 L551.48 2562.47 L559.91 2555.38 L568.52 2548.46 L576.96 2541.71 L585.39 2535.13 L593.83 2528.72 L602.27 2522.48 L610.71 2516.40 L619.14 2510.32 L627.75 2504.59 L636.19 2499.02 L644.63 2493.45 L653.06 2488.22 L661.50 2483.16 L669.94 2478.09 L678.54 2473.37 L686.98 2468.64 L695.42 2464.09 L703.86 2459.87 L712.29 2454.30 L720.73 2440.97 L729.17 2427.98 L737.78 2415.32 L746.21 2402.83 L754.65 2390.51 L763.09 2378.53 L771.53 2366.72 L779.96 2352.71 L788.57 2332.13 L797.01 2312.04 L805.44 2292.13 L813.88 2272.56 L822.32 2253.32 L830.76 2234.42 L839.36 2215.86 L847.80 2197.63 L856.24 2177.89 L864.68 2151.06 L873.11 2124.56 L881.55 2098.57 L889.99 2072.93 L898.59 2047.78 L907.03 2022.98 L915.47 1998.68 L923.91 1974.54 L932.34 1951.09 L940.78 1927.80 L949.39 1905.02 L957.83 1882.74 L966.26 1860.64 L974.70 1839.04 L983.14 1817.94 L991.58 1797.19 L1000.18 1776.77 L1008.62 1756.86 L1017.06 1737.28 L1025.49 1718.04 L1033.93 1699.31 L1042.37 1680.92 L1050.81 1663.03 L1059.41 1645.48 L1067.85 1628.27 L1076.29 1611.56 L1084.72 1595.19 L1093.16 1579.16 L1101.60 1563.64 L1110.21 1548.62 L1118.64 1533.77 L1127.08 1519.43 L1135.52 1505.59 L1143.96 1492.09 L1152.39 1478.93 L1160.83 1466.10 L1169.44 1453.78 L1177.88 1441.97 L1186.31 1430.33 L1194.75 1419.36 L1203.19 1408.56 L1211.63 1398.26 L1220.23 1388.31 L1228.67 1378.86 L1237.11 1369.74 L1245.54 1360.97 L1253.98 1352.70 L1262.42 1344.77 L1271.03 1337.34 L1279.46 1330.26 L1287.90 1323.51 L1296.34 1317.26 L1304.78 1311.36 L1313.21 1305.96 L1321.65 1300.89 L1330.26 1296.17 L1338.69 1291.95 L1347.13 1288.07 L1355.57 1284.53 L1364.01 1281.49 L1372.44 1278.79 L1381.05 1276.59 L1389.49 1274.74 L1397.93 1273.22 L1406.36 1272.21 L1414.80 1271.53 L1423.24 1271.19 L1431.84 1271.36 L1440.28 1272.04 L1448.72 1272.88 L1457.16 1274.23 L1465.59 1267.82 L1474.03 1260.73 L1482.47 1253.81 L1491.08 1247.23 L1499.51 1240.99 L1507.95 1225.80 L1516.39 1211.12 L1524.83 1196.78 L1533.26 1182.77 L1541.87 1169.27 L1550.31 1156.11 L1558.74 1143.45 L1567.18 1130.96 L1575.62 1119.15 L1584.06 1107.51 L1592.66 1096.54 L1601.10 1085.74 L1609.54 1075.44 L1617.98 1065.49 L1626.41 1056.04 L1634.85 1046.93 L1643.29 1038.15 L1651.89 1027.35 L1660.33 1010.31 L1668.77 993.60 L1677.21 977.57 L1685.64 961.88 L1694.08 946.69 L1702.69 932.01 L1711.13 917.83 L1719.56 903.99 L1728.00 890.83 L1736.44 878.01 L1744.88 865.69 L1753.31 846.11 L1761.92 825.69 L1770.36 805.78 L1778.79 786.38 L1787.23 767.64 L1795.67 749.42 L1804.11 731.70 L1812.71 714.66 L1821.15 698.12 L1829.59 682.26 L1838.03 666.73 L1846.46 651.88 L1854.90 637.71 L1863.51 623.87 L1871.94 610.88 L1880.38 598.22 L1888.82 586.24 L1897.26 574.76 L1905.69 563.79 L1914.13 553.50 L1922.74 543.71 L1931.18 534.60 L1939.61 525.82 L1948.05 517.89 L1956.49 510.30 L1964.93 503.38 L1973.53 496.97 L1981.97 491.06 L1990.41 485.83 L1998.84 481.11 L2007.28 477.06 L2015.72 473.51 L2024.33 470.47 L2032.76 467.94 L2041.20 463.89 L2049.64 444.15 L2058.07 425.08 L2066.51 406.86 L2074.95 389.31 L2083.56 372.43 L2091.99 356.23 L2100.43 340.88 L2108.87 326.19 L2117.31 312.19 L2125.74 299.03 L2134.35 286.54 L2142.79 274.72 L2151.23 263.76 L2159.66 253.29 L2168.10 243.68 L2176.54 234.90 L2184.98 226.63 L2193.58 219.21 L2202.02 212.63 L2210.46 206.55 L2218.89 201.32 L2227.33 196.76 L2235.77 192.88 L2244.38 189.84 L2252.81 187.48 L2261.25 185.79 L2269.69 184.95 L2278.13 184.78 L2286.56 185.29 L2295.17 186.64 L2303.61 188.49 L2312.04 191.19 L2320.48 194.74 L2328.92 198.79 L2337.36 203.68 L2345.79 209.25 L2354.40 206.38 L2362.84 204.02 L2371.28 202.33 L2379.71 201.32 L2388.15 200.81 L2396.59 201.15 L2405.19 201.99 L2413.63 203.51 L2422.07 205.71 L2430.51 208.41 L2438.94 211.95 L2447.38 216.00 L2455.99 220.72 L2464.43 226.13 L2472.86 232.20 L2481.30 238.95 L2489.74 246.21 L2498.18 254.14 L2506.61 262.91 L2515.22 272.03 L2523.66 281.98 L2532.09 292.61 L2540.53 303.75 L2548.97 315.56 L2557.41 328.05 L2566.01 341.21 L2574.45 354.88 L2582.89 369.39 L2591.32 384.41 L2599.76 400.11 L2608.20 416.47 L2616.81 433.35 L2625.24 451.07 L2633.68 469.29 L2642.12 488.19 L2650.56 507.77 L2658.99 528.02 L2667.43 540.34 L2676.04 552.49 L2684.48 565.14 L2692.91 578.47 L2701.35 592.14 L2709.79 606.66 L2718.23 621.51 L2726.83 636.69 L2735.27 643.44 L2743.71 650.70 L2752.14 658.29 L2760.58 666.56 L2769.02 675.17 L2777.46 684.45 L2786.06 694.07 L2794.50 704.19 L2802.94 714.82 L2811.38 716.85 L2819.81 719.04 L2828.25 721.74 L2836.86 724.61 L2845.29 728.16 L2853.73 731.87 L2862.17 736.09 L2870.61 740.64 L2879.04 745.71 L2887.65 751.11 L2896.09 757.01 L2904.53 763.09 L2912.96 769.84 L2921.40 776.76 L2929.84 784.18 L2938.28 792.11 L2946.88 800.21 L2955.32 808.99 L2963.76 817.93 L2972.19 827.38 L2980.63 837.17 L2989.07 847.46 L2997.68 858.09 L3006.11 869.23 L3014.55 880.54" stroke-linejoin="round" style="fill:none;stroke:#D41159;stroke-width:9.72"/>
	<line x1="412.59" y1="2766.66" x2="412.59" y2="113.40" style="stroke:#000000;stroke-width:6.48"/>
	<line x1="412.59" y1="2650.39" x2="367.54" y2="2650.39" style="stroke:#000000;stroke-width:6.48"/>
	<text x="345.09" y="2689.82" style="font-family:'Helvetica';font-size:112.56px;fill:#000000" text-anchor="end">2</text>
	<line x1="412.59" y1="2051.83" x2="367.54" y2="2051.83" style="stroke:#000000;stroke-width:6.48"/>
	<text x="345.09" y="2091.27" style="font-family:'Helvetica';font-size:112.56px;fill:#000000" text-anchor="end">4</text>
	<line x1="412.59" y1="1453.44" x2="367.54" y2="1453.44" style="stroke:#000000;stroke-width:6.48"/>
	<text x="345.09" y="1492.88" style="font-family:'Helvetica';font-size:112.56px;fill:#000000" text-anchor="end">6</text>
	<line x1="412.59" y1="855.06" x2="367.54" y2="855.06" style="stroke:#000000;stroke-width:6.48"/>
	<text x="345.09" y="894.49" style="font-family:'Helvetica';font-size:112.56px;fill:#000000" text-anchor="end">8</text>
	<line x1="412.59" y1="256.50" x2="367.54" y2="256.50" style="stroke:#000000;stroke-width:6.48"/>
	<text x="345.09" y="295.94" style="font-family:'Helvetica';font-size:112.56px;fill:#000000" text-anchor="end">10</text>
	<line x1="412.59" y1="2766.66" x2="4364.72" y2="2766.66" style="stroke:#000000;stroke-width:6.48"/>
	<line x1="740.14" y1="2766.66" x2="740.14" y2="2811.54" style="stroke:#000000;stroke-width:6.48"/>
	<text x="740.14" y="2912.86" style="font-family:'Helvetica';font-size:112.56px;fill:#000000" text-anchor="middle">.3</text>
	<line x1="1897.93" y1="2766.66" x2="1897.93" y2="2811.54" style="stroke:#000000;stroke-width:6.48"/>
	<text x="1897.93" y="2912.86" style="font-family:'Helvetica';font-size:112.56px;fill:#000000" text-anchor="middle">.35</text>
	<line x1="3055.73" y1="2766.66" x2="3055.73" y2="2811.54" style="stroke:#000000;stroke-width:6.48"/>
	<text x="3055.73" y="2912.86" style="font-family:'Helvetica';font-size:112.56px;fill:#000000" text-anchor="middle">.4</text>
	<line x1="4213.52" y1="2766.66" x2="4213.52" y2="2811.54" style="stroke:#000000;stroke-width:6.48"/>
	<text x="4213.52" y="2912.86" style="font-family:'Helvetica';font-size:112.56px;fill:#000000" text-anchor="middle">.45</text>
	<text x="2388.66" y="3070.31" style="font-family:'Helvetica';font-size:112.56px;fill:#000000" text-anchor="middle">x</text>
	<rect x="4403.53" y="1256.34" width="844.26" height="367.20" style="fill:#FFFFFF"/>
	<rect x="4406.77" y="1259.58" width="837.78" height="360.72" style="fill:none;stroke:#FFFFFF;stroke-width:6.48"/>
	<line x1="4452.13" y1="1361.31" x2="4711.33" y2="1361.31" style="stroke:#1A85FF;stroke-width:9.72"/>
	<line x1="4452.13" y1="1518.75" x2="4711.33" y2="1518.75" style="stroke:#D41159;stroke-width:9.72"/>
	<text x="4778.83" y="1400.74" style="font-family:'Helvetica';font-size:112.56px;fill:#000000">Logistic</text>
	<text x="4778.83" y="1558.19" style="font-family:'Helvetica';font-size:112.56px;fill:#000000">Poisson</text>
</svg>
