<?xml version="1.0" encoding="UTF-8" standalone="no"?>
<!-- This is a Stata 18.0 generated SVG file (http://www.stata.com) -->

<svg version="1.1" width="7.500in" height="4.500in" viewBox="0 0 5400 3240" xmlns="http://www.w3.org/2000/svg" xmlns:xlink="http://www.w3.org/1999/xlink">
	<desc>Stata Graph - Graph</desc>
	<rect x="0" y="0" width="5400" height="3240" style="fill:#FFFFFF;stroke:none"/>
	<rect x="0.00" y="0.00" width="5400.00" height="3240.00" style="fill:#FFFFFF"/>
	<rect x="3.24" y="3.24" width="5393.52" height="3233.52" style="fill:none;stroke:#FFFFFF;stroke-width:6.48"/>
	<rect x="412.59" y="113.40" width="3952.13" height="2653.26" style="fill:#FFFFFF"/>
	<rect x="415.83" y="116.64" width="3945.65" height="2646.78" style="fill:none;stroke:#FFFFFF;stroke-width:6.48"/>
	<line x1="412.59" y1="2596.22" x2="477.39" y2="2596.22" style="stroke:#F0F0F0;stroke-width:9.72"/>
	<line x1="509.79" y1="2596.22" x2="574.59" y2="2596.22" style="stroke:#F0F0F0;stroke-width:9.72"/>
	<line x1="606.99" y1="2596.22" x2="671.79" y2="2596.22" style="stroke:#F0F0F0;stroke-width:9.72"/>
	<line x1="704.19" y1="2596.22" x2="768.99" y2="2596.22" style="stroke:#F0F0F0;stroke-width:9.72"/>
	<line x1="801.39" y1="2596.22" x2="866.19" y2="2596.22" style="stroke:#F0F0F0;stroke-width:9.72"/>
	<line x1="898.59" y1="2596.22" x2="963.39" y2="2596.22" style="stroke:#F0F0F0;stroke-width:9.72"/>
	<line x1="995.79" y1="2596.22" x2="1060.59" y2="2596.22" style="stroke:#F0F0F0;stroke-width:9.72"/>
	<line x1="1092.99" y1="2596.22" x2="1157.79" y2="2596.22" style="stroke:#F0F0F0;stroke-width:9.72"/>
	<line x1="1190.19" y1="2596.22" x2="1254.99" y2="2596.22" style="stroke:#F0F0F0;stroke-width:9.72"/>
	<line x1="1287.39" y1="2596.22" x2="1352.19" y2="2596.22" style="stroke:#F0F0F0;stroke-width:9.72"/>
	<line x1="1384.59" y1="2596.22" x2="1449.39" y2="2596.22" style="stroke:#F0F0F0;stroke-width:9.72"/>
	<line x1="1481.79" y1="2596.22" x2="1546.59" y2="2596.22" style="stroke:#F0F0F0;stroke-width:9.72"/>
	<line x1="1578.99" y1="2596.22" x2="1643.79" y2="2596.22" style="stroke:#F0F0F0;stroke-width:9.72"/>
	<line x1="1676.19" y1="2596.22" x2="1740.99" y2="2596.22" style="stroke:#F0F0F0;stroke-width:9.72"/>
	<line x1="1773.39" y1="2596.22" x2="1838.19" y2="2596.22" style="stroke:#F0F0F0;stroke-width:9.72"/>
	<line x1="1870.59" y1="2596.22" x2="1935.39" y2="2596.22" style="stroke:#F0F0F0;stroke-width:9.72"/>
	<line x1="1967.79" y1="2596.22" x2="2032.59" y2="2596.22" style="stroke:#F0F0F0;stroke-width:9.72"/>
	<line x1="2064.99" y1="2596.22" x2="2129.79" y2="2596.22" style="stroke:#F0F0F0;stroke-width:9.72"/>
	<line x1="2162.19" y1="2596.22" x2="2226.99" y2="2596.22" style="stroke:#F0F0F0;stroke-width:9.72"/>
	<line x1="2259.39" y1="2596.22" x2="2324.19" y2="2596.22" style="stroke:#F0F0F0;stroke-width:9.72"/>
	<line x1="2356.59" y1="2596.22" x2="2421.39" y2="2596.22" style="stroke:#F0F0F0;stroke-width:9.72"/>
	<line x1="2453.79" y1="2596.22" x2="2518.59" y2="2596.22" style="stroke:#F0F0F0;stroke-width:9.72"/>
	<line x1="2550.99" y1="2596.22" x2="2615.79" y2="2596.22" style="stroke:#F0F0F0;stroke-width:9.72"/>
	<line x1="2648.19" y1="2596.22" x2="2712.99" y2="2596.22" style="stroke:#F0F0F0;stroke-width:9.72"/>
	<line x1="2745.39" y1="2596.22" x2="2810.19" y2="2596.22" style="stroke:#F0F0F0;stroke-width:9.72"/>
	<line x1="2842.59" y1="2596.22" x2="2907.39" y2="2596.22" style="stroke:#F0F0F0;stroke-width:9.72"/>
	<line x1="2939.79" y1="2596.22" x2="3004.59" y2="2596.22" style="stroke:#F0F0F0;stroke-width:9.72"/>
	<line x1="3036.99" y1="2596.22" x2="3101.79" y2="2596.22" style="stroke:#F0F0F0;stroke-width:9.72"/>
	<line x1="3134.19" y1="2596.22" x2="3198.99" y2="2596.22" style="stroke:#F0F0F0;stroke-width:9.72"/>
	<line x1="3231.39" y1="2596.22" x2="3296.19" y2="2596.22" style="stroke:#F0F0F0;stroke-width:9.72"/>
	<line x1="3328.59" y1="2596.22" x2="3393.39" y2="2596.22" style="stroke:#F0F0F0;stroke-width:9.72"/>
	<line x1="3425.79" y1="2596.22" x2="3490.59" y2="2596.22" style="stroke:#F0F0F0;stroke-width:9.72"/>
	<line x1="3522.99" y1="2596.22" x2="3587.79" y2="2596.22" style="stroke:#F0F0F0;stroke-width:9.72"/>
	<line x1="3620.19" y1="2596.22" x2="3684.99" y2="2596.22" style="stroke:#F0F0F0;stroke-width:9.72"/>
	<line x1="3717.39" y1="2596.22" x2="3782.19" y2="2596.22" style="stroke:#F0F0F0;stroke-width:9.72"/>
	<line x1="3814.59" y1="2596.22" x2="3879.39" y2="2596.22" style="stroke:#F0F0F0;stroke-width:9.72"/>
	<line x1="3911.79" y1="2596.22" x2="3976.59" y2="2596.22" style="stroke:#F0F0F0;stroke-width:9.72"/>
	<line x1="4008.99" y1="2596.22" x2="4073.79" y2="2596.22" style="stroke:#F0F0F0;stroke-width:9.72"/>
	<line x1="4106.19" y1="2596.22" x2="4170.99" y2="2596.22" style="stroke:#F0F0F0;stroke-width:9.72"/>
	<line x1="4203.39" y1="2596.22" x2="4268.19" y2="2596.22" style="stroke:#F0F0F0;stroke-width:9.72"/>
	<line x1="4300.59" y1="2596.22" x2="4364.72" y2="2596.22" style="stroke:#F0F0F0;stroke-width:9.72"/>
	<line x1="412.59" y1="2113.93" x2="477.39" y2="2113.93" style="stroke:#F0F0F0;stroke-width:9.72"/>
	<line x1="509.79" y1="2113.93" x2="574.59" y2="2113.93" style="stroke:#F0F0F0;stroke-width:9.72"/>
	<line x1="606.99" y1="2113.93" x2="671.79" y2="2113.93" style="stroke:#F0F0F0;stroke-width:9.72"/>
	<line x1="704.19" y1="2113.93" x2="768.99" y2="2113.93" style="stroke:#F0F0F0;stroke-width:9.72"/>
	<line x1="801.39" y1="2113.93" x2="866.19" y2="2113.93" style="stroke:#F0F0F0;stroke-width:9.72"/>
	<line x1="898.59" y1="2113.93" x2="963.39" y2="2113.93" style="stroke:#F0F0F0;stroke-width:9.72"/>
	<line x1="995.79" y1="2113.93" x2="1060.59" y2="2113.93" style="stroke:#F0F0F0;stroke-width:9.72"/>
	<line x1="1092.99" y1="2113.93" x2="1157.79" y2="2113.93" style="stroke:#F0F0F0;stroke-width:9.72"/>
	<line x1="1190.19" y1="2113.93" x2="1254.99" y2="2113.93" style="stroke:#F0F0F0;stroke-width:9.72"/>
	<line x1="1287.39" y1="2113.93" x2="1352.19" y2="2113.93" style="stroke:#F0F0F0;stroke-width:9.72"/>
	<line x1="1384.59" y1="2113.93" x2="1449.39" y2="2113.93" style="stroke:#F0F0F0;stroke-width:9.72"/>
	<line x1="1481.79" y1="2113.93" x2="1546.59" y2="2113.93" style="stroke:#F0F0F0;stroke-width:9.72"/>
	<line x1="1578.99" y1="2113.93" x2="1643.79" y2="2113.93" style="stroke:#F0F0F0;stroke-width:9.72"/>
	<line x1="1676.19" y1="2113.93" x2="1740.99" y2="2113.93" style="stroke:#F0F0F0;stroke-width:9.72"/>
	<line x1="1773.39" y1="2113.93" x2="1838.19" y2="2113.93" style="stroke:#F0F0F0;stroke-width:9.72"/>
	<line x1="1870.59" y1="2113.93" x2="1935.39" y2="2113.93" style="stroke:#F0F0F0;stroke-width:9.72"/>
	<line x1="1967.79" y1="2113.93" x2="2032.59" y2="2113.93" style="stroke:#F0F0F0;stroke-width:9.72"/>
	<line x1="2064.99" y1="2113.93" x2="2129.79" y2="2113.93" style="stroke:#F0F0F0;stroke-width:9.72"/>
	<line x1="2162.19" y1="2113.93" x2="2226.99" y2="2113.93" style="stroke:#F0F0F0;stroke-width:9.72"/>
	<line x1="2259.39" y1="2113.93" x2="2324.19" y2="2113.93" style="stroke:#F0F0F0;stroke-width:9.72"/>
	<line x1="2356.59" y1="2113.93" x2="2421.39" y2="2113.93" style="stroke:#F0F0F0;stroke-width:9.72"/>
	<line x1="2453.79" y1="2113.93" x2="2518.59" y2="2113.93" style="stroke:#F0F0F0;stroke-width:9.72"/>
	<line x1="2550.99" y1="2113.93" x2="2615.79" y2="2113.93" style="stroke:#F0F0F0;stroke-width:9.72"/>
	<line x1="2648.19" y1="2113.93" x2="2712.99" y2="2113.93" style="stroke:#F0F0F0;stroke-width:9.72"/>
	<line x1="2745.39" y1="2113.93" x2="2810.19" y2="2113.93" style="stroke:#F0F0F0;stroke-width:9.72"/>
	<line x1="2842.59" y1="2113.93" x2="2907.39" y2="2113.93" style="stroke:#F0F0F0;stroke-width:9.72"/>
	<line x1="2939.79" y1="2113.93" x2="3004.59" y2="2113.93" style="stroke:#F0F0F0;stroke-width:9.72"/>
	<line x1="3036.99" y1="2113.93" x2="3101.79" y2="2113.93" style="stroke:#F0F0F0;stroke-width:9.72"/>
	<line x1="3134.19" y1="2113.93" x2="3198.99" y2="2113.93" style="stroke:#F0F0F0;stroke-width:9.72"/>
	<line x1="3231.39" y1="2113.93" x2="3296.19" y2="2113.93" style="stroke:#F0F0F0;stroke-width:9.72"/>
	<line x1="3328.59" y1="2113.93" x2="3393.39" y2="2113.93" style="stroke:#F0F0F0;stroke-width:9.72"/>
	<line x1="3425.79" y1="2113.93" x2="3490.59" y2="2113.93" style="stroke:#F0F0F0;stroke-width:9.72"/>
	<line x1="3522.99" y1="2113.93" x2="3587.79" y2="2113.93" style="stroke:#F0F0F0;stroke-width:9.72"/>
	<line x1="3620.19" y1="2113.93" x2="3684.99" y2="2113.93" style="stroke:#F0F0F0;stroke-width:9.72"/>
	<line x1="3717.39" y1="2113.93" x2="3782.19" y2="2113.93" style="stroke:#F0F0F0;stroke-width:9.72"/>
	<line x1="3814.59" y1="2113.93" x2="3879.39" y2="2113.93" style="stroke:#F0F0F0;stroke-width:9.72"/>
	<line x1="3911.79" y1="2113.93" x2="3976.59" y2="2113.93" style="stroke:#F0F0F0;stroke-width:9.72"/>
	<line x1="4008.99" y1="2113.93" x2="4073.79" y2="2113.93" style="stroke:#F0F0F0;stroke-width:9.72"/>
	<line x1="4106.19" y1="2113.93" x2="4170.99" y2="2113.93" style="stroke:#F0F0F0;stroke-width:9.72"/>
	<line x1="4203.39" y1="2113.93" x2="4268.19" y2="2113.93" style="stroke:#F0F0F0;stroke-width:9.72"/>
	<line x1="4300.59" y1="2113.93" x2="4364.72" y2="2113.93" style="stroke:#F0F0F0;stroke-width:9.72"/>
	<line x1="412.59" y1="1631.64" x2="477.39" y2="1631.64" style="stroke:#F0F0F0;stroke-width:9.72"/>
	<line x1="509.79" y1="1631.64" x2="574.59" y2="1631.64" style="stroke:#F0F0F0;stroke-width:9.72"/>
	<line x1="606.99" y1="1631.64" x2="671.79" y2="1631.64" style="stroke:#F0F0F0;stroke-width:9.72"/>
	<line x1="704.19" y1="1631.64" x2="768.99" y2="1631.64" style="stroke:#F0F0F0;stroke-width:9.72"/>
	<line x1="801.39" y1="1631.64" x2="866.19" y2="1631.64" style="stroke:#F0F0F0;stroke-width:9.72"/>
	<line x1="898.59" y1="1631.64" x2="963.39" y2="1631.64" style="stroke:#F0F0F0;stroke-width:9.72"/>
	<line x1="995.79" y1="1631.64" x2="1060.59" y2="1631.64" style="stroke:#F0F0F0;stroke-width:9.72"/>
	<line x1="1092.99" y1="1631.64" x2="1157.79" y2="1631.64" style="stroke:#F0F0F0;stroke-width:9.72"/>
	<line x1="1190.19" y1="1631.64" x2="1254.99" y2="1631.64" style="stroke:#F0F0F0;stroke-width:9.72"/>
	<line x1="1287.39" y1="1631.64" x2="1352.19" y2="1631.64" style="stroke:#F0F0F0;stroke-width:9.72"/>
	<line x1="1384.59" y1="1631.64" x2="1449.39" y2="1631.64" style="stroke:#F0F0F0;stroke-width:9.72"/>
	<line x1="1481.79" y1="1631.64" x2="1546.59" y2="1631.64" style="stroke:#F0F0F0;stroke-width:9.72"/>
	<line x1="1578.99" y1="1631.64" x2="1643.79" y2="1631.64" style="stroke:#F0F0F0;stroke-width:9.72"/>
	<line x1="1676.19" y1="1631.64" x2="1740.99" y2="1631.64" style="stroke:#F0F0F0;stroke-width:9.72"/>
	<line x1="1773.39" y1="1631.64" x2="1838.19" y2="1631.64" style="stroke:#F0F0F0;stroke-width:9.72"/>
	<line x1="1870.59" y1="1631.64" x2="1935.39" y2="1631.64" style="stroke:#F0F0F0;stroke-width:9.72"/>
	<line x1="1967.79" y1="1631.64" x2="2032.59" y2="1631.64" style="stroke:#F0F0F0;stroke-width:9.72"/>
	<line x1="2064.99" y1="1631.64" x2="2129.79" y2="1631.64" style="stroke:#F0F0F0;stroke-width:9.72"/>
	<line x1="2162.19" y1="1631.64" x2="2226.99" y2="1631.64" style="stroke:#F0F0F0;stroke-width:9.72"/>
	<line x1="2259.39" y1="1631.64" x2="2324.19" y2="1631.64" style="stroke:#F0F0F0;stroke-width:9.72"/>
	<line x1="2356.59" y1="1631.64" x2="2421.39" y2="1631.64" style="stroke:#F0F0F0;stroke-width:9.72"/>
	<line x1="2453.79" y1="1631.64" x2="2518.59" y2="1631.64" style="stroke:#F0F0F0;stroke-width:9.72"/>
	<line x1="2550.99" y1="1631.64" x2="2615.79" y2="1631.64" style="stroke:#F0F0F0;stroke-width:9.72"/>
	<line x1="2648.19" y1="1631.64" x2="2712.99" y2="1631.64" style="stroke:#F0F0F0;stroke-width:9.72"/>
	<line x1="2745.39" y1="1631.64" x2="2810.19" y2="1631.64" style="stroke:#F0F0F0;stroke-width:9.72"/>
	<line x1="2842.59" y1="1631.64" x2="2907.39" y2="1631.64" style="stroke:#F0F0F0;stroke-width:9.72"/>
	<line x1="2939.79" y1="1631.64" x2="3004.59" y2="1631.64" style="stroke:#F0F0F0;stroke-width:9.72"/>
	<line x1="3036.99" y1="1631.64" x2="3101.79" y2="1631.64" style="stroke:#F0F0F0;stroke-width:9.72"/>
	<line x1="3134.19" y1="1631.64" x2="3198.99" y2="1631.64" style="stroke:#F0F0F0;stroke-width:9.72"/>
	<line x1="3231.39" y1="1631.64" x2="3296.19" y2="1631.64" style="stroke:#F0F0F0;stroke-width:9.72"/>
	<line x1="3328.59" y1="1631.64" x2="3393.39" y2="1631.64" style="stroke:#F0F0F0;stroke-width:9.72"/>
	<line x1="3425.79" y1="1631.64" x2="3490.59" y2="1631.64" style="stroke:#F0F0F0;stroke-width:9.72"/>
	<line x1="3522.99" y1="1631.64" x2="3587.79" y2="1631.64" style="stroke:#F0F0F0;stroke-width:9.72"/>
	<line x1="3620.19" y1="1631.64" x2="3684.99" y2="1631.64" style="stroke:#F0F0F0;stroke-width:9.72"/>
	<line x1="3717.39" y1="1631.64" x2="3782.19" y2="1631.64" style="stroke:#F0F0F0;stroke-width:9.72"/>
	<line x1="3814.59" y1="1631.64" x2="3879.39" y2="1631.64" style="stroke:#F0F0F0;stroke-width:9.72"/>
	<line x1="3911.79" y1="1631.64" x2="3976.59" y2="1631.64" style="stroke:#F0F0F0;stroke-width:9.72"/>
	<line x1="4008.99" y1="1631.64" x2="4073.79" y2="1631.64" style="stroke:#F0F0F0;stroke-width:9.72"/>
	<line x1="4106.19" y1="1631.64" x2="4170.99" y2="1631.64" style="stroke:#F0F0F0;stroke-width:9.72"/>
	<line x1="4203.39" y1="1631.64" x2="4268.19" y2="1631.64" style="stroke:#F0F0F0;stroke-width:9.72"/>
	<line x1="4300.59" y1="1631.64" x2="4364.72" y2="1631.64" style="stroke:#F0F0F0;stroke-width:9.72"/>
	<line x1="412.59" y1="1149.36" x2="477.39" y2="1149.36" style="stroke:#F0F0F0;stroke-width:9.72"/>
	<line x1="509.79" y1="1149.36" x2="574.59" y2="1149.36" style="stroke:#F0F0F0;stroke-width:9.72"/>
	<line x1="606.99" y1="1149.36" x2="671.79" y2="1149.36" style="stroke:#F0F0F0;stroke-width:9.72"/>
	<line x1="704.19" y1="1149.36" x2="768.99" y2="1149.36" style="stroke:#F0F0F0;stroke-width:9.72"/>
	<line x1="801.39" y1="1149.36" x2="866.19" y2="1149.36" style="stroke:#F0F0F0;stroke-width:9.72"/>
	<line x1="898.59" y1="1149.36" x2="963.39" y2="1149.36" style="stroke:#F0F0F0;stroke-width:9.72"/>
	<line x1="995.79" y1="1149.36" x2="1060.59" y2="1149.36" style="stroke:#F0F0F0;stroke-width:9.72"/>
	<line x1="1092.99" y1="1149.36" x2="1157.79" y2="1149.36" style="stroke:#F0F0F0;stroke-width:9.72"/>
	<line x1="1190.19" y1="1149.36" x2="1254.99" y2="1149.36" style="stroke:#F0F0F0;stroke-width:9.72"/>
	<line x1="1287.39" y1="1149.36" x2="1352.19" y2="1149.36" style="stroke:#F0F0F0;stroke-width:9.72"/>
	<line x1="1384.59" y1="1149.36" x2="1449.39" y2="1149.36" style="stroke:#F0F0F0;stroke-width:9.72"/>
	<line x1="1481.79" y1="1149.36" x2="1546.59" y2="1149.36" style="stroke:#F0F0F0;stroke-width:9.72"/>
	<line x1="1578.99" y1="1149.36" x2="1643.79" y2="1149.36" style="stroke:#F0F0F0;stroke-width:9.72"/>
	<line x1="1676.19" y1="1149.36" x2="1740.99" y2="1149.36" style="stroke:#F0F0F0;stroke-width:9.72"/>
	<line x1="1773.39" y1="1149.36" x2="1838.19" y2="1149.36" style="stroke:#F0F0F0;stroke-width:9.72"/>
	<line x1="1870.59" y1="1149.36" x2="1935.39" y2="1149.36" style="stroke:#F0F0F0;stroke-width:9.72"/>
	<line x1="1967.79" y1="1149.36" x2="2032.59" y2="1149.36" style="stroke:#F0F0F0;stroke-width:9.72"/>
	<line x1="2064.99" y1="1149.36" x2="2129.79" y2="1149.36" style="stroke:#F0F0F0;stroke-width:9.72"/>
	<line x1="2162.19" y1="1149.36" x2="2226.99" y2="1149.36" style="stroke:#F0F0F0;stroke-width:9.72"/>
	<line x1="2259.39" y1="1149.36" x2="2324.19" y2="1149.36" style="stroke:#F0F0F0;stroke-width:9.72"/>
	<line x1="2356.59" y1="1149.36" x2="2421.39" y2="1149.36" style="stroke:#F0F0F0;stroke-width:9.72"/>
	<line x1="2453.79" y1="1149.36" x2="2518.59" y2="1149.36" style="stroke:#F0F0F0;stroke-width:9.72"/>
	<line x1="2550.99" y1="1149.36" x2="2615.79" y2="1149.36" style="stroke:#F0F0F0;stroke-width:9.72"/>
	<line x1="2648.19" y1="1149.36" x2="2712.99" y2="1149.36" style="stroke:#F0F0F0;stroke-width:9.72"/>
	<line x1="2745.39" y1="1149.36" x2="2810.19" y2="1149.36" style="stroke:#F0F0F0;stroke-width:9.72"/>
	<line x1="2842.59" y1="1149.36" x2="2907.39" y2="1149.36" style="stroke:#F0F0F0;stroke-width:9.72"/>
	<line x1="2939.79" y1="1149.36" x2="3004.59" y2="1149.36" style="stroke:#F0F0F0;stroke-width:9.72"/>
	<line x1="3036.99" y1="1149.36" x2="3101.79" y2="1149.36" style="stroke:#F0F0F0;stroke-width:9.72"/>
	<line x1="3134.19" y1="1149.36" x2="3198.99" y2="1149.36" style="stroke:#F0F0F0;stroke-width:9.72"/>
	<line x1="3231.39" y1="1149.36" x2="3296.19" y2="1149.36" style="stroke:#F0F0F0;stroke-width:9.72"/>
	<line x1="3328.59" y1="1149.36" x2="3393.39" y2="1149.36" style="stroke:#F0F0F0;stroke-width:9.72"/>
	<line x1="3425.79" y1="1149.36" x2="3490.59" y2="1149.36" style="stroke:#F0F0F0;stroke-width:9.72"/>
	<line x1="3522.99" y1="1149.36" x2="3587.79" y2="1149.36" style="stroke:#F0F0F0;stroke-width:9.72"/>
	<line x1="3620.19" y1="1149.36" x2="3684.99" y2="1149.36" style="stroke:#F0F0F0;stroke-width:9.72"/>
	<line x1="3717.39" y1="1149.36" x2="3782.19" y2="1149.36" style="stroke:#F0F0F0;stroke-width:9.72"/>
	<line x1="3814.59" y1="1149.36" x2="3879.39" y2="1149.36" style="stroke:#F0F0F0;stroke-width:9.72"/>
	<line x1="3911.79" y1="1149.36" x2="3976.59" y2="1149.36" style="stroke:#F0F0F0;stroke-width:9.72"/>
	<line x1="4008.99" y1="1149.36" x2="4073.79" y2="1149.36" style="stroke:#F0F0F0;stroke-width:9.72"/>
	<line x1="4106.19" y1="1149.36" x2="4170.99" y2="1149.36" style="stroke:#F0F0F0;stroke-width:9.72"/>
	<line x1="4203.39" y1="1149.36" x2="4268.19" y2="1149.36" style="stroke:#F0F0F0;stroke-width:9.72"/>
	<line x1="4300.59" y1="1149.36" x2="4364.72" y2="1149.36" style="stroke:#F0F0F0;stroke-width:9.72"/>
	<line x1="412.59" y1="666.90" x2="477.39" y2="666.90" style="stroke:#F0F0F0;stroke-width:9.72"/>
	<line x1="509.79" y1="666.90" x2="574.59" y2="666.90" style="stroke:#F0F0F0;stroke-width:9.72"/>
	<line x1="606.99" y1="666.90" x2="671.79" y2="666.90" style="stroke:#F0F0F0;stroke-width:9.72"/>
	<line x1="704.19" y1="666.90" x2="768.99" y2="666.90" style="stroke:#F0F0F0;stroke-width:9.72"/>
	<line x1="801.39" y1="666.90" x2="866.19" y2="666.90" style="stroke:#F0F0F0;stroke-width:9.72"/>
	<line x1="898.59" y1="666.90" x2="963.39" y2="666.90" style="stroke:#F0F0F0;stroke-width:9.72"/>
	<line x1="995.79" y1="666.90" x2="1060.59" y2="666.90" style="stroke:#F0F0F0;stroke-width:9.72"/>
	<line x1="1092.99" y1="666.90" x2="1157.79" y2="666.90" style="stroke:#F0F0F0;stroke-width:9.72"/>
	<line x1="1190.19" y1="666.90" x2="1254.99" y2="666.90" style="stroke:#F0F0F0;stroke-width:9.72"/>
	<line x1="1287.39" y1="666.90" x2="1352.19" y2="666.90" style="stroke:#F0F0F0;stroke-width:9.72"/>
	<line x1="1384.59" y1="666.90" x2="1449.39" y2="666.90" style="stroke:#F0F0F0;stroke-width:9.72"/>
	<line x1="1481.79" y1="666.90" x2="1546.59" y2="666.90" style="stroke:#F0F0F0;stroke-width:9.72"/>
	<line x1="1578.99" y1="666.90" x2="1643.79" y2="666.90" style="stroke:#F0F0F0;stroke-width:9.72"/>
	<line x1="1676.19" y1="666.90" x2="1740.99" y2="666.90" style="stroke:#F0F0F0;stroke-width:9.72"/>
	<line x1="1773.39" y1="666.90" x2="1838.19" y2="666.90" style="stroke:#F0F0F0;stroke-width:9.72"/>
	<line x1="1870.59" y1="666.90" x2="1935.39" y2="666.90" style="stroke:#F0F0F0;stroke-width:9.72"/>
	<line x1="1967.79" y1="666.90" x2="2032.59" y2="666.90" style="stroke:#F0F0F0;stroke-width:9.72"/>
	<line x1="2064.99" y1="666.90" x2="2129.79" y2="666.90" style="stroke:#F0F0F0;stroke-width:9.72"/>
	<line x1="2162.19" y1="666.90" x2="2226.99" y2="666.90" style="stroke:#F0F0F0;stroke-width:9.72"/>
	<line x1="2259.39" y1="666.90" x2="2324.19" y2="666.90" style="stroke:#F0F0F0;stroke-width:9.72"/>
	<line x1="2356.59" y1="666.90" x2="2421.39" y2="666.90" style="stroke:#F0F0F0;stroke-width:9.72"/>
	<line x1="2453.79" y1="666.90" x2="2518.59" y2="666.90" style="stroke:#F0F0F0;stroke-width:9.72"/>
	<line x1="2550.99" y1="666.90" x2="2615.79" y2="666.90" style="stroke:#F0F0F0;stroke-width:9.72"/>
	<line x1="2648.19" y1="666.90" x2="2712.99" y2="666.90" style="stroke:#F0F0F0;stroke-width:9.72"/>
	<line x1="2745.39" y1="666.90" x2="2810.19" y2="666.90" style="stroke:#F0F0F0;stroke-width:9.72"/>
	<line x1="2842.59" y1="666.90" x2="2907.39" y2="666.90" style="stroke:#F0F0F0;stroke-width:9.72"/>
	<line x1="2939.79" y1="666.90" x2="3004.59" y2="666.90" style="stroke:#F0F0F0;stroke-width:9.72"/>
	<line x1="3036.99" y1="666.90" x2="3101.79" y2="666.90" style="stroke:#F0F0F0;stroke-width:9.72"/>
	<line x1="3134.19" y1="666.90" x2="3198.99" y2="666.90" style="stroke:#F0F0F0;stroke-width:9.72"/>
	<line x1="3231.39" y1="666.90" x2="3296.19" y2="666.90" style="stroke:#F0F0F0;stroke-width:9.72"/>
	<line x1="3328.59" y1="666.90" x2="3393.39" y2="666.90" style="stroke:#F0F0F0;stroke-width:9.72"/>
	<line x1="3425.79" y1="666.90" x2="3490.59" y2="666.90" style="stroke:#F0F0F0;stroke-width:9.72"/>
	<line x1="3522.99" y1="666.90" x2="3587.79" y2="666.90" style="stroke:#F0F0F0;stroke-width:9.72"/>
	<line x1="3620.19" y1="666.90" x2="3684.99" y2="666.90" style="stroke:#F0F0F0;stroke-width:9.72"/>
	<line x1="3717.39" y1="666.90" x2="3782.19" y2="666.90" style="stroke:#F0F0F0;stroke-width:9.72"/>
	<line x1="3814.59" y1="666.90" x2="3879.39" y2="666.90" style="stroke:#F0F0F0;stroke-width:9.72"/>
	<line x1="3911.79" y1="666.90" x2="3976.59" y2="666.90" style="stroke:#F0F0F0;stroke-width:9.72"/>
	<line x1="4008.99" y1="666.90" x2="4073.79" y2="666.90" style="stroke:#F0F0F0;stroke-width:9.72"/>
	<line x1="4106.19" y1="666.90" x2="4170.99" y2="666.90" style="stroke:#F0F0F0;stroke-width:9.72"/>
	<line x1="4203.39" y1="666.90" x2="4268.19" y2="666.90" style="stroke:#F0F0F0;stroke-width:9.72"/>
	<line x1="4300.59" y1="666.90" x2="4364.72" y2="666.90" style="stroke:#F0F0F0;stroke-width:9.72"/>
	<line x1="412.59" y1="184.61" x2="477.39" y2="184.61" style="stroke:#F0F0F0;stroke-width:9.72"/>
	<line x1="509.79" y1="184.61" x2="574.59" y2="184.61" style="stroke:#F0F0F0;stroke-width:9.72"/>
	<line x1="606.99" y1="184.61" x2="671.79" y2="184.61" style="stroke:#F0F0F0;stroke-width:9.72"/>
	<line x1="704.19" y1="184.61" x2="768.99" y2="184.61" style="stroke:#F0F0F0;stroke-width:9.72"/>
	<line x1="801.39" y1="184.61" x2="866.19" y2="184.61" style="stroke:#F0F0F0;stroke-width:9.72"/>
	<line x1="898.59" y1="184.61" x2="963.39" y2="184.61" style="stroke:#F0F0F0;stroke-width:9.72"/>
	<line x1="995.79" y1="184.61" x2="1060.59" y2="184.61" style="stroke:#F0F0F0;stroke-width:9.72"/>
	<line x1="1092.99" y1="184.61" x2="1157.79" y2="184.61" style="stroke:#F0F0F0;stroke-width:9.72"/>
	<line x1="1190.19" y1="184.61" x2="1254.99" y2="184.61" style="stroke:#F0F0F0;stroke-width:9.72"/>
	<line x1="1287.39" y1="184.61" x2="1352.19" y2="184.61" style="stroke:#F0F0F0;stroke-width:9.72"/>
	<line x1="1384.59" y1="184.61" x2="1449.39" y2="184.61" style="stroke:#F0F0F0;stroke-width:9.72"/>
	<line x1="1481.79" y1="184.61" x2="1546.59" y2="184.61" style="stroke:#F0F0F0;stroke-width:9.72"/>
	<line x1="1578.99" y1="184.61" x2="1643.79" y2="184.61" style="stroke:#F0F0F0;stroke-width:9.72"/>
	<line x1="1676.19" y1="184.61" x2="1740.99" y2="184.61" style="stroke:#F0F0F0;stroke-width:9.72"/>
	<line x1="1773.39" y1="184.61" x2="1838.19" y2="184.61" style="stroke:#F0F0F0;stroke-width:9.72"/>
	<line x1="1870.59" y1="184.61" x2="1935.39" y2="184.61" style="stroke:#F0F0F0;stroke-width:9.72"/>
	<line x1="1967.79" y1="184.61" x2="2032.59" y2="184.61" style="stroke:#F0F0F0;stroke-width:9.72"/>
	<line x1="2064.99" y1="184.61" x2="2129.79" y2="184.61" style="stroke:#F0F0F0;stroke-width:9.72"/>
	<line x1="2162.19" y1="184.61" x2="2226.99" y2="184.61" style="stroke:#F0F0F0;stroke-width:9.72"/>
	<line x1="2259.39" y1="184.61" x2="2324.19" y2="184.61" style="stroke:#F0F0F0;stroke-width:9.72"/>
	<line x1="2356.59" y1="184.61" x2="2421.39" y2="184.61" style="stroke:#F0F0F0;stroke-width:9.72"/>
	<line x1="2453.79" y1="184.61" x2="2518.59" y2="184.61" style="stroke:#F0F0F0;stroke-width:9.72"/>
	<line x1="2550.99" y1="184.61" x2="2615.79" y2="184.61" style="stroke:#F0F0F0;stroke-width:9.72"/>
	<line x1="2648.19" y1="184.61" x2="2712.99" y2="184.61" style="stroke:#F0F0F0;stroke-width:9.72"/>
	<line x1="2745.39" y1="184.61" x2="2810.19" y2="184.61" style="stroke:#F0F0F0;stroke-width:9.72"/>
	<line x1="2842.59" y1="184.61" x2="2907.39" y2="184.61" style="stroke:#F0F0F0;stroke-width:9.72"/>
	<line x1="2939.79" y1="184.61" x2="3004.59" y2="184.61" style="stroke:#F0F0F0;stroke-width:9.72"/>
	<line x1="3036.99" y1="184.61" x2="3101.79" y2="184.61" style="stroke:#F0F0F0;stroke-width:9.72"/>
	<line x1="3134.19" y1="184.61" x2="3198.99" y2="184.61" style="stroke:#F0F0F0;stroke-width:9.72"/>
	<line x1="3231.39" y1="184.61" x2="3296.19" y2="184.61" style="stroke:#F0F0F0;stroke-width:9.72"/>
	<line x1="3328.59" y1="184.61" x2="3393.39" y2="184.61" style="stroke:#F0F0F0;stroke-width:9.72"/>
	<line x1="3425.79" y1="184.61" x2="3490.59" y2="184.61" style="stroke:#F0F0F0;stroke-width:9.72"/>
	<line x1="3522.99" y1="184.61" x2="3587.79" y2="184.61" style="stroke:#F0F0F0;stroke-width:9.72"/>
	<line x1="3620.19" y1="184.61" x2="3684.99" y2="184.61" style="stroke:#F0F0F0;stroke-width:9.72"/>
	<line x1="3717.39" y1="184.61" x2="3782.19" y2="184.61" style="stroke:#F0F0F0;stroke-width:9.72"/>
	<line x1="3814.59" y1="184.61" x2="3879.39" y2="184.61" style="stroke:#F0F0F0;stroke-width:9.72"/>
	<line x1="3911.79" y1="184.61" x2="3976.59" y2="184.61" style="stroke:#F0F0F0;stroke-width:9.72"/>
	<line x1="4008.99" y1="184.61" x2="4073.79" y2="184.61" style="stroke:#F0F0F0;stroke-width:9.72"/>
	<line x1="4106.19" y1="184.61" x2="4170.99" y2="184.61" style="stroke:#F0F0F0;stroke-width:9.72"/>
	<line x1="4203.39" y1="184.61" x2="4268.19" y2="184.61" style="stroke:#F0F0F0;stroke-width:9.72"/>
	<line x1="4300.59" y1="184.61" x2="4364.72" y2="184.61" style="stroke:#F0F0F0;stroke-width:9.72"/>
	<line x1="483.81" y1="2766.66" x2="483.81" y2="2701.86" style="stroke:#F0F0F0;stroke-width:9.72"/>
	<line x1="483.81" y1="2669.46" x2="483.81" y2="2604.66" style="stroke:#F0F0F0;stroke-width:9.72"/>
	<line x1="483.81" y1="2572.26" x2="483.81" y2="2507.46" style="stroke:#F0F0F0;stroke-width:9.72"/>
	<line x1="483.81" y1="2475.06" x2="483.81" y2="2410.26" style="stroke:#F0F0F0;stroke-width:9.72"/>
	<line x1="483.81" y1="2377.86" x2="483.81" y2="2313.06" style="stroke:#F0F0F0;stroke-width:9.72"/>
	<line x1="483.81" y1="2280.66" x2="483.81" y2="2215.86" style="stroke:#F0F0F0;stroke-width:9.72"/>
	<line x1="483.81" y1="2183.46" x2="483.81" y2="2118.66" style="stroke:#F0F0F0;stroke-width:9.72"/>
	<line x1="483.81" y1="2086.26" x2="483.81" y2="2021.46" style="stroke:#F0F0F0;stroke-width:9.72"/>
	<line x1="483.81" y1="1989.06" x2="483.81" y2="1924.26" style="stroke:#F0F0F0;stroke-width:9.72"/>
	<line x1="483.81" y1="1891.86" x2="483.81" y2="1827.06" style="stroke:#F0F0F0;stroke-width:9.72"/>
	<line x1="483.81" y1="1794.66" x2="483.81" y2="1729.86" style="stroke:#F0F0F0;stroke-width:9.72"/>
	<line x1="483.81" y1="1697.46" x2="483.81" y2="1632.66" style="stroke:#F0F0F0;stroke-width:9.72"/>
	<line x1="483.81" y1="1600.26" x2="483.81" y2="1535.46" style="stroke:#F0F0F0;stroke-width:9.72"/>
	<line x1="483.81" y1="1503.06" x2="483.81" y2="1438.26" style="stroke:#F0F0F0;stroke-width:9.72"/>
	<line x1="483.81" y1="1405.86" x2="483.81" y2="1341.06" style="stroke:#F0F0F0;stroke-width:9.72"/>
	<line x1="483.81" y1="1308.66" x2="483.81" y2="1243.86" style="stroke:#F0F0F0;stroke-width:9.72"/>
	<line x1="483.81" y1="1211.46" x2="483.81" y2="1146.66" style="stroke:#F0F0F0;stroke-width:9.72"/>
	<line x1="483.81" y1="1114.26" x2="483.81" y2="1049.46" style="stroke:#F0F0F0;stroke-width:9.72"/>
	<line x1="483.81" y1="1017.06" x2="483.81" y2="952.26" style="stroke:#F0F0F0;stroke-width:9.72"/>
	<line x1="483.81" y1="919.86" x2="483.81" y2="855.06" style="stroke:#F0F0F0;stroke-width:9.72"/>
	<line x1="483.81" y1="822.66" x2="483.81" y2="757.86" style="stroke:#F0F0F0;stroke-width:9.72"/>
	<line x1="483.81" y1="725.46" x2="483.81" y2="660.66" style="stroke:#F0F0F0;stroke-width:9.72"/>
	<line x1="483.81" y1="628.26" x2="483.81" y2="563.46" style="stroke:#F0F0F0;stroke-width:9.72"/>
	<line x1="483.81" y1="531.06" x2="483.81" y2="466.26" style="stroke:#F0F0F0;stroke-width:9.72"/>
	<line x1="483.81" y1="433.86" x2="483.81" y2="369.06" style="stroke:#F0F0F0;stroke-width:9.72"/>
	<line x1="483.81" y1="336.66" x2="483.81" y2="271.86" style="stroke:#F0F0F0;stroke-width:9.72"/>
	<line x1="483.81" y1="239.46" x2="483.81" y2="174.66" style="stroke:#F0F0F0;stroke-width:9.72"/>
	<line x1="483.81" y1="142.26" x2="483.81" y2="113.40" style="stroke:#F0F0F0;stroke-width:9.72"/>
	<line x1="1753.65" y1="2766.66" x2="1753.65" y2="2701.86" style="stroke:#F0F0F0;stroke-width:9.72"/>
	<line x1="1753.65" y1="2669.46" x2="1753.65" y2="2604.66" style="stroke:#F0F0F0;stroke-width:9.72"/>
	<line x1="1753.65" y1="2572.26" x2="1753.65" y2="2507.46" style="stroke:#F0F0F0;stroke-width:9.72"/>
	<line x1="1753.65" y1="2475.06" x2="1753.65" y2="2410.26" style="stroke:#F0F0F0;stroke-width:9.72"/>
	<line x1="1753.65" y1="2377.86" x2="1753.65" y2="2313.06" style="stroke:#F0F0F0;stroke-width:9.72"/>
	<line x1="1753.65" y1="2280.66" x2="1753.65" y2="2215.86" style="stroke:#F0F0F0;stroke-width:9.72"/>
	<line x1="1753.65" y1="2183.46" x2="1753.65" y2="2118.66" style="stroke:#F0F0F0;stroke-width:9.72"/>
	<line x1="1753.65" y1="2086.26" x2="1753.65" y2="2021.46" style="stroke:#F0F0F0;stroke-width:9.72"/>
	<line x1="1753.65" y1="1989.06" x2="1753.65" y2="1924.26" style="stroke:#F0F0F0;stroke-width:9.72"/>
	<line x1="1753.65" y1="1891.86" x2="1753.65" y2="1827.06" style="stroke:#F0F0F0;stroke-width:9.72"/>
	<line x1="1753.65" y1="1794.66" x2="1753.65" y2="1729.86" style="stroke:#F0F0F0;stroke-width:9.72"/>
	<line x1="1753.65" y1="1697.46" x2="1753.65" y2="1632.66" style="stroke:#F0F0F0;stroke-width:9.72"/>
	<line x1="1753.65" y1="1600.26" x2="1753.65" y2="1535.46" style="stroke:#F0F0F0;stroke-width:9.72"/>
	<line x1="1753.65" y1="1503.06" x2="1753.65" y2="1438.26" style="stroke:#F0F0F0;stroke-width:9.72"/>
	<line x1="1753.65" y1="1405.86" x2="1753.65" y2="1341.06" style="stroke:#F0F0F0;stroke-width:9.72"/>
	<line x1="1753.65" y1="1308.66" x2="1753.65" y2="1243.86" style="stroke:#F0F0F0;stroke-width:9.72"/>
	<line x1="1753.65" y1="1211.46" x2="1753.65" y2="1146.66" style="stroke:#F0F0F0;stroke-width:9.72"/>
	<line x1="1753.65" y1="1114.26" x2="1753.65" y2="1049.46" style="stroke:#F0F0F0;stroke-width:9.72"/>
	<line x1="1753.65" y1="1017.06" x2="1753.65" y2="952.26" style="stroke:#F0F0F0;stroke-width:9.72"/>
	<line x1="1753.65" y1="919.86" x2="1753.65" y2="855.06" style="stroke:#F0F0F0;stroke-width:9.72"/>
	<line x1="1753.65" y1="822.66" x2="1753.65" y2="757.86" style="stroke:#F0F0F0;stroke-width:9.72"/>
	<line x1="1753.65" y1="725.46" x2="1753.65" y2="660.66" style="stroke:#F0F0F0;stroke-width:9.72"/>
	<line x1="1753.65" y1="628.26" x2="1753.65" y2="563.46" style="stroke:#F0F0F0;stroke-width:9.72"/>
	<line x1="1753.65" y1="531.06" x2="1753.65" y2="466.26" style="stroke:#F0F0F0;stroke-width:9.72"/>
	<line x1="1753.65" y1="433.86" x2="1753.65" y2="369.06" style="stroke:#F0F0F0;stroke-width:9.72"/>
	<line x1="1753.65" y1="336.66" x2="1753.65" y2="271.86" style="stroke:#F0F0F0;stroke-width:9.72"/>
	<line x1="1753.65" y1="239.46" x2="1753.65" y2="174.66" style="stroke:#F0F0F0;stroke-width:9.72"/>
	<line x1="1753.65" y1="142.26" x2="1753.65" y2="113.40" style="stroke:#F0F0F0;stroke-width:9.72"/>
	<line x1="3023.49" y1="2766.66" x2="3023.49" y2="2701.86" style="stroke:#F0F0F0;stroke-width:9.72"/>
	<line x1="3023.49" y1="2669.46" x2="3023.49" y2="2604.66" style="stroke:#F0F0F0;stroke-width:9.72"/>
	<line x1="3023.49" y1="2572.26" x2="3023.49" y2="2507.46" style="stroke:#F0F0F0;stroke-width:9.72"/>
	<line x1="3023.49" y1="2475.06" x2="3023.49" y2="2410.26" style="stroke:#F0F0F0;stroke-width:9.72"/>
	<line x1="3023.49" y1="2377.86" x2="3023.49" y2="2313.06" style="stroke:#F0F0F0;stroke-width:9.72"/>
	<line x1="3023.49" y1="2280.66" x2="3023.49" y2="2215.86" style="stroke:#F0F0F0;stroke-width:9.72"/>
	<line x1="3023.49" y1="2183.46" x2="3023.49" y2="2118.66" style="stroke:#F0F0F0;stroke-width:9.72"/>
	<line x1="3023.49" y1="2086.26" x2="3023.49" y2="2021.46" style="stroke:#F0F0F0;stroke-width:9.72"/>
	<line x1="3023.49" y1="1989.06" x2="3023.49" y2="1924.26" style="stroke:#F0F0F0;stroke-width:9.72"/>
	<line x1="3023.49" y1="1891.86" x2="3023.49" y2="1827.06" style="stroke:#F0F0F0;stroke-width:9.72"/>
	<line x1="3023.49" y1="1794.66" x2="3023.49" y2="1729.86" style="stroke:#F0F0F0;stroke-width:9.72"/>
	<line x1="3023.49" y1="1697.46" x2="3023.49" y2="1632.66" style="stroke:#F0F0F0;stroke-width:9.72"/>
	<line x1="3023.49" y1="1600.26" x2="3023.49" y2="1535.46" style="stroke:#F0F0F0;stroke-width:9.72"/>
	<line x1="3023.49" y1="1503.06" x2="3023.49" y2="1438.26" style="stroke:#F0F0F0;stroke-width:9.72"/>
	<line x1="3023.49" y1="1405.86" x2="3023.49" y2="1341.06" style="stroke:#F0F0F0;stroke-width:9.72"/>
	<line x1="3023.49" y1="1308.66" x2="3023.49" y2="1243.86" style="stroke:#F0F0F0;stroke-width:9.72"/>
	<line x1="3023.49" y1="1211.46" x2="3023.49" y2="1146.66" style="stroke:#F0F0F0;stroke-width:9.72"/>
	<line x1="3023.49" y1="1114.26" x2="3023.49" y2="1049.46" style="stroke:#F0F0F0;stroke-width:9.72"/>
	<line x1="3023.49" y1="1017.06" x2="3023.49" y2="952.26" style="stroke:#F0F0F0;stroke-width:9.72"/>
	<line x1="3023.49" y1="919.86" x2="3023.49" y2="855.06" style="stroke:#F0F0F0;stroke-width:9.72"/>
	<line x1="3023.49" y1="822.66" x2="3023.49" y2="757.86" style="stroke:#F0F0F0;stroke-width:9.72"/>
	<line x1="3023.49" y1="725.46" x2="3023.49" y2="660.66" style="stroke:#F0F0F0;stroke-width:9.72"/>
	<line x1="3023.49" y1="628.26" x2="3023.49" y2="563.46" style="stroke:#F0F0F0;stroke-width:9.72"/>
	<line x1="3023.49" y1="531.06" x2="3023.49" y2="466.26" style="stroke:#F0F0F0;stroke-width:9.72"/>
	<line x1="3023.49" y1="433.86" x2="3023.49" y2="369.06" style="stroke:#F0F0F0;stroke-width:9.72"/>
	<line x1="3023.49" y1="336.66" x2="3023.49" y2="271.86" style="stroke:#F0F0F0;stroke-width:9.72"/>
	<line x1="3023.49" y1="239.46" x2="3023.49" y2="174.66" style="stroke:#F0F0F0;stroke-width:9.72"/>
	<line x1="3023.49" y1="142.26" x2="3023.49" y2="113.40" style="stroke:#F0F0F0;stroke-width:9.72"/>
	<line x1="4293.34" y1="2766.66" x2="4293.34" y2="2701.86" style="stroke:#F0F0F0;stroke-width:9.72"/>
	<line x1="4293.34" y1="2669.46" x2="4293.34" y2="2604.66" style="stroke:#F0F0F0;stroke-width:9.72"/>
	<line x1="4293.34" y1="2572.26" x2="4293.34" y2="2507.46" style="stroke:#F0F0F0;stroke-width:9.72"/>
	<line x1="4293.34" y1="2475.06" x2="4293.34" y2="2410.26" style="stroke:#F0F0F0;stroke-width:9.72"/>
	<line x1="4293.34" y1="2377.86" x2="4293.34" y2="2313.06" style="stroke:#F0F0F0;stroke-width:9.72"/>
	<line x1="4293.34" y1="2280.66" x2="4293.34" y2="2215.86" style="stroke:#F0F0F0;stroke-width:9.72"/>
	<line x1="4293.34" y1="2183.46" x2="4293.34" y2="2118.66" style="stroke:#F0F0F0;stroke-width:9.72"/>
	<line x1="4293.34" y1="2086.26" x2="4293.34" y2="2021.46" style="stroke:#F0F0F0;stroke-width:9.72"/>
	<line x1="4293.34" y1="1989.06" x2="4293.34" y2="1924.26" style="stroke:#F0F0F0;stroke-width:9.72"/>
	<line x1="4293.34" y1="1891.86" x2="4293.34" y2="1827.06" style="stroke:#F0F0F0;stroke-width:9.72"/>
	<line x1="4293.34" y1="1794.66" x2="4293.34" y2="1729.86" style="stroke:#F0F0F0;stroke-width:9.72"/>
	<line x1="4293.34" y1="1697.46" x2="4293.34" y2="1632.66" style="stroke:#F0F0F0;stroke-width:9.72"/>
	<line x1="4293.34" y1="1600.26" x2="4293.34" y2="1535.46" style="stroke:#F0F0F0;stroke-width:9.72"/>
	<line x1="4293.34" y1="1503.06" x2="4293.34" y2="1438.26" style="stroke:#F0F0F0;stroke-width:9.72"/>
	<line x1="4293.34" y1="1405.86" x2="4293.34" y2="1341.06" style="stroke:#F0F0F0;stroke-width:9.72"/>
	<line x1="4293.34" y1="1308.66" x2="4293.34" y2="1243.86" style="stroke:#F0F0F0;stroke-width:9.72"/>
	<line x1="4293.34" y1="1211.46" x2="4293.34" y2="1146.66" style="stroke:#F0F0F0;stroke-width:9.72"/>
	<line x1="4293.34" y1="1114.26" x2="4293.34" y2="1049.46" style="stroke:#F0F0F0;stroke-width:9.72"/>
	<line x1="4293.34" y1="1017.06" x2="4293.34" y2="952.26" style="stroke:#F0F0F0;stroke-width:9.72"/>
	<line x1="4293.34" y1="919.86" x2="4293.34" y2="855.06" style="stroke:#F0F0F0;stroke-width:9.72"/>
	<line x1="4293.34" y1="822.66" x2="4293.34" y2="757.86" style="stroke:#F0F0F0;stroke-width:9.72"/>
	<line x1="4293.34" y1="725.46" x2="4293.34" y2="660.66" style="stroke:#F0F0F0;stroke-width:9.72"/>
	<line x1="4293.34" y1="628.26" x2="4293.34" y2="563.46" style="stroke:#F0F0F0;stroke-width:9.72"/>
	<line x1="4293.34" y1="531.06" x2="4293.34" y2="466.26" style="stroke:#F0F0F0;stroke-width:9.72"/>
	<line x1="4293.34" y1="433.86" x2="4293.34" y2="369.06" style="stroke:#F0F0F0;stroke-width:9.72"/>
	<line x1="4293.34" y1="336.66" x2="4293.34" y2="271.86" style="stroke:#F0F0F0;stroke-width:9.72"/>
	<line x1="4293.34" y1="239.46" x2="4293.34" y2="174.66" style="stroke:#F0F0F0;stroke-width:9.72"/>
	<line x1="4293.34" y1="142.26" x2="4293.34" y2="113.40" style="stroke:#F0F0F0;stroke-width:9.72"/>
	<line x1="3023.49" y1="2766.66" x2="3023.49" y2="2701.86" style="stroke:#000000;stroke-width:9.72"/>
	<line x1="3023.49" y1="2669.46" x2="3023.49" y2="2604.66" style="stroke:#000000;stroke-width:9.72"/>
	<line x1="3023.49" y1="2572.26" x2="3023.49" y2="2507.46" style="stroke:#000000;stroke-width:9.72"/>
	<line x1="3023.49" y1="2475.06" x2="3023.49" y2="2410.26" style="stroke:#000000;stroke-width:9.72"/>
	<line x1="3023.49" y1="2377.86" x2="3023.49" y2="2313.06" style="stroke:#000000;stroke-width:9.72"/>
	<line x1="3023.49" y1="2280.66" x2="3023.49" y2="2215.86" style="stroke:#000000;stroke-width:9.72"/>
	<line x1="3023.49" y1="2183.46" x2="3023.49" y2="2118.66" style="stroke:#000000;stroke-width:9.72"/>
	<line x1="3023.49" y1="2086.26" x2="3023.49" y2="2021.46" style="stroke:#000000;stroke-width:9.72"/>
	<line x1="3023.49" y1="1989.06" x2="3023.49" y2="1924.26" style="stroke:#000000;stroke-width:9.72"/>
	<line x1="3023.49" y1="1891.86" x2="3023.49" y2="1827.06" style="stroke:#000000;stroke-width:9.72"/>
	<line x1="3023.49" y1="1794.66" x2="3023.49" y2="1729.86" style="stroke:#000000;stroke-width:9.72"/>
	<line x1="3023.49" y1="1697.46" x2="3023.49" y2="1632.66" style="stroke:#000000;stroke-width:9.72"/>
	<line x1="3023.49" y1="1600.26" x2="3023.49" y2="1535.46" style="stroke:#000000;stroke-width:9.72"/>
	<line x1="3023.49" y1="1503.06" x2="3023.49" y2="1438.26" style="stroke:#000000;stroke-width:9.72"/>
	<line x1="3023.49" y1="1405.86" x2="3023.49" y2="1341.06" style="stroke:#000000;stroke-width:9.72"/>
	<line x1="3023.49" y1="1308.66" x2="3023.49" y2="1243.86" style="stroke:#000000;stroke-width:9.72"/>
	<line x1="3023.49" y1="1211.46" x2="3023.49" y2="1146.66" style="stroke:#000000;stroke-width:9.72"/>
	<line x1="3023.49" y1="1114.26" x2="3023.49" y2="1049.46" style="stroke:#000000;stroke-width:9.72"/>
	<line x1="3023.49" y1="1017.06" x2="3023.49" y2="952.26" style="stroke:#000000;stroke-width:9.72"/>
	<line x1="3023.49" y1="919.86" x2="3023.49" y2="855.06" style="stroke:#000000;stroke-width:9.72"/>
	<line x1="3023.49" y1="822.66" x2="3023.49" y2="757.86" style="stroke:#000000;stroke-width:9.72"/>
	<line x1="3023.49" y1="725.46" x2="3023.49" y2="660.66" style="stroke:#000000;stroke-width:9.72"/>
	<line x1="3023.49" y1="628.26" x2="3023.49" y2="563.46" style="stroke:#000000;stroke-width:9.72"/>
	<line x1="3023.49" y1="531.06" x2="3023.49" y2="466.26" style="stroke:#000000;stroke-width:9.72"/>
	<line x1="3023.49" y1="433.86" x2="3023.49" y2="369.06" style="stroke:#000000;stroke-width:9.72"/>
	<line x1="3023.49" y1="336.66" x2="3023.49" y2="271.86" style="stroke:#000000;stroke-width:9.72"/>
	<line x1="3023.49" y1="239.46" x2="3023.49" y2="174.66" style="stroke:#000000;stroke-width:9.72"/>
	<line x1="3023.49" y1="142.26" x2="3023.49" y2="113.40" style="stroke:#000000;stroke-width:9.72"/>
	<path d=" M1052.49 2671.14 L1063.13 2671.14 L1073.76 2671.31 L1084.22 2671.48 L1094.85 2671.82 L1105.48 2671.99 L1115.94 2672.49 L1126.58 2673.00 L1137.21 2673.51 L1147.67 2674.01 L1158.30 2674.69 L1168.93 2675.53 L1179.56 2676.38 L1190.03 2677.22 L1200.66 2678.23 L1211.29 2679.24 L1221.75 2680.43 L1232.38 2681.61 L1243.01 2682.79 L1253.47 2684.14 L1264.11 2685.49 L1274.74 2687.01 L1285.20 2688.53 L1295.83 2690.21 L1306.46 2691.90 L1316.93 2693.59 L1327.56 2695.44 L1338.19 2691.73 L1348.65 2686.16 L1359.28 2680.76 L1369.91 2675.36 L1380.54 2670.30 L1391.01 2665.24 L1401.64 2660.34 L1412.27 2655.62 L1422.73 2651.06 L1433.36 2646.68 L1443.99 2642.29 L1454.46 2638.24 L1465.09 2634.19 L1475.72 2630.31 L1486.18 2626.59 L1496.81 2623.05 L1507.44 2619.68 L1517.91 2616.30 L1528.54 2613.09 L1539.17 2610.23 L1549.80 2607.36 L1560.26 2604.66 L1570.89 2601.96 L1581.53 2599.59 L1591.99 2597.40 L1602.62 2595.21 L1613.25 2593.18 L1623.71 2591.32 L1634.34 2589.64 L1644.98 2588.12 L1655.44 2586.60 L1666.07 2585.42 L1676.70 2584.24 L1687.16 2583.23 L1697.79 2582.38 L1708.43 2581.71 L1719.06 2581.03 L1729.52 2580.69 L1740.15 2580.36 L1750.78 2580.19 L1761.24 2580.36 L1771.88 2580.36 L1782.51 2576.81 L1792.97 2569.56 L1803.60 2562.81 L1814.23 2556.06 L1824.69 2549.48 L1835.33 2543.23 L1845.96 2537.16 L1856.42 2528.21 L1867.05 2515.05 L1877.68 2502.23 L1888.31 2489.57 L1898.78 2477.25 L1909.41 2465.10 L1920.04 2453.29 L1930.50 2441.81 L1941.13 2430.68 L1951.76 2419.71 L1962.23 2409.24 L1972.86 2398.78 L1983.49 2388.82 L1993.95 2379.04 L2004.58 2369.59 L2015.21 2360.31 L2025.68 2351.53 L2036.31 2342.93 L2046.94 2334.49 L2057.57 2326.56 L2068.03 2318.79 L2078.66 2311.20 L2089.29 2304.11 L2099.76 2297.19 L2110.39 2290.61 L2121.02 2284.20 L2131.48 2278.29 L2142.11 2272.56 L2152.74 2261.42 L2163.21 2248.59 L2173.84 2236.28 L2184.47 2221.09 L2194.93 2201.68 L2205.56 2182.61 L2216.19 2163.88 L2226.66 2145.32 L2237.29 2127.09 L2247.92 2109.21 L2258.55 2091.66 L2269.01 2074.28 L2279.64 2057.23 L2290.28 2040.36 L2300.74 2023.99 L2311.37 2007.79 L2322.00 1991.76 L2332.46 1976.23 L2343.09 1960.88 L2353.73 1945.69 L2364.19 1931.01 L2374.82 1916.49 L2385.45 1902.32 L2395.91 1888.48 L2406.54 1874.81 L2417.18 1861.48 L2427.81 1848.49 L2438.27 1835.66 L2448.90 1823.18 L2459.53 1811.03 L2469.99 1799.04 L2480.63 1787.40 L2491.26 1776.09 L2501.72 1765.13 L2512.35 1750.95 L2522.98 1726.48 L2533.44 1701.34 L2544.07 1676.53 L2554.71 1652.06 L2565.17 1628.10 L2575.80 1604.64 L2586.43 1581.53 L2597.06 1558.91 L2607.53 1536.64 L2618.16 1514.87 L2628.79 1493.61 L2639.25 1472.68 L2649.88 1452.09 L2660.51 1432.01 L2670.98 1412.44 L2681.61 1393.20 L2692.24 1374.47 L2702.70 1356.08 L2713.33 1338.19 L2723.96 1320.64 L2734.43 1303.59 L2745.06 1287.06 L2755.69 1270.86 L2766.32 1254.99 L2776.78 1239.64 L2787.41 1224.79 L2798.04 1210.28 L2808.51 1196.27 L2819.14 1182.60 L2829.77 1169.44 L2840.23 1156.78 L2850.86 1144.46 L2861.49 1132.48 L2871.96 1121.01 L2882.59 1110.04 L2893.22 1099.41 L2903.68 1089.28 L2914.31 1079.49 L2924.94 1070.21 L2935.58 1061.27 L2946.04 1052.83 L2956.67 1044.73 L2967.30 1037.31 L2977.76 1027.86 L2988.39 1013.68 L2999.03 999.84 L3009.49 986.51 L3020.12 966.77 L3030.75 947.03 L3041.21 927.79 L3051.84 909.06 L3062.48 890.83 L3072.94 873.28 L3083.57 856.41 L3094.20 835.48 L3104.83 812.03 L3115.29 789.24 L3125.93 767.14 L3136.56 745.71 L3147.02 724.95 L3157.65 704.70 L3168.28 685.13 L3178.74 666.22 L3189.38 648.00 L3200.01 630.45 L3210.47 613.41 L3221.10 597.21 L3231.73 581.51 L3242.19 566.49 L3252.83 552.15 L3263.46 538.48 L3273.92 525.32 L3284.55 512.83 L3295.18 501.19 L3305.81 490.05 L3316.28 479.42 L3326.91 469.63 L3337.54 460.52 L3348.00 451.91 L3358.63 443.98 L3369.26 436.72 L3379.73 430.14 L3390.36 424.07 L3400.99 418.84 L3411.45 414.11 L3422.08 410.06 L3432.71 406.69 L3443.18 403.82 L3453.81 401.79 L3464.44 400.28 L3475.07 399.43 L3485.53 399.26 L3496.16 399.77 L3506.79 400.95 L3517.26 402.64 L3527.89 405.17 L3538.52 408.21 L3548.98 411.92 L3559.61 416.31 L3570.24 421.20 L3580.71 426.94 L3591.34 428.96 L3601.97 428.12 L3612.43 427.95 L3623.06 428.29 L3633.69 429.13 L3644.33 430.65 L3654.79 432.84 L3665.42 435.38 L3676.05 438.58 L3686.51 442.46 L3697.14 446.85 L3707.78 451.74 L3718.24 457.31 L3728.87 463.39 L3739.50 470.14 L3749.96 477.39 L3760.59 485.16 L3771.23 493.59 L3781.69 502.54 L3792.32 511.99 L3802.95 522.11 L3813.58 532.74 L3824.04 544.05 L3834.68 555.86 L3845.31 568.35 L3855.77 581.34 L3866.40 594.84 L3877.03 609.02 L3887.49 623.70 L3898.13 638.89 L3908.76 654.75 L3919.22 671.29 L3929.85 688.16 L3940.48 705.88 L3950.94 723.94 L3961.58 742.67 L3972.21 761.91 L3982.84 781.82 L3993.30 802.24 L4003.93 823.33 L4014.56 844.93 L4025.03 867.04 L4035.66 887.12 L4046.29 902.81 L4056.75 918.84 L4067.38 935.38 L4078.01 952.59 L4088.48 970.14 L4099.11 988.37 L4109.74 1005.07 L4120.20 1016.55 L4130.83 1028.36 L4141.46 1040.68 L4151.93 1053.51 L4162.56 1066.50 L4173.19 1080.17 L4183.82 1094.18 L4194.28 1108.52 L4204.91 1123.37 L4215.54 1138.72" stroke-linejoin="round" style="fill:none;stroke:#1A85FF;stroke-width:9.72"/>
	<path d=" M736.26 2640.94 L746.55 2640.94 L756.68 2641.11 L766.80 2641.28 L777.09 2641.61 L787.22 2641.95 L797.51 2642.46 L807.64 2642.96 L817.93 2643.64 L828.06 2644.31 L838.35 2644.99 L848.48 2646.00 L858.77 2646.84 L868.89 2647.86 L879.19 2649.04 L889.31 2650.22 L899.61 2651.57 L909.73 2652.92 L920.03 2654.27 L930.15 2655.79 L940.44 2657.48 L950.57 2659.16 L960.86 2661.02 L970.99 2662.88 L981.28 2664.73 L991.41 2666.76 L1001.70 2668.95 L1011.83 2671.14 L1022.12 2673.34 L1032.24 2675.70 L1042.54 2678.23 L1052.66 2680.76 L1062.96 2680.59 L1073.08 2674.86 L1083.38 2669.29 L1093.50 2663.89 L1103.79 2658.66 L1113.92 2653.43 L1124.21 2648.53 L1134.34 2643.81 L1144.63 2639.25 L1154.76 2634.69 L1165.05 2630.48 L1175.18 2626.43 L1185.30 2622.54 L1195.59 2618.66 L1205.72 2615.12 L1216.01 2611.74 L1226.14 2608.37 L1236.43 2605.33 L1246.56 2602.29 L1256.85 2599.59 L1266.97 2596.89 L1277.27 2594.53 L1287.39 2592.34 L1297.69 2590.14 L1307.81 2588.12 L1318.11 2586.43 L1328.23 2584.74 L1338.53 2583.39 L1348.65 2582.04 L1358.94 2581.03 L1369.07 2580.02 L1379.36 2579.18 L1389.49 2578.67 L1399.78 2578.16 L1409.91 2577.82 L1420.20 2577.66 L1430.33 2577.82 L1440.62 2577.99 L1450.74 2578.33 L1461.04 2578.84 L1471.16 2579.51 L1481.46 2580.53 L1491.58 2581.54 L1501.88 2577.32 L1512.00 2570.40 L1522.29 2563.48 L1532.42 2556.90 L1542.71 2550.66 L1552.84 2544.58 L1563.13 2536.82 L1573.26 2522.81 L1583.38 2509.14 L1593.68 2495.81 L1603.80 2482.82 L1614.09 2470.16 L1624.22 2457.84 L1634.51 2445.69 L1644.64 2434.05 L1654.93 2422.74 L1665.06 2411.61 L1675.35 2400.98 L1685.48 2390.51 L1695.77 2380.56 L1705.89 2370.77 L1716.19 2361.49 L1726.31 2352.38 L1736.61 2343.60 L1746.73 2335.33 L1757.03 2327.23 L1767.15 2319.47 L1777.44 2312.04 L1787.57 2303.61 L1797.86 2288.25 L1807.99 2273.23 L1818.28 2258.38 L1828.41 2243.87 L1838.70 2229.53 L1848.83 2215.52 L1859.12 2193.24 L1869.24 2171.31 L1879.54 2149.71 L1889.66 2128.44 L1899.96 2107.35 L1910.08 2086.76 L1920.38 2066.51 L1930.50 2046.60 L1940.79 2026.86 L1950.92 2007.62 L1961.21 1988.72 L1971.34 1969.99 L1981.46 1951.76 L1991.76 1933.71 L2001.88 1916.16 L2012.18 1898.78 L2022.30 1881.73 L2032.59 1865.19 L2042.72 1848.83 L2053.01 1832.79 L2063.14 1817.10 L2073.43 1801.91 L2083.56 1786.89 L2093.85 1772.21 L2103.98 1757.87 L2114.27 1743.86 L2124.39 1730.19 L2134.69 1716.86 L2144.81 1703.87 L2155.11 1691.21 L2165.23 1678.73 L2175.53 1666.74 L2185.65 1655.10 L2195.94 1638.90 L2206.07 1617.81 L2216.36 1590.30 L2226.49 1563.30 L2236.78 1536.81 L2246.91 1510.82 L2257.20 1485.34 L2267.32 1460.36 L2277.62 1435.89 L2287.74 1411.93 L2298.04 1388.31 L2308.16 1365.36 L2318.46 1342.74 L2328.58 1320.81 L2338.88 1299.21 L2349.00 1278.28 L2359.29 1257.69 L2369.42 1237.61 L2379.71 1218.04 L2389.84 1199.14 L2399.96 1180.57 L2410.26 1162.52 L2420.38 1144.97 L2430.68 1127.93 L2440.80 1111.39 L2451.09 1095.19 L2461.22 1079.66 L2471.51 1064.64 L2481.64 1049.96 L2491.93 1035.96 L2502.06 1022.46 L2512.35 1009.29 L2522.48 996.64 L2532.77 984.66 L2542.89 973.01 L2553.19 961.88 L2563.31 951.41 L2573.61 941.29 L2583.73 931.67 L2594.03 922.56 L2604.15 913.95 L2614.44 902.47 L2624.57 886.44 L2634.86 871.09 L2644.99 856.07 L2655.28 839.70 L2665.41 817.59 L2675.70 795.99 L2685.83 775.07 L2696.12 754.99 L2706.24 735.41 L2716.54 716.51 L2726.66 698.29 L2736.96 680.74 L2747.08 656.78 L2757.38 632.14 L2767.50 608.34 L2777.79 585.22 L2787.92 562.78 L2798.04 541.18 L2808.34 520.26 L2818.46 500.01 L2828.76 480.60 L2838.88 461.87 L2849.18 443.98 L2859.30 426.77 L2869.59 410.40 L2879.72 394.71 L2890.01 379.69 L2900.14 365.51 L2910.43 352.18 L2920.56 339.36 L2930.85 327.38 L2940.98 316.24 L2951.27 305.78 L2961.39 295.99 L2971.69 287.04 L2981.81 278.78 L2992.11 271.18 L3002.23 264.43 L3012.53 258.53 L3022.65 253.29 L3032.94 248.74 L3043.07 245.03 L3053.36 241.99 L3063.49 239.63 L3073.78 238.11 L3083.91 237.26 L3094.20 237.26 L3104.33 237.94 L3114.62 239.46 L3124.74 241.65 L3135.04 244.52 L3145.16 248.23 L3155.46 252.62 L3165.58 252.11 L3175.88 249.41 L3186.00 247.39 L3196.13 246.04 L3206.42 245.36 L3216.54 245.19 L3226.84 245.87 L3236.96 247.22 L3247.26 249.07 L3257.38 251.78 L3267.68 254.98 L3277.80 258.86 L3288.09 263.42 L3298.22 268.82 L3308.51 274.72 L3318.64 281.31 L3328.93 288.56 L3339.06 296.32 L3349.35 304.93 L3359.48 314.21 L3369.77 324.00 L3379.89 334.63 L3390.19 345.77 L3400.31 357.75 L3410.61 370.24 L3420.73 383.40 L3431.03 397.24 L3441.15 411.75 L3451.44 426.94 L3461.57 442.80 L3471.86 459.34 L3481.99 476.55 L3492.28 494.44 L3502.41 512.83 L3512.70 532.07 L3522.83 551.81 L3533.12 572.40 L3543.24 593.49 L3553.54 615.26 L3563.66 637.71 L3573.96 660.82 L3584.08 684.62 L3594.38 709.09 L3604.50 725.96 L3614.63 743.18 L3624.92 760.89 L3635.04 779.12 L3645.34 798.02 L3655.46 817.43 L3665.76 832.61 L3675.88 844.76 L3686.18 857.25 L3696.30 870.24 L3706.59 883.74 L3716.72 897.75 L3727.01 912.26 L3737.14 927.28 L3747.43 942.81 L3757.56 958.84 L3767.85 975.21 L3777.98 992.25 L3788.27 1009.80" stroke-linejoin="round" style="fill:none;stroke:#D41159;stroke-width:9.72"/>
	<line x1="412.59" y1="2766.66" x2="412.59" y2="113.40" style="stroke:#000000;stroke-width:6.48"/>
	<line x1="412.59" y1="2596.22" x2="367.54" y2="2596.22" style="stroke:#000000;stroke-width:6.48"/>
	<text x="345.09" y="2635.66" style="font-family:'Helvetica';font-size:112.56px;fill:#000000" text-anchor="end">2</text>
	<line x1="412.59" y1="2113.93" x2="367.54" y2="2113.93" style="stroke:#000000;stroke-width:6.48"/>
	<text x="345.09" y="2153.37" style="font-family:'Helvetica';font-size:112.56px;fill:#000000" text-anchor="end">4</text>
	<line x1="412.59" y1="1631.64" x2="367.54" y2="1631.64" style="stroke:#000000;stroke-width:6.48"/>
	<text x="345.09" y="1671.08" style="font-family:'Helvetica';font-size:112.56px;fill:#000000" text-anchor="end">6</text>
	<line x1="412.59" y1="1149.36" x2="367.54" y2="1149.36" style="stroke:#000000;stroke-width:6.48"/>
	<text x="345.09" y="1188.79" style="font-family:'Helvetica';font-size:112.56px;fill:#000000" text-anchor="end">8</text>
	<line x1="412.59" y1="666.90" x2="367.54" y2="666.90" style="stroke:#000000;stroke-width:6.48"/>
	<text x="345.09" y="706.34" style="font-family:'Helvetica';font-size:112.56px;fill:#000000" text-anchor="end">10</text>
	<line x1="412.59" y1="184.61" x2="367.54" y2="184.61" style="stroke:#000000;stroke-width:6.48"/>
	<text x="345.09" y="224.05" style="font-family:'Helvetica';font-size:112.56px;fill:#000000" text-anchor="end">12</text>
	<line x1="412.59" y1="2766.66" x2="4364.72" y2="2766.66" style="stroke:#000000;stroke-width:6.48"/>
	<line x1="483.81" y1="2766.66" x2="483.81" y2="2811.54" style="stroke:#000000;stroke-width:6.48"/>
	<text x="483.81" y="2912.86" style="font-family:'Helvetica';font-size:112.56px;fill:#000000" text-anchor="middle">.3</text>
	<line x1="1753.65" y1="2766.66" x2="1753.65" y2="2811.54" style="stroke:#000000;stroke-width:6.48"/>
	<text x="1753.65" y="2912.86" style="font-family:'Helvetica';font-size:112.56px;fill:#000000" text-anchor="middle">.35</text>
	<line x1="3023.49" y1="2766.66" x2="3023.49" y2="2811.54" style="stroke:#000000;stroke-width:6.48"/>
	<text x="3023.49" y="2912.86" style="font-family:'Helvetica';font-size:112.56px;fill:#000000" text-anchor="middle">.4</text>
	<line x1="4293.34" y1="2766.66" x2="4293.34" y2="2811.54" style="stroke:#000000;stroke-width:6.48"/>
	<text x="4293.34" y="2912.86" style="font-family:'Helvetica';font-size:112.56px;fill:#000000" text-anchor="middle">.45</text>
	<text x="2388.66" y="3070.31" style="font-family:'Helvetica';font-size:112.56px;fill:#000000" text-anchor="middle">x</text>
	<rect x="4403.53" y="1256.34" width="844.26" height="367.20" style="fill:#FFFFFF"/>
	<rect x="4406.77" y="1259.58" width="837.78" height="360.72" style="fill:none;stroke:#FFFFFF;stroke-width:6.48"/>
	<line x1="4452.13" y1="1361.31" x2="4711.33" y2="1361.31" style="stroke:#1A85FF;stroke-width:9.72"/>
	<line x1="4452.13" y1="1518.75" x2="4711.33" y2="1518.75" style="stroke:#D41159;stroke-width:9.72"/>
	<text x="4778.83" y="1400.74" style="font-family:'Helvetica';font-size:112.56px;fill:#000000">Logistic</text>
	<text x="4778.83" y="1558.19" style="font-family:'Helvetica';font-size:112.56px;fill:#000000">Poisson</text>
</svg>
