<?xml version="1.0" encoding="UTF-8" standalone="no"?>
<!-- This is a Stata 18.0 generated SVG file (http://www.stata.com) -->

<svg version="1.1" width="7.500in" height="4.500in" viewBox="0 0 5400 3240" xmlns="http://www.w3.org/2000/svg" xmlns:xlink="http://www.w3.org/1999/xlink">
	<desc>Stata Graph - Graph</desc>
	<rect x="0" y="0" width="5400" height="3240" style="fill:#FFFFFF;stroke:none"/>
	<rect x="0.00" y="0.00" width="5400.00" height="3240.00" style="fill:#FFFFFF"/>
	<rect x="3.24" y="3.24" width="5393.52" height="3233.52" style="fill:none;stroke:#FFFFFF;stroke-width:6.48"/>
	<rect x="346.44" y="113.40" width="4026.21" height="2653.26" style="fill:#FFFFFF"/>
	<rect x="349.68" y="116.64" width="4019.73" height="2646.78" style="fill:none;stroke:#FFFFFF;stroke-width:6.48"/>
	<line x1="346.44" y1="2695.28" x2="411.24" y2="2695.28" style="stroke:#F0F0F0;stroke-width:9.72"/>
	<line x1="443.64" y1="2695.28" x2="508.44" y2="2695.28" style="stroke:#F0F0F0;stroke-width:9.72"/>
	<line x1="540.84" y1="2695.28" x2="605.64" y2="2695.28" style="stroke:#F0F0F0;stroke-width:9.72"/>
	<line x1="638.04" y1="2695.28" x2="702.84" y2="2695.28" style="stroke:#F0F0F0;stroke-width:9.72"/>
	<line x1="735.24" y1="2695.28" x2="800.04" y2="2695.28" style="stroke:#F0F0F0;stroke-width:9.72"/>
	<line x1="832.44" y1="2695.28" x2="897.24" y2="2695.28" style="stroke:#F0F0F0;stroke-width:9.72"/>
	<line x1="929.64" y1="2695.28" x2="994.44" y2="2695.28" style="stroke:#F0F0F0;stroke-width:9.72"/>
	<line x1="1026.84" y1="2695.28" x2="1091.64" y2="2695.28" style="stroke:#F0F0F0;stroke-width:9.72"/>
	<line x1="1124.04" y1="2695.28" x2="1188.84" y2="2695.28" style="stroke:#F0F0F0;stroke-width:9.72"/>
	<line x1="1221.24" y1="2695.28" x2="1286.04" y2="2695.28" style="stroke:#F0F0F0;stroke-width:9.72"/>
	<line x1="1318.44" y1="2695.28" x2="1383.24" y2="2695.28" style="stroke:#F0F0F0;stroke-width:9.72"/>
	<line x1="1415.64" y1="2695.28" x2="1480.44" y2="2695.28" style="stroke:#F0F0F0;stroke-width:9.72"/>
	<line x1="1512.84" y1="2695.28" x2="1577.64" y2="2695.28" style="stroke:#F0F0F0;stroke-width:9.72"/>
	<line x1="1610.04" y1="2695.28" x2="1674.84" y2="2695.28" style="stroke:#F0F0F0;stroke-width:9.72"/>
	<line x1="1707.24" y1="2695.28" x2="1772.04" y2="2695.28" style="stroke:#F0F0F0;stroke-width:9.72"/>
	<line x1="1804.44" y1="2695.28" x2="1869.24" y2="2695.28" style="stroke:#F0F0F0;stroke-width:9.72"/>
	<line x1="1901.64" y1="2695.28" x2="1966.44" y2="2695.28" style="stroke:#F0F0F0;stroke-width:9.72"/>
	<line x1="1998.84" y1="2695.28" x2="2063.64" y2="2695.28" style="stroke:#F0F0F0;stroke-width:9.72"/>
	<line x1="2096.04" y1="2695.28" x2="2160.84" y2="2695.28" style="stroke:#F0F0F0;stroke-width:9.72"/>
	<line x1="2193.24" y1="2695.28" x2="2258.04" y2="2695.28" style="stroke:#F0F0F0;stroke-width:9.72"/>
	<line x1="2290.44" y1="2695.28" x2="2355.24" y2="2695.28" style="stroke:#F0F0F0;stroke-width:9.72"/>
	<line x1="2387.64" y1="2695.28" x2="2452.44" y2="2695.28" style="stroke:#F0F0F0;stroke-width:9.72"/>
	<line x1="2484.84" y1="2695.28" x2="2549.64" y2="2695.28" style="stroke:#F0F0F0;stroke-width:9.72"/>
	<line x1="2582.04" y1="2695.28" x2="2646.84" y2="2695.28" style="stroke:#F0F0F0;stroke-width:9.72"/>
	<line x1="2679.24" y1="2695.28" x2="2744.04" y2="2695.28" style="stroke:#F0F0F0;stroke-width:9.72"/>
	<line x1="2776.44" y1="2695.28" x2="2841.24" y2="2695.28" style="stroke:#F0F0F0;stroke-width:9.72"/>
	<line x1="2873.64" y1="2695.28" x2="2938.44" y2="2695.28" style="stroke:#F0F0F0;stroke-width:9.72"/>
	<line x1="2970.84" y1="2695.28" x2="3035.64" y2="2695.28" style="stroke:#F0F0F0;stroke-width:9.72"/>
	<line x1="3068.04" y1="2695.28" x2="3132.84" y2="2695.28" style="stroke:#F0F0F0;stroke-width:9.72"/>
	<line x1="3165.24" y1="2695.28" x2="3230.04" y2="2695.28" style="stroke:#F0F0F0;stroke-width:9.72"/>
	<line x1="3262.44" y1="2695.28" x2="3327.24" y2="2695.28" style="stroke:#F0F0F0;stroke-width:9.72"/>
	<line x1="3359.64" y1="2695.28" x2="3424.44" y2="2695.28" style="stroke:#F0F0F0;stroke-width:9.72"/>
	<line x1="3456.84" y1="2695.28" x2="3521.64" y2="2695.28" style="stroke:#F0F0F0;stroke-width:9.72"/>
	<line x1="3554.04" y1="2695.28" x2="3618.84" y2="2695.28" style="stroke:#F0F0F0;stroke-width:9.72"/>
	<line x1="3651.24" y1="2695.28" x2="3716.04" y2="2695.28" style="stroke:#F0F0F0;stroke-width:9.72"/>
	<line x1="3748.44" y1="2695.28" x2="3813.24" y2="2695.28" style="stroke:#F0F0F0;stroke-width:9.72"/>
	<line x1="3845.64" y1="2695.28" x2="3910.44" y2="2695.28" style="stroke:#F0F0F0;stroke-width:9.72"/>
	<line x1="3942.84" y1="2695.28" x2="4007.64" y2="2695.28" style="stroke:#F0F0F0;stroke-width:9.72"/>
	<line x1="4040.04" y1="2695.28" x2="4104.84" y2="2695.28" style="stroke:#F0F0F0;stroke-width:9.72"/>
	<line x1="4137.24" y1="2695.28" x2="4202.04" y2="2695.28" style="stroke:#F0F0F0;stroke-width:9.72"/>
	<line x1="4234.44" y1="2695.28" x2="4299.24" y2="2695.28" style="stroke:#F0F0F0;stroke-width:9.72"/>
	<line x1="4331.64" y1="2695.28" x2="4372.65" y2="2695.28" style="stroke:#F0F0F0;stroke-width:9.72"/>
	<line x1="346.44" y1="2067.69" x2="411.24" y2="2067.69" style="stroke:#F0F0F0;stroke-width:9.72"/>
	<line x1="443.64" y1="2067.69" x2="508.44" y2="2067.69" style="stroke:#F0F0F0;stroke-width:9.72"/>
	<line x1="540.84" y1="2067.69" x2="605.64" y2="2067.69" style="stroke:#F0F0F0;stroke-width:9.72"/>
	<line x1="638.04" y1="2067.69" x2="702.84" y2="2067.69" style="stroke:#F0F0F0;stroke-width:9.72"/>
	<line x1="735.24" y1="2067.69" x2="800.04" y2="2067.69" style="stroke:#F0F0F0;stroke-width:9.72"/>
	<line x1="832.44" y1="2067.69" x2="897.24" y2="2067.69" style="stroke:#F0F0F0;stroke-width:9.72"/>
	<line x1="929.64" y1="2067.69" x2="994.44" y2="2067.69" style="stroke:#F0F0F0;stroke-width:9.72"/>
	<line x1="1026.84" y1="2067.69" x2="1091.64" y2="2067.69" style="stroke:#F0F0F0;stroke-width:9.72"/>
	<line x1="1124.04" y1="2067.69" x2="1188.84" y2="2067.69" style="stroke:#F0F0F0;stroke-width:9.72"/>
	<line x1="1221.24" y1="2067.69" x2="1286.04" y2="2067.69" style="stroke:#F0F0F0;stroke-width:9.72"/>
	<line x1="1318.44" y1="2067.69" x2="1383.24" y2="2067.69" style="stroke:#F0F0F0;stroke-width:9.72"/>
	<line x1="1415.64" y1="2067.69" x2="1480.44" y2="2067.69" style="stroke:#F0F0F0;stroke-width:9.72"/>
	<line x1="1512.84" y1="2067.69" x2="1577.64" y2="2067.69" style="stroke:#F0F0F0;stroke-width:9.72"/>
	<line x1="1610.04" y1="2067.69" x2="1674.84" y2="2067.69" style="stroke:#F0F0F0;stroke-width:9.72"/>
	<line x1="1707.24" y1="2067.69" x2="1772.04" y2="2067.69" style="stroke:#F0F0F0;stroke-width:9.72"/>
	<line x1="1804.44" y1="2067.69" x2="1869.24" y2="2067.69" style="stroke:#F0F0F0;stroke-width:9.72"/>
	<line x1="1901.64" y1="2067.69" x2="1966.44" y2="2067.69" style="stroke:#F0F0F0;stroke-width:9.72"/>
	<line x1="1998.84" y1="2067.69" x2="2063.64" y2="2067.69" style="stroke:#F0F0F0;stroke-width:9.72"/>
	<line x1="2096.04" y1="2067.69" x2="2160.84" y2="2067.69" style="stroke:#F0F0F0;stroke-width:9.72"/>
	<line x1="2193.24" y1="2067.69" x2="2258.04" y2="2067.69" style="stroke:#F0F0F0;stroke-width:9.72"/>
	<line x1="2290.44" y1="2067.69" x2="2355.24" y2="2067.69" style="stroke:#F0F0F0;stroke-width:9.72"/>
	<line x1="2387.64" y1="2067.69" x2="2452.44" y2="2067.69" style="stroke:#F0F0F0;stroke-width:9.72"/>
	<line x1="2484.84" y1="2067.69" x2="2549.64" y2="2067.69" style="stroke:#F0F0F0;stroke-width:9.72"/>
	<line x1="2582.04" y1="2067.69" x2="2646.84" y2="2067.69" style="stroke:#F0F0F0;stroke-width:9.72"/>
	<line x1="2679.24" y1="2067.69" x2="2744.04" y2="2067.69" style="stroke:#F0F0F0;stroke-width:9.72"/>
	<line x1="2776.44" y1="2067.69" x2="2841.24" y2="2067.69" style="stroke:#F0F0F0;stroke-width:9.72"/>
	<line x1="2873.64" y1="2067.69" x2="2938.44" y2="2067.69" style="stroke:#F0F0F0;stroke-width:9.72"/>
	<line x1="2970.84" y1="2067.69" x2="3035.64" y2="2067.69" style="stroke:#F0F0F0;stroke-width:9.72"/>
	<line x1="3068.04" y1="2067.69" x2="3132.84" y2="2067.69" style="stroke:#F0F0F0;stroke-width:9.72"/>
	<line x1="3165.24" y1="2067.69" x2="3230.04" y2="2067.69" style="stroke:#F0F0F0;stroke-width:9.72"/>
	<line x1="3262.44" y1="2067.69" x2="3327.24" y2="2067.69" style="stroke:#F0F0F0;stroke-width:9.72"/>
	<line x1="3359.64" y1="2067.69" x2="3424.44" y2="2067.69" style="stroke:#F0F0F0;stroke-width:9.72"/>
	<line x1="3456.84" y1="2067.69" x2="3521.64" y2="2067.69" style="stroke:#F0F0F0;stroke-width:9.72"/>
	<line x1="3554.04" y1="2067.69" x2="3618.84" y2="2067.69" style="stroke:#F0F0F0;stroke-width:9.72"/>
	<line x1="3651.24" y1="2067.69" x2="3716.04" y2="2067.69" style="stroke:#F0F0F0;stroke-width:9.72"/>
	<line x1="3748.44" y1="2067.69" x2="3813.24" y2="2067.69" style="stroke:#F0F0F0;stroke-width:9.72"/>
	<line x1="3845.64" y1="2067.69" x2="3910.44" y2="2067.69" style="stroke:#F0F0F0;stroke-width:9.72"/>
	<line x1="3942.84" y1="2067.69" x2="4007.64" y2="2067.69" style="stroke:#F0F0F0;stroke-width:9.72"/>
	<line x1="4040.04" y1="2067.69" x2="4104.84" y2="2067.69" style="stroke:#F0F0F0;stroke-width:9.72"/>
	<line x1="4137.24" y1="2067.69" x2="4202.04" y2="2067.69" style="stroke:#F0F0F0;stroke-width:9.72"/>
	<line x1="4234.44" y1="2067.69" x2="4299.24" y2="2067.69" style="stroke:#F0F0F0;stroke-width:9.72"/>
	<line x1="4331.64" y1="2067.69" x2="4372.65" y2="2067.69" style="stroke:#F0F0F0;stroke-width:9.72"/>
	<line x1="346.44" y1="1439.94" x2="411.24" y2="1439.94" style="stroke:#F0F0F0;stroke-width:9.72"/>
	<line x1="443.64" y1="1439.94" x2="508.44" y2="1439.94" style="stroke:#F0F0F0;stroke-width:9.72"/>
	<line x1="540.84" y1="1439.94" x2="605.64" y2="1439.94" style="stroke:#F0F0F0;stroke-width:9.72"/>
	<line x1="638.04" y1="1439.94" x2="702.84" y2="1439.94" style="stroke:#F0F0F0;stroke-width:9.72"/>
	<line x1="735.24" y1="1439.94" x2="800.04" y2="1439.94" style="stroke:#F0F0F0;stroke-width:9.72"/>
	<line x1="832.44" y1="1439.94" x2="897.24" y2="1439.94" style="stroke:#F0F0F0;stroke-width:9.72"/>
	<line x1="929.64" y1="1439.94" x2="994.44" y2="1439.94" style="stroke:#F0F0F0;stroke-width:9.72"/>
	<line x1="1026.84" y1="1439.94" x2="1091.64" y2="1439.94" style="stroke:#F0F0F0;stroke-width:9.72"/>
	<line x1="1124.04" y1="1439.94" x2="1188.84" y2="1439.94" style="stroke:#F0F0F0;stroke-width:9.72"/>
	<line x1="1221.24" y1="1439.94" x2="1286.04" y2="1439.94" style="stroke:#F0F0F0;stroke-width:9.72"/>
	<line x1="1318.44" y1="1439.94" x2="1383.24" y2="1439.94" style="stroke:#F0F0F0;stroke-width:9.72"/>
	<line x1="1415.64" y1="1439.94" x2="1480.44" y2="1439.94" style="stroke:#F0F0F0;stroke-width:9.72"/>
	<line x1="1512.84" y1="1439.94" x2="1577.64" y2="1439.94" style="stroke:#F0F0F0;stroke-width:9.72"/>
	<line x1="1610.04" y1="1439.94" x2="1674.84" y2="1439.94" style="stroke:#F0F0F0;stroke-width:9.72"/>
	<line x1="1707.24" y1="1439.94" x2="1772.04" y2="1439.94" style="stroke:#F0F0F0;stroke-width:9.72"/>
	<line x1="1804.44" y1="1439.94" x2="1869.24" y2="1439.94" style="stroke:#F0F0F0;stroke-width:9.72"/>
	<line x1="1901.64" y1="1439.94" x2="1966.44" y2="1439.94" style="stroke:#F0F0F0;stroke-width:9.72"/>
	<line x1="1998.84" y1="1439.94" x2="2063.64" y2="1439.94" style="stroke:#F0F0F0;stroke-width:9.72"/>
	<line x1="2096.04" y1="1439.94" x2="2160.84" y2="1439.94" style="stroke:#F0F0F0;stroke-width:9.72"/>
	<line x1="2193.24" y1="1439.94" x2="2258.04" y2="1439.94" style="stroke:#F0F0F0;stroke-width:9.72"/>
	<line x1="2290.44" y1="1439.94" x2="2355.24" y2="1439.94" style="stroke:#F0F0F0;stroke-width:9.72"/>
	<line x1="2387.64" y1="1439.94" x2="2452.44" y2="1439.94" style="stroke:#F0F0F0;stroke-width:9.72"/>
	<line x1="2484.84" y1="1439.94" x2="2549.64" y2="1439.94" style="stroke:#F0F0F0;stroke-width:9.72"/>
	<line x1="2582.04" y1="1439.94" x2="2646.84" y2="1439.94" style="stroke:#F0F0F0;stroke-width:9.72"/>
	<line x1="2679.24" y1="1439.94" x2="2744.04" y2="1439.94" style="stroke:#F0F0F0;stroke-width:9.72"/>
	<line x1="2776.44" y1="1439.94" x2="2841.24" y2="1439.94" style="stroke:#F0F0F0;stroke-width:9.72"/>
	<line x1="2873.64" y1="1439.94" x2="2938.44" y2="1439.94" style="stroke:#F0F0F0;stroke-width:9.72"/>
	<line x1="2970.84" y1="1439.94" x2="3035.64" y2="1439.94" style="stroke:#F0F0F0;stroke-width:9.72"/>
	<line x1="3068.04" y1="1439.94" x2="3132.84" y2="1439.94" style="stroke:#F0F0F0;stroke-width:9.72"/>
	<line x1="3165.24" y1="1439.94" x2="3230.04" y2="1439.94" style="stroke:#F0F0F0;stroke-width:9.72"/>
	<line x1="3262.44" y1="1439.94" x2="3327.24" y2="1439.94" style="stroke:#F0F0F0;stroke-width:9.72"/>
	<line x1="3359.64" y1="1439.94" x2="3424.44" y2="1439.94" style="stroke:#F0F0F0;stroke-width:9.72"/>
	<line x1="3456.84" y1="1439.94" x2="3521.64" y2="1439.94" style="stroke:#F0F0F0;stroke-width:9.72"/>
	<line x1="3554.04" y1="1439.94" x2="3618.84" y2="1439.94" style="stroke:#F0F0F0;stroke-width:9.72"/>
	<line x1="3651.24" y1="1439.94" x2="3716.04" y2="1439.94" style="stroke:#F0F0F0;stroke-width:9.72"/>
	<line x1="3748.44" y1="1439.94" x2="3813.24" y2="1439.94" style="stroke:#F0F0F0;stroke-width:9.72"/>
	<line x1="3845.64" y1="1439.94" x2="3910.44" y2="1439.94" style="stroke:#F0F0F0;stroke-width:9.72"/>
	<line x1="3942.84" y1="1439.94" x2="4007.64" y2="1439.94" style="stroke:#F0F0F0;stroke-width:9.72"/>
	<line x1="4040.04" y1="1439.94" x2="4104.84" y2="1439.94" style="stroke:#F0F0F0;stroke-width:9.72"/>
	<line x1="4137.24" y1="1439.94" x2="4202.04" y2="1439.94" style="stroke:#F0F0F0;stroke-width:9.72"/>
	<line x1="4234.44" y1="1439.94" x2="4299.24" y2="1439.94" style="stroke:#F0F0F0;stroke-width:9.72"/>
	<line x1="4331.64" y1="1439.94" x2="4372.65" y2="1439.94" style="stroke:#F0F0F0;stroke-width:9.72"/>
	<line x1="346.44" y1="812.36" x2="411.24" y2="812.36" style="stroke:#F0F0F0;stroke-width:9.72"/>
	<line x1="443.64" y1="812.36" x2="508.44" y2="812.36" style="stroke:#F0F0F0;stroke-width:9.72"/>
	<line x1="540.84" y1="812.36" x2="605.64" y2="812.36" style="stroke:#F0F0F0;stroke-width:9.72"/>
	<line x1="638.04" y1="812.36" x2="702.84" y2="812.36" style="stroke:#F0F0F0;stroke-width:9.72"/>
	<line x1="735.24" y1="812.36" x2="800.04" y2="812.36" style="stroke:#F0F0F0;stroke-width:9.72"/>
	<line x1="832.44" y1="812.36" x2="897.24" y2="812.36" style="stroke:#F0F0F0;stroke-width:9.72"/>
	<line x1="929.64" y1="812.36" x2="994.44" y2="812.36" style="stroke:#F0F0F0;stroke-width:9.72"/>
	<line x1="1026.84" y1="812.36" x2="1091.64" y2="812.36" style="stroke:#F0F0F0;stroke-width:9.72"/>
	<line x1="1124.04" y1="812.36" x2="1188.84" y2="812.36" style="stroke:#F0F0F0;stroke-width:9.72"/>
	<line x1="1221.24" y1="812.36" x2="1286.04" y2="812.36" style="stroke:#F0F0F0;stroke-width:9.72"/>
	<line x1="1318.44" y1="812.36" x2="1383.24" y2="812.36" style="stroke:#F0F0F0;stroke-width:9.72"/>
	<line x1="1415.64" y1="812.36" x2="1480.44" y2="812.36" style="stroke:#F0F0F0;stroke-width:9.72"/>
	<line x1="1512.84" y1="812.36" x2="1577.64" y2="812.36" style="stroke:#F0F0F0;stroke-width:9.72"/>
	<line x1="1610.04" y1="812.36" x2="1674.84" y2="812.36" style="stroke:#F0F0F0;stroke-width:9.72"/>
	<line x1="1707.24" y1="812.36" x2="1772.04" y2="812.36" style="stroke:#F0F0F0;stroke-width:9.72"/>
	<line x1="1804.44" y1="812.36" x2="1869.24" y2="812.36" style="stroke:#F0F0F0;stroke-width:9.72"/>
	<line x1="1901.64" y1="812.36" x2="1966.44" y2="812.36" style="stroke:#F0F0F0;stroke-width:9.72"/>
	<line x1="1998.84" y1="812.36" x2="2063.64" y2="812.36" style="stroke:#F0F0F0;stroke-width:9.72"/>
	<line x1="2096.04" y1="812.36" x2="2160.84" y2="812.36" style="stroke:#F0F0F0;stroke-width:9.72"/>
	<line x1="2193.24" y1="812.36" x2="2258.04" y2="812.36" style="stroke:#F0F0F0;stroke-width:9.72"/>
	<line x1="2290.44" y1="812.36" x2="2355.24" y2="812.36" style="stroke:#F0F0F0;stroke-width:9.72"/>
	<line x1="2387.64" y1="812.36" x2="2452.44" y2="812.36" style="stroke:#F0F0F0;stroke-width:9.72"/>
	<line x1="2484.84" y1="812.36" x2="2549.64" y2="812.36" style="stroke:#F0F0F0;stroke-width:9.72"/>
	<line x1="2582.04" y1="812.36" x2="2646.84" y2="812.36" style="stroke:#F0F0F0;stroke-width:9.72"/>
	<line x1="2679.24" y1="812.36" x2="2744.04" y2="812.36" style="stroke:#F0F0F0;stroke-width:9.72"/>
	<line x1="2776.44" y1="812.36" x2="2841.24" y2="812.36" style="stroke:#F0F0F0;stroke-width:9.72"/>
	<line x1="2873.64" y1="812.36" x2="2938.44" y2="812.36" style="stroke:#F0F0F0;stroke-width:9.72"/>
	<line x1="2970.84" y1="812.36" x2="3035.64" y2="812.36" style="stroke:#F0F0F0;stroke-width:9.72"/>
	<line x1="3068.04" y1="812.36" x2="3132.84" y2="812.36" style="stroke:#F0F0F0;stroke-width:9.72"/>
	<line x1="3165.24" y1="812.36" x2="3230.04" y2="812.36" style="stroke:#F0F0F0;stroke-width:9.72"/>
	<line x1="3262.44" y1="812.36" x2="3327.24" y2="812.36" style="stroke:#F0F0F0;stroke-width:9.72"/>
	<line x1="3359.64" y1="812.36" x2="3424.44" y2="812.36" style="stroke:#F0F0F0;stroke-width:9.72"/>
	<line x1="3456.84" y1="812.36" x2="3521.64" y2="812.36" style="stroke:#F0F0F0;stroke-width:9.72"/>
	<line x1="3554.04" y1="812.36" x2="3618.84" y2="812.36" style="stroke:#F0F0F0;stroke-width:9.72"/>
	<line x1="3651.24" y1="812.36" x2="3716.04" y2="812.36" style="stroke:#F0F0F0;stroke-width:9.72"/>
	<line x1="3748.44" y1="812.36" x2="3813.24" y2="812.36" style="stroke:#F0F0F0;stroke-width:9.72"/>
	<line x1="3845.64" y1="812.36" x2="3910.44" y2="812.36" style="stroke:#F0F0F0;stroke-width:9.72"/>
	<line x1="3942.84" y1="812.36" x2="4007.64" y2="812.36" style="stroke:#F0F0F0;stroke-width:9.72"/>
	<line x1="4040.04" y1="812.36" x2="4104.84" y2="812.36" style="stroke:#F0F0F0;stroke-width:9.72"/>
	<line x1="4137.24" y1="812.36" x2="4202.04" y2="812.36" style="stroke:#F0F0F0;stroke-width:9.72"/>
	<line x1="4234.44" y1="812.36" x2="4299.24" y2="812.36" style="stroke:#F0F0F0;stroke-width:9.72"/>
	<line x1="4331.64" y1="812.36" x2="4372.65" y2="812.36" style="stroke:#F0F0F0;stroke-width:9.72"/>
	<line x1="346.44" y1="184.61" x2="411.24" y2="184.61" style="stroke:#F0F0F0;stroke-width:9.72"/>
	<line x1="443.64" y1="184.61" x2="508.44" y2="184.61" style="stroke:#F0F0F0;stroke-width:9.72"/>
	<line x1="540.84" y1="184.61" x2="605.64" y2="184.61" style="stroke:#F0F0F0;stroke-width:9.72"/>
	<line x1="638.04" y1="184.61" x2="702.84" y2="184.61" style="stroke:#F0F0F0;stroke-width:9.72"/>
	<line x1="735.24" y1="184.61" x2="800.04" y2="184.61" style="stroke:#F0F0F0;stroke-width:9.72"/>
	<line x1="832.44" y1="184.61" x2="897.24" y2="184.61" style="stroke:#F0F0F0;stroke-width:9.72"/>
	<line x1="929.64" y1="184.61" x2="994.44" y2="184.61" style="stroke:#F0F0F0;stroke-width:9.72"/>
	<line x1="1026.84" y1="184.61" x2="1091.64" y2="184.61" style="stroke:#F0F0F0;stroke-width:9.72"/>
	<line x1="1124.04" y1="184.61" x2="1188.84" y2="184.61" style="stroke:#F0F0F0;stroke-width:9.72"/>
	<line x1="1221.24" y1="184.61" x2="1286.04" y2="184.61" style="stroke:#F0F0F0;stroke-width:9.72"/>
	<line x1="1318.44" y1="184.61" x2="1383.24" y2="184.61" style="stroke:#F0F0F0;stroke-width:9.72"/>
	<line x1="1415.64" y1="184.61" x2="1480.44" y2="184.61" style="stroke:#F0F0F0;stroke-width:9.72"/>
	<line x1="1512.84" y1="184.61" x2="1577.64" y2="184.61" style="stroke:#F0F0F0;stroke-width:9.72"/>
	<line x1="1610.04" y1="184.61" x2="1674.84" y2="184.61" style="stroke:#F0F0F0;stroke-width:9.72"/>
	<line x1="1707.24" y1="184.61" x2="1772.04" y2="184.61" style="stroke:#F0F0F0;stroke-width:9.72"/>
	<line x1="1804.44" y1="184.61" x2="1869.24" y2="184.61" style="stroke:#F0F0F0;stroke-width:9.72"/>
	<line x1="1901.64" y1="184.61" x2="1966.44" y2="184.61" style="stroke:#F0F0F0;stroke-width:9.72"/>
	<line x1="1998.84" y1="184.61" x2="2063.64" y2="184.61" style="stroke:#F0F0F0;stroke-width:9.72"/>
	<line x1="2096.04" y1="184.61" x2="2160.84" y2="184.61" style="stroke:#F0F0F0;stroke-width:9.72"/>
	<line x1="2193.24" y1="184.61" x2="2258.04" y2="184.61" style="stroke:#F0F0F0;stroke-width:9.72"/>
	<line x1="2290.44" y1="184.61" x2="2355.24" y2="184.61" style="stroke:#F0F0F0;stroke-width:9.72"/>
	<line x1="2387.64" y1="184.61" x2="2452.44" y2="184.61" style="stroke:#F0F0F0;stroke-width:9.72"/>
	<line x1="2484.84" y1="184.61" x2="2549.64" y2="184.61" style="stroke:#F0F0F0;stroke-width:9.72"/>
	<line x1="2582.04" y1="184.61" x2="2646.84" y2="184.61" style="stroke:#F0F0F0;stroke-width:9.72"/>
	<line x1="2679.24" y1="184.61" x2="2744.04" y2="184.61" style="stroke:#F0F0F0;stroke-width:9.72"/>
	<line x1="2776.44" y1="184.61" x2="2841.24" y2="184.61" style="stroke:#F0F0F0;stroke-width:9.72"/>
	<line x1="2873.64" y1="184.61" x2="2938.44" y2="184.61" style="stroke:#F0F0F0;stroke-width:9.72"/>
	<line x1="2970.84" y1="184.61" x2="3035.64" y2="184.61" style="stroke:#F0F0F0;stroke-width:9.72"/>
	<line x1="3068.04" y1="184.61" x2="3132.84" y2="184.61" style="stroke:#F0F0F0;stroke-width:9.72"/>
	<line x1="3165.24" y1="184.61" x2="3230.04" y2="184.61" style="stroke:#F0F0F0;stroke-width:9.72"/>
	<line x1="3262.44" y1="184.61" x2="3327.24" y2="184.61" style="stroke:#F0F0F0;stroke-width:9.72"/>
	<line x1="3359.64" y1="184.61" x2="3424.44" y2="184.61" style="stroke:#F0F0F0;stroke-width:9.72"/>
	<line x1="3456.84" y1="184.61" x2="3521.64" y2="184.61" style="stroke:#F0F0F0;stroke-width:9.72"/>
	<line x1="3554.04" y1="184.61" x2="3618.84" y2="184.61" style="stroke:#F0F0F0;stroke-width:9.72"/>
	<line x1="3651.24" y1="184.61" x2="3716.04" y2="184.61" style="stroke:#F0F0F0;stroke-width:9.72"/>
	<line x1="3748.44" y1="184.61" x2="3813.24" y2="184.61" style="stroke:#F0F0F0;stroke-width:9.72"/>
	<line x1="3845.64" y1="184.61" x2="3910.44" y2="184.61" style="stroke:#F0F0F0;stroke-width:9.72"/>
	<line x1="3942.84" y1="184.61" x2="4007.64" y2="184.61" style="stroke:#F0F0F0;stroke-width:9.72"/>
	<line x1="4040.04" y1="184.61" x2="4104.84" y2="184.61" style="stroke:#F0F0F0;stroke-width:9.72"/>
	<line x1="4137.24" y1="184.61" x2="4202.04" y2="184.61" style="stroke:#F0F0F0;stroke-width:9.72"/>
	<line x1="4234.44" y1="184.61" x2="4299.24" y2="184.61" style="stroke:#F0F0F0;stroke-width:9.72"/>
	<line x1="4331.64" y1="184.61" x2="4372.65" y2="184.61" style="stroke:#F0F0F0;stroke-width:9.72"/>
	<line x1="417.66" y1="2766.66" x2="417.66" y2="2701.86" style="stroke:#F0F0F0;stroke-width:9.72"/>
	<line x1="417.66" y1="2669.46" x2="417.66" y2="2604.66" style="stroke:#F0F0F0;stroke-width:9.72"/>
	<line x1="417.66" y1="2572.26" x2="417.66" y2="2507.46" style="stroke:#F0F0F0;stroke-width:9.72"/>
	<line x1="417.66" y1="2475.06" x2="417.66" y2="2410.26" style="stroke:#F0F0F0;stroke-width:9.72"/>
	<line x1="417.66" y1="2377.86" x2="417.66" y2="2313.06" style="stroke:#F0F0F0;stroke-width:9.72"/>
	<line x1="417.66" y1="2280.66" x2="417.66" y2="2215.86" style="stroke:#F0F0F0;stroke-width:9.72"/>
	<line x1="417.66" y1="2183.46" x2="417.66" y2="2118.66" style="stroke:#F0F0F0;stroke-width:9.72"/>
	<line x1="417.66" y1="2086.26" x2="417.66" y2="2021.46" style="stroke:#F0F0F0;stroke-width:9.72"/>
	<line x1="417.66" y1="1989.06" x2="417.66" y2="1924.26" style="stroke:#F0F0F0;stroke-width:9.72"/>
	<line x1="417.66" y1="1891.86" x2="417.66" y2="1827.06" style="stroke:#F0F0F0;stroke-width:9.72"/>
	<line x1="417.66" y1="1794.66" x2="417.66" y2="1729.86" style="stroke:#F0F0F0;stroke-width:9.72"/>
	<line x1="417.66" y1="1697.46" x2="417.66" y2="1632.66" style="stroke:#F0F0F0;stroke-width:9.72"/>
	<line x1="417.66" y1="1600.26" x2="417.66" y2="1535.46" style="stroke:#F0F0F0;stroke-width:9.72"/>
	<line x1="417.66" y1="1503.06" x2="417.66" y2="1438.26" style="stroke:#F0F0F0;stroke-width:9.72"/>
	<line x1="417.66" y1="1405.86" x2="417.66" y2="1341.06" style="stroke:#F0F0F0;stroke-width:9.72"/>
	<line x1="417.66" y1="1308.66" x2="417.66" y2="1243.86" style="stroke:#F0F0F0;stroke-width:9.72"/>
	<line x1="417.66" y1="1211.46" x2="417.66" y2="1146.66" style="stroke:#F0F0F0;stroke-width:9.72"/>
	<line x1="417.66" y1="1114.26" x2="417.66" y2="1049.46" style="stroke:#F0F0F0;stroke-width:9.72"/>
	<line x1="417.66" y1="1017.06" x2="417.66" y2="952.26" style="stroke:#F0F0F0;stroke-width:9.72"/>
	<line x1="417.66" y1="919.86" x2="417.66" y2="855.06" style="stroke:#F0F0F0;stroke-width:9.72"/>
	<line x1="417.66" y1="822.66" x2="417.66" y2="757.86" style="stroke:#F0F0F0;stroke-width:9.72"/>
	<line x1="417.66" y1="725.46" x2="417.66" y2="660.66" style="stroke:#F0F0F0;stroke-width:9.72"/>
	<line x1="417.66" y1="628.26" x2="417.66" y2="563.46" style="stroke:#F0F0F0;stroke-width:9.72"/>
	<line x1="417.66" y1="531.06" x2="417.66" y2="466.26" style="stroke:#F0F0F0;stroke-width:9.72"/>
	<line x1="417.66" y1="433.86" x2="417.66" y2="369.06" style="stroke:#F0F0F0;stroke-width:9.72"/>
	<line x1="417.66" y1="336.66" x2="417.66" y2="271.86" style="stroke:#F0F0F0;stroke-width:9.72"/>
	<line x1="417.66" y1="239.46" x2="417.66" y2="174.66" style="stroke:#F0F0F0;stroke-width:9.72"/>
	<line x1="417.66" y1="142.26" x2="417.66" y2="113.40" style="stroke:#F0F0F0;stroke-width:9.72"/>
	<line x1="1346.12" y1="2766.66" x2="1346.12" y2="2701.86" style="stroke:#F0F0F0;stroke-width:9.72"/>
	<line x1="1346.12" y1="2669.46" x2="1346.12" y2="2604.66" style="stroke:#F0F0F0;stroke-width:9.72"/>
	<line x1="1346.12" y1="2572.26" x2="1346.12" y2="2507.46" style="stroke:#F0F0F0;stroke-width:9.72"/>
	<line x1="1346.12" y1="2475.06" x2="1346.12" y2="2410.26" style="stroke:#F0F0F0;stroke-width:9.72"/>
	<line x1="1346.12" y1="2377.86" x2="1346.12" y2="2313.06" style="stroke:#F0F0F0;stroke-width:9.72"/>
	<line x1="1346.12" y1="2280.66" x2="1346.12" y2="2215.86" style="stroke:#F0F0F0;stroke-width:9.72"/>
	<line x1="1346.12" y1="2183.46" x2="1346.12" y2="2118.66" style="stroke:#F0F0F0;stroke-width:9.72"/>
	<line x1="1346.12" y1="2086.26" x2="1346.12" y2="2021.46" style="stroke:#F0F0F0;stroke-width:9.72"/>
	<line x1="1346.12" y1="1989.06" x2="1346.12" y2="1924.26" style="stroke:#F0F0F0;stroke-width:9.72"/>
	<line x1="1346.12" y1="1891.86" x2="1346.12" y2="1827.06" style="stroke:#F0F0F0;stroke-width:9.72"/>
	<line x1="1346.12" y1="1794.66" x2="1346.12" y2="1729.86" style="stroke:#F0F0F0;stroke-width:9.72"/>
	<line x1="1346.12" y1="1697.46" x2="1346.12" y2="1632.66" style="stroke:#F0F0F0;stroke-width:9.72"/>
	<line x1="1346.12" y1="1600.26" x2="1346.12" y2="1535.46" style="stroke:#F0F0F0;stroke-width:9.72"/>
	<line x1="1346.12" y1="1503.06" x2="1346.12" y2="1438.26" style="stroke:#F0F0F0;stroke-width:9.72"/>
	<line x1="1346.12" y1="1405.86" x2="1346.12" y2="1341.06" style="stroke:#F0F0F0;stroke-width:9.72"/>
	<line x1="1346.12" y1="1308.66" x2="1346.12" y2="1243.86" style="stroke:#F0F0F0;stroke-width:9.72"/>
	<line x1="1346.12" y1="1211.46" x2="1346.12" y2="1146.66" style="stroke:#F0F0F0;stroke-width:9.72"/>
	<line x1="1346.12" y1="1114.26" x2="1346.12" y2="1049.46" style="stroke:#F0F0F0;stroke-width:9.72"/>
	<line x1="1346.12" y1="1017.06" x2="1346.12" y2="952.26" style="stroke:#F0F0F0;stroke-width:9.72"/>
	<line x1="1346.12" y1="919.86" x2="1346.12" y2="855.06" style="stroke:#F0F0F0;stroke-width:9.72"/>
	<line x1="1346.12" y1="822.66" x2="1346.12" y2="757.86" style="stroke:#F0F0F0;stroke-width:9.72"/>
	<line x1="1346.12" y1="725.46" x2="1346.12" y2="660.66" style="stroke:#F0F0F0;stroke-width:9.72"/>
	<line x1="1346.12" y1="628.26" x2="1346.12" y2="563.46" style="stroke:#F0F0F0;stroke-width:9.72"/>
	<line x1="1346.12" y1="531.06" x2="1346.12" y2="466.26" style="stroke:#F0F0F0;stroke-width:9.72"/>
	<line x1="1346.12" y1="433.86" x2="1346.12" y2="369.06" style="stroke:#F0F0F0;stroke-width:9.72"/>
	<line x1="1346.12" y1="336.66" x2="1346.12" y2="271.86" style="stroke:#F0F0F0;stroke-width:9.72"/>
	<line x1="1346.12" y1="239.46" x2="1346.12" y2="174.66" style="stroke:#F0F0F0;stroke-width:9.72"/>
	<line x1="1346.12" y1="142.26" x2="1346.12" y2="113.40" style="stroke:#F0F0F0;stroke-width:9.72"/>
	<line x1="2274.75" y1="2766.66" x2="2274.75" y2="2701.86" style="stroke:#F0F0F0;stroke-width:9.72"/>
	<line x1="2274.75" y1="2669.46" x2="2274.75" y2="2604.66" style="stroke:#F0F0F0;stroke-width:9.72"/>
	<line x1="2274.75" y1="2572.26" x2="2274.75" y2="2507.46" style="stroke:#F0F0F0;stroke-width:9.72"/>
	<line x1="2274.75" y1="2475.06" x2="2274.75" y2="2410.26" style="stroke:#F0F0F0;stroke-width:9.72"/>
	<line x1="2274.75" y1="2377.86" x2="2274.75" y2="2313.06" style="stroke:#F0F0F0;stroke-width:9.72"/>
	<line x1="2274.75" y1="2280.66" x2="2274.75" y2="2215.86" style="stroke:#F0F0F0;stroke-width:9.72"/>
	<line x1="2274.75" y1="2183.46" x2="2274.75" y2="2118.66" style="stroke:#F0F0F0;stroke-width:9.72"/>
	<line x1="2274.75" y1="2086.26" x2="2274.75" y2="2021.46" style="stroke:#F0F0F0;stroke-width:9.72"/>
	<line x1="2274.75" y1="1989.06" x2="2274.75" y2="1924.26" style="stroke:#F0F0F0;stroke-width:9.72"/>
	<line x1="2274.75" y1="1891.86" x2="2274.75" y2="1827.06" style="stroke:#F0F0F0;stroke-width:9.72"/>
	<line x1="2274.75" y1="1794.66" x2="2274.75" y2="1729.86" style="stroke:#F0F0F0;stroke-width:9.72"/>
	<line x1="2274.75" y1="1697.46" x2="2274.75" y2="1632.66" style="stroke:#F0F0F0;stroke-width:9.72"/>
	<line x1="2274.75" y1="1600.26" x2="2274.75" y2="1535.46" style="stroke:#F0F0F0;stroke-width:9.72"/>
	<line x1="2274.75" y1="1503.06" x2="2274.75" y2="1438.26" style="stroke:#F0F0F0;stroke-width:9.72"/>
	<line x1="2274.75" y1="1405.86" x2="2274.75" y2="1341.06" style="stroke:#F0F0F0;stroke-width:9.72"/>
	<line x1="2274.75" y1="1308.66" x2="2274.75" y2="1243.86" style="stroke:#F0F0F0;stroke-width:9.72"/>
	<line x1="2274.75" y1="1211.46" x2="2274.75" y2="1146.66" style="stroke:#F0F0F0;stroke-width:9.72"/>
	<line x1="2274.75" y1="1114.26" x2="2274.75" y2="1049.46" style="stroke:#F0F0F0;stroke-width:9.72"/>
	<line x1="2274.75" y1="1017.06" x2="2274.75" y2="952.26" style="stroke:#F0F0F0;stroke-width:9.72"/>
	<line x1="2274.75" y1="919.86" x2="2274.75" y2="855.06" style="stroke:#F0F0F0;stroke-width:9.72"/>
	<line x1="2274.75" y1="822.66" x2="2274.75" y2="757.86" style="stroke:#F0F0F0;stroke-width:9.72"/>
	<line x1="2274.75" y1="725.46" x2="2274.75" y2="660.66" style="stroke:#F0F0F0;stroke-width:9.72"/>
	<line x1="2274.75" y1="628.26" x2="2274.75" y2="563.46" style="stroke:#F0F0F0;stroke-width:9.72"/>
	<line x1="2274.75" y1="531.06" x2="2274.75" y2="466.26" style="stroke:#F0F0F0;stroke-width:9.72"/>
	<line x1="2274.75" y1="433.86" x2="2274.75" y2="369.06" style="stroke:#F0F0F0;stroke-width:9.72"/>
	<line x1="2274.75" y1="336.66" x2="2274.75" y2="271.86" style="stroke:#F0F0F0;stroke-width:9.72"/>
	<line x1="2274.75" y1="239.46" x2="2274.75" y2="174.66" style="stroke:#F0F0F0;stroke-width:9.72"/>
	<line x1="2274.75" y1="142.26" x2="2274.75" y2="113.40" style="stroke:#F0F0F0;stroke-width:9.72"/>
	<line x1="3203.21" y1="2766.66" x2="3203.21" y2="2701.86" style="stroke:#F0F0F0;stroke-width:9.72"/>
	<line x1="3203.21" y1="2669.46" x2="3203.21" y2="2604.66" style="stroke:#F0F0F0;stroke-width:9.72"/>
	<line x1="3203.21" y1="2572.26" x2="3203.21" y2="2507.46" style="stroke:#F0F0F0;stroke-width:9.72"/>
	<line x1="3203.21" y1="2475.06" x2="3203.21" y2="2410.26" style="stroke:#F0F0F0;stroke-width:9.72"/>
	<line x1="3203.21" y1="2377.86" x2="3203.21" y2="2313.06" style="stroke:#F0F0F0;stroke-width:9.72"/>
	<line x1="3203.21" y1="2280.66" x2="3203.21" y2="2215.86" style="stroke:#F0F0F0;stroke-width:9.72"/>
	<line x1="3203.21" y1="2183.46" x2="3203.21" y2="2118.66" style="stroke:#F0F0F0;stroke-width:9.72"/>
	<line x1="3203.21" y1="2086.26" x2="3203.21" y2="2021.46" style="stroke:#F0F0F0;stroke-width:9.72"/>
	<line x1="3203.21" y1="1989.06" x2="3203.21" y2="1924.26" style="stroke:#F0F0F0;stroke-width:9.72"/>
	<line x1="3203.21" y1="1891.86" x2="3203.21" y2="1827.06" style="stroke:#F0F0F0;stroke-width:9.72"/>
	<line x1="3203.21" y1="1794.66" x2="3203.21" y2="1729.86" style="stroke:#F0F0F0;stroke-width:9.72"/>
	<line x1="3203.21" y1="1697.46" x2="3203.21" y2="1632.66" style="stroke:#F0F0F0;stroke-width:9.72"/>
	<line x1="3203.21" y1="1600.26" x2="3203.21" y2="1535.46" style="stroke:#F0F0F0;stroke-width:9.72"/>
	<line x1="3203.21" y1="1503.06" x2="3203.21" y2="1438.26" style="stroke:#F0F0F0;stroke-width:9.72"/>
	<line x1="3203.21" y1="1405.86" x2="3203.21" y2="1341.06" style="stroke:#F0F0F0;stroke-width:9.72"/>
	<line x1="3203.21" y1="1308.66" x2="3203.21" y2="1243.86" style="stroke:#F0F0F0;stroke-width:9.72"/>
	<line x1="3203.21" y1="1211.46" x2="3203.21" y2="1146.66" style="stroke:#F0F0F0;stroke-width:9.72"/>
	<line x1="3203.21" y1="1114.26" x2="3203.21" y2="1049.46" style="stroke:#F0F0F0;stroke-width:9.72"/>
	<line x1="3203.21" y1="1017.06" x2="3203.21" y2="952.26" style="stroke:#F0F0F0;stroke-width:9.72"/>
	<line x1="3203.21" y1="919.86" x2="3203.21" y2="855.06" style="stroke:#F0F0F0;stroke-width:9.72"/>
	<line x1="3203.21" y1="822.66" x2="3203.21" y2="757.86" style="stroke:#F0F0F0;stroke-width:9.72"/>
	<line x1="3203.21" y1="725.46" x2="3203.21" y2="660.66" style="stroke:#F0F0F0;stroke-width:9.72"/>
	<line x1="3203.21" y1="628.26" x2="3203.21" y2="563.46" style="stroke:#F0F0F0;stroke-width:9.72"/>
	<line x1="3203.21" y1="531.06" x2="3203.21" y2="466.26" style="stroke:#F0F0F0;stroke-width:9.72"/>
	<line x1="3203.21" y1="433.86" x2="3203.21" y2="369.06" style="stroke:#F0F0F0;stroke-width:9.72"/>
	<line x1="3203.21" y1="336.66" x2="3203.21" y2="271.86" style="stroke:#F0F0F0;stroke-width:9.72"/>
	<line x1="3203.21" y1="239.46" x2="3203.21" y2="174.66" style="stroke:#F0F0F0;stroke-width:9.72"/>
	<line x1="3203.21" y1="142.26" x2="3203.21" y2="113.40" style="stroke:#F0F0F0;stroke-width:9.72"/>
	<line x1="4131.68" y1="2766.66" x2="4131.68" y2="2701.86" style="stroke:#F0F0F0;stroke-width:9.72"/>
	<line x1="4131.68" y1="2669.46" x2="4131.68" y2="2604.66" style="stroke:#F0F0F0;stroke-width:9.72"/>
	<line x1="4131.68" y1="2572.26" x2="4131.68" y2="2507.46" style="stroke:#F0F0F0;stroke-width:9.72"/>
	<line x1="4131.68" y1="2475.06" x2="4131.68" y2="2410.26" style="stroke:#F0F0F0;stroke-width:9.72"/>
	<line x1="4131.68" y1="2377.86" x2="4131.68" y2="2313.06" style="stroke:#F0F0F0;stroke-width:9.72"/>
	<line x1="4131.68" y1="2280.66" x2="4131.68" y2="2215.86" style="stroke:#F0F0F0;stroke-width:9.72"/>
	<line x1="4131.68" y1="2183.46" x2="4131.68" y2="2118.66" style="stroke:#F0F0F0;stroke-width:9.72"/>
	<line x1="4131.68" y1="2086.26" x2="4131.68" y2="2021.46" style="stroke:#F0F0F0;stroke-width:9.72"/>
	<line x1="4131.68" y1="1989.06" x2="4131.68" y2="1924.26" style="stroke:#F0F0F0;stroke-width:9.72"/>
	<line x1="4131.68" y1="1891.86" x2="4131.68" y2="1827.06" style="stroke:#F0F0F0;stroke-width:9.72"/>
	<line x1="4131.68" y1="1794.66" x2="4131.68" y2="1729.86" style="stroke:#F0F0F0;stroke-width:9.72"/>
	<line x1="4131.68" y1="1697.46" x2="4131.68" y2="1632.66" style="stroke:#F0F0F0;stroke-width:9.72"/>
	<line x1="4131.68" y1="1600.26" x2="4131.68" y2="1535.46" style="stroke:#F0F0F0;stroke-width:9.72"/>
	<line x1="4131.68" y1="1503.06" x2="4131.68" y2="1438.26" style="stroke:#F0F0F0;stroke-width:9.72"/>
	<line x1="4131.68" y1="1405.86" x2="4131.68" y2="1341.06" style="stroke:#F0F0F0;stroke-width:9.72"/>
	<line x1="4131.68" y1="1308.66" x2="4131.68" y2="1243.86" style="stroke:#F0F0F0;stroke-width:9.72"/>
	<line x1="4131.68" y1="1211.46" x2="4131.68" y2="1146.66" style="stroke:#F0F0F0;stroke-width:9.72"/>
	<line x1="4131.68" y1="1114.26" x2="4131.68" y2="1049.46" style="stroke:#F0F0F0;stroke-width:9.72"/>
	<line x1="4131.68" y1="1017.06" x2="4131.68" y2="952.26" style="stroke:#F0F0F0;stroke-width:9.72"/>
	<line x1="4131.68" y1="919.86" x2="4131.68" y2="855.06" style="stroke:#F0F0F0;stroke-width:9.72"/>
	<line x1="4131.68" y1="822.66" x2="4131.68" y2="757.86" style="stroke:#F0F0F0;stroke-width:9.72"/>
	<line x1="4131.68" y1="725.46" x2="4131.68" y2="660.66" style="stroke:#F0F0F0;stroke-width:9.72"/>
	<line x1="4131.68" y1="628.26" x2="4131.68" y2="563.46" style="stroke:#F0F0F0;stroke-width:9.72"/>
	<line x1="4131.68" y1="531.06" x2="4131.68" y2="466.26" style="stroke:#F0F0F0;stroke-width:9.72"/>
	<line x1="4131.68" y1="433.86" x2="4131.68" y2="369.06" style="stroke:#F0F0F0;stroke-width:9.72"/>
	<line x1="4131.68" y1="336.66" x2="4131.68" y2="271.86" style="stroke:#F0F0F0;stroke-width:9.72"/>
	<line x1="4131.68" y1="239.46" x2="4131.68" y2="174.66" style="stroke:#F0F0F0;stroke-width:9.72"/>
	<line x1="4131.68" y1="142.26" x2="4131.68" y2="113.40" style="stroke:#F0F0F0;stroke-width:9.72"/>
	<line x1="2274.75" y1="2766.66" x2="2274.75" y2="2701.86" style="stroke:#000000;stroke-width:9.72"/>
	<line x1="2274.75" y1="2669.46" x2="2274.75" y2="2604.66" style="stroke:#000000;stroke-width:9.72"/>
	<line x1="2274.75" y1="2572.26" x2="2274.75" y2="2507.46" style="stroke:#000000;stroke-width:9.72"/>
	<line x1="2274.75" y1="2475.06" x2="2274.75" y2="2410.26" style="stroke:#000000;stroke-width:9.72"/>
	<line x1="2274.75" y1="2377.86" x2="2274.75" y2="2313.06" style="stroke:#000000;stroke-width:9.72"/>
	<line x1="2274.75" y1="2280.66" x2="2274.75" y2="2215.86" style="stroke:#000000;stroke-width:9.72"/>
	<line x1="2274.75" y1="2183.46" x2="2274.75" y2="2118.66" style="stroke:#000000;stroke-width:9.72"/>
	<line x1="2274.75" y1="2086.26" x2="2274.75" y2="2021.46" style="stroke:#000000;stroke-width:9.72"/>
	<line x1="2274.75" y1="1989.06" x2="2274.75" y2="1924.26" style="stroke:#000000;stroke-width:9.72"/>
	<line x1="2274.75" y1="1891.86" x2="2274.75" y2="1827.06" style="stroke:#000000;stroke-width:9.72"/>
	<line x1="2274.75" y1="1794.66" x2="2274.75" y2="1729.86" style="stroke:#000000;stroke-width:9.72"/>
	<line x1="2274.75" y1="1697.46" x2="2274.75" y2="1632.66" style="stroke:#000000;stroke-width:9.72"/>
	<line x1="2274.75" y1="1600.26" x2="2274.75" y2="1535.46" style="stroke:#000000;stroke-width:9.72"/>
	<line x1="2274.75" y1="1503.06" x2="2274.75" y2="1438.26" style="stroke:#000000;stroke-width:9.72"/>
	<line x1="2274.75" y1="1405.86" x2="2274.75" y2="1341.06" style="stroke:#000000;stroke-width:9.72"/>
	<line x1="2274.75" y1="1308.66" x2="2274.75" y2="1243.86" style="stroke:#000000;stroke-width:9.72"/>
	<line x1="2274.75" y1="1211.46" x2="2274.75" y2="1146.66" style="stroke:#000000;stroke-width:9.72"/>
	<line x1="2274.75" y1="1114.26" x2="2274.75" y2="1049.46" style="stroke:#000000;stroke-width:9.72"/>
	<line x1="2274.75" y1="1017.06" x2="2274.75" y2="952.26" style="stroke:#000000;stroke-width:9.72"/>
	<line x1="2274.75" y1="919.86" x2="2274.75" y2="855.06" style="stroke:#000000;stroke-width:9.72"/>
	<line x1="2274.75" y1="822.66" x2="2274.75" y2="757.86" style="stroke:#000000;stroke-width:9.72"/>
	<line x1="2274.75" y1="725.46" x2="2274.75" y2="660.66" style="stroke:#000000;stroke-width:9.72"/>
	<line x1="2274.75" y1="628.26" x2="2274.75" y2="563.46" style="stroke:#000000;stroke-width:9.72"/>
	<line x1="2274.75" y1="531.06" x2="2274.75" y2="466.26" style="stroke:#000000;stroke-width:9.72"/>
	<line x1="2274.75" y1="433.86" x2="2274.75" y2="369.06" style="stroke:#000000;stroke-width:9.72"/>
	<line x1="2274.75" y1="336.66" x2="2274.75" y2="271.86" style="stroke:#000000;stroke-width:9.72"/>
	<line x1="2274.75" y1="239.46" x2="2274.75" y2="174.66" style="stroke:#000000;stroke-width:9.72"/>
	<line x1="2274.75" y1="142.26" x2="2274.75" y2="113.40" style="stroke:#000000;stroke-width:9.72"/>
	<path d=" M765.96 2669.12 L777.77 2666.25 L789.58 2663.21 L801.39 2659.84 L813.21 2655.96 L825.02 2651.23 L836.83 2646.68 L848.64 2641.78 L860.46 2636.04 L872.27 2629.63 L884.08 2622.71 L895.89 2616.30 L907.88 2608.71 L919.69 2600.44 L931.50 2592.51 L943.31 2584.57 L955.13 2576.64 L966.94 2569.05 L978.75 2561.63 L990.56 2555.04 L1002.38 2549.31 L1014.19 2542.39 L1026.00 2534.63 L1037.81 2525.51 L1049.63 2515.05 L1061.44 2503.91 L1073.42 2492.94 L1085.23 2482.31 L1097.04 2472.69 L1108.86 2463.41 L1120.67 2453.29 L1132.48 2444.01 L1144.29 2434.73 L1156.11 2425.44 L1167.92 2416.33 L1179.73 2407.22 L1191.54 2397.77 L1203.36 2389.50 L1215.17 2381.40 L1226.98 2373.30 L1238.79 2365.71 L1250.78 2357.78 L1262.59 2349.68 L1274.40 2339.21 L1286.21 2328.92 L1298.03 2318.63 L1309.84 2304.28 L1321.65 2289.94 L1333.46 2275.26 L1345.28 2260.07 L1357.09 2243.03 L1368.90 2225.98 L1380.71 2209.28 L1392.53 2190.04 L1404.34 2169.79 L1416.32 2151.06 L1428.13 2133.17 L1439.94 2114.94 L1451.76 2096.55 L1463.57 2076.98 L1475.38 2058.41 L1487.19 2039.51 L1499.01 2019.60 L1510.82 1998.00 L1522.63 1977.41 L1534.44 1955.81 L1546.26 1931.34 L1558.07 1903.50 L1569.88 1874.81 L1581.69 1844.61 L1593.68 1813.56 L1605.49 1783.01 L1617.30 1753.48 L1629.11 1721.25 L1640.93 1686.66 L1652.74 1648.69 L1664.55 1611.23 L1676.36 1574.94 L1688.18 1538.66 L1699.99 1503.06 L1711.80 1469.14 L1723.61 1436.91 L1735.43 1406.87 L1747.24 1379.36 L1759.22 1352.53 L1771.03 1325.36 L1782.84 1294.99 L1794.66 1263.43 L1806.47 1230.53 L1818.28 1200.49 L1830.09 1173.15 L1841.91 1143.79 L1853.72 1111.39 L1865.53 1078.99 L1877.34 1047.77 L1889.16 1015.54 L1900.97 981.62 L1912.78 951.07 L1924.59 923.06 L1936.58 896.74 L1948.39 872.78 L1960.20 849.49 L1972.01 825.53 L1983.83 805.78 L1995.64 786.54 L2007.45 769.84 L2019.26 754.48 L2031.08 736.59 L2042.89 717.36 L2054.70 700.31 L2066.51 681.92 L2078.32 663.36 L2090.14 644.96 L2102.12 629.44 L2113.93 611.72 L2125.74 596.03 L2137.56 584.38 L2149.37 575.27 L2161.18 565.82 L2172.99 555.53 L2184.81 542.36 L2196.62 528.53 L2208.43 515.19 L2220.24 500.51 L2232.06 486.68 L2243.87 476.04 L2255.68 469.97 L2267.49 468.11 L2279.48 470.81 L2291.29 476.72 L2303.10 482.63 L2314.91 486.17 L2326.73 490.72 L2338.54 497.98 L2350.35 509.96 L2362.16 524.98 L2373.98 540.17 L2385.79 551.14 L2397.60 562.11 L2409.41 574.59 L2421.23 586.57 L2433.04 595.18 L2445.02 607.16 L2456.83 623.19 L2468.64 642.43 L2480.46 663.19 L2492.27 685.13 L2504.08 704.70 L2515.89 729.00 L2527.71 755.83 L2539.52 783.68 L2551.33 812.70 L2563.14 840.54 L2574.96 867.54 L2586.77 890.49 L2598.58 910.74 L2610.39 932.34 L2622.38 955.97 L2634.19 981.79 L2646.00 1004.57 L2657.81 1027.86 L2669.63 1052.49 L2681.44 1079.16 L2693.25 1107.17 L2705.06 1136.03 L2716.88 1163.70 L2728.69 1192.39 L2740.50 1218.71 L2752.31 1241.66 L2764.13 1263.60 L2775.94 1282.67 L2787.92 1304.78 L2799.73 1329.75 L2811.54 1357.59 L2823.36 1387.29 L2835.17 1415.98 L2846.98 1444.84 L2858.79 1476.90 L2870.61 1510.82 L2882.42 1546.09 L2894.23 1582.37 L2906.04 1616.96 L2917.86 1649.70 L2929.67 1681.93 L2941.48 1712.14 L2953.29 1738.80 L2965.28 1761.92 L2977.09 1785.88 L2988.90 1810.18 L3000.71 1833.30 L3012.53 1855.74 L3024.34 1879.88 L3036.15 1902.83 L3047.96 1926.96 L3059.78 1951.59 L3071.59 1976.40 L3083.40 2001.71 L3095.21 2028.38 L3107.03 2055.21 L3118.84 2078.16 L3130.82 2098.24 L3142.63 2118.15 L3154.44 2138.74 L3166.26 2159.49 L3178.07 2178.56 L3189.88 2196.96 L3201.69 2213.32 L3213.51 2230.88 L3225.32 2246.91 L3237.13 2262.09 L3248.94 2276.61 L3260.76 2291.96 L3272.57 2307.15 L3284.38 2320.99 L3296.19 2333.98 L3308.18 2342.59 L3319.99 2351.19 L3331.80 2360.14 L3343.61 2370.77 L3355.43 2381.57 L3367.24 2391.19 L3379.05 2401.31 L3390.86 2412.28 L3402.68 2423.25 L3414.49 2434.05 L3426.30 2445.19 L3438.11 2455.99 L3449.93 2467.97 L3461.74 2479.78 L3473.72 2490.07 L3485.53 2498.34 L3497.34 2505.43 L3509.16 2512.69 L3520.97 2520.28 L3532.78 2526.86 L3544.59 2533.11 L3556.41 2539.18 L3568.22 2545.59 L3580.03 2551.16 L3591.84 2555.55 L3603.66 2560.11 L3615.47 2565.00 L3627.28 2570.06 L3639.09 2575.29 L3651.08 2580.86 L3662.89 2586.60 L3674.70 2591.83 L3686.51 2597.57 L3698.33 2603.64 L3710.14 2609.38 L3721.95 2614.61 L3733.76 2619.84 L3745.58 2625.08 L3757.39 2628.96 L3769.20 2632.50 L3781.01 2636.21 L3792.83 2639.93 L3804.64 2643.81 L3816.62 2648.19 L3828.43 2652.58 L3840.24 2655.45 L3852.06 2658.15 L3863.87 2660.85 L3875.68 2663.89 L3887.49 2666.59 L3899.31 2668.44 L3911.12 2670.64 L3922.93 2672.16 L3934.74 2673.34 L3946.56 2674.52 L3958.37 2675.87 L3970.18 2677.05 L3981.99 2677.89 L3993.98 2678.74 L4005.79 2679.75 L4017.60 2680.93 L4029.41 2682.11 L4041.23 2682.96 L4053.04 2683.29 L4064.85 2683.29 L4076.66 2683.46 L4088.48 2683.80 L4100.29 2684.14 L4112.10 2684.31 L4123.91 2684.14 L4135.73 2683.97 L4147.54 2683.97 L4159.52 2683.97 L4171.33 2683.97 L4183.14 2684.14 L4194.96 2684.31 L4206.77 2684.48 L4218.58 2684.81 L4230.39 2685.15 L4242.21 2685.66 L4254.02 2686.16 L4265.83 2686.67 L4277.64 2687.34 L4289.46 2687.18 L4301.27 2687.18" stroke-linejoin="round" style="fill:none;stroke:#1A85FF;stroke-width:9.72"/>
	<path d=" M696.43 2666.93 L707.57 2663.89 L718.71 2660.85 L730.01 2656.97 L741.15 2652.58 L752.46 2647.69 L763.59 2642.96 L774.90 2637.39 L786.04 2631.32 L797.34 2624.40 L808.48 2617.31 L819.79 2610.56 L830.93 2602.97 L842.06 2594.53 L853.37 2586.26 L864.51 2578.33 L875.81 2569.73 L886.95 2561.96 L898.26 2554.54 L909.39 2547.62 L920.70 2541.71 L931.84 2535.13 L943.14 2527.54 L954.28 2518.76 L965.42 2507.79 L976.73 2496.32 L987.86 2485.01 L999.17 2473.71 L1010.31 2463.24 L1021.61 2453.29 L1032.75 2443.16 L1044.06 2433.04 L1055.19 2423.59 L1066.33 2413.97 L1077.64 2404.69 L1088.78 2395.41 L1100.08 2385.45 L1111.22 2376.17 L1122.53 2367.90 L1133.66 2359.80 L1144.97 2352.88 L1156.11 2346.13 L1167.41 2338.54 L1178.55 2328.75 L1189.69 2318.96 L1200.99 2309.01 L1212.13 2297.03 L1223.44 2282.85 L1234.58 2266.65 L1245.88 2249.94 L1257.02 2232.06 L1268.33 2213.66 L1279.46 2194.76 L1290.77 2175.53 L1301.91 2154.43 L1313.04 2134.35 L1324.35 2115.11 L1335.49 2097.06 L1346.79 2076.47 L1357.93 2055.71 L1369.24 2036.81 L1380.38 2016.56 L1391.68 1995.81 L1402.82 1974.88 L1414.13 1951.93 L1425.26 1929.49 L1436.40 1905.69 L1447.71 1876.67 L1458.84 1847.48 L1470.15 1815.08 L1481.29 1781.66 L1492.59 1749.26 L1503.73 1716.53 L1515.04 1683.79 L1526.18 1647.68 L1537.48 1610.89 L1548.62 1572.08 L1559.76 1534.28 L1571.06 1496.14 L1582.20 1460.19 L1593.51 1423.74 L1604.64 1388.81 L1615.95 1356.24 L1627.09 1326.54 L1638.39 1297.86 L1649.53 1270.18 L1660.84 1242.34 L1671.98 1213.14 L1683.11 1179.90 L1694.42 1147.16 L1705.56 1118.14 L1716.86 1090.46 L1728.00 1059.58 L1739.31 1024.48 L1750.44 988.71 L1761.75 954.28 L1772.89 920.36 L1784.19 886.44 L1795.33 855.06 L1806.47 826.20 L1817.78 798.86 L1828.91 774.90 L1840.22 753.64 L1851.36 731.19 L1862.66 709.93 L1873.80 690.69 L1885.11 675.00 L1896.24 656.94 L1907.55 639.39 L1918.69 619.65 L1929.83 600.41 L1941.13 581.85 L1952.27 561.60 L1963.58 543.38 L1974.71 525.49 L1986.02 505.57 L1997.16 491.23 L2008.46 480.60 L2019.60 469.46 L2030.91 458.49 L2042.04 446.85 L2053.18 433.86 L2064.49 417.49 L2075.63 402.81 L2086.93 388.13 L2098.07 374.96 L2109.38 363.15 L2120.51 358.26 L2131.82 358.09 L2142.96 359.94 L2154.26 363.99 L2165.40 367.03 L2176.54 371.76 L2187.84 376.99 L2198.98 386.44 L2210.29 397.24 L2221.43 411.58 L2232.73 425.42 L2243.87 435.21 L2255.18 443.98 L2266.31 456.64 L2277.62 471.82 L2288.76 485.66 L2299.89 499.84 L2311.20 517.56 L2322.34 536.96 L2333.64 556.88 L2344.78 579.32 L2356.09 604.63 L2367.23 632.31 L2378.53 661.33 L2389.67 692.21 L2400.98 721.91 L2412.11 751.95 L2423.25 777.94 L2434.56 800.38 L2445.69 822.82 L2457.00 846.28 L2468.14 872.10 L2479.44 897.24 L2490.58 922.05 L2501.89 947.03 L2513.03 976.22 L2524.33 1004.23 L2535.47 1035.62 L2546.61 1065.99 L2557.91 1097.04 L2569.05 1124.89 L2580.36 1151.38 L2591.49 1174.16 L2602.80 1195.76 L2613.94 1215.00 L2625.24 1238.12 L2636.38 1265.46 L2647.69 1293.64 L2658.83 1323.17 L2669.96 1352.03 L2681.27 1381.89 L2692.41 1414.97 L2703.71 1449.56 L2714.85 1484.66 L2726.16 1518.92 L2737.29 1553.85 L2748.60 1587.43 L2759.74 1618.14 L2771.04 1648.69 L2782.18 1678.56 L2793.32 1707.58 L2804.63 1733.06 L2815.76 1757.53 L2827.07 1783.69 L2838.21 1806.81 L2849.51 1830.43 L2860.65 1854.90 L2871.96 1881.90 L2883.09 1909.74 L2894.40 1937.59 L2905.54 1965.77 L2916.68 1993.78 L2927.98 2020.95 L2939.12 2043.90 L2950.43 2066.34 L2961.56 2087.27 L2972.87 2109.04 L2984.01 2129.63 L2995.31 2150.72 L3006.45 2170.29 L3017.76 2187.84 L3028.89 2206.07 L3040.03 2223.28 L3051.34 2240.16 L3062.48 2257.20 L3073.78 2274.07 L3084.92 2290.11 L3096.23 2304.11 L3107.36 2316.60 L3118.67 2325.38 L3129.81 2334.15 L3141.11 2344.28 L3152.25 2355.07 L3163.39 2366.04 L3174.69 2377.18 L3185.83 2388.32 L3197.14 2400.81 L3208.28 2412.45 L3219.58 2423.59 L3230.72 2434.22 L3242.03 2446.03 L3253.16 2459.19 L3264.30 2471.68 L3275.61 2482.14 L3286.74 2490.75 L3298.05 2499.86 L3309.19 2507.12 L3320.49 2513.36 L3331.63 2520.62 L3342.94 2528.21 L3354.08 2535.47 L3365.38 2541.54 L3376.52 2546.78 L3387.66 2551.50 L3398.96 2556.73 L3410.10 2562.64 L3421.41 2567.70 L3432.54 2572.93 L3443.85 2578.84 L3454.99 2585.08 L3466.29 2590.48 L3477.43 2596.22 L3488.74 2601.96 L3499.88 2608.03 L3511.01 2614.11 L3522.32 2619.34 L3533.46 2623.22 L3544.76 2626.93 L3555.90 2630.81 L3567.21 2635.03 L3578.34 2639.25 L3589.65 2643.64 L3600.79 2647.86 L3612.09 2652.08 L3623.23 2655.79 L3634.37 2658.66 L3645.68 2661.69 L3656.81 2664.39 L3668.12 2666.59 L3679.26 2668.44 L3690.56 2670.13 L3701.70 2671.99 L3713.01 2673.68 L3724.14 2675.03 L3735.45 2675.87 L3746.59 2676.71 L3757.73 2677.56 L3769.03 2678.57 L3780.17 2679.75 L3791.48 2680.93 L3802.61 2681.78 L3813.92 2682.28 L3825.06 2682.28 L3836.36 2682.45 L3847.50 2682.62 L3858.81 2682.96 L3869.94 2683.46 L3881.08 2683.63 L3892.39 2683.46 L3903.53 2683.29 L3914.83 2683.29 L3925.97 2683.46 L3937.28 2683.63 L3948.41 2683.80 L3959.72 2683.97 L3970.86 2684.31 L3982.16 2684.81 L3993.30 2685.15 L4004.44 2685.66 L4015.74 2686.33 L4026.88 2686.84 L4038.19 2686.84 L4049.33 2686.84" stroke-linejoin="round" style="fill:none;stroke:#D41159;stroke-width:9.72"/>
	<line x1="346.44" y1="2766.66" x2="346.44" y2="113.40" style="stroke:#000000;stroke-width:6.48"/>
	<line x1="346.44" y1="2695.28" x2="301.39" y2="2695.28" style="stroke:#000000;stroke-width:6.48"/>
	<text x="278.94" y="2734.71" style="font-family:'Helvetica';font-size:112.56px;fill:#000000" text-anchor="end">0</text>
	<line x1="346.44" y1="2067.69" x2="301.39" y2="2067.69" style="stroke:#000000;stroke-width:6.48"/>
	<text x="278.94" y="2107.13" style="font-family:'Helvetica';font-size:112.56px;fill:#000000" text-anchor="end">2</text>
	<line x1="346.44" y1="1439.94" x2="301.39" y2="1439.94" style="stroke:#000000;stroke-width:6.48"/>
	<text x="278.94" y="1479.38" style="font-family:'Helvetica';font-size:112.56px;fill:#000000" text-anchor="end">4</text>
	<line x1="346.44" y1="812.36" x2="301.39" y2="812.36" style="stroke:#000000;stroke-width:6.48"/>
	<text x="278.94" y="851.80" style="font-family:'Helvetica';font-size:112.56px;fill:#000000" text-anchor="end">6</text>
	<line x1="346.44" y1="184.61" x2="301.39" y2="184.61" style="stroke:#000000;stroke-width:6.48"/>
	<text x="278.94" y="224.05" style="font-family:'Helvetica';font-size:112.56px;fill:#000000" text-anchor="end">8</text>
	<line x1="346.44" y1="2766.66" x2="4372.65" y2="2766.66" style="stroke:#000000;stroke-width:6.48"/>
	<line x1="417.66" y1="2766.66" x2="417.66" y2="2811.54" style="stroke:#000000;stroke-width:6.48"/>
	<text x="417.66" y="2912.86" style="font-family:'Helvetica';font-size:112.56px;fill:#000000" text-anchor="middle">.2</text>
	<line x1="1346.12" y1="2766.66" x2="1346.12" y2="2811.54" style="stroke:#000000;stroke-width:6.48"/>
	<text x="1346.12" y="2912.86" style="font-family:'Helvetica';font-size:112.56px;fill:#000000" text-anchor="middle">.3</text>
	<line x1="2274.75" y1="2766.66" x2="2274.75" y2="2811.54" style="stroke:#000000;stroke-width:6.48"/>
	<text x="2274.75" y="2912.86" style="font-family:'Helvetica';font-size:112.56px;fill:#000000" text-anchor="middle">.4</text>
	<line x1="3203.21" y1="2766.66" x2="3203.21" y2="2811.54" style="stroke:#000000;stroke-width:6.48"/>
	<text x="3203.21" y="2912.86" style="font-family:'Helvetica';font-size:112.56px;fill:#000000" text-anchor="middle">.5</text>
	<line x1="4131.68" y1="2766.66" x2="4131.68" y2="2811.54" style="stroke:#000000;stroke-width:6.48"/>
	<text x="4131.68" y="2912.86" style="font-family:'Helvetica';font-size:112.56px;fill:#000000" text-anchor="middle">.6</text>
	<text x="2359.63" y="3070.31" style="font-family:'Helvetica';font-size:112.56px;fill:#000000" text-anchor="middle">x</text>
	<rect x="4411.63" y="1256.34" width="836.16" height="367.20" style="fill:#FFFFFF"/>
	<rect x="4414.87" y="1259.58" width="829.68" height="360.72" style="fill:none;stroke:#FFFFFF;stroke-width:6.48"/>
	<line x1="4460.23" y1="1361.31" x2="4719.43" y2="1361.31" style="stroke:#1A85FF;stroke-width:9.72"/>
	<line x1="4460.23" y1="1518.75" x2="4719.43" y2="1518.75" style="stroke:#D41159;stroke-width:9.72"/>
	<text x="4786.93" y="1400.74" style="font-family:'Helvetica';font-size:112.56px;fill:#000000">Logistic</text>
	<text x="4786.93" y="1558.19" style="font-family:'Helvetica';font-size:112.56px;fill:#000000">Poisson</text>
</svg>
