<?xml version="1.0" encoding="UTF-8" standalone="no"?>
<!-- This is a Stata 18.0 generated SVG file (http://www.stata.com) -->

<svg version="1.1" width="7.500in" height="4.500in" viewBox="0 0 5400 3240" xmlns="http://www.w3.org/2000/svg" xmlns:xlink="http://www.w3.org/1999/xlink">
	<desc>Stata Graph - Graph</desc>
	<rect x="0" y="0" width="5400" height="3240" style="fill:#FFFFFF;stroke:none"/>
	<rect x="0.00" y="0.00" width="5400.00" height="3240.00" style="fill:#FFFFFF"/>
	<rect x="3.24" y="3.24" width="5393.52" height="3233.52" style="fill:none;stroke:#FFFFFF;stroke-width:6.48"/>
	<rect x="346.95" y="113.40" width="4017.77" height="2653.26" style="fill:#FFFFFF"/>
	<rect x="350.19" y="116.64" width="4011.29" height="2646.78" style="fill:none;stroke:#FFFFFF;stroke-width:6.48"/>
	<line x1="346.95" y1="2695.28" x2="411.75" y2="2695.28" style="stroke:#F0F0F0;stroke-width:9.72"/>
	<line x1="444.15" y1="2695.28" x2="508.95" y2="2695.28" style="stroke:#F0F0F0;stroke-width:9.72"/>
	<line x1="541.35" y1="2695.28" x2="606.15" y2="2695.28" style="stroke:#F0F0F0;stroke-width:9.72"/>
	<line x1="638.55" y1="2695.28" x2="703.35" y2="2695.28" style="stroke:#F0F0F0;stroke-width:9.72"/>
	<line x1="735.75" y1="2695.28" x2="800.55" y2="2695.28" style="stroke:#F0F0F0;stroke-width:9.72"/>
	<line x1="832.95" y1="2695.28" x2="897.75" y2="2695.28" style="stroke:#F0F0F0;stroke-width:9.72"/>
	<line x1="930.15" y1="2695.28" x2="994.95" y2="2695.28" style="stroke:#F0F0F0;stroke-width:9.72"/>
	<line x1="1027.35" y1="2695.28" x2="1092.15" y2="2695.28" style="stroke:#F0F0F0;stroke-width:9.72"/>
	<line x1="1124.55" y1="2695.28" x2="1189.35" y2="2695.28" style="stroke:#F0F0F0;stroke-width:9.72"/>
	<line x1="1221.75" y1="2695.28" x2="1286.55" y2="2695.28" style="stroke:#F0F0F0;stroke-width:9.72"/>
	<line x1="1318.95" y1="2695.28" x2="1383.75" y2="2695.28" style="stroke:#F0F0F0;stroke-width:9.72"/>
	<line x1="1416.15" y1="2695.28" x2="1480.95" y2="2695.28" style="stroke:#F0F0F0;stroke-width:9.72"/>
	<line x1="1513.35" y1="2695.28" x2="1578.15" y2="2695.28" style="stroke:#F0F0F0;stroke-width:9.72"/>
	<line x1="1610.55" y1="2695.28" x2="1675.35" y2="2695.28" style="stroke:#F0F0F0;stroke-width:9.72"/>
	<line x1="1707.75" y1="2695.28" x2="1772.55" y2="2695.28" style="stroke:#F0F0F0;stroke-width:9.72"/>
	<line x1="1804.95" y1="2695.28" x2="1869.75" y2="2695.28" style="stroke:#F0F0F0;stroke-width:9.72"/>
	<line x1="1902.15" y1="2695.28" x2="1966.95" y2="2695.28" style="stroke:#F0F0F0;stroke-width:9.72"/>
	<line x1="1999.35" y1="2695.28" x2="2064.15" y2="2695.28" style="stroke:#F0F0F0;stroke-width:9.72"/>
	<line x1="2096.55" y1="2695.28" x2="2161.35" y2="2695.28" style="stroke:#F0F0F0;stroke-width:9.72"/>
	<line x1="2193.75" y1="2695.28" x2="2258.55" y2="2695.28" style="stroke:#F0F0F0;stroke-width:9.72"/>
	<line x1="2290.95" y1="2695.28" x2="2355.75" y2="2695.28" style="stroke:#F0F0F0;stroke-width:9.72"/>
	<line x1="2388.15" y1="2695.28" x2="2452.95" y2="2695.28" style="stroke:#F0F0F0;stroke-width:9.72"/>
	<line x1="2485.35" y1="2695.28" x2="2550.15" y2="2695.28" style="stroke:#F0F0F0;stroke-width:9.72"/>
	<line x1="2582.55" y1="2695.28" x2="2647.35" y2="2695.28" style="stroke:#F0F0F0;stroke-width:9.72"/>
	<line x1="2679.75" y1="2695.28" x2="2744.55" y2="2695.28" style="stroke:#F0F0F0;stroke-width:9.72"/>
	<line x1="2776.95" y1="2695.28" x2="2841.75" y2="2695.28" style="stroke:#F0F0F0;stroke-width:9.72"/>
	<line x1="2874.15" y1="2695.28" x2="2938.95" y2="2695.28" style="stroke:#F0F0F0;stroke-width:9.72"/>
	<line x1="2971.35" y1="2695.28" x2="3036.15" y2="2695.28" style="stroke:#F0F0F0;stroke-width:9.72"/>
	<line x1="3068.55" y1="2695.28" x2="3133.35" y2="2695.28" style="stroke:#F0F0F0;stroke-width:9.72"/>
	<line x1="3165.75" y1="2695.28" x2="3230.55" y2="2695.28" style="stroke:#F0F0F0;stroke-width:9.72"/>
	<line x1="3262.95" y1="2695.28" x2="3327.75" y2="2695.28" style="stroke:#F0F0F0;stroke-width:9.72"/>
	<line x1="3360.15" y1="2695.28" x2="3424.95" y2="2695.28" style="stroke:#F0F0F0;stroke-width:9.72"/>
	<line x1="3457.35" y1="2695.28" x2="3522.15" y2="2695.28" style="stroke:#F0F0F0;stroke-width:9.72"/>
	<line x1="3554.55" y1="2695.28" x2="3619.35" y2="2695.28" style="stroke:#F0F0F0;stroke-width:9.72"/>
	<line x1="3651.75" y1="2695.28" x2="3716.55" y2="2695.28" style="stroke:#F0F0F0;stroke-width:9.72"/>
	<line x1="3748.95" y1="2695.28" x2="3813.75" y2="2695.28" style="stroke:#F0F0F0;stroke-width:9.72"/>
	<line x1="3846.15" y1="2695.28" x2="3910.95" y2="2695.28" style="stroke:#F0F0F0;stroke-width:9.72"/>
	<line x1="3943.35" y1="2695.28" x2="4008.15" y2="2695.28" style="stroke:#F0F0F0;stroke-width:9.72"/>
	<line x1="4040.55" y1="2695.28" x2="4105.35" y2="2695.28" style="stroke:#F0F0F0;stroke-width:9.72"/>
	<line x1="4137.75" y1="2695.28" x2="4202.55" y2="2695.28" style="stroke:#F0F0F0;stroke-width:9.72"/>
	<line x1="4234.95" y1="2695.28" x2="4299.75" y2="2695.28" style="stroke:#F0F0F0;stroke-width:9.72"/>
	<line x1="4332.15" y1="2695.28" x2="4364.72" y2="2695.28" style="stroke:#F0F0F0;stroke-width:9.72"/>
	<line x1="346.95" y1="2067.69" x2="411.75" y2="2067.69" style="stroke:#F0F0F0;stroke-width:9.72"/>
	<line x1="444.15" y1="2067.69" x2="508.95" y2="2067.69" style="stroke:#F0F0F0;stroke-width:9.72"/>
	<line x1="541.35" y1="2067.69" x2="606.15" y2="2067.69" style="stroke:#F0F0F0;stroke-width:9.72"/>
	<line x1="638.55" y1="2067.69" x2="703.35" y2="2067.69" style="stroke:#F0F0F0;stroke-width:9.72"/>
	<line x1="735.75" y1="2067.69" x2="800.55" y2="2067.69" style="stroke:#F0F0F0;stroke-width:9.72"/>
	<line x1="832.95" y1="2067.69" x2="897.75" y2="2067.69" style="stroke:#F0F0F0;stroke-width:9.72"/>
	<line x1="930.15" y1="2067.69" x2="994.95" y2="2067.69" style="stroke:#F0F0F0;stroke-width:9.72"/>
	<line x1="1027.35" y1="2067.69" x2="1092.15" y2="2067.69" style="stroke:#F0F0F0;stroke-width:9.72"/>
	<line x1="1124.55" y1="2067.69" x2="1189.35" y2="2067.69" style="stroke:#F0F0F0;stroke-width:9.72"/>
	<line x1="1221.75" y1="2067.69" x2="1286.55" y2="2067.69" style="stroke:#F0F0F0;stroke-width:9.72"/>
	<line x1="1318.95" y1="2067.69" x2="1383.75" y2="2067.69" style="stroke:#F0F0F0;stroke-width:9.72"/>
	<line x1="1416.15" y1="2067.69" x2="1480.95" y2="2067.69" style="stroke:#F0F0F0;stroke-width:9.72"/>
	<line x1="1513.35" y1="2067.69" x2="1578.15" y2="2067.69" style="stroke:#F0F0F0;stroke-width:9.72"/>
	<line x1="1610.55" y1="2067.69" x2="1675.35" y2="2067.69" style="stroke:#F0F0F0;stroke-width:9.72"/>
	<line x1="1707.75" y1="2067.69" x2="1772.55" y2="2067.69" style="stroke:#F0F0F0;stroke-width:9.72"/>
	<line x1="1804.95" y1="2067.69" x2="1869.75" y2="2067.69" style="stroke:#F0F0F0;stroke-width:9.72"/>
	<line x1="1902.15" y1="2067.69" x2="1966.95" y2="2067.69" style="stroke:#F0F0F0;stroke-width:9.72"/>
	<line x1="1999.35" y1="2067.69" x2="2064.15" y2="2067.69" style="stroke:#F0F0F0;stroke-width:9.72"/>
	<line x1="2096.55" y1="2067.69" x2="2161.35" y2="2067.69" style="stroke:#F0F0F0;stroke-width:9.72"/>
	<line x1="2193.75" y1="2067.69" x2="2258.55" y2="2067.69" style="stroke:#F0F0F0;stroke-width:9.72"/>
	<line x1="2290.95" y1="2067.69" x2="2355.75" y2="2067.69" style="stroke:#F0F0F0;stroke-width:9.72"/>
	<line x1="2388.15" y1="2067.69" x2="2452.95" y2="2067.69" style="stroke:#F0F0F0;stroke-width:9.72"/>
	<line x1="2485.35" y1="2067.69" x2="2550.15" y2="2067.69" style="stroke:#F0F0F0;stroke-width:9.72"/>
	<line x1="2582.55" y1="2067.69" x2="2647.35" y2="2067.69" style="stroke:#F0F0F0;stroke-width:9.72"/>
	<line x1="2679.75" y1="2067.69" x2="2744.55" y2="2067.69" style="stroke:#F0F0F0;stroke-width:9.72"/>
	<line x1="2776.95" y1="2067.69" x2="2841.75" y2="2067.69" style="stroke:#F0F0F0;stroke-width:9.72"/>
	<line x1="2874.15" y1="2067.69" x2="2938.95" y2="2067.69" style="stroke:#F0F0F0;stroke-width:9.72"/>
	<line x1="2971.35" y1="2067.69" x2="3036.15" y2="2067.69" style="stroke:#F0F0F0;stroke-width:9.72"/>
	<line x1="3068.55" y1="2067.69" x2="3133.35" y2="2067.69" style="stroke:#F0F0F0;stroke-width:9.72"/>
	<line x1="3165.75" y1="2067.69" x2="3230.55" y2="2067.69" style="stroke:#F0F0F0;stroke-width:9.72"/>
	<line x1="3262.95" y1="2067.69" x2="3327.75" y2="2067.69" style="stroke:#F0F0F0;stroke-width:9.72"/>
	<line x1="3360.15" y1="2067.69" x2="3424.95" y2="2067.69" style="stroke:#F0F0F0;stroke-width:9.72"/>
	<line x1="3457.35" y1="2067.69" x2="3522.15" y2="2067.69" style="stroke:#F0F0F0;stroke-width:9.72"/>
	<line x1="3554.55" y1="2067.69" x2="3619.35" y2="2067.69" style="stroke:#F0F0F0;stroke-width:9.72"/>
	<line x1="3651.75" y1="2067.69" x2="3716.55" y2="2067.69" style="stroke:#F0F0F0;stroke-width:9.72"/>
	<line x1="3748.95" y1="2067.69" x2="3813.75" y2="2067.69" style="stroke:#F0F0F0;stroke-width:9.72"/>
	<line x1="3846.15" y1="2067.69" x2="3910.95" y2="2067.69" style="stroke:#F0F0F0;stroke-width:9.72"/>
	<line x1="3943.35" y1="2067.69" x2="4008.15" y2="2067.69" style="stroke:#F0F0F0;stroke-width:9.72"/>
	<line x1="4040.55" y1="2067.69" x2="4105.35" y2="2067.69" style="stroke:#F0F0F0;stroke-width:9.72"/>
	<line x1="4137.75" y1="2067.69" x2="4202.55" y2="2067.69" style="stroke:#F0F0F0;stroke-width:9.72"/>
	<line x1="4234.95" y1="2067.69" x2="4299.75" y2="2067.69" style="stroke:#F0F0F0;stroke-width:9.72"/>
	<line x1="4332.15" y1="2067.69" x2="4364.72" y2="2067.69" style="stroke:#F0F0F0;stroke-width:9.72"/>
	<line x1="346.95" y1="1439.94" x2="411.75" y2="1439.94" style="stroke:#F0F0F0;stroke-width:9.72"/>
	<line x1="444.15" y1="1439.94" x2="508.95" y2="1439.94" style="stroke:#F0F0F0;stroke-width:9.72"/>
	<line x1="541.35" y1="1439.94" x2="606.15" y2="1439.94" style="stroke:#F0F0F0;stroke-width:9.72"/>
	<line x1="638.55" y1="1439.94" x2="703.35" y2="1439.94" style="stroke:#F0F0F0;stroke-width:9.72"/>
	<line x1="735.75" y1="1439.94" x2="800.55" y2="1439.94" style="stroke:#F0F0F0;stroke-width:9.72"/>
	<line x1="832.95" y1="1439.94" x2="897.75" y2="1439.94" style="stroke:#F0F0F0;stroke-width:9.72"/>
	<line x1="930.15" y1="1439.94" x2="994.95" y2="1439.94" style="stroke:#F0F0F0;stroke-width:9.72"/>
	<line x1="1027.35" y1="1439.94" x2="1092.15" y2="1439.94" style="stroke:#F0F0F0;stroke-width:9.72"/>
	<line x1="1124.55" y1="1439.94" x2="1189.35" y2="1439.94" style="stroke:#F0F0F0;stroke-width:9.72"/>
	<line x1="1221.75" y1="1439.94" x2="1286.55" y2="1439.94" style="stroke:#F0F0F0;stroke-width:9.72"/>
	<line x1="1318.95" y1="1439.94" x2="1383.75" y2="1439.94" style="stroke:#F0F0F0;stroke-width:9.72"/>
	<line x1="1416.15" y1="1439.94" x2="1480.95" y2="1439.94" style="stroke:#F0F0F0;stroke-width:9.72"/>
	<line x1="1513.35" y1="1439.94" x2="1578.15" y2="1439.94" style="stroke:#F0F0F0;stroke-width:9.72"/>
	<line x1="1610.55" y1="1439.94" x2="1675.35" y2="1439.94" style="stroke:#F0F0F0;stroke-width:9.72"/>
	<line x1="1707.75" y1="1439.94" x2="1772.55" y2="1439.94" style="stroke:#F0F0F0;stroke-width:9.72"/>
	<line x1="1804.95" y1="1439.94" x2="1869.75" y2="1439.94" style="stroke:#F0F0F0;stroke-width:9.72"/>
	<line x1="1902.15" y1="1439.94" x2="1966.95" y2="1439.94" style="stroke:#F0F0F0;stroke-width:9.72"/>
	<line x1="1999.35" y1="1439.94" x2="2064.15" y2="1439.94" style="stroke:#F0F0F0;stroke-width:9.72"/>
	<line x1="2096.55" y1="1439.94" x2="2161.35" y2="1439.94" style="stroke:#F0F0F0;stroke-width:9.72"/>
	<line x1="2193.75" y1="1439.94" x2="2258.55" y2="1439.94" style="stroke:#F0F0F0;stroke-width:9.72"/>
	<line x1="2290.95" y1="1439.94" x2="2355.75" y2="1439.94" style="stroke:#F0F0F0;stroke-width:9.72"/>
	<line x1="2388.15" y1="1439.94" x2="2452.95" y2="1439.94" style="stroke:#F0F0F0;stroke-width:9.72"/>
	<line x1="2485.35" y1="1439.94" x2="2550.15" y2="1439.94" style="stroke:#F0F0F0;stroke-width:9.72"/>
	<line x1="2582.55" y1="1439.94" x2="2647.35" y2="1439.94" style="stroke:#F0F0F0;stroke-width:9.72"/>
	<line x1="2679.75" y1="1439.94" x2="2744.55" y2="1439.94" style="stroke:#F0F0F0;stroke-width:9.72"/>
	<line x1="2776.95" y1="1439.94" x2="2841.75" y2="1439.94" style="stroke:#F0F0F0;stroke-width:9.72"/>
	<line x1="2874.15" y1="1439.94" x2="2938.95" y2="1439.94" style="stroke:#F0F0F0;stroke-width:9.72"/>
	<line x1="2971.35" y1="1439.94" x2="3036.15" y2="1439.94" style="stroke:#F0F0F0;stroke-width:9.72"/>
	<line x1="3068.55" y1="1439.94" x2="3133.35" y2="1439.94" style="stroke:#F0F0F0;stroke-width:9.72"/>
	<line x1="3165.75" y1="1439.94" x2="3230.55" y2="1439.94" style="stroke:#F0F0F0;stroke-width:9.72"/>
	<line x1="3262.95" y1="1439.94" x2="3327.75" y2="1439.94" style="stroke:#F0F0F0;stroke-width:9.72"/>
	<line x1="3360.15" y1="1439.94" x2="3424.95" y2="1439.94" style="stroke:#F0F0F0;stroke-width:9.72"/>
	<line x1="3457.35" y1="1439.94" x2="3522.15" y2="1439.94" style="stroke:#F0F0F0;stroke-width:9.72"/>
	<line x1="3554.55" y1="1439.94" x2="3619.35" y2="1439.94" style="stroke:#F0F0F0;stroke-width:9.72"/>
	<line x1="3651.75" y1="1439.94" x2="3716.55" y2="1439.94" style="stroke:#F0F0F0;stroke-width:9.72"/>
	<line x1="3748.95" y1="1439.94" x2="3813.75" y2="1439.94" style="stroke:#F0F0F0;stroke-width:9.72"/>
	<line x1="3846.15" y1="1439.94" x2="3910.95" y2="1439.94" style="stroke:#F0F0F0;stroke-width:9.72"/>
	<line x1="3943.35" y1="1439.94" x2="4008.15" y2="1439.94" style="stroke:#F0F0F0;stroke-width:9.72"/>
	<line x1="4040.55" y1="1439.94" x2="4105.35" y2="1439.94" style="stroke:#F0F0F0;stroke-width:9.72"/>
	<line x1="4137.75" y1="1439.94" x2="4202.55" y2="1439.94" style="stroke:#F0F0F0;stroke-width:9.72"/>
	<line x1="4234.95" y1="1439.94" x2="4299.75" y2="1439.94" style="stroke:#F0F0F0;stroke-width:9.72"/>
	<line x1="4332.15" y1="1439.94" x2="4364.72" y2="1439.94" style="stroke:#F0F0F0;stroke-width:9.72"/>
	<line x1="346.95" y1="812.36" x2="411.75" y2="812.36" style="stroke:#F0F0F0;stroke-width:9.72"/>
	<line x1="444.15" y1="812.36" x2="508.95" y2="812.36" style="stroke:#F0F0F0;stroke-width:9.72"/>
	<line x1="541.35" y1="812.36" x2="606.15" y2="812.36" style="stroke:#F0F0F0;stroke-width:9.72"/>
	<line x1="638.55" y1="812.36" x2="703.35" y2="812.36" style="stroke:#F0F0F0;stroke-width:9.72"/>
	<line x1="735.75" y1="812.36" x2="800.55" y2="812.36" style="stroke:#F0F0F0;stroke-width:9.72"/>
	<line x1="832.95" y1="812.36" x2="897.75" y2="812.36" style="stroke:#F0F0F0;stroke-width:9.72"/>
	<line x1="930.15" y1="812.36" x2="994.95" y2="812.36" style="stroke:#F0F0F0;stroke-width:9.72"/>
	<line x1="1027.35" y1="812.36" x2="1092.15" y2="812.36" style="stroke:#F0F0F0;stroke-width:9.72"/>
	<line x1="1124.55" y1="812.36" x2="1189.35" y2="812.36" style="stroke:#F0F0F0;stroke-width:9.72"/>
	<line x1="1221.75" y1="812.36" x2="1286.55" y2="812.36" style="stroke:#F0F0F0;stroke-width:9.72"/>
	<line x1="1318.95" y1="812.36" x2="1383.75" y2="812.36" style="stroke:#F0F0F0;stroke-width:9.72"/>
	<line x1="1416.15" y1="812.36" x2="1480.95" y2="812.36" style="stroke:#F0F0F0;stroke-width:9.72"/>
	<line x1="1513.35" y1="812.36" x2="1578.15" y2="812.36" style="stroke:#F0F0F0;stroke-width:9.72"/>
	<line x1="1610.55" y1="812.36" x2="1675.35" y2="812.36" style="stroke:#F0F0F0;stroke-width:9.72"/>
	<line x1="1707.75" y1="812.36" x2="1772.55" y2="812.36" style="stroke:#F0F0F0;stroke-width:9.72"/>
	<line x1="1804.95" y1="812.36" x2="1869.75" y2="812.36" style="stroke:#F0F0F0;stroke-width:9.72"/>
	<line x1="1902.15" y1="812.36" x2="1966.95" y2="812.36" style="stroke:#F0F0F0;stroke-width:9.72"/>
	<line x1="1999.35" y1="812.36" x2="2064.15" y2="812.36" style="stroke:#F0F0F0;stroke-width:9.72"/>
	<line x1="2096.55" y1="812.36" x2="2161.35" y2="812.36" style="stroke:#F0F0F0;stroke-width:9.72"/>
	<line x1="2193.75" y1="812.36" x2="2258.55" y2="812.36" style="stroke:#F0F0F0;stroke-width:9.72"/>
	<line x1="2290.95" y1="812.36" x2="2355.75" y2="812.36" style="stroke:#F0F0F0;stroke-width:9.72"/>
	<line x1="2388.15" y1="812.36" x2="2452.95" y2="812.36" style="stroke:#F0F0F0;stroke-width:9.72"/>
	<line x1="2485.35" y1="812.36" x2="2550.15" y2="812.36" style="stroke:#F0F0F0;stroke-width:9.72"/>
	<line x1="2582.55" y1="812.36" x2="2647.35" y2="812.36" style="stroke:#F0F0F0;stroke-width:9.72"/>
	<line x1="2679.75" y1="812.36" x2="2744.55" y2="812.36" style="stroke:#F0F0F0;stroke-width:9.72"/>
	<line x1="2776.95" y1="812.36" x2="2841.75" y2="812.36" style="stroke:#F0F0F0;stroke-width:9.72"/>
	<line x1="2874.15" y1="812.36" x2="2938.95" y2="812.36" style="stroke:#F0F0F0;stroke-width:9.72"/>
	<line x1="2971.35" y1="812.36" x2="3036.15" y2="812.36" style="stroke:#F0F0F0;stroke-width:9.72"/>
	<line x1="3068.55" y1="812.36" x2="3133.35" y2="812.36" style="stroke:#F0F0F0;stroke-width:9.72"/>
	<line x1="3165.75" y1="812.36" x2="3230.55" y2="812.36" style="stroke:#F0F0F0;stroke-width:9.72"/>
	<line x1="3262.95" y1="812.36" x2="3327.75" y2="812.36" style="stroke:#F0F0F0;stroke-width:9.72"/>
	<line x1="3360.15" y1="812.36" x2="3424.95" y2="812.36" style="stroke:#F0F0F0;stroke-width:9.72"/>
	<line x1="3457.35" y1="812.36" x2="3522.15" y2="812.36" style="stroke:#F0F0F0;stroke-width:9.72"/>
	<line x1="3554.55" y1="812.36" x2="3619.35" y2="812.36" style="stroke:#F0F0F0;stroke-width:9.72"/>
	<line x1="3651.75" y1="812.36" x2="3716.55" y2="812.36" style="stroke:#F0F0F0;stroke-width:9.72"/>
	<line x1="3748.95" y1="812.36" x2="3813.75" y2="812.36" style="stroke:#F0F0F0;stroke-width:9.72"/>
	<line x1="3846.15" y1="812.36" x2="3910.95" y2="812.36" style="stroke:#F0F0F0;stroke-width:9.72"/>
	<line x1="3943.35" y1="812.36" x2="4008.15" y2="812.36" style="stroke:#F0F0F0;stroke-width:9.72"/>
	<line x1="4040.55" y1="812.36" x2="4105.35" y2="812.36" style="stroke:#F0F0F0;stroke-width:9.72"/>
	<line x1="4137.75" y1="812.36" x2="4202.55" y2="812.36" style="stroke:#F0F0F0;stroke-width:9.72"/>
	<line x1="4234.95" y1="812.36" x2="4299.75" y2="812.36" style="stroke:#F0F0F0;stroke-width:9.72"/>
	<line x1="4332.15" y1="812.36" x2="4364.72" y2="812.36" style="stroke:#F0F0F0;stroke-width:9.72"/>
	<line x1="346.95" y1="184.61" x2="411.75" y2="184.61" style="stroke:#F0F0F0;stroke-width:9.72"/>
	<line x1="444.15" y1="184.61" x2="508.95" y2="184.61" style="stroke:#F0F0F0;stroke-width:9.72"/>
	<line x1="541.35" y1="184.61" x2="606.15" y2="184.61" style="stroke:#F0F0F0;stroke-width:9.72"/>
	<line x1="638.55" y1="184.61" x2="703.35" y2="184.61" style="stroke:#F0F0F0;stroke-width:9.72"/>
	<line x1="735.75" y1="184.61" x2="800.55" y2="184.61" style="stroke:#F0F0F0;stroke-width:9.72"/>
	<line x1="832.95" y1="184.61" x2="897.75" y2="184.61" style="stroke:#F0F0F0;stroke-width:9.72"/>
	<line x1="930.15" y1="184.61" x2="994.95" y2="184.61" style="stroke:#F0F0F0;stroke-width:9.72"/>
	<line x1="1027.35" y1="184.61" x2="1092.15" y2="184.61" style="stroke:#F0F0F0;stroke-width:9.72"/>
	<line x1="1124.55" y1="184.61" x2="1189.35" y2="184.61" style="stroke:#F0F0F0;stroke-width:9.72"/>
	<line x1="1221.75" y1="184.61" x2="1286.55" y2="184.61" style="stroke:#F0F0F0;stroke-width:9.72"/>
	<line x1="1318.95" y1="184.61" x2="1383.75" y2="184.61" style="stroke:#F0F0F0;stroke-width:9.72"/>
	<line x1="1416.15" y1="184.61" x2="1480.95" y2="184.61" style="stroke:#F0F0F0;stroke-width:9.72"/>
	<line x1="1513.35" y1="184.61" x2="1578.15" y2="184.61" style="stroke:#F0F0F0;stroke-width:9.72"/>
	<line x1="1610.55" y1="184.61" x2="1675.35" y2="184.61" style="stroke:#F0F0F0;stroke-width:9.72"/>
	<line x1="1707.75" y1="184.61" x2="1772.55" y2="184.61" style="stroke:#F0F0F0;stroke-width:9.72"/>
	<line x1="1804.95" y1="184.61" x2="1869.75" y2="184.61" style="stroke:#F0F0F0;stroke-width:9.72"/>
	<line x1="1902.15" y1="184.61" x2="1966.95" y2="184.61" style="stroke:#F0F0F0;stroke-width:9.72"/>
	<line x1="1999.35" y1="184.61" x2="2064.15" y2="184.61" style="stroke:#F0F0F0;stroke-width:9.72"/>
	<line x1="2096.55" y1="184.61" x2="2161.35" y2="184.61" style="stroke:#F0F0F0;stroke-width:9.72"/>
	<line x1="2193.75" y1="184.61" x2="2258.55" y2="184.61" style="stroke:#F0F0F0;stroke-width:9.72"/>
	<line x1="2290.95" y1="184.61" x2="2355.75" y2="184.61" style="stroke:#F0F0F0;stroke-width:9.72"/>
	<line x1="2388.15" y1="184.61" x2="2452.95" y2="184.61" style="stroke:#F0F0F0;stroke-width:9.72"/>
	<line x1="2485.35" y1="184.61" x2="2550.15" y2="184.61" style="stroke:#F0F0F0;stroke-width:9.72"/>
	<line x1="2582.55" y1="184.61" x2="2647.35" y2="184.61" style="stroke:#F0F0F0;stroke-width:9.72"/>
	<line x1="2679.75" y1="184.61" x2="2744.55" y2="184.61" style="stroke:#F0F0F0;stroke-width:9.72"/>
	<line x1="2776.95" y1="184.61" x2="2841.75" y2="184.61" style="stroke:#F0F0F0;stroke-width:9.72"/>
	<line x1="2874.15" y1="184.61" x2="2938.95" y2="184.61" style="stroke:#F0F0F0;stroke-width:9.72"/>
	<line x1="2971.35" y1="184.61" x2="3036.15" y2="184.61" style="stroke:#F0F0F0;stroke-width:9.72"/>
	<line x1="3068.55" y1="184.61" x2="3133.35" y2="184.61" style="stroke:#F0F0F0;stroke-width:9.72"/>
	<line x1="3165.75" y1="184.61" x2="3230.55" y2="184.61" style="stroke:#F0F0F0;stroke-width:9.72"/>
	<line x1="3262.95" y1="184.61" x2="3327.75" y2="184.61" style="stroke:#F0F0F0;stroke-width:9.72"/>
	<line x1="3360.15" y1="184.61" x2="3424.95" y2="184.61" style="stroke:#F0F0F0;stroke-width:9.72"/>
	<line x1="3457.35" y1="184.61" x2="3522.15" y2="184.61" style="stroke:#F0F0F0;stroke-width:9.72"/>
	<line x1="3554.55" y1="184.61" x2="3619.35" y2="184.61" style="stroke:#F0F0F0;stroke-width:9.72"/>
	<line x1="3651.75" y1="184.61" x2="3716.55" y2="184.61" style="stroke:#F0F0F0;stroke-width:9.72"/>
	<line x1="3748.95" y1="184.61" x2="3813.75" y2="184.61" style="stroke:#F0F0F0;stroke-width:9.72"/>
	<line x1="3846.15" y1="184.61" x2="3910.95" y2="184.61" style="stroke:#F0F0F0;stroke-width:9.72"/>
	<line x1="3943.35" y1="184.61" x2="4008.15" y2="184.61" style="stroke:#F0F0F0;stroke-width:9.72"/>
	<line x1="4040.55" y1="184.61" x2="4105.35" y2="184.61" style="stroke:#F0F0F0;stroke-width:9.72"/>
	<line x1="4137.75" y1="184.61" x2="4202.55" y2="184.61" style="stroke:#F0F0F0;stroke-width:9.72"/>
	<line x1="4234.95" y1="184.61" x2="4299.75" y2="184.61" style="stroke:#F0F0F0;stroke-width:9.72"/>
	<line x1="4332.15" y1="184.61" x2="4364.72" y2="184.61" style="stroke:#F0F0F0;stroke-width:9.72"/>
	<line x1="418.16" y1="2766.66" x2="418.16" y2="2701.86" style="stroke:#F0F0F0;stroke-width:9.72"/>
	<line x1="418.16" y1="2669.46" x2="418.16" y2="2604.66" style="stroke:#F0F0F0;stroke-width:9.72"/>
	<line x1="418.16" y1="2572.26" x2="418.16" y2="2507.46" style="stroke:#F0F0F0;stroke-width:9.72"/>
	<line x1="418.16" y1="2475.06" x2="418.16" y2="2410.26" style="stroke:#F0F0F0;stroke-width:9.72"/>
	<line x1="418.16" y1="2377.86" x2="418.16" y2="2313.06" style="stroke:#F0F0F0;stroke-width:9.72"/>
	<line x1="418.16" y1="2280.66" x2="418.16" y2="2215.86" style="stroke:#F0F0F0;stroke-width:9.72"/>
	<line x1="418.16" y1="2183.46" x2="418.16" y2="2118.66" style="stroke:#F0F0F0;stroke-width:9.72"/>
	<line x1="418.16" y1="2086.26" x2="418.16" y2="2021.46" style="stroke:#F0F0F0;stroke-width:9.72"/>
	<line x1="418.16" y1="1989.06" x2="418.16" y2="1924.26" style="stroke:#F0F0F0;stroke-width:9.72"/>
	<line x1="418.16" y1="1891.86" x2="418.16" y2="1827.06" style="stroke:#F0F0F0;stroke-width:9.72"/>
	<line x1="418.16" y1="1794.66" x2="418.16" y2="1729.86" style="stroke:#F0F0F0;stroke-width:9.72"/>
	<line x1="418.16" y1="1697.46" x2="418.16" y2="1632.66" style="stroke:#F0F0F0;stroke-width:9.72"/>
	<line x1="418.16" y1="1600.26" x2="418.16" y2="1535.46" style="stroke:#F0F0F0;stroke-width:9.72"/>
	<line x1="418.16" y1="1503.06" x2="418.16" y2="1438.26" style="stroke:#F0F0F0;stroke-width:9.72"/>
	<line x1="418.16" y1="1405.86" x2="418.16" y2="1341.06" style="stroke:#F0F0F0;stroke-width:9.72"/>
	<line x1="418.16" y1="1308.66" x2="418.16" y2="1243.86" style="stroke:#F0F0F0;stroke-width:9.72"/>
	<line x1="418.16" y1="1211.46" x2="418.16" y2="1146.66" style="stroke:#F0F0F0;stroke-width:9.72"/>
	<line x1="418.16" y1="1114.26" x2="418.16" y2="1049.46" style="stroke:#F0F0F0;stroke-width:9.72"/>
	<line x1="418.16" y1="1017.06" x2="418.16" y2="952.26" style="stroke:#F0F0F0;stroke-width:9.72"/>
	<line x1="418.16" y1="919.86" x2="418.16" y2="855.06" style="stroke:#F0F0F0;stroke-width:9.72"/>
	<line x1="418.16" y1="822.66" x2="418.16" y2="757.86" style="stroke:#F0F0F0;stroke-width:9.72"/>
	<line x1="418.16" y1="725.46" x2="418.16" y2="660.66" style="stroke:#F0F0F0;stroke-width:9.72"/>
	<line x1="418.16" y1="628.26" x2="418.16" y2="563.46" style="stroke:#F0F0F0;stroke-width:9.72"/>
	<line x1="418.16" y1="531.06" x2="418.16" y2="466.26" style="stroke:#F0F0F0;stroke-width:9.72"/>
	<line x1="418.16" y1="433.86" x2="418.16" y2="369.06" style="stroke:#F0F0F0;stroke-width:9.72"/>
	<line x1="418.16" y1="336.66" x2="418.16" y2="271.86" style="stroke:#F0F0F0;stroke-width:9.72"/>
	<line x1="418.16" y1="239.46" x2="418.16" y2="174.66" style="stroke:#F0F0F0;stroke-width:9.72"/>
	<line x1="418.16" y1="142.26" x2="418.16" y2="113.40" style="stroke:#F0F0F0;stroke-width:9.72"/>
	<line x1="1386.96" y1="2766.66" x2="1386.96" y2="2701.86" style="stroke:#F0F0F0;stroke-width:9.72"/>
	<line x1="1386.96" y1="2669.46" x2="1386.96" y2="2604.66" style="stroke:#F0F0F0;stroke-width:9.72"/>
	<line x1="1386.96" y1="2572.26" x2="1386.96" y2="2507.46" style="stroke:#F0F0F0;stroke-width:9.72"/>
	<line x1="1386.96" y1="2475.06" x2="1386.96" y2="2410.26" style="stroke:#F0F0F0;stroke-width:9.72"/>
	<line x1="1386.96" y1="2377.86" x2="1386.96" y2="2313.06" style="stroke:#F0F0F0;stroke-width:9.72"/>
	<line x1="1386.96" y1="2280.66" x2="1386.96" y2="2215.86" style="stroke:#F0F0F0;stroke-width:9.72"/>
	<line x1="1386.96" y1="2183.46" x2="1386.96" y2="2118.66" style="stroke:#F0F0F0;stroke-width:9.72"/>
	<line x1="1386.96" y1="2086.26" x2="1386.96" y2="2021.46" style="stroke:#F0F0F0;stroke-width:9.72"/>
	<line x1="1386.96" y1="1989.06" x2="1386.96" y2="1924.26" style="stroke:#F0F0F0;stroke-width:9.72"/>
	<line x1="1386.96" y1="1891.86" x2="1386.96" y2="1827.06" style="stroke:#F0F0F0;stroke-width:9.72"/>
	<line x1="1386.96" y1="1794.66" x2="1386.96" y2="1729.86" style="stroke:#F0F0F0;stroke-width:9.72"/>
	<line x1="1386.96" y1="1697.46" x2="1386.96" y2="1632.66" style="stroke:#F0F0F0;stroke-width:9.72"/>
	<line x1="1386.96" y1="1600.26" x2="1386.96" y2="1535.46" style="stroke:#F0F0F0;stroke-width:9.72"/>
	<line x1="1386.96" y1="1503.06" x2="1386.96" y2="1438.26" style="stroke:#F0F0F0;stroke-width:9.72"/>
	<line x1="1386.96" y1="1405.86" x2="1386.96" y2="1341.06" style="stroke:#F0F0F0;stroke-width:9.72"/>
	<line x1="1386.96" y1="1308.66" x2="1386.96" y2="1243.86" style="stroke:#F0F0F0;stroke-width:9.72"/>
	<line x1="1386.96" y1="1211.46" x2="1386.96" y2="1146.66" style="stroke:#F0F0F0;stroke-width:9.72"/>
	<line x1="1386.96" y1="1114.26" x2="1386.96" y2="1049.46" style="stroke:#F0F0F0;stroke-width:9.72"/>
	<line x1="1386.96" y1="1017.06" x2="1386.96" y2="952.26" style="stroke:#F0F0F0;stroke-width:9.72"/>
	<line x1="1386.96" y1="919.86" x2="1386.96" y2="855.06" style="stroke:#F0F0F0;stroke-width:9.72"/>
	<line x1="1386.96" y1="822.66" x2="1386.96" y2="757.86" style="stroke:#F0F0F0;stroke-width:9.72"/>
	<line x1="1386.96" y1="725.46" x2="1386.96" y2="660.66" style="stroke:#F0F0F0;stroke-width:9.72"/>
	<line x1="1386.96" y1="628.26" x2="1386.96" y2="563.46" style="stroke:#F0F0F0;stroke-width:9.72"/>
	<line x1="1386.96" y1="531.06" x2="1386.96" y2="466.26" style="stroke:#F0F0F0;stroke-width:9.72"/>
	<line x1="1386.96" y1="433.86" x2="1386.96" y2="369.06" style="stroke:#F0F0F0;stroke-width:9.72"/>
	<line x1="1386.96" y1="336.66" x2="1386.96" y2="271.86" style="stroke:#F0F0F0;stroke-width:9.72"/>
	<line x1="1386.96" y1="239.46" x2="1386.96" y2="174.66" style="stroke:#F0F0F0;stroke-width:9.72"/>
	<line x1="1386.96" y1="142.26" x2="1386.96" y2="113.40" style="stroke:#F0F0F0;stroke-width:9.72"/>
	<line x1="2355.75" y1="2766.66" x2="2355.75" y2="2701.86" style="stroke:#F0F0F0;stroke-width:9.72"/>
	<line x1="2355.75" y1="2669.46" x2="2355.75" y2="2604.66" style="stroke:#F0F0F0;stroke-width:9.72"/>
	<line x1="2355.75" y1="2572.26" x2="2355.75" y2="2507.46" style="stroke:#F0F0F0;stroke-width:9.72"/>
	<line x1="2355.75" y1="2475.06" x2="2355.75" y2="2410.26" style="stroke:#F0F0F0;stroke-width:9.72"/>
	<line x1="2355.75" y1="2377.86" x2="2355.75" y2="2313.06" style="stroke:#F0F0F0;stroke-width:9.72"/>
	<line x1="2355.75" y1="2280.66" x2="2355.75" y2="2215.86" style="stroke:#F0F0F0;stroke-width:9.72"/>
	<line x1="2355.75" y1="2183.46" x2="2355.75" y2="2118.66" style="stroke:#F0F0F0;stroke-width:9.72"/>
	<line x1="2355.75" y1="2086.26" x2="2355.75" y2="2021.46" style="stroke:#F0F0F0;stroke-width:9.72"/>
	<line x1="2355.75" y1="1989.06" x2="2355.75" y2="1924.26" style="stroke:#F0F0F0;stroke-width:9.72"/>
	<line x1="2355.75" y1="1891.86" x2="2355.75" y2="1827.06" style="stroke:#F0F0F0;stroke-width:9.72"/>
	<line x1="2355.75" y1="1794.66" x2="2355.75" y2="1729.86" style="stroke:#F0F0F0;stroke-width:9.72"/>
	<line x1="2355.75" y1="1697.46" x2="2355.75" y2="1632.66" style="stroke:#F0F0F0;stroke-width:9.72"/>
	<line x1="2355.75" y1="1600.26" x2="2355.75" y2="1535.46" style="stroke:#F0F0F0;stroke-width:9.72"/>
	<line x1="2355.75" y1="1503.06" x2="2355.75" y2="1438.26" style="stroke:#F0F0F0;stroke-width:9.72"/>
	<line x1="2355.75" y1="1405.86" x2="2355.75" y2="1341.06" style="stroke:#F0F0F0;stroke-width:9.72"/>
	<line x1="2355.75" y1="1308.66" x2="2355.75" y2="1243.86" style="stroke:#F0F0F0;stroke-width:9.72"/>
	<line x1="2355.75" y1="1211.46" x2="2355.75" y2="1146.66" style="stroke:#F0F0F0;stroke-width:9.72"/>
	<line x1="2355.75" y1="1114.26" x2="2355.75" y2="1049.46" style="stroke:#F0F0F0;stroke-width:9.72"/>
	<line x1="2355.75" y1="1017.06" x2="2355.75" y2="952.26" style="stroke:#F0F0F0;stroke-width:9.72"/>
	<line x1="2355.75" y1="919.86" x2="2355.75" y2="855.06" style="stroke:#F0F0F0;stroke-width:9.72"/>
	<line x1="2355.75" y1="822.66" x2="2355.75" y2="757.86" style="stroke:#F0F0F0;stroke-width:9.72"/>
	<line x1="2355.75" y1="725.46" x2="2355.75" y2="660.66" style="stroke:#F0F0F0;stroke-width:9.72"/>
	<line x1="2355.75" y1="628.26" x2="2355.75" y2="563.46" style="stroke:#F0F0F0;stroke-width:9.72"/>
	<line x1="2355.75" y1="531.06" x2="2355.75" y2="466.26" style="stroke:#F0F0F0;stroke-width:9.72"/>
	<line x1="2355.75" y1="433.86" x2="2355.75" y2="369.06" style="stroke:#F0F0F0;stroke-width:9.72"/>
	<line x1="2355.75" y1="336.66" x2="2355.75" y2="271.86" style="stroke:#F0F0F0;stroke-width:9.72"/>
	<line x1="2355.75" y1="239.46" x2="2355.75" y2="174.66" style="stroke:#F0F0F0;stroke-width:9.72"/>
	<line x1="2355.75" y1="142.26" x2="2355.75" y2="113.40" style="stroke:#F0F0F0;stroke-width:9.72"/>
	<line x1="3324.54" y1="2766.66" x2="3324.54" y2="2701.86" style="stroke:#F0F0F0;stroke-width:9.72"/>
	<line x1="3324.54" y1="2669.46" x2="3324.54" y2="2604.66" style="stroke:#F0F0F0;stroke-width:9.72"/>
	<line x1="3324.54" y1="2572.26" x2="3324.54" y2="2507.46" style="stroke:#F0F0F0;stroke-width:9.72"/>
	<line x1="3324.54" y1="2475.06" x2="3324.54" y2="2410.26" style="stroke:#F0F0F0;stroke-width:9.72"/>
	<line x1="3324.54" y1="2377.86" x2="3324.54" y2="2313.06" style="stroke:#F0F0F0;stroke-width:9.72"/>
	<line x1="3324.54" y1="2280.66" x2="3324.54" y2="2215.86" style="stroke:#F0F0F0;stroke-width:9.72"/>
	<line x1="3324.54" y1="2183.46" x2="3324.54" y2="2118.66" style="stroke:#F0F0F0;stroke-width:9.72"/>
	<line x1="3324.54" y1="2086.26" x2="3324.54" y2="2021.46" style="stroke:#F0F0F0;stroke-width:9.72"/>
	<line x1="3324.54" y1="1989.06" x2="3324.54" y2="1924.26" style="stroke:#F0F0F0;stroke-width:9.72"/>
	<line x1="3324.54" y1="1891.86" x2="3324.54" y2="1827.06" style="stroke:#F0F0F0;stroke-width:9.72"/>
	<line x1="3324.54" y1="1794.66" x2="3324.54" y2="1729.86" style="stroke:#F0F0F0;stroke-width:9.72"/>
	<line x1="3324.54" y1="1697.46" x2="3324.54" y2="1632.66" style="stroke:#F0F0F0;stroke-width:9.72"/>
	<line x1="3324.54" y1="1600.26" x2="3324.54" y2="1535.46" style="stroke:#F0F0F0;stroke-width:9.72"/>
	<line x1="3324.54" y1="1503.06" x2="3324.54" y2="1438.26" style="stroke:#F0F0F0;stroke-width:9.72"/>
	<line x1="3324.54" y1="1405.86" x2="3324.54" y2="1341.06" style="stroke:#F0F0F0;stroke-width:9.72"/>
	<line x1="3324.54" y1="1308.66" x2="3324.54" y2="1243.86" style="stroke:#F0F0F0;stroke-width:9.72"/>
	<line x1="3324.54" y1="1211.46" x2="3324.54" y2="1146.66" style="stroke:#F0F0F0;stroke-width:9.72"/>
	<line x1="3324.54" y1="1114.26" x2="3324.54" y2="1049.46" style="stroke:#F0F0F0;stroke-width:9.72"/>
	<line x1="3324.54" y1="1017.06" x2="3324.54" y2="952.26" style="stroke:#F0F0F0;stroke-width:9.72"/>
	<line x1="3324.54" y1="919.86" x2="3324.54" y2="855.06" style="stroke:#F0F0F0;stroke-width:9.72"/>
	<line x1="3324.54" y1="822.66" x2="3324.54" y2="757.86" style="stroke:#F0F0F0;stroke-width:9.72"/>
	<line x1="3324.54" y1="725.46" x2="3324.54" y2="660.66" style="stroke:#F0F0F0;stroke-width:9.72"/>
	<line x1="3324.54" y1="628.26" x2="3324.54" y2="563.46" style="stroke:#F0F0F0;stroke-width:9.72"/>
	<line x1="3324.54" y1="531.06" x2="3324.54" y2="466.26" style="stroke:#F0F0F0;stroke-width:9.72"/>
	<line x1="3324.54" y1="433.86" x2="3324.54" y2="369.06" style="stroke:#F0F0F0;stroke-width:9.72"/>
	<line x1="3324.54" y1="336.66" x2="3324.54" y2="271.86" style="stroke:#F0F0F0;stroke-width:9.72"/>
	<line x1="3324.54" y1="239.46" x2="3324.54" y2="174.66" style="stroke:#F0F0F0;stroke-width:9.72"/>
	<line x1="3324.54" y1="142.26" x2="3324.54" y2="113.40" style="stroke:#F0F0F0;stroke-width:9.72"/>
	<line x1="4293.51" y1="2766.66" x2="4293.51" y2="2701.86" style="stroke:#F0F0F0;stroke-width:9.72"/>
	<line x1="4293.51" y1="2669.46" x2="4293.51" y2="2604.66" style="stroke:#F0F0F0;stroke-width:9.72"/>
	<line x1="4293.51" y1="2572.26" x2="4293.51" y2="2507.46" style="stroke:#F0F0F0;stroke-width:9.72"/>
	<line x1="4293.51" y1="2475.06" x2="4293.51" y2="2410.26" style="stroke:#F0F0F0;stroke-width:9.72"/>
	<line x1="4293.51" y1="2377.86" x2="4293.51" y2="2313.06" style="stroke:#F0F0F0;stroke-width:9.72"/>
	<line x1="4293.51" y1="2280.66" x2="4293.51" y2="2215.86" style="stroke:#F0F0F0;stroke-width:9.72"/>
	<line x1="4293.51" y1="2183.46" x2="4293.51" y2="2118.66" style="stroke:#F0F0F0;stroke-width:9.72"/>
	<line x1="4293.51" y1="2086.26" x2="4293.51" y2="2021.46" style="stroke:#F0F0F0;stroke-width:9.72"/>
	<line x1="4293.51" y1="1989.06" x2="4293.51" y2="1924.26" style="stroke:#F0F0F0;stroke-width:9.72"/>
	<line x1="4293.51" y1="1891.86" x2="4293.51" y2="1827.06" style="stroke:#F0F0F0;stroke-width:9.72"/>
	<line x1="4293.51" y1="1794.66" x2="4293.51" y2="1729.86" style="stroke:#F0F0F0;stroke-width:9.72"/>
	<line x1="4293.51" y1="1697.46" x2="4293.51" y2="1632.66" style="stroke:#F0F0F0;stroke-width:9.72"/>
	<line x1="4293.51" y1="1600.26" x2="4293.51" y2="1535.46" style="stroke:#F0F0F0;stroke-width:9.72"/>
	<line x1="4293.51" y1="1503.06" x2="4293.51" y2="1438.26" style="stroke:#F0F0F0;stroke-width:9.72"/>
	<line x1="4293.51" y1="1405.86" x2="4293.51" y2="1341.06" style="stroke:#F0F0F0;stroke-width:9.72"/>
	<line x1="4293.51" y1="1308.66" x2="4293.51" y2="1243.86" style="stroke:#F0F0F0;stroke-width:9.72"/>
	<line x1="4293.51" y1="1211.46" x2="4293.51" y2="1146.66" style="stroke:#F0F0F0;stroke-width:9.72"/>
	<line x1="4293.51" y1="1114.26" x2="4293.51" y2="1049.46" style="stroke:#F0F0F0;stroke-width:9.72"/>
	<line x1="4293.51" y1="1017.06" x2="4293.51" y2="952.26" style="stroke:#F0F0F0;stroke-width:9.72"/>
	<line x1="4293.51" y1="919.86" x2="4293.51" y2="855.06" style="stroke:#F0F0F0;stroke-width:9.72"/>
	<line x1="4293.51" y1="822.66" x2="4293.51" y2="757.86" style="stroke:#F0F0F0;stroke-width:9.72"/>
	<line x1="4293.51" y1="725.46" x2="4293.51" y2="660.66" style="stroke:#F0F0F0;stroke-width:9.72"/>
	<line x1="4293.51" y1="628.26" x2="4293.51" y2="563.46" style="stroke:#F0F0F0;stroke-width:9.72"/>
	<line x1="4293.51" y1="531.06" x2="4293.51" y2="466.26" style="stroke:#F0F0F0;stroke-width:9.72"/>
	<line x1="4293.51" y1="433.86" x2="4293.51" y2="369.06" style="stroke:#F0F0F0;stroke-width:9.72"/>
	<line x1="4293.51" y1="336.66" x2="4293.51" y2="271.86" style="stroke:#F0F0F0;stroke-width:9.72"/>
	<line x1="4293.51" y1="239.46" x2="4293.51" y2="174.66" style="stroke:#F0F0F0;stroke-width:9.72"/>
	<line x1="4293.51" y1="142.26" x2="4293.51" y2="113.40" style="stroke:#F0F0F0;stroke-width:9.72"/>
	<line x1="2355.75" y1="2766.66" x2="2355.75" y2="2701.86" style="stroke:#000000;stroke-width:9.72"/>
	<line x1="2355.75" y1="2669.46" x2="2355.75" y2="2604.66" style="stroke:#000000;stroke-width:9.72"/>
	<line x1="2355.75" y1="2572.26" x2="2355.75" y2="2507.46" style="stroke:#000000;stroke-width:9.72"/>
	<line x1="2355.75" y1="2475.06" x2="2355.75" y2="2410.26" style="stroke:#000000;stroke-width:9.72"/>
	<line x1="2355.75" y1="2377.86" x2="2355.75" y2="2313.06" style="stroke:#000000;stroke-width:9.72"/>
	<line x1="2355.75" y1="2280.66" x2="2355.75" y2="2215.86" style="stroke:#000000;stroke-width:9.72"/>
	<line x1="2355.75" y1="2183.46" x2="2355.75" y2="2118.66" style="stroke:#000000;stroke-width:9.72"/>
	<line x1="2355.75" y1="2086.26" x2="2355.75" y2="2021.46" style="stroke:#000000;stroke-width:9.72"/>
	<line x1="2355.75" y1="1989.06" x2="2355.75" y2="1924.26" style="stroke:#000000;stroke-width:9.72"/>
	<line x1="2355.75" y1="1891.86" x2="2355.75" y2="1827.06" style="stroke:#000000;stroke-width:9.72"/>
	<line x1="2355.75" y1="1794.66" x2="2355.75" y2="1729.86" style="stroke:#000000;stroke-width:9.72"/>
	<line x1="2355.75" y1="1697.46" x2="2355.75" y2="1632.66" style="stroke:#000000;stroke-width:9.72"/>
	<line x1="2355.75" y1="1600.26" x2="2355.75" y2="1535.46" style="stroke:#000000;stroke-width:9.72"/>
	<line x1="2355.75" y1="1503.06" x2="2355.75" y2="1438.26" style="stroke:#000000;stroke-width:9.72"/>
	<line x1="2355.75" y1="1405.86" x2="2355.75" y2="1341.06" style="stroke:#000000;stroke-width:9.72"/>
	<line x1="2355.75" y1="1308.66" x2="2355.75" y2="1243.86" style="stroke:#000000;stroke-width:9.72"/>
	<line x1="2355.75" y1="1211.46" x2="2355.75" y2="1146.66" style="stroke:#000000;stroke-width:9.72"/>
	<line x1="2355.75" y1="1114.26" x2="2355.75" y2="1049.46" style="stroke:#000000;stroke-width:9.72"/>
	<line x1="2355.75" y1="1017.06" x2="2355.75" y2="952.26" style="stroke:#000000;stroke-width:9.72"/>
	<line x1="2355.75" y1="919.86" x2="2355.75" y2="855.06" style="stroke:#000000;stroke-width:9.72"/>
	<line x1="2355.75" y1="822.66" x2="2355.75" y2="757.86" style="stroke:#000000;stroke-width:9.72"/>
	<line x1="2355.75" y1="725.46" x2="2355.75" y2="660.66" style="stroke:#000000;stroke-width:9.72"/>
	<line x1="2355.75" y1="628.26" x2="2355.75" y2="563.46" style="stroke:#000000;stroke-width:9.72"/>
	<line x1="2355.75" y1="531.06" x2="2355.75" y2="466.26" style="stroke:#000000;stroke-width:9.72"/>
	<line x1="2355.75" y1="433.86" x2="2355.75" y2="369.06" style="stroke:#000000;stroke-width:9.72"/>
	<line x1="2355.75" y1="336.66" x2="2355.75" y2="271.86" style="stroke:#000000;stroke-width:9.72"/>
	<line x1="2355.75" y1="239.46" x2="2355.75" y2="174.66" style="stroke:#000000;stroke-width:9.72"/>
	<line x1="2355.75" y1="142.26" x2="2355.75" y2="113.40" style="stroke:#000000;stroke-width:9.72"/>
	<path d=" M924.41 2658.83 L933.86 2654.27 L943.31 2649.88 L952.59 2645.33 L962.04 2640.94 L971.33 2636.55 L980.78 2631.99 L990.06 2627.61 L999.51 2623.39 L1008.79 2618.83 L1018.24 2614.11 L1027.52 2609.55 L1036.97 2604.82 L1046.42 2599.93 L1055.70 2595.38 L1065.15 2591.32 L1074.43 2587.61 L1083.88 2583.56 L1093.16 2579.34 L1102.61 2575.80 L1111.89 2572.76 L1121.34 2570.23 L1130.63 2568.21 L1140.08 2565.00 L1149.53 2561.79 L1158.81 2558.25 L1168.26 2553.19 L1177.54 2548.46 L1186.99 2543.74 L1196.27 2539.18 L1205.72 2535.13 L1215.00 2530.41 L1224.45 2524.67 L1233.73 2518.93 L1243.18 2512.69 L1252.63 2505.60 L1261.91 2497.50 L1271.36 2489.57 L1280.64 2482.14 L1290.09 2474.89 L1299.38 2466.11 L1308.83 2456.83 L1318.11 2446.20 L1327.56 2435.91 L1336.84 2423.76 L1346.29 2411.78 L1355.74 2399.46 L1365.02 2387.64 L1374.47 2376.17 L1383.75 2362.50 L1393.20 2346.98 L1402.48 2330.61 L1411.93 2313.06 L1421.21 2296.18 L1430.66 2280.66 L1439.94 2266.14 L1449.39 2251.29 L1458.84 2235.26 L1468.13 2219.40 L1477.58 2203.37 L1486.86 2188.18 L1496.31 2173.50 L1505.59 2158.14 L1515.04 2143.13 L1524.32 2127.43 L1533.77 2112.75 L1543.05 2099.59 L1552.50 2085.75 L1561.95 2072.25 L1571.23 2056.89 L1580.68 2037.83 L1589.96 2018.25 L1599.41 1999.52 L1608.69 1978.59 L1618.14 1956.66 L1627.43 1933.37 L1636.88 1910.76 L1646.16 1887.30 L1655.61 1864.52 L1665.06 1841.57 L1674.34 1818.28 L1683.79 1793.14 L1693.07 1766.31 L1702.52 1738.80 L1711.80 1707.75 L1721.25 1675.35 L1730.53 1641.09 L1739.98 1606.33 L1749.26 1571.57 L1758.71 1534.95 L1768.16 1498.16 L1777.44 1460.36 L1786.89 1423.07 L1796.18 1383.92 L1805.63 1343.76 L1814.91 1302.92 L1824.36 1259.72 L1833.64 1216.18 L1843.09 1173.49 L1852.37 1129.61 L1861.82 1084.05 L1871.27 1038.66 L1880.55 994.44 L1890.00 952.09 L1899.28 910.74 L1908.73 870.58 L1918.01 829.07 L1927.46 789.41 L1936.74 749.59 L1946.19 709.26 L1955.48 669.94 L1964.93 632.98 L1974.38 597.54 L1983.66 562.78 L1993.11 529.71 L2002.39 502.88 L2011.84 482.63 L2021.12 462.71 L2030.57 445.84 L2039.85 429.30 L2049.30 412.93 L2058.58 396.22 L2068.03 381.04 L2077.48 362.81 L2086.76 345.77 L2096.21 327.88 L2105.49 311.18 L2114.94 296.49 L2124.23 284.68 L2133.68 275.23 L2142.96 270.51 L2152.41 268.82 L2161.69 268.14 L2171.14 267.47 L2180.59 266.96 L2189.87 267.97 L2199.32 268.99 L2208.60 270.17 L2218.05 268.48 L2227.33 262.57 L2236.78 259.88 L2246.06 255.49 L2255.51 253.46 L2264.79 250.26 L2274.24 246.21 L2283.69 244.01 L2292.98 238.61 L2302.43 234.22 L2311.71 230.34 L2321.16 228.49 L2330.44 227.98 L2339.89 229.50 L2349.17 234.73 L2358.62 240.13 L2367.90 247.89 L2377.35 255.99 L2386.80 265.28 L2396.08 273.38 L2405.53 280.13 L2414.81 278.78 L2424.26 274.89 L2433.54 268.65 L2442.99 262.91 L2452.28 258.53 L2461.73 258.19 L2471.01 260.89 L2480.46 267.64 L2489.91 273.88 L2499.19 282.99 L2508.64 294.81 L2517.92 307.13 L2527.37 319.78 L2536.65 333.96 L2546.10 346.61 L2555.38 362.14 L2564.83 378.17 L2574.11 392.18 L2583.56 408.38 L2593.01 426.77 L2602.29 447.36 L2611.74 470.98 L2621.03 498.66 L2630.48 529.54 L2639.76 563.79 L2649.21 601.26 L2658.49 640.91 L2667.94 682.76 L2677.22 723.94 L2686.67 758.70 L2696.12 790.59 L2705.40 822.66 L2714.85 852.02 L2724.13 880.71 L2733.58 907.71 L2742.86 934.54 L2752.31 964.24 L2761.59 993.94 L2771.04 1022.79 L2780.33 1053.00 L2789.78 1084.22 L2799.23 1118.14 L2808.51 1154.42 L2817.96 1191.21 L2827.24 1229.34 L2836.69 1268.66 L2845.97 1310.34 L2855.42 1350.34 L2864.70 1386.96 L2874.15 1423.24 L2883.43 1453.28 L2892.88 1482.13 L2902.33 1507.11 L2911.61 1531.91 L2921.06 1560.09 L2930.34 1588.95 L2939.79 1617.13 L2949.08 1645.82 L2958.53 1674.00 L2967.81 1701.17 L2977.26 1726.14 L2986.54 1749.09 L2995.99 1772.38 L3005.27 1796.85 L3014.72 1822.16 L3024.17 1848.83 L3033.45 1875.32 L3042.90 1898.27 L3052.18 1921.89 L3061.63 1944.68 L3070.91 1965.43 L3080.36 1983.49 L3089.64 2003.91 L3099.09 2025.68 L3108.38 2049.98 L3117.83 2074.28 L3127.28 2100.09 L3136.56 2126.42 L3146.01 2151.56 L3155.29 2171.81 L3164.74 2192.06 L3174.02 2210.79 L3183.47 2228.51 L3192.75 2244.38 L3202.20 2258.38 L3211.48 2271.54 L3220.93 2285.21 L3230.38 2298.38 L3239.66 2310.19 L3249.11 2322.00 L3258.39 2333.64 L3267.84 2345.63 L3277.13 2357.27 L3286.58 2368.91 L3295.86 2378.87 L3305.31 2388.99 L3314.59 2398.28 L3324.04 2406.38 L3333.49 2411.94 L3342.77 2416.50 L3352.22 2422.57 L3361.50 2429.49 L3370.95 2435.06 L3380.23 2440.29 L3389.68 2446.37 L3398.96 2453.79 L3408.41 2461.89 L3417.69 2470.33 L3427.14 2478.77 L3436.59 2486.53 L3445.88 2493.45 L3455.33 2498.68 L3464.61 2504.93 L3474.06 2512.18 L3483.34 2519.94 L3492.79 2527.54 L3502.07 2533.44 L3511.52 2538.00 L3520.80 2542.89 L3530.25 2547.96 L3539.70 2552.34 L3548.98 2555.89 L3558.43 2559.94 L3567.71 2564.66 L3577.16 2569.89 L3586.44 2575.13 L3595.89 2580.86 L3605.18 2587.28 L3614.63 2592.51 L3623.91 2597.57 L3633.36 2602.97 L3642.81 2608.20 L3652.09 2613.94 L3661.54 2619.00 L3670.82 2623.39 L3680.27 2627.44 L3689.55 2630.98 L3699.00 2634.69 L3708.28 2638.58 L3717.73 2642.96 L3727.01 2646.84" stroke-linejoin="round" style="fill:none;stroke:#1A85FF;stroke-width:9.72"/>
	<path d=" M919.52 2658.66 L928.63 2653.93 L937.91 2649.54 L947.19 2644.99 L956.31 2640.26 L965.59 2635.88 L974.87 2631.15 L983.98 2626.76 L993.26 2622.54 L1002.54 2617.82 L1011.66 2613.09 L1020.94 2608.54 L1030.22 2603.64 L1039.33 2598.75 L1048.61 2594.03 L1057.89 2589.98 L1067.01 2586.26 L1076.29 2582.38 L1085.57 2577.99 L1094.68 2574.28 L1103.96 2571.24 L1113.24 2568.54 L1122.36 2566.52 L1131.64 2563.82 L1140.92 2560.44 L1150.03 2556.90 L1159.31 2551.67 L1168.59 2546.94 L1177.71 2542.22 L1186.99 2537.49 L1196.27 2533.44 L1205.38 2529.23 L1214.66 2523.49 L1223.94 2517.92 L1233.06 2512.01 L1242.34 2504.59 L1251.62 2496.99 L1260.73 2488.89 L1270.01 2481.13 L1279.29 2474.21 L1288.41 2465.94 L1297.69 2456.83 L1306.80 2446.37 L1316.08 2436.24 L1325.36 2423.76 L1334.48 2411.27 L1343.76 2399.12 L1353.04 2386.97 L1362.15 2375.16 L1371.43 2361.82 L1380.71 2345.96 L1389.83 2329.93 L1399.11 2312.04 L1408.39 2294.66 L1417.50 2278.29 L1426.78 2263.11 L1436.06 2248.59 L1445.18 2232.39 L1454.46 2215.86 L1463.74 2199.32 L1472.85 2183.12 L1482.13 2168.27 L1491.41 2152.91 L1500.53 2137.73 L1509.81 2122.54 L1519.09 2106.84 L1528.20 2093.68 L1537.48 2079.84 L1546.76 2065.67 L1555.88 2051.83 L1565.16 2034.28 L1574.44 2014.54 L1583.55 1995.81 L1592.83 1975.22 L1602.11 1953.28 L1611.23 1929.99 L1620.51 1907.04 L1629.79 1883.42 L1638.90 1860.13 L1648.18 1836.68 L1657.46 1813.22 L1666.58 1788.41 L1675.86 1762.09 L1685.14 1734.92 L1694.25 1704.21 L1703.53 1670.79 L1712.81 1636.54 L1721.93 1600.43 L1731.21 1566.17 L1740.49 1529.04 L1749.60 1491.24 L1758.88 1453.28 L1768.16 1414.63 L1777.28 1376.16 L1786.56 1334.64 L1795.84 1293.97 L1804.95 1251.96 L1814.23 1207.41 L1823.51 1164.88 L1832.63 1120.33 L1841.91 1074.60 L1851.19 1028.87 L1860.30 982.97 L1869.58 938.93 L1878.86 896.23 L1887.98 855.90 L1897.26 813.88 L1906.37 772.71 L1915.65 732.54 L1924.93 692.21 L1934.04 652.22 L1943.33 614.25 L1952.61 577.63 L1961.72 543.71 L1971.00 508.44 L1980.28 478.74 L1989.39 455.79 L1998.68 436.05 L2007.96 417.32 L2017.07 401.12 L2026.35 384.07 L2035.63 366.53 L2044.74 351.68 L2054.03 335.31 L2063.31 316.57 L2072.42 300.54 L2081.70 284.01 L2090.98 267.30 L2100.09 253.80 L2109.38 242.83 L2118.66 235.74 L2127.77 233.21 L2137.05 231.86 L2146.33 232.20 L2155.44 230.85 L2164.73 231.19 L2174.01 231.69 L2183.12 232.54 L2192.40 232.71 L2201.68 227.31 L2210.79 223.26 L2220.07 217.86 L2229.36 216.00 L2238.47 212.79 L2247.75 207.56 L2257.03 205.54 L2266.14 200.47 L2275.43 195.41 L2284.71 191.19 L2293.82 188.49 L2303.10 186.30 L2312.38 189.00 L2321.49 193.22 L2330.78 197.10 L2340.06 203.68 L2349.17 211.28 L2358.45 219.38 L2367.73 228.82 L2376.84 235.41 L2386.13 237.77 L2395.41 234.06 L2404.52 227.98 L2413.80 222.07 L2423.08 217.18 L2432.19 215.16 L2441.48 217.01 L2450.76 222.58 L2459.87 227.98 L2469.15 236.25 L2478.43 246.04 L2487.54 256.84 L2496.82 269.66 L2505.94 285.19 L2515.22 297.17 L2524.50 312.53 L2533.61 329.06 L2542.89 344.08 L2552.18 360.11 L2561.29 377.83 L2570.57 398.25 L2579.85 421.03 L2588.96 447.69 L2598.24 478.41 L2607.53 512.32 L2616.64 549.11 L2625.92 589.61 L2635.20 631.63 L2644.31 673.82 L2653.59 712.97 L2662.88 746.21 L2671.99 778.78 L2681.27 808.65 L2690.55 839.36 L2699.66 867.04 L2708.94 894.38 L2718.23 924.07 L2727.34 955.46 L2736.62 986.18 L2745.90 1016.04 L2755.01 1047.26 L2764.29 1081.69 L2773.58 1118.81 L2782.69 1156.61 L2791.97 1194.41 L2801.25 1233.90 L2810.36 1275.41 L2819.64 1315.74 L2828.93 1353.88 L2838.04 1390.33 L2847.32 1423.07 L2856.60 1452.43 L2865.71 1479.60 L2874.99 1505.08 L2884.28 1532.76 L2893.39 1562.12 L2902.67 1592.49 L2911.95 1620.17 L2921.06 1649.53 L2930.34 1677.21 L2939.63 1701.17 L2948.74 1724.29 L2958.02 1748.25 L2967.30 1773.39 L2976.41 1798.37 L2985.69 1825.03 L2994.98 1851.53 L3004.09 1874.98 L3013.37 1899.45 L3022.65 1922.91 L3031.76 1943.66 L3041.04 1962.90 L3050.33 1983.32 L3059.44 2005.09 L3068.72 2029.22 L3078.00 2053.69 L3087.11 2080.01 L3096.39 2107.01 L3105.51 2132.83 L3114.79 2154.60 L3124.07 2176.03 L3133.18 2195.44 L3142.46 2213.49 L3151.74 2229.86 L3160.86 2244.04 L3170.14 2257.20 L3179.42 2271.38 L3188.53 2286.06 L3197.81 2299.22 L3207.09 2311.71 L3216.21 2323.52 L3225.49 2335.67 L3234.77 2348.66 L3243.88 2360.98 L3253.16 2371.44 L3262.44 2381.74 L3271.56 2390.85 L3280.84 2399.29 L3290.12 2404.86 L3299.23 2409.92 L3308.51 2416.16 L3317.79 2423.76 L3326.91 2430.51 L3336.19 2436.24 L3345.47 2442.82 L3354.58 2450.59 L3363.86 2458.86 L3373.14 2467.46 L3382.26 2476.91 L3391.54 2484.51 L3400.82 2490.92 L3409.93 2496.66 L3419.21 2503.24 L3428.49 2510.83 L3437.61 2518.59 L3446.89 2525.68 L3456.17 2531.59 L3465.28 2536.48 L3474.56 2542.05 L3483.84 2546.61 L3492.96 2550.49 L3502.24 2554.37 L3511.52 2558.59 L3520.63 2563.65 L3529.91 2569.05 L3539.19 2574.45 L3548.31 2580.53 L3557.59 2587.11 L3566.87 2592.34 L3575.98 2597.74 L3585.26 2603.31 L3594.54 2608.88 L3603.66 2614.78 L3612.94 2619.34 L3622.22 2623.05 L3631.33 2626.93 L3640.61 2630.48 L3649.89 2634.19 L3659.01 2638.41 L3668.29 2642.79 L3677.57 2646.34" stroke-linejoin="round" style="fill:none;stroke:#D41159;stroke-width:9.72"/>
	<line x1="346.95" y1="2766.66" x2="346.95" y2="113.40" style="stroke:#000000;stroke-width:6.48"/>
	<line x1="346.95" y1="2695.28" x2="301.89" y2="2695.28" style="stroke:#000000;stroke-width:6.48"/>
	<text x="279.45" y="2734.71" style="font-family:'Helvetica';font-size:112.56px;fill:#000000" text-anchor="end">0</text>
	<line x1="346.95" y1="2067.69" x2="301.89" y2="2067.69" style="stroke:#000000;stroke-width:6.48"/>
	<text x="279.45" y="2107.13" style="font-family:'Helvetica';font-size:112.56px;fill:#000000" text-anchor="end">1</text>
	<line x1="346.95" y1="1439.94" x2="301.89" y2="1439.94" style="stroke:#000000;stroke-width:6.48"/>
	<text x="279.45" y="1479.38" style="font-family:'Helvetica';font-size:112.56px;fill:#000000" text-anchor="end">2</text>
	<line x1="346.95" y1="812.36" x2="301.89" y2="812.36" style="stroke:#000000;stroke-width:6.48"/>
	<text x="279.45" y="851.80" style="font-family:'Helvetica';font-size:112.56px;fill:#000000" text-anchor="end">3</text>
	<line x1="346.95" y1="184.61" x2="301.89" y2="184.61" style="stroke:#000000;stroke-width:6.48"/>
	<text x="279.45" y="224.05" style="font-family:'Helvetica';font-size:112.56px;fill:#000000" text-anchor="end">4</text>
	<line x1="346.95" y1="2766.66" x2="4364.72" y2="2766.66" style="stroke:#000000;stroke-width:6.48"/>
	<line x1="418.16" y1="2766.66" x2="418.16" y2="2811.54" style="stroke:#000000;stroke-width:6.48"/>
	<text x="418.16" y="2912.86" style="font-family:'Helvetica';font-size:112.56px;fill:#000000" text-anchor="middle">0</text>
	<line x1="1386.96" y1="2766.66" x2="1386.96" y2="2811.54" style="stroke:#000000;stroke-width:6.48"/>
	<text x="1386.96" y="2912.86" style="font-family:'Helvetica';font-size:112.56px;fill:#000000" text-anchor="middle">.2</text>
	<line x1="2355.75" y1="2766.66" x2="2355.75" y2="2811.54" style="stroke:#000000;stroke-width:6.48"/>
	<text x="2355.75" y="2912.86" style="font-family:'Helvetica';font-size:112.56px;fill:#000000" text-anchor="middle">.4</text>
	<line x1="3324.54" y1="2766.66" x2="3324.54" y2="2811.54" style="stroke:#000000;stroke-width:6.48"/>
	<text x="3324.54" y="2912.86" style="font-family:'Helvetica';font-size:112.56px;fill:#000000" text-anchor="middle">.6</text>
	<line x1="4293.51" y1="2766.66" x2="4293.51" y2="2811.54" style="stroke:#000000;stroke-width:6.48"/>
	<text x="4293.51" y="2912.86" style="font-family:'Helvetica';font-size:112.56px;fill:#000000" text-anchor="middle">.8</text>
	<text x="2355.75" y="3070.31" style="font-family:'Helvetica';font-size:112.56px;fill:#000000" text-anchor="middle">x</text>
	<rect x="4403.53" y="1256.34" width="844.26" height="367.20" style="fill:#FFFFFF"/>
	<rect x="4406.77" y="1259.58" width="837.78" height="360.72" style="fill:none;stroke:#FFFFFF;stroke-width:6.48"/>
	<line x1="4452.13" y1="1361.31" x2="4711.33" y2="1361.31" style="stroke:#1A85FF;stroke-width:9.72"/>
	<line x1="4452.13" y1="1518.75" x2="4711.33" y2="1518.75" style="stroke:#D41159;stroke-width:9.72"/>
	<text x="4778.83" y="1400.74" style="font-family:'Helvetica';font-size:112.56px;fill:#000000">Logistic</text>
	<text x="4778.83" y="1558.19" style="font-family:'Helvetica';font-size:112.56px;fill:#000000">Poisson</text>
</svg>
