<?xml version="1.0" encoding="UTF-8" standalone="no"?>
<!-- This is a Stata 18.0 generated SVG file (http://www.stata.com) -->

<svg version="1.1" width="7.500in" height="4.500in" viewBox="0 0 5400 3240" xmlns="http://www.w3.org/2000/svg" xmlns:xlink="http://www.w3.org/1999/xlink">
	<desc>Stata Graph - Graph</desc>
	<rect x="0" y="0" width="5400" height="3240" style="fill:#FFFFFF;stroke:none"/>
	<rect x="0.00" y="0.00" width="5400.00" height="3240.00" style="fill:#FFFFFF"/>
	<rect x="3.24" y="3.24" width="5393.52" height="3233.52" style="fill:none;stroke:#FFFFFF;stroke-width:6.48"/>
	<rect x="410.23" y="113.40" width="3962.42" height="2653.26" style="fill:#FFFFFF"/>
	<rect x="413.47" y="116.64" width="3955.94" height="2646.78" style="fill:none;stroke:#FFFFFF;stroke-width:6.48"/>
	<line x1="410.23" y1="2695.28" x2="475.03" y2="2695.28" style="stroke:#F0F0F0;stroke-width:9.72"/>
	<line x1="507.43" y1="2695.28" x2="572.23" y2="2695.28" style="stroke:#F0F0F0;stroke-width:9.72"/>
	<line x1="604.63" y1="2695.28" x2="669.43" y2="2695.28" style="stroke:#F0F0F0;stroke-width:9.72"/>
	<line x1="701.83" y1="2695.28" x2="766.63" y2="2695.28" style="stroke:#F0F0F0;stroke-width:9.72"/>
	<line x1="799.03" y1="2695.28" x2="863.83" y2="2695.28" style="stroke:#F0F0F0;stroke-width:9.72"/>
	<line x1="896.23" y1="2695.28" x2="961.03" y2="2695.28" style="stroke:#F0F0F0;stroke-width:9.72"/>
	<line x1="993.43" y1="2695.28" x2="1058.23" y2="2695.28" style="stroke:#F0F0F0;stroke-width:9.72"/>
	<line x1="1090.63" y1="2695.28" x2="1155.43" y2="2695.28" style="stroke:#F0F0F0;stroke-width:9.72"/>
	<line x1="1187.83" y1="2695.28" x2="1252.63" y2="2695.28" style="stroke:#F0F0F0;stroke-width:9.72"/>
	<line x1="1285.03" y1="2695.28" x2="1349.83" y2="2695.28" style="stroke:#F0F0F0;stroke-width:9.72"/>
	<line x1="1382.23" y1="2695.28" x2="1447.03" y2="2695.28" style="stroke:#F0F0F0;stroke-width:9.72"/>
	<line x1="1479.43" y1="2695.28" x2="1544.23" y2="2695.28" style="stroke:#F0F0F0;stroke-width:9.72"/>
	<line x1="1576.63" y1="2695.28" x2="1641.43" y2="2695.28" style="stroke:#F0F0F0;stroke-width:9.72"/>
	<line x1="1673.83" y1="2695.28" x2="1738.63" y2="2695.28" style="stroke:#F0F0F0;stroke-width:9.72"/>
	<line x1="1771.03" y1="2695.28" x2="1835.83" y2="2695.28" style="stroke:#F0F0F0;stroke-width:9.72"/>
	<line x1="1868.23" y1="2695.28" x2="1933.03" y2="2695.28" style="stroke:#F0F0F0;stroke-width:9.72"/>
	<line x1="1965.43" y1="2695.28" x2="2030.23" y2="2695.28" style="stroke:#F0F0F0;stroke-width:9.72"/>
	<line x1="2062.63" y1="2695.28" x2="2127.43" y2="2695.28" style="stroke:#F0F0F0;stroke-width:9.72"/>
	<line x1="2159.83" y1="2695.28" x2="2224.63" y2="2695.28" style="stroke:#F0F0F0;stroke-width:9.72"/>
	<line x1="2257.03" y1="2695.28" x2="2321.83" y2="2695.28" style="stroke:#F0F0F0;stroke-width:9.72"/>
	<line x1="2354.23" y1="2695.28" x2="2419.03" y2="2695.28" style="stroke:#F0F0F0;stroke-width:9.72"/>
	<line x1="2451.43" y1="2695.28" x2="2516.23" y2="2695.28" style="stroke:#F0F0F0;stroke-width:9.72"/>
	<line x1="2548.63" y1="2695.28" x2="2613.43" y2="2695.28" style="stroke:#F0F0F0;stroke-width:9.72"/>
	<line x1="2645.83" y1="2695.28" x2="2710.63" y2="2695.28" style="stroke:#F0F0F0;stroke-width:9.72"/>
	<line x1="2743.03" y1="2695.28" x2="2807.83" y2="2695.28" style="stroke:#F0F0F0;stroke-width:9.72"/>
	<line x1="2840.23" y1="2695.28" x2="2905.03" y2="2695.28" style="stroke:#F0F0F0;stroke-width:9.72"/>
	<line x1="2937.43" y1="2695.28" x2="3002.23" y2="2695.28" style="stroke:#F0F0F0;stroke-width:9.72"/>
	<line x1="3034.63" y1="2695.28" x2="3099.43" y2="2695.28" style="stroke:#F0F0F0;stroke-width:9.72"/>
	<line x1="3131.83" y1="2695.28" x2="3196.63" y2="2695.28" style="stroke:#F0F0F0;stroke-width:9.72"/>
	<line x1="3229.03" y1="2695.28" x2="3293.83" y2="2695.28" style="stroke:#F0F0F0;stroke-width:9.72"/>
	<line x1="3326.23" y1="2695.28" x2="3391.03" y2="2695.28" style="stroke:#F0F0F0;stroke-width:9.72"/>
	<line x1="3423.43" y1="2695.28" x2="3488.23" y2="2695.28" style="stroke:#F0F0F0;stroke-width:9.72"/>
	<line x1="3520.63" y1="2695.28" x2="3585.43" y2="2695.28" style="stroke:#F0F0F0;stroke-width:9.72"/>
	<line x1="3617.83" y1="2695.28" x2="3682.63" y2="2695.28" style="stroke:#F0F0F0;stroke-width:9.72"/>
	<line x1="3715.03" y1="2695.28" x2="3779.83" y2="2695.28" style="stroke:#F0F0F0;stroke-width:9.72"/>
	<line x1="3812.23" y1="2695.28" x2="3877.03" y2="2695.28" style="stroke:#F0F0F0;stroke-width:9.72"/>
	<line x1="3909.43" y1="2695.28" x2="3974.23" y2="2695.28" style="stroke:#F0F0F0;stroke-width:9.72"/>
	<line x1="4006.63" y1="2695.28" x2="4071.43" y2="2695.28" style="stroke:#F0F0F0;stroke-width:9.72"/>
	<line x1="4103.83" y1="2695.28" x2="4168.63" y2="2695.28" style="stroke:#F0F0F0;stroke-width:9.72"/>
	<line x1="4201.03" y1="2695.28" x2="4265.83" y2="2695.28" style="stroke:#F0F0F0;stroke-width:9.72"/>
	<line x1="4298.23" y1="2695.28" x2="4363.03" y2="2695.28" style="stroke:#F0F0F0;stroke-width:9.72"/>
	<line x1="410.23" y1="2193.24" x2="475.03" y2="2193.24" style="stroke:#F0F0F0;stroke-width:9.72"/>
	<line x1="507.43" y1="2193.24" x2="572.23" y2="2193.24" style="stroke:#F0F0F0;stroke-width:9.72"/>
	<line x1="604.63" y1="2193.24" x2="669.43" y2="2193.24" style="stroke:#F0F0F0;stroke-width:9.72"/>
	<line x1="701.83" y1="2193.24" x2="766.63" y2="2193.24" style="stroke:#F0F0F0;stroke-width:9.72"/>
	<line x1="799.03" y1="2193.24" x2="863.83" y2="2193.24" style="stroke:#F0F0F0;stroke-width:9.72"/>
	<line x1="896.23" y1="2193.24" x2="961.03" y2="2193.24" style="stroke:#F0F0F0;stroke-width:9.72"/>
	<line x1="993.43" y1="2193.24" x2="1058.23" y2="2193.24" style="stroke:#F0F0F0;stroke-width:9.72"/>
	<line x1="1090.63" y1="2193.24" x2="1155.43" y2="2193.24" style="stroke:#F0F0F0;stroke-width:9.72"/>
	<line x1="1187.83" y1="2193.24" x2="1252.63" y2="2193.24" style="stroke:#F0F0F0;stroke-width:9.72"/>
	<line x1="1285.03" y1="2193.24" x2="1349.83" y2="2193.24" style="stroke:#F0F0F0;stroke-width:9.72"/>
	<line x1="1382.23" y1="2193.24" x2="1447.03" y2="2193.24" style="stroke:#F0F0F0;stroke-width:9.72"/>
	<line x1="1479.43" y1="2193.24" x2="1544.23" y2="2193.24" style="stroke:#F0F0F0;stroke-width:9.72"/>
	<line x1="1576.63" y1="2193.24" x2="1641.43" y2="2193.24" style="stroke:#F0F0F0;stroke-width:9.72"/>
	<line x1="1673.83" y1="2193.24" x2="1738.63" y2="2193.24" style="stroke:#F0F0F0;stroke-width:9.72"/>
	<line x1="1771.03" y1="2193.24" x2="1835.83" y2="2193.24" style="stroke:#F0F0F0;stroke-width:9.72"/>
	<line x1="1868.23" y1="2193.24" x2="1933.03" y2="2193.24" style="stroke:#F0F0F0;stroke-width:9.72"/>
	<line x1="1965.43" y1="2193.24" x2="2030.23" y2="2193.24" style="stroke:#F0F0F0;stroke-width:9.72"/>
	<line x1="2062.63" y1="2193.24" x2="2127.43" y2="2193.24" style="stroke:#F0F0F0;stroke-width:9.72"/>
	<line x1="2159.83" y1="2193.24" x2="2224.63" y2="2193.24" style="stroke:#F0F0F0;stroke-width:9.72"/>
	<line x1="2257.03" y1="2193.24" x2="2321.83" y2="2193.24" style="stroke:#F0F0F0;stroke-width:9.72"/>
	<line x1="2354.23" y1="2193.24" x2="2419.03" y2="2193.24" style="stroke:#F0F0F0;stroke-width:9.72"/>
	<line x1="2451.43" y1="2193.24" x2="2516.23" y2="2193.24" style="stroke:#F0F0F0;stroke-width:9.72"/>
	<line x1="2548.63" y1="2193.24" x2="2613.43" y2="2193.24" style="stroke:#F0F0F0;stroke-width:9.72"/>
	<line x1="2645.83" y1="2193.24" x2="2710.63" y2="2193.24" style="stroke:#F0F0F0;stroke-width:9.72"/>
	<line x1="2743.03" y1="2193.24" x2="2807.83" y2="2193.24" style="stroke:#F0F0F0;stroke-width:9.72"/>
	<line x1="2840.23" y1="2193.24" x2="2905.03" y2="2193.24" style="stroke:#F0F0F0;stroke-width:9.72"/>
	<line x1="2937.43" y1="2193.24" x2="3002.23" y2="2193.24" style="stroke:#F0F0F0;stroke-width:9.72"/>
	<line x1="3034.63" y1="2193.24" x2="3099.43" y2="2193.24" style="stroke:#F0F0F0;stroke-width:9.72"/>
	<line x1="3131.83" y1="2193.24" x2="3196.63" y2="2193.24" style="stroke:#F0F0F0;stroke-width:9.72"/>
	<line x1="3229.03" y1="2193.24" x2="3293.83" y2="2193.24" style="stroke:#F0F0F0;stroke-width:9.72"/>
	<line x1="3326.23" y1="2193.24" x2="3391.03" y2="2193.24" style="stroke:#F0F0F0;stroke-width:9.72"/>
	<line x1="3423.43" y1="2193.24" x2="3488.23" y2="2193.24" style="stroke:#F0F0F0;stroke-width:9.72"/>
	<line x1="3520.63" y1="2193.24" x2="3585.43" y2="2193.24" style="stroke:#F0F0F0;stroke-width:9.72"/>
	<line x1="3617.83" y1="2193.24" x2="3682.63" y2="2193.24" style="stroke:#F0F0F0;stroke-width:9.72"/>
	<line x1="3715.03" y1="2193.24" x2="3779.83" y2="2193.24" style="stroke:#F0F0F0;stroke-width:9.72"/>
	<line x1="3812.23" y1="2193.24" x2="3877.03" y2="2193.24" style="stroke:#F0F0F0;stroke-width:9.72"/>
	<line x1="3909.43" y1="2193.24" x2="3974.23" y2="2193.24" style="stroke:#F0F0F0;stroke-width:9.72"/>
	<line x1="4006.63" y1="2193.24" x2="4071.43" y2="2193.24" style="stroke:#F0F0F0;stroke-width:9.72"/>
	<line x1="4103.83" y1="2193.24" x2="4168.63" y2="2193.24" style="stroke:#F0F0F0;stroke-width:9.72"/>
	<line x1="4201.03" y1="2193.24" x2="4265.83" y2="2193.24" style="stroke:#F0F0F0;stroke-width:9.72"/>
	<line x1="4298.23" y1="2193.24" x2="4363.03" y2="2193.24" style="stroke:#F0F0F0;stroke-width:9.72"/>
	<line x1="410.23" y1="1691.04" x2="475.03" y2="1691.04" style="stroke:#F0F0F0;stroke-width:9.72"/>
	<line x1="507.43" y1="1691.04" x2="572.23" y2="1691.04" style="stroke:#F0F0F0;stroke-width:9.72"/>
	<line x1="604.63" y1="1691.04" x2="669.43" y2="1691.04" style="stroke:#F0F0F0;stroke-width:9.72"/>
	<line x1="701.83" y1="1691.04" x2="766.63" y2="1691.04" style="stroke:#F0F0F0;stroke-width:9.72"/>
	<line x1="799.03" y1="1691.04" x2="863.83" y2="1691.04" style="stroke:#F0F0F0;stroke-width:9.72"/>
	<line x1="896.23" y1="1691.04" x2="961.03" y2="1691.04" style="stroke:#F0F0F0;stroke-width:9.72"/>
	<line x1="993.43" y1="1691.04" x2="1058.23" y2="1691.04" style="stroke:#F0F0F0;stroke-width:9.72"/>
	<line x1="1090.63" y1="1691.04" x2="1155.43" y2="1691.04" style="stroke:#F0F0F0;stroke-width:9.72"/>
	<line x1="1187.83" y1="1691.04" x2="1252.63" y2="1691.04" style="stroke:#F0F0F0;stroke-width:9.72"/>
	<line x1="1285.03" y1="1691.04" x2="1349.83" y2="1691.04" style="stroke:#F0F0F0;stroke-width:9.72"/>
	<line x1="1382.23" y1="1691.04" x2="1447.03" y2="1691.04" style="stroke:#F0F0F0;stroke-width:9.72"/>
	<line x1="1479.43" y1="1691.04" x2="1544.23" y2="1691.04" style="stroke:#F0F0F0;stroke-width:9.72"/>
	<line x1="1576.63" y1="1691.04" x2="1641.43" y2="1691.04" style="stroke:#F0F0F0;stroke-width:9.72"/>
	<line x1="1673.83" y1="1691.04" x2="1738.63" y2="1691.04" style="stroke:#F0F0F0;stroke-width:9.72"/>
	<line x1="1771.03" y1="1691.04" x2="1835.83" y2="1691.04" style="stroke:#F0F0F0;stroke-width:9.72"/>
	<line x1="1868.23" y1="1691.04" x2="1933.03" y2="1691.04" style="stroke:#F0F0F0;stroke-width:9.72"/>
	<line x1="1965.43" y1="1691.04" x2="2030.23" y2="1691.04" style="stroke:#F0F0F0;stroke-width:9.72"/>
	<line x1="2062.63" y1="1691.04" x2="2127.43" y2="1691.04" style="stroke:#F0F0F0;stroke-width:9.72"/>
	<line x1="2159.83" y1="1691.04" x2="2224.63" y2="1691.04" style="stroke:#F0F0F0;stroke-width:9.72"/>
	<line x1="2257.03" y1="1691.04" x2="2321.83" y2="1691.04" style="stroke:#F0F0F0;stroke-width:9.72"/>
	<line x1="2354.23" y1="1691.04" x2="2419.03" y2="1691.04" style="stroke:#F0F0F0;stroke-width:9.72"/>
	<line x1="2451.43" y1="1691.04" x2="2516.23" y2="1691.04" style="stroke:#F0F0F0;stroke-width:9.72"/>
	<line x1="2548.63" y1="1691.04" x2="2613.43" y2="1691.04" style="stroke:#F0F0F0;stroke-width:9.72"/>
	<line x1="2645.83" y1="1691.04" x2="2710.63" y2="1691.04" style="stroke:#F0F0F0;stroke-width:9.72"/>
	<line x1="2743.03" y1="1691.04" x2="2807.83" y2="1691.04" style="stroke:#F0F0F0;stroke-width:9.72"/>
	<line x1="2840.23" y1="1691.04" x2="2905.03" y2="1691.04" style="stroke:#F0F0F0;stroke-width:9.72"/>
	<line x1="2937.43" y1="1691.04" x2="3002.23" y2="1691.04" style="stroke:#F0F0F0;stroke-width:9.72"/>
	<line x1="3034.63" y1="1691.04" x2="3099.43" y2="1691.04" style="stroke:#F0F0F0;stroke-width:9.72"/>
	<line x1="3131.83" y1="1691.04" x2="3196.63" y2="1691.04" style="stroke:#F0F0F0;stroke-width:9.72"/>
	<line x1="3229.03" y1="1691.04" x2="3293.83" y2="1691.04" style="stroke:#F0F0F0;stroke-width:9.72"/>
	<line x1="3326.23" y1="1691.04" x2="3391.03" y2="1691.04" style="stroke:#F0F0F0;stroke-width:9.72"/>
	<line x1="3423.43" y1="1691.04" x2="3488.23" y2="1691.04" style="stroke:#F0F0F0;stroke-width:9.72"/>
	<line x1="3520.63" y1="1691.04" x2="3585.43" y2="1691.04" style="stroke:#F0F0F0;stroke-width:9.72"/>
	<line x1="3617.83" y1="1691.04" x2="3682.63" y2="1691.04" style="stroke:#F0F0F0;stroke-width:9.72"/>
	<line x1="3715.03" y1="1691.04" x2="3779.83" y2="1691.04" style="stroke:#F0F0F0;stroke-width:9.72"/>
	<line x1="3812.23" y1="1691.04" x2="3877.03" y2="1691.04" style="stroke:#F0F0F0;stroke-width:9.72"/>
	<line x1="3909.43" y1="1691.04" x2="3974.23" y2="1691.04" style="stroke:#F0F0F0;stroke-width:9.72"/>
	<line x1="4006.63" y1="1691.04" x2="4071.43" y2="1691.04" style="stroke:#F0F0F0;stroke-width:9.72"/>
	<line x1="4103.83" y1="1691.04" x2="4168.63" y2="1691.04" style="stroke:#F0F0F0;stroke-width:9.72"/>
	<line x1="4201.03" y1="1691.04" x2="4265.83" y2="1691.04" style="stroke:#F0F0F0;stroke-width:9.72"/>
	<line x1="4298.23" y1="1691.04" x2="4363.03" y2="1691.04" style="stroke:#F0F0F0;stroke-width:9.72"/>
	<line x1="410.23" y1="1189.01" x2="475.03" y2="1189.01" style="stroke:#F0F0F0;stroke-width:9.72"/>
	<line x1="507.43" y1="1189.01" x2="572.23" y2="1189.01" style="stroke:#F0F0F0;stroke-width:9.72"/>
	<line x1="604.63" y1="1189.01" x2="669.43" y2="1189.01" style="stroke:#F0F0F0;stroke-width:9.72"/>
	<line x1="701.83" y1="1189.01" x2="766.63" y2="1189.01" style="stroke:#F0F0F0;stroke-width:9.72"/>
	<line x1="799.03" y1="1189.01" x2="863.83" y2="1189.01" style="stroke:#F0F0F0;stroke-width:9.72"/>
	<line x1="896.23" y1="1189.01" x2="961.03" y2="1189.01" style="stroke:#F0F0F0;stroke-width:9.72"/>
	<line x1="993.43" y1="1189.01" x2="1058.23" y2="1189.01" style="stroke:#F0F0F0;stroke-width:9.72"/>
	<line x1="1090.63" y1="1189.01" x2="1155.43" y2="1189.01" style="stroke:#F0F0F0;stroke-width:9.72"/>
	<line x1="1187.83" y1="1189.01" x2="1252.63" y2="1189.01" style="stroke:#F0F0F0;stroke-width:9.72"/>
	<line x1="1285.03" y1="1189.01" x2="1349.83" y2="1189.01" style="stroke:#F0F0F0;stroke-width:9.72"/>
	<line x1="1382.23" y1="1189.01" x2="1447.03" y2="1189.01" style="stroke:#F0F0F0;stroke-width:9.72"/>
	<line x1="1479.43" y1="1189.01" x2="1544.23" y2="1189.01" style="stroke:#F0F0F0;stroke-width:9.72"/>
	<line x1="1576.63" y1="1189.01" x2="1641.43" y2="1189.01" style="stroke:#F0F0F0;stroke-width:9.72"/>
	<line x1="1673.83" y1="1189.01" x2="1738.63" y2="1189.01" style="stroke:#F0F0F0;stroke-width:9.72"/>
	<line x1="1771.03" y1="1189.01" x2="1835.83" y2="1189.01" style="stroke:#F0F0F0;stroke-width:9.72"/>
	<line x1="1868.23" y1="1189.01" x2="1933.03" y2="1189.01" style="stroke:#F0F0F0;stroke-width:9.72"/>
	<line x1="1965.43" y1="1189.01" x2="2030.23" y2="1189.01" style="stroke:#F0F0F0;stroke-width:9.72"/>
	<line x1="2062.63" y1="1189.01" x2="2127.43" y2="1189.01" style="stroke:#F0F0F0;stroke-width:9.72"/>
	<line x1="2159.83" y1="1189.01" x2="2224.63" y2="1189.01" style="stroke:#F0F0F0;stroke-width:9.72"/>
	<line x1="2257.03" y1="1189.01" x2="2321.83" y2="1189.01" style="stroke:#F0F0F0;stroke-width:9.72"/>
	<line x1="2354.23" y1="1189.01" x2="2419.03" y2="1189.01" style="stroke:#F0F0F0;stroke-width:9.72"/>
	<line x1="2451.43" y1="1189.01" x2="2516.23" y2="1189.01" style="stroke:#F0F0F0;stroke-width:9.72"/>
	<line x1="2548.63" y1="1189.01" x2="2613.43" y2="1189.01" style="stroke:#F0F0F0;stroke-width:9.72"/>
	<line x1="2645.83" y1="1189.01" x2="2710.63" y2="1189.01" style="stroke:#F0F0F0;stroke-width:9.72"/>
	<line x1="2743.03" y1="1189.01" x2="2807.83" y2="1189.01" style="stroke:#F0F0F0;stroke-width:9.72"/>
	<line x1="2840.23" y1="1189.01" x2="2905.03" y2="1189.01" style="stroke:#F0F0F0;stroke-width:9.72"/>
	<line x1="2937.43" y1="1189.01" x2="3002.23" y2="1189.01" style="stroke:#F0F0F0;stroke-width:9.72"/>
	<line x1="3034.63" y1="1189.01" x2="3099.43" y2="1189.01" style="stroke:#F0F0F0;stroke-width:9.72"/>
	<line x1="3131.83" y1="1189.01" x2="3196.63" y2="1189.01" style="stroke:#F0F0F0;stroke-width:9.72"/>
	<line x1="3229.03" y1="1189.01" x2="3293.83" y2="1189.01" style="stroke:#F0F0F0;stroke-width:9.72"/>
	<line x1="3326.23" y1="1189.01" x2="3391.03" y2="1189.01" style="stroke:#F0F0F0;stroke-width:9.72"/>
	<line x1="3423.43" y1="1189.01" x2="3488.23" y2="1189.01" style="stroke:#F0F0F0;stroke-width:9.72"/>
	<line x1="3520.63" y1="1189.01" x2="3585.43" y2="1189.01" style="stroke:#F0F0F0;stroke-width:9.72"/>
	<line x1="3617.83" y1="1189.01" x2="3682.63" y2="1189.01" style="stroke:#F0F0F0;stroke-width:9.72"/>
	<line x1="3715.03" y1="1189.01" x2="3779.83" y2="1189.01" style="stroke:#F0F0F0;stroke-width:9.72"/>
	<line x1="3812.23" y1="1189.01" x2="3877.03" y2="1189.01" style="stroke:#F0F0F0;stroke-width:9.72"/>
	<line x1="3909.43" y1="1189.01" x2="3974.23" y2="1189.01" style="stroke:#F0F0F0;stroke-width:9.72"/>
	<line x1="4006.63" y1="1189.01" x2="4071.43" y2="1189.01" style="stroke:#F0F0F0;stroke-width:9.72"/>
	<line x1="4103.83" y1="1189.01" x2="4168.63" y2="1189.01" style="stroke:#F0F0F0;stroke-width:9.72"/>
	<line x1="4201.03" y1="1189.01" x2="4265.83" y2="1189.01" style="stroke:#F0F0F0;stroke-width:9.72"/>
	<line x1="4298.23" y1="1189.01" x2="4363.03" y2="1189.01" style="stroke:#F0F0F0;stroke-width:9.72"/>
	<line x1="410.23" y1="686.81" x2="475.03" y2="686.81" style="stroke:#F0F0F0;stroke-width:9.72"/>
	<line x1="507.43" y1="686.81" x2="572.23" y2="686.81" style="stroke:#F0F0F0;stroke-width:9.72"/>
	<line x1="604.63" y1="686.81" x2="669.43" y2="686.81" style="stroke:#F0F0F0;stroke-width:9.72"/>
	<line x1="701.83" y1="686.81" x2="766.63" y2="686.81" style="stroke:#F0F0F0;stroke-width:9.72"/>
	<line x1="799.03" y1="686.81" x2="863.83" y2="686.81" style="stroke:#F0F0F0;stroke-width:9.72"/>
	<line x1="896.23" y1="686.81" x2="961.03" y2="686.81" style="stroke:#F0F0F0;stroke-width:9.72"/>
	<line x1="993.43" y1="686.81" x2="1058.23" y2="686.81" style="stroke:#F0F0F0;stroke-width:9.72"/>
	<line x1="1090.63" y1="686.81" x2="1155.43" y2="686.81" style="stroke:#F0F0F0;stroke-width:9.72"/>
	<line x1="1187.83" y1="686.81" x2="1252.63" y2="686.81" style="stroke:#F0F0F0;stroke-width:9.72"/>
	<line x1="1285.03" y1="686.81" x2="1349.83" y2="686.81" style="stroke:#F0F0F0;stroke-width:9.72"/>
	<line x1="1382.23" y1="686.81" x2="1447.03" y2="686.81" style="stroke:#F0F0F0;stroke-width:9.72"/>
	<line x1="1479.43" y1="686.81" x2="1544.23" y2="686.81" style="stroke:#F0F0F0;stroke-width:9.72"/>
	<line x1="1576.63" y1="686.81" x2="1641.43" y2="686.81" style="stroke:#F0F0F0;stroke-width:9.72"/>
	<line x1="1673.83" y1="686.81" x2="1738.63" y2="686.81" style="stroke:#F0F0F0;stroke-width:9.72"/>
	<line x1="1771.03" y1="686.81" x2="1835.83" y2="686.81" style="stroke:#F0F0F0;stroke-width:9.72"/>
	<line x1="1868.23" y1="686.81" x2="1933.03" y2="686.81" style="stroke:#F0F0F0;stroke-width:9.72"/>
	<line x1="1965.43" y1="686.81" x2="2030.23" y2="686.81" style="stroke:#F0F0F0;stroke-width:9.72"/>
	<line x1="2062.63" y1="686.81" x2="2127.43" y2="686.81" style="stroke:#F0F0F0;stroke-width:9.72"/>
	<line x1="2159.83" y1="686.81" x2="2224.63" y2="686.81" style="stroke:#F0F0F0;stroke-width:9.72"/>
	<line x1="2257.03" y1="686.81" x2="2321.83" y2="686.81" style="stroke:#F0F0F0;stroke-width:9.72"/>
	<line x1="2354.23" y1="686.81" x2="2419.03" y2="686.81" style="stroke:#F0F0F0;stroke-width:9.72"/>
	<line x1="2451.43" y1="686.81" x2="2516.23" y2="686.81" style="stroke:#F0F0F0;stroke-width:9.72"/>
	<line x1="2548.63" y1="686.81" x2="2613.43" y2="686.81" style="stroke:#F0F0F0;stroke-width:9.72"/>
	<line x1="2645.83" y1="686.81" x2="2710.63" y2="686.81" style="stroke:#F0F0F0;stroke-width:9.72"/>
	<line x1="2743.03" y1="686.81" x2="2807.83" y2="686.81" style="stroke:#F0F0F0;stroke-width:9.72"/>
	<line x1="2840.23" y1="686.81" x2="2905.03" y2="686.81" style="stroke:#F0F0F0;stroke-width:9.72"/>
	<line x1="2937.43" y1="686.81" x2="3002.23" y2="686.81" style="stroke:#F0F0F0;stroke-width:9.72"/>
	<line x1="3034.63" y1="686.81" x2="3099.43" y2="686.81" style="stroke:#F0F0F0;stroke-width:9.72"/>
	<line x1="3131.83" y1="686.81" x2="3196.63" y2="686.81" style="stroke:#F0F0F0;stroke-width:9.72"/>
	<line x1="3229.03" y1="686.81" x2="3293.83" y2="686.81" style="stroke:#F0F0F0;stroke-width:9.72"/>
	<line x1="3326.23" y1="686.81" x2="3391.03" y2="686.81" style="stroke:#F0F0F0;stroke-width:9.72"/>
	<line x1="3423.43" y1="686.81" x2="3488.23" y2="686.81" style="stroke:#F0F0F0;stroke-width:9.72"/>
	<line x1="3520.63" y1="686.81" x2="3585.43" y2="686.81" style="stroke:#F0F0F0;stroke-width:9.72"/>
	<line x1="3617.83" y1="686.81" x2="3682.63" y2="686.81" style="stroke:#F0F0F0;stroke-width:9.72"/>
	<line x1="3715.03" y1="686.81" x2="3779.83" y2="686.81" style="stroke:#F0F0F0;stroke-width:9.72"/>
	<line x1="3812.23" y1="686.81" x2="3877.03" y2="686.81" style="stroke:#F0F0F0;stroke-width:9.72"/>
	<line x1="3909.43" y1="686.81" x2="3974.23" y2="686.81" style="stroke:#F0F0F0;stroke-width:9.72"/>
	<line x1="4006.63" y1="686.81" x2="4071.43" y2="686.81" style="stroke:#F0F0F0;stroke-width:9.72"/>
	<line x1="4103.83" y1="686.81" x2="4168.63" y2="686.81" style="stroke:#F0F0F0;stroke-width:9.72"/>
	<line x1="4201.03" y1="686.81" x2="4265.83" y2="686.81" style="stroke:#F0F0F0;stroke-width:9.72"/>
	<line x1="4298.23" y1="686.81" x2="4363.03" y2="686.81" style="stroke:#F0F0F0;stroke-width:9.72"/>
	<line x1="410.23" y1="184.61" x2="475.03" y2="184.61" style="stroke:#F0F0F0;stroke-width:9.72"/>
	<line x1="507.43" y1="184.61" x2="572.23" y2="184.61" style="stroke:#F0F0F0;stroke-width:9.72"/>
	<line x1="604.63" y1="184.61" x2="669.43" y2="184.61" style="stroke:#F0F0F0;stroke-width:9.72"/>
	<line x1="701.83" y1="184.61" x2="766.63" y2="184.61" style="stroke:#F0F0F0;stroke-width:9.72"/>
	<line x1="799.03" y1="184.61" x2="863.83" y2="184.61" style="stroke:#F0F0F0;stroke-width:9.72"/>
	<line x1="896.23" y1="184.61" x2="961.03" y2="184.61" style="stroke:#F0F0F0;stroke-width:9.72"/>
	<line x1="993.43" y1="184.61" x2="1058.23" y2="184.61" style="stroke:#F0F0F0;stroke-width:9.72"/>
	<line x1="1090.63" y1="184.61" x2="1155.43" y2="184.61" style="stroke:#F0F0F0;stroke-width:9.72"/>
	<line x1="1187.83" y1="184.61" x2="1252.63" y2="184.61" style="stroke:#F0F0F0;stroke-width:9.72"/>
	<line x1="1285.03" y1="184.61" x2="1349.83" y2="184.61" style="stroke:#F0F0F0;stroke-width:9.72"/>
	<line x1="1382.23" y1="184.61" x2="1447.03" y2="184.61" style="stroke:#F0F0F0;stroke-width:9.72"/>
	<line x1="1479.43" y1="184.61" x2="1544.23" y2="184.61" style="stroke:#F0F0F0;stroke-width:9.72"/>
	<line x1="1576.63" y1="184.61" x2="1641.43" y2="184.61" style="stroke:#F0F0F0;stroke-width:9.72"/>
	<line x1="1673.83" y1="184.61" x2="1738.63" y2="184.61" style="stroke:#F0F0F0;stroke-width:9.72"/>
	<line x1="1771.03" y1="184.61" x2="1835.83" y2="184.61" style="stroke:#F0F0F0;stroke-width:9.72"/>
	<line x1="1868.23" y1="184.61" x2="1933.03" y2="184.61" style="stroke:#F0F0F0;stroke-width:9.72"/>
	<line x1="1965.43" y1="184.61" x2="2030.23" y2="184.61" style="stroke:#F0F0F0;stroke-width:9.72"/>
	<line x1="2062.63" y1="184.61" x2="2127.43" y2="184.61" style="stroke:#F0F0F0;stroke-width:9.72"/>
	<line x1="2159.83" y1="184.61" x2="2224.63" y2="184.61" style="stroke:#F0F0F0;stroke-width:9.72"/>
	<line x1="2257.03" y1="184.61" x2="2321.83" y2="184.61" style="stroke:#F0F0F0;stroke-width:9.72"/>
	<line x1="2354.23" y1="184.61" x2="2419.03" y2="184.61" style="stroke:#F0F0F0;stroke-width:9.72"/>
	<line x1="2451.43" y1="184.61" x2="2516.23" y2="184.61" style="stroke:#F0F0F0;stroke-width:9.72"/>
	<line x1="2548.63" y1="184.61" x2="2613.43" y2="184.61" style="stroke:#F0F0F0;stroke-width:9.72"/>
	<line x1="2645.83" y1="184.61" x2="2710.63" y2="184.61" style="stroke:#F0F0F0;stroke-width:9.72"/>
	<line x1="2743.03" y1="184.61" x2="2807.83" y2="184.61" style="stroke:#F0F0F0;stroke-width:9.72"/>
	<line x1="2840.23" y1="184.61" x2="2905.03" y2="184.61" style="stroke:#F0F0F0;stroke-width:9.72"/>
	<line x1="2937.43" y1="184.61" x2="3002.23" y2="184.61" style="stroke:#F0F0F0;stroke-width:9.72"/>
	<line x1="3034.63" y1="184.61" x2="3099.43" y2="184.61" style="stroke:#F0F0F0;stroke-width:9.72"/>
	<line x1="3131.83" y1="184.61" x2="3196.63" y2="184.61" style="stroke:#F0F0F0;stroke-width:9.72"/>
	<line x1="3229.03" y1="184.61" x2="3293.83" y2="184.61" style="stroke:#F0F0F0;stroke-width:9.72"/>
	<line x1="3326.23" y1="184.61" x2="3391.03" y2="184.61" style="stroke:#F0F0F0;stroke-width:9.72"/>
	<line x1="3423.43" y1="184.61" x2="3488.23" y2="184.61" style="stroke:#F0F0F0;stroke-width:9.72"/>
	<line x1="3520.63" y1="184.61" x2="3585.43" y2="184.61" style="stroke:#F0F0F0;stroke-width:9.72"/>
	<line x1="3617.83" y1="184.61" x2="3682.63" y2="184.61" style="stroke:#F0F0F0;stroke-width:9.72"/>
	<line x1="3715.03" y1="184.61" x2="3779.83" y2="184.61" style="stroke:#F0F0F0;stroke-width:9.72"/>
	<line x1="3812.23" y1="184.61" x2="3877.03" y2="184.61" style="stroke:#F0F0F0;stroke-width:9.72"/>
	<line x1="3909.43" y1="184.61" x2="3974.23" y2="184.61" style="stroke:#F0F0F0;stroke-width:9.72"/>
	<line x1="4006.63" y1="184.61" x2="4071.43" y2="184.61" style="stroke:#F0F0F0;stroke-width:9.72"/>
	<line x1="4103.83" y1="184.61" x2="4168.63" y2="184.61" style="stroke:#F0F0F0;stroke-width:9.72"/>
	<line x1="4201.03" y1="184.61" x2="4265.83" y2="184.61" style="stroke:#F0F0F0;stroke-width:9.72"/>
	<line x1="4298.23" y1="184.61" x2="4363.03" y2="184.61" style="stroke:#F0F0F0;stroke-width:9.72"/>
	<line x1="481.44" y1="2766.66" x2="481.44" y2="2701.86" style="stroke:#F0F0F0;stroke-width:9.72"/>
	<line x1="481.44" y1="2669.46" x2="481.44" y2="2604.66" style="stroke:#F0F0F0;stroke-width:9.72"/>
	<line x1="481.44" y1="2572.26" x2="481.44" y2="2507.46" style="stroke:#F0F0F0;stroke-width:9.72"/>
	<line x1="481.44" y1="2475.06" x2="481.44" y2="2410.26" style="stroke:#F0F0F0;stroke-width:9.72"/>
	<line x1="481.44" y1="2377.86" x2="481.44" y2="2313.06" style="stroke:#F0F0F0;stroke-width:9.72"/>
	<line x1="481.44" y1="2280.66" x2="481.44" y2="2215.86" style="stroke:#F0F0F0;stroke-width:9.72"/>
	<line x1="481.44" y1="2183.46" x2="481.44" y2="2118.66" style="stroke:#F0F0F0;stroke-width:9.72"/>
	<line x1="481.44" y1="2086.26" x2="481.44" y2="2021.46" style="stroke:#F0F0F0;stroke-width:9.72"/>
	<line x1="481.44" y1="1989.06" x2="481.44" y2="1924.26" style="stroke:#F0F0F0;stroke-width:9.72"/>
	<line x1="481.44" y1="1891.86" x2="481.44" y2="1827.06" style="stroke:#F0F0F0;stroke-width:9.72"/>
	<line x1="481.44" y1="1794.66" x2="481.44" y2="1729.86" style="stroke:#F0F0F0;stroke-width:9.72"/>
	<line x1="481.44" y1="1697.46" x2="481.44" y2="1632.66" style="stroke:#F0F0F0;stroke-width:9.72"/>
	<line x1="481.44" y1="1600.26" x2="481.44" y2="1535.46" style="stroke:#F0F0F0;stroke-width:9.72"/>
	<line x1="481.44" y1="1503.06" x2="481.44" y2="1438.26" style="stroke:#F0F0F0;stroke-width:9.72"/>
	<line x1="481.44" y1="1405.86" x2="481.44" y2="1341.06" style="stroke:#F0F0F0;stroke-width:9.72"/>
	<line x1="481.44" y1="1308.66" x2="481.44" y2="1243.86" style="stroke:#F0F0F0;stroke-width:9.72"/>
	<line x1="481.44" y1="1211.46" x2="481.44" y2="1146.66" style="stroke:#F0F0F0;stroke-width:9.72"/>
	<line x1="481.44" y1="1114.26" x2="481.44" y2="1049.46" style="stroke:#F0F0F0;stroke-width:9.72"/>
	<line x1="481.44" y1="1017.06" x2="481.44" y2="952.26" style="stroke:#F0F0F0;stroke-width:9.72"/>
	<line x1="481.44" y1="919.86" x2="481.44" y2="855.06" style="stroke:#F0F0F0;stroke-width:9.72"/>
	<line x1="481.44" y1="822.66" x2="481.44" y2="757.86" style="stroke:#F0F0F0;stroke-width:9.72"/>
	<line x1="481.44" y1="725.46" x2="481.44" y2="660.66" style="stroke:#F0F0F0;stroke-width:9.72"/>
	<line x1="481.44" y1="628.26" x2="481.44" y2="563.46" style="stroke:#F0F0F0;stroke-width:9.72"/>
	<line x1="481.44" y1="531.06" x2="481.44" y2="466.26" style="stroke:#F0F0F0;stroke-width:9.72"/>
	<line x1="481.44" y1="433.86" x2="481.44" y2="369.06" style="stroke:#F0F0F0;stroke-width:9.72"/>
	<line x1="481.44" y1="336.66" x2="481.44" y2="271.86" style="stroke:#F0F0F0;stroke-width:9.72"/>
	<line x1="481.44" y1="239.46" x2="481.44" y2="174.66" style="stroke:#F0F0F0;stroke-width:9.72"/>
	<line x1="481.44" y1="142.26" x2="481.44" y2="113.40" style="stroke:#F0F0F0;stroke-width:9.72"/>
	<line x1="1436.40" y1="2766.66" x2="1436.40" y2="2701.86" style="stroke:#F0F0F0;stroke-width:9.72"/>
	<line x1="1436.40" y1="2669.46" x2="1436.40" y2="2604.66" style="stroke:#F0F0F0;stroke-width:9.72"/>
	<line x1="1436.40" y1="2572.26" x2="1436.40" y2="2507.46" style="stroke:#F0F0F0;stroke-width:9.72"/>
	<line x1="1436.40" y1="2475.06" x2="1436.40" y2="2410.26" style="stroke:#F0F0F0;stroke-width:9.72"/>
	<line x1="1436.40" y1="2377.86" x2="1436.40" y2="2313.06" style="stroke:#F0F0F0;stroke-width:9.72"/>
	<line x1="1436.40" y1="2280.66" x2="1436.40" y2="2215.86" style="stroke:#F0F0F0;stroke-width:9.72"/>
	<line x1="1436.40" y1="2183.46" x2="1436.40" y2="2118.66" style="stroke:#F0F0F0;stroke-width:9.72"/>
	<line x1="1436.40" y1="2086.26" x2="1436.40" y2="2021.46" style="stroke:#F0F0F0;stroke-width:9.72"/>
	<line x1="1436.40" y1="1989.06" x2="1436.40" y2="1924.26" style="stroke:#F0F0F0;stroke-width:9.72"/>
	<line x1="1436.40" y1="1891.86" x2="1436.40" y2="1827.06" style="stroke:#F0F0F0;stroke-width:9.72"/>
	<line x1="1436.40" y1="1794.66" x2="1436.40" y2="1729.86" style="stroke:#F0F0F0;stroke-width:9.72"/>
	<line x1="1436.40" y1="1697.46" x2="1436.40" y2="1632.66" style="stroke:#F0F0F0;stroke-width:9.72"/>
	<line x1="1436.40" y1="1600.26" x2="1436.40" y2="1535.46" style="stroke:#F0F0F0;stroke-width:9.72"/>
	<line x1="1436.40" y1="1503.06" x2="1436.40" y2="1438.26" style="stroke:#F0F0F0;stroke-width:9.72"/>
	<line x1="1436.40" y1="1405.86" x2="1436.40" y2="1341.06" style="stroke:#F0F0F0;stroke-width:9.72"/>
	<line x1="1436.40" y1="1308.66" x2="1436.40" y2="1243.86" style="stroke:#F0F0F0;stroke-width:9.72"/>
	<line x1="1436.40" y1="1211.46" x2="1436.40" y2="1146.66" style="stroke:#F0F0F0;stroke-width:9.72"/>
	<line x1="1436.40" y1="1114.26" x2="1436.40" y2="1049.46" style="stroke:#F0F0F0;stroke-width:9.72"/>
	<line x1="1436.40" y1="1017.06" x2="1436.40" y2="952.26" style="stroke:#F0F0F0;stroke-width:9.72"/>
	<line x1="1436.40" y1="919.86" x2="1436.40" y2="855.06" style="stroke:#F0F0F0;stroke-width:9.72"/>
	<line x1="1436.40" y1="822.66" x2="1436.40" y2="757.86" style="stroke:#F0F0F0;stroke-width:9.72"/>
	<line x1="1436.40" y1="725.46" x2="1436.40" y2="660.66" style="stroke:#F0F0F0;stroke-width:9.72"/>
	<line x1="1436.40" y1="628.26" x2="1436.40" y2="563.46" style="stroke:#F0F0F0;stroke-width:9.72"/>
	<line x1="1436.40" y1="531.06" x2="1436.40" y2="466.26" style="stroke:#F0F0F0;stroke-width:9.72"/>
	<line x1="1436.40" y1="433.86" x2="1436.40" y2="369.06" style="stroke:#F0F0F0;stroke-width:9.72"/>
	<line x1="1436.40" y1="336.66" x2="1436.40" y2="271.86" style="stroke:#F0F0F0;stroke-width:9.72"/>
	<line x1="1436.40" y1="239.46" x2="1436.40" y2="174.66" style="stroke:#F0F0F0;stroke-width:9.72"/>
	<line x1="1436.40" y1="142.26" x2="1436.40" y2="113.40" style="stroke:#F0F0F0;stroke-width:9.72"/>
	<line x1="2391.53" y1="2766.66" x2="2391.53" y2="2701.86" style="stroke:#F0F0F0;stroke-width:9.72"/>
	<line x1="2391.53" y1="2669.46" x2="2391.53" y2="2604.66" style="stroke:#F0F0F0;stroke-width:9.72"/>
	<line x1="2391.53" y1="2572.26" x2="2391.53" y2="2507.46" style="stroke:#F0F0F0;stroke-width:9.72"/>
	<line x1="2391.53" y1="2475.06" x2="2391.53" y2="2410.26" style="stroke:#F0F0F0;stroke-width:9.72"/>
	<line x1="2391.53" y1="2377.86" x2="2391.53" y2="2313.06" style="stroke:#F0F0F0;stroke-width:9.72"/>
	<line x1="2391.53" y1="2280.66" x2="2391.53" y2="2215.86" style="stroke:#F0F0F0;stroke-width:9.72"/>
	<line x1="2391.53" y1="2183.46" x2="2391.53" y2="2118.66" style="stroke:#F0F0F0;stroke-width:9.72"/>
	<line x1="2391.53" y1="2086.26" x2="2391.53" y2="2021.46" style="stroke:#F0F0F0;stroke-width:9.72"/>
	<line x1="2391.53" y1="1989.06" x2="2391.53" y2="1924.26" style="stroke:#F0F0F0;stroke-width:9.72"/>
	<line x1="2391.53" y1="1891.86" x2="2391.53" y2="1827.06" style="stroke:#F0F0F0;stroke-width:9.72"/>
	<line x1="2391.53" y1="1794.66" x2="2391.53" y2="1729.86" style="stroke:#F0F0F0;stroke-width:9.72"/>
	<line x1="2391.53" y1="1697.46" x2="2391.53" y2="1632.66" style="stroke:#F0F0F0;stroke-width:9.72"/>
	<line x1="2391.53" y1="1600.26" x2="2391.53" y2="1535.46" style="stroke:#F0F0F0;stroke-width:9.72"/>
	<line x1="2391.53" y1="1503.06" x2="2391.53" y2="1438.26" style="stroke:#F0F0F0;stroke-width:9.72"/>
	<line x1="2391.53" y1="1405.86" x2="2391.53" y2="1341.06" style="stroke:#F0F0F0;stroke-width:9.72"/>
	<line x1="2391.53" y1="1308.66" x2="2391.53" y2="1243.86" style="stroke:#F0F0F0;stroke-width:9.72"/>
	<line x1="2391.53" y1="1211.46" x2="2391.53" y2="1146.66" style="stroke:#F0F0F0;stroke-width:9.72"/>
	<line x1="2391.53" y1="1114.26" x2="2391.53" y2="1049.46" style="stroke:#F0F0F0;stroke-width:9.72"/>
	<line x1="2391.53" y1="1017.06" x2="2391.53" y2="952.26" style="stroke:#F0F0F0;stroke-width:9.72"/>
	<line x1="2391.53" y1="919.86" x2="2391.53" y2="855.06" style="stroke:#F0F0F0;stroke-width:9.72"/>
	<line x1="2391.53" y1="822.66" x2="2391.53" y2="757.86" style="stroke:#F0F0F0;stroke-width:9.72"/>
	<line x1="2391.53" y1="725.46" x2="2391.53" y2="660.66" style="stroke:#F0F0F0;stroke-width:9.72"/>
	<line x1="2391.53" y1="628.26" x2="2391.53" y2="563.46" style="stroke:#F0F0F0;stroke-width:9.72"/>
	<line x1="2391.53" y1="531.06" x2="2391.53" y2="466.26" style="stroke:#F0F0F0;stroke-width:9.72"/>
	<line x1="2391.53" y1="433.86" x2="2391.53" y2="369.06" style="stroke:#F0F0F0;stroke-width:9.72"/>
	<line x1="2391.53" y1="336.66" x2="2391.53" y2="271.86" style="stroke:#F0F0F0;stroke-width:9.72"/>
	<line x1="2391.53" y1="239.46" x2="2391.53" y2="174.66" style="stroke:#F0F0F0;stroke-width:9.72"/>
	<line x1="2391.53" y1="142.26" x2="2391.53" y2="113.40" style="stroke:#F0F0F0;stroke-width:9.72"/>
	<line x1="3346.48" y1="2766.66" x2="3346.48" y2="2701.86" style="stroke:#F0F0F0;stroke-width:9.72"/>
	<line x1="3346.48" y1="2669.46" x2="3346.48" y2="2604.66" style="stroke:#F0F0F0;stroke-width:9.72"/>
	<line x1="3346.48" y1="2572.26" x2="3346.48" y2="2507.46" style="stroke:#F0F0F0;stroke-width:9.72"/>
	<line x1="3346.48" y1="2475.06" x2="3346.48" y2="2410.26" style="stroke:#F0F0F0;stroke-width:9.72"/>
	<line x1="3346.48" y1="2377.86" x2="3346.48" y2="2313.06" style="stroke:#F0F0F0;stroke-width:9.72"/>
	<line x1="3346.48" y1="2280.66" x2="3346.48" y2="2215.86" style="stroke:#F0F0F0;stroke-width:9.72"/>
	<line x1="3346.48" y1="2183.46" x2="3346.48" y2="2118.66" style="stroke:#F0F0F0;stroke-width:9.72"/>
	<line x1="3346.48" y1="2086.26" x2="3346.48" y2="2021.46" style="stroke:#F0F0F0;stroke-width:9.72"/>
	<line x1="3346.48" y1="1989.06" x2="3346.48" y2="1924.26" style="stroke:#F0F0F0;stroke-width:9.72"/>
	<line x1="3346.48" y1="1891.86" x2="3346.48" y2="1827.06" style="stroke:#F0F0F0;stroke-width:9.72"/>
	<line x1="3346.48" y1="1794.66" x2="3346.48" y2="1729.86" style="stroke:#F0F0F0;stroke-width:9.72"/>
	<line x1="3346.48" y1="1697.46" x2="3346.48" y2="1632.66" style="stroke:#F0F0F0;stroke-width:9.72"/>
	<line x1="3346.48" y1="1600.26" x2="3346.48" y2="1535.46" style="stroke:#F0F0F0;stroke-width:9.72"/>
	<line x1="3346.48" y1="1503.06" x2="3346.48" y2="1438.26" style="stroke:#F0F0F0;stroke-width:9.72"/>
	<line x1="3346.48" y1="1405.86" x2="3346.48" y2="1341.06" style="stroke:#F0F0F0;stroke-width:9.72"/>
	<line x1="3346.48" y1="1308.66" x2="3346.48" y2="1243.86" style="stroke:#F0F0F0;stroke-width:9.72"/>
	<line x1="3346.48" y1="1211.46" x2="3346.48" y2="1146.66" style="stroke:#F0F0F0;stroke-width:9.72"/>
	<line x1="3346.48" y1="1114.26" x2="3346.48" y2="1049.46" style="stroke:#F0F0F0;stroke-width:9.72"/>
	<line x1="3346.48" y1="1017.06" x2="3346.48" y2="952.26" style="stroke:#F0F0F0;stroke-width:9.72"/>
	<line x1="3346.48" y1="919.86" x2="3346.48" y2="855.06" style="stroke:#F0F0F0;stroke-width:9.72"/>
	<line x1="3346.48" y1="822.66" x2="3346.48" y2="757.86" style="stroke:#F0F0F0;stroke-width:9.72"/>
	<line x1="3346.48" y1="725.46" x2="3346.48" y2="660.66" style="stroke:#F0F0F0;stroke-width:9.72"/>
	<line x1="3346.48" y1="628.26" x2="3346.48" y2="563.46" style="stroke:#F0F0F0;stroke-width:9.72"/>
	<line x1="3346.48" y1="531.06" x2="3346.48" y2="466.26" style="stroke:#F0F0F0;stroke-width:9.72"/>
	<line x1="3346.48" y1="433.86" x2="3346.48" y2="369.06" style="stroke:#F0F0F0;stroke-width:9.72"/>
	<line x1="3346.48" y1="336.66" x2="3346.48" y2="271.86" style="stroke:#F0F0F0;stroke-width:9.72"/>
	<line x1="3346.48" y1="239.46" x2="3346.48" y2="174.66" style="stroke:#F0F0F0;stroke-width:9.72"/>
	<line x1="3346.48" y1="142.26" x2="3346.48" y2="113.40" style="stroke:#F0F0F0;stroke-width:9.72"/>
	<line x1="4301.44" y1="2766.66" x2="4301.44" y2="2701.86" style="stroke:#F0F0F0;stroke-width:9.72"/>
	<line x1="4301.44" y1="2669.46" x2="4301.44" y2="2604.66" style="stroke:#F0F0F0;stroke-width:9.72"/>
	<line x1="4301.44" y1="2572.26" x2="4301.44" y2="2507.46" style="stroke:#F0F0F0;stroke-width:9.72"/>
	<line x1="4301.44" y1="2475.06" x2="4301.44" y2="2410.26" style="stroke:#F0F0F0;stroke-width:9.72"/>
	<line x1="4301.44" y1="2377.86" x2="4301.44" y2="2313.06" style="stroke:#F0F0F0;stroke-width:9.72"/>
	<line x1="4301.44" y1="2280.66" x2="4301.44" y2="2215.86" style="stroke:#F0F0F0;stroke-width:9.72"/>
	<line x1="4301.44" y1="2183.46" x2="4301.44" y2="2118.66" style="stroke:#F0F0F0;stroke-width:9.72"/>
	<line x1="4301.44" y1="2086.26" x2="4301.44" y2="2021.46" style="stroke:#F0F0F0;stroke-width:9.72"/>
	<line x1="4301.44" y1="1989.06" x2="4301.44" y2="1924.26" style="stroke:#F0F0F0;stroke-width:9.72"/>
	<line x1="4301.44" y1="1891.86" x2="4301.44" y2="1827.06" style="stroke:#F0F0F0;stroke-width:9.72"/>
	<line x1="4301.44" y1="1794.66" x2="4301.44" y2="1729.86" style="stroke:#F0F0F0;stroke-width:9.72"/>
	<line x1="4301.44" y1="1697.46" x2="4301.44" y2="1632.66" style="stroke:#F0F0F0;stroke-width:9.72"/>
	<line x1="4301.44" y1="1600.26" x2="4301.44" y2="1535.46" style="stroke:#F0F0F0;stroke-width:9.72"/>
	<line x1="4301.44" y1="1503.06" x2="4301.44" y2="1438.26" style="stroke:#F0F0F0;stroke-width:9.72"/>
	<line x1="4301.44" y1="1405.86" x2="4301.44" y2="1341.06" style="stroke:#F0F0F0;stroke-width:9.72"/>
	<line x1="4301.44" y1="1308.66" x2="4301.44" y2="1243.86" style="stroke:#F0F0F0;stroke-width:9.72"/>
	<line x1="4301.44" y1="1211.46" x2="4301.44" y2="1146.66" style="stroke:#F0F0F0;stroke-width:9.72"/>
	<line x1="4301.44" y1="1114.26" x2="4301.44" y2="1049.46" style="stroke:#F0F0F0;stroke-width:9.72"/>
	<line x1="4301.44" y1="1017.06" x2="4301.44" y2="952.26" style="stroke:#F0F0F0;stroke-width:9.72"/>
	<line x1="4301.44" y1="919.86" x2="4301.44" y2="855.06" style="stroke:#F0F0F0;stroke-width:9.72"/>
	<line x1="4301.44" y1="822.66" x2="4301.44" y2="757.86" style="stroke:#F0F0F0;stroke-width:9.72"/>
	<line x1="4301.44" y1="725.46" x2="4301.44" y2="660.66" style="stroke:#F0F0F0;stroke-width:9.72"/>
	<line x1="4301.44" y1="628.26" x2="4301.44" y2="563.46" style="stroke:#F0F0F0;stroke-width:9.72"/>
	<line x1="4301.44" y1="531.06" x2="4301.44" y2="466.26" style="stroke:#F0F0F0;stroke-width:9.72"/>
	<line x1="4301.44" y1="433.86" x2="4301.44" y2="369.06" style="stroke:#F0F0F0;stroke-width:9.72"/>
	<line x1="4301.44" y1="336.66" x2="4301.44" y2="271.86" style="stroke:#F0F0F0;stroke-width:9.72"/>
	<line x1="4301.44" y1="239.46" x2="4301.44" y2="174.66" style="stroke:#F0F0F0;stroke-width:9.72"/>
	<line x1="4301.44" y1="142.26" x2="4301.44" y2="113.40" style="stroke:#F0F0F0;stroke-width:9.72"/>
	<line x1="2391.53" y1="2766.66" x2="2391.53" y2="2701.86" style="stroke:#000000;stroke-width:9.72"/>
	<line x1="2391.53" y1="2669.46" x2="2391.53" y2="2604.66" style="stroke:#000000;stroke-width:9.72"/>
	<line x1="2391.53" y1="2572.26" x2="2391.53" y2="2507.46" style="stroke:#000000;stroke-width:9.72"/>
	<line x1="2391.53" y1="2475.06" x2="2391.53" y2="2410.26" style="stroke:#000000;stroke-width:9.72"/>
	<line x1="2391.53" y1="2377.86" x2="2391.53" y2="2313.06" style="stroke:#000000;stroke-width:9.72"/>
	<line x1="2391.53" y1="2280.66" x2="2391.53" y2="2215.86" style="stroke:#000000;stroke-width:9.72"/>
	<line x1="2391.53" y1="2183.46" x2="2391.53" y2="2118.66" style="stroke:#000000;stroke-width:9.72"/>
	<line x1="2391.53" y1="2086.26" x2="2391.53" y2="2021.46" style="stroke:#000000;stroke-width:9.72"/>
	<line x1="2391.53" y1="1989.06" x2="2391.53" y2="1924.26" style="stroke:#000000;stroke-width:9.72"/>
	<line x1="2391.53" y1="1891.86" x2="2391.53" y2="1827.06" style="stroke:#000000;stroke-width:9.72"/>
	<line x1="2391.53" y1="1794.66" x2="2391.53" y2="1729.86" style="stroke:#000000;stroke-width:9.72"/>
	<line x1="2391.53" y1="1697.46" x2="2391.53" y2="1632.66" style="stroke:#000000;stroke-width:9.72"/>
	<line x1="2391.53" y1="1600.26" x2="2391.53" y2="1535.46" style="stroke:#000000;stroke-width:9.72"/>
	<line x1="2391.53" y1="1503.06" x2="2391.53" y2="1438.26" style="stroke:#000000;stroke-width:9.72"/>
	<line x1="2391.53" y1="1405.86" x2="2391.53" y2="1341.06" style="stroke:#000000;stroke-width:9.72"/>
	<line x1="2391.53" y1="1308.66" x2="2391.53" y2="1243.86" style="stroke:#000000;stroke-width:9.72"/>
	<line x1="2391.53" y1="1211.46" x2="2391.53" y2="1146.66" style="stroke:#000000;stroke-width:9.72"/>
	<line x1="2391.53" y1="1114.26" x2="2391.53" y2="1049.46" style="stroke:#000000;stroke-width:9.72"/>
	<line x1="2391.53" y1="1017.06" x2="2391.53" y2="952.26" style="stroke:#000000;stroke-width:9.72"/>
	<line x1="2391.53" y1="919.86" x2="2391.53" y2="855.06" style="stroke:#000000;stroke-width:9.72"/>
	<line x1="2391.53" y1="822.66" x2="2391.53" y2="757.86" style="stroke:#000000;stroke-width:9.72"/>
	<line x1="2391.53" y1="725.46" x2="2391.53" y2="660.66" style="stroke:#000000;stroke-width:9.72"/>
	<line x1="2391.53" y1="628.26" x2="2391.53" y2="563.46" style="stroke:#000000;stroke-width:9.72"/>
	<line x1="2391.53" y1="531.06" x2="2391.53" y2="466.26" style="stroke:#000000;stroke-width:9.72"/>
	<line x1="2391.53" y1="433.86" x2="2391.53" y2="369.06" style="stroke:#000000;stroke-width:9.72"/>
	<line x1="2391.53" y1="336.66" x2="2391.53" y2="271.86" style="stroke:#000000;stroke-width:9.72"/>
	<line x1="2391.53" y1="239.46" x2="2391.53" y2="174.66" style="stroke:#000000;stroke-width:9.72"/>
	<line x1="2391.53" y1="142.26" x2="2391.53" y2="113.40" style="stroke:#000000;stroke-width:9.72"/>
	<path d=" M907.54 2683.29 L917.16 2682.28 L926.94 2681.10 L936.56 2679.58 L946.35 2678.06 L955.97 2676.38 L965.76 2674.35 L975.54 2672.66 L985.16 2670.98 L994.95 2669.63 L1004.57 2668.28 L1014.36 2667.09 L1023.98 2666.08 L1033.76 2665.07 L1043.55 2663.89 L1053.17 2662.71 L1062.96 2661.53 L1072.58 2660.01 L1082.36 2658.66 L1091.98 2657.48 L1101.77 2655.96 L1111.56 2654.61 L1121.18 2653.43 L1130.96 2652.41 L1140.58 2650.56 L1150.37 2648.36 L1159.99 2645.83 L1169.78 2643.13 L1179.56 2639.42 L1189.18 2635.71 L1198.97 2632.16 L1208.59 2628.28 L1218.38 2624.06 L1227.99 2619.17 L1237.78 2613.94 L1247.57 2609.38 L1257.19 2604.66 L1266.97 2598.41 L1276.59 2590.48 L1286.38 2580.86 L1296.00 2569.39 L1305.79 2557.57 L1315.58 2545.09 L1325.19 2531.59 L1334.98 2519.10 L1344.60 2506.78 L1354.39 2493.45 L1364.01 2479.61 L1373.79 2465.94 L1383.58 2451.94 L1393.20 2437.59 L1402.99 2424.77 L1412.61 2412.45 L1422.39 2401.14 L1432.01 2387.48 L1441.80 2373.98 L1451.59 2360.98 L1461.21 2348.32 L1470.99 2335.84 L1480.61 2324.19 L1490.40 2313.23 L1500.02 2301.92 L1509.81 2291.79 L1519.59 2282.01 L1529.21 2272.05 L1539.00 2263.44 L1548.62 2253.82 L1558.41 2244.21 L1568.03 2235.60 L1577.81 2227.50 L1587.60 2217.38 L1597.22 2203.88 L1607.01 2188.69 L1616.63 2172.99 L1626.41 2156.12 L1636.03 2139.41 L1645.82 2122.88 L1655.44 2106.17 L1665.23 2088.45 L1675.01 2070.39 L1684.63 2051.66 L1694.42 2031.75 L1704.04 2012.01 L1713.83 1992.60 L1723.44 1971.84 L1733.23 1948.39 L1743.02 1922.57 L1752.64 1893.21 L1762.43 1864.69 L1772.04 1837.18 L1781.83 1810.69 L1791.45 1785.21 L1801.24 1758.71 L1811.03 1730.70 L1820.64 1703.36 L1830.43 1676.03 L1840.05 1645.65 L1849.84 1613.93 L1859.46 1580.85 L1869.24 1548.96 L1879.03 1518.08 L1888.65 1483.99 L1898.44 1448.55 L1908.06 1415.14 L1917.84 1383.08 L1927.46 1350.34 L1937.25 1319.96 L1947.04 1290.94 L1956.66 1265.12 L1966.44 1241.33 L1976.06 1219.22 L1985.85 1200.99 L1995.47 1183.78 L2005.26 1166.23 L2015.04 1146.49 L2024.66 1129.28 L2034.45 1112.91 L2044.07 1097.89 L2053.86 1080.34 L2063.48 1061.78 L2073.26 1043.04 L2083.05 1023.13 L2092.67 1003.39 L2102.46 983.81 L2112.07 963.39 L2121.86 942.64 L2131.48 922.39 L2141.27 903.66 L2151.06 885.60 L2160.68 868.05 L2170.46 849.66 L2180.08 833.79 L2189.87 818.94 L2199.49 801.22 L2209.28 783.00 L2219.06 766.13 L2228.68 749.08 L2238.47 733.22 L2248.09 720.06 L2257.88 709.26 L2267.49 703.01 L2277.28 699.81 L2287.07 694.41 L2296.69 687.99 L2306.48 677.19 L2316.09 664.88 L2325.88 656.94 L2335.50 646.82 L2345.29 636.69 L2355.07 626.74 L2364.69 619.82 L2374.48 615.09 L2384.10 610.37 L2393.89 607.84 L2403.51 607.50 L2413.29 609.19 L2422.91 610.71 L2432.70 613.57 L2442.49 621.00 L2452.11 628.76 L2461.89 632.64 L2471.51 634.84 L2481.30 639.06 L2490.92 646.14 L2500.71 656.27 L2510.49 666.22 L2520.11 676.69 L2529.90 687.99 L2539.52 698.79 L2549.31 710.78 L2558.93 724.28 L2568.71 738.96 L2578.50 755.16 L2588.12 773.72 L2597.91 794.14 L2607.53 817.26 L2617.31 842.23 L2626.93 867.21 L2636.72 894.88 L2646.51 924.58 L2656.13 955.63 L2665.91 987.36 L2675.53 1019.42 L2685.32 1049.79 L2694.94 1076.79 L2704.73 1104.47 L2714.51 1137.21 L2724.13 1174.16 L2733.92 1210.11 L2743.54 1245.38 L2753.33 1280.31 L2762.94 1312.20 L2772.73 1347.47 L2782.52 1383.08 L2792.14 1416.15 L2801.93 1448.55 L2811.54 1482.47 L2821.33 1516.05 L2830.95 1548.11 L2840.74 1576.13 L2850.53 1603.29 L2860.14 1631.64 L2869.93 1658.31 L2879.55 1680.58 L2889.34 1702.01 L2898.96 1723.61 L2908.74 1743.53 L2918.53 1761.08 L2928.15 1778.96 L2937.94 1795.16 L2947.56 1813.39 L2957.34 1829.76 L2966.96 1844.27 L2976.75 1857.60 L2986.54 1869.92 L2996.16 1881.56 L3005.94 1893.71 L3015.56 1905.53 L3025.35 1918.35 L3034.97 1931.34 L3044.76 1942.99 L3054.54 1954.13 L3064.16 1965.60 L3073.95 1979.10 L3083.57 1992.43 L3093.36 2005.93 L3102.98 2020.44 L3112.76 2035.29 L3122.55 2050.48 L3132.17 2067.53 L3141.96 2085.07 L3151.58 2099.25 L3161.36 2113.76 L3170.98 2130.30 L3180.77 2147.51 L3190.39 2163.71 L3200.18 2181.43 L3209.96 2199.15 L3219.58 2218.89 L3229.37 2239.65 L3238.99 2261.08 L3248.78 2282.68 L3258.39 2303.78 L3268.18 2326.05 L3277.97 2347.82 L3287.59 2366.38 L3297.38 2382.92 L3306.99 2397.60 L3316.78 2413.29 L3326.40 2427.47 L3336.19 2438.94 L3345.98 2449.91 L3355.59 2459.87 L3365.38 2470.16 L3375.00 2481.13 L3384.79 2491.26 L3394.41 2501.21 L3404.19 2512.35 L3413.98 2523.32 L3423.60 2533.78 L3433.39 2543.57 L3443.01 2553.19 L3452.79 2563.31 L3462.41 2573.10 L3472.20 2582.21 L3481.99 2591.83 L3491.61 2600.10 L3501.39 2607.02 L3511.01 2613.77 L3520.80 2620.35 L3530.42 2626.76 L3540.21 2633.34 L3549.99 2639.59 L3559.61 2644.82 L3569.40 2649.04 L3579.02 2651.74 L3588.81 2653.93 L3598.43 2655.79 L3608.21 2656.80 L3618.00 2657.98 L3627.62 2658.99 L3637.41 2659.67 L3647.03 2659.67 L3656.81 2659.67 L3666.43 2660.01 L3676.22 2660.34 L3686.01 2660.85 L3695.63 2661.69 L3705.41 2662.54 L3715.03 2663.72 L3724.82 2664.90 L3734.44 2666.42 L3744.23 2667.94 L3754.01 2669.79 L3763.63 2671.82 L3773.42 2673.34 L3783.04 2674.69 L3792.83 2675.70 L3802.44 2676.88 L3812.23 2678.06" stroke-linejoin="round" style="fill:none;stroke:#1A85FF;stroke-width:9.72"/>
	<path d=" M765.45 2684.14 L774.56 2682.96 L783.51 2681.78 L792.45 2680.59 L801.39 2679.58 L810.51 2677.89 L819.45 2676.38 L828.39 2674.35 L837.51 2672.33 L846.45 2670.47 L855.39 2668.78 L864.34 2667.26 L873.45 2665.91 L882.39 2664.73 L891.34 2663.72 L900.45 2662.54 L909.39 2661.02 L918.34 2659.84 L927.28 2658.49 L936.39 2656.97 L945.34 2655.62 L954.28 2654.27 L963.39 2652.75 L972.34 2651.40 L981.28 2649.54 L990.23 2647.86 L999.34 2645.83 L1008.28 2643.98 L1017.23 2641.28 L1026.34 2638.24 L1035.28 2633.85 L1044.22 2629.63 L1053.17 2625.92 L1062.28 2622.38 L1071.22 2618.16 L1080.17 2613.43 L1089.28 2608.20 L1098.22 2603.14 L1107.17 2597.91 L1116.11 2591.16 L1125.22 2582.55 L1134.17 2571.24 L1143.11 2558.25 L1152.22 2544.92 L1161.17 2531.42 L1170.11 2517.24 L1179.06 2503.41 L1188.17 2489.23 L1197.11 2474.72 L1206.06 2459.87 L1215.17 2444.01 L1224.11 2427.81 L1233.06 2413.13 L1242.00 2399.12 L1251.11 2385.45 L1260.06 2371.95 L1269.00 2357.27 L1278.11 2343.09 L1287.06 2329.59 L1296.00 2316.26 L1304.94 2303.78 L1314.06 2290.95 L1323.00 2278.80 L1331.94 2267.83 L1341.06 2257.54 L1350.00 2247.07 L1358.94 2236.95 L1367.89 2228.01 L1377.00 2218.39 L1385.94 2208.60 L1394.89 2198.48 L1404.00 2188.35 L1412.94 2177.21 L1421.89 2164.73 L1430.83 2150.89 L1439.94 2135.36 L1448.89 2115.96 L1457.83 2098.07 L1466.94 2079.00 L1475.89 2060.61 L1484.83 2041.20 L1493.78 2021.29 L1502.89 2001.04 L1511.83 1980.79 L1520.78 1961.38 L1529.89 1941.47 L1538.83 1920.54 L1547.78 1893.71 L1556.72 1862.16 L1565.83 1831.61 L1574.78 1802.08 L1583.72 1770.86 L1592.83 1741.84 L1601.78 1713.49 L1610.72 1685.48 L1619.66 1656.62 L1628.78 1625.57 L1637.72 1595.53 L1646.66 1564.65 L1655.78 1532.93 L1664.72 1498.50 L1673.66 1464.92 L1682.61 1427.46 L1691.72 1390.67 L1700.66 1352.87 L1709.61 1314.90 L1718.72 1278.79 L1727.66 1242.68 L1736.61 1208.76 L1745.55 1176.69 L1754.66 1149.36 L1763.61 1124.21 L1772.55 1100.59 L1781.66 1078.99 L1790.61 1060.26 L1799.55 1040.01 L1808.49 1019.76 L1817.61 998.16 L1826.55 980.10 L1835.49 962.38 L1844.61 943.48 L1853.55 924.24 L1862.49 903.32 L1871.44 884.25 L1880.55 863.16 L1889.49 841.56 L1898.44 817.76 L1907.55 794.31 L1916.49 771.36 L1925.44 750.60 L1934.38 731.19 L1943.49 713.81 L1952.44 697.44 L1961.38 677.36 L1970.49 657.96 L1979.44 640.91 L1988.38 623.53 L1997.33 606.15 L2006.44 592.14 L2015.38 577.63 L2024.33 564.13 L2033.44 555.36 L2042.38 546.41 L2051.32 541.86 L2060.27 537.81 L2069.38 532.07 L2078.32 520.93 L2087.27 509.12 L2096.38 497.14 L2105.32 485.49 L2114.27 471.66 L2123.21 458.16 L2132.32 449.55 L2141.27 441.62 L2150.21 436.89 L2159.32 433.01 L2168.27 432.17 L2177.21 434.36 L2186.16 439.76 L2195.27 448.54 L2204.21 454.61 L2213.16 457.14 L2222.27 459.51 L2231.21 459.68 L2240.16 464.06 L2249.10 469.46 L2258.21 476.89 L2267.16 483.47 L2276.10 492.75 L2285.21 505.74 L2294.16 516.38 L2303.10 529.20 L2312.04 542.53 L2321.16 559.24 L2330.10 577.80 L2339.04 599.23 L2348.16 622.35 L2357.10 649.01 L2366.04 676.52 L2374.99 701.66 L2384.10 730.86 L2393.04 763.09 L2401.99 794.98 L2411.10 827.89 L2420.04 863.83 L2428.99 898.09 L2437.93 930.82 L2447.04 966.94 L2455.99 1004.57 L2464.93 1043.72 L2474.04 1084.05 L2482.99 1124.04 L2491.93 1163.36 L2500.88 1199.98 L2509.99 1237.44 L2518.93 1273.72 L2527.88 1308.32 L2536.99 1341.90 L2545.93 1377.68 L2554.88 1412.78 L2563.82 1446.53 L2572.93 1480.11 L2581.88 1509.98 L2590.82 1540.01 L2599.93 1570.89 L2608.88 1603.13 L2617.82 1629.11 L2626.76 1651.39 L2635.88 1672.48 L2644.82 1692.90 L2653.76 1712.14 L2662.88 1729.52 L2671.82 1746.73 L2680.76 1761.75 L2689.71 1776.43 L2698.82 1792.97 L2707.76 1806.13 L2716.71 1819.46 L2725.82 1833.64 L2734.76 1849.50 L2743.71 1865.19 L2752.82 1878.02 L2761.76 1891.35 L2770.71 1906.03 L2779.65 1921.56 L2788.76 1935.23 L2797.71 1949.23 L2806.65 1963.91 L2815.76 1978.43 L2824.71 1992.60 L2833.65 2007.28 L2842.59 2023.31 L2851.71 2039.85 L2860.65 2057.57 L2869.59 2075.96 L2878.71 2094.69 L2887.65 2113.59 L2896.59 2133.00 L2905.54 2153.93 L2914.65 2176.03 L2923.59 2197.97 L2932.54 2220.24 L2941.65 2243.19 L2950.59 2265.81 L2959.54 2288.76 L2968.48 2310.69 L2977.59 2330.44 L2986.54 2349.34 L2995.48 2365.71 L3004.59 2381.06 L3013.54 2396.25 L3022.48 2410.76 L3031.43 2422.91 L3040.54 2435.23 L3049.48 2447.89 L3058.43 2460.54 L3067.54 2471.51 L3076.48 2482.65 L3085.43 2494.13 L3094.37 2504.93 L3103.48 2516.74 L3112.43 2529.39 L3121.37 2541.38 L3130.48 2553.53 L3139.43 2565.68 L3148.37 2577.49 L3157.31 2588.12 L3166.43 2596.22 L3175.37 2604.32 L3184.31 2612.08 L3193.43 2619.68 L3202.37 2626.93 L3211.31 2633.68 L3220.26 2640.09 L3229.37 2644.82 L3238.31 2647.52 L3247.26 2648.70 L3256.37 2649.21 L3265.31 2650.05 L3274.26 2651.23 L3283.20 2652.24 L3292.31 2653.26 L3301.26 2653.93 L3310.20 2654.61 L3319.31 2654.94 L3328.26 2655.28 L3337.20 2655.79 L3346.14 2656.63 L3355.26 2657.64 L3364.20 2658.66 L3373.14 2660.01 L3382.26 2661.53 L3391.20 2663.21 L3400.14 2665.07 L3409.09 2666.42 L3418.20 2667.94 L3427.14 2669.63 L3436.09 2671.48 L3445.20 2673.34 L3454.14 2675.53" stroke-linejoin="round" style="fill:none;stroke:#D41159;stroke-width:9.72"/>
	<line x1="410.23" y1="2766.66" x2="410.23" y2="113.40" style="stroke:#000000;stroke-width:6.48"/>
	<line x1="410.23" y1="2695.28" x2="365.18" y2="2695.28" style="stroke:#000000;stroke-width:6.48"/>
	<text x="342.73" y="2734.71" style="font-family:'Helvetica';font-size:112.56px;fill:#000000" text-anchor="end">0</text>
	<line x1="410.23" y1="2193.24" x2="365.18" y2="2193.24" style="stroke:#000000;stroke-width:6.48"/>
	<text x="342.73" y="2232.68" style="font-family:'Helvetica';font-size:112.56px;fill:#000000" text-anchor="end">2</text>
	<line x1="410.23" y1="1691.04" x2="365.18" y2="1691.04" style="stroke:#000000;stroke-width:6.48"/>
	<text x="342.73" y="1730.48" style="font-family:'Helvetica';font-size:112.56px;fill:#000000" text-anchor="end">4</text>
	<line x1="410.23" y1="1189.01" x2="365.18" y2="1189.01" style="stroke:#000000;stroke-width:6.48"/>
	<text x="342.73" y="1228.45" style="font-family:'Helvetica';font-size:112.56px;fill:#000000" text-anchor="end">6</text>
	<line x1="410.23" y1="686.81" x2="365.18" y2="686.81" style="stroke:#000000;stroke-width:6.48"/>
	<text x="342.73" y="726.25" style="font-family:'Helvetica';font-size:112.56px;fill:#000000" text-anchor="end">8</text>
	<line x1="410.23" y1="184.61" x2="365.18" y2="184.61" style="stroke:#000000;stroke-width:6.48"/>
	<text x="342.73" y="224.05" style="font-family:'Helvetica';font-size:112.56px;fill:#000000" text-anchor="end">10</text>
	<line x1="410.23" y1="2766.66" x2="4372.65" y2="2766.66" style="stroke:#000000;stroke-width:6.48"/>
	<line x1="481.44" y1="2766.66" x2="481.44" y2="2811.54" style="stroke:#000000;stroke-width:6.48"/>
	<text x="481.44" y="2912.86" style="font-family:'Helvetica';font-size:112.56px;fill:#000000" text-anchor="middle">.2</text>
	<line x1="1436.40" y1="2766.66" x2="1436.40" y2="2811.54" style="stroke:#000000;stroke-width:6.48"/>
	<text x="1436.40" y="2912.86" style="font-family:'Helvetica';font-size:112.56px;fill:#000000" text-anchor="middle">.3</text>
	<line x1="2391.53" y1="2766.66" x2="2391.53" y2="2811.54" style="stroke:#000000;stroke-width:6.48"/>
	<text x="2391.53" y="2912.86" style="font-family:'Helvetica';font-size:112.56px;fill:#000000" text-anchor="middle">.4</text>
	<line x1="3346.48" y1="2766.66" x2="3346.48" y2="2811.54" style="stroke:#000000;stroke-width:6.48"/>
	<text x="3346.48" y="2912.86" style="font-family:'Helvetica';font-size:112.56px;fill:#000000" text-anchor="middle">.5</text>
	<line x1="4301.44" y1="2766.66" x2="4301.44" y2="2811.54" style="stroke:#000000;stroke-width:6.48"/>
	<text x="4301.44" y="2912.86" style="font-family:'Helvetica';font-size:112.56px;fill:#000000" text-anchor="middle">.6</text>
	<text x="2391.53" y="3070.31" style="font-family:'Helvetica';font-size:112.56px;fill:#000000" text-anchor="middle">x</text>
	<rect x="4411.63" y="1256.34" width="836.16" height="367.20" style="fill:#FFFFFF"/>
	<rect x="4414.87" y="1259.58" width="829.68" height="360.72" style="fill:none;stroke:#FFFFFF;stroke-width:6.48"/>
	<line x1="4460.23" y1="1361.31" x2="4719.43" y2="1361.31" style="stroke:#1A85FF;stroke-width:9.72"/>
	<line x1="4460.23" y1="1518.75" x2="4719.43" y2="1518.75" style="stroke:#D41159;stroke-width:9.72"/>
	<text x="4786.93" y="1400.74" style="font-family:'Helvetica';font-size:112.56px;fill:#000000">Logistic</text>
	<text x="4786.93" y="1558.19" style="font-family:'Helvetica';font-size:112.56px;fill:#000000">Poisson</text>
</svg>
