<?xml version="1.0" encoding="UTF-8" standalone="no"?>
<!-- This is a Stata 18.0 generated SVG file (http://www.stata.com) -->

<svg version="1.1" width="7.500in" height="4.500in" viewBox="0 0 5400 3240" xmlns="http://www.w3.org/2000/svg" xmlns:xlink="http://www.w3.org/1999/xlink">
	<desc>Stata Graph - Graph</desc>
	<rect x="0" y="0" width="5400" height="3240" style="fill:#FFFFFF;stroke:none"/>
	<rect x="0.00" y="0.00" width="5400.00" height="3240.00" style="fill:#FFFFFF"/>
	<rect x="3.24" y="3.24" width="5393.52" height="3233.52" style="fill:none;stroke:#FFFFFF;stroke-width:6.48"/>
	<rect x="412.59" y="113.40" width="3952.13" height="2653.26" style="fill:#FFFFFF"/>
	<rect x="415.83" y="116.64" width="3945.65" height="2646.78" style="fill:none;stroke:#FFFFFF;stroke-width:6.48"/>
	<line x1="412.59" y1="2695.28" x2="477.39" y2="2695.28" style="stroke:#F0F0F0;stroke-width:9.72"/>
	<line x1="509.79" y1="2695.28" x2="574.59" y2="2695.28" style="stroke:#F0F0F0;stroke-width:9.72"/>
	<line x1="606.99" y1="2695.28" x2="671.79" y2="2695.28" style="stroke:#F0F0F0;stroke-width:9.72"/>
	<line x1="704.19" y1="2695.28" x2="768.99" y2="2695.28" style="stroke:#F0F0F0;stroke-width:9.72"/>
	<line x1="801.39" y1="2695.28" x2="866.19" y2="2695.28" style="stroke:#F0F0F0;stroke-width:9.72"/>
	<line x1="898.59" y1="2695.28" x2="963.39" y2="2695.28" style="stroke:#F0F0F0;stroke-width:9.72"/>
	<line x1="995.79" y1="2695.28" x2="1060.59" y2="2695.28" style="stroke:#F0F0F0;stroke-width:9.72"/>
	<line x1="1092.99" y1="2695.28" x2="1157.79" y2="2695.28" style="stroke:#F0F0F0;stroke-width:9.72"/>
	<line x1="1190.19" y1="2695.28" x2="1254.99" y2="2695.28" style="stroke:#F0F0F0;stroke-width:9.72"/>
	<line x1="1287.39" y1="2695.28" x2="1352.19" y2="2695.28" style="stroke:#F0F0F0;stroke-width:9.72"/>
	<line x1="1384.59" y1="2695.28" x2="1449.39" y2="2695.28" style="stroke:#F0F0F0;stroke-width:9.72"/>
	<line x1="1481.79" y1="2695.28" x2="1546.59" y2="2695.28" style="stroke:#F0F0F0;stroke-width:9.72"/>
	<line x1="1578.99" y1="2695.28" x2="1643.79" y2="2695.28" style="stroke:#F0F0F0;stroke-width:9.72"/>
	<line x1="1676.19" y1="2695.28" x2="1740.99" y2="2695.28" style="stroke:#F0F0F0;stroke-width:9.72"/>
	<line x1="1773.39" y1="2695.28" x2="1838.19" y2="2695.28" style="stroke:#F0F0F0;stroke-width:9.72"/>
	<line x1="1870.59" y1="2695.28" x2="1935.39" y2="2695.28" style="stroke:#F0F0F0;stroke-width:9.72"/>
	<line x1="1967.79" y1="2695.28" x2="2032.59" y2="2695.28" style="stroke:#F0F0F0;stroke-width:9.72"/>
	<line x1="2064.99" y1="2695.28" x2="2129.79" y2="2695.28" style="stroke:#F0F0F0;stroke-width:9.72"/>
	<line x1="2162.19" y1="2695.28" x2="2226.99" y2="2695.28" style="stroke:#F0F0F0;stroke-width:9.72"/>
	<line x1="2259.39" y1="2695.28" x2="2324.19" y2="2695.28" style="stroke:#F0F0F0;stroke-width:9.72"/>
	<line x1="2356.59" y1="2695.28" x2="2421.39" y2="2695.28" style="stroke:#F0F0F0;stroke-width:9.72"/>
	<line x1="2453.79" y1="2695.28" x2="2518.59" y2="2695.28" style="stroke:#F0F0F0;stroke-width:9.72"/>
	<line x1="2550.99" y1="2695.28" x2="2615.79" y2="2695.28" style="stroke:#F0F0F0;stroke-width:9.72"/>
	<line x1="2648.19" y1="2695.28" x2="2712.99" y2="2695.28" style="stroke:#F0F0F0;stroke-width:9.72"/>
	<line x1="2745.39" y1="2695.28" x2="2810.19" y2="2695.28" style="stroke:#F0F0F0;stroke-width:9.72"/>
	<line x1="2842.59" y1="2695.28" x2="2907.39" y2="2695.28" style="stroke:#F0F0F0;stroke-width:9.72"/>
	<line x1="2939.79" y1="2695.28" x2="3004.59" y2="2695.28" style="stroke:#F0F0F0;stroke-width:9.72"/>
	<line x1="3036.99" y1="2695.28" x2="3101.79" y2="2695.28" style="stroke:#F0F0F0;stroke-width:9.72"/>
	<line x1="3134.19" y1="2695.28" x2="3198.99" y2="2695.28" style="stroke:#F0F0F0;stroke-width:9.72"/>
	<line x1="3231.39" y1="2695.28" x2="3296.19" y2="2695.28" style="stroke:#F0F0F0;stroke-width:9.72"/>
	<line x1="3328.59" y1="2695.28" x2="3393.39" y2="2695.28" style="stroke:#F0F0F0;stroke-width:9.72"/>
	<line x1="3425.79" y1="2695.28" x2="3490.59" y2="2695.28" style="stroke:#F0F0F0;stroke-width:9.72"/>
	<line x1="3522.99" y1="2695.28" x2="3587.79" y2="2695.28" style="stroke:#F0F0F0;stroke-width:9.72"/>
	<line x1="3620.19" y1="2695.28" x2="3684.99" y2="2695.28" style="stroke:#F0F0F0;stroke-width:9.72"/>
	<line x1="3717.39" y1="2695.28" x2="3782.19" y2="2695.28" style="stroke:#F0F0F0;stroke-width:9.72"/>
	<line x1="3814.59" y1="2695.28" x2="3879.39" y2="2695.28" style="stroke:#F0F0F0;stroke-width:9.72"/>
	<line x1="3911.79" y1="2695.28" x2="3976.59" y2="2695.28" style="stroke:#F0F0F0;stroke-width:9.72"/>
	<line x1="4008.99" y1="2695.28" x2="4073.79" y2="2695.28" style="stroke:#F0F0F0;stroke-width:9.72"/>
	<line x1="4106.19" y1="2695.28" x2="4170.99" y2="2695.28" style="stroke:#F0F0F0;stroke-width:9.72"/>
	<line x1="4203.39" y1="2695.28" x2="4268.19" y2="2695.28" style="stroke:#F0F0F0;stroke-width:9.72"/>
	<line x1="4300.59" y1="2695.28" x2="4364.72" y2="2695.28" style="stroke:#F0F0F0;stroke-width:9.72"/>
	<line x1="412.59" y1="1858.44" x2="477.39" y2="1858.44" style="stroke:#F0F0F0;stroke-width:9.72"/>
	<line x1="509.79" y1="1858.44" x2="574.59" y2="1858.44" style="stroke:#F0F0F0;stroke-width:9.72"/>
	<line x1="606.99" y1="1858.44" x2="671.79" y2="1858.44" style="stroke:#F0F0F0;stroke-width:9.72"/>
	<line x1="704.19" y1="1858.44" x2="768.99" y2="1858.44" style="stroke:#F0F0F0;stroke-width:9.72"/>
	<line x1="801.39" y1="1858.44" x2="866.19" y2="1858.44" style="stroke:#F0F0F0;stroke-width:9.72"/>
	<line x1="898.59" y1="1858.44" x2="963.39" y2="1858.44" style="stroke:#F0F0F0;stroke-width:9.72"/>
	<line x1="995.79" y1="1858.44" x2="1060.59" y2="1858.44" style="stroke:#F0F0F0;stroke-width:9.72"/>
	<line x1="1092.99" y1="1858.44" x2="1157.79" y2="1858.44" style="stroke:#F0F0F0;stroke-width:9.72"/>
	<line x1="1190.19" y1="1858.44" x2="1254.99" y2="1858.44" style="stroke:#F0F0F0;stroke-width:9.72"/>
	<line x1="1287.39" y1="1858.44" x2="1352.19" y2="1858.44" style="stroke:#F0F0F0;stroke-width:9.72"/>
	<line x1="1384.59" y1="1858.44" x2="1449.39" y2="1858.44" style="stroke:#F0F0F0;stroke-width:9.72"/>
	<line x1="1481.79" y1="1858.44" x2="1546.59" y2="1858.44" style="stroke:#F0F0F0;stroke-width:9.72"/>
	<line x1="1578.99" y1="1858.44" x2="1643.79" y2="1858.44" style="stroke:#F0F0F0;stroke-width:9.72"/>
	<line x1="1676.19" y1="1858.44" x2="1740.99" y2="1858.44" style="stroke:#F0F0F0;stroke-width:9.72"/>
	<line x1="1773.39" y1="1858.44" x2="1838.19" y2="1858.44" style="stroke:#F0F0F0;stroke-width:9.72"/>
	<line x1="1870.59" y1="1858.44" x2="1935.39" y2="1858.44" style="stroke:#F0F0F0;stroke-width:9.72"/>
	<line x1="1967.79" y1="1858.44" x2="2032.59" y2="1858.44" style="stroke:#F0F0F0;stroke-width:9.72"/>
	<line x1="2064.99" y1="1858.44" x2="2129.79" y2="1858.44" style="stroke:#F0F0F0;stroke-width:9.72"/>
	<line x1="2162.19" y1="1858.44" x2="2226.99" y2="1858.44" style="stroke:#F0F0F0;stroke-width:9.72"/>
	<line x1="2259.39" y1="1858.44" x2="2324.19" y2="1858.44" style="stroke:#F0F0F0;stroke-width:9.72"/>
	<line x1="2356.59" y1="1858.44" x2="2421.39" y2="1858.44" style="stroke:#F0F0F0;stroke-width:9.72"/>
	<line x1="2453.79" y1="1858.44" x2="2518.59" y2="1858.44" style="stroke:#F0F0F0;stroke-width:9.72"/>
	<line x1="2550.99" y1="1858.44" x2="2615.79" y2="1858.44" style="stroke:#F0F0F0;stroke-width:9.72"/>
	<line x1="2648.19" y1="1858.44" x2="2712.99" y2="1858.44" style="stroke:#F0F0F0;stroke-width:9.72"/>
	<line x1="2745.39" y1="1858.44" x2="2810.19" y2="1858.44" style="stroke:#F0F0F0;stroke-width:9.72"/>
	<line x1="2842.59" y1="1858.44" x2="2907.39" y2="1858.44" style="stroke:#F0F0F0;stroke-width:9.72"/>
	<line x1="2939.79" y1="1858.44" x2="3004.59" y2="1858.44" style="stroke:#F0F0F0;stroke-width:9.72"/>
	<line x1="3036.99" y1="1858.44" x2="3101.79" y2="1858.44" style="stroke:#F0F0F0;stroke-width:9.72"/>
	<line x1="3134.19" y1="1858.44" x2="3198.99" y2="1858.44" style="stroke:#F0F0F0;stroke-width:9.72"/>
	<line x1="3231.39" y1="1858.44" x2="3296.19" y2="1858.44" style="stroke:#F0F0F0;stroke-width:9.72"/>
	<line x1="3328.59" y1="1858.44" x2="3393.39" y2="1858.44" style="stroke:#F0F0F0;stroke-width:9.72"/>
	<line x1="3425.79" y1="1858.44" x2="3490.59" y2="1858.44" style="stroke:#F0F0F0;stroke-width:9.72"/>
	<line x1="3522.99" y1="1858.44" x2="3587.79" y2="1858.44" style="stroke:#F0F0F0;stroke-width:9.72"/>
	<line x1="3620.19" y1="1858.44" x2="3684.99" y2="1858.44" style="stroke:#F0F0F0;stroke-width:9.72"/>
	<line x1="3717.39" y1="1858.44" x2="3782.19" y2="1858.44" style="stroke:#F0F0F0;stroke-width:9.72"/>
	<line x1="3814.59" y1="1858.44" x2="3879.39" y2="1858.44" style="stroke:#F0F0F0;stroke-width:9.72"/>
	<line x1="3911.79" y1="1858.44" x2="3976.59" y2="1858.44" style="stroke:#F0F0F0;stroke-width:9.72"/>
	<line x1="4008.99" y1="1858.44" x2="4073.79" y2="1858.44" style="stroke:#F0F0F0;stroke-width:9.72"/>
	<line x1="4106.19" y1="1858.44" x2="4170.99" y2="1858.44" style="stroke:#F0F0F0;stroke-width:9.72"/>
	<line x1="4203.39" y1="1858.44" x2="4268.19" y2="1858.44" style="stroke:#F0F0F0;stroke-width:9.72"/>
	<line x1="4300.59" y1="1858.44" x2="4364.72" y2="1858.44" style="stroke:#F0F0F0;stroke-width:9.72"/>
	<line x1="412.59" y1="1021.61" x2="477.39" y2="1021.61" style="stroke:#F0F0F0;stroke-width:9.72"/>
	<line x1="509.79" y1="1021.61" x2="574.59" y2="1021.61" style="stroke:#F0F0F0;stroke-width:9.72"/>
	<line x1="606.99" y1="1021.61" x2="671.79" y2="1021.61" style="stroke:#F0F0F0;stroke-width:9.72"/>
	<line x1="704.19" y1="1021.61" x2="768.99" y2="1021.61" style="stroke:#F0F0F0;stroke-width:9.72"/>
	<line x1="801.39" y1="1021.61" x2="866.19" y2="1021.61" style="stroke:#F0F0F0;stroke-width:9.72"/>
	<line x1="898.59" y1="1021.61" x2="963.39" y2="1021.61" style="stroke:#F0F0F0;stroke-width:9.72"/>
	<line x1="995.79" y1="1021.61" x2="1060.59" y2="1021.61" style="stroke:#F0F0F0;stroke-width:9.72"/>
	<line x1="1092.99" y1="1021.61" x2="1157.79" y2="1021.61" style="stroke:#F0F0F0;stroke-width:9.72"/>
	<line x1="1190.19" y1="1021.61" x2="1254.99" y2="1021.61" style="stroke:#F0F0F0;stroke-width:9.72"/>
	<line x1="1287.39" y1="1021.61" x2="1352.19" y2="1021.61" style="stroke:#F0F0F0;stroke-width:9.72"/>
	<line x1="1384.59" y1="1021.61" x2="1449.39" y2="1021.61" style="stroke:#F0F0F0;stroke-width:9.72"/>
	<line x1="1481.79" y1="1021.61" x2="1546.59" y2="1021.61" style="stroke:#F0F0F0;stroke-width:9.72"/>
	<line x1="1578.99" y1="1021.61" x2="1643.79" y2="1021.61" style="stroke:#F0F0F0;stroke-width:9.72"/>
	<line x1="1676.19" y1="1021.61" x2="1740.99" y2="1021.61" style="stroke:#F0F0F0;stroke-width:9.72"/>
	<line x1="1773.39" y1="1021.61" x2="1838.19" y2="1021.61" style="stroke:#F0F0F0;stroke-width:9.72"/>
	<line x1="1870.59" y1="1021.61" x2="1935.39" y2="1021.61" style="stroke:#F0F0F0;stroke-width:9.72"/>
	<line x1="1967.79" y1="1021.61" x2="2032.59" y2="1021.61" style="stroke:#F0F0F0;stroke-width:9.72"/>
	<line x1="2064.99" y1="1021.61" x2="2129.79" y2="1021.61" style="stroke:#F0F0F0;stroke-width:9.72"/>
	<line x1="2162.19" y1="1021.61" x2="2226.99" y2="1021.61" style="stroke:#F0F0F0;stroke-width:9.72"/>
	<line x1="2259.39" y1="1021.61" x2="2324.19" y2="1021.61" style="stroke:#F0F0F0;stroke-width:9.72"/>
	<line x1="2356.59" y1="1021.61" x2="2421.39" y2="1021.61" style="stroke:#F0F0F0;stroke-width:9.72"/>
	<line x1="2453.79" y1="1021.61" x2="2518.59" y2="1021.61" style="stroke:#F0F0F0;stroke-width:9.72"/>
	<line x1="2550.99" y1="1021.61" x2="2615.79" y2="1021.61" style="stroke:#F0F0F0;stroke-width:9.72"/>
	<line x1="2648.19" y1="1021.61" x2="2712.99" y2="1021.61" style="stroke:#F0F0F0;stroke-width:9.72"/>
	<line x1="2745.39" y1="1021.61" x2="2810.19" y2="1021.61" style="stroke:#F0F0F0;stroke-width:9.72"/>
	<line x1="2842.59" y1="1021.61" x2="2907.39" y2="1021.61" style="stroke:#F0F0F0;stroke-width:9.72"/>
	<line x1="2939.79" y1="1021.61" x2="3004.59" y2="1021.61" style="stroke:#F0F0F0;stroke-width:9.72"/>
	<line x1="3036.99" y1="1021.61" x2="3101.79" y2="1021.61" style="stroke:#F0F0F0;stroke-width:9.72"/>
	<line x1="3134.19" y1="1021.61" x2="3198.99" y2="1021.61" style="stroke:#F0F0F0;stroke-width:9.72"/>
	<line x1="3231.39" y1="1021.61" x2="3296.19" y2="1021.61" style="stroke:#F0F0F0;stroke-width:9.72"/>
	<line x1="3328.59" y1="1021.61" x2="3393.39" y2="1021.61" style="stroke:#F0F0F0;stroke-width:9.72"/>
	<line x1="3425.79" y1="1021.61" x2="3490.59" y2="1021.61" style="stroke:#F0F0F0;stroke-width:9.72"/>
	<line x1="3522.99" y1="1021.61" x2="3587.79" y2="1021.61" style="stroke:#F0F0F0;stroke-width:9.72"/>
	<line x1="3620.19" y1="1021.61" x2="3684.99" y2="1021.61" style="stroke:#F0F0F0;stroke-width:9.72"/>
	<line x1="3717.39" y1="1021.61" x2="3782.19" y2="1021.61" style="stroke:#F0F0F0;stroke-width:9.72"/>
	<line x1="3814.59" y1="1021.61" x2="3879.39" y2="1021.61" style="stroke:#F0F0F0;stroke-width:9.72"/>
	<line x1="3911.79" y1="1021.61" x2="3976.59" y2="1021.61" style="stroke:#F0F0F0;stroke-width:9.72"/>
	<line x1="4008.99" y1="1021.61" x2="4073.79" y2="1021.61" style="stroke:#F0F0F0;stroke-width:9.72"/>
	<line x1="4106.19" y1="1021.61" x2="4170.99" y2="1021.61" style="stroke:#F0F0F0;stroke-width:9.72"/>
	<line x1="4203.39" y1="1021.61" x2="4268.19" y2="1021.61" style="stroke:#F0F0F0;stroke-width:9.72"/>
	<line x1="4300.59" y1="1021.61" x2="4364.72" y2="1021.61" style="stroke:#F0F0F0;stroke-width:9.72"/>
	<line x1="412.59" y1="184.61" x2="477.39" y2="184.61" style="stroke:#F0F0F0;stroke-width:9.72"/>
	<line x1="509.79" y1="184.61" x2="574.59" y2="184.61" style="stroke:#F0F0F0;stroke-width:9.72"/>
	<line x1="606.99" y1="184.61" x2="671.79" y2="184.61" style="stroke:#F0F0F0;stroke-width:9.72"/>
	<line x1="704.19" y1="184.61" x2="768.99" y2="184.61" style="stroke:#F0F0F0;stroke-width:9.72"/>
	<line x1="801.39" y1="184.61" x2="866.19" y2="184.61" style="stroke:#F0F0F0;stroke-width:9.72"/>
	<line x1="898.59" y1="184.61" x2="963.39" y2="184.61" style="stroke:#F0F0F0;stroke-width:9.72"/>
	<line x1="995.79" y1="184.61" x2="1060.59" y2="184.61" style="stroke:#F0F0F0;stroke-width:9.72"/>
	<line x1="1092.99" y1="184.61" x2="1157.79" y2="184.61" style="stroke:#F0F0F0;stroke-width:9.72"/>
	<line x1="1190.19" y1="184.61" x2="1254.99" y2="184.61" style="stroke:#F0F0F0;stroke-width:9.72"/>
	<line x1="1287.39" y1="184.61" x2="1352.19" y2="184.61" style="stroke:#F0F0F0;stroke-width:9.72"/>
	<line x1="1384.59" y1="184.61" x2="1449.39" y2="184.61" style="stroke:#F0F0F0;stroke-width:9.72"/>
	<line x1="1481.79" y1="184.61" x2="1546.59" y2="184.61" style="stroke:#F0F0F0;stroke-width:9.72"/>
	<line x1="1578.99" y1="184.61" x2="1643.79" y2="184.61" style="stroke:#F0F0F0;stroke-width:9.72"/>
	<line x1="1676.19" y1="184.61" x2="1740.99" y2="184.61" style="stroke:#F0F0F0;stroke-width:9.72"/>
	<line x1="1773.39" y1="184.61" x2="1838.19" y2="184.61" style="stroke:#F0F0F0;stroke-width:9.72"/>
	<line x1="1870.59" y1="184.61" x2="1935.39" y2="184.61" style="stroke:#F0F0F0;stroke-width:9.72"/>
	<line x1="1967.79" y1="184.61" x2="2032.59" y2="184.61" style="stroke:#F0F0F0;stroke-width:9.72"/>
	<line x1="2064.99" y1="184.61" x2="2129.79" y2="184.61" style="stroke:#F0F0F0;stroke-width:9.72"/>
	<line x1="2162.19" y1="184.61" x2="2226.99" y2="184.61" style="stroke:#F0F0F0;stroke-width:9.72"/>
	<line x1="2259.39" y1="184.61" x2="2324.19" y2="184.61" style="stroke:#F0F0F0;stroke-width:9.72"/>
	<line x1="2356.59" y1="184.61" x2="2421.39" y2="184.61" style="stroke:#F0F0F0;stroke-width:9.72"/>
	<line x1="2453.79" y1="184.61" x2="2518.59" y2="184.61" style="stroke:#F0F0F0;stroke-width:9.72"/>
	<line x1="2550.99" y1="184.61" x2="2615.79" y2="184.61" style="stroke:#F0F0F0;stroke-width:9.72"/>
	<line x1="2648.19" y1="184.61" x2="2712.99" y2="184.61" style="stroke:#F0F0F0;stroke-width:9.72"/>
	<line x1="2745.39" y1="184.61" x2="2810.19" y2="184.61" style="stroke:#F0F0F0;stroke-width:9.72"/>
	<line x1="2842.59" y1="184.61" x2="2907.39" y2="184.61" style="stroke:#F0F0F0;stroke-width:9.72"/>
	<line x1="2939.79" y1="184.61" x2="3004.59" y2="184.61" style="stroke:#F0F0F0;stroke-width:9.72"/>
	<line x1="3036.99" y1="184.61" x2="3101.79" y2="184.61" style="stroke:#F0F0F0;stroke-width:9.72"/>
	<line x1="3134.19" y1="184.61" x2="3198.99" y2="184.61" style="stroke:#F0F0F0;stroke-width:9.72"/>
	<line x1="3231.39" y1="184.61" x2="3296.19" y2="184.61" style="stroke:#F0F0F0;stroke-width:9.72"/>
	<line x1="3328.59" y1="184.61" x2="3393.39" y2="184.61" style="stroke:#F0F0F0;stroke-width:9.72"/>
	<line x1="3425.79" y1="184.61" x2="3490.59" y2="184.61" style="stroke:#F0F0F0;stroke-width:9.72"/>
	<line x1="3522.99" y1="184.61" x2="3587.79" y2="184.61" style="stroke:#F0F0F0;stroke-width:9.72"/>
	<line x1="3620.19" y1="184.61" x2="3684.99" y2="184.61" style="stroke:#F0F0F0;stroke-width:9.72"/>
	<line x1="3717.39" y1="184.61" x2="3782.19" y2="184.61" style="stroke:#F0F0F0;stroke-width:9.72"/>
	<line x1="3814.59" y1="184.61" x2="3879.39" y2="184.61" style="stroke:#F0F0F0;stroke-width:9.72"/>
	<line x1="3911.79" y1="184.61" x2="3976.59" y2="184.61" style="stroke:#F0F0F0;stroke-width:9.72"/>
	<line x1="4008.99" y1="184.61" x2="4073.79" y2="184.61" style="stroke:#F0F0F0;stroke-width:9.72"/>
	<line x1="4106.19" y1="184.61" x2="4170.99" y2="184.61" style="stroke:#F0F0F0;stroke-width:9.72"/>
	<line x1="4203.39" y1="184.61" x2="4268.19" y2="184.61" style="stroke:#F0F0F0;stroke-width:9.72"/>
	<line x1="4300.59" y1="184.61" x2="4364.72" y2="184.61" style="stroke:#F0F0F0;stroke-width:9.72"/>
	<line x1="483.81" y1="2766.66" x2="483.81" y2="2701.86" style="stroke:#F0F0F0;stroke-width:9.72"/>
	<line x1="483.81" y1="2669.46" x2="483.81" y2="2604.66" style="stroke:#F0F0F0;stroke-width:9.72"/>
	<line x1="483.81" y1="2572.26" x2="483.81" y2="2507.46" style="stroke:#F0F0F0;stroke-width:9.72"/>
	<line x1="483.81" y1="2475.06" x2="483.81" y2="2410.26" style="stroke:#F0F0F0;stroke-width:9.72"/>
	<line x1="483.81" y1="2377.86" x2="483.81" y2="2313.06" style="stroke:#F0F0F0;stroke-width:9.72"/>
	<line x1="483.81" y1="2280.66" x2="483.81" y2="2215.86" style="stroke:#F0F0F0;stroke-width:9.72"/>
	<line x1="483.81" y1="2183.46" x2="483.81" y2="2118.66" style="stroke:#F0F0F0;stroke-width:9.72"/>
	<line x1="483.81" y1="2086.26" x2="483.81" y2="2021.46" style="stroke:#F0F0F0;stroke-width:9.72"/>
	<line x1="483.81" y1="1989.06" x2="483.81" y2="1924.26" style="stroke:#F0F0F0;stroke-width:9.72"/>
	<line x1="483.81" y1="1891.86" x2="483.81" y2="1827.06" style="stroke:#F0F0F0;stroke-width:9.72"/>
	<line x1="483.81" y1="1794.66" x2="483.81" y2="1729.86" style="stroke:#F0F0F0;stroke-width:9.72"/>
	<line x1="483.81" y1="1697.46" x2="483.81" y2="1632.66" style="stroke:#F0F0F0;stroke-width:9.72"/>
	<line x1="483.81" y1="1600.26" x2="483.81" y2="1535.46" style="stroke:#F0F0F0;stroke-width:9.72"/>
	<line x1="483.81" y1="1503.06" x2="483.81" y2="1438.26" style="stroke:#F0F0F0;stroke-width:9.72"/>
	<line x1="483.81" y1="1405.86" x2="483.81" y2="1341.06" style="stroke:#F0F0F0;stroke-width:9.72"/>
	<line x1="483.81" y1="1308.66" x2="483.81" y2="1243.86" style="stroke:#F0F0F0;stroke-width:9.72"/>
	<line x1="483.81" y1="1211.46" x2="483.81" y2="1146.66" style="stroke:#F0F0F0;stroke-width:9.72"/>
	<line x1="483.81" y1="1114.26" x2="483.81" y2="1049.46" style="stroke:#F0F0F0;stroke-width:9.72"/>
	<line x1="483.81" y1="1017.06" x2="483.81" y2="952.26" style="stroke:#F0F0F0;stroke-width:9.72"/>
	<line x1="483.81" y1="919.86" x2="483.81" y2="855.06" style="stroke:#F0F0F0;stroke-width:9.72"/>
	<line x1="483.81" y1="822.66" x2="483.81" y2="757.86" style="stroke:#F0F0F0;stroke-width:9.72"/>
	<line x1="483.81" y1="725.46" x2="483.81" y2="660.66" style="stroke:#F0F0F0;stroke-width:9.72"/>
	<line x1="483.81" y1="628.26" x2="483.81" y2="563.46" style="stroke:#F0F0F0;stroke-width:9.72"/>
	<line x1="483.81" y1="531.06" x2="483.81" y2="466.26" style="stroke:#F0F0F0;stroke-width:9.72"/>
	<line x1="483.81" y1="433.86" x2="483.81" y2="369.06" style="stroke:#F0F0F0;stroke-width:9.72"/>
	<line x1="483.81" y1="336.66" x2="483.81" y2="271.86" style="stroke:#F0F0F0;stroke-width:9.72"/>
	<line x1="483.81" y1="239.46" x2="483.81" y2="174.66" style="stroke:#F0F0F0;stroke-width:9.72"/>
	<line x1="483.81" y1="142.26" x2="483.81" y2="113.40" style="stroke:#F0F0F0;stroke-width:9.72"/>
	<line x1="1219.89" y1="2766.66" x2="1219.89" y2="2701.86" style="stroke:#F0F0F0;stroke-width:9.72"/>
	<line x1="1219.89" y1="2669.46" x2="1219.89" y2="2604.66" style="stroke:#F0F0F0;stroke-width:9.72"/>
	<line x1="1219.89" y1="2572.26" x2="1219.89" y2="2507.46" style="stroke:#F0F0F0;stroke-width:9.72"/>
	<line x1="1219.89" y1="2475.06" x2="1219.89" y2="2410.26" style="stroke:#F0F0F0;stroke-width:9.72"/>
	<line x1="1219.89" y1="2377.86" x2="1219.89" y2="2313.06" style="stroke:#F0F0F0;stroke-width:9.72"/>
	<line x1="1219.89" y1="2280.66" x2="1219.89" y2="2215.86" style="stroke:#F0F0F0;stroke-width:9.72"/>
	<line x1="1219.89" y1="2183.46" x2="1219.89" y2="2118.66" style="stroke:#F0F0F0;stroke-width:9.72"/>
	<line x1="1219.89" y1="2086.26" x2="1219.89" y2="2021.46" style="stroke:#F0F0F0;stroke-width:9.72"/>
	<line x1="1219.89" y1="1989.06" x2="1219.89" y2="1924.26" style="stroke:#F0F0F0;stroke-width:9.72"/>
	<line x1="1219.89" y1="1891.86" x2="1219.89" y2="1827.06" style="stroke:#F0F0F0;stroke-width:9.72"/>
	<line x1="1219.89" y1="1794.66" x2="1219.89" y2="1729.86" style="stroke:#F0F0F0;stroke-width:9.72"/>
	<line x1="1219.89" y1="1697.46" x2="1219.89" y2="1632.66" style="stroke:#F0F0F0;stroke-width:9.72"/>
	<line x1="1219.89" y1="1600.26" x2="1219.89" y2="1535.46" style="stroke:#F0F0F0;stroke-width:9.72"/>
	<line x1="1219.89" y1="1503.06" x2="1219.89" y2="1438.26" style="stroke:#F0F0F0;stroke-width:9.72"/>
	<line x1="1219.89" y1="1405.86" x2="1219.89" y2="1341.06" style="stroke:#F0F0F0;stroke-width:9.72"/>
	<line x1="1219.89" y1="1308.66" x2="1219.89" y2="1243.86" style="stroke:#F0F0F0;stroke-width:9.72"/>
	<line x1="1219.89" y1="1211.46" x2="1219.89" y2="1146.66" style="stroke:#F0F0F0;stroke-width:9.72"/>
	<line x1="1219.89" y1="1114.26" x2="1219.89" y2="1049.46" style="stroke:#F0F0F0;stroke-width:9.72"/>
	<line x1="1219.89" y1="1017.06" x2="1219.89" y2="952.26" style="stroke:#F0F0F0;stroke-width:9.72"/>
	<line x1="1219.89" y1="919.86" x2="1219.89" y2="855.06" style="stroke:#F0F0F0;stroke-width:9.72"/>
	<line x1="1219.89" y1="822.66" x2="1219.89" y2="757.86" style="stroke:#F0F0F0;stroke-width:9.72"/>
	<line x1="1219.89" y1="725.46" x2="1219.89" y2="660.66" style="stroke:#F0F0F0;stroke-width:9.72"/>
	<line x1="1219.89" y1="628.26" x2="1219.89" y2="563.46" style="stroke:#F0F0F0;stroke-width:9.72"/>
	<line x1="1219.89" y1="531.06" x2="1219.89" y2="466.26" style="stroke:#F0F0F0;stroke-width:9.72"/>
	<line x1="1219.89" y1="433.86" x2="1219.89" y2="369.06" style="stroke:#F0F0F0;stroke-width:9.72"/>
	<line x1="1219.89" y1="336.66" x2="1219.89" y2="271.86" style="stroke:#F0F0F0;stroke-width:9.72"/>
	<line x1="1219.89" y1="239.46" x2="1219.89" y2="174.66" style="stroke:#F0F0F0;stroke-width:9.72"/>
	<line x1="1219.89" y1="142.26" x2="1219.89" y2="113.40" style="stroke:#F0F0F0;stroke-width:9.72"/>
	<line x1="1955.98" y1="2766.66" x2="1955.98" y2="2701.86" style="stroke:#F0F0F0;stroke-width:9.72"/>
	<line x1="1955.98" y1="2669.46" x2="1955.98" y2="2604.66" style="stroke:#F0F0F0;stroke-width:9.72"/>
	<line x1="1955.98" y1="2572.26" x2="1955.98" y2="2507.46" style="stroke:#F0F0F0;stroke-width:9.72"/>
	<line x1="1955.98" y1="2475.06" x2="1955.98" y2="2410.26" style="stroke:#F0F0F0;stroke-width:9.72"/>
	<line x1="1955.98" y1="2377.86" x2="1955.98" y2="2313.06" style="stroke:#F0F0F0;stroke-width:9.72"/>
	<line x1="1955.98" y1="2280.66" x2="1955.98" y2="2215.86" style="stroke:#F0F0F0;stroke-width:9.72"/>
	<line x1="1955.98" y1="2183.46" x2="1955.98" y2="2118.66" style="stroke:#F0F0F0;stroke-width:9.72"/>
	<line x1="1955.98" y1="2086.26" x2="1955.98" y2="2021.46" style="stroke:#F0F0F0;stroke-width:9.72"/>
	<line x1="1955.98" y1="1989.06" x2="1955.98" y2="1924.26" style="stroke:#F0F0F0;stroke-width:9.72"/>
	<line x1="1955.98" y1="1891.86" x2="1955.98" y2="1827.06" style="stroke:#F0F0F0;stroke-width:9.72"/>
	<line x1="1955.98" y1="1794.66" x2="1955.98" y2="1729.86" style="stroke:#F0F0F0;stroke-width:9.72"/>
	<line x1="1955.98" y1="1697.46" x2="1955.98" y2="1632.66" style="stroke:#F0F0F0;stroke-width:9.72"/>
	<line x1="1955.98" y1="1600.26" x2="1955.98" y2="1535.46" style="stroke:#F0F0F0;stroke-width:9.72"/>
	<line x1="1955.98" y1="1503.06" x2="1955.98" y2="1438.26" style="stroke:#F0F0F0;stroke-width:9.72"/>
	<line x1="1955.98" y1="1405.86" x2="1955.98" y2="1341.06" style="stroke:#F0F0F0;stroke-width:9.72"/>
	<line x1="1955.98" y1="1308.66" x2="1955.98" y2="1243.86" style="stroke:#F0F0F0;stroke-width:9.72"/>
	<line x1="1955.98" y1="1211.46" x2="1955.98" y2="1146.66" style="stroke:#F0F0F0;stroke-width:9.72"/>
	<line x1="1955.98" y1="1114.26" x2="1955.98" y2="1049.46" style="stroke:#F0F0F0;stroke-width:9.72"/>
	<line x1="1955.98" y1="1017.06" x2="1955.98" y2="952.26" style="stroke:#F0F0F0;stroke-width:9.72"/>
	<line x1="1955.98" y1="919.86" x2="1955.98" y2="855.06" style="stroke:#F0F0F0;stroke-width:9.72"/>
	<line x1="1955.98" y1="822.66" x2="1955.98" y2="757.86" style="stroke:#F0F0F0;stroke-width:9.72"/>
	<line x1="1955.98" y1="725.46" x2="1955.98" y2="660.66" style="stroke:#F0F0F0;stroke-width:9.72"/>
	<line x1="1955.98" y1="628.26" x2="1955.98" y2="563.46" style="stroke:#F0F0F0;stroke-width:9.72"/>
	<line x1="1955.98" y1="531.06" x2="1955.98" y2="466.26" style="stroke:#F0F0F0;stroke-width:9.72"/>
	<line x1="1955.98" y1="433.86" x2="1955.98" y2="369.06" style="stroke:#F0F0F0;stroke-width:9.72"/>
	<line x1="1955.98" y1="336.66" x2="1955.98" y2="271.86" style="stroke:#F0F0F0;stroke-width:9.72"/>
	<line x1="1955.98" y1="239.46" x2="1955.98" y2="174.66" style="stroke:#F0F0F0;stroke-width:9.72"/>
	<line x1="1955.98" y1="142.26" x2="1955.98" y2="113.40" style="stroke:#F0F0F0;stroke-width:9.72"/>
	<line x1="2691.90" y1="2766.66" x2="2691.90" y2="2701.86" style="stroke:#F0F0F0;stroke-width:9.72"/>
	<line x1="2691.90" y1="2669.46" x2="2691.90" y2="2604.66" style="stroke:#F0F0F0;stroke-width:9.72"/>
	<line x1="2691.90" y1="2572.26" x2="2691.90" y2="2507.46" style="stroke:#F0F0F0;stroke-width:9.72"/>
	<line x1="2691.90" y1="2475.06" x2="2691.90" y2="2410.26" style="stroke:#F0F0F0;stroke-width:9.72"/>
	<line x1="2691.90" y1="2377.86" x2="2691.90" y2="2313.06" style="stroke:#F0F0F0;stroke-width:9.72"/>
	<line x1="2691.90" y1="2280.66" x2="2691.90" y2="2215.86" style="stroke:#F0F0F0;stroke-width:9.72"/>
	<line x1="2691.90" y1="2183.46" x2="2691.90" y2="2118.66" style="stroke:#F0F0F0;stroke-width:9.72"/>
	<line x1="2691.90" y1="2086.26" x2="2691.90" y2="2021.46" style="stroke:#F0F0F0;stroke-width:9.72"/>
	<line x1="2691.90" y1="1989.06" x2="2691.90" y2="1924.26" style="stroke:#F0F0F0;stroke-width:9.72"/>
	<line x1="2691.90" y1="1891.86" x2="2691.90" y2="1827.06" style="stroke:#F0F0F0;stroke-width:9.72"/>
	<line x1="2691.90" y1="1794.66" x2="2691.90" y2="1729.86" style="stroke:#F0F0F0;stroke-width:9.72"/>
	<line x1="2691.90" y1="1697.46" x2="2691.90" y2="1632.66" style="stroke:#F0F0F0;stroke-width:9.72"/>
	<line x1="2691.90" y1="1600.26" x2="2691.90" y2="1535.46" style="stroke:#F0F0F0;stroke-width:9.72"/>
	<line x1="2691.90" y1="1503.06" x2="2691.90" y2="1438.26" style="stroke:#F0F0F0;stroke-width:9.72"/>
	<line x1="2691.90" y1="1405.86" x2="2691.90" y2="1341.06" style="stroke:#F0F0F0;stroke-width:9.72"/>
	<line x1="2691.90" y1="1308.66" x2="2691.90" y2="1243.86" style="stroke:#F0F0F0;stroke-width:9.72"/>
	<line x1="2691.90" y1="1211.46" x2="2691.90" y2="1146.66" style="stroke:#F0F0F0;stroke-width:9.72"/>
	<line x1="2691.90" y1="1114.26" x2="2691.90" y2="1049.46" style="stroke:#F0F0F0;stroke-width:9.72"/>
	<line x1="2691.90" y1="1017.06" x2="2691.90" y2="952.26" style="stroke:#F0F0F0;stroke-width:9.72"/>
	<line x1="2691.90" y1="919.86" x2="2691.90" y2="855.06" style="stroke:#F0F0F0;stroke-width:9.72"/>
	<line x1="2691.90" y1="822.66" x2="2691.90" y2="757.86" style="stroke:#F0F0F0;stroke-width:9.72"/>
	<line x1="2691.90" y1="725.46" x2="2691.90" y2="660.66" style="stroke:#F0F0F0;stroke-width:9.72"/>
	<line x1="2691.90" y1="628.26" x2="2691.90" y2="563.46" style="stroke:#F0F0F0;stroke-width:9.72"/>
	<line x1="2691.90" y1="531.06" x2="2691.90" y2="466.26" style="stroke:#F0F0F0;stroke-width:9.72"/>
	<line x1="2691.90" y1="433.86" x2="2691.90" y2="369.06" style="stroke:#F0F0F0;stroke-width:9.72"/>
	<line x1="2691.90" y1="336.66" x2="2691.90" y2="271.86" style="stroke:#F0F0F0;stroke-width:9.72"/>
	<line x1="2691.90" y1="239.46" x2="2691.90" y2="174.66" style="stroke:#F0F0F0;stroke-width:9.72"/>
	<line x1="2691.90" y1="142.26" x2="2691.90" y2="113.40" style="stroke:#F0F0F0;stroke-width:9.72"/>
	<line x1="3427.99" y1="2766.66" x2="3427.99" y2="2701.86" style="stroke:#F0F0F0;stroke-width:9.72"/>
	<line x1="3427.99" y1="2669.46" x2="3427.99" y2="2604.66" style="stroke:#F0F0F0;stroke-width:9.72"/>
	<line x1="3427.99" y1="2572.26" x2="3427.99" y2="2507.46" style="stroke:#F0F0F0;stroke-width:9.72"/>
	<line x1="3427.99" y1="2475.06" x2="3427.99" y2="2410.26" style="stroke:#F0F0F0;stroke-width:9.72"/>
	<line x1="3427.99" y1="2377.86" x2="3427.99" y2="2313.06" style="stroke:#F0F0F0;stroke-width:9.72"/>
	<line x1="3427.99" y1="2280.66" x2="3427.99" y2="2215.86" style="stroke:#F0F0F0;stroke-width:9.72"/>
	<line x1="3427.99" y1="2183.46" x2="3427.99" y2="2118.66" style="stroke:#F0F0F0;stroke-width:9.72"/>
	<line x1="3427.99" y1="2086.26" x2="3427.99" y2="2021.46" style="stroke:#F0F0F0;stroke-width:9.72"/>
	<line x1="3427.99" y1="1989.06" x2="3427.99" y2="1924.26" style="stroke:#F0F0F0;stroke-width:9.72"/>
	<line x1="3427.99" y1="1891.86" x2="3427.99" y2="1827.06" style="stroke:#F0F0F0;stroke-width:9.72"/>
	<line x1="3427.99" y1="1794.66" x2="3427.99" y2="1729.86" style="stroke:#F0F0F0;stroke-width:9.72"/>
	<line x1="3427.99" y1="1697.46" x2="3427.99" y2="1632.66" style="stroke:#F0F0F0;stroke-width:9.72"/>
	<line x1="3427.99" y1="1600.26" x2="3427.99" y2="1535.46" style="stroke:#F0F0F0;stroke-width:9.72"/>
	<line x1="3427.99" y1="1503.06" x2="3427.99" y2="1438.26" style="stroke:#F0F0F0;stroke-width:9.72"/>
	<line x1="3427.99" y1="1405.86" x2="3427.99" y2="1341.06" style="stroke:#F0F0F0;stroke-width:9.72"/>
	<line x1="3427.99" y1="1308.66" x2="3427.99" y2="1243.86" style="stroke:#F0F0F0;stroke-width:9.72"/>
	<line x1="3427.99" y1="1211.46" x2="3427.99" y2="1146.66" style="stroke:#F0F0F0;stroke-width:9.72"/>
	<line x1="3427.99" y1="1114.26" x2="3427.99" y2="1049.46" style="stroke:#F0F0F0;stroke-width:9.72"/>
	<line x1="3427.99" y1="1017.06" x2="3427.99" y2="952.26" style="stroke:#F0F0F0;stroke-width:9.72"/>
	<line x1="3427.99" y1="919.86" x2="3427.99" y2="855.06" style="stroke:#F0F0F0;stroke-width:9.72"/>
	<line x1="3427.99" y1="822.66" x2="3427.99" y2="757.86" style="stroke:#F0F0F0;stroke-width:9.72"/>
	<line x1="3427.99" y1="725.46" x2="3427.99" y2="660.66" style="stroke:#F0F0F0;stroke-width:9.72"/>
	<line x1="3427.99" y1="628.26" x2="3427.99" y2="563.46" style="stroke:#F0F0F0;stroke-width:9.72"/>
	<line x1="3427.99" y1="531.06" x2="3427.99" y2="466.26" style="stroke:#F0F0F0;stroke-width:9.72"/>
	<line x1="3427.99" y1="433.86" x2="3427.99" y2="369.06" style="stroke:#F0F0F0;stroke-width:9.72"/>
	<line x1="3427.99" y1="336.66" x2="3427.99" y2="271.86" style="stroke:#F0F0F0;stroke-width:9.72"/>
	<line x1="3427.99" y1="239.46" x2="3427.99" y2="174.66" style="stroke:#F0F0F0;stroke-width:9.72"/>
	<line x1="3427.99" y1="142.26" x2="3427.99" y2="113.40" style="stroke:#F0F0F0;stroke-width:9.72"/>
	<line x1="4164.08" y1="2766.66" x2="4164.08" y2="2701.86" style="stroke:#F0F0F0;stroke-width:9.72"/>
	<line x1="4164.08" y1="2669.46" x2="4164.08" y2="2604.66" style="stroke:#F0F0F0;stroke-width:9.72"/>
	<line x1="4164.08" y1="2572.26" x2="4164.08" y2="2507.46" style="stroke:#F0F0F0;stroke-width:9.72"/>
	<line x1="4164.08" y1="2475.06" x2="4164.08" y2="2410.26" style="stroke:#F0F0F0;stroke-width:9.72"/>
	<line x1="4164.08" y1="2377.86" x2="4164.08" y2="2313.06" style="stroke:#F0F0F0;stroke-width:9.72"/>
	<line x1="4164.08" y1="2280.66" x2="4164.08" y2="2215.86" style="stroke:#F0F0F0;stroke-width:9.72"/>
	<line x1="4164.08" y1="2183.46" x2="4164.08" y2="2118.66" style="stroke:#F0F0F0;stroke-width:9.72"/>
	<line x1="4164.08" y1="2086.26" x2="4164.08" y2="2021.46" style="stroke:#F0F0F0;stroke-width:9.72"/>
	<line x1="4164.08" y1="1989.06" x2="4164.08" y2="1924.26" style="stroke:#F0F0F0;stroke-width:9.72"/>
	<line x1="4164.08" y1="1891.86" x2="4164.08" y2="1827.06" style="stroke:#F0F0F0;stroke-width:9.72"/>
	<line x1="4164.08" y1="1794.66" x2="4164.08" y2="1729.86" style="stroke:#F0F0F0;stroke-width:9.72"/>
	<line x1="4164.08" y1="1697.46" x2="4164.08" y2="1632.66" style="stroke:#F0F0F0;stroke-width:9.72"/>
	<line x1="4164.08" y1="1600.26" x2="4164.08" y2="1535.46" style="stroke:#F0F0F0;stroke-width:9.72"/>
	<line x1="4164.08" y1="1503.06" x2="4164.08" y2="1438.26" style="stroke:#F0F0F0;stroke-width:9.72"/>
	<line x1="4164.08" y1="1405.86" x2="4164.08" y2="1341.06" style="stroke:#F0F0F0;stroke-width:9.72"/>
	<line x1="4164.08" y1="1308.66" x2="4164.08" y2="1243.86" style="stroke:#F0F0F0;stroke-width:9.72"/>
	<line x1="4164.08" y1="1211.46" x2="4164.08" y2="1146.66" style="stroke:#F0F0F0;stroke-width:9.72"/>
	<line x1="4164.08" y1="1114.26" x2="4164.08" y2="1049.46" style="stroke:#F0F0F0;stroke-width:9.72"/>
	<line x1="4164.08" y1="1017.06" x2="4164.08" y2="952.26" style="stroke:#F0F0F0;stroke-width:9.72"/>
	<line x1="4164.08" y1="919.86" x2="4164.08" y2="855.06" style="stroke:#F0F0F0;stroke-width:9.72"/>
	<line x1="4164.08" y1="822.66" x2="4164.08" y2="757.86" style="stroke:#F0F0F0;stroke-width:9.72"/>
	<line x1="4164.08" y1="725.46" x2="4164.08" y2="660.66" style="stroke:#F0F0F0;stroke-width:9.72"/>
	<line x1="4164.08" y1="628.26" x2="4164.08" y2="563.46" style="stroke:#F0F0F0;stroke-width:9.72"/>
	<line x1="4164.08" y1="531.06" x2="4164.08" y2="466.26" style="stroke:#F0F0F0;stroke-width:9.72"/>
	<line x1="4164.08" y1="433.86" x2="4164.08" y2="369.06" style="stroke:#F0F0F0;stroke-width:9.72"/>
	<line x1="4164.08" y1="336.66" x2="4164.08" y2="271.86" style="stroke:#F0F0F0;stroke-width:9.72"/>
	<line x1="4164.08" y1="239.46" x2="4164.08" y2="174.66" style="stroke:#F0F0F0;stroke-width:9.72"/>
	<line x1="4164.08" y1="142.26" x2="4164.08" y2="113.40" style="stroke:#F0F0F0;stroke-width:9.72"/>
	<line x1="2691.90" y1="2766.66" x2="2691.90" y2="2701.86" style="stroke:#000000;stroke-width:9.72"/>
	<line x1="2691.90" y1="2669.46" x2="2691.90" y2="2604.66" style="stroke:#000000;stroke-width:9.72"/>
	<line x1="2691.90" y1="2572.26" x2="2691.90" y2="2507.46" style="stroke:#000000;stroke-width:9.72"/>
	<line x1="2691.90" y1="2475.06" x2="2691.90" y2="2410.26" style="stroke:#000000;stroke-width:9.72"/>
	<line x1="2691.90" y1="2377.86" x2="2691.90" y2="2313.06" style="stroke:#000000;stroke-width:9.72"/>
	<line x1="2691.90" y1="2280.66" x2="2691.90" y2="2215.86" style="stroke:#000000;stroke-width:9.72"/>
	<line x1="2691.90" y1="2183.46" x2="2691.90" y2="2118.66" style="stroke:#000000;stroke-width:9.72"/>
	<line x1="2691.90" y1="2086.26" x2="2691.90" y2="2021.46" style="stroke:#000000;stroke-width:9.72"/>
	<line x1="2691.90" y1="1989.06" x2="2691.90" y2="1924.26" style="stroke:#000000;stroke-width:9.72"/>
	<line x1="2691.90" y1="1891.86" x2="2691.90" y2="1827.06" style="stroke:#000000;stroke-width:9.72"/>
	<line x1="2691.90" y1="1794.66" x2="2691.90" y2="1729.86" style="stroke:#000000;stroke-width:9.72"/>
	<line x1="2691.90" y1="1697.46" x2="2691.90" y2="1632.66" style="stroke:#000000;stroke-width:9.72"/>
	<line x1="2691.90" y1="1600.26" x2="2691.90" y2="1535.46" style="stroke:#000000;stroke-width:9.72"/>
	<line x1="2691.90" y1="1503.06" x2="2691.90" y2="1438.26" style="stroke:#000000;stroke-width:9.72"/>
	<line x1="2691.90" y1="1405.86" x2="2691.90" y2="1341.06" style="stroke:#000000;stroke-width:9.72"/>
	<line x1="2691.90" y1="1308.66" x2="2691.90" y2="1243.86" style="stroke:#000000;stroke-width:9.72"/>
	<line x1="2691.90" y1="1211.46" x2="2691.90" y2="1146.66" style="stroke:#000000;stroke-width:9.72"/>
	<line x1="2691.90" y1="1114.26" x2="2691.90" y2="1049.46" style="stroke:#000000;stroke-width:9.72"/>
	<line x1="2691.90" y1="1017.06" x2="2691.90" y2="952.26" style="stroke:#000000;stroke-width:9.72"/>
	<line x1="2691.90" y1="919.86" x2="2691.90" y2="855.06" style="stroke:#000000;stroke-width:9.72"/>
	<line x1="2691.90" y1="822.66" x2="2691.90" y2="757.86" style="stroke:#000000;stroke-width:9.72"/>
	<line x1="2691.90" y1="725.46" x2="2691.90" y2="660.66" style="stroke:#000000;stroke-width:9.72"/>
	<line x1="2691.90" y1="628.26" x2="2691.90" y2="563.46" style="stroke:#000000;stroke-width:9.72"/>
	<line x1="2691.90" y1="531.06" x2="2691.90" y2="466.26" style="stroke:#000000;stroke-width:9.72"/>
	<line x1="2691.90" y1="433.86" x2="2691.90" y2="369.06" style="stroke:#000000;stroke-width:9.72"/>
	<line x1="2691.90" y1="336.66" x2="2691.90" y2="271.86" style="stroke:#000000;stroke-width:9.72"/>
	<line x1="2691.90" y1="239.46" x2="2691.90" y2="174.66" style="stroke:#000000;stroke-width:9.72"/>
	<line x1="2691.90" y1="142.26" x2="2691.90" y2="113.40" style="stroke:#000000;stroke-width:9.72"/>
	<path d=" M1007.61 2685.83 L1018.58 2684.98 L1029.54 2683.80 L1040.51 2682.62 L1051.48 2681.44 L1062.45 2680.59 L1073.59 2679.75 L1084.56 2678.91 L1095.53 2678.23 L1106.49 2677.73 L1117.46 2677.39 L1128.43 2677.05 L1139.40 2676.88 L1150.37 2676.71 L1161.51 2676.38 L1172.47 2675.70 L1183.44 2675.03 L1194.41 2673.84 L1205.38 2672.49 L1216.35 2670.13 L1227.32 2667.09 L1238.29 2664.06 L1249.26 2660.85 L1260.39 2657.64 L1271.36 2654.78 L1282.33 2651.57 L1293.30 2648.53 L1304.27 2645.83 L1315.24 2642.96 L1326.21 2638.58 L1337.18 2634.86 L1348.31 2631.32 L1359.28 2627.27 L1370.25 2623.22 L1381.22 2617.99 L1392.19 2612.08 L1403.16 2605.50 L1414.13 2599.59 L1425.09 2594.36 L1436.23 2589.81 L1447.20 2585.42 L1458.17 2580.36 L1469.14 2573.27 L1480.11 2565.17 L1491.08 2556.39 L1502.04 2546.10 L1513.01 2535.98 L1524.15 2526.02 L1535.12 2515.89 L1546.09 2506.11 L1557.06 2496.32 L1568.03 2486.03 L1578.99 2475.90 L1589.96 2466.28 L1600.93 2457.51 L1611.90 2449.91 L1623.04 2443.84 L1634.01 2438.10 L1644.98 2432.03 L1655.94 2422.57 L1666.91 2411.78 L1677.88 2399.29 L1688.85 2385.28 L1699.82 2371.61 L1710.96 2359.29 L1721.93 2347.82 L1732.89 2336.18 L1743.86 2326.05 L1754.83 2316.09 L1765.80 2307.82 L1776.77 2298.88 L1787.74 2288.76 L1798.88 2279.64 L1809.84 2271.21 L1820.81 2262.77 L1831.78 2252.98 L1842.75 2243.36 L1853.72 2233.07 L1864.69 2222.61 L1875.66 2213.66 L1886.79 2205.56 L1897.76 2196.11 L1908.73 2183.96 L1919.70 2171.14 L1930.67 2158.65 L1941.64 2143.13 L1952.61 2126.42 L1963.58 2108.87 L1974.54 2089.63 L1985.68 2070.56 L1996.65 2049.81 L2007.62 2029.89 L2018.59 2009.31 L2029.56 1988.04 L2040.53 1964.76 L2051.49 1942.48 L2062.46 1920.88 L2073.60 1899.62 L2084.57 1880.89 L2095.54 1861.99 L2106.51 1841.06 L2117.48 1815.41 L2128.44 1787.74 L2139.41 1756.52 L2150.38 1722.09 L2161.52 1686.66 L2172.49 1650.21 L2183.46 1615.11 L2194.43 1580.01 L2205.39 1543.22 L2216.36 1507.11 L2227.33 1472.18 L2238.30 1440.45 L2249.27 1408.22 L2260.41 1377.51 L2271.38 1345.95 L2282.34 1315.41 L2293.31 1284.19 L2304.28 1251.28 L2315.25 1220.91 L2326.22 1189.01 L2337.19 1159.99 L2348.32 1130.46 L2359.29 1101.09 L2370.26 1070.72 L2381.23 1039.84 L2392.20 1009.80 L2403.17 984.66 L2414.14 960.19 L2425.11 932.68 L2436.24 907.54 L2447.21 884.08 L2458.18 860.96 L2469.15 839.70 L2480.12 819.96 L2491.09 803.93 L2502.06 789.24 L2513.03 774.56 L2524.16 760.89 L2535.13 749.08 L2546.10 738.62 L2557.07 730.52 L2568.04 724.11 L2579.01 718.20 L2589.98 713.98 L2600.94 711.62 L2611.91 705.71 L2623.05 697.95 L2634.02 690.19 L2644.99 682.43 L2655.96 677.19 L2666.93 671.63 L2677.89 664.71 L2688.86 659.81 L2699.83 657.28 L2710.97 657.28 L2721.94 659.64 L2732.91 663.02 L2743.88 664.20 L2754.84 666.39 L2765.81 669.43 L2776.78 674.16 L2787.75 681.24 L2798.89 687.15 L2809.86 696.94 L2820.83 705.04 L2831.79 712.63 L2842.76 720.39 L2853.73 730.52 L2864.70 744.36 L2875.67 761.23 L2886.81 777.94 L2897.78 793.97 L2908.74 814.05 L2919.71 836.16 L2930.68 858.26 L2941.65 880.88 L2952.62 904.84 L2963.59 931.16 L2974.56 958.16 L2985.69 984.82 L2996.66 1011.15 L3007.63 1034.78 L3018.60 1055.53 L3029.57 1075.95 L3040.54 1098.90 L3051.51 1125.06 L3062.48 1153.74 L3073.61 1184.96 L3084.58 1215.84 L3095.55 1247.06 L3106.52 1277.44 L3117.49 1309.84 L3128.46 1341.06 L3139.43 1371.60 L3150.39 1402.48 L3161.53 1433.03 L3172.50 1462.22 L3183.47 1490.40 L3194.44 1516.73 L3205.41 1544.06 L3216.38 1568.70 L3227.34 1591.82 L3238.31 1614.43 L3249.45 1638.73 L3260.42 1664.04 L3271.39 1690.20 L3282.36 1717.54 L3293.33 1744.88 L3304.29 1769.34 L3315.26 1794.32 L3326.23 1821.32 L3337.20 1850.01 L3348.34 1878.02 L3359.31 1906.37 L3370.28 1936.07 L3381.24 1968.30 L3392.21 1999.69 L3403.18 2030.57 L3414.15 2061.79 L3425.12 2091.49 L3436.26 2119.67 L3447.23 2147.51 L3458.19 2175.69 L3469.16 2200.33 L3480.13 2223.11 L3491.10 2243.19 L3502.07 2260.57 L3513.04 2276.44 L3524.18 2292.13 L3535.14 2309.01 L3546.11 2327.23 L3557.08 2346.30 L3568.05 2364.36 L3579.02 2381.40 L3589.99 2398.95 L3600.96 2415.15 L3611.93 2432.03 L3623.06 2448.39 L3634.03 2464.26 L3645.00 2477.93 L3655.97 2489.74 L3666.94 2501.21 L3677.91 2510.66 L3688.88 2518.59 L3699.84 2523.66 L3710.98 2528.21 L3721.95 2532.94 L3732.92 2537.83 L3743.89 2542.05 L3754.86 2544.75 L3765.83 2547.45 L3776.79 2550.32 L3787.76 2553.86 L3798.90 2557.07 L3809.87 2560.44 L3820.84 2562.64 L3831.81 2565.51 L3842.78 2568.54 L3853.74 2572.43 L3864.71 2576.48 L3875.68 2581.20 L3886.82 2586.26 L3897.79 2590.14 L3908.76 2593.52 L3919.73 2596.39 L3930.69 2599.43 L3941.66 2602.63 L3952.63 2606.01 L3963.60 2609.89 L3974.57 2612.42 L3985.71 2614.28 L3996.68 2616.81 L4007.64 2619.00 L4018.61 2621.70 L4029.58 2624.74 L4040.55 2626.59 L4051.52 2628.28 L4062.49 2630.31 L4073.63 2631.99 L4084.59 2634.36 L4095.56 2636.89 L4106.53 2639.93 L4117.50 2643.47 L4128.47 2647.35 L4139.44 2650.89 L4150.41 2652.92 L4161.54 2654.94 L4172.51 2656.46 L4183.48 2658.32 L4194.45 2660.18 L4205.42 2662.54 L4216.39 2664.56 L4227.36 2666.42 L4238.33 2668.61 L4249.46 2670.98 L4260.43 2673.51 L4271.40 2675.03 L4282.37 2676.21 L4293.34 2677.05" stroke-linejoin="round" style="fill:none;stroke:#1A85FF;stroke-width:9.72"/>
	<path d=" M537.64 2683.63 L547.09 2682.96 L556.54 2681.61 L565.82 2680.26 L575.27 2678.91 L584.72 2677.89 L594.00 2676.88 L603.45 2676.04 L612.90 2675.36 L622.18 2674.69 L631.63 2674.18 L641.08 2673.84 L650.36 2673.68 L659.81 2673.51 L669.26 2673.51 L678.54 2673.51 L687.99 2673.17 L697.44 2671.99 L706.73 2670.98 L716.18 2669.46 L725.63 2666.59 L734.91 2662.88 L744.36 2658.83 L753.81 2654.94 L763.09 2651.40 L772.54 2647.35 L781.99 2643.64 L791.27 2640.09 L800.72 2635.88 L810.17 2631.66 L819.45 2627.27 L828.90 2623.05 L838.35 2617.99 L847.63 2612.25 L857.08 2607.02 L866.53 2601.45 L875.81 2595.21 L885.26 2588.63 L894.71 2582.04 L904.16 2576.31 L913.44 2570.74 L922.89 2563.14 L932.34 2556.56 L941.63 2549.14 L951.08 2540.53 L960.53 2529.39 L969.81 2517.92 L979.26 2506.95 L988.71 2495.31 L997.99 2484.51 L1007.44 2473.37 L1016.89 2462.57 L1026.17 2450.76 L1035.62 2437.76 L1045.07 2425.78 L1054.35 2414.64 L1063.80 2405.53 L1073.25 2397.60 L1082.53 2388.66 L1091.98 2380.22 L1101.43 2369.08 L1110.71 2357.94 L1120.16 2345.46 L1129.61 2329.76 L1138.89 2314.24 L1148.34 2299.73 L1157.79 2286.06 L1167.08 2272.22 L1176.53 2259.39 L1185.97 2248.76 L1195.26 2237.79 L1204.71 2228.18 L1214.16 2219.74 L1223.44 2209.95 L1232.89 2199.66 L1242.34 2187.34 L1251.62 2176.20 L1261.07 2166.24 L1270.52 2157.81 L1279.80 2149.20 L1289.25 2137.89 L1298.70 2125.57 L1307.98 2113.59 L1317.43 2102.29 L1326.88 2090.31 L1336.16 2078.83 L1345.61 2062.97 L1355.06 2046.43 L1364.34 2026.52 L1373.79 2006.61 L1383.24 1983.66 L1392.53 1958.85 L1401.98 1935.73 L1411.43 1911.77 L1420.71 1888.31 L1430.16 1861.48 L1439.61 1834.14 L1448.89 1807.82 L1458.34 1782.68 L1467.79 1756.52 L1477.07 1729.35 L1486.52 1699.65 L1495.97 1668.43 L1505.25 1631.64 L1514.70 1594.86 L1524.15 1554.19 L1533.43 1507.11 L1542.88 1461.21 L1552.33 1419.19 L1561.61 1376.16 L1571.06 1334.31 L1580.51 1293.13 L1589.79 1253.14 L1599.24 1215.51 L1608.69 1179.90 L1617.98 1143.96 L1627.43 1105.65 L1636.88 1066.50 L1646.16 1027.01 L1655.61 991.41 L1665.06 955.97 L1674.34 918.84 L1683.79 883.91 L1693.24 845.94 L1702.52 810.17 L1711.97 778.78 L1721.42 748.57 L1730.70 721.07 L1740.15 692.21 L1749.60 661.16 L1758.88 634.33 L1768.33 608.18 L1777.78 586.07 L1787.06 561.77 L1796.51 540.17 L1805.96 522.28 L1815.24 505.74 L1824.69 490.22 L1834.14 474.86 L1843.43 459.51 L1852.88 447.69 L1862.33 438.07 L1871.61 429.64 L1881.06 422.21 L1890.51 412.59 L1899.79 402.47 L1909.24 393.02 L1918.69 385.76 L1927.97 378.34 L1937.42 368.21 L1946.87 359.27 L1956.15 354.21 L1965.60 352.52 L1975.05 350.49 L1984.50 345.94 L1993.78 342.39 L2003.23 340.54 L2012.68 341.04 L2021.96 340.37 L2031.41 336.99 L2040.86 335.31 L2050.14 336.99 L2059.59 337.84 L2069.04 339.36 L2078.32 341.04 L2087.78 343.91 L2097.23 349.99 L2106.51 358.09 L2115.96 373.11 L2125.41 390.99 L2134.69 406.86 L2144.14 421.88 L2153.59 440.44 L2162.87 461.53 L2172.32 483.81 L2181.77 508.95 L2191.05 535.11 L2200.50 564.81 L2209.95 594.84 L2219.23 624.54 L2228.68 650.53 L2238.13 678.21 L2247.41 706.39 L2256.86 735.24 L2266.31 762.24 L2275.59 788.23 L2285.04 812.87 L2294.49 836.49 L2303.78 864.51 L2313.23 896.23 L2322.68 933.53 L2331.96 972.84 L2341.41 1010.81 L2350.86 1047.09 L2360.14 1084.89 L2369.59 1126.41 L2379.04 1164.88 L2388.32 1199.31 L2397.77 1231.71 L2407.22 1263.77 L2416.50 1296.17 L2425.95 1325.36 L2435.40 1353.54 L2444.68 1382.23 L2454.13 1408.56 L2463.58 1436.40 L2472.86 1466.27 L2482.31 1496.81 L2491.76 1527.02 L2501.04 1559.42 L2510.49 1592.83 L2519.94 1629.62 L2529.23 1665.90 L2538.68 1700.33 L2548.13 1736.27 L2557.41 1773.23 L2566.86 1811.70 L2576.31 1849.84 L2585.59 1886.12 L2595.04 1922.40 L2604.49 1959.86 L2613.77 1995.98 L2623.22 2028.88 L2632.67 2061.79 L2641.95 2094.36 L2651.40 2125.57 L2660.85 2153.76 L2670.13 2179.41 L2679.58 2198.31 L2689.03 2215.52 L2698.31 2233.41 L2707.76 2253.15 L2717.21 2275.43 L2726.49 2298.71 L2735.94 2319.98 L2745.39 2339.55 L2754.68 2357.10 L2764.13 2375.16 L2773.58 2394.39 L2782.86 2412.79 L2792.31 2427.81 L2801.76 2441.98 L2811.04 2455.31 L2820.49 2467.13 L2829.94 2476.74 L2839.22 2485.69 L2848.67 2491.26 L2858.12 2497.33 L2867.40 2504.25 L2876.85 2509.65 L2886.30 2514.54 L2895.58 2518.76 L2905.03 2523.49 L2914.48 2527.37 L2923.76 2530.91 L2933.21 2534.63 L2942.66 2538.34 L2951.94 2540.87 L2961.39 2544.24 L2970.84 2548.80 L2980.13 2553.86 L2989.58 2557.74 L2999.03 2561.63 L3008.31 2566.18 L3017.76 2570.74 L3027.21 2575.80 L3036.49 2581.20 L3045.94 2585.59 L3055.39 2588.63 L3064.67 2591.49 L3074.12 2594.36 L3083.57 2596.56 L3093.02 2599.26 L3102.30 2601.96 L3111.75 2604.99 L3121.20 2608.54 L3130.48 2612.42 L3139.93 2615.29 L3149.38 2618.16 L3158.66 2620.35 L3168.11 2623.05 L3177.56 2626.26 L3186.84 2629.97 L3196.29 2634.02 L3205.74 2638.24 L3215.03 2642.46 L3224.48 2646.84 L3233.93 2650.22 L3243.21 2652.92 L3252.66 2655.11 L3262.11 2657.64 L3271.39 2660.18 L3280.84 2662.37 L3290.29 2663.89 L3299.57 2665.74 L3309.02 2667.60 L3318.47 2669.29 L3327.75 2670.64 L3337.20 2672.33 L3346.65 2673.51" stroke-linejoin="round" style="fill:none;stroke:#D41159;stroke-width:9.72"/>
	<line x1="412.59" y1="2766.66" x2="412.59" y2="113.40" style="stroke:#000000;stroke-width:6.48"/>
	<line x1="412.59" y1="2695.28" x2="367.54" y2="2695.28" style="stroke:#000000;stroke-width:6.48"/>
	<text x="345.09" y="2734.71" style="font-family:'Helvetica';font-size:112.56px;fill:#000000" text-anchor="end">0</text>
	<line x1="412.59" y1="1858.44" x2="367.54" y2="1858.44" style="stroke:#000000;stroke-width:6.48"/>
	<text x="345.09" y="1897.88" style="font-family:'Helvetica';font-size:112.56px;fill:#000000" text-anchor="end">5</text>
	<line x1="412.59" y1="1021.61" x2="367.54" y2="1021.61" style="stroke:#000000;stroke-width:6.48"/>
	<text x="345.09" y="1061.05" style="font-family:'Helvetica';font-size:112.56px;fill:#000000" text-anchor="end">10</text>
	<line x1="412.59" y1="184.61" x2="367.54" y2="184.61" style="stroke:#000000;stroke-width:6.48"/>
	<text x="345.09" y="224.05" style="font-family:'Helvetica';font-size:112.56px;fill:#000000" text-anchor="end">15</text>
	<line x1="412.59" y1="2766.66" x2="4364.72" y2="2766.66" style="stroke:#000000;stroke-width:6.48"/>
	<line x1="483.81" y1="2766.66" x2="483.81" y2="2811.54" style="stroke:#000000;stroke-width:6.48"/>
	<text x="483.81" y="2912.86" style="font-family:'Helvetica';font-size:112.56px;fill:#000000" text-anchor="middle">.25</text>
	<line x1="1219.89" y1="2766.66" x2="1219.89" y2="2811.54" style="stroke:#000000;stroke-width:6.48"/>
	<text x="1219.89" y="2912.86" style="font-family:'Helvetica';font-size:112.56px;fill:#000000" text-anchor="middle">.3</text>
	<line x1="1955.98" y1="2766.66" x2="1955.98" y2="2811.54" style="stroke:#000000;stroke-width:6.48"/>
	<text x="1955.98" y="2912.86" style="font-family:'Helvetica';font-size:112.56px;fill:#000000" text-anchor="middle">.35</text>
	<line x1="2691.90" y1="2766.66" x2="2691.90" y2="2811.54" style="stroke:#000000;stroke-width:6.48"/>
	<text x="2691.90" y="2912.86" style="font-family:'Helvetica';font-size:112.56px;fill:#000000" text-anchor="middle">.4</text>
	<line x1="3427.99" y1="2766.66" x2="3427.99" y2="2811.54" style="stroke:#000000;stroke-width:6.48"/>
	<text x="3427.99" y="2912.86" style="font-family:'Helvetica';font-size:112.56px;fill:#000000" text-anchor="middle">.45</text>
	<line x1="4164.08" y1="2766.66" x2="4164.08" y2="2811.54" style="stroke:#000000;stroke-width:6.48"/>
	<text x="4164.08" y="2912.86" style="font-family:'Helvetica';font-size:112.56px;fill:#000000" text-anchor="middle">.5</text>
	<text x="2388.66" y="3070.31" style="font-family:'Helvetica';font-size:112.56px;fill:#000000" text-anchor="middle">x</text>
	<rect x="4403.53" y="1256.34" width="844.26" height="367.20" style="fill:#FFFFFF"/>
	<rect x="4406.77" y="1259.58" width="837.78" height="360.72" style="fill:none;stroke:#FFFFFF;stroke-width:6.48"/>
	<line x1="4452.13" y1="1361.31" x2="4711.33" y2="1361.31" style="stroke:#1A85FF;stroke-width:9.72"/>
	<line x1="4452.13" y1="1518.75" x2="4711.33" y2="1518.75" style="stroke:#D41159;stroke-width:9.72"/>
	<text x="4778.83" y="1400.74" style="font-family:'Helvetica';font-size:112.56px;fill:#000000">Logistic</text>
	<text x="4778.83" y="1558.19" style="font-family:'Helvetica';font-size:112.56px;fill:#000000">Poisson</text>
</svg>
