<?xml version="1.0" encoding="UTF-8" standalone="no"?>
<!-- This is a Stata 18.0 generated SVG file (http://www.stata.com) -->

<svg version="1.1" width="7.500in" height="4.500in" viewBox="0 0 5400 3240" xmlns="http://www.w3.org/2000/svg" xmlns:xlink="http://www.w3.org/1999/xlink">
	<desc>Stata Graph - Graph</desc>
	<rect x="0" y="0" width="5400" height="3240" style="fill:#FFFFFF;stroke:none"/>
	<rect x="0.00" y="0.00" width="5400.00" height="3240.00" style="fill:#FFFFFF"/>
	<rect x="3.24" y="3.24" width="5393.52" height="3233.52" style="fill:none;stroke:#FFFFFF;stroke-width:6.48"/>
	<rect x="412.59" y="113.40" width="3952.13" height="2653.26" style="fill:#FFFFFF"/>
	<rect x="415.83" y="116.64" width="3945.65" height="2646.78" style="fill:none;stroke:#FFFFFF;stroke-width:6.48"/>
	<line x1="412.59" y1="2695.28" x2="477.39" y2="2695.28" style="stroke:#F0F0F0;stroke-width:9.72"/>
	<line x1="509.79" y1="2695.28" x2="574.59" y2="2695.28" style="stroke:#F0F0F0;stroke-width:9.72"/>
	<line x1="606.99" y1="2695.28" x2="671.79" y2="2695.28" style="stroke:#F0F0F0;stroke-width:9.72"/>
	<line x1="704.19" y1="2695.28" x2="768.99" y2="2695.28" style="stroke:#F0F0F0;stroke-width:9.72"/>
	<line x1="801.39" y1="2695.28" x2="866.19" y2="2695.28" style="stroke:#F0F0F0;stroke-width:9.72"/>
	<line x1="898.59" y1="2695.28" x2="963.39" y2="2695.28" style="stroke:#F0F0F0;stroke-width:9.72"/>
	<line x1="995.79" y1="2695.28" x2="1060.59" y2="2695.28" style="stroke:#F0F0F0;stroke-width:9.72"/>
	<line x1="1092.99" y1="2695.28" x2="1157.79" y2="2695.28" style="stroke:#F0F0F0;stroke-width:9.72"/>
	<line x1="1190.19" y1="2695.28" x2="1254.99" y2="2695.28" style="stroke:#F0F0F0;stroke-width:9.72"/>
	<line x1="1287.39" y1="2695.28" x2="1352.19" y2="2695.28" style="stroke:#F0F0F0;stroke-width:9.72"/>
	<line x1="1384.59" y1="2695.28" x2="1449.39" y2="2695.28" style="stroke:#F0F0F0;stroke-width:9.72"/>
	<line x1="1481.79" y1="2695.28" x2="1546.59" y2="2695.28" style="stroke:#F0F0F0;stroke-width:9.72"/>
	<line x1="1578.99" y1="2695.28" x2="1643.79" y2="2695.28" style="stroke:#F0F0F0;stroke-width:9.72"/>
	<line x1="1676.19" y1="2695.28" x2="1740.99" y2="2695.28" style="stroke:#F0F0F0;stroke-width:9.72"/>
	<line x1="1773.39" y1="2695.28" x2="1838.19" y2="2695.28" style="stroke:#F0F0F0;stroke-width:9.72"/>
	<line x1="1870.59" y1="2695.28" x2="1935.39" y2="2695.28" style="stroke:#F0F0F0;stroke-width:9.72"/>
	<line x1="1967.79" y1="2695.28" x2="2032.59" y2="2695.28" style="stroke:#F0F0F0;stroke-width:9.72"/>
	<line x1="2064.99" y1="2695.28" x2="2129.79" y2="2695.28" style="stroke:#F0F0F0;stroke-width:9.72"/>
	<line x1="2162.19" y1="2695.28" x2="2226.99" y2="2695.28" style="stroke:#F0F0F0;stroke-width:9.72"/>
	<line x1="2259.39" y1="2695.28" x2="2324.19" y2="2695.28" style="stroke:#F0F0F0;stroke-width:9.72"/>
	<line x1="2356.59" y1="2695.28" x2="2421.39" y2="2695.28" style="stroke:#F0F0F0;stroke-width:9.72"/>
	<line x1="2453.79" y1="2695.28" x2="2518.59" y2="2695.28" style="stroke:#F0F0F0;stroke-width:9.72"/>
	<line x1="2550.99" y1="2695.28" x2="2615.79" y2="2695.28" style="stroke:#F0F0F0;stroke-width:9.72"/>
	<line x1="2648.19" y1="2695.28" x2="2712.99" y2="2695.28" style="stroke:#F0F0F0;stroke-width:9.72"/>
	<line x1="2745.39" y1="2695.28" x2="2810.19" y2="2695.28" style="stroke:#F0F0F0;stroke-width:9.72"/>
	<line x1="2842.59" y1="2695.28" x2="2907.39" y2="2695.28" style="stroke:#F0F0F0;stroke-width:9.72"/>
	<line x1="2939.79" y1="2695.28" x2="3004.59" y2="2695.28" style="stroke:#F0F0F0;stroke-width:9.72"/>
	<line x1="3036.99" y1="2695.28" x2="3101.79" y2="2695.28" style="stroke:#F0F0F0;stroke-width:9.72"/>
	<line x1="3134.19" y1="2695.28" x2="3198.99" y2="2695.28" style="stroke:#F0F0F0;stroke-width:9.72"/>
	<line x1="3231.39" y1="2695.28" x2="3296.19" y2="2695.28" style="stroke:#F0F0F0;stroke-width:9.72"/>
	<line x1="3328.59" y1="2695.28" x2="3393.39" y2="2695.28" style="stroke:#F0F0F0;stroke-width:9.72"/>
	<line x1="3425.79" y1="2695.28" x2="3490.59" y2="2695.28" style="stroke:#F0F0F0;stroke-width:9.72"/>
	<line x1="3522.99" y1="2695.28" x2="3587.79" y2="2695.28" style="stroke:#F0F0F0;stroke-width:9.72"/>
	<line x1="3620.19" y1="2695.28" x2="3684.99" y2="2695.28" style="stroke:#F0F0F0;stroke-width:9.72"/>
	<line x1="3717.39" y1="2695.28" x2="3782.19" y2="2695.28" style="stroke:#F0F0F0;stroke-width:9.72"/>
	<line x1="3814.59" y1="2695.28" x2="3879.39" y2="2695.28" style="stroke:#F0F0F0;stroke-width:9.72"/>
	<line x1="3911.79" y1="2695.28" x2="3976.59" y2="2695.28" style="stroke:#F0F0F0;stroke-width:9.72"/>
	<line x1="4008.99" y1="2695.28" x2="4073.79" y2="2695.28" style="stroke:#F0F0F0;stroke-width:9.72"/>
	<line x1="4106.19" y1="2695.28" x2="4170.99" y2="2695.28" style="stroke:#F0F0F0;stroke-width:9.72"/>
	<line x1="4203.39" y1="2695.28" x2="4268.19" y2="2695.28" style="stroke:#F0F0F0;stroke-width:9.72"/>
	<line x1="4300.59" y1="2695.28" x2="4364.72" y2="2695.28" style="stroke:#F0F0F0;stroke-width:9.72"/>
	<line x1="412.59" y1="2193.24" x2="477.39" y2="2193.24" style="stroke:#F0F0F0;stroke-width:9.72"/>
	<line x1="509.79" y1="2193.24" x2="574.59" y2="2193.24" style="stroke:#F0F0F0;stroke-width:9.72"/>
	<line x1="606.99" y1="2193.24" x2="671.79" y2="2193.24" style="stroke:#F0F0F0;stroke-width:9.72"/>
	<line x1="704.19" y1="2193.24" x2="768.99" y2="2193.24" style="stroke:#F0F0F0;stroke-width:9.72"/>
	<line x1="801.39" y1="2193.24" x2="866.19" y2="2193.24" style="stroke:#F0F0F0;stroke-width:9.72"/>
	<line x1="898.59" y1="2193.24" x2="963.39" y2="2193.24" style="stroke:#F0F0F0;stroke-width:9.72"/>
	<line x1="995.79" y1="2193.24" x2="1060.59" y2="2193.24" style="stroke:#F0F0F0;stroke-width:9.72"/>
	<line x1="1092.99" y1="2193.24" x2="1157.79" y2="2193.24" style="stroke:#F0F0F0;stroke-width:9.72"/>
	<line x1="1190.19" y1="2193.24" x2="1254.99" y2="2193.24" style="stroke:#F0F0F0;stroke-width:9.72"/>
	<line x1="1287.39" y1="2193.24" x2="1352.19" y2="2193.24" style="stroke:#F0F0F0;stroke-width:9.72"/>
	<line x1="1384.59" y1="2193.24" x2="1449.39" y2="2193.24" style="stroke:#F0F0F0;stroke-width:9.72"/>
	<line x1="1481.79" y1="2193.24" x2="1546.59" y2="2193.24" style="stroke:#F0F0F0;stroke-width:9.72"/>
	<line x1="1578.99" y1="2193.24" x2="1643.79" y2="2193.24" style="stroke:#F0F0F0;stroke-width:9.72"/>
	<line x1="1676.19" y1="2193.24" x2="1740.99" y2="2193.24" style="stroke:#F0F0F0;stroke-width:9.72"/>
	<line x1="1773.39" y1="2193.24" x2="1838.19" y2="2193.24" style="stroke:#F0F0F0;stroke-width:9.72"/>
	<line x1="1870.59" y1="2193.24" x2="1935.39" y2="2193.24" style="stroke:#F0F0F0;stroke-width:9.72"/>
	<line x1="1967.79" y1="2193.24" x2="2032.59" y2="2193.24" style="stroke:#F0F0F0;stroke-width:9.72"/>
	<line x1="2064.99" y1="2193.24" x2="2129.79" y2="2193.24" style="stroke:#F0F0F0;stroke-width:9.72"/>
	<line x1="2162.19" y1="2193.24" x2="2226.99" y2="2193.24" style="stroke:#F0F0F0;stroke-width:9.72"/>
	<line x1="2259.39" y1="2193.24" x2="2324.19" y2="2193.24" style="stroke:#F0F0F0;stroke-width:9.72"/>
	<line x1="2356.59" y1="2193.24" x2="2421.39" y2="2193.24" style="stroke:#F0F0F0;stroke-width:9.72"/>
	<line x1="2453.79" y1="2193.24" x2="2518.59" y2="2193.24" style="stroke:#F0F0F0;stroke-width:9.72"/>
	<line x1="2550.99" y1="2193.24" x2="2615.79" y2="2193.24" style="stroke:#F0F0F0;stroke-width:9.72"/>
	<line x1="2648.19" y1="2193.24" x2="2712.99" y2="2193.24" style="stroke:#F0F0F0;stroke-width:9.72"/>
	<line x1="2745.39" y1="2193.24" x2="2810.19" y2="2193.24" style="stroke:#F0F0F0;stroke-width:9.72"/>
	<line x1="2842.59" y1="2193.24" x2="2907.39" y2="2193.24" style="stroke:#F0F0F0;stroke-width:9.72"/>
	<line x1="2939.79" y1="2193.24" x2="3004.59" y2="2193.24" style="stroke:#F0F0F0;stroke-width:9.72"/>
	<line x1="3036.99" y1="2193.24" x2="3101.79" y2="2193.24" style="stroke:#F0F0F0;stroke-width:9.72"/>
	<line x1="3134.19" y1="2193.24" x2="3198.99" y2="2193.24" style="stroke:#F0F0F0;stroke-width:9.72"/>
	<line x1="3231.39" y1="2193.24" x2="3296.19" y2="2193.24" style="stroke:#F0F0F0;stroke-width:9.72"/>
	<line x1="3328.59" y1="2193.24" x2="3393.39" y2="2193.24" style="stroke:#F0F0F0;stroke-width:9.72"/>
	<line x1="3425.79" y1="2193.24" x2="3490.59" y2="2193.24" style="stroke:#F0F0F0;stroke-width:9.72"/>
	<line x1="3522.99" y1="2193.24" x2="3587.79" y2="2193.24" style="stroke:#F0F0F0;stroke-width:9.72"/>
	<line x1="3620.19" y1="2193.24" x2="3684.99" y2="2193.24" style="stroke:#F0F0F0;stroke-width:9.72"/>
	<line x1="3717.39" y1="2193.24" x2="3782.19" y2="2193.24" style="stroke:#F0F0F0;stroke-width:9.72"/>
	<line x1="3814.59" y1="2193.24" x2="3879.39" y2="2193.24" style="stroke:#F0F0F0;stroke-width:9.72"/>
	<line x1="3911.79" y1="2193.24" x2="3976.59" y2="2193.24" style="stroke:#F0F0F0;stroke-width:9.72"/>
	<line x1="4008.99" y1="2193.24" x2="4073.79" y2="2193.24" style="stroke:#F0F0F0;stroke-width:9.72"/>
	<line x1="4106.19" y1="2193.24" x2="4170.99" y2="2193.24" style="stroke:#F0F0F0;stroke-width:9.72"/>
	<line x1="4203.39" y1="2193.24" x2="4268.19" y2="2193.24" style="stroke:#F0F0F0;stroke-width:9.72"/>
	<line x1="4300.59" y1="2193.24" x2="4364.72" y2="2193.24" style="stroke:#F0F0F0;stroke-width:9.72"/>
	<line x1="412.59" y1="1691.04" x2="477.39" y2="1691.04" style="stroke:#F0F0F0;stroke-width:9.72"/>
	<line x1="509.79" y1="1691.04" x2="574.59" y2="1691.04" style="stroke:#F0F0F0;stroke-width:9.72"/>
	<line x1="606.99" y1="1691.04" x2="671.79" y2="1691.04" style="stroke:#F0F0F0;stroke-width:9.72"/>
	<line x1="704.19" y1="1691.04" x2="768.99" y2="1691.04" style="stroke:#F0F0F0;stroke-width:9.72"/>
	<line x1="801.39" y1="1691.04" x2="866.19" y2="1691.04" style="stroke:#F0F0F0;stroke-width:9.72"/>
	<line x1="898.59" y1="1691.04" x2="963.39" y2="1691.04" style="stroke:#F0F0F0;stroke-width:9.72"/>
	<line x1="995.79" y1="1691.04" x2="1060.59" y2="1691.04" style="stroke:#F0F0F0;stroke-width:9.72"/>
	<line x1="1092.99" y1="1691.04" x2="1157.79" y2="1691.04" style="stroke:#F0F0F0;stroke-width:9.72"/>
	<line x1="1190.19" y1="1691.04" x2="1254.99" y2="1691.04" style="stroke:#F0F0F0;stroke-width:9.72"/>
	<line x1="1287.39" y1="1691.04" x2="1352.19" y2="1691.04" style="stroke:#F0F0F0;stroke-width:9.72"/>
	<line x1="1384.59" y1="1691.04" x2="1449.39" y2="1691.04" style="stroke:#F0F0F0;stroke-width:9.72"/>
	<line x1="1481.79" y1="1691.04" x2="1546.59" y2="1691.04" style="stroke:#F0F0F0;stroke-width:9.72"/>
	<line x1="1578.99" y1="1691.04" x2="1643.79" y2="1691.04" style="stroke:#F0F0F0;stroke-width:9.72"/>
	<line x1="1676.19" y1="1691.04" x2="1740.99" y2="1691.04" style="stroke:#F0F0F0;stroke-width:9.72"/>
	<line x1="1773.39" y1="1691.04" x2="1838.19" y2="1691.04" style="stroke:#F0F0F0;stroke-width:9.72"/>
	<line x1="1870.59" y1="1691.04" x2="1935.39" y2="1691.04" style="stroke:#F0F0F0;stroke-width:9.72"/>
	<line x1="1967.79" y1="1691.04" x2="2032.59" y2="1691.04" style="stroke:#F0F0F0;stroke-width:9.72"/>
	<line x1="2064.99" y1="1691.04" x2="2129.79" y2="1691.04" style="stroke:#F0F0F0;stroke-width:9.72"/>
	<line x1="2162.19" y1="1691.04" x2="2226.99" y2="1691.04" style="stroke:#F0F0F0;stroke-width:9.72"/>
	<line x1="2259.39" y1="1691.04" x2="2324.19" y2="1691.04" style="stroke:#F0F0F0;stroke-width:9.72"/>
	<line x1="2356.59" y1="1691.04" x2="2421.39" y2="1691.04" style="stroke:#F0F0F0;stroke-width:9.72"/>
	<line x1="2453.79" y1="1691.04" x2="2518.59" y2="1691.04" style="stroke:#F0F0F0;stroke-width:9.72"/>
	<line x1="2550.99" y1="1691.04" x2="2615.79" y2="1691.04" style="stroke:#F0F0F0;stroke-width:9.72"/>
	<line x1="2648.19" y1="1691.04" x2="2712.99" y2="1691.04" style="stroke:#F0F0F0;stroke-width:9.72"/>
	<line x1="2745.39" y1="1691.04" x2="2810.19" y2="1691.04" style="stroke:#F0F0F0;stroke-width:9.72"/>
	<line x1="2842.59" y1="1691.04" x2="2907.39" y2="1691.04" style="stroke:#F0F0F0;stroke-width:9.72"/>
	<line x1="2939.79" y1="1691.04" x2="3004.59" y2="1691.04" style="stroke:#F0F0F0;stroke-width:9.72"/>
	<line x1="3036.99" y1="1691.04" x2="3101.79" y2="1691.04" style="stroke:#F0F0F0;stroke-width:9.72"/>
	<line x1="3134.19" y1="1691.04" x2="3198.99" y2="1691.04" style="stroke:#F0F0F0;stroke-width:9.72"/>
	<line x1="3231.39" y1="1691.04" x2="3296.19" y2="1691.04" style="stroke:#F0F0F0;stroke-width:9.72"/>
	<line x1="3328.59" y1="1691.04" x2="3393.39" y2="1691.04" style="stroke:#F0F0F0;stroke-width:9.72"/>
	<line x1="3425.79" y1="1691.04" x2="3490.59" y2="1691.04" style="stroke:#F0F0F0;stroke-width:9.72"/>
	<line x1="3522.99" y1="1691.04" x2="3587.79" y2="1691.04" style="stroke:#F0F0F0;stroke-width:9.72"/>
	<line x1="3620.19" y1="1691.04" x2="3684.99" y2="1691.04" style="stroke:#F0F0F0;stroke-width:9.72"/>
	<line x1="3717.39" y1="1691.04" x2="3782.19" y2="1691.04" style="stroke:#F0F0F0;stroke-width:9.72"/>
	<line x1="3814.59" y1="1691.04" x2="3879.39" y2="1691.04" style="stroke:#F0F0F0;stroke-width:9.72"/>
	<line x1="3911.79" y1="1691.04" x2="3976.59" y2="1691.04" style="stroke:#F0F0F0;stroke-width:9.72"/>
	<line x1="4008.99" y1="1691.04" x2="4073.79" y2="1691.04" style="stroke:#F0F0F0;stroke-width:9.72"/>
	<line x1="4106.19" y1="1691.04" x2="4170.99" y2="1691.04" style="stroke:#F0F0F0;stroke-width:9.72"/>
	<line x1="4203.39" y1="1691.04" x2="4268.19" y2="1691.04" style="stroke:#F0F0F0;stroke-width:9.72"/>
	<line x1="4300.59" y1="1691.04" x2="4364.72" y2="1691.04" style="stroke:#F0F0F0;stroke-width:9.72"/>
	<line x1="412.59" y1="1189.01" x2="477.39" y2="1189.01" style="stroke:#F0F0F0;stroke-width:9.72"/>
	<line x1="509.79" y1="1189.01" x2="574.59" y2="1189.01" style="stroke:#F0F0F0;stroke-width:9.72"/>
	<line x1="606.99" y1="1189.01" x2="671.79" y2="1189.01" style="stroke:#F0F0F0;stroke-width:9.72"/>
	<line x1="704.19" y1="1189.01" x2="768.99" y2="1189.01" style="stroke:#F0F0F0;stroke-width:9.72"/>
	<line x1="801.39" y1="1189.01" x2="866.19" y2="1189.01" style="stroke:#F0F0F0;stroke-width:9.72"/>
	<line x1="898.59" y1="1189.01" x2="963.39" y2="1189.01" style="stroke:#F0F0F0;stroke-width:9.72"/>
	<line x1="995.79" y1="1189.01" x2="1060.59" y2="1189.01" style="stroke:#F0F0F0;stroke-width:9.72"/>
	<line x1="1092.99" y1="1189.01" x2="1157.79" y2="1189.01" style="stroke:#F0F0F0;stroke-width:9.72"/>
	<line x1="1190.19" y1="1189.01" x2="1254.99" y2="1189.01" style="stroke:#F0F0F0;stroke-width:9.72"/>
	<line x1="1287.39" y1="1189.01" x2="1352.19" y2="1189.01" style="stroke:#F0F0F0;stroke-width:9.72"/>
	<line x1="1384.59" y1="1189.01" x2="1449.39" y2="1189.01" style="stroke:#F0F0F0;stroke-width:9.72"/>
	<line x1="1481.79" y1="1189.01" x2="1546.59" y2="1189.01" style="stroke:#F0F0F0;stroke-width:9.72"/>
	<line x1="1578.99" y1="1189.01" x2="1643.79" y2="1189.01" style="stroke:#F0F0F0;stroke-width:9.72"/>
	<line x1="1676.19" y1="1189.01" x2="1740.99" y2="1189.01" style="stroke:#F0F0F0;stroke-width:9.72"/>
	<line x1="1773.39" y1="1189.01" x2="1838.19" y2="1189.01" style="stroke:#F0F0F0;stroke-width:9.72"/>
	<line x1="1870.59" y1="1189.01" x2="1935.39" y2="1189.01" style="stroke:#F0F0F0;stroke-width:9.72"/>
	<line x1="1967.79" y1="1189.01" x2="2032.59" y2="1189.01" style="stroke:#F0F0F0;stroke-width:9.72"/>
	<line x1="2064.99" y1="1189.01" x2="2129.79" y2="1189.01" style="stroke:#F0F0F0;stroke-width:9.72"/>
	<line x1="2162.19" y1="1189.01" x2="2226.99" y2="1189.01" style="stroke:#F0F0F0;stroke-width:9.72"/>
	<line x1="2259.39" y1="1189.01" x2="2324.19" y2="1189.01" style="stroke:#F0F0F0;stroke-width:9.72"/>
	<line x1="2356.59" y1="1189.01" x2="2421.39" y2="1189.01" style="stroke:#F0F0F0;stroke-width:9.72"/>
	<line x1="2453.79" y1="1189.01" x2="2518.59" y2="1189.01" style="stroke:#F0F0F0;stroke-width:9.72"/>
	<line x1="2550.99" y1="1189.01" x2="2615.79" y2="1189.01" style="stroke:#F0F0F0;stroke-width:9.72"/>
	<line x1="2648.19" y1="1189.01" x2="2712.99" y2="1189.01" style="stroke:#F0F0F0;stroke-width:9.72"/>
	<line x1="2745.39" y1="1189.01" x2="2810.19" y2="1189.01" style="stroke:#F0F0F0;stroke-width:9.72"/>
	<line x1="2842.59" y1="1189.01" x2="2907.39" y2="1189.01" style="stroke:#F0F0F0;stroke-width:9.72"/>
	<line x1="2939.79" y1="1189.01" x2="3004.59" y2="1189.01" style="stroke:#F0F0F0;stroke-width:9.72"/>
	<line x1="3036.99" y1="1189.01" x2="3101.79" y2="1189.01" style="stroke:#F0F0F0;stroke-width:9.72"/>
	<line x1="3134.19" y1="1189.01" x2="3198.99" y2="1189.01" style="stroke:#F0F0F0;stroke-width:9.72"/>
	<line x1="3231.39" y1="1189.01" x2="3296.19" y2="1189.01" style="stroke:#F0F0F0;stroke-width:9.72"/>
	<line x1="3328.59" y1="1189.01" x2="3393.39" y2="1189.01" style="stroke:#F0F0F0;stroke-width:9.72"/>
	<line x1="3425.79" y1="1189.01" x2="3490.59" y2="1189.01" style="stroke:#F0F0F0;stroke-width:9.72"/>
	<line x1="3522.99" y1="1189.01" x2="3587.79" y2="1189.01" style="stroke:#F0F0F0;stroke-width:9.72"/>
	<line x1="3620.19" y1="1189.01" x2="3684.99" y2="1189.01" style="stroke:#F0F0F0;stroke-width:9.72"/>
	<line x1="3717.39" y1="1189.01" x2="3782.19" y2="1189.01" style="stroke:#F0F0F0;stroke-width:9.72"/>
	<line x1="3814.59" y1="1189.01" x2="3879.39" y2="1189.01" style="stroke:#F0F0F0;stroke-width:9.72"/>
	<line x1="3911.79" y1="1189.01" x2="3976.59" y2="1189.01" style="stroke:#F0F0F0;stroke-width:9.72"/>
	<line x1="4008.99" y1="1189.01" x2="4073.79" y2="1189.01" style="stroke:#F0F0F0;stroke-width:9.72"/>
	<line x1="4106.19" y1="1189.01" x2="4170.99" y2="1189.01" style="stroke:#F0F0F0;stroke-width:9.72"/>
	<line x1="4203.39" y1="1189.01" x2="4268.19" y2="1189.01" style="stroke:#F0F0F0;stroke-width:9.72"/>
	<line x1="4300.59" y1="1189.01" x2="4364.72" y2="1189.01" style="stroke:#F0F0F0;stroke-width:9.72"/>
	<line x1="412.59" y1="686.81" x2="477.39" y2="686.81" style="stroke:#F0F0F0;stroke-width:9.72"/>
	<line x1="509.79" y1="686.81" x2="574.59" y2="686.81" style="stroke:#F0F0F0;stroke-width:9.72"/>
	<line x1="606.99" y1="686.81" x2="671.79" y2="686.81" style="stroke:#F0F0F0;stroke-width:9.72"/>
	<line x1="704.19" y1="686.81" x2="768.99" y2="686.81" style="stroke:#F0F0F0;stroke-width:9.72"/>
	<line x1="801.39" y1="686.81" x2="866.19" y2="686.81" style="stroke:#F0F0F0;stroke-width:9.72"/>
	<line x1="898.59" y1="686.81" x2="963.39" y2="686.81" style="stroke:#F0F0F0;stroke-width:9.72"/>
	<line x1="995.79" y1="686.81" x2="1060.59" y2="686.81" style="stroke:#F0F0F0;stroke-width:9.72"/>
	<line x1="1092.99" y1="686.81" x2="1157.79" y2="686.81" style="stroke:#F0F0F0;stroke-width:9.72"/>
	<line x1="1190.19" y1="686.81" x2="1254.99" y2="686.81" style="stroke:#F0F0F0;stroke-width:9.72"/>
	<line x1="1287.39" y1="686.81" x2="1352.19" y2="686.81" style="stroke:#F0F0F0;stroke-width:9.72"/>
	<line x1="1384.59" y1="686.81" x2="1449.39" y2="686.81" style="stroke:#F0F0F0;stroke-width:9.72"/>
	<line x1="1481.79" y1="686.81" x2="1546.59" y2="686.81" style="stroke:#F0F0F0;stroke-width:9.72"/>
	<line x1="1578.99" y1="686.81" x2="1643.79" y2="686.81" style="stroke:#F0F0F0;stroke-width:9.72"/>
	<line x1="1676.19" y1="686.81" x2="1740.99" y2="686.81" style="stroke:#F0F0F0;stroke-width:9.72"/>
	<line x1="1773.39" y1="686.81" x2="1838.19" y2="686.81" style="stroke:#F0F0F0;stroke-width:9.72"/>
	<line x1="1870.59" y1="686.81" x2="1935.39" y2="686.81" style="stroke:#F0F0F0;stroke-width:9.72"/>
	<line x1="1967.79" y1="686.81" x2="2032.59" y2="686.81" style="stroke:#F0F0F0;stroke-width:9.72"/>
	<line x1="2064.99" y1="686.81" x2="2129.79" y2="686.81" style="stroke:#F0F0F0;stroke-width:9.72"/>
	<line x1="2162.19" y1="686.81" x2="2226.99" y2="686.81" style="stroke:#F0F0F0;stroke-width:9.72"/>
	<line x1="2259.39" y1="686.81" x2="2324.19" y2="686.81" style="stroke:#F0F0F0;stroke-width:9.72"/>
	<line x1="2356.59" y1="686.81" x2="2421.39" y2="686.81" style="stroke:#F0F0F0;stroke-width:9.72"/>
	<line x1="2453.79" y1="686.81" x2="2518.59" y2="686.81" style="stroke:#F0F0F0;stroke-width:9.72"/>
	<line x1="2550.99" y1="686.81" x2="2615.79" y2="686.81" style="stroke:#F0F0F0;stroke-width:9.72"/>
	<line x1="2648.19" y1="686.81" x2="2712.99" y2="686.81" style="stroke:#F0F0F0;stroke-width:9.72"/>
	<line x1="2745.39" y1="686.81" x2="2810.19" y2="686.81" style="stroke:#F0F0F0;stroke-width:9.72"/>
	<line x1="2842.59" y1="686.81" x2="2907.39" y2="686.81" style="stroke:#F0F0F0;stroke-width:9.72"/>
	<line x1="2939.79" y1="686.81" x2="3004.59" y2="686.81" style="stroke:#F0F0F0;stroke-width:9.72"/>
	<line x1="3036.99" y1="686.81" x2="3101.79" y2="686.81" style="stroke:#F0F0F0;stroke-width:9.72"/>
	<line x1="3134.19" y1="686.81" x2="3198.99" y2="686.81" style="stroke:#F0F0F0;stroke-width:9.72"/>
	<line x1="3231.39" y1="686.81" x2="3296.19" y2="686.81" style="stroke:#F0F0F0;stroke-width:9.72"/>
	<line x1="3328.59" y1="686.81" x2="3393.39" y2="686.81" style="stroke:#F0F0F0;stroke-width:9.72"/>
	<line x1="3425.79" y1="686.81" x2="3490.59" y2="686.81" style="stroke:#F0F0F0;stroke-width:9.72"/>
	<line x1="3522.99" y1="686.81" x2="3587.79" y2="686.81" style="stroke:#F0F0F0;stroke-width:9.72"/>
	<line x1="3620.19" y1="686.81" x2="3684.99" y2="686.81" style="stroke:#F0F0F0;stroke-width:9.72"/>
	<line x1="3717.39" y1="686.81" x2="3782.19" y2="686.81" style="stroke:#F0F0F0;stroke-width:9.72"/>
	<line x1="3814.59" y1="686.81" x2="3879.39" y2="686.81" style="stroke:#F0F0F0;stroke-width:9.72"/>
	<line x1="3911.79" y1="686.81" x2="3976.59" y2="686.81" style="stroke:#F0F0F0;stroke-width:9.72"/>
	<line x1="4008.99" y1="686.81" x2="4073.79" y2="686.81" style="stroke:#F0F0F0;stroke-width:9.72"/>
	<line x1="4106.19" y1="686.81" x2="4170.99" y2="686.81" style="stroke:#F0F0F0;stroke-width:9.72"/>
	<line x1="4203.39" y1="686.81" x2="4268.19" y2="686.81" style="stroke:#F0F0F0;stroke-width:9.72"/>
	<line x1="4300.59" y1="686.81" x2="4364.72" y2="686.81" style="stroke:#F0F0F0;stroke-width:9.72"/>
	<line x1="412.59" y1="184.61" x2="477.39" y2="184.61" style="stroke:#F0F0F0;stroke-width:9.72"/>
	<line x1="509.79" y1="184.61" x2="574.59" y2="184.61" style="stroke:#F0F0F0;stroke-width:9.72"/>
	<line x1="606.99" y1="184.61" x2="671.79" y2="184.61" style="stroke:#F0F0F0;stroke-width:9.72"/>
	<line x1="704.19" y1="184.61" x2="768.99" y2="184.61" style="stroke:#F0F0F0;stroke-width:9.72"/>
	<line x1="801.39" y1="184.61" x2="866.19" y2="184.61" style="stroke:#F0F0F0;stroke-width:9.72"/>
	<line x1="898.59" y1="184.61" x2="963.39" y2="184.61" style="stroke:#F0F0F0;stroke-width:9.72"/>
	<line x1="995.79" y1="184.61" x2="1060.59" y2="184.61" style="stroke:#F0F0F0;stroke-width:9.72"/>
	<line x1="1092.99" y1="184.61" x2="1157.79" y2="184.61" style="stroke:#F0F0F0;stroke-width:9.72"/>
	<line x1="1190.19" y1="184.61" x2="1254.99" y2="184.61" style="stroke:#F0F0F0;stroke-width:9.72"/>
	<line x1="1287.39" y1="184.61" x2="1352.19" y2="184.61" style="stroke:#F0F0F0;stroke-width:9.72"/>
	<line x1="1384.59" y1="184.61" x2="1449.39" y2="184.61" style="stroke:#F0F0F0;stroke-width:9.72"/>
	<line x1="1481.79" y1="184.61" x2="1546.59" y2="184.61" style="stroke:#F0F0F0;stroke-width:9.72"/>
	<line x1="1578.99" y1="184.61" x2="1643.79" y2="184.61" style="stroke:#F0F0F0;stroke-width:9.72"/>
	<line x1="1676.19" y1="184.61" x2="1740.99" y2="184.61" style="stroke:#F0F0F0;stroke-width:9.72"/>
	<line x1="1773.39" y1="184.61" x2="1838.19" y2="184.61" style="stroke:#F0F0F0;stroke-width:9.72"/>
	<line x1="1870.59" y1="184.61" x2="1935.39" y2="184.61" style="stroke:#F0F0F0;stroke-width:9.72"/>
	<line x1="1967.79" y1="184.61" x2="2032.59" y2="184.61" style="stroke:#F0F0F0;stroke-width:9.72"/>
	<line x1="2064.99" y1="184.61" x2="2129.79" y2="184.61" style="stroke:#F0F0F0;stroke-width:9.72"/>
	<line x1="2162.19" y1="184.61" x2="2226.99" y2="184.61" style="stroke:#F0F0F0;stroke-width:9.72"/>
	<line x1="2259.39" y1="184.61" x2="2324.19" y2="184.61" style="stroke:#F0F0F0;stroke-width:9.72"/>
	<line x1="2356.59" y1="184.61" x2="2421.39" y2="184.61" style="stroke:#F0F0F0;stroke-width:9.72"/>
	<line x1="2453.79" y1="184.61" x2="2518.59" y2="184.61" style="stroke:#F0F0F0;stroke-width:9.72"/>
	<line x1="2550.99" y1="184.61" x2="2615.79" y2="184.61" style="stroke:#F0F0F0;stroke-width:9.72"/>
	<line x1="2648.19" y1="184.61" x2="2712.99" y2="184.61" style="stroke:#F0F0F0;stroke-width:9.72"/>
	<line x1="2745.39" y1="184.61" x2="2810.19" y2="184.61" style="stroke:#F0F0F0;stroke-width:9.72"/>
	<line x1="2842.59" y1="184.61" x2="2907.39" y2="184.61" style="stroke:#F0F0F0;stroke-width:9.72"/>
	<line x1="2939.79" y1="184.61" x2="3004.59" y2="184.61" style="stroke:#F0F0F0;stroke-width:9.72"/>
	<line x1="3036.99" y1="184.61" x2="3101.79" y2="184.61" style="stroke:#F0F0F0;stroke-width:9.72"/>
	<line x1="3134.19" y1="184.61" x2="3198.99" y2="184.61" style="stroke:#F0F0F0;stroke-width:9.72"/>
	<line x1="3231.39" y1="184.61" x2="3296.19" y2="184.61" style="stroke:#F0F0F0;stroke-width:9.72"/>
	<line x1="3328.59" y1="184.61" x2="3393.39" y2="184.61" style="stroke:#F0F0F0;stroke-width:9.72"/>
	<line x1="3425.79" y1="184.61" x2="3490.59" y2="184.61" style="stroke:#F0F0F0;stroke-width:9.72"/>
	<line x1="3522.99" y1="184.61" x2="3587.79" y2="184.61" style="stroke:#F0F0F0;stroke-width:9.72"/>
	<line x1="3620.19" y1="184.61" x2="3684.99" y2="184.61" style="stroke:#F0F0F0;stroke-width:9.72"/>
	<line x1="3717.39" y1="184.61" x2="3782.19" y2="184.61" style="stroke:#F0F0F0;stroke-width:9.72"/>
	<line x1="3814.59" y1="184.61" x2="3879.39" y2="184.61" style="stroke:#F0F0F0;stroke-width:9.72"/>
	<line x1="3911.79" y1="184.61" x2="3976.59" y2="184.61" style="stroke:#F0F0F0;stroke-width:9.72"/>
	<line x1="4008.99" y1="184.61" x2="4073.79" y2="184.61" style="stroke:#F0F0F0;stroke-width:9.72"/>
	<line x1="4106.19" y1="184.61" x2="4170.99" y2="184.61" style="stroke:#F0F0F0;stroke-width:9.72"/>
	<line x1="4203.39" y1="184.61" x2="4268.19" y2="184.61" style="stroke:#F0F0F0;stroke-width:9.72"/>
	<line x1="4300.59" y1="184.61" x2="4364.72" y2="184.61" style="stroke:#F0F0F0;stroke-width:9.72"/>
	<line x1="483.81" y1="2766.66" x2="483.81" y2="2701.86" style="stroke:#F0F0F0;stroke-width:9.72"/>
	<line x1="483.81" y1="2669.46" x2="483.81" y2="2604.66" style="stroke:#F0F0F0;stroke-width:9.72"/>
	<line x1="483.81" y1="2572.26" x2="483.81" y2="2507.46" style="stroke:#F0F0F0;stroke-width:9.72"/>
	<line x1="483.81" y1="2475.06" x2="483.81" y2="2410.26" style="stroke:#F0F0F0;stroke-width:9.72"/>
	<line x1="483.81" y1="2377.86" x2="483.81" y2="2313.06" style="stroke:#F0F0F0;stroke-width:9.72"/>
	<line x1="483.81" y1="2280.66" x2="483.81" y2="2215.86" style="stroke:#F0F0F0;stroke-width:9.72"/>
	<line x1="483.81" y1="2183.46" x2="483.81" y2="2118.66" style="stroke:#F0F0F0;stroke-width:9.72"/>
	<line x1="483.81" y1="2086.26" x2="483.81" y2="2021.46" style="stroke:#F0F0F0;stroke-width:9.72"/>
	<line x1="483.81" y1="1989.06" x2="483.81" y2="1924.26" style="stroke:#F0F0F0;stroke-width:9.72"/>
	<line x1="483.81" y1="1891.86" x2="483.81" y2="1827.06" style="stroke:#F0F0F0;stroke-width:9.72"/>
	<line x1="483.81" y1="1794.66" x2="483.81" y2="1729.86" style="stroke:#F0F0F0;stroke-width:9.72"/>
	<line x1="483.81" y1="1697.46" x2="483.81" y2="1632.66" style="stroke:#F0F0F0;stroke-width:9.72"/>
	<line x1="483.81" y1="1600.26" x2="483.81" y2="1535.46" style="stroke:#F0F0F0;stroke-width:9.72"/>
	<line x1="483.81" y1="1503.06" x2="483.81" y2="1438.26" style="stroke:#F0F0F0;stroke-width:9.72"/>
	<line x1="483.81" y1="1405.86" x2="483.81" y2="1341.06" style="stroke:#F0F0F0;stroke-width:9.72"/>
	<line x1="483.81" y1="1308.66" x2="483.81" y2="1243.86" style="stroke:#F0F0F0;stroke-width:9.72"/>
	<line x1="483.81" y1="1211.46" x2="483.81" y2="1146.66" style="stroke:#F0F0F0;stroke-width:9.72"/>
	<line x1="483.81" y1="1114.26" x2="483.81" y2="1049.46" style="stroke:#F0F0F0;stroke-width:9.72"/>
	<line x1="483.81" y1="1017.06" x2="483.81" y2="952.26" style="stroke:#F0F0F0;stroke-width:9.72"/>
	<line x1="483.81" y1="919.86" x2="483.81" y2="855.06" style="stroke:#F0F0F0;stroke-width:9.72"/>
	<line x1="483.81" y1="822.66" x2="483.81" y2="757.86" style="stroke:#F0F0F0;stroke-width:9.72"/>
	<line x1="483.81" y1="725.46" x2="483.81" y2="660.66" style="stroke:#F0F0F0;stroke-width:9.72"/>
	<line x1="483.81" y1="628.26" x2="483.81" y2="563.46" style="stroke:#F0F0F0;stroke-width:9.72"/>
	<line x1="483.81" y1="531.06" x2="483.81" y2="466.26" style="stroke:#F0F0F0;stroke-width:9.72"/>
	<line x1="483.81" y1="433.86" x2="483.81" y2="369.06" style="stroke:#F0F0F0;stroke-width:9.72"/>
	<line x1="483.81" y1="336.66" x2="483.81" y2="271.86" style="stroke:#F0F0F0;stroke-width:9.72"/>
	<line x1="483.81" y1="239.46" x2="483.81" y2="174.66" style="stroke:#F0F0F0;stroke-width:9.72"/>
	<line x1="483.81" y1="142.26" x2="483.81" y2="113.40" style="stroke:#F0F0F0;stroke-width:9.72"/>
	<line x1="1753.65" y1="2766.66" x2="1753.65" y2="2701.86" style="stroke:#F0F0F0;stroke-width:9.72"/>
	<line x1="1753.65" y1="2669.46" x2="1753.65" y2="2604.66" style="stroke:#F0F0F0;stroke-width:9.72"/>
	<line x1="1753.65" y1="2572.26" x2="1753.65" y2="2507.46" style="stroke:#F0F0F0;stroke-width:9.72"/>
	<line x1="1753.65" y1="2475.06" x2="1753.65" y2="2410.26" style="stroke:#F0F0F0;stroke-width:9.72"/>
	<line x1="1753.65" y1="2377.86" x2="1753.65" y2="2313.06" style="stroke:#F0F0F0;stroke-width:9.72"/>
	<line x1="1753.65" y1="2280.66" x2="1753.65" y2="2215.86" style="stroke:#F0F0F0;stroke-width:9.72"/>
	<line x1="1753.65" y1="2183.46" x2="1753.65" y2="2118.66" style="stroke:#F0F0F0;stroke-width:9.72"/>
	<line x1="1753.65" y1="2086.26" x2="1753.65" y2="2021.46" style="stroke:#F0F0F0;stroke-width:9.72"/>
	<line x1="1753.65" y1="1989.06" x2="1753.65" y2="1924.26" style="stroke:#F0F0F0;stroke-width:9.72"/>
	<line x1="1753.65" y1="1891.86" x2="1753.65" y2="1827.06" style="stroke:#F0F0F0;stroke-width:9.72"/>
	<line x1="1753.65" y1="1794.66" x2="1753.65" y2="1729.86" style="stroke:#F0F0F0;stroke-width:9.72"/>
	<line x1="1753.65" y1="1697.46" x2="1753.65" y2="1632.66" style="stroke:#F0F0F0;stroke-width:9.72"/>
	<line x1="1753.65" y1="1600.26" x2="1753.65" y2="1535.46" style="stroke:#F0F0F0;stroke-width:9.72"/>
	<line x1="1753.65" y1="1503.06" x2="1753.65" y2="1438.26" style="stroke:#F0F0F0;stroke-width:9.72"/>
	<line x1="1753.65" y1="1405.86" x2="1753.65" y2="1341.06" style="stroke:#F0F0F0;stroke-width:9.72"/>
	<line x1="1753.65" y1="1308.66" x2="1753.65" y2="1243.86" style="stroke:#F0F0F0;stroke-width:9.72"/>
	<line x1="1753.65" y1="1211.46" x2="1753.65" y2="1146.66" style="stroke:#F0F0F0;stroke-width:9.72"/>
	<line x1="1753.65" y1="1114.26" x2="1753.65" y2="1049.46" style="stroke:#F0F0F0;stroke-width:9.72"/>
	<line x1="1753.65" y1="1017.06" x2="1753.65" y2="952.26" style="stroke:#F0F0F0;stroke-width:9.72"/>
	<line x1="1753.65" y1="919.86" x2="1753.65" y2="855.06" style="stroke:#F0F0F0;stroke-width:9.72"/>
	<line x1="1753.65" y1="822.66" x2="1753.65" y2="757.86" style="stroke:#F0F0F0;stroke-width:9.72"/>
	<line x1="1753.65" y1="725.46" x2="1753.65" y2="660.66" style="stroke:#F0F0F0;stroke-width:9.72"/>
	<line x1="1753.65" y1="628.26" x2="1753.65" y2="563.46" style="stroke:#F0F0F0;stroke-width:9.72"/>
	<line x1="1753.65" y1="531.06" x2="1753.65" y2="466.26" style="stroke:#F0F0F0;stroke-width:9.72"/>
	<line x1="1753.65" y1="433.86" x2="1753.65" y2="369.06" style="stroke:#F0F0F0;stroke-width:9.72"/>
	<line x1="1753.65" y1="336.66" x2="1753.65" y2="271.86" style="stroke:#F0F0F0;stroke-width:9.72"/>
	<line x1="1753.65" y1="239.46" x2="1753.65" y2="174.66" style="stroke:#F0F0F0;stroke-width:9.72"/>
	<line x1="1753.65" y1="142.26" x2="1753.65" y2="113.40" style="stroke:#F0F0F0;stroke-width:9.72"/>
	<line x1="3023.49" y1="2766.66" x2="3023.49" y2="2701.86" style="stroke:#F0F0F0;stroke-width:9.72"/>
	<line x1="3023.49" y1="2669.46" x2="3023.49" y2="2604.66" style="stroke:#F0F0F0;stroke-width:9.72"/>
	<line x1="3023.49" y1="2572.26" x2="3023.49" y2="2507.46" style="stroke:#F0F0F0;stroke-width:9.72"/>
	<line x1="3023.49" y1="2475.06" x2="3023.49" y2="2410.26" style="stroke:#F0F0F0;stroke-width:9.72"/>
	<line x1="3023.49" y1="2377.86" x2="3023.49" y2="2313.06" style="stroke:#F0F0F0;stroke-width:9.72"/>
	<line x1="3023.49" y1="2280.66" x2="3023.49" y2="2215.86" style="stroke:#F0F0F0;stroke-width:9.72"/>
	<line x1="3023.49" y1="2183.46" x2="3023.49" y2="2118.66" style="stroke:#F0F0F0;stroke-width:9.72"/>
	<line x1="3023.49" y1="2086.26" x2="3023.49" y2="2021.46" style="stroke:#F0F0F0;stroke-width:9.72"/>
	<line x1="3023.49" y1="1989.06" x2="3023.49" y2="1924.26" style="stroke:#F0F0F0;stroke-width:9.72"/>
	<line x1="3023.49" y1="1891.86" x2="3023.49" y2="1827.06" style="stroke:#F0F0F0;stroke-width:9.72"/>
	<line x1="3023.49" y1="1794.66" x2="3023.49" y2="1729.86" style="stroke:#F0F0F0;stroke-width:9.72"/>
	<line x1="3023.49" y1="1697.46" x2="3023.49" y2="1632.66" style="stroke:#F0F0F0;stroke-width:9.72"/>
	<line x1="3023.49" y1="1600.26" x2="3023.49" y2="1535.46" style="stroke:#F0F0F0;stroke-width:9.72"/>
	<line x1="3023.49" y1="1503.06" x2="3023.49" y2="1438.26" style="stroke:#F0F0F0;stroke-width:9.72"/>
	<line x1="3023.49" y1="1405.86" x2="3023.49" y2="1341.06" style="stroke:#F0F0F0;stroke-width:9.72"/>
	<line x1="3023.49" y1="1308.66" x2="3023.49" y2="1243.86" style="stroke:#F0F0F0;stroke-width:9.72"/>
	<line x1="3023.49" y1="1211.46" x2="3023.49" y2="1146.66" style="stroke:#F0F0F0;stroke-width:9.72"/>
	<line x1="3023.49" y1="1114.26" x2="3023.49" y2="1049.46" style="stroke:#F0F0F0;stroke-width:9.72"/>
	<line x1="3023.49" y1="1017.06" x2="3023.49" y2="952.26" style="stroke:#F0F0F0;stroke-width:9.72"/>
	<line x1="3023.49" y1="919.86" x2="3023.49" y2="855.06" style="stroke:#F0F0F0;stroke-width:9.72"/>
	<line x1="3023.49" y1="822.66" x2="3023.49" y2="757.86" style="stroke:#F0F0F0;stroke-width:9.72"/>
	<line x1="3023.49" y1="725.46" x2="3023.49" y2="660.66" style="stroke:#F0F0F0;stroke-width:9.72"/>
	<line x1="3023.49" y1="628.26" x2="3023.49" y2="563.46" style="stroke:#F0F0F0;stroke-width:9.72"/>
	<line x1="3023.49" y1="531.06" x2="3023.49" y2="466.26" style="stroke:#F0F0F0;stroke-width:9.72"/>
	<line x1="3023.49" y1="433.86" x2="3023.49" y2="369.06" style="stroke:#F0F0F0;stroke-width:9.72"/>
	<line x1="3023.49" y1="336.66" x2="3023.49" y2="271.86" style="stroke:#F0F0F0;stroke-width:9.72"/>
	<line x1="3023.49" y1="239.46" x2="3023.49" y2="174.66" style="stroke:#F0F0F0;stroke-width:9.72"/>
	<line x1="3023.49" y1="142.26" x2="3023.49" y2="113.40" style="stroke:#F0F0F0;stroke-width:9.72"/>
	<line x1="4293.34" y1="2766.66" x2="4293.34" y2="2701.86" style="stroke:#F0F0F0;stroke-width:9.72"/>
	<line x1="4293.34" y1="2669.46" x2="4293.34" y2="2604.66" style="stroke:#F0F0F0;stroke-width:9.72"/>
	<line x1="4293.34" y1="2572.26" x2="4293.34" y2="2507.46" style="stroke:#F0F0F0;stroke-width:9.72"/>
	<line x1="4293.34" y1="2475.06" x2="4293.34" y2="2410.26" style="stroke:#F0F0F0;stroke-width:9.72"/>
	<line x1="4293.34" y1="2377.86" x2="4293.34" y2="2313.06" style="stroke:#F0F0F0;stroke-width:9.72"/>
	<line x1="4293.34" y1="2280.66" x2="4293.34" y2="2215.86" style="stroke:#F0F0F0;stroke-width:9.72"/>
	<line x1="4293.34" y1="2183.46" x2="4293.34" y2="2118.66" style="stroke:#F0F0F0;stroke-width:9.72"/>
	<line x1="4293.34" y1="2086.26" x2="4293.34" y2="2021.46" style="stroke:#F0F0F0;stroke-width:9.72"/>
	<line x1="4293.34" y1="1989.06" x2="4293.34" y2="1924.26" style="stroke:#F0F0F0;stroke-width:9.72"/>
	<line x1="4293.34" y1="1891.86" x2="4293.34" y2="1827.06" style="stroke:#F0F0F0;stroke-width:9.72"/>
	<line x1="4293.34" y1="1794.66" x2="4293.34" y2="1729.86" style="stroke:#F0F0F0;stroke-width:9.72"/>
	<line x1="4293.34" y1="1697.46" x2="4293.34" y2="1632.66" style="stroke:#F0F0F0;stroke-width:9.72"/>
	<line x1="4293.34" y1="1600.26" x2="4293.34" y2="1535.46" style="stroke:#F0F0F0;stroke-width:9.72"/>
	<line x1="4293.34" y1="1503.06" x2="4293.34" y2="1438.26" style="stroke:#F0F0F0;stroke-width:9.72"/>
	<line x1="4293.34" y1="1405.86" x2="4293.34" y2="1341.06" style="stroke:#F0F0F0;stroke-width:9.72"/>
	<line x1="4293.34" y1="1308.66" x2="4293.34" y2="1243.86" style="stroke:#F0F0F0;stroke-width:9.72"/>
	<line x1="4293.34" y1="1211.46" x2="4293.34" y2="1146.66" style="stroke:#F0F0F0;stroke-width:9.72"/>
	<line x1="4293.34" y1="1114.26" x2="4293.34" y2="1049.46" style="stroke:#F0F0F0;stroke-width:9.72"/>
	<line x1="4293.34" y1="1017.06" x2="4293.34" y2="952.26" style="stroke:#F0F0F0;stroke-width:9.72"/>
	<line x1="4293.34" y1="919.86" x2="4293.34" y2="855.06" style="stroke:#F0F0F0;stroke-width:9.72"/>
	<line x1="4293.34" y1="822.66" x2="4293.34" y2="757.86" style="stroke:#F0F0F0;stroke-width:9.72"/>
	<line x1="4293.34" y1="725.46" x2="4293.34" y2="660.66" style="stroke:#F0F0F0;stroke-width:9.72"/>
	<line x1="4293.34" y1="628.26" x2="4293.34" y2="563.46" style="stroke:#F0F0F0;stroke-width:9.72"/>
	<line x1="4293.34" y1="531.06" x2="4293.34" y2="466.26" style="stroke:#F0F0F0;stroke-width:9.72"/>
	<line x1="4293.34" y1="433.86" x2="4293.34" y2="369.06" style="stroke:#F0F0F0;stroke-width:9.72"/>
	<line x1="4293.34" y1="336.66" x2="4293.34" y2="271.86" style="stroke:#F0F0F0;stroke-width:9.72"/>
	<line x1="4293.34" y1="239.46" x2="4293.34" y2="174.66" style="stroke:#F0F0F0;stroke-width:9.72"/>
	<line x1="4293.34" y1="142.26" x2="4293.34" y2="113.40" style="stroke:#F0F0F0;stroke-width:9.72"/>
	<line x1="3023.49" y1="2766.66" x2="3023.49" y2="2701.86" style="stroke:#000000;stroke-width:9.72"/>
	<line x1="3023.49" y1="2669.46" x2="3023.49" y2="2604.66" style="stroke:#000000;stroke-width:9.72"/>
	<line x1="3023.49" y1="2572.26" x2="3023.49" y2="2507.46" style="stroke:#000000;stroke-width:9.72"/>
	<line x1="3023.49" y1="2475.06" x2="3023.49" y2="2410.26" style="stroke:#000000;stroke-width:9.72"/>
	<line x1="3023.49" y1="2377.86" x2="3023.49" y2="2313.06" style="stroke:#000000;stroke-width:9.72"/>
	<line x1="3023.49" y1="2280.66" x2="3023.49" y2="2215.86" style="stroke:#000000;stroke-width:9.72"/>
	<line x1="3023.49" y1="2183.46" x2="3023.49" y2="2118.66" style="stroke:#000000;stroke-width:9.72"/>
	<line x1="3023.49" y1="2086.26" x2="3023.49" y2="2021.46" style="stroke:#000000;stroke-width:9.72"/>
	<line x1="3023.49" y1="1989.06" x2="3023.49" y2="1924.26" style="stroke:#000000;stroke-width:9.72"/>
	<line x1="3023.49" y1="1891.86" x2="3023.49" y2="1827.06" style="stroke:#000000;stroke-width:9.72"/>
	<line x1="3023.49" y1="1794.66" x2="3023.49" y2="1729.86" style="stroke:#000000;stroke-width:9.72"/>
	<line x1="3023.49" y1="1697.46" x2="3023.49" y2="1632.66" style="stroke:#000000;stroke-width:9.72"/>
	<line x1="3023.49" y1="1600.26" x2="3023.49" y2="1535.46" style="stroke:#000000;stroke-width:9.72"/>
	<line x1="3023.49" y1="1503.06" x2="3023.49" y2="1438.26" style="stroke:#000000;stroke-width:9.72"/>
	<line x1="3023.49" y1="1405.86" x2="3023.49" y2="1341.06" style="stroke:#000000;stroke-width:9.72"/>
	<line x1="3023.49" y1="1308.66" x2="3023.49" y2="1243.86" style="stroke:#000000;stroke-width:9.72"/>
	<line x1="3023.49" y1="1211.46" x2="3023.49" y2="1146.66" style="stroke:#000000;stroke-width:9.72"/>
	<line x1="3023.49" y1="1114.26" x2="3023.49" y2="1049.46" style="stroke:#000000;stroke-width:9.72"/>
	<line x1="3023.49" y1="1017.06" x2="3023.49" y2="952.26" style="stroke:#000000;stroke-width:9.72"/>
	<line x1="3023.49" y1="919.86" x2="3023.49" y2="855.06" style="stroke:#000000;stroke-width:9.72"/>
	<line x1="3023.49" y1="822.66" x2="3023.49" y2="757.86" style="stroke:#000000;stroke-width:9.72"/>
	<line x1="3023.49" y1="725.46" x2="3023.49" y2="660.66" style="stroke:#000000;stroke-width:9.72"/>
	<line x1="3023.49" y1="628.26" x2="3023.49" y2="563.46" style="stroke:#000000;stroke-width:9.72"/>
	<line x1="3023.49" y1="531.06" x2="3023.49" y2="466.26" style="stroke:#000000;stroke-width:9.72"/>
	<line x1="3023.49" y1="433.86" x2="3023.49" y2="369.06" style="stroke:#000000;stroke-width:9.72"/>
	<line x1="3023.49" y1="336.66" x2="3023.49" y2="271.86" style="stroke:#000000;stroke-width:9.72"/>
	<line x1="3023.49" y1="239.46" x2="3023.49" y2="174.66" style="stroke:#000000;stroke-width:9.72"/>
	<line x1="3023.49" y1="142.26" x2="3023.49" y2="113.40" style="stroke:#000000;stroke-width:9.72"/>
	<path d=" M1586.76 2575.80 L1595.03 2555.72 L1603.29 2535.81 L1611.56 2516.40 L1619.83 2497.16 L1628.10 2478.26 L1636.37 2459.87 L1644.64 2441.48 L1653.08 2423.59 L1661.34 2406.04 L1669.61 2388.66 L1677.88 2371.78 L1686.15 2355.07 L1694.42 2338.71 L1702.69 2322.68 L1710.96 2306.98 L1719.23 2291.63 L1727.49 2276.44 L1735.93 2261.76 L1744.20 2247.24 L1752.47 2233.07 L1760.74 2219.23 L1769.01 2205.73 L1777.28 2192.40 L1785.54 2179.57 L1793.81 2166.92 L1802.08 2154.77 L1810.35 2142.79 L1818.62 2131.14 L1827.06 2119.84 L1835.33 2108.70 L1843.59 2091.99 L1851.86 2072.93 L1860.13 2054.03 L1868.40 2035.63 L1876.67 2017.58 L1884.94 1999.86 L1893.21 1982.64 L1901.48 1965.77 L1909.74 1949.23 L1918.18 1933.20 L1926.45 1917.51 L1934.72 1895.57 L1942.99 1871.78 L1951.26 1848.66 L1959.53 1825.88 L1967.79 1803.43 L1976.06 1781.66 L1984.33 1760.23 L1992.60 1739.31 L2001.04 1718.89 L2009.31 1698.98 L2017.58 1679.40 L2025.84 1660.50 L2034.11 1641.94 L2042.38 1623.71 L2050.65 1606.16 L2058.92 1588.95 L2067.19 1572.41 L2075.46 1556.21 L2083.73 1540.35 L2092.16 1525.16 L2100.43 1510.31 L2108.70 1495.97 L2116.97 1482.13 L2125.24 1468.80 L2133.51 1455.98 L2141.78 1443.49 L2150.04 1431.51 L2158.31 1420.03 L2166.58 1408.89 L2174.85 1398.43 L2183.29 1388.31 L2191.56 1378.69 L2199.82 1369.58 L2208.09 1360.97 L2216.36 1352.70 L2224.63 1344.94 L2232.90 1337.68 L2241.17 1330.93 L2249.44 1324.52 L2257.71 1318.78 L2266.14 1313.38 L2274.41 1308.49 L2282.68 1303.93 L2290.95 1300.05 L2299.22 1296.51 L2307.49 1293.47 L2315.76 1290.94 L2324.03 1288.91 L2332.29 1287.22 L2340.56 1286.04 L2348.83 1285.37 L2357.27 1284.36 L2365.54 1275.75 L2373.81 1267.65 L2382.07 1260.06 L2390.34 1253.14 L2398.61 1246.72 L2406.88 1240.82 L2415.15 1235.59 L2423.42 1230.86 L2431.69 1226.64 L2439.96 1222.93 L2448.39 1219.72 L2456.66 1217.19 L2464.93 1215.17 L2473.20 1213.82 L2481.47 1212.64 L2489.74 1203.36 L2498.01 1194.75 L2506.28 1186.82 L2514.54 1179.39 L2522.81 1172.64 L2531.25 1164.38 L2539.52 1143.62 L2547.79 1120.84 L2556.06 1098.73 L2564.32 1077.30 L2572.59 1056.38 L2580.86 1036.13 L2589.13 1016.55 L2597.40 997.48 L2605.67 979.26 L2613.94 961.54 L2622.38 944.32 L2630.64 927.96 L2638.91 912.09 L2647.18 896.91 L2655.45 882.22 L2663.72 868.22 L2671.99 854.89 L2680.26 842.23 L2688.53 830.08 L2696.79 818.78 L2705.06 807.81 L2713.50 797.68 L2721.77 788.06 L2730.04 779.12 L2738.31 770.85 L2746.58 763.09 L2754.84 756.00 L2763.11 749.59 L2771.38 743.85 L2779.65 738.62 L2787.92 734.06 L2796.36 730.18 L2804.63 726.81 L2812.89 724.28 L2821.16 722.08 L2829.43 720.73 L2837.70 719.89 L2845.97 719.72 L2854.24 720.22 L2862.51 721.41 L2870.78 723.09 L2879.04 725.46 L2887.48 728.32 L2895.75 732.04 L2904.02 736.26 L2912.29 741.15 L2920.56 746.55 L2928.83 752.63 L2937.09 759.38 L2945.36 766.80 L2953.63 774.73 L2961.90 783.34 L2970.17 792.62 L2978.61 802.57 L2986.88 813.04 L2995.14 824.18 L3003.41 835.82 L3011.68 848.31 L3019.95 861.30 L3028.22 874.97 L3036.49 889.14 L3044.76 903.99 L3053.03 919.52 L3061.46 935.72 L3069.73 952.59 L3078.00 969.97 L3086.27 988.03 L3094.54 1006.59 L3102.81 1024.48 L3111.08 1035.45 L3119.34 1046.93 L3127.61 1052.16 L3135.88 1056.04 L3144.15 1060.43 L3152.59 1065.32 L3160.86 1071.06 L3169.13 1077.30 L3177.39 1084.22 L3185.66 1091.81 L3193.93 1099.91 L3202.20 1104.97 L3210.47 1105.31 L3218.74 1106.32 L3227.01 1107.84 L3235.28 1109.87 L3243.71 1112.57 L3251.98 1115.61 L3260.25 1119.32 L3268.52 1123.71 L3276.79 1128.43 L3285.06 1133.83 L3293.33 1139.74 L3301.59 1146.15 L3309.86 1153.24 L3318.13 1160.83 L3326.57 1168.93 L3334.84 1177.54 L3343.11 1186.65 L3351.38 1196.44 L3359.64 1206.73 L3367.91 1217.53 L3376.18 1229.01 L3384.45 1240.99 L3392.72 1253.47 L3400.99 1266.47 L3409.26 1280.14 L3417.69 1294.14 L3425.96 1308.83 L3434.23 1318.61 L3442.50 1325.36 L3450.77 1332.62 L3459.04 1340.21 L3467.31 1348.48 L3475.58 1357.09 L3483.84 1366.20 L3492.11 1375.82 L3500.38 1385.94 L3508.82 1396.41 L3517.09 1407.54 L3525.36 1419.02 L3533.63 1431.00 L3541.89 1443.32 L3550.16 1456.31 L3558.43 1469.64 L3566.70 1483.48 L3574.97 1497.83 L3583.24 1512.51 L3591.68 1527.86 L3599.94 1543.56 L3608.21 1559.76 L3616.48 1576.29 L3624.75 1593.51 L3633.02 1611.06 L3641.29 1629.11 L3649.56 1647.68 L3657.83 1666.74 L3666.09 1686.15 L3674.36 1706.06 L3682.80 1726.48 L3691.07 1747.41 L3699.34 1768.84 L3707.61 1790.61 L3715.88 1812.88 L3724.14 1834.31 L3732.41 1848.66 L3740.68 1863.34 L3748.95 1878.36 L3757.22 1893.88 L3765.49 1909.74 L3773.93 1925.94 L3782.19 1942.48 L3790.46 1959.53 L3798.73 1976.91 L3807.00 1994.79 L3815.27 2010.99 L3823.54 2020.61 L3831.81 2030.57 L3840.08 2040.69 L3848.34 2051.32 L3856.78 2062.13 L3865.05 2073.26 L3873.32 2084.74 L3881.59 2096.55 L3889.86 2108.70 L3898.13 2121.19 L3906.39 2133.84 L3914.66 2147.01 L3922.93 2160.34 L3931.20 2174.01 L3939.47 2188.01 L3947.91 2202.36 L3956.18 2217.04 L3964.44 2231.89 L3972.71 2247.24 L3980.98 2262.77 L3989.25 2278.63 L3997.52 2294.83 L4005.79 2311.37 L4014.06 2328.24 L4022.33 2345.29 L4030.59 2362.84 L4039.03 2380.56 L4047.30 2398.61 L4055.57 2417.01 L4063.84 2435.74" stroke-linejoin="round" style="fill:none;stroke:#1A85FF;stroke-width:9.72"/>
	<path d=" M1083.71 2495.48 L1091.31 2473.03 L1098.73 2450.93 L1106.16 2429.16 L1113.75 2407.73 L1121.18 2386.80 L1128.77 2366.04 L1136.19 2345.63 L1143.62 2325.71 L1151.21 2305.97 L1158.64 2286.73 L1166.23 2267.66 L1173.66 2249.10 L1181.08 2230.71 L1188.68 2212.82 L1196.10 2195.10 L1203.69 2177.89 L1211.12 2160.84 L1218.54 2144.31 L1226.14 2128.11 L1233.56 2112.24 L1241.16 2096.55 L1248.58 2081.36 L1256.01 2066.51 L1263.60 2052.00 L1271.03 2037.83 L1278.62 2023.82 L1286.04 2010.32 L1293.47 1997.16 L1301.06 1984.33 L1308.49 1971.84 L1316.08 1959.69 L1323.51 1947.71 L1330.93 1926.62 L1338.53 1905.86 L1345.95 1885.44 L1353.54 1865.53 L1360.97 1846.13 L1368.39 1827.06 L1375.99 1808.33 L1383.41 1790.10 L1391.01 1772.38 L1398.43 1755.00 L1405.86 1734.75 L1413.45 1708.59 L1420.88 1682.94 L1428.47 1657.63 L1435.89 1632.99 L1443.32 1608.86 L1450.91 1585.24 L1458.34 1562.12 L1465.93 1539.51 L1473.36 1517.57 L1480.78 1495.97 L1488.38 1474.88 L1495.80 1454.29 L1503.39 1434.38 L1510.82 1414.80 L1518.24 1395.73 L1525.84 1377.34 L1533.26 1359.28 L1540.86 1341.90 L1548.28 1324.86 L1555.71 1308.49 L1563.30 1292.46 L1570.73 1277.10 L1578.15 1262.25 L1585.74 1247.91 L1593.17 1234.07 L1600.76 1220.57 L1608.19 1207.74 L1615.61 1195.43 L1623.21 1183.61 L1630.63 1172.31 L1638.23 1161.51 L1645.65 1151.21 L1653.08 1141.59 L1660.67 1132.31 L1668.09 1123.54 L1675.69 1115.27 L1683.11 1107.68 L1690.54 1100.42 L1698.13 1093.84 L1705.56 1087.59 L1713.15 1082.03 L1720.58 1076.79 L1728.00 1072.24 L1735.59 1068.02 L1743.02 1064.47 L1750.61 1061.44 L1758.04 1058.91 L1765.46 1056.71 L1773.06 1055.19 L1780.48 1054.18 L1788.08 1053.68 L1795.50 1053.51 L1802.93 1044.22 L1810.52 1035.62 L1817.94 1027.52 L1825.54 1020.09 L1832.96 1013.34 L1840.39 1007.10 L1847.98 1001.53 L1855.41 996.47 L1863.00 992.08 L1870.43 988.20 L1877.85 984.99 L1885.44 982.29 L1892.87 980.27 L1900.46 978.92 L1907.89 969.64 L1915.31 959.68 L1922.91 950.57 L1930.33 941.96 L1937.93 934.20 L1945.35 919.69 L1952.78 903.32 L1960.37 887.63 L1967.79 872.44 L1975.39 855.90 L1982.81 832.28 L1990.24 809.16 L1997.83 786.88 L2005.26 765.28 L2012.85 744.36 L2020.28 724.11 L2027.70 704.53 L2035.29 685.63 L2042.72 667.41 L2050.31 649.86 L2057.74 632.98 L2065.16 616.95 L2072.76 601.43 L2080.18 586.57 L2087.78 572.57 L2095.20 559.07 L2102.63 546.41 L2110.22 534.43 L2117.64 522.96 L2125.07 512.32 L2132.66 502.37 L2140.09 493.09 L2147.68 484.48 L2155.11 476.55 L2162.53 469.29 L2170.13 462.71 L2177.55 456.81 L2185.14 451.57 L2192.57 447.02 L2199.99 443.31 L2207.59 440.10 L2215.01 437.74 L2222.61 435.88 L2230.03 434.87 L2237.46 434.36 L2245.05 434.70 L2252.48 435.71 L2260.07 437.23 L2267.49 439.59 L2274.92 442.63 L2282.51 446.34 L2289.94 450.73 L2297.53 455.79 L2304.96 461.53 L2312.38 467.94 L2319.98 475.20 L2327.40 482.96 L2334.99 491.40 L2342.42 500.68 L2349.84 510.47 L2357.44 521.10 L2364.86 532.24 L2372.46 544.22 L2379.88 556.88 L2387.31 570.21 L2394.90 584.04 L2402.32 598.72 L2409.92 614.08 L2417.34 630.11 L2424.77 646.82 L2432.36 664.20 L2439.79 682.26 L2447.38 701.16 L2454.81 720.56 L2462.23 740.64 L2469.82 759.04 L2477.25 767.14 L2484.84 769.84 L2492.27 773.21 L2499.69 777.26 L2507.29 781.99 L2514.71 787.56 L2522.31 793.63 L2529.73 800.38 L2537.16 807.97 L2544.75 816.07 L2552.18 819.79 L2559.77 819.45 L2567.19 819.79 L2574.62 820.63 L2582.21 822.15 L2589.64 824.18 L2597.23 826.88 L2604.66 830.25 L2612.08 834.13 L2619.68 838.52 L2627.10 843.58 L2634.69 849.32 L2642.12 855.56 L2649.54 862.48 L2657.14 869.91 L2664.56 878.01 L2671.99 886.78 L2679.58 896.06 L2687.01 905.85 L2694.60 916.31 L2702.03 927.45 L2709.45 939.09 L2717.04 951.41 L2724.47 964.24 L2732.06 977.74 L2739.49 991.74 L2746.91 1006.43 L2754.51 1021.61 L2761.93 1037.47 L2769.53 1054.01 L2776.95 1066.84 L2784.38 1074.60 L2791.97 1082.87 L2799.39 1091.81 L2806.99 1101.09 L2814.41 1110.88 L2821.84 1121.34 L2829.43 1132.14 L2836.86 1143.62 L2844.45 1155.43 L2851.88 1167.92 L2859.30 1180.91 L2866.89 1194.24 L2874.32 1208.25 L2881.91 1222.76 L2889.34 1237.78 L2896.76 1253.31 L2904.36 1269.34 L2911.78 1285.88 L2919.38 1302.92 L2926.80 1320.47 L2934.23 1338.53 L2941.82 1357.09 L2949.24 1376.16 L2956.84 1395.73 L2964.26 1415.98 L2971.69 1436.57 L2979.28 1457.66 L2986.71 1479.43 L2994.30 1501.54 L3001.73 1524.32 L3009.15 1547.44 L3016.74 1571.23 L3024.17 1595.53 L3031.76 1620.17 L3039.19 1640.42 L3046.61 1656.45 L3054.21 1672.65 L3061.63 1689.53 L3069.23 1706.74 L3076.65 1724.29 L3084.08 1742.34 L3091.67 1760.91 L3099.09 1779.81 L3106.69 1799.04 L3114.11 1818.79 L3121.54 1830.77 L3129.13 1841.57 L3136.56 1852.54 L3144.15 1864.01 L3151.58 1875.83 L3159.00 1887.81 L3166.59 1900.29 L3174.02 1913.12 L3181.61 1926.28 L3189.04 1939.61 L3196.46 1953.45 L3204.06 1967.63 L3211.48 1982.14 L3218.91 1996.99 L3226.50 2012.18 L3233.93 2027.70 L3241.52 2043.56 L3248.94 2059.76 L3256.37 2076.30 L3263.96 2093.18 L3271.39 2110.39 L3278.98 2127.94 L3286.41 2145.82 L3293.83 2164.05 L3301.43 2182.78 L3308.85 2201.68 L3316.44 2220.92 L3323.87 2240.66" stroke-linejoin="round" style="fill:none;stroke:#D41159;stroke-width:9.72"/>
	<line x1="412.59" y1="2766.66" x2="412.59" y2="113.40" style="stroke:#000000;stroke-width:6.48"/>
	<line x1="412.59" y1="2695.28" x2="367.54" y2="2695.28" style="stroke:#000000;stroke-width:6.48"/>
	<text x="345.09" y="2734.71" style="font-family:'Helvetica';font-size:112.56px;fill:#000000" text-anchor="end">4</text>
	<line x1="412.59" y1="2193.24" x2="367.54" y2="2193.24" style="stroke:#000000;stroke-width:6.48"/>
	<text x="345.09" y="2232.68" style="font-family:'Helvetica';font-size:112.56px;fill:#000000" text-anchor="end">6</text>
	<line x1="412.59" y1="1691.04" x2="367.54" y2="1691.04" style="stroke:#000000;stroke-width:6.48"/>
	<text x="345.09" y="1730.48" style="font-family:'Helvetica';font-size:112.56px;fill:#000000" text-anchor="end">8</text>
	<line x1="412.59" y1="1189.01" x2="367.54" y2="1189.01" style="stroke:#000000;stroke-width:6.48"/>
	<text x="345.09" y="1228.45" style="font-family:'Helvetica';font-size:112.56px;fill:#000000" text-anchor="end">10</text>
	<line x1="412.59" y1="686.81" x2="367.54" y2="686.81" style="stroke:#000000;stroke-width:6.48"/>
	<text x="345.09" y="726.25" style="font-family:'Helvetica';font-size:112.56px;fill:#000000" text-anchor="end">12</text>
	<line x1="412.59" y1="184.61" x2="367.54" y2="184.61" style="stroke:#000000;stroke-width:6.48"/>
	<text x="345.09" y="224.05" style="font-family:'Helvetica';font-size:112.56px;fill:#000000" text-anchor="end">14</text>
	<line x1="412.59" y1="2766.66" x2="4364.72" y2="2766.66" style="stroke:#000000;stroke-width:6.48"/>
	<line x1="483.81" y1="2766.66" x2="483.81" y2="2811.54" style="stroke:#000000;stroke-width:6.48"/>
	<text x="483.81" y="2912.86" style="font-family:'Helvetica';font-size:112.56px;fill:#000000" text-anchor="middle">.3</text>
	<line x1="1753.65" y1="2766.66" x2="1753.65" y2="2811.54" style="stroke:#000000;stroke-width:6.48"/>
	<text x="1753.65" y="2912.86" style="font-family:'Helvetica';font-size:112.56px;fill:#000000" text-anchor="middle">.35</text>
	<line x1="3023.49" y1="2766.66" x2="3023.49" y2="2811.54" style="stroke:#000000;stroke-width:6.48"/>
	<text x="3023.49" y="2912.86" style="font-family:'Helvetica';font-size:112.56px;fill:#000000" text-anchor="middle">.4</text>
	<line x1="4293.34" y1="2766.66" x2="4293.34" y2="2811.54" style="stroke:#000000;stroke-width:6.48"/>
	<text x="4293.34" y="2912.86" style="font-family:'Helvetica';font-size:112.56px;fill:#000000" text-anchor="middle">.45</text>
	<text x="2388.66" y="3070.31" style="font-family:'Helvetica';font-size:112.56px;fill:#000000" text-anchor="middle">x</text>
	<rect x="4403.53" y="1256.34" width="844.26" height="367.20" style="fill:#FFFFFF"/>
	<rect x="4406.77" y="1259.58" width="837.78" height="360.72" style="fill:none;stroke:#FFFFFF;stroke-width:6.48"/>
	<line x1="4452.13" y1="1361.31" x2="4711.33" y2="1361.31" style="stroke:#1A85FF;stroke-width:9.72"/>
	<line x1="4452.13" y1="1518.75" x2="4711.33" y2="1518.75" style="stroke:#D41159;stroke-width:9.72"/>
	<text x="4778.83" y="1400.74" style="font-family:'Helvetica';font-size:112.56px;fill:#000000">Logistic</text>
	<text x="4778.83" y="1558.19" style="font-family:'Helvetica';font-size:112.56px;fill:#000000">Poisson</text>
</svg>
