<?xml version="1.0" encoding="UTF-8" standalone="no"?>
<!-- This is a Stata 18.0 generated SVG file (http://www.stata.com) -->

<svg version="1.1" width="7.500in" height="4.500in" viewBox="0 0 5400 3240" xmlns="http://www.w3.org/2000/svg" xmlns:xlink="http://www.w3.org/1999/xlink">
	<desc>Stata Graph - Graph</desc>
	<rect x="0" y="0" width="5400" height="3240" style="fill:#FFFFFF;stroke:none"/>
	<rect x="0.00" y="0.00" width="5400.00" height="3240.00" style="fill:#FFFFFF"/>
	<rect x="3.24" y="3.24" width="5393.52" height="3233.52" style="fill:none;stroke:#FFFFFF;stroke-width:6.48"/>
	<rect x="412.59" y="113.40" width="3952.13" height="2653.26" style="fill:#FFFFFF"/>
	<rect x="415.83" y="116.64" width="3945.65" height="2646.78" style="fill:none;stroke:#FFFFFF;stroke-width:6.48"/>
	<line x1="412.59" y1="2695.28" x2="477.39" y2="2695.28" style="stroke:#F0F0F0;stroke-width:9.72"/>
	<line x1="509.79" y1="2695.28" x2="574.59" y2="2695.28" style="stroke:#F0F0F0;stroke-width:9.72"/>
	<line x1="606.99" y1="2695.28" x2="671.79" y2="2695.28" style="stroke:#F0F0F0;stroke-width:9.72"/>
	<line x1="704.19" y1="2695.28" x2="768.99" y2="2695.28" style="stroke:#F0F0F0;stroke-width:9.72"/>
	<line x1="801.39" y1="2695.28" x2="866.19" y2="2695.28" style="stroke:#F0F0F0;stroke-width:9.72"/>
	<line x1="898.59" y1="2695.28" x2="963.39" y2="2695.28" style="stroke:#F0F0F0;stroke-width:9.72"/>
	<line x1="995.79" y1="2695.28" x2="1060.59" y2="2695.28" style="stroke:#F0F0F0;stroke-width:9.72"/>
	<line x1="1092.99" y1="2695.28" x2="1157.79" y2="2695.28" style="stroke:#F0F0F0;stroke-width:9.72"/>
	<line x1="1190.19" y1="2695.28" x2="1254.99" y2="2695.28" style="stroke:#F0F0F0;stroke-width:9.72"/>
	<line x1="1287.39" y1="2695.28" x2="1352.19" y2="2695.28" style="stroke:#F0F0F0;stroke-width:9.72"/>
	<line x1="1384.59" y1="2695.28" x2="1449.39" y2="2695.28" style="stroke:#F0F0F0;stroke-width:9.72"/>
	<line x1="1481.79" y1="2695.28" x2="1546.59" y2="2695.28" style="stroke:#F0F0F0;stroke-width:9.72"/>
	<line x1="1578.99" y1="2695.28" x2="1643.79" y2="2695.28" style="stroke:#F0F0F0;stroke-width:9.72"/>
	<line x1="1676.19" y1="2695.28" x2="1740.99" y2="2695.28" style="stroke:#F0F0F0;stroke-width:9.72"/>
	<line x1="1773.39" y1="2695.28" x2="1838.19" y2="2695.28" style="stroke:#F0F0F0;stroke-width:9.72"/>
	<line x1="1870.59" y1="2695.28" x2="1935.39" y2="2695.28" style="stroke:#F0F0F0;stroke-width:9.72"/>
	<line x1="1967.79" y1="2695.28" x2="2032.59" y2="2695.28" style="stroke:#F0F0F0;stroke-width:9.72"/>
	<line x1="2064.99" y1="2695.28" x2="2129.79" y2="2695.28" style="stroke:#F0F0F0;stroke-width:9.72"/>
	<line x1="2162.19" y1="2695.28" x2="2226.99" y2="2695.28" style="stroke:#F0F0F0;stroke-width:9.72"/>
	<line x1="2259.39" y1="2695.28" x2="2324.19" y2="2695.28" style="stroke:#F0F0F0;stroke-width:9.72"/>
	<line x1="2356.59" y1="2695.28" x2="2421.39" y2="2695.28" style="stroke:#F0F0F0;stroke-width:9.72"/>
	<line x1="2453.79" y1="2695.28" x2="2518.59" y2="2695.28" style="stroke:#F0F0F0;stroke-width:9.72"/>
	<line x1="2550.99" y1="2695.28" x2="2615.79" y2="2695.28" style="stroke:#F0F0F0;stroke-width:9.72"/>
	<line x1="2648.19" y1="2695.28" x2="2712.99" y2="2695.28" style="stroke:#F0F0F0;stroke-width:9.72"/>
	<line x1="2745.39" y1="2695.28" x2="2810.19" y2="2695.28" style="stroke:#F0F0F0;stroke-width:9.72"/>
	<line x1="2842.59" y1="2695.28" x2="2907.39" y2="2695.28" style="stroke:#F0F0F0;stroke-width:9.72"/>
	<line x1="2939.79" y1="2695.28" x2="3004.59" y2="2695.28" style="stroke:#F0F0F0;stroke-width:9.72"/>
	<line x1="3036.99" y1="2695.28" x2="3101.79" y2="2695.28" style="stroke:#F0F0F0;stroke-width:9.72"/>
	<line x1="3134.19" y1="2695.28" x2="3198.99" y2="2695.28" style="stroke:#F0F0F0;stroke-width:9.72"/>
	<line x1="3231.39" y1="2695.28" x2="3296.19" y2="2695.28" style="stroke:#F0F0F0;stroke-width:9.72"/>
	<line x1="3328.59" y1="2695.28" x2="3393.39" y2="2695.28" style="stroke:#F0F0F0;stroke-width:9.72"/>
	<line x1="3425.79" y1="2695.28" x2="3490.59" y2="2695.28" style="stroke:#F0F0F0;stroke-width:9.72"/>
	<line x1="3522.99" y1="2695.28" x2="3587.79" y2="2695.28" style="stroke:#F0F0F0;stroke-width:9.72"/>
	<line x1="3620.19" y1="2695.28" x2="3684.99" y2="2695.28" style="stroke:#F0F0F0;stroke-width:9.72"/>
	<line x1="3717.39" y1="2695.28" x2="3782.19" y2="2695.28" style="stroke:#F0F0F0;stroke-width:9.72"/>
	<line x1="3814.59" y1="2695.28" x2="3879.39" y2="2695.28" style="stroke:#F0F0F0;stroke-width:9.72"/>
	<line x1="3911.79" y1="2695.28" x2="3976.59" y2="2695.28" style="stroke:#F0F0F0;stroke-width:9.72"/>
	<line x1="4008.99" y1="2695.28" x2="4073.79" y2="2695.28" style="stroke:#F0F0F0;stroke-width:9.72"/>
	<line x1="4106.19" y1="2695.28" x2="4170.99" y2="2695.28" style="stroke:#F0F0F0;stroke-width:9.72"/>
	<line x1="4203.39" y1="2695.28" x2="4268.19" y2="2695.28" style="stroke:#F0F0F0;stroke-width:9.72"/>
	<line x1="4300.59" y1="2695.28" x2="4364.72" y2="2695.28" style="stroke:#F0F0F0;stroke-width:9.72"/>
	<line x1="412.59" y1="2193.24" x2="477.39" y2="2193.24" style="stroke:#F0F0F0;stroke-width:9.72"/>
	<line x1="509.79" y1="2193.24" x2="574.59" y2="2193.24" style="stroke:#F0F0F0;stroke-width:9.72"/>
	<line x1="606.99" y1="2193.24" x2="671.79" y2="2193.24" style="stroke:#F0F0F0;stroke-width:9.72"/>
	<line x1="704.19" y1="2193.24" x2="768.99" y2="2193.24" style="stroke:#F0F0F0;stroke-width:9.72"/>
	<line x1="801.39" y1="2193.24" x2="866.19" y2="2193.24" style="stroke:#F0F0F0;stroke-width:9.72"/>
	<line x1="898.59" y1="2193.24" x2="963.39" y2="2193.24" style="stroke:#F0F0F0;stroke-width:9.72"/>
	<line x1="995.79" y1="2193.24" x2="1060.59" y2="2193.24" style="stroke:#F0F0F0;stroke-width:9.72"/>
	<line x1="1092.99" y1="2193.24" x2="1157.79" y2="2193.24" style="stroke:#F0F0F0;stroke-width:9.72"/>
	<line x1="1190.19" y1="2193.24" x2="1254.99" y2="2193.24" style="stroke:#F0F0F0;stroke-width:9.72"/>
	<line x1="1287.39" y1="2193.24" x2="1352.19" y2="2193.24" style="stroke:#F0F0F0;stroke-width:9.72"/>
	<line x1="1384.59" y1="2193.24" x2="1449.39" y2="2193.24" style="stroke:#F0F0F0;stroke-width:9.72"/>
	<line x1="1481.79" y1="2193.24" x2="1546.59" y2="2193.24" style="stroke:#F0F0F0;stroke-width:9.72"/>
	<line x1="1578.99" y1="2193.24" x2="1643.79" y2="2193.24" style="stroke:#F0F0F0;stroke-width:9.72"/>
	<line x1="1676.19" y1="2193.24" x2="1740.99" y2="2193.24" style="stroke:#F0F0F0;stroke-width:9.72"/>
	<line x1="1773.39" y1="2193.24" x2="1838.19" y2="2193.24" style="stroke:#F0F0F0;stroke-width:9.72"/>
	<line x1="1870.59" y1="2193.24" x2="1935.39" y2="2193.24" style="stroke:#F0F0F0;stroke-width:9.72"/>
	<line x1="1967.79" y1="2193.24" x2="2032.59" y2="2193.24" style="stroke:#F0F0F0;stroke-width:9.72"/>
	<line x1="2064.99" y1="2193.24" x2="2129.79" y2="2193.24" style="stroke:#F0F0F0;stroke-width:9.72"/>
	<line x1="2162.19" y1="2193.24" x2="2226.99" y2="2193.24" style="stroke:#F0F0F0;stroke-width:9.72"/>
	<line x1="2259.39" y1="2193.24" x2="2324.19" y2="2193.24" style="stroke:#F0F0F0;stroke-width:9.72"/>
	<line x1="2356.59" y1="2193.24" x2="2421.39" y2="2193.24" style="stroke:#F0F0F0;stroke-width:9.72"/>
	<line x1="2453.79" y1="2193.24" x2="2518.59" y2="2193.24" style="stroke:#F0F0F0;stroke-width:9.72"/>
	<line x1="2550.99" y1="2193.24" x2="2615.79" y2="2193.24" style="stroke:#F0F0F0;stroke-width:9.72"/>
	<line x1="2648.19" y1="2193.24" x2="2712.99" y2="2193.24" style="stroke:#F0F0F0;stroke-width:9.72"/>
	<line x1="2745.39" y1="2193.24" x2="2810.19" y2="2193.24" style="stroke:#F0F0F0;stroke-width:9.72"/>
	<line x1="2842.59" y1="2193.24" x2="2907.39" y2="2193.24" style="stroke:#F0F0F0;stroke-width:9.72"/>
	<line x1="2939.79" y1="2193.24" x2="3004.59" y2="2193.24" style="stroke:#F0F0F0;stroke-width:9.72"/>
	<line x1="3036.99" y1="2193.24" x2="3101.79" y2="2193.24" style="stroke:#F0F0F0;stroke-width:9.72"/>
	<line x1="3134.19" y1="2193.24" x2="3198.99" y2="2193.24" style="stroke:#F0F0F0;stroke-width:9.72"/>
	<line x1="3231.39" y1="2193.24" x2="3296.19" y2="2193.24" style="stroke:#F0F0F0;stroke-width:9.72"/>
	<line x1="3328.59" y1="2193.24" x2="3393.39" y2="2193.24" style="stroke:#F0F0F0;stroke-width:9.72"/>
	<line x1="3425.79" y1="2193.24" x2="3490.59" y2="2193.24" style="stroke:#F0F0F0;stroke-width:9.72"/>
	<line x1="3522.99" y1="2193.24" x2="3587.79" y2="2193.24" style="stroke:#F0F0F0;stroke-width:9.72"/>
	<line x1="3620.19" y1="2193.24" x2="3684.99" y2="2193.24" style="stroke:#F0F0F0;stroke-width:9.72"/>
	<line x1="3717.39" y1="2193.24" x2="3782.19" y2="2193.24" style="stroke:#F0F0F0;stroke-width:9.72"/>
	<line x1="3814.59" y1="2193.24" x2="3879.39" y2="2193.24" style="stroke:#F0F0F0;stroke-width:9.72"/>
	<line x1="3911.79" y1="2193.24" x2="3976.59" y2="2193.24" style="stroke:#F0F0F0;stroke-width:9.72"/>
	<line x1="4008.99" y1="2193.24" x2="4073.79" y2="2193.24" style="stroke:#F0F0F0;stroke-width:9.72"/>
	<line x1="4106.19" y1="2193.24" x2="4170.99" y2="2193.24" style="stroke:#F0F0F0;stroke-width:9.72"/>
	<line x1="4203.39" y1="2193.24" x2="4268.19" y2="2193.24" style="stroke:#F0F0F0;stroke-width:9.72"/>
	<line x1="4300.59" y1="2193.24" x2="4364.72" y2="2193.24" style="stroke:#F0F0F0;stroke-width:9.72"/>
	<line x1="412.59" y1="1691.04" x2="477.39" y2="1691.04" style="stroke:#F0F0F0;stroke-width:9.72"/>
	<line x1="509.79" y1="1691.04" x2="574.59" y2="1691.04" style="stroke:#F0F0F0;stroke-width:9.72"/>
	<line x1="606.99" y1="1691.04" x2="671.79" y2="1691.04" style="stroke:#F0F0F0;stroke-width:9.72"/>
	<line x1="704.19" y1="1691.04" x2="768.99" y2="1691.04" style="stroke:#F0F0F0;stroke-width:9.72"/>
	<line x1="801.39" y1="1691.04" x2="866.19" y2="1691.04" style="stroke:#F0F0F0;stroke-width:9.72"/>
	<line x1="898.59" y1="1691.04" x2="963.39" y2="1691.04" style="stroke:#F0F0F0;stroke-width:9.72"/>
	<line x1="995.79" y1="1691.04" x2="1060.59" y2="1691.04" style="stroke:#F0F0F0;stroke-width:9.72"/>
	<line x1="1092.99" y1="1691.04" x2="1157.79" y2="1691.04" style="stroke:#F0F0F0;stroke-width:9.72"/>
	<line x1="1190.19" y1="1691.04" x2="1254.99" y2="1691.04" style="stroke:#F0F0F0;stroke-width:9.72"/>
	<line x1="1287.39" y1="1691.04" x2="1352.19" y2="1691.04" style="stroke:#F0F0F0;stroke-width:9.72"/>
	<line x1="1384.59" y1="1691.04" x2="1449.39" y2="1691.04" style="stroke:#F0F0F0;stroke-width:9.72"/>
	<line x1="1481.79" y1="1691.04" x2="1546.59" y2="1691.04" style="stroke:#F0F0F0;stroke-width:9.72"/>
	<line x1="1578.99" y1="1691.04" x2="1643.79" y2="1691.04" style="stroke:#F0F0F0;stroke-width:9.72"/>
	<line x1="1676.19" y1="1691.04" x2="1740.99" y2="1691.04" style="stroke:#F0F0F0;stroke-width:9.72"/>
	<line x1="1773.39" y1="1691.04" x2="1838.19" y2="1691.04" style="stroke:#F0F0F0;stroke-width:9.72"/>
	<line x1="1870.59" y1="1691.04" x2="1935.39" y2="1691.04" style="stroke:#F0F0F0;stroke-width:9.72"/>
	<line x1="1967.79" y1="1691.04" x2="2032.59" y2="1691.04" style="stroke:#F0F0F0;stroke-width:9.72"/>
	<line x1="2064.99" y1="1691.04" x2="2129.79" y2="1691.04" style="stroke:#F0F0F0;stroke-width:9.72"/>
	<line x1="2162.19" y1="1691.04" x2="2226.99" y2="1691.04" style="stroke:#F0F0F0;stroke-width:9.72"/>
	<line x1="2259.39" y1="1691.04" x2="2324.19" y2="1691.04" style="stroke:#F0F0F0;stroke-width:9.72"/>
	<line x1="2356.59" y1="1691.04" x2="2421.39" y2="1691.04" style="stroke:#F0F0F0;stroke-width:9.72"/>
	<line x1="2453.79" y1="1691.04" x2="2518.59" y2="1691.04" style="stroke:#F0F0F0;stroke-width:9.72"/>
	<line x1="2550.99" y1="1691.04" x2="2615.79" y2="1691.04" style="stroke:#F0F0F0;stroke-width:9.72"/>
	<line x1="2648.19" y1="1691.04" x2="2712.99" y2="1691.04" style="stroke:#F0F0F0;stroke-width:9.72"/>
	<line x1="2745.39" y1="1691.04" x2="2810.19" y2="1691.04" style="stroke:#F0F0F0;stroke-width:9.72"/>
	<line x1="2842.59" y1="1691.04" x2="2907.39" y2="1691.04" style="stroke:#F0F0F0;stroke-width:9.72"/>
	<line x1="2939.79" y1="1691.04" x2="3004.59" y2="1691.04" style="stroke:#F0F0F0;stroke-width:9.72"/>
	<line x1="3036.99" y1="1691.04" x2="3101.79" y2="1691.04" style="stroke:#F0F0F0;stroke-width:9.72"/>
	<line x1="3134.19" y1="1691.04" x2="3198.99" y2="1691.04" style="stroke:#F0F0F0;stroke-width:9.72"/>
	<line x1="3231.39" y1="1691.04" x2="3296.19" y2="1691.04" style="stroke:#F0F0F0;stroke-width:9.72"/>
	<line x1="3328.59" y1="1691.04" x2="3393.39" y2="1691.04" style="stroke:#F0F0F0;stroke-width:9.72"/>
	<line x1="3425.79" y1="1691.04" x2="3490.59" y2="1691.04" style="stroke:#F0F0F0;stroke-width:9.72"/>
	<line x1="3522.99" y1="1691.04" x2="3587.79" y2="1691.04" style="stroke:#F0F0F0;stroke-width:9.72"/>
	<line x1="3620.19" y1="1691.04" x2="3684.99" y2="1691.04" style="stroke:#F0F0F0;stroke-width:9.72"/>
	<line x1="3717.39" y1="1691.04" x2="3782.19" y2="1691.04" style="stroke:#F0F0F0;stroke-width:9.72"/>
	<line x1="3814.59" y1="1691.04" x2="3879.39" y2="1691.04" style="stroke:#F0F0F0;stroke-width:9.72"/>
	<line x1="3911.79" y1="1691.04" x2="3976.59" y2="1691.04" style="stroke:#F0F0F0;stroke-width:9.72"/>
	<line x1="4008.99" y1="1691.04" x2="4073.79" y2="1691.04" style="stroke:#F0F0F0;stroke-width:9.72"/>
	<line x1="4106.19" y1="1691.04" x2="4170.99" y2="1691.04" style="stroke:#F0F0F0;stroke-width:9.72"/>
	<line x1="4203.39" y1="1691.04" x2="4268.19" y2="1691.04" style="stroke:#F0F0F0;stroke-width:9.72"/>
	<line x1="4300.59" y1="1691.04" x2="4364.72" y2="1691.04" style="stroke:#F0F0F0;stroke-width:9.72"/>
	<line x1="412.59" y1="1189.01" x2="477.39" y2="1189.01" style="stroke:#F0F0F0;stroke-width:9.72"/>
	<line x1="509.79" y1="1189.01" x2="574.59" y2="1189.01" style="stroke:#F0F0F0;stroke-width:9.72"/>
	<line x1="606.99" y1="1189.01" x2="671.79" y2="1189.01" style="stroke:#F0F0F0;stroke-width:9.72"/>
	<line x1="704.19" y1="1189.01" x2="768.99" y2="1189.01" style="stroke:#F0F0F0;stroke-width:9.72"/>
	<line x1="801.39" y1="1189.01" x2="866.19" y2="1189.01" style="stroke:#F0F0F0;stroke-width:9.72"/>
	<line x1="898.59" y1="1189.01" x2="963.39" y2="1189.01" style="stroke:#F0F0F0;stroke-width:9.72"/>
	<line x1="995.79" y1="1189.01" x2="1060.59" y2="1189.01" style="stroke:#F0F0F0;stroke-width:9.72"/>
	<line x1="1092.99" y1="1189.01" x2="1157.79" y2="1189.01" style="stroke:#F0F0F0;stroke-width:9.72"/>
	<line x1="1190.19" y1="1189.01" x2="1254.99" y2="1189.01" style="stroke:#F0F0F0;stroke-width:9.72"/>
	<line x1="1287.39" y1="1189.01" x2="1352.19" y2="1189.01" style="stroke:#F0F0F0;stroke-width:9.72"/>
	<line x1="1384.59" y1="1189.01" x2="1449.39" y2="1189.01" style="stroke:#F0F0F0;stroke-width:9.72"/>
	<line x1="1481.79" y1="1189.01" x2="1546.59" y2="1189.01" style="stroke:#F0F0F0;stroke-width:9.72"/>
	<line x1="1578.99" y1="1189.01" x2="1643.79" y2="1189.01" style="stroke:#F0F0F0;stroke-width:9.72"/>
	<line x1="1676.19" y1="1189.01" x2="1740.99" y2="1189.01" style="stroke:#F0F0F0;stroke-width:9.72"/>
	<line x1="1773.39" y1="1189.01" x2="1838.19" y2="1189.01" style="stroke:#F0F0F0;stroke-width:9.72"/>
	<line x1="1870.59" y1="1189.01" x2="1935.39" y2="1189.01" style="stroke:#F0F0F0;stroke-width:9.72"/>
	<line x1="1967.79" y1="1189.01" x2="2032.59" y2="1189.01" style="stroke:#F0F0F0;stroke-width:9.72"/>
	<line x1="2064.99" y1="1189.01" x2="2129.79" y2="1189.01" style="stroke:#F0F0F0;stroke-width:9.72"/>
	<line x1="2162.19" y1="1189.01" x2="2226.99" y2="1189.01" style="stroke:#F0F0F0;stroke-width:9.72"/>
	<line x1="2259.39" y1="1189.01" x2="2324.19" y2="1189.01" style="stroke:#F0F0F0;stroke-width:9.72"/>
	<line x1="2356.59" y1="1189.01" x2="2421.39" y2="1189.01" style="stroke:#F0F0F0;stroke-width:9.72"/>
	<line x1="2453.79" y1="1189.01" x2="2518.59" y2="1189.01" style="stroke:#F0F0F0;stroke-width:9.72"/>
	<line x1="2550.99" y1="1189.01" x2="2615.79" y2="1189.01" style="stroke:#F0F0F0;stroke-width:9.72"/>
	<line x1="2648.19" y1="1189.01" x2="2712.99" y2="1189.01" style="stroke:#F0F0F0;stroke-width:9.72"/>
	<line x1="2745.39" y1="1189.01" x2="2810.19" y2="1189.01" style="stroke:#F0F0F0;stroke-width:9.72"/>
	<line x1="2842.59" y1="1189.01" x2="2907.39" y2="1189.01" style="stroke:#F0F0F0;stroke-width:9.72"/>
	<line x1="2939.79" y1="1189.01" x2="3004.59" y2="1189.01" style="stroke:#F0F0F0;stroke-width:9.72"/>
	<line x1="3036.99" y1="1189.01" x2="3101.79" y2="1189.01" style="stroke:#F0F0F0;stroke-width:9.72"/>
	<line x1="3134.19" y1="1189.01" x2="3198.99" y2="1189.01" style="stroke:#F0F0F0;stroke-width:9.72"/>
	<line x1="3231.39" y1="1189.01" x2="3296.19" y2="1189.01" style="stroke:#F0F0F0;stroke-width:9.72"/>
	<line x1="3328.59" y1="1189.01" x2="3393.39" y2="1189.01" style="stroke:#F0F0F0;stroke-width:9.72"/>
	<line x1="3425.79" y1="1189.01" x2="3490.59" y2="1189.01" style="stroke:#F0F0F0;stroke-width:9.72"/>
	<line x1="3522.99" y1="1189.01" x2="3587.79" y2="1189.01" style="stroke:#F0F0F0;stroke-width:9.72"/>
	<line x1="3620.19" y1="1189.01" x2="3684.99" y2="1189.01" style="stroke:#F0F0F0;stroke-width:9.72"/>
	<line x1="3717.39" y1="1189.01" x2="3782.19" y2="1189.01" style="stroke:#F0F0F0;stroke-width:9.72"/>
	<line x1="3814.59" y1="1189.01" x2="3879.39" y2="1189.01" style="stroke:#F0F0F0;stroke-width:9.72"/>
	<line x1="3911.79" y1="1189.01" x2="3976.59" y2="1189.01" style="stroke:#F0F0F0;stroke-width:9.72"/>
	<line x1="4008.99" y1="1189.01" x2="4073.79" y2="1189.01" style="stroke:#F0F0F0;stroke-width:9.72"/>
	<line x1="4106.19" y1="1189.01" x2="4170.99" y2="1189.01" style="stroke:#F0F0F0;stroke-width:9.72"/>
	<line x1="4203.39" y1="1189.01" x2="4268.19" y2="1189.01" style="stroke:#F0F0F0;stroke-width:9.72"/>
	<line x1="4300.59" y1="1189.01" x2="4364.72" y2="1189.01" style="stroke:#F0F0F0;stroke-width:9.72"/>
	<line x1="412.59" y1="686.81" x2="477.39" y2="686.81" style="stroke:#F0F0F0;stroke-width:9.72"/>
	<line x1="509.79" y1="686.81" x2="574.59" y2="686.81" style="stroke:#F0F0F0;stroke-width:9.72"/>
	<line x1="606.99" y1="686.81" x2="671.79" y2="686.81" style="stroke:#F0F0F0;stroke-width:9.72"/>
	<line x1="704.19" y1="686.81" x2="768.99" y2="686.81" style="stroke:#F0F0F0;stroke-width:9.72"/>
	<line x1="801.39" y1="686.81" x2="866.19" y2="686.81" style="stroke:#F0F0F0;stroke-width:9.72"/>
	<line x1="898.59" y1="686.81" x2="963.39" y2="686.81" style="stroke:#F0F0F0;stroke-width:9.72"/>
	<line x1="995.79" y1="686.81" x2="1060.59" y2="686.81" style="stroke:#F0F0F0;stroke-width:9.72"/>
	<line x1="1092.99" y1="686.81" x2="1157.79" y2="686.81" style="stroke:#F0F0F0;stroke-width:9.72"/>
	<line x1="1190.19" y1="686.81" x2="1254.99" y2="686.81" style="stroke:#F0F0F0;stroke-width:9.72"/>
	<line x1="1287.39" y1="686.81" x2="1352.19" y2="686.81" style="stroke:#F0F0F0;stroke-width:9.72"/>
	<line x1="1384.59" y1="686.81" x2="1449.39" y2="686.81" style="stroke:#F0F0F0;stroke-width:9.72"/>
	<line x1="1481.79" y1="686.81" x2="1546.59" y2="686.81" style="stroke:#F0F0F0;stroke-width:9.72"/>
	<line x1="1578.99" y1="686.81" x2="1643.79" y2="686.81" style="stroke:#F0F0F0;stroke-width:9.72"/>
	<line x1="1676.19" y1="686.81" x2="1740.99" y2="686.81" style="stroke:#F0F0F0;stroke-width:9.72"/>
	<line x1="1773.39" y1="686.81" x2="1838.19" y2="686.81" style="stroke:#F0F0F0;stroke-width:9.72"/>
	<line x1="1870.59" y1="686.81" x2="1935.39" y2="686.81" style="stroke:#F0F0F0;stroke-width:9.72"/>
	<line x1="1967.79" y1="686.81" x2="2032.59" y2="686.81" style="stroke:#F0F0F0;stroke-width:9.72"/>
	<line x1="2064.99" y1="686.81" x2="2129.79" y2="686.81" style="stroke:#F0F0F0;stroke-width:9.72"/>
	<line x1="2162.19" y1="686.81" x2="2226.99" y2="686.81" style="stroke:#F0F0F0;stroke-width:9.72"/>
	<line x1="2259.39" y1="686.81" x2="2324.19" y2="686.81" style="stroke:#F0F0F0;stroke-width:9.72"/>
	<line x1="2356.59" y1="686.81" x2="2421.39" y2="686.81" style="stroke:#F0F0F0;stroke-width:9.72"/>
	<line x1="2453.79" y1="686.81" x2="2518.59" y2="686.81" style="stroke:#F0F0F0;stroke-width:9.72"/>
	<line x1="2550.99" y1="686.81" x2="2615.79" y2="686.81" style="stroke:#F0F0F0;stroke-width:9.72"/>
	<line x1="2648.19" y1="686.81" x2="2712.99" y2="686.81" style="stroke:#F0F0F0;stroke-width:9.72"/>
	<line x1="2745.39" y1="686.81" x2="2810.19" y2="686.81" style="stroke:#F0F0F0;stroke-width:9.72"/>
	<line x1="2842.59" y1="686.81" x2="2907.39" y2="686.81" style="stroke:#F0F0F0;stroke-width:9.72"/>
	<line x1="2939.79" y1="686.81" x2="3004.59" y2="686.81" style="stroke:#F0F0F0;stroke-width:9.72"/>
	<line x1="3036.99" y1="686.81" x2="3101.79" y2="686.81" style="stroke:#F0F0F0;stroke-width:9.72"/>
	<line x1="3134.19" y1="686.81" x2="3198.99" y2="686.81" style="stroke:#F0F0F0;stroke-width:9.72"/>
	<line x1="3231.39" y1="686.81" x2="3296.19" y2="686.81" style="stroke:#F0F0F0;stroke-width:9.72"/>
	<line x1="3328.59" y1="686.81" x2="3393.39" y2="686.81" style="stroke:#F0F0F0;stroke-width:9.72"/>
	<line x1="3425.79" y1="686.81" x2="3490.59" y2="686.81" style="stroke:#F0F0F0;stroke-width:9.72"/>
	<line x1="3522.99" y1="686.81" x2="3587.79" y2="686.81" style="stroke:#F0F0F0;stroke-width:9.72"/>
	<line x1="3620.19" y1="686.81" x2="3684.99" y2="686.81" style="stroke:#F0F0F0;stroke-width:9.72"/>
	<line x1="3717.39" y1="686.81" x2="3782.19" y2="686.81" style="stroke:#F0F0F0;stroke-width:9.72"/>
	<line x1="3814.59" y1="686.81" x2="3879.39" y2="686.81" style="stroke:#F0F0F0;stroke-width:9.72"/>
	<line x1="3911.79" y1="686.81" x2="3976.59" y2="686.81" style="stroke:#F0F0F0;stroke-width:9.72"/>
	<line x1="4008.99" y1="686.81" x2="4073.79" y2="686.81" style="stroke:#F0F0F0;stroke-width:9.72"/>
	<line x1="4106.19" y1="686.81" x2="4170.99" y2="686.81" style="stroke:#F0F0F0;stroke-width:9.72"/>
	<line x1="4203.39" y1="686.81" x2="4268.19" y2="686.81" style="stroke:#F0F0F0;stroke-width:9.72"/>
	<line x1="4300.59" y1="686.81" x2="4364.72" y2="686.81" style="stroke:#F0F0F0;stroke-width:9.72"/>
	<line x1="412.59" y1="184.61" x2="477.39" y2="184.61" style="stroke:#F0F0F0;stroke-width:9.72"/>
	<line x1="509.79" y1="184.61" x2="574.59" y2="184.61" style="stroke:#F0F0F0;stroke-width:9.72"/>
	<line x1="606.99" y1="184.61" x2="671.79" y2="184.61" style="stroke:#F0F0F0;stroke-width:9.72"/>
	<line x1="704.19" y1="184.61" x2="768.99" y2="184.61" style="stroke:#F0F0F0;stroke-width:9.72"/>
	<line x1="801.39" y1="184.61" x2="866.19" y2="184.61" style="stroke:#F0F0F0;stroke-width:9.72"/>
	<line x1="898.59" y1="184.61" x2="963.39" y2="184.61" style="stroke:#F0F0F0;stroke-width:9.72"/>
	<line x1="995.79" y1="184.61" x2="1060.59" y2="184.61" style="stroke:#F0F0F0;stroke-width:9.72"/>
	<line x1="1092.99" y1="184.61" x2="1157.79" y2="184.61" style="stroke:#F0F0F0;stroke-width:9.72"/>
	<line x1="1190.19" y1="184.61" x2="1254.99" y2="184.61" style="stroke:#F0F0F0;stroke-width:9.72"/>
	<line x1="1287.39" y1="184.61" x2="1352.19" y2="184.61" style="stroke:#F0F0F0;stroke-width:9.72"/>
	<line x1="1384.59" y1="184.61" x2="1449.39" y2="184.61" style="stroke:#F0F0F0;stroke-width:9.72"/>
	<line x1="1481.79" y1="184.61" x2="1546.59" y2="184.61" style="stroke:#F0F0F0;stroke-width:9.72"/>
	<line x1="1578.99" y1="184.61" x2="1643.79" y2="184.61" style="stroke:#F0F0F0;stroke-width:9.72"/>
	<line x1="1676.19" y1="184.61" x2="1740.99" y2="184.61" style="stroke:#F0F0F0;stroke-width:9.72"/>
	<line x1="1773.39" y1="184.61" x2="1838.19" y2="184.61" style="stroke:#F0F0F0;stroke-width:9.72"/>
	<line x1="1870.59" y1="184.61" x2="1935.39" y2="184.61" style="stroke:#F0F0F0;stroke-width:9.72"/>
	<line x1="1967.79" y1="184.61" x2="2032.59" y2="184.61" style="stroke:#F0F0F0;stroke-width:9.72"/>
	<line x1="2064.99" y1="184.61" x2="2129.79" y2="184.61" style="stroke:#F0F0F0;stroke-width:9.72"/>
	<line x1="2162.19" y1="184.61" x2="2226.99" y2="184.61" style="stroke:#F0F0F0;stroke-width:9.72"/>
	<line x1="2259.39" y1="184.61" x2="2324.19" y2="184.61" style="stroke:#F0F0F0;stroke-width:9.72"/>
	<line x1="2356.59" y1="184.61" x2="2421.39" y2="184.61" style="stroke:#F0F0F0;stroke-width:9.72"/>
	<line x1="2453.79" y1="184.61" x2="2518.59" y2="184.61" style="stroke:#F0F0F0;stroke-width:9.72"/>
	<line x1="2550.99" y1="184.61" x2="2615.79" y2="184.61" style="stroke:#F0F0F0;stroke-width:9.72"/>
	<line x1="2648.19" y1="184.61" x2="2712.99" y2="184.61" style="stroke:#F0F0F0;stroke-width:9.72"/>
	<line x1="2745.39" y1="184.61" x2="2810.19" y2="184.61" style="stroke:#F0F0F0;stroke-width:9.72"/>
	<line x1="2842.59" y1="184.61" x2="2907.39" y2="184.61" style="stroke:#F0F0F0;stroke-width:9.72"/>
	<line x1="2939.79" y1="184.61" x2="3004.59" y2="184.61" style="stroke:#F0F0F0;stroke-width:9.72"/>
	<line x1="3036.99" y1="184.61" x2="3101.79" y2="184.61" style="stroke:#F0F0F0;stroke-width:9.72"/>
	<line x1="3134.19" y1="184.61" x2="3198.99" y2="184.61" style="stroke:#F0F0F0;stroke-width:9.72"/>
	<line x1="3231.39" y1="184.61" x2="3296.19" y2="184.61" style="stroke:#F0F0F0;stroke-width:9.72"/>
	<line x1="3328.59" y1="184.61" x2="3393.39" y2="184.61" style="stroke:#F0F0F0;stroke-width:9.72"/>
	<line x1="3425.79" y1="184.61" x2="3490.59" y2="184.61" style="stroke:#F0F0F0;stroke-width:9.72"/>
	<line x1="3522.99" y1="184.61" x2="3587.79" y2="184.61" style="stroke:#F0F0F0;stroke-width:9.72"/>
	<line x1="3620.19" y1="184.61" x2="3684.99" y2="184.61" style="stroke:#F0F0F0;stroke-width:9.72"/>
	<line x1="3717.39" y1="184.61" x2="3782.19" y2="184.61" style="stroke:#F0F0F0;stroke-width:9.72"/>
	<line x1="3814.59" y1="184.61" x2="3879.39" y2="184.61" style="stroke:#F0F0F0;stroke-width:9.72"/>
	<line x1="3911.79" y1="184.61" x2="3976.59" y2="184.61" style="stroke:#F0F0F0;stroke-width:9.72"/>
	<line x1="4008.99" y1="184.61" x2="4073.79" y2="184.61" style="stroke:#F0F0F0;stroke-width:9.72"/>
	<line x1="4106.19" y1="184.61" x2="4170.99" y2="184.61" style="stroke:#F0F0F0;stroke-width:9.72"/>
	<line x1="4203.39" y1="184.61" x2="4268.19" y2="184.61" style="stroke:#F0F0F0;stroke-width:9.72"/>
	<line x1="4300.59" y1="184.61" x2="4364.72" y2="184.61" style="stroke:#F0F0F0;stroke-width:9.72"/>
	<line x1="483.81" y1="2766.66" x2="483.81" y2="2701.86" style="stroke:#F0F0F0;stroke-width:9.72"/>
	<line x1="483.81" y1="2669.46" x2="483.81" y2="2604.66" style="stroke:#F0F0F0;stroke-width:9.72"/>
	<line x1="483.81" y1="2572.26" x2="483.81" y2="2507.46" style="stroke:#F0F0F0;stroke-width:9.72"/>
	<line x1="483.81" y1="2475.06" x2="483.81" y2="2410.26" style="stroke:#F0F0F0;stroke-width:9.72"/>
	<line x1="483.81" y1="2377.86" x2="483.81" y2="2313.06" style="stroke:#F0F0F0;stroke-width:9.72"/>
	<line x1="483.81" y1="2280.66" x2="483.81" y2="2215.86" style="stroke:#F0F0F0;stroke-width:9.72"/>
	<line x1="483.81" y1="2183.46" x2="483.81" y2="2118.66" style="stroke:#F0F0F0;stroke-width:9.72"/>
	<line x1="483.81" y1="2086.26" x2="483.81" y2="2021.46" style="stroke:#F0F0F0;stroke-width:9.72"/>
	<line x1="483.81" y1="1989.06" x2="483.81" y2="1924.26" style="stroke:#F0F0F0;stroke-width:9.72"/>
	<line x1="483.81" y1="1891.86" x2="483.81" y2="1827.06" style="stroke:#F0F0F0;stroke-width:9.72"/>
	<line x1="483.81" y1="1794.66" x2="483.81" y2="1729.86" style="stroke:#F0F0F0;stroke-width:9.72"/>
	<line x1="483.81" y1="1697.46" x2="483.81" y2="1632.66" style="stroke:#F0F0F0;stroke-width:9.72"/>
	<line x1="483.81" y1="1600.26" x2="483.81" y2="1535.46" style="stroke:#F0F0F0;stroke-width:9.72"/>
	<line x1="483.81" y1="1503.06" x2="483.81" y2="1438.26" style="stroke:#F0F0F0;stroke-width:9.72"/>
	<line x1="483.81" y1="1405.86" x2="483.81" y2="1341.06" style="stroke:#F0F0F0;stroke-width:9.72"/>
	<line x1="483.81" y1="1308.66" x2="483.81" y2="1243.86" style="stroke:#F0F0F0;stroke-width:9.72"/>
	<line x1="483.81" y1="1211.46" x2="483.81" y2="1146.66" style="stroke:#F0F0F0;stroke-width:9.72"/>
	<line x1="483.81" y1="1114.26" x2="483.81" y2="1049.46" style="stroke:#F0F0F0;stroke-width:9.72"/>
	<line x1="483.81" y1="1017.06" x2="483.81" y2="952.26" style="stroke:#F0F0F0;stroke-width:9.72"/>
	<line x1="483.81" y1="919.86" x2="483.81" y2="855.06" style="stroke:#F0F0F0;stroke-width:9.72"/>
	<line x1="483.81" y1="822.66" x2="483.81" y2="757.86" style="stroke:#F0F0F0;stroke-width:9.72"/>
	<line x1="483.81" y1="725.46" x2="483.81" y2="660.66" style="stroke:#F0F0F0;stroke-width:9.72"/>
	<line x1="483.81" y1="628.26" x2="483.81" y2="563.46" style="stroke:#F0F0F0;stroke-width:9.72"/>
	<line x1="483.81" y1="531.06" x2="483.81" y2="466.26" style="stroke:#F0F0F0;stroke-width:9.72"/>
	<line x1="483.81" y1="433.86" x2="483.81" y2="369.06" style="stroke:#F0F0F0;stroke-width:9.72"/>
	<line x1="483.81" y1="336.66" x2="483.81" y2="271.86" style="stroke:#F0F0F0;stroke-width:9.72"/>
	<line x1="483.81" y1="239.46" x2="483.81" y2="174.66" style="stroke:#F0F0F0;stroke-width:9.72"/>
	<line x1="483.81" y1="142.26" x2="483.81" y2="113.40" style="stroke:#F0F0F0;stroke-width:9.72"/>
	<line x1="1436.23" y1="2766.66" x2="1436.23" y2="2701.86" style="stroke:#F0F0F0;stroke-width:9.72"/>
	<line x1="1436.23" y1="2669.46" x2="1436.23" y2="2604.66" style="stroke:#F0F0F0;stroke-width:9.72"/>
	<line x1="1436.23" y1="2572.26" x2="1436.23" y2="2507.46" style="stroke:#F0F0F0;stroke-width:9.72"/>
	<line x1="1436.23" y1="2475.06" x2="1436.23" y2="2410.26" style="stroke:#F0F0F0;stroke-width:9.72"/>
	<line x1="1436.23" y1="2377.86" x2="1436.23" y2="2313.06" style="stroke:#F0F0F0;stroke-width:9.72"/>
	<line x1="1436.23" y1="2280.66" x2="1436.23" y2="2215.86" style="stroke:#F0F0F0;stroke-width:9.72"/>
	<line x1="1436.23" y1="2183.46" x2="1436.23" y2="2118.66" style="stroke:#F0F0F0;stroke-width:9.72"/>
	<line x1="1436.23" y1="2086.26" x2="1436.23" y2="2021.46" style="stroke:#F0F0F0;stroke-width:9.72"/>
	<line x1="1436.23" y1="1989.06" x2="1436.23" y2="1924.26" style="stroke:#F0F0F0;stroke-width:9.72"/>
	<line x1="1436.23" y1="1891.86" x2="1436.23" y2="1827.06" style="stroke:#F0F0F0;stroke-width:9.72"/>
	<line x1="1436.23" y1="1794.66" x2="1436.23" y2="1729.86" style="stroke:#F0F0F0;stroke-width:9.72"/>
	<line x1="1436.23" y1="1697.46" x2="1436.23" y2="1632.66" style="stroke:#F0F0F0;stroke-width:9.72"/>
	<line x1="1436.23" y1="1600.26" x2="1436.23" y2="1535.46" style="stroke:#F0F0F0;stroke-width:9.72"/>
	<line x1="1436.23" y1="1503.06" x2="1436.23" y2="1438.26" style="stroke:#F0F0F0;stroke-width:9.72"/>
	<line x1="1436.23" y1="1405.86" x2="1436.23" y2="1341.06" style="stroke:#F0F0F0;stroke-width:9.72"/>
	<line x1="1436.23" y1="1308.66" x2="1436.23" y2="1243.86" style="stroke:#F0F0F0;stroke-width:9.72"/>
	<line x1="1436.23" y1="1211.46" x2="1436.23" y2="1146.66" style="stroke:#F0F0F0;stroke-width:9.72"/>
	<line x1="1436.23" y1="1114.26" x2="1436.23" y2="1049.46" style="stroke:#F0F0F0;stroke-width:9.72"/>
	<line x1="1436.23" y1="1017.06" x2="1436.23" y2="952.26" style="stroke:#F0F0F0;stroke-width:9.72"/>
	<line x1="1436.23" y1="919.86" x2="1436.23" y2="855.06" style="stroke:#F0F0F0;stroke-width:9.72"/>
	<line x1="1436.23" y1="822.66" x2="1436.23" y2="757.86" style="stroke:#F0F0F0;stroke-width:9.72"/>
	<line x1="1436.23" y1="725.46" x2="1436.23" y2="660.66" style="stroke:#F0F0F0;stroke-width:9.72"/>
	<line x1="1436.23" y1="628.26" x2="1436.23" y2="563.46" style="stroke:#F0F0F0;stroke-width:9.72"/>
	<line x1="1436.23" y1="531.06" x2="1436.23" y2="466.26" style="stroke:#F0F0F0;stroke-width:9.72"/>
	<line x1="1436.23" y1="433.86" x2="1436.23" y2="369.06" style="stroke:#F0F0F0;stroke-width:9.72"/>
	<line x1="1436.23" y1="336.66" x2="1436.23" y2="271.86" style="stroke:#F0F0F0;stroke-width:9.72"/>
	<line x1="1436.23" y1="239.46" x2="1436.23" y2="174.66" style="stroke:#F0F0F0;stroke-width:9.72"/>
	<line x1="1436.23" y1="142.26" x2="1436.23" y2="113.40" style="stroke:#F0F0F0;stroke-width:9.72"/>
	<line x1="2388.66" y1="2766.66" x2="2388.66" y2="2701.86" style="stroke:#F0F0F0;stroke-width:9.72"/>
	<line x1="2388.66" y1="2669.46" x2="2388.66" y2="2604.66" style="stroke:#F0F0F0;stroke-width:9.72"/>
	<line x1="2388.66" y1="2572.26" x2="2388.66" y2="2507.46" style="stroke:#F0F0F0;stroke-width:9.72"/>
	<line x1="2388.66" y1="2475.06" x2="2388.66" y2="2410.26" style="stroke:#F0F0F0;stroke-width:9.72"/>
	<line x1="2388.66" y1="2377.86" x2="2388.66" y2="2313.06" style="stroke:#F0F0F0;stroke-width:9.72"/>
	<line x1="2388.66" y1="2280.66" x2="2388.66" y2="2215.86" style="stroke:#F0F0F0;stroke-width:9.72"/>
	<line x1="2388.66" y1="2183.46" x2="2388.66" y2="2118.66" style="stroke:#F0F0F0;stroke-width:9.72"/>
	<line x1="2388.66" y1="2086.26" x2="2388.66" y2="2021.46" style="stroke:#F0F0F0;stroke-width:9.72"/>
	<line x1="2388.66" y1="1989.06" x2="2388.66" y2="1924.26" style="stroke:#F0F0F0;stroke-width:9.72"/>
	<line x1="2388.66" y1="1891.86" x2="2388.66" y2="1827.06" style="stroke:#F0F0F0;stroke-width:9.72"/>
	<line x1="2388.66" y1="1794.66" x2="2388.66" y2="1729.86" style="stroke:#F0F0F0;stroke-width:9.72"/>
	<line x1="2388.66" y1="1697.46" x2="2388.66" y2="1632.66" style="stroke:#F0F0F0;stroke-width:9.72"/>
	<line x1="2388.66" y1="1600.26" x2="2388.66" y2="1535.46" style="stroke:#F0F0F0;stroke-width:9.72"/>
	<line x1="2388.66" y1="1503.06" x2="2388.66" y2="1438.26" style="stroke:#F0F0F0;stroke-width:9.72"/>
	<line x1="2388.66" y1="1405.86" x2="2388.66" y2="1341.06" style="stroke:#F0F0F0;stroke-width:9.72"/>
	<line x1="2388.66" y1="1308.66" x2="2388.66" y2="1243.86" style="stroke:#F0F0F0;stroke-width:9.72"/>
	<line x1="2388.66" y1="1211.46" x2="2388.66" y2="1146.66" style="stroke:#F0F0F0;stroke-width:9.72"/>
	<line x1="2388.66" y1="1114.26" x2="2388.66" y2="1049.46" style="stroke:#F0F0F0;stroke-width:9.72"/>
	<line x1="2388.66" y1="1017.06" x2="2388.66" y2="952.26" style="stroke:#F0F0F0;stroke-width:9.72"/>
	<line x1="2388.66" y1="919.86" x2="2388.66" y2="855.06" style="stroke:#F0F0F0;stroke-width:9.72"/>
	<line x1="2388.66" y1="822.66" x2="2388.66" y2="757.86" style="stroke:#F0F0F0;stroke-width:9.72"/>
	<line x1="2388.66" y1="725.46" x2="2388.66" y2="660.66" style="stroke:#F0F0F0;stroke-width:9.72"/>
	<line x1="2388.66" y1="628.26" x2="2388.66" y2="563.46" style="stroke:#F0F0F0;stroke-width:9.72"/>
	<line x1="2388.66" y1="531.06" x2="2388.66" y2="466.26" style="stroke:#F0F0F0;stroke-width:9.72"/>
	<line x1="2388.66" y1="433.86" x2="2388.66" y2="369.06" style="stroke:#F0F0F0;stroke-width:9.72"/>
	<line x1="2388.66" y1="336.66" x2="2388.66" y2="271.86" style="stroke:#F0F0F0;stroke-width:9.72"/>
	<line x1="2388.66" y1="239.46" x2="2388.66" y2="174.66" style="stroke:#F0F0F0;stroke-width:9.72"/>
	<line x1="2388.66" y1="142.26" x2="2388.66" y2="113.40" style="stroke:#F0F0F0;stroke-width:9.72"/>
	<line x1="3341.08" y1="2766.66" x2="3341.08" y2="2701.86" style="stroke:#F0F0F0;stroke-width:9.72"/>
	<line x1="3341.08" y1="2669.46" x2="3341.08" y2="2604.66" style="stroke:#F0F0F0;stroke-width:9.72"/>
	<line x1="3341.08" y1="2572.26" x2="3341.08" y2="2507.46" style="stroke:#F0F0F0;stroke-width:9.72"/>
	<line x1="3341.08" y1="2475.06" x2="3341.08" y2="2410.26" style="stroke:#F0F0F0;stroke-width:9.72"/>
	<line x1="3341.08" y1="2377.86" x2="3341.08" y2="2313.06" style="stroke:#F0F0F0;stroke-width:9.72"/>
	<line x1="3341.08" y1="2280.66" x2="3341.08" y2="2215.86" style="stroke:#F0F0F0;stroke-width:9.72"/>
	<line x1="3341.08" y1="2183.46" x2="3341.08" y2="2118.66" style="stroke:#F0F0F0;stroke-width:9.72"/>
	<line x1="3341.08" y1="2086.26" x2="3341.08" y2="2021.46" style="stroke:#F0F0F0;stroke-width:9.72"/>
	<line x1="3341.08" y1="1989.06" x2="3341.08" y2="1924.26" style="stroke:#F0F0F0;stroke-width:9.72"/>
	<line x1="3341.08" y1="1891.86" x2="3341.08" y2="1827.06" style="stroke:#F0F0F0;stroke-width:9.72"/>
	<line x1="3341.08" y1="1794.66" x2="3341.08" y2="1729.86" style="stroke:#F0F0F0;stroke-width:9.72"/>
	<line x1="3341.08" y1="1697.46" x2="3341.08" y2="1632.66" style="stroke:#F0F0F0;stroke-width:9.72"/>
	<line x1="3341.08" y1="1600.26" x2="3341.08" y2="1535.46" style="stroke:#F0F0F0;stroke-width:9.72"/>
	<line x1="3341.08" y1="1503.06" x2="3341.08" y2="1438.26" style="stroke:#F0F0F0;stroke-width:9.72"/>
	<line x1="3341.08" y1="1405.86" x2="3341.08" y2="1341.06" style="stroke:#F0F0F0;stroke-width:9.72"/>
	<line x1="3341.08" y1="1308.66" x2="3341.08" y2="1243.86" style="stroke:#F0F0F0;stroke-width:9.72"/>
	<line x1="3341.08" y1="1211.46" x2="3341.08" y2="1146.66" style="stroke:#F0F0F0;stroke-width:9.72"/>
	<line x1="3341.08" y1="1114.26" x2="3341.08" y2="1049.46" style="stroke:#F0F0F0;stroke-width:9.72"/>
	<line x1="3341.08" y1="1017.06" x2="3341.08" y2="952.26" style="stroke:#F0F0F0;stroke-width:9.72"/>
	<line x1="3341.08" y1="919.86" x2="3341.08" y2="855.06" style="stroke:#F0F0F0;stroke-width:9.72"/>
	<line x1="3341.08" y1="822.66" x2="3341.08" y2="757.86" style="stroke:#F0F0F0;stroke-width:9.72"/>
	<line x1="3341.08" y1="725.46" x2="3341.08" y2="660.66" style="stroke:#F0F0F0;stroke-width:9.72"/>
	<line x1="3341.08" y1="628.26" x2="3341.08" y2="563.46" style="stroke:#F0F0F0;stroke-width:9.72"/>
	<line x1="3341.08" y1="531.06" x2="3341.08" y2="466.26" style="stroke:#F0F0F0;stroke-width:9.72"/>
	<line x1="3341.08" y1="433.86" x2="3341.08" y2="369.06" style="stroke:#F0F0F0;stroke-width:9.72"/>
	<line x1="3341.08" y1="336.66" x2="3341.08" y2="271.86" style="stroke:#F0F0F0;stroke-width:9.72"/>
	<line x1="3341.08" y1="239.46" x2="3341.08" y2="174.66" style="stroke:#F0F0F0;stroke-width:9.72"/>
	<line x1="3341.08" y1="142.26" x2="3341.08" y2="113.40" style="stroke:#F0F0F0;stroke-width:9.72"/>
	<line x1="4293.34" y1="2766.66" x2="4293.34" y2="2701.86" style="stroke:#F0F0F0;stroke-width:9.72"/>
	<line x1="4293.34" y1="2669.46" x2="4293.34" y2="2604.66" style="stroke:#F0F0F0;stroke-width:9.72"/>
	<line x1="4293.34" y1="2572.26" x2="4293.34" y2="2507.46" style="stroke:#F0F0F0;stroke-width:9.72"/>
	<line x1="4293.34" y1="2475.06" x2="4293.34" y2="2410.26" style="stroke:#F0F0F0;stroke-width:9.72"/>
	<line x1="4293.34" y1="2377.86" x2="4293.34" y2="2313.06" style="stroke:#F0F0F0;stroke-width:9.72"/>
	<line x1="4293.34" y1="2280.66" x2="4293.34" y2="2215.86" style="stroke:#F0F0F0;stroke-width:9.72"/>
	<line x1="4293.34" y1="2183.46" x2="4293.34" y2="2118.66" style="stroke:#F0F0F0;stroke-width:9.72"/>
	<line x1="4293.34" y1="2086.26" x2="4293.34" y2="2021.46" style="stroke:#F0F0F0;stroke-width:9.72"/>
	<line x1="4293.34" y1="1989.06" x2="4293.34" y2="1924.26" style="stroke:#F0F0F0;stroke-width:9.72"/>
	<line x1="4293.34" y1="1891.86" x2="4293.34" y2="1827.06" style="stroke:#F0F0F0;stroke-width:9.72"/>
	<line x1="4293.34" y1="1794.66" x2="4293.34" y2="1729.86" style="stroke:#F0F0F0;stroke-width:9.72"/>
	<line x1="4293.34" y1="1697.46" x2="4293.34" y2="1632.66" style="stroke:#F0F0F0;stroke-width:9.72"/>
	<line x1="4293.34" y1="1600.26" x2="4293.34" y2="1535.46" style="stroke:#F0F0F0;stroke-width:9.72"/>
	<line x1="4293.34" y1="1503.06" x2="4293.34" y2="1438.26" style="stroke:#F0F0F0;stroke-width:9.72"/>
	<line x1="4293.34" y1="1405.86" x2="4293.34" y2="1341.06" style="stroke:#F0F0F0;stroke-width:9.72"/>
	<line x1="4293.34" y1="1308.66" x2="4293.34" y2="1243.86" style="stroke:#F0F0F0;stroke-width:9.72"/>
	<line x1="4293.34" y1="1211.46" x2="4293.34" y2="1146.66" style="stroke:#F0F0F0;stroke-width:9.72"/>
	<line x1="4293.34" y1="1114.26" x2="4293.34" y2="1049.46" style="stroke:#F0F0F0;stroke-width:9.72"/>
	<line x1="4293.34" y1="1017.06" x2="4293.34" y2="952.26" style="stroke:#F0F0F0;stroke-width:9.72"/>
	<line x1="4293.34" y1="919.86" x2="4293.34" y2="855.06" style="stroke:#F0F0F0;stroke-width:9.72"/>
	<line x1="4293.34" y1="822.66" x2="4293.34" y2="757.86" style="stroke:#F0F0F0;stroke-width:9.72"/>
	<line x1="4293.34" y1="725.46" x2="4293.34" y2="660.66" style="stroke:#F0F0F0;stroke-width:9.72"/>
	<line x1="4293.34" y1="628.26" x2="4293.34" y2="563.46" style="stroke:#F0F0F0;stroke-width:9.72"/>
	<line x1="4293.34" y1="531.06" x2="4293.34" y2="466.26" style="stroke:#F0F0F0;stroke-width:9.72"/>
	<line x1="4293.34" y1="433.86" x2="4293.34" y2="369.06" style="stroke:#F0F0F0;stroke-width:9.72"/>
	<line x1="4293.34" y1="336.66" x2="4293.34" y2="271.86" style="stroke:#F0F0F0;stroke-width:9.72"/>
	<line x1="4293.34" y1="239.46" x2="4293.34" y2="174.66" style="stroke:#F0F0F0;stroke-width:9.72"/>
	<line x1="4293.34" y1="142.26" x2="4293.34" y2="113.40" style="stroke:#F0F0F0;stroke-width:9.72"/>
	<line x1="2388.66" y1="2766.66" x2="2388.66" y2="2701.86" style="stroke:#000000;stroke-width:9.72"/>
	<line x1="2388.66" y1="2669.46" x2="2388.66" y2="2604.66" style="stroke:#000000;stroke-width:9.72"/>
	<line x1="2388.66" y1="2572.26" x2="2388.66" y2="2507.46" style="stroke:#000000;stroke-width:9.72"/>
	<line x1="2388.66" y1="2475.06" x2="2388.66" y2="2410.26" style="stroke:#000000;stroke-width:9.72"/>
	<line x1="2388.66" y1="2377.86" x2="2388.66" y2="2313.06" style="stroke:#000000;stroke-width:9.72"/>
	<line x1="2388.66" y1="2280.66" x2="2388.66" y2="2215.86" style="stroke:#000000;stroke-width:9.72"/>
	<line x1="2388.66" y1="2183.46" x2="2388.66" y2="2118.66" style="stroke:#000000;stroke-width:9.72"/>
	<line x1="2388.66" y1="2086.26" x2="2388.66" y2="2021.46" style="stroke:#000000;stroke-width:9.72"/>
	<line x1="2388.66" y1="1989.06" x2="2388.66" y2="1924.26" style="stroke:#000000;stroke-width:9.72"/>
	<line x1="2388.66" y1="1891.86" x2="2388.66" y2="1827.06" style="stroke:#000000;stroke-width:9.72"/>
	<line x1="2388.66" y1="1794.66" x2="2388.66" y2="1729.86" style="stroke:#000000;stroke-width:9.72"/>
	<line x1="2388.66" y1="1697.46" x2="2388.66" y2="1632.66" style="stroke:#000000;stroke-width:9.72"/>
	<line x1="2388.66" y1="1600.26" x2="2388.66" y2="1535.46" style="stroke:#000000;stroke-width:9.72"/>
	<line x1="2388.66" y1="1503.06" x2="2388.66" y2="1438.26" style="stroke:#000000;stroke-width:9.72"/>
	<line x1="2388.66" y1="1405.86" x2="2388.66" y2="1341.06" style="stroke:#000000;stroke-width:9.72"/>
	<line x1="2388.66" y1="1308.66" x2="2388.66" y2="1243.86" style="stroke:#000000;stroke-width:9.72"/>
	<line x1="2388.66" y1="1211.46" x2="2388.66" y2="1146.66" style="stroke:#000000;stroke-width:9.72"/>
	<line x1="2388.66" y1="1114.26" x2="2388.66" y2="1049.46" style="stroke:#000000;stroke-width:9.72"/>
	<line x1="2388.66" y1="1017.06" x2="2388.66" y2="952.26" style="stroke:#000000;stroke-width:9.72"/>
	<line x1="2388.66" y1="919.86" x2="2388.66" y2="855.06" style="stroke:#000000;stroke-width:9.72"/>
	<line x1="2388.66" y1="822.66" x2="2388.66" y2="757.86" style="stroke:#000000;stroke-width:9.72"/>
	<line x1="2388.66" y1="725.46" x2="2388.66" y2="660.66" style="stroke:#000000;stroke-width:9.72"/>
	<line x1="2388.66" y1="628.26" x2="2388.66" y2="563.46" style="stroke:#000000;stroke-width:9.72"/>
	<line x1="2388.66" y1="531.06" x2="2388.66" y2="466.26" style="stroke:#000000;stroke-width:9.72"/>
	<line x1="2388.66" y1="433.86" x2="2388.66" y2="369.06" style="stroke:#000000;stroke-width:9.72"/>
	<line x1="2388.66" y1="336.66" x2="2388.66" y2="271.86" style="stroke:#000000;stroke-width:9.72"/>
	<line x1="2388.66" y1="239.46" x2="2388.66" y2="174.66" style="stroke:#000000;stroke-width:9.72"/>
	<line x1="2388.66" y1="142.26" x2="2388.66" y2="113.40" style="stroke:#000000;stroke-width:9.72"/>
	<path d=" M908.72 2683.46 L918.34 2682.28 L928.13 2681.27 L937.74 2679.58 L947.53 2678.06 L957.15 2676.38 L966.77 2674.52 L976.56 2672.66 L986.18 2671.14 L995.96 2669.63 L1005.58 2668.28 L1015.20 2667.09 L1024.99 2665.91 L1034.61 2665.07 L1044.39 2663.89 L1054.01 2662.71 L1063.63 2661.36 L1073.42 2659.16 L1083.04 2657.14 L1092.83 2655.28 L1102.44 2653.26 L1112.23 2651.23 L1121.85 2649.54 L1131.47 2648.19 L1141.26 2645.83 L1150.88 2643.30 L1160.66 2640.43 L1170.28 2637.39 L1179.90 2633.34 L1189.69 2629.29 L1199.31 2625.41 L1209.09 2621.36 L1218.71 2617.65 L1228.50 2613.43 L1238.12 2608.54 L1247.74 2603.64 L1257.53 2598.92 L1267.14 2593.52 L1276.93 2586.09 L1286.55 2577.15 L1296.17 2566.52 L1305.96 2555.04 L1315.58 2543.06 L1325.36 2530.41 L1334.98 2518.93 L1344.60 2507.63 L1354.39 2494.80 L1364.01 2481.13 L1373.79 2466.96 L1383.41 2452.61 L1393.20 2437.93 L1402.82 2424.77 L1412.44 2412.11 L1422.23 2400.47 L1431.84 2386.46 L1441.63 2372.29 L1451.25 2358.45 L1460.87 2345.46 L1470.66 2332.46 L1480.28 2320.14 L1490.06 2308.84 L1499.68 2297.87 L1509.47 2287.91 L1519.09 2278.13 L1528.71 2268.68 L1538.49 2260.57 L1548.11 2251.29 L1557.90 2242.01 L1567.52 2233.74 L1577.14 2226.15 L1586.93 2216.53 L1596.54 2204.04 L1606.33 2189.03 L1615.95 2174.34 L1625.57 2158.65 L1635.36 2143.13 L1644.98 2128.11 L1654.76 2112.41 L1664.38 2096.89 L1674.17 2080.69 L1683.79 2063.81 L1693.41 2045.59 L1703.19 2026.69 L1712.81 2007.96 L1722.60 1988.38 L1732.22 1965.09 L1741.84 1938.77 L1751.63 1907.89 L1761.24 1877.51 L1771.03 1848.15 L1780.65 1821.15 L1790.27 1794.99 L1800.06 1768.67 L1809.68 1740.32 L1819.46 1712.48 L1829.08 1685.64 L1838.87 1655.44 L1848.49 1623.71 L1858.11 1590.47 L1867.89 1557.73 L1877.51 1525.50 L1887.30 1489.89 L1896.92 1453.95 L1906.54 1420.03 L1916.33 1387.46 L1925.94 1354.22 L1935.73 1322.83 L1945.35 1292.79 L1955.14 1266.13 L1964.76 1241.83 L1974.38 1219.22 L1984.16 1200.99 L1993.78 1183.95 L2003.57 1167.41 L2013.19 1149.53 L2022.81 1134.51 L2032.59 1120.33 L2042.21 1105.99 L2052.00 1091.47 L2061.62 1075.95 L2071.24 1060.43 L2081.03 1043.38 L2090.64 1027.18 L2100.43 1010.47 L2110.05 993.26 L2119.84 976.22 L2129.46 958.50 L2139.07 942.47 L2148.86 925.76 L2158.48 910.24 L2168.27 893.36 L2177.89 877.67 L2187.51 861.81 L2197.29 839.36 L2206.91 816.75 L2216.70 796.16 L2226.32 776.42 L2236.11 757.18 L2245.73 740.81 L2255.34 726.81 L2265.13 718.03 L2274.75 712.29 L2284.54 704.19 L2294.16 694.57 L2303.78 679.89 L2313.56 663.19 L2323.18 651.88 L2332.97 638.89 L2342.59 625.89 L2352.21 614.59 L2361.99 606.15 L2371.61 599.23 L2381.40 593.32 L2391.02 587.93 L2400.81 585.22 L2410.43 583.88 L2420.04 581.85 L2429.83 581.51 L2439.45 584.21 L2449.24 587.76 L2458.86 587.25 L2468.48 587.42 L2478.26 590.46 L2487.88 596.53 L2497.67 606.15 L2507.29 615.77 L2516.91 626.23 L2526.69 637.71 L2536.31 648.68 L2546.10 661.67 L2555.72 676.52 L2565.51 693.22 L2575.13 711.28 L2584.74 733.05 L2594.53 756.51 L2604.15 781.48 L2613.94 807.97 L2623.56 835.65 L2633.18 864.84 L2642.96 893.53 L2652.58 922.39 L2662.37 952.43 L2671.99 982.97 L2681.78 1013.51 L2691.39 1042.71 L2701.01 1073.08 L2710.80 1108.18 L2720.42 1146.49 L2730.21 1182.94 L2739.83 1219.39 L2749.44 1254.99 L2759.23 1287.22 L2768.85 1324.35 L2778.64 1361.98 L2788.26 1398.09 L2797.88 1435.22 L2807.66 1473.36 L2817.28 1511.66 L2827.07 1548.79 L2836.69 1581.36 L2846.48 1612.91 L2856.09 1643.79 L2865.71 1673.33 L2875.50 1699.14 L2885.12 1723.44 L2894.91 1746.23 L2904.53 1765.97 L2914.14 1784.70 L2923.93 1803.26 L2933.55 1820.14 L2943.34 1837.86 L2952.96 1853.72 L2962.74 1867.73 L2972.36 1881.06 L2981.98 1892.53 L2991.77 1903.16 L3001.39 1914.81 L3011.18 1926.62 L3020.79 1939.11 L3030.41 1952.27 L3040.20 1964.76 L3049.82 1976.74 L3059.61 1989.23 L3069.23 2003.74 L3078.84 2016.90 L3088.63 2030.57 L3098.25 2044.41 L3108.04 2057.74 L3117.66 2071.07 L3127.44 2085.41 L3137.06 2100.77 L3146.68 2113.59 L3156.47 2127.43 L3166.09 2142.62 L3175.88 2158.14 L3185.49 2172.82 L3195.11 2188.69 L3204.90 2204.55 L3214.52 2222.61 L3224.31 2241.84 L3233.93 2262.09 L3243.71 2282.18 L3253.33 2303.27 L3262.95 2325.54 L3272.74 2346.81 L3282.36 2365.03 L3292.14 2380.73 L3301.76 2395.57 L3311.38 2411.27 L3321.17 2425.78 L3330.79 2437.76 L3340.58 2449.07 L3350.19 2459.87 L3359.81 2471.01 L3369.60 2482.65 L3379.22 2492.78 L3389.01 2502.90 L3398.63 2514.38 L3408.41 2525.01 L3418.03 2535.64 L3427.65 2544.75 L3437.44 2553.69 L3447.06 2563.31 L3456.84 2572.09 L3466.46 2580.53 L3476.08 2589.30 L3485.87 2596.89 L3495.49 2604.15 L3505.28 2611.41 L3514.89 2618.49 L3524.51 2625.58 L3534.30 2632.84 L3543.92 2639.76 L3553.71 2645.16 L3563.33 2649.21 L3573.11 2652.08 L3582.73 2654.27 L3592.35 2655.96 L3602.14 2656.97 L3611.76 2658.15 L3621.54 2658.99 L3631.16 2659.67 L3640.78 2659.67 L3650.57 2659.67 L3660.19 2659.84 L3669.98 2660.34 L3679.59 2660.85 L3689.38 2661.69 L3699.00 2662.54 L3708.62 2663.72 L3718.41 2664.90 L3728.03 2666.42 L3737.81 2668.11 L3747.43 2669.96 L3757.05 2671.99 L3766.84 2673.51 L3776.46 2674.69 L3786.24 2675.70 L3795.86 2676.88 L3805.48 2678.06" stroke-linejoin="round" style="fill:none;stroke:#1A85FF;stroke-width:9.72"/>
	<path d=" M767.14 2684.14 L776.08 2683.13 L785.03 2681.78 L793.97 2680.59 L802.91 2679.58 L811.86 2677.89 L820.97 2676.38 L829.91 2674.52 L838.86 2672.49 L847.80 2670.64 L856.74 2668.95 L865.69 2667.43 L874.63 2665.91 L883.74 2664.73 L892.69 2663.72 L901.63 2662.54 L910.58 2661.02 L919.52 2659.84 L928.46 2658.32 L937.41 2656.13 L946.52 2654.10 L955.46 2652.08 L964.41 2649.88 L973.35 2647.86 L982.29 2645.49 L991.24 2643.30 L1000.18 2640.77 L1009.29 2638.41 L1018.24 2635.37 L1027.18 2631.99 L1036.13 2627.27 L1045.07 2622.71 L1054.01 2618.49 L1062.96 2614.95 L1072.07 2611.07 L1081.01 2607.02 L1089.96 2602.29 L1098.90 2597.57 L1107.84 2592.68 L1116.79 2586.43 L1125.73 2578.67 L1134.84 2568.04 L1143.79 2555.38 L1152.73 2542.39 L1161.68 2529.39 L1170.62 2516.40 L1179.56 2503.74 L1188.51 2490.75 L1197.62 2477.08 L1206.56 2462.23 L1215.51 2446.20 L1224.45 2429.49 L1233.39 2414.31 L1242.34 2400.13 L1251.28 2386.13 L1260.39 2372.46 L1269.34 2356.93 L1278.28 2341.74 L1287.22 2327.40 L1296.17 2313.39 L1305.11 2300.40 L1314.06 2286.90 L1323.17 2274.58 L1332.11 2263.78 L1341.06 2253.82 L1350.00 2242.86 L1358.94 2232.39 L1367.89 2223.79 L1376.83 2214.68 L1385.94 2205.06 L1394.89 2195.27 L1403.83 2184.81 L1412.78 2173.84 L1421.72 2161.69 L1430.66 2148.02 L1439.61 2133.84 L1448.72 2115.79 L1457.66 2099.25 L1466.61 2082.04 L1475.55 2064.99 L1484.49 2048.96 L1493.44 2031.75 L1502.38 2014.54 L1511.49 1995.98 L1520.44 1977.75 L1529.38 1958.85 L1538.33 1939.44 L1547.27 1912.78 L1556.21 1880.21 L1565.16 1847.48 L1574.27 1815.58 L1583.21 1783.52 L1592.16 1753.65 L1601.10 1724.46 L1610.04 1695.60 L1618.99 1666.07 L1627.93 1634.34 L1636.88 1603.97 L1645.99 1573.43 L1654.93 1542.04 L1663.88 1507.61 L1672.82 1473.36 L1681.76 1434.38 L1690.71 1395.90 L1699.65 1357.09 L1708.76 1317.77 L1717.71 1280.98 L1726.65 1244.36 L1735.59 1210.11 L1744.54 1177.37 L1753.48 1149.02 L1762.43 1122.36 L1771.54 1097.89 L1780.48 1076.96 L1789.43 1058.74 L1798.37 1040.51 L1807.31 1022.79 L1816.26 1002.88 L1825.20 986.51 L1834.31 970.31 L1843.26 954.79 L1852.20 938.59 L1861.14 921.38 L1870.09 906.53 L1879.03 888.97 L1887.98 871.09 L1897.09 851.68 L1906.03 832.44 L1914.98 813.54 L1923.92 794.81 L1932.86 777.77 L1941.81 762.07 L1950.75 748.07 L1959.86 728.32 L1968.81 706.05 L1977.75 684.96 L1986.69 663.02 L1995.64 641.25 L2004.58 623.03 L2013.53 603.79 L2022.64 585.22 L2031.58 572.06 L2040.53 560.76 L2049.47 553.67 L2058.41 546.58 L2067.36 537.64 L2076.30 522.79 L2085.41 506.76 L2094.36 491.06 L2103.30 475.88 L2112.24 459.51 L2121.19 444.32 L2130.13 433.86 L2139.07 423.56 L2148.19 415.29 L2157.13 407.70 L2166.07 404.32 L2175.02 402.13 L2183.96 403.31 L2192.91 408.38 L2201.85 411.92 L2210.96 411.92 L2219.91 411.92 L2228.85 410.06 L2237.79 412.09 L2246.74 414.79 L2255.68 421.71 L2264.63 427.95 L2273.74 437.57 L2282.68 451.41 L2291.63 463.39 L2300.57 477.39 L2309.51 492.41 L2318.46 511.82 L2327.40 533.08 L2336.51 556.37 L2345.46 582.02 L2354.40 611.21 L2363.34 641.93 L2372.29 669.60 L2381.23 699.13 L2390.18 730.18 L2399.29 761.06 L2408.23 792.79 L2417.18 828.06 L2426.12 861.97 L2435.06 895.56 L2444.01 933.69 L2452.95 973.86 L2462.06 1015.88 L2471.01 1057.56 L2479.95 1098.56 L2488.89 1138.05 L2497.84 1175.85 L2506.78 1215.00 L2515.73 1253.81 L2524.84 1292.63 L2533.78 1332.11 L2542.73 1373.46 L2551.67 1412.78 L2560.61 1449.56 L2569.56 1486.35 L2578.50 1520.78 L2587.61 1554.02 L2596.56 1587.94 L2605.50 1622.87 L2614.44 1651.73 L2623.39 1676.19 L2632.33 1698.98 L2641.28 1720.74 L2650.39 1739.48 L2659.33 1756.01 L2668.28 1772.89 L2677.22 1786.39 L2686.16 1800.23 L2695.11 1816.09 L2704.05 1828.58 L2712.99 1841.23 L2722.11 1855.58 L2731.05 1871.44 L2739.99 1886.96 L2748.94 1900.46 L2757.88 1914.64 L2766.83 1930.67 L2775.77 1947.21 L2784.88 1961.72 L2793.83 1975.89 L2802.77 1989.39 L2811.71 2001.71 L2820.66 2013.02 L2829.60 2025.17 L2838.54 2039.18 L2847.66 2054.36 L2856.60 2071.24 L2865.54 2088.96 L2874.49 2106.68 L2883.43 2123.72 L2892.38 2141.27 L2901.32 2160.34 L2910.43 2180.59 L2919.38 2200.50 L2928.32 2221.26 L2937.26 2243.70 L2946.21 2266.14 L2955.15 2289.26 L2964.09 2311.03 L2973.21 2330.61 L2982.15 2349.68 L2991.09 2365.88 L3000.04 2381.06 L3008.98 2396.42 L3017.93 2410.76 L3026.87 2423.42 L3035.98 2436.58 L3044.93 2450.25 L3053.87 2463.75 L3062.81 2474.72 L3071.76 2486.03 L3080.70 2497.50 L3089.64 2507.63 L3098.76 2518.76 L3107.70 2530.91 L3116.64 2542.05 L3125.59 2553.36 L3134.53 2564.83 L3143.48 2575.63 L3152.42 2585.42 L3161.53 2593.18 L3170.48 2601.28 L3179.42 2609.72 L3188.36 2617.82 L3197.31 2625.92 L3206.25 2633.34 L3215.19 2640.26 L3224.31 2644.99 L3233.25 2647.52 L3242.19 2648.70 L3251.14 2649.21 L3260.08 2650.22 L3269.03 2651.23 L3277.97 2652.24 L3287.08 2653.26 L3296.03 2653.93 L3304.97 2654.61 L3313.91 2654.94 L3322.86 2655.28 L3331.80 2655.79 L3340.74 2656.63 L3349.86 2657.48 L3358.80 2658.66 L3367.74 2660.01 L3376.69 2661.53 L3385.63 2663.38 L3394.58 2665.07 L3403.52 2666.42 L3412.63 2667.94 L3421.58 2669.63 L3430.52 2671.48 L3439.46 2673.51 L3448.41 2675.70" stroke-linejoin="round" style="fill:none;stroke:#D41159;stroke-width:9.72"/>
	<line x1="412.59" y1="2766.66" x2="412.59" y2="113.40" style="stroke:#000000;stroke-width:6.48"/>
	<line x1="412.59" y1="2695.28" x2="367.54" y2="2695.28" style="stroke:#000000;stroke-width:6.48"/>
	<text x="345.09" y="2734.71" style="font-family:'Helvetica';font-size:112.56px;fill:#000000" text-anchor="end">0</text>
	<line x1="412.59" y1="2193.24" x2="367.54" y2="2193.24" style="stroke:#000000;stroke-width:6.48"/>
	<text x="345.09" y="2232.68" style="font-family:'Helvetica';font-size:112.56px;fill:#000000" text-anchor="end">2</text>
	<line x1="412.59" y1="1691.04" x2="367.54" y2="1691.04" style="stroke:#000000;stroke-width:6.48"/>
	<text x="345.09" y="1730.48" style="font-family:'Helvetica';font-size:112.56px;fill:#000000" text-anchor="end">4</text>
	<line x1="412.59" y1="1189.01" x2="367.54" y2="1189.01" style="stroke:#000000;stroke-width:6.48"/>
	<text x="345.09" y="1228.45" style="font-family:'Helvetica';font-size:112.56px;fill:#000000" text-anchor="end">6</text>
	<line x1="412.59" y1="686.81" x2="367.54" y2="686.81" style="stroke:#000000;stroke-width:6.48"/>
	<text x="345.09" y="726.25" style="font-family:'Helvetica';font-size:112.56px;fill:#000000" text-anchor="end">8</text>
	<line x1="412.59" y1="184.61" x2="367.54" y2="184.61" style="stroke:#000000;stroke-width:6.48"/>
	<text x="345.09" y="224.05" style="font-family:'Helvetica';font-size:112.56px;fill:#000000" text-anchor="end">10</text>
	<line x1="412.59" y1="2766.66" x2="4364.72" y2="2766.66" style="stroke:#000000;stroke-width:6.48"/>
	<line x1="483.81" y1="2766.66" x2="483.81" y2="2811.54" style="stroke:#000000;stroke-width:6.48"/>
	<text x="483.81" y="2912.86" style="font-family:'Helvetica';font-size:112.56px;fill:#000000" text-anchor="middle">.2</text>
	<line x1="1436.23" y1="2766.66" x2="1436.23" y2="2811.54" style="stroke:#000000;stroke-width:6.48"/>
	<text x="1436.23" y="2912.86" style="font-family:'Helvetica';font-size:112.56px;fill:#000000" text-anchor="middle">.3</text>
	<line x1="2388.66" y1="2766.66" x2="2388.66" y2="2811.54" style="stroke:#000000;stroke-width:6.48"/>
	<text x="2388.66" y="2912.86" style="font-family:'Helvetica';font-size:112.56px;fill:#000000" text-anchor="middle">.4</text>
	<line x1="3341.08" y1="2766.66" x2="3341.08" y2="2811.54" style="stroke:#000000;stroke-width:6.48"/>
	<text x="3341.08" y="2912.86" style="font-family:'Helvetica';font-size:112.56px;fill:#000000" text-anchor="middle">.5</text>
	<line x1="4293.34" y1="2766.66" x2="4293.34" y2="2811.54" style="stroke:#000000;stroke-width:6.48"/>
	<text x="4293.34" y="2912.86" style="font-family:'Helvetica';font-size:112.56px;fill:#000000" text-anchor="middle">.6</text>
	<text x="2388.66" y="3070.31" style="font-family:'Helvetica';font-size:112.56px;fill:#000000" text-anchor="middle">x</text>
	<rect x="4403.53" y="1256.34" width="844.26" height="367.20" style="fill:#FFFFFF"/>
	<rect x="4406.77" y="1259.58" width="837.78" height="360.72" style="fill:none;stroke:#FFFFFF;stroke-width:6.48"/>
	<line x1="4452.13" y1="1361.31" x2="4711.33" y2="1361.31" style="stroke:#1A85FF;stroke-width:9.72"/>
	<line x1="4452.13" y1="1518.75" x2="4711.33" y2="1518.75" style="stroke:#D41159;stroke-width:9.72"/>
	<text x="4778.83" y="1400.74" style="font-family:'Helvetica';font-size:112.56px;fill:#000000">Logistic</text>
	<text x="4778.83" y="1558.19" style="font-family:'Helvetica';font-size:112.56px;fill:#000000">Poisson</text>
</svg>
