<?xml version="1.0" encoding="UTF-8" standalone="no"?>
<!-- This is a Stata 18.0 generated SVG file (http://www.stata.com) -->

<svg version="1.1" width="7.500in" height="4.500in" viewBox="0 0 5400 3240" xmlns="http://www.w3.org/2000/svg" xmlns:xlink="http://www.w3.org/1999/xlink">
	<desc>Stata Graph - Graph</desc>
	<rect x="0" y="0" width="5400" height="3240" style="fill:#FFFFFF;stroke:none"/>
	<rect x="0.00" y="0.00" width="5400.00" height="3240.00" style="fill:#FFFFFF"/>
	<rect x="3.24" y="3.24" width="5393.52" height="3233.52" style="fill:none;stroke:#FFFFFF;stroke-width:6.48"/>
	<rect x="346.95" y="113.40" width="4017.77" height="2653.26" style="fill:#FFFFFF"/>
	<rect x="350.19" y="116.64" width="4011.29" height="2646.78" style="fill:none;stroke:#FFFFFF;stroke-width:6.48"/>
	<line x1="346.95" y1="2695.28" x2="411.75" y2="2695.28" style="stroke:#F0F0F0;stroke-width:9.72"/>
	<line x1="444.15" y1="2695.28" x2="508.95" y2="2695.28" style="stroke:#F0F0F0;stroke-width:9.72"/>
	<line x1="541.35" y1="2695.28" x2="606.15" y2="2695.28" style="stroke:#F0F0F0;stroke-width:9.72"/>
	<line x1="638.55" y1="2695.28" x2="703.35" y2="2695.28" style="stroke:#F0F0F0;stroke-width:9.72"/>
	<line x1="735.75" y1="2695.28" x2="800.55" y2="2695.28" style="stroke:#F0F0F0;stroke-width:9.72"/>
	<line x1="832.95" y1="2695.28" x2="897.75" y2="2695.28" style="stroke:#F0F0F0;stroke-width:9.72"/>
	<line x1="930.15" y1="2695.28" x2="994.95" y2="2695.28" style="stroke:#F0F0F0;stroke-width:9.72"/>
	<line x1="1027.35" y1="2695.28" x2="1092.15" y2="2695.28" style="stroke:#F0F0F0;stroke-width:9.72"/>
	<line x1="1124.55" y1="2695.28" x2="1189.35" y2="2695.28" style="stroke:#F0F0F0;stroke-width:9.72"/>
	<line x1="1221.75" y1="2695.28" x2="1286.55" y2="2695.28" style="stroke:#F0F0F0;stroke-width:9.72"/>
	<line x1="1318.95" y1="2695.28" x2="1383.75" y2="2695.28" style="stroke:#F0F0F0;stroke-width:9.72"/>
	<line x1="1416.15" y1="2695.28" x2="1480.95" y2="2695.28" style="stroke:#F0F0F0;stroke-width:9.72"/>
	<line x1="1513.35" y1="2695.28" x2="1578.15" y2="2695.28" style="stroke:#F0F0F0;stroke-width:9.72"/>
	<line x1="1610.55" y1="2695.28" x2="1675.35" y2="2695.28" style="stroke:#F0F0F0;stroke-width:9.72"/>
	<line x1="1707.75" y1="2695.28" x2="1772.55" y2="2695.28" style="stroke:#F0F0F0;stroke-width:9.72"/>
	<line x1="1804.95" y1="2695.28" x2="1869.75" y2="2695.28" style="stroke:#F0F0F0;stroke-width:9.72"/>
	<line x1="1902.15" y1="2695.28" x2="1966.95" y2="2695.28" style="stroke:#F0F0F0;stroke-width:9.72"/>
	<line x1="1999.35" y1="2695.28" x2="2064.15" y2="2695.28" style="stroke:#F0F0F0;stroke-width:9.72"/>
	<line x1="2096.55" y1="2695.28" x2="2161.35" y2="2695.28" style="stroke:#F0F0F0;stroke-width:9.72"/>
	<line x1="2193.75" y1="2695.28" x2="2258.55" y2="2695.28" style="stroke:#F0F0F0;stroke-width:9.72"/>
	<line x1="2290.95" y1="2695.28" x2="2355.75" y2="2695.28" style="stroke:#F0F0F0;stroke-width:9.72"/>
	<line x1="2388.15" y1="2695.28" x2="2452.95" y2="2695.28" style="stroke:#F0F0F0;stroke-width:9.72"/>
	<line x1="2485.35" y1="2695.28" x2="2550.15" y2="2695.28" style="stroke:#F0F0F0;stroke-width:9.72"/>
	<line x1="2582.55" y1="2695.28" x2="2647.35" y2="2695.28" style="stroke:#F0F0F0;stroke-width:9.72"/>
	<line x1="2679.75" y1="2695.28" x2="2744.55" y2="2695.28" style="stroke:#F0F0F0;stroke-width:9.72"/>
	<line x1="2776.95" y1="2695.28" x2="2841.75" y2="2695.28" style="stroke:#F0F0F0;stroke-width:9.72"/>
	<line x1="2874.15" y1="2695.28" x2="2938.95" y2="2695.28" style="stroke:#F0F0F0;stroke-width:9.72"/>
	<line x1="2971.35" y1="2695.28" x2="3036.15" y2="2695.28" style="stroke:#F0F0F0;stroke-width:9.72"/>
	<line x1="3068.55" y1="2695.28" x2="3133.35" y2="2695.28" style="stroke:#F0F0F0;stroke-width:9.72"/>
	<line x1="3165.75" y1="2695.28" x2="3230.55" y2="2695.28" style="stroke:#F0F0F0;stroke-width:9.72"/>
	<line x1="3262.95" y1="2695.28" x2="3327.75" y2="2695.28" style="stroke:#F0F0F0;stroke-width:9.72"/>
	<line x1="3360.15" y1="2695.28" x2="3424.95" y2="2695.28" style="stroke:#F0F0F0;stroke-width:9.72"/>
	<line x1="3457.35" y1="2695.28" x2="3522.15" y2="2695.28" style="stroke:#F0F0F0;stroke-width:9.72"/>
	<line x1="3554.55" y1="2695.28" x2="3619.35" y2="2695.28" style="stroke:#F0F0F0;stroke-width:9.72"/>
	<line x1="3651.75" y1="2695.28" x2="3716.55" y2="2695.28" style="stroke:#F0F0F0;stroke-width:9.72"/>
	<line x1="3748.95" y1="2695.28" x2="3813.75" y2="2695.28" style="stroke:#F0F0F0;stroke-width:9.72"/>
	<line x1="3846.15" y1="2695.28" x2="3910.95" y2="2695.28" style="stroke:#F0F0F0;stroke-width:9.72"/>
	<line x1="3943.35" y1="2695.28" x2="4008.15" y2="2695.28" style="stroke:#F0F0F0;stroke-width:9.72"/>
	<line x1="4040.55" y1="2695.28" x2="4105.35" y2="2695.28" style="stroke:#F0F0F0;stroke-width:9.72"/>
	<line x1="4137.75" y1="2695.28" x2="4202.55" y2="2695.28" style="stroke:#F0F0F0;stroke-width:9.72"/>
	<line x1="4234.95" y1="2695.28" x2="4299.75" y2="2695.28" style="stroke:#F0F0F0;stroke-width:9.72"/>
	<line x1="4332.15" y1="2695.28" x2="4364.72" y2="2695.28" style="stroke:#F0F0F0;stroke-width:9.72"/>
	<line x1="346.95" y1="2067.69" x2="411.75" y2="2067.69" style="stroke:#F0F0F0;stroke-width:9.72"/>
	<line x1="444.15" y1="2067.69" x2="508.95" y2="2067.69" style="stroke:#F0F0F0;stroke-width:9.72"/>
	<line x1="541.35" y1="2067.69" x2="606.15" y2="2067.69" style="stroke:#F0F0F0;stroke-width:9.72"/>
	<line x1="638.55" y1="2067.69" x2="703.35" y2="2067.69" style="stroke:#F0F0F0;stroke-width:9.72"/>
	<line x1="735.75" y1="2067.69" x2="800.55" y2="2067.69" style="stroke:#F0F0F0;stroke-width:9.72"/>
	<line x1="832.95" y1="2067.69" x2="897.75" y2="2067.69" style="stroke:#F0F0F0;stroke-width:9.72"/>
	<line x1="930.15" y1="2067.69" x2="994.95" y2="2067.69" style="stroke:#F0F0F0;stroke-width:9.72"/>
	<line x1="1027.35" y1="2067.69" x2="1092.15" y2="2067.69" style="stroke:#F0F0F0;stroke-width:9.72"/>
	<line x1="1124.55" y1="2067.69" x2="1189.35" y2="2067.69" style="stroke:#F0F0F0;stroke-width:9.72"/>
	<line x1="1221.75" y1="2067.69" x2="1286.55" y2="2067.69" style="stroke:#F0F0F0;stroke-width:9.72"/>
	<line x1="1318.95" y1="2067.69" x2="1383.75" y2="2067.69" style="stroke:#F0F0F0;stroke-width:9.72"/>
	<line x1="1416.15" y1="2067.69" x2="1480.95" y2="2067.69" style="stroke:#F0F0F0;stroke-width:9.72"/>
	<line x1="1513.35" y1="2067.69" x2="1578.15" y2="2067.69" style="stroke:#F0F0F0;stroke-width:9.72"/>
	<line x1="1610.55" y1="2067.69" x2="1675.35" y2="2067.69" style="stroke:#F0F0F0;stroke-width:9.72"/>
	<line x1="1707.75" y1="2067.69" x2="1772.55" y2="2067.69" style="stroke:#F0F0F0;stroke-width:9.72"/>
	<line x1="1804.95" y1="2067.69" x2="1869.75" y2="2067.69" style="stroke:#F0F0F0;stroke-width:9.72"/>
	<line x1="1902.15" y1="2067.69" x2="1966.95" y2="2067.69" style="stroke:#F0F0F0;stroke-width:9.72"/>
	<line x1="1999.35" y1="2067.69" x2="2064.15" y2="2067.69" style="stroke:#F0F0F0;stroke-width:9.72"/>
	<line x1="2096.55" y1="2067.69" x2="2161.35" y2="2067.69" style="stroke:#F0F0F0;stroke-width:9.72"/>
	<line x1="2193.75" y1="2067.69" x2="2258.55" y2="2067.69" style="stroke:#F0F0F0;stroke-width:9.72"/>
	<line x1="2290.95" y1="2067.69" x2="2355.75" y2="2067.69" style="stroke:#F0F0F0;stroke-width:9.72"/>
	<line x1="2388.15" y1="2067.69" x2="2452.95" y2="2067.69" style="stroke:#F0F0F0;stroke-width:9.72"/>
	<line x1="2485.35" y1="2067.69" x2="2550.15" y2="2067.69" style="stroke:#F0F0F0;stroke-width:9.72"/>
	<line x1="2582.55" y1="2067.69" x2="2647.35" y2="2067.69" style="stroke:#F0F0F0;stroke-width:9.72"/>
	<line x1="2679.75" y1="2067.69" x2="2744.55" y2="2067.69" style="stroke:#F0F0F0;stroke-width:9.72"/>
	<line x1="2776.95" y1="2067.69" x2="2841.75" y2="2067.69" style="stroke:#F0F0F0;stroke-width:9.72"/>
	<line x1="2874.15" y1="2067.69" x2="2938.95" y2="2067.69" style="stroke:#F0F0F0;stroke-width:9.72"/>
	<line x1="2971.35" y1="2067.69" x2="3036.15" y2="2067.69" style="stroke:#F0F0F0;stroke-width:9.72"/>
	<line x1="3068.55" y1="2067.69" x2="3133.35" y2="2067.69" style="stroke:#F0F0F0;stroke-width:9.72"/>
	<line x1="3165.75" y1="2067.69" x2="3230.55" y2="2067.69" style="stroke:#F0F0F0;stroke-width:9.72"/>
	<line x1="3262.95" y1="2067.69" x2="3327.75" y2="2067.69" style="stroke:#F0F0F0;stroke-width:9.72"/>
	<line x1="3360.15" y1="2067.69" x2="3424.95" y2="2067.69" style="stroke:#F0F0F0;stroke-width:9.72"/>
	<line x1="3457.35" y1="2067.69" x2="3522.15" y2="2067.69" style="stroke:#F0F0F0;stroke-width:9.72"/>
	<line x1="3554.55" y1="2067.69" x2="3619.35" y2="2067.69" style="stroke:#F0F0F0;stroke-width:9.72"/>
	<line x1="3651.75" y1="2067.69" x2="3716.55" y2="2067.69" style="stroke:#F0F0F0;stroke-width:9.72"/>
	<line x1="3748.95" y1="2067.69" x2="3813.75" y2="2067.69" style="stroke:#F0F0F0;stroke-width:9.72"/>
	<line x1="3846.15" y1="2067.69" x2="3910.95" y2="2067.69" style="stroke:#F0F0F0;stroke-width:9.72"/>
	<line x1="3943.35" y1="2067.69" x2="4008.15" y2="2067.69" style="stroke:#F0F0F0;stroke-width:9.72"/>
	<line x1="4040.55" y1="2067.69" x2="4105.35" y2="2067.69" style="stroke:#F0F0F0;stroke-width:9.72"/>
	<line x1="4137.75" y1="2067.69" x2="4202.55" y2="2067.69" style="stroke:#F0F0F0;stroke-width:9.72"/>
	<line x1="4234.95" y1="2067.69" x2="4299.75" y2="2067.69" style="stroke:#F0F0F0;stroke-width:9.72"/>
	<line x1="4332.15" y1="2067.69" x2="4364.72" y2="2067.69" style="stroke:#F0F0F0;stroke-width:9.72"/>
	<line x1="346.95" y1="1439.94" x2="411.75" y2="1439.94" style="stroke:#F0F0F0;stroke-width:9.72"/>
	<line x1="444.15" y1="1439.94" x2="508.95" y2="1439.94" style="stroke:#F0F0F0;stroke-width:9.72"/>
	<line x1="541.35" y1="1439.94" x2="606.15" y2="1439.94" style="stroke:#F0F0F0;stroke-width:9.72"/>
	<line x1="638.55" y1="1439.94" x2="703.35" y2="1439.94" style="stroke:#F0F0F0;stroke-width:9.72"/>
	<line x1="735.75" y1="1439.94" x2="800.55" y2="1439.94" style="stroke:#F0F0F0;stroke-width:9.72"/>
	<line x1="832.95" y1="1439.94" x2="897.75" y2="1439.94" style="stroke:#F0F0F0;stroke-width:9.72"/>
	<line x1="930.15" y1="1439.94" x2="994.95" y2="1439.94" style="stroke:#F0F0F0;stroke-width:9.72"/>
	<line x1="1027.35" y1="1439.94" x2="1092.15" y2="1439.94" style="stroke:#F0F0F0;stroke-width:9.72"/>
	<line x1="1124.55" y1="1439.94" x2="1189.35" y2="1439.94" style="stroke:#F0F0F0;stroke-width:9.72"/>
	<line x1="1221.75" y1="1439.94" x2="1286.55" y2="1439.94" style="stroke:#F0F0F0;stroke-width:9.72"/>
	<line x1="1318.95" y1="1439.94" x2="1383.75" y2="1439.94" style="stroke:#F0F0F0;stroke-width:9.72"/>
	<line x1="1416.15" y1="1439.94" x2="1480.95" y2="1439.94" style="stroke:#F0F0F0;stroke-width:9.72"/>
	<line x1="1513.35" y1="1439.94" x2="1578.15" y2="1439.94" style="stroke:#F0F0F0;stroke-width:9.72"/>
	<line x1="1610.55" y1="1439.94" x2="1675.35" y2="1439.94" style="stroke:#F0F0F0;stroke-width:9.72"/>
	<line x1="1707.75" y1="1439.94" x2="1772.55" y2="1439.94" style="stroke:#F0F0F0;stroke-width:9.72"/>
	<line x1="1804.95" y1="1439.94" x2="1869.75" y2="1439.94" style="stroke:#F0F0F0;stroke-width:9.72"/>
	<line x1="1902.15" y1="1439.94" x2="1966.95" y2="1439.94" style="stroke:#F0F0F0;stroke-width:9.72"/>
	<line x1="1999.35" y1="1439.94" x2="2064.15" y2="1439.94" style="stroke:#F0F0F0;stroke-width:9.72"/>
	<line x1="2096.55" y1="1439.94" x2="2161.35" y2="1439.94" style="stroke:#F0F0F0;stroke-width:9.72"/>
	<line x1="2193.75" y1="1439.94" x2="2258.55" y2="1439.94" style="stroke:#F0F0F0;stroke-width:9.72"/>
	<line x1="2290.95" y1="1439.94" x2="2355.75" y2="1439.94" style="stroke:#F0F0F0;stroke-width:9.72"/>
	<line x1="2388.15" y1="1439.94" x2="2452.95" y2="1439.94" style="stroke:#F0F0F0;stroke-width:9.72"/>
	<line x1="2485.35" y1="1439.94" x2="2550.15" y2="1439.94" style="stroke:#F0F0F0;stroke-width:9.72"/>
	<line x1="2582.55" y1="1439.94" x2="2647.35" y2="1439.94" style="stroke:#F0F0F0;stroke-width:9.72"/>
	<line x1="2679.75" y1="1439.94" x2="2744.55" y2="1439.94" style="stroke:#F0F0F0;stroke-width:9.72"/>
	<line x1="2776.95" y1="1439.94" x2="2841.75" y2="1439.94" style="stroke:#F0F0F0;stroke-width:9.72"/>
	<line x1="2874.15" y1="1439.94" x2="2938.95" y2="1439.94" style="stroke:#F0F0F0;stroke-width:9.72"/>
	<line x1="2971.35" y1="1439.94" x2="3036.15" y2="1439.94" style="stroke:#F0F0F0;stroke-width:9.72"/>
	<line x1="3068.55" y1="1439.94" x2="3133.35" y2="1439.94" style="stroke:#F0F0F0;stroke-width:9.72"/>
	<line x1="3165.75" y1="1439.94" x2="3230.55" y2="1439.94" style="stroke:#F0F0F0;stroke-width:9.72"/>
	<line x1="3262.95" y1="1439.94" x2="3327.75" y2="1439.94" style="stroke:#F0F0F0;stroke-width:9.72"/>
	<line x1="3360.15" y1="1439.94" x2="3424.95" y2="1439.94" style="stroke:#F0F0F0;stroke-width:9.72"/>
	<line x1="3457.35" y1="1439.94" x2="3522.15" y2="1439.94" style="stroke:#F0F0F0;stroke-width:9.72"/>
	<line x1="3554.55" y1="1439.94" x2="3619.35" y2="1439.94" style="stroke:#F0F0F0;stroke-width:9.72"/>
	<line x1="3651.75" y1="1439.94" x2="3716.55" y2="1439.94" style="stroke:#F0F0F0;stroke-width:9.72"/>
	<line x1="3748.95" y1="1439.94" x2="3813.75" y2="1439.94" style="stroke:#F0F0F0;stroke-width:9.72"/>
	<line x1="3846.15" y1="1439.94" x2="3910.95" y2="1439.94" style="stroke:#F0F0F0;stroke-width:9.72"/>
	<line x1="3943.35" y1="1439.94" x2="4008.15" y2="1439.94" style="stroke:#F0F0F0;stroke-width:9.72"/>
	<line x1="4040.55" y1="1439.94" x2="4105.35" y2="1439.94" style="stroke:#F0F0F0;stroke-width:9.72"/>
	<line x1="4137.75" y1="1439.94" x2="4202.55" y2="1439.94" style="stroke:#F0F0F0;stroke-width:9.72"/>
	<line x1="4234.95" y1="1439.94" x2="4299.75" y2="1439.94" style="stroke:#F0F0F0;stroke-width:9.72"/>
	<line x1="4332.15" y1="1439.94" x2="4364.72" y2="1439.94" style="stroke:#F0F0F0;stroke-width:9.72"/>
	<line x1="346.95" y1="812.36" x2="411.75" y2="812.36" style="stroke:#F0F0F0;stroke-width:9.72"/>
	<line x1="444.15" y1="812.36" x2="508.95" y2="812.36" style="stroke:#F0F0F0;stroke-width:9.72"/>
	<line x1="541.35" y1="812.36" x2="606.15" y2="812.36" style="stroke:#F0F0F0;stroke-width:9.72"/>
	<line x1="638.55" y1="812.36" x2="703.35" y2="812.36" style="stroke:#F0F0F0;stroke-width:9.72"/>
	<line x1="735.75" y1="812.36" x2="800.55" y2="812.36" style="stroke:#F0F0F0;stroke-width:9.72"/>
	<line x1="832.95" y1="812.36" x2="897.75" y2="812.36" style="stroke:#F0F0F0;stroke-width:9.72"/>
	<line x1="930.15" y1="812.36" x2="994.95" y2="812.36" style="stroke:#F0F0F0;stroke-width:9.72"/>
	<line x1="1027.35" y1="812.36" x2="1092.15" y2="812.36" style="stroke:#F0F0F0;stroke-width:9.72"/>
	<line x1="1124.55" y1="812.36" x2="1189.35" y2="812.36" style="stroke:#F0F0F0;stroke-width:9.72"/>
	<line x1="1221.75" y1="812.36" x2="1286.55" y2="812.36" style="stroke:#F0F0F0;stroke-width:9.72"/>
	<line x1="1318.95" y1="812.36" x2="1383.75" y2="812.36" style="stroke:#F0F0F0;stroke-width:9.72"/>
	<line x1="1416.15" y1="812.36" x2="1480.95" y2="812.36" style="stroke:#F0F0F0;stroke-width:9.72"/>
	<line x1="1513.35" y1="812.36" x2="1578.15" y2="812.36" style="stroke:#F0F0F0;stroke-width:9.72"/>
	<line x1="1610.55" y1="812.36" x2="1675.35" y2="812.36" style="stroke:#F0F0F0;stroke-width:9.72"/>
	<line x1="1707.75" y1="812.36" x2="1772.55" y2="812.36" style="stroke:#F0F0F0;stroke-width:9.72"/>
	<line x1="1804.95" y1="812.36" x2="1869.75" y2="812.36" style="stroke:#F0F0F0;stroke-width:9.72"/>
	<line x1="1902.15" y1="812.36" x2="1966.95" y2="812.36" style="stroke:#F0F0F0;stroke-width:9.72"/>
	<line x1="1999.35" y1="812.36" x2="2064.15" y2="812.36" style="stroke:#F0F0F0;stroke-width:9.72"/>
	<line x1="2096.55" y1="812.36" x2="2161.35" y2="812.36" style="stroke:#F0F0F0;stroke-width:9.72"/>
	<line x1="2193.75" y1="812.36" x2="2258.55" y2="812.36" style="stroke:#F0F0F0;stroke-width:9.72"/>
	<line x1="2290.95" y1="812.36" x2="2355.75" y2="812.36" style="stroke:#F0F0F0;stroke-width:9.72"/>
	<line x1="2388.15" y1="812.36" x2="2452.95" y2="812.36" style="stroke:#F0F0F0;stroke-width:9.72"/>
	<line x1="2485.35" y1="812.36" x2="2550.15" y2="812.36" style="stroke:#F0F0F0;stroke-width:9.72"/>
	<line x1="2582.55" y1="812.36" x2="2647.35" y2="812.36" style="stroke:#F0F0F0;stroke-width:9.72"/>
	<line x1="2679.75" y1="812.36" x2="2744.55" y2="812.36" style="stroke:#F0F0F0;stroke-width:9.72"/>
	<line x1="2776.95" y1="812.36" x2="2841.75" y2="812.36" style="stroke:#F0F0F0;stroke-width:9.72"/>
	<line x1="2874.15" y1="812.36" x2="2938.95" y2="812.36" style="stroke:#F0F0F0;stroke-width:9.72"/>
	<line x1="2971.35" y1="812.36" x2="3036.15" y2="812.36" style="stroke:#F0F0F0;stroke-width:9.72"/>
	<line x1="3068.55" y1="812.36" x2="3133.35" y2="812.36" style="stroke:#F0F0F0;stroke-width:9.72"/>
	<line x1="3165.75" y1="812.36" x2="3230.55" y2="812.36" style="stroke:#F0F0F0;stroke-width:9.72"/>
	<line x1="3262.95" y1="812.36" x2="3327.75" y2="812.36" style="stroke:#F0F0F0;stroke-width:9.72"/>
	<line x1="3360.15" y1="812.36" x2="3424.95" y2="812.36" style="stroke:#F0F0F0;stroke-width:9.72"/>
	<line x1="3457.35" y1="812.36" x2="3522.15" y2="812.36" style="stroke:#F0F0F0;stroke-width:9.72"/>
	<line x1="3554.55" y1="812.36" x2="3619.35" y2="812.36" style="stroke:#F0F0F0;stroke-width:9.72"/>
	<line x1="3651.75" y1="812.36" x2="3716.55" y2="812.36" style="stroke:#F0F0F0;stroke-width:9.72"/>
	<line x1="3748.95" y1="812.36" x2="3813.75" y2="812.36" style="stroke:#F0F0F0;stroke-width:9.72"/>
	<line x1="3846.15" y1="812.36" x2="3910.95" y2="812.36" style="stroke:#F0F0F0;stroke-width:9.72"/>
	<line x1="3943.35" y1="812.36" x2="4008.15" y2="812.36" style="stroke:#F0F0F0;stroke-width:9.72"/>
	<line x1="4040.55" y1="812.36" x2="4105.35" y2="812.36" style="stroke:#F0F0F0;stroke-width:9.72"/>
	<line x1="4137.75" y1="812.36" x2="4202.55" y2="812.36" style="stroke:#F0F0F0;stroke-width:9.72"/>
	<line x1="4234.95" y1="812.36" x2="4299.75" y2="812.36" style="stroke:#F0F0F0;stroke-width:9.72"/>
	<line x1="4332.15" y1="812.36" x2="4364.72" y2="812.36" style="stroke:#F0F0F0;stroke-width:9.72"/>
	<line x1="346.95" y1="184.61" x2="411.75" y2="184.61" style="stroke:#F0F0F0;stroke-width:9.72"/>
	<line x1="444.15" y1="184.61" x2="508.95" y2="184.61" style="stroke:#F0F0F0;stroke-width:9.72"/>
	<line x1="541.35" y1="184.61" x2="606.15" y2="184.61" style="stroke:#F0F0F0;stroke-width:9.72"/>
	<line x1="638.55" y1="184.61" x2="703.35" y2="184.61" style="stroke:#F0F0F0;stroke-width:9.72"/>
	<line x1="735.75" y1="184.61" x2="800.55" y2="184.61" style="stroke:#F0F0F0;stroke-width:9.72"/>
	<line x1="832.95" y1="184.61" x2="897.75" y2="184.61" style="stroke:#F0F0F0;stroke-width:9.72"/>
	<line x1="930.15" y1="184.61" x2="994.95" y2="184.61" style="stroke:#F0F0F0;stroke-width:9.72"/>
	<line x1="1027.35" y1="184.61" x2="1092.15" y2="184.61" style="stroke:#F0F0F0;stroke-width:9.72"/>
	<line x1="1124.55" y1="184.61" x2="1189.35" y2="184.61" style="stroke:#F0F0F0;stroke-width:9.72"/>
	<line x1="1221.75" y1="184.61" x2="1286.55" y2="184.61" style="stroke:#F0F0F0;stroke-width:9.72"/>
	<line x1="1318.95" y1="184.61" x2="1383.75" y2="184.61" style="stroke:#F0F0F0;stroke-width:9.72"/>
	<line x1="1416.15" y1="184.61" x2="1480.95" y2="184.61" style="stroke:#F0F0F0;stroke-width:9.72"/>
	<line x1="1513.35" y1="184.61" x2="1578.15" y2="184.61" style="stroke:#F0F0F0;stroke-width:9.72"/>
	<line x1="1610.55" y1="184.61" x2="1675.35" y2="184.61" style="stroke:#F0F0F0;stroke-width:9.72"/>
	<line x1="1707.75" y1="184.61" x2="1772.55" y2="184.61" style="stroke:#F0F0F0;stroke-width:9.72"/>
	<line x1="1804.95" y1="184.61" x2="1869.75" y2="184.61" style="stroke:#F0F0F0;stroke-width:9.72"/>
	<line x1="1902.15" y1="184.61" x2="1966.95" y2="184.61" style="stroke:#F0F0F0;stroke-width:9.72"/>
	<line x1="1999.35" y1="184.61" x2="2064.15" y2="184.61" style="stroke:#F0F0F0;stroke-width:9.72"/>
	<line x1="2096.55" y1="184.61" x2="2161.35" y2="184.61" style="stroke:#F0F0F0;stroke-width:9.72"/>
	<line x1="2193.75" y1="184.61" x2="2258.55" y2="184.61" style="stroke:#F0F0F0;stroke-width:9.72"/>
	<line x1="2290.95" y1="184.61" x2="2355.75" y2="184.61" style="stroke:#F0F0F0;stroke-width:9.72"/>
	<line x1="2388.15" y1="184.61" x2="2452.95" y2="184.61" style="stroke:#F0F0F0;stroke-width:9.72"/>
	<line x1="2485.35" y1="184.61" x2="2550.15" y2="184.61" style="stroke:#F0F0F0;stroke-width:9.72"/>
	<line x1="2582.55" y1="184.61" x2="2647.35" y2="184.61" style="stroke:#F0F0F0;stroke-width:9.72"/>
	<line x1="2679.75" y1="184.61" x2="2744.55" y2="184.61" style="stroke:#F0F0F0;stroke-width:9.72"/>
	<line x1="2776.95" y1="184.61" x2="2841.75" y2="184.61" style="stroke:#F0F0F0;stroke-width:9.72"/>
	<line x1="2874.15" y1="184.61" x2="2938.95" y2="184.61" style="stroke:#F0F0F0;stroke-width:9.72"/>
	<line x1="2971.35" y1="184.61" x2="3036.15" y2="184.61" style="stroke:#F0F0F0;stroke-width:9.72"/>
	<line x1="3068.55" y1="184.61" x2="3133.35" y2="184.61" style="stroke:#F0F0F0;stroke-width:9.72"/>
	<line x1="3165.75" y1="184.61" x2="3230.55" y2="184.61" style="stroke:#F0F0F0;stroke-width:9.72"/>
	<line x1="3262.95" y1="184.61" x2="3327.75" y2="184.61" style="stroke:#F0F0F0;stroke-width:9.72"/>
	<line x1="3360.15" y1="184.61" x2="3424.95" y2="184.61" style="stroke:#F0F0F0;stroke-width:9.72"/>
	<line x1="3457.35" y1="184.61" x2="3522.15" y2="184.61" style="stroke:#F0F0F0;stroke-width:9.72"/>
	<line x1="3554.55" y1="184.61" x2="3619.35" y2="184.61" style="stroke:#F0F0F0;stroke-width:9.72"/>
	<line x1="3651.75" y1="184.61" x2="3716.55" y2="184.61" style="stroke:#F0F0F0;stroke-width:9.72"/>
	<line x1="3748.95" y1="184.61" x2="3813.75" y2="184.61" style="stroke:#F0F0F0;stroke-width:9.72"/>
	<line x1="3846.15" y1="184.61" x2="3910.95" y2="184.61" style="stroke:#F0F0F0;stroke-width:9.72"/>
	<line x1="3943.35" y1="184.61" x2="4008.15" y2="184.61" style="stroke:#F0F0F0;stroke-width:9.72"/>
	<line x1="4040.55" y1="184.61" x2="4105.35" y2="184.61" style="stroke:#F0F0F0;stroke-width:9.72"/>
	<line x1="4137.75" y1="184.61" x2="4202.55" y2="184.61" style="stroke:#F0F0F0;stroke-width:9.72"/>
	<line x1="4234.95" y1="184.61" x2="4299.75" y2="184.61" style="stroke:#F0F0F0;stroke-width:9.72"/>
	<line x1="4332.15" y1="184.61" x2="4364.72" y2="184.61" style="stroke:#F0F0F0;stroke-width:9.72"/>
	<line x1="418.16" y1="2766.66" x2="418.16" y2="2701.86" style="stroke:#F0F0F0;stroke-width:9.72"/>
	<line x1="418.16" y1="2669.46" x2="418.16" y2="2604.66" style="stroke:#F0F0F0;stroke-width:9.72"/>
	<line x1="418.16" y1="2572.26" x2="418.16" y2="2507.46" style="stroke:#F0F0F0;stroke-width:9.72"/>
	<line x1="418.16" y1="2475.06" x2="418.16" y2="2410.26" style="stroke:#F0F0F0;stroke-width:9.72"/>
	<line x1="418.16" y1="2377.86" x2="418.16" y2="2313.06" style="stroke:#F0F0F0;stroke-width:9.72"/>
	<line x1="418.16" y1="2280.66" x2="418.16" y2="2215.86" style="stroke:#F0F0F0;stroke-width:9.72"/>
	<line x1="418.16" y1="2183.46" x2="418.16" y2="2118.66" style="stroke:#F0F0F0;stroke-width:9.72"/>
	<line x1="418.16" y1="2086.26" x2="418.16" y2="2021.46" style="stroke:#F0F0F0;stroke-width:9.72"/>
	<line x1="418.16" y1="1989.06" x2="418.16" y2="1924.26" style="stroke:#F0F0F0;stroke-width:9.72"/>
	<line x1="418.16" y1="1891.86" x2="418.16" y2="1827.06" style="stroke:#F0F0F0;stroke-width:9.72"/>
	<line x1="418.16" y1="1794.66" x2="418.16" y2="1729.86" style="stroke:#F0F0F0;stroke-width:9.72"/>
	<line x1="418.16" y1="1697.46" x2="418.16" y2="1632.66" style="stroke:#F0F0F0;stroke-width:9.72"/>
	<line x1="418.16" y1="1600.26" x2="418.16" y2="1535.46" style="stroke:#F0F0F0;stroke-width:9.72"/>
	<line x1="418.16" y1="1503.06" x2="418.16" y2="1438.26" style="stroke:#F0F0F0;stroke-width:9.72"/>
	<line x1="418.16" y1="1405.86" x2="418.16" y2="1341.06" style="stroke:#F0F0F0;stroke-width:9.72"/>
	<line x1="418.16" y1="1308.66" x2="418.16" y2="1243.86" style="stroke:#F0F0F0;stroke-width:9.72"/>
	<line x1="418.16" y1="1211.46" x2="418.16" y2="1146.66" style="stroke:#F0F0F0;stroke-width:9.72"/>
	<line x1="418.16" y1="1114.26" x2="418.16" y2="1049.46" style="stroke:#F0F0F0;stroke-width:9.72"/>
	<line x1="418.16" y1="1017.06" x2="418.16" y2="952.26" style="stroke:#F0F0F0;stroke-width:9.72"/>
	<line x1="418.16" y1="919.86" x2="418.16" y2="855.06" style="stroke:#F0F0F0;stroke-width:9.72"/>
	<line x1="418.16" y1="822.66" x2="418.16" y2="757.86" style="stroke:#F0F0F0;stroke-width:9.72"/>
	<line x1="418.16" y1="725.46" x2="418.16" y2="660.66" style="stroke:#F0F0F0;stroke-width:9.72"/>
	<line x1="418.16" y1="628.26" x2="418.16" y2="563.46" style="stroke:#F0F0F0;stroke-width:9.72"/>
	<line x1="418.16" y1="531.06" x2="418.16" y2="466.26" style="stroke:#F0F0F0;stroke-width:9.72"/>
	<line x1="418.16" y1="433.86" x2="418.16" y2="369.06" style="stroke:#F0F0F0;stroke-width:9.72"/>
	<line x1="418.16" y1="336.66" x2="418.16" y2="271.86" style="stroke:#F0F0F0;stroke-width:9.72"/>
	<line x1="418.16" y1="239.46" x2="418.16" y2="174.66" style="stroke:#F0F0F0;stroke-width:9.72"/>
	<line x1="418.16" y1="142.26" x2="418.16" y2="113.40" style="stroke:#F0F0F0;stroke-width:9.72"/>
	<line x1="1344.60" y1="2766.66" x2="1344.60" y2="2701.86" style="stroke:#F0F0F0;stroke-width:9.72"/>
	<line x1="1344.60" y1="2669.46" x2="1344.60" y2="2604.66" style="stroke:#F0F0F0;stroke-width:9.72"/>
	<line x1="1344.60" y1="2572.26" x2="1344.60" y2="2507.46" style="stroke:#F0F0F0;stroke-width:9.72"/>
	<line x1="1344.60" y1="2475.06" x2="1344.60" y2="2410.26" style="stroke:#F0F0F0;stroke-width:9.72"/>
	<line x1="1344.60" y1="2377.86" x2="1344.60" y2="2313.06" style="stroke:#F0F0F0;stroke-width:9.72"/>
	<line x1="1344.60" y1="2280.66" x2="1344.60" y2="2215.86" style="stroke:#F0F0F0;stroke-width:9.72"/>
	<line x1="1344.60" y1="2183.46" x2="1344.60" y2="2118.66" style="stroke:#F0F0F0;stroke-width:9.72"/>
	<line x1="1344.60" y1="2086.26" x2="1344.60" y2="2021.46" style="stroke:#F0F0F0;stroke-width:9.72"/>
	<line x1="1344.60" y1="1989.06" x2="1344.60" y2="1924.26" style="stroke:#F0F0F0;stroke-width:9.72"/>
	<line x1="1344.60" y1="1891.86" x2="1344.60" y2="1827.06" style="stroke:#F0F0F0;stroke-width:9.72"/>
	<line x1="1344.60" y1="1794.66" x2="1344.60" y2="1729.86" style="stroke:#F0F0F0;stroke-width:9.72"/>
	<line x1="1344.60" y1="1697.46" x2="1344.60" y2="1632.66" style="stroke:#F0F0F0;stroke-width:9.72"/>
	<line x1="1344.60" y1="1600.26" x2="1344.60" y2="1535.46" style="stroke:#F0F0F0;stroke-width:9.72"/>
	<line x1="1344.60" y1="1503.06" x2="1344.60" y2="1438.26" style="stroke:#F0F0F0;stroke-width:9.72"/>
	<line x1="1344.60" y1="1405.86" x2="1344.60" y2="1341.06" style="stroke:#F0F0F0;stroke-width:9.72"/>
	<line x1="1344.60" y1="1308.66" x2="1344.60" y2="1243.86" style="stroke:#F0F0F0;stroke-width:9.72"/>
	<line x1="1344.60" y1="1211.46" x2="1344.60" y2="1146.66" style="stroke:#F0F0F0;stroke-width:9.72"/>
	<line x1="1344.60" y1="1114.26" x2="1344.60" y2="1049.46" style="stroke:#F0F0F0;stroke-width:9.72"/>
	<line x1="1344.60" y1="1017.06" x2="1344.60" y2="952.26" style="stroke:#F0F0F0;stroke-width:9.72"/>
	<line x1="1344.60" y1="919.86" x2="1344.60" y2="855.06" style="stroke:#F0F0F0;stroke-width:9.72"/>
	<line x1="1344.60" y1="822.66" x2="1344.60" y2="757.86" style="stroke:#F0F0F0;stroke-width:9.72"/>
	<line x1="1344.60" y1="725.46" x2="1344.60" y2="660.66" style="stroke:#F0F0F0;stroke-width:9.72"/>
	<line x1="1344.60" y1="628.26" x2="1344.60" y2="563.46" style="stroke:#F0F0F0;stroke-width:9.72"/>
	<line x1="1344.60" y1="531.06" x2="1344.60" y2="466.26" style="stroke:#F0F0F0;stroke-width:9.72"/>
	<line x1="1344.60" y1="433.86" x2="1344.60" y2="369.06" style="stroke:#F0F0F0;stroke-width:9.72"/>
	<line x1="1344.60" y1="336.66" x2="1344.60" y2="271.86" style="stroke:#F0F0F0;stroke-width:9.72"/>
	<line x1="1344.60" y1="239.46" x2="1344.60" y2="174.66" style="stroke:#F0F0F0;stroke-width:9.72"/>
	<line x1="1344.60" y1="142.26" x2="1344.60" y2="113.40" style="stroke:#F0F0F0;stroke-width:9.72"/>
	<line x1="2271.04" y1="2766.66" x2="2271.04" y2="2701.86" style="stroke:#F0F0F0;stroke-width:9.72"/>
	<line x1="2271.04" y1="2669.46" x2="2271.04" y2="2604.66" style="stroke:#F0F0F0;stroke-width:9.72"/>
	<line x1="2271.04" y1="2572.26" x2="2271.04" y2="2507.46" style="stroke:#F0F0F0;stroke-width:9.72"/>
	<line x1="2271.04" y1="2475.06" x2="2271.04" y2="2410.26" style="stroke:#F0F0F0;stroke-width:9.72"/>
	<line x1="2271.04" y1="2377.86" x2="2271.04" y2="2313.06" style="stroke:#F0F0F0;stroke-width:9.72"/>
	<line x1="2271.04" y1="2280.66" x2="2271.04" y2="2215.86" style="stroke:#F0F0F0;stroke-width:9.72"/>
	<line x1="2271.04" y1="2183.46" x2="2271.04" y2="2118.66" style="stroke:#F0F0F0;stroke-width:9.72"/>
	<line x1="2271.04" y1="2086.26" x2="2271.04" y2="2021.46" style="stroke:#F0F0F0;stroke-width:9.72"/>
	<line x1="2271.04" y1="1989.06" x2="2271.04" y2="1924.26" style="stroke:#F0F0F0;stroke-width:9.72"/>
	<line x1="2271.04" y1="1891.86" x2="2271.04" y2="1827.06" style="stroke:#F0F0F0;stroke-width:9.72"/>
	<line x1="2271.04" y1="1794.66" x2="2271.04" y2="1729.86" style="stroke:#F0F0F0;stroke-width:9.72"/>
	<line x1="2271.04" y1="1697.46" x2="2271.04" y2="1632.66" style="stroke:#F0F0F0;stroke-width:9.72"/>
	<line x1="2271.04" y1="1600.26" x2="2271.04" y2="1535.46" style="stroke:#F0F0F0;stroke-width:9.72"/>
	<line x1="2271.04" y1="1503.06" x2="2271.04" y2="1438.26" style="stroke:#F0F0F0;stroke-width:9.72"/>
	<line x1="2271.04" y1="1405.86" x2="2271.04" y2="1341.06" style="stroke:#F0F0F0;stroke-width:9.72"/>
	<line x1="2271.04" y1="1308.66" x2="2271.04" y2="1243.86" style="stroke:#F0F0F0;stroke-width:9.72"/>
	<line x1="2271.04" y1="1211.46" x2="2271.04" y2="1146.66" style="stroke:#F0F0F0;stroke-width:9.72"/>
	<line x1="2271.04" y1="1114.26" x2="2271.04" y2="1049.46" style="stroke:#F0F0F0;stroke-width:9.72"/>
	<line x1="2271.04" y1="1017.06" x2="2271.04" y2="952.26" style="stroke:#F0F0F0;stroke-width:9.72"/>
	<line x1="2271.04" y1="919.86" x2="2271.04" y2="855.06" style="stroke:#F0F0F0;stroke-width:9.72"/>
	<line x1="2271.04" y1="822.66" x2="2271.04" y2="757.86" style="stroke:#F0F0F0;stroke-width:9.72"/>
	<line x1="2271.04" y1="725.46" x2="2271.04" y2="660.66" style="stroke:#F0F0F0;stroke-width:9.72"/>
	<line x1="2271.04" y1="628.26" x2="2271.04" y2="563.46" style="stroke:#F0F0F0;stroke-width:9.72"/>
	<line x1="2271.04" y1="531.06" x2="2271.04" y2="466.26" style="stroke:#F0F0F0;stroke-width:9.72"/>
	<line x1="2271.04" y1="433.86" x2="2271.04" y2="369.06" style="stroke:#F0F0F0;stroke-width:9.72"/>
	<line x1="2271.04" y1="336.66" x2="2271.04" y2="271.86" style="stroke:#F0F0F0;stroke-width:9.72"/>
	<line x1="2271.04" y1="239.46" x2="2271.04" y2="174.66" style="stroke:#F0F0F0;stroke-width:9.72"/>
	<line x1="2271.04" y1="142.26" x2="2271.04" y2="113.40" style="stroke:#F0F0F0;stroke-width:9.72"/>
	<line x1="3197.64" y1="2766.66" x2="3197.64" y2="2701.86" style="stroke:#F0F0F0;stroke-width:9.72"/>
	<line x1="3197.64" y1="2669.46" x2="3197.64" y2="2604.66" style="stroke:#F0F0F0;stroke-width:9.72"/>
	<line x1="3197.64" y1="2572.26" x2="3197.64" y2="2507.46" style="stroke:#F0F0F0;stroke-width:9.72"/>
	<line x1="3197.64" y1="2475.06" x2="3197.64" y2="2410.26" style="stroke:#F0F0F0;stroke-width:9.72"/>
	<line x1="3197.64" y1="2377.86" x2="3197.64" y2="2313.06" style="stroke:#F0F0F0;stroke-width:9.72"/>
	<line x1="3197.64" y1="2280.66" x2="3197.64" y2="2215.86" style="stroke:#F0F0F0;stroke-width:9.72"/>
	<line x1="3197.64" y1="2183.46" x2="3197.64" y2="2118.66" style="stroke:#F0F0F0;stroke-width:9.72"/>
	<line x1="3197.64" y1="2086.26" x2="3197.64" y2="2021.46" style="stroke:#F0F0F0;stroke-width:9.72"/>
	<line x1="3197.64" y1="1989.06" x2="3197.64" y2="1924.26" style="stroke:#F0F0F0;stroke-width:9.72"/>
	<line x1="3197.64" y1="1891.86" x2="3197.64" y2="1827.06" style="stroke:#F0F0F0;stroke-width:9.72"/>
	<line x1="3197.64" y1="1794.66" x2="3197.64" y2="1729.86" style="stroke:#F0F0F0;stroke-width:9.72"/>
	<line x1="3197.64" y1="1697.46" x2="3197.64" y2="1632.66" style="stroke:#F0F0F0;stroke-width:9.72"/>
	<line x1="3197.64" y1="1600.26" x2="3197.64" y2="1535.46" style="stroke:#F0F0F0;stroke-width:9.72"/>
	<line x1="3197.64" y1="1503.06" x2="3197.64" y2="1438.26" style="stroke:#F0F0F0;stroke-width:9.72"/>
	<line x1="3197.64" y1="1405.86" x2="3197.64" y2="1341.06" style="stroke:#F0F0F0;stroke-width:9.72"/>
	<line x1="3197.64" y1="1308.66" x2="3197.64" y2="1243.86" style="stroke:#F0F0F0;stroke-width:9.72"/>
	<line x1="3197.64" y1="1211.46" x2="3197.64" y2="1146.66" style="stroke:#F0F0F0;stroke-width:9.72"/>
	<line x1="3197.64" y1="1114.26" x2="3197.64" y2="1049.46" style="stroke:#F0F0F0;stroke-width:9.72"/>
	<line x1="3197.64" y1="1017.06" x2="3197.64" y2="952.26" style="stroke:#F0F0F0;stroke-width:9.72"/>
	<line x1="3197.64" y1="919.86" x2="3197.64" y2="855.06" style="stroke:#F0F0F0;stroke-width:9.72"/>
	<line x1="3197.64" y1="822.66" x2="3197.64" y2="757.86" style="stroke:#F0F0F0;stroke-width:9.72"/>
	<line x1="3197.64" y1="725.46" x2="3197.64" y2="660.66" style="stroke:#F0F0F0;stroke-width:9.72"/>
	<line x1="3197.64" y1="628.26" x2="3197.64" y2="563.46" style="stroke:#F0F0F0;stroke-width:9.72"/>
	<line x1="3197.64" y1="531.06" x2="3197.64" y2="466.26" style="stroke:#F0F0F0;stroke-width:9.72"/>
	<line x1="3197.64" y1="433.86" x2="3197.64" y2="369.06" style="stroke:#F0F0F0;stroke-width:9.72"/>
	<line x1="3197.64" y1="336.66" x2="3197.64" y2="271.86" style="stroke:#F0F0F0;stroke-width:9.72"/>
	<line x1="3197.64" y1="239.46" x2="3197.64" y2="174.66" style="stroke:#F0F0F0;stroke-width:9.72"/>
	<line x1="3197.64" y1="142.26" x2="3197.64" y2="113.40" style="stroke:#F0F0F0;stroke-width:9.72"/>
	<line x1="4124.08" y1="2766.66" x2="4124.08" y2="2701.86" style="stroke:#F0F0F0;stroke-width:9.72"/>
	<line x1="4124.08" y1="2669.46" x2="4124.08" y2="2604.66" style="stroke:#F0F0F0;stroke-width:9.72"/>
	<line x1="4124.08" y1="2572.26" x2="4124.08" y2="2507.46" style="stroke:#F0F0F0;stroke-width:9.72"/>
	<line x1="4124.08" y1="2475.06" x2="4124.08" y2="2410.26" style="stroke:#F0F0F0;stroke-width:9.72"/>
	<line x1="4124.08" y1="2377.86" x2="4124.08" y2="2313.06" style="stroke:#F0F0F0;stroke-width:9.72"/>
	<line x1="4124.08" y1="2280.66" x2="4124.08" y2="2215.86" style="stroke:#F0F0F0;stroke-width:9.72"/>
	<line x1="4124.08" y1="2183.46" x2="4124.08" y2="2118.66" style="stroke:#F0F0F0;stroke-width:9.72"/>
	<line x1="4124.08" y1="2086.26" x2="4124.08" y2="2021.46" style="stroke:#F0F0F0;stroke-width:9.72"/>
	<line x1="4124.08" y1="1989.06" x2="4124.08" y2="1924.26" style="stroke:#F0F0F0;stroke-width:9.72"/>
	<line x1="4124.08" y1="1891.86" x2="4124.08" y2="1827.06" style="stroke:#F0F0F0;stroke-width:9.72"/>
	<line x1="4124.08" y1="1794.66" x2="4124.08" y2="1729.86" style="stroke:#F0F0F0;stroke-width:9.72"/>
	<line x1="4124.08" y1="1697.46" x2="4124.08" y2="1632.66" style="stroke:#F0F0F0;stroke-width:9.72"/>
	<line x1="4124.08" y1="1600.26" x2="4124.08" y2="1535.46" style="stroke:#F0F0F0;stroke-width:9.72"/>
	<line x1="4124.08" y1="1503.06" x2="4124.08" y2="1438.26" style="stroke:#F0F0F0;stroke-width:9.72"/>
	<line x1="4124.08" y1="1405.86" x2="4124.08" y2="1341.06" style="stroke:#F0F0F0;stroke-width:9.72"/>
	<line x1="4124.08" y1="1308.66" x2="4124.08" y2="1243.86" style="stroke:#F0F0F0;stroke-width:9.72"/>
	<line x1="4124.08" y1="1211.46" x2="4124.08" y2="1146.66" style="stroke:#F0F0F0;stroke-width:9.72"/>
	<line x1="4124.08" y1="1114.26" x2="4124.08" y2="1049.46" style="stroke:#F0F0F0;stroke-width:9.72"/>
	<line x1="4124.08" y1="1017.06" x2="4124.08" y2="952.26" style="stroke:#F0F0F0;stroke-width:9.72"/>
	<line x1="4124.08" y1="919.86" x2="4124.08" y2="855.06" style="stroke:#F0F0F0;stroke-width:9.72"/>
	<line x1="4124.08" y1="822.66" x2="4124.08" y2="757.86" style="stroke:#F0F0F0;stroke-width:9.72"/>
	<line x1="4124.08" y1="725.46" x2="4124.08" y2="660.66" style="stroke:#F0F0F0;stroke-width:9.72"/>
	<line x1="4124.08" y1="628.26" x2="4124.08" y2="563.46" style="stroke:#F0F0F0;stroke-width:9.72"/>
	<line x1="4124.08" y1="531.06" x2="4124.08" y2="466.26" style="stroke:#F0F0F0;stroke-width:9.72"/>
	<line x1="4124.08" y1="433.86" x2="4124.08" y2="369.06" style="stroke:#F0F0F0;stroke-width:9.72"/>
	<line x1="4124.08" y1="336.66" x2="4124.08" y2="271.86" style="stroke:#F0F0F0;stroke-width:9.72"/>
	<line x1="4124.08" y1="239.46" x2="4124.08" y2="174.66" style="stroke:#F0F0F0;stroke-width:9.72"/>
	<line x1="4124.08" y1="142.26" x2="4124.08" y2="113.40" style="stroke:#F0F0F0;stroke-width:9.72"/>
	<line x1="2271.04" y1="2766.66" x2="2271.04" y2="2701.86" style="stroke:#000000;stroke-width:9.72"/>
	<line x1="2271.04" y1="2669.46" x2="2271.04" y2="2604.66" style="stroke:#000000;stroke-width:9.72"/>
	<line x1="2271.04" y1="2572.26" x2="2271.04" y2="2507.46" style="stroke:#000000;stroke-width:9.72"/>
	<line x1="2271.04" y1="2475.06" x2="2271.04" y2="2410.26" style="stroke:#000000;stroke-width:9.72"/>
	<line x1="2271.04" y1="2377.86" x2="2271.04" y2="2313.06" style="stroke:#000000;stroke-width:9.72"/>
	<line x1="2271.04" y1="2280.66" x2="2271.04" y2="2215.86" style="stroke:#000000;stroke-width:9.72"/>
	<line x1="2271.04" y1="2183.46" x2="2271.04" y2="2118.66" style="stroke:#000000;stroke-width:9.72"/>
	<line x1="2271.04" y1="2086.26" x2="2271.04" y2="2021.46" style="stroke:#000000;stroke-width:9.72"/>
	<line x1="2271.04" y1="1989.06" x2="2271.04" y2="1924.26" style="stroke:#000000;stroke-width:9.72"/>
	<line x1="2271.04" y1="1891.86" x2="2271.04" y2="1827.06" style="stroke:#000000;stroke-width:9.72"/>
	<line x1="2271.04" y1="1794.66" x2="2271.04" y2="1729.86" style="stroke:#000000;stroke-width:9.72"/>
	<line x1="2271.04" y1="1697.46" x2="2271.04" y2="1632.66" style="stroke:#000000;stroke-width:9.72"/>
	<line x1="2271.04" y1="1600.26" x2="2271.04" y2="1535.46" style="stroke:#000000;stroke-width:9.72"/>
	<line x1="2271.04" y1="1503.06" x2="2271.04" y2="1438.26" style="stroke:#000000;stroke-width:9.72"/>
	<line x1="2271.04" y1="1405.86" x2="2271.04" y2="1341.06" style="stroke:#000000;stroke-width:9.72"/>
	<line x1="2271.04" y1="1308.66" x2="2271.04" y2="1243.86" style="stroke:#000000;stroke-width:9.72"/>
	<line x1="2271.04" y1="1211.46" x2="2271.04" y2="1146.66" style="stroke:#000000;stroke-width:9.72"/>
	<line x1="2271.04" y1="1114.26" x2="2271.04" y2="1049.46" style="stroke:#000000;stroke-width:9.72"/>
	<line x1="2271.04" y1="1017.06" x2="2271.04" y2="952.26" style="stroke:#000000;stroke-width:9.72"/>
	<line x1="2271.04" y1="919.86" x2="2271.04" y2="855.06" style="stroke:#000000;stroke-width:9.72"/>
	<line x1="2271.04" y1="822.66" x2="2271.04" y2="757.86" style="stroke:#000000;stroke-width:9.72"/>
	<line x1="2271.04" y1="725.46" x2="2271.04" y2="660.66" style="stroke:#000000;stroke-width:9.72"/>
	<line x1="2271.04" y1="628.26" x2="2271.04" y2="563.46" style="stroke:#000000;stroke-width:9.72"/>
	<line x1="2271.04" y1="531.06" x2="2271.04" y2="466.26" style="stroke:#000000;stroke-width:9.72"/>
	<line x1="2271.04" y1="433.86" x2="2271.04" y2="369.06" style="stroke:#000000;stroke-width:9.72"/>
	<line x1="2271.04" y1="336.66" x2="2271.04" y2="271.86" style="stroke:#000000;stroke-width:9.72"/>
	<line x1="2271.04" y1="239.46" x2="2271.04" y2="174.66" style="stroke:#000000;stroke-width:9.72"/>
	<line x1="2271.04" y1="142.26" x2="2271.04" y2="113.40" style="stroke:#000000;stroke-width:9.72"/>
	<path d=" M765.62 2661.02 L777.43 2657.98 L789.24 2654.78 L801.06 2651.23 L812.87 2647.35 L824.68 2642.63 L836.49 2638.24 L848.14 2633.18 L859.95 2627.61 L871.76 2622.04 L883.58 2615.96 L895.39 2610.39 L907.20 2603.31 L919.01 2596.22 L930.83 2588.96 L942.64 2581.20 L954.45 2573.44 L966.26 2566.18 L978.08 2559.26 L989.72 2553.19 L1001.53 2547.62 L1013.34 2540.70 L1025.16 2533.28 L1036.97 2524.50 L1048.78 2514.54 L1060.59 2503.91 L1072.41 2493.45 L1084.22 2482.82 L1096.03 2472.36 L1107.84 2462.06 L1119.66 2451.60 L1131.30 2441.48 L1143.11 2432.03 L1154.93 2422.57 L1166.74 2412.79 L1178.55 2403.00 L1190.36 2393.21 L1202.18 2383.59 L1213.99 2373.30 L1225.80 2362.67 L1237.61 2352.21 L1249.43 2342.25 L1261.24 2331.62 L1272.88 2319.30 L1284.69 2307.15 L1296.51 2294.83 L1308.32 2278.63 L1320.13 2263.11 L1331.94 2246.57 L1343.76 2230.54 L1355.57 2212.82 L1367.38 2193.92 L1379.19 2174.51 L1391.01 2151.90 L1402.82 2130.30 L1414.46 2110.22 L1426.28 2091.15 L1438.09 2072.08 L1449.90 2052.51 L1461.71 2032.59 L1473.53 2013.19 L1485.34 1993.28 L1497.15 1972.18 L1508.96 1951.09 L1520.78 1930.33 L1532.59 1908.06 L1544.40 1883.93 L1556.04 1856.76 L1567.86 1829.59 L1579.67 1801.07 L1591.48 1772.04 L1603.29 1743.86 L1615.11 1715.85 L1626.92 1684.63 L1638.73 1652.74 L1650.54 1617.98 L1662.36 1584.90 L1674.17 1553.85 L1685.81 1522.63 L1697.63 1491.75 L1709.44 1462.56 L1721.25 1434.38 L1733.06 1409.06 L1744.88 1384.93 L1756.69 1360.13 L1768.50 1333.13 L1780.31 1303.26 L1792.13 1273.05 L1803.94 1243.52 L1815.75 1214.33 L1827.39 1187.66 L1839.21 1159.65 L1851.02 1127.59 L1862.83 1097.38 L1874.64 1066.50 L1886.46 1035.28 L1898.27 1001.53 L1910.08 970.48 L1921.89 941.79 L1933.71 913.28 L1945.52 886.44 L1957.33 861.30 L1968.98 837.34 L1980.79 817.26 L1992.60 797.34 L2004.41 778.61 L2016.23 759.54 L2028.04 739.80 L2039.85 721.41 L2051.66 705.38 L2063.48 688.33 L2075.29 669.60 L2087.10 651.88 L2098.91 634.67 L2110.56 618.13 L2122.37 603.79 L2134.18 593.66 L2145.99 586.91 L2157.81 581.01 L2169.62 572.23 L2181.43 562.78 L2193.24 551.98 L2205.06 541.52 L2216.87 530.21 L2228.68 518.74 L2240.49 510.13 L2252.14 506.59 L2263.95 507.77 L2275.76 513.17 L2287.57 520.43 L2299.39 528.53 L2311.20 534.77 L2323.01 540.68 L2334.82 548.27 L2346.64 559.91 L2358.45 572.57 L2370.26 586.41 L2382.07 597.38 L2393.72 607.50 L2405.53 618.64 L2417.34 629.27 L2429.16 635.85 L2440.97 643.95 L2452.78 655.93 L2464.59 671.46 L2476.41 688.84 L2488.22 706.56 L2500.03 724.28 L2511.84 746.89 L2523.66 772.03 L2535.30 796.67 L2547.11 821.98 L2558.93 847.29 L2570.74 870.92 L2582.55 891.68 L2594.36 911.76 L2606.18 932.34 L2617.99 954.62 L2629.80 978.92 L2641.61 1001.87 L2653.43 1024.99 L2665.24 1049.63 L2676.88 1078.14 L2688.69 1108.52 L2700.51 1136.70 L2712.32 1164.71 L2724.13 1194.92 L2735.94 1221.75 L2747.76 1245.21 L2759.57 1266.81 L2771.38 1285.88 L2783.19 1307.81 L2795.01 1333.29 L2806.82 1362.15 L2818.46 1392.02 L2830.28 1422.06 L2842.09 1451.76 L2853.90 1483.65 L2865.71 1516.22 L2877.53 1549.46 L2889.34 1584.90 L2901.15 1619.49 L2912.96 1652.57 L2924.78 1683.96 L2936.59 1714.16 L2948.40 1741.16 L2960.04 1764.96 L2971.86 1787.06 L2983.67 1810.35 L2995.48 1833.47 L3007.29 1855.24 L3019.11 1878.36 L3030.92 1900.46 L3042.73 1923.58 L3054.54 1947.88 L3066.36 1972.35 L3078.17 1997.16 L3089.98 2023.14 L3101.63 2050.31 L3113.44 2074.11 L3125.25 2093.51 L3137.06 2113.26 L3148.88 2133.84 L3160.69 2155.44 L3172.50 2175.53 L3184.31 2196.11 L3196.13 2214.34 L3207.94 2233.07 L3219.75 2251.63 L3231.56 2268.84 L3243.21 2284.03 L3255.02 2300.23 L3266.83 2316.43 L3278.64 2330.94 L3290.46 2343.77 L3302.27 2353.56 L3314.08 2362.67 L3325.89 2372.46 L3337.71 2383.43 L3349.52 2394.73 L3361.33 2405.03 L3373.14 2415.49 L3384.79 2425.78 L3396.60 2436.58 L3408.41 2446.37 L3420.23 2456.66 L3432.04 2466.79 L3443.85 2477.93 L3455.66 2489.57 L3467.48 2500.03 L3479.29 2509.14 L3491.10 2516.06 L3502.91 2522.14 L3514.73 2527.71 L3526.37 2534.12 L3538.18 2540.03 L3549.99 2545.93 L3561.81 2551.84 L3573.62 2557.07 L3585.43 2561.46 L3597.24 2565.00 L3609.06 2568.88 L3620.87 2572.76 L3632.68 2576.81 L3644.49 2581.20 L3656.31 2585.76 L3667.95 2589.98 L3679.76 2594.36 L3691.58 2599.26 L3703.39 2603.98 L3715.20 2608.71 L3727.01 2613.43 L3738.83 2618.16 L3750.64 2621.87 L3762.45 2625.24 L3774.26 2628.79 L3786.08 2631.99 L3797.89 2635.71 L3809.53 2639.76 L3821.34 2644.14 L3833.16 2647.18 L3844.97 2649.88 L3856.78 2652.58 L3868.59 2655.45 L3880.41 2658.32 L3892.22 2660.34 L3904.03 2662.54 L3915.84 2664.39 L3927.66 2665.91 L3939.47 2667.09 L3951.11 2668.61 L3962.93 2670.30 L3974.74 2671.31 L3986.55 2672.49 L3998.36 2673.84 L4010.18 2675.36 L4021.99 2676.88 L4033.80 2678.06 L4045.61 2678.91 L4057.43 2679.58 L4069.24 2680.26 L4081.05 2681.10 L4092.69 2681.94 L4104.51 2682.96 L4116.32 2683.46 L4128.13 2683.97 L4139.94 2683.97 L4151.76 2683.97 L4163.57 2683.97 L4175.38 2684.14 L4187.19 2684.31 L4199.01 2684.48 L4210.82 2684.81 L4222.63 2685.15 L4234.27 2685.66 L4246.09 2685.99 L4257.90 2686.67 L4269.71 2687.18 L4281.52 2687.34 L4293.34 2687.34" stroke-linejoin="round" style="fill:none;stroke:#1A85FF;stroke-width:9.72"/>
	<path d=" M696.26 2658.32 L707.40 2655.11 L718.54 2651.91 L729.84 2648.03 L740.98 2643.47 L752.12 2638.58 L763.43 2634.19 L774.56 2628.28 L785.70 2622.54 L796.84 2616.47 L808.14 2610.39 L819.28 2604.82 L830.42 2597.57 L841.73 2590.14 L852.86 2582.72 L864.00 2574.79 L875.31 2566.69 L886.44 2559.43 L897.58 2552.18 L908.89 2545.93 L920.03 2540.36 L931.16 2533.78 L942.47 2526.69 L953.61 2518.26 L964.74 2507.63 L975.88 2496.66 L987.19 2485.86 L998.33 2474.21 L1009.46 2463.07 L1020.77 2452.11 L1031.91 2441.31 L1043.04 2430.51 L1054.35 2420.21 L1065.49 2410.43 L1076.63 2400.81 L1087.93 2391.02 L1099.07 2379.71 L1110.21 2369.25 L1121.34 2358.96 L1132.65 2348.32 L1143.79 2338.88 L1154.93 2329.43 L1166.23 2319.13 L1177.37 2307.49 L1188.51 2295.84 L1199.81 2283.86 L1210.95 2269.86 L1222.09 2253.82 L1233.39 2235.94 L1244.53 2218.39 L1255.67 2199.66 L1266.81 2180.93 L1278.11 2160.84 L1289.25 2137.89 L1300.39 2114.94 L1311.69 2093.68 L1322.83 2072.93 L1333.97 2054.36 L1345.28 2032.09 L1356.41 2010.66 L1367.55 1990.24 L1378.86 1968.64 L1389.99 1947.21 L1401.13 1925.27 L1412.44 1902.83 L1423.58 1880.04 L1434.71 1855.58 L1445.85 1827.90 L1457.16 1800.39 L1468.29 1769.18 L1479.43 1737.96 L1490.74 1707.58 L1501.88 1677.54 L1513.01 1646.33 L1524.32 1612.91 L1535.46 1579.33 L1546.59 1543.89 L1557.90 1510.48 L1569.04 1477.74 L1580.18 1446.86 L1591.31 1414.46 L1602.62 1384.93 L1613.76 1356.08 L1624.89 1329.58 L1636.20 1303.59 L1647.34 1277.44 L1658.48 1250.61 L1669.78 1221.92 L1680.92 1191.38 L1692.06 1161.17 L1703.36 1133.66 L1714.50 1106.83 L1725.64 1076.63 L1736.78 1041.86 L1748.08 1006.59 L1759.22 973.35 L1770.36 939.77 L1781.66 906.36 L1792.80 874.46 L1803.94 843.75 L1815.24 814.89 L1826.38 788.91 L1837.52 765.62 L1848.83 743.85 L1859.96 722.08 L1871.10 700.48 L1882.41 681.07 L1893.54 660.49 L1904.68 641.25 L1915.82 622.86 L1927.13 604.63 L1938.26 586.07 L1949.40 567.17 L1960.71 548.27 L1971.84 531.22 L1982.98 511.65 L1994.29 498.66 L2005.43 489.54 L2016.56 482.29 L2027.87 474.19 L2039.01 465.58 L2050.14 454.61 L2061.28 440.61 L2072.59 429.13 L2083.73 417.49 L2094.86 407.36 L2106.17 398.25 L2117.31 395.55 L2128.44 397.24 L2139.75 402.13 L2150.89 408.04 L2162.03 414.11 L2173.33 421.20 L2184.47 428.46 L2195.61 439.59 L2206.74 449.21 L2218.05 462.54 L2229.19 475.71 L2240.32 485.83 L2251.63 493.93 L2262.77 504.73 L2273.91 516.71 L2285.21 527.34 L2296.35 537.81 L2307.49 551.81 L2318.79 567.00 L2329.93 583.54 L2341.07 602.10 L2352.21 625.72 L2363.51 652.22 L2374.65 679.39 L2385.79 706.22 L2397.09 732.38 L2408.23 759.38 L2419.37 781.48 L2430.68 803.42 L2441.81 824.68 L2452.95 847.13 L2464.26 871.76 L2475.39 896.06 L2486.53 921.21 L2497.84 944.83 L2508.98 974.70 L2520.11 1005.24 L2531.25 1037.64 L2542.56 1068.69 L2553.69 1101.26 L2564.83 1130.63 L2576.14 1156.28 L2587.28 1180.07 L2598.41 1200.99 L2609.72 1220.91 L2620.86 1244.36 L2631.99 1271.19 L2643.30 1300.05 L2654.44 1330.76 L2665.58 1360.80 L2676.71 1390.33 L2688.02 1422.06 L2699.16 1454.79 L2710.29 1488.88 L2721.60 1522.29 L2732.74 1556.72 L2743.88 1590.98 L2755.18 1621.86 L2766.32 1651.39 L2777.46 1681.26 L2788.76 1709.44 L2799.90 1734.92 L2811.04 1759.73 L2822.18 1785.88 L2833.48 1809.00 L2844.62 1830.94 L2855.76 1853.38 L2867.06 1879.03 L2878.20 1906.20 L2889.34 1933.71 L2900.64 1961.04 L2911.78 1988.38 L2922.92 2016.06 L2934.23 2039.18 L2945.36 2060.94 L2956.50 2081.70 L2967.81 2103.64 L2978.94 2125.91 L2990.08 2148.19 L3001.22 2169.96 L3012.53 2188.35 L3023.66 2207.93 L3034.80 2227.33 L3046.11 2246.23 L3057.24 2264.29 L3068.38 2282.34 L3079.69 2299.73 L3090.83 2314.74 L3101.96 2327.74 L3113.27 2337.53 L3124.41 2346.81 L3135.54 2357.27 L3146.68 2368.41 L3157.99 2379.71 L3169.13 2391.36 L3180.26 2402.49 L3191.57 2413.97 L3202.71 2424.94 L3213.84 2434.73 L3225.15 2444.18 L3236.29 2454.98 L3247.43 2467.13 L3258.73 2479.61 L3269.87 2490.41 L3281.01 2499.53 L3292.14 2508.13 L3303.45 2514.88 L3314.59 2520.79 L3325.73 2527.54 L3337.03 2534.96 L3348.17 2542.05 L3359.31 2547.79 L3370.61 2551.50 L3381.75 2555.38 L3392.89 2559.43 L3404.19 2563.99 L3415.33 2568.21 L3426.47 2572.09 L3437.78 2576.64 L3448.91 2581.88 L3460.05 2586.26 L3471.19 2590.48 L3482.49 2595.54 L3493.63 2600.94 L3504.77 2606.68 L3516.08 2611.74 L3527.21 2615.46 L3538.35 2618.83 L3549.66 2622.54 L3560.79 2626.59 L3571.93 2630.48 L3583.24 2634.69 L3594.38 2638.91 L3605.51 2643.13 L3616.65 2646.84 L3627.96 2649.88 L3639.09 2652.92 L3650.23 2655.62 L3661.54 2658.15 L3672.68 2660.34 L3683.81 2662.20 L3695.12 2664.23 L3706.26 2666.25 L3717.39 2667.94 L3728.70 2669.12 L3739.84 2670.30 L3750.98 2671.48 L3762.11 2673.00 L3773.42 2674.52 L3784.56 2676.21 L3795.69 2677.39 L3807.00 2678.40 L3818.14 2679.08 L3829.28 2679.75 L3840.58 2680.76 L3851.72 2681.78 L3862.86 2682.79 L3874.16 2683.63 L3885.30 2683.46 L3896.44 2683.46 L3907.58 2683.46 L3918.88 2683.46 L3930.02 2683.63 L3941.16 2683.80 L3952.46 2683.97 L3963.60 2684.31 L3974.74 2684.64 L3986.04 2685.15 L3997.18 2685.66 L4008.32 2686.33 L4019.63 2686.84 L4030.76 2686.84 L4041.90 2686.84" stroke-linejoin="round" style="fill:none;stroke:#D41159;stroke-width:9.72"/>
	<line x1="346.95" y1="2766.66" x2="346.95" y2="113.40" style="stroke:#000000;stroke-width:6.48"/>
	<line x1="346.95" y1="2695.28" x2="301.89" y2="2695.28" style="stroke:#000000;stroke-width:6.48"/>
	<text x="279.45" y="2734.71" style="font-family:'Helvetica';font-size:112.56px;fill:#000000" text-anchor="end">0</text>
	<line x1="346.95" y1="2067.69" x2="301.89" y2="2067.69" style="stroke:#000000;stroke-width:6.48"/>
	<text x="279.45" y="2107.13" style="font-family:'Helvetica';font-size:112.56px;fill:#000000" text-anchor="end">2</text>
	<line x1="346.95" y1="1439.94" x2="301.89" y2="1439.94" style="stroke:#000000;stroke-width:6.48"/>
	<text x="279.45" y="1479.38" style="font-family:'Helvetica';font-size:112.56px;fill:#000000" text-anchor="end">4</text>
	<line x1="346.95" y1="812.36" x2="301.89" y2="812.36" style="stroke:#000000;stroke-width:6.48"/>
	<text x="279.45" y="851.80" style="font-family:'Helvetica';font-size:112.56px;fill:#000000" text-anchor="end">6</text>
	<line x1="346.95" y1="184.61" x2="301.89" y2="184.61" style="stroke:#000000;stroke-width:6.48"/>
	<text x="279.45" y="224.05" style="font-family:'Helvetica';font-size:112.56px;fill:#000000" text-anchor="end">8</text>
	<line x1="346.95" y1="2766.66" x2="4364.72" y2="2766.66" style="stroke:#000000;stroke-width:6.48"/>
	<line x1="418.16" y1="2766.66" x2="418.16" y2="2811.54" style="stroke:#000000;stroke-width:6.48"/>
	<text x="418.16" y="2912.86" style="font-family:'Helvetica';font-size:112.56px;fill:#000000" text-anchor="middle">.2</text>
	<line x1="1344.60" y1="2766.66" x2="1344.60" y2="2811.54" style="stroke:#000000;stroke-width:6.48"/>
	<text x="1344.60" y="2912.86" style="font-family:'Helvetica';font-size:112.56px;fill:#000000" text-anchor="middle">.3</text>
	<line x1="2271.04" y1="2766.66" x2="2271.04" y2="2811.54" style="stroke:#000000;stroke-width:6.48"/>
	<text x="2271.04" y="2912.86" style="font-family:'Helvetica';font-size:112.56px;fill:#000000" text-anchor="middle">.4</text>
	<line x1="3197.64" y1="2766.66" x2="3197.64" y2="2811.54" style="stroke:#000000;stroke-width:6.48"/>
	<text x="3197.64" y="2912.86" style="font-family:'Helvetica';font-size:112.56px;fill:#000000" text-anchor="middle">.5</text>
	<line x1="4124.08" y1="2766.66" x2="4124.08" y2="2811.54" style="stroke:#000000;stroke-width:6.48"/>
	<text x="4124.08" y="2912.86" style="font-family:'Helvetica';font-size:112.56px;fill:#000000" text-anchor="middle">.6</text>
	<text x="2355.75" y="3070.31" style="font-family:'Helvetica';font-size:112.56px;fill:#000000" text-anchor="middle">x</text>
	<rect x="4403.53" y="1256.34" width="844.26" height="367.20" style="fill:#FFFFFF"/>
	<rect x="4406.77" y="1259.58" width="837.78" height="360.72" style="fill:none;stroke:#FFFFFF;stroke-width:6.48"/>
	<line x1="4452.13" y1="1361.31" x2="4711.33" y2="1361.31" style="stroke:#1A85FF;stroke-width:9.72"/>
	<line x1="4452.13" y1="1518.75" x2="4711.33" y2="1518.75" style="stroke:#D41159;stroke-width:9.72"/>
	<text x="4778.83" y="1400.74" style="font-family:'Helvetica';font-size:112.56px;fill:#000000">Logistic</text>
	<text x="4778.83" y="1558.19" style="font-family:'Helvetica';font-size:112.56px;fill:#000000">Poisson</text>
</svg>
