<?xml version="1.0" encoding="UTF-8" standalone="no"?>
<!-- This is a Stata 18.0 generated SVG file (http://www.stata.com) -->

<svg version="1.1" width="7.500in" height="4.500in" viewBox="0 0 5400 3240" xmlns="http://www.w3.org/2000/svg" xmlns:xlink="http://www.w3.org/1999/xlink">
	<desc>Stata Graph - Graph</desc>
	<rect x="0" y="0" width="5400" height="3240" style="fill:#FFFFFF;stroke:none"/>
	<rect x="0.00" y="0.00" width="5400.00" height="3240.00" style="fill:#FFFFFF"/>
	<rect x="3.24" y="3.24" width="5393.52" height="3233.52" style="fill:none;stroke:#FFFFFF;stroke-width:6.48"/>
	<rect x="346.95" y="113.40" width="4017.77" height="2653.26" style="fill:#FFFFFF"/>
	<rect x="350.19" y="116.64" width="4011.29" height="2646.78" style="fill:none;stroke:#FFFFFF;stroke-width:6.48"/>
	<line x1="346.95" y1="2695.28" x2="411.75" y2="2695.28" style="stroke:#F0F0F0;stroke-width:9.72"/>
	<line x1="444.15" y1="2695.28" x2="508.95" y2="2695.28" style="stroke:#F0F0F0;stroke-width:9.72"/>
	<line x1="541.35" y1="2695.28" x2="606.15" y2="2695.28" style="stroke:#F0F0F0;stroke-width:9.72"/>
	<line x1="638.55" y1="2695.28" x2="703.35" y2="2695.28" style="stroke:#F0F0F0;stroke-width:9.72"/>
	<line x1="735.75" y1="2695.28" x2="800.55" y2="2695.28" style="stroke:#F0F0F0;stroke-width:9.72"/>
	<line x1="832.95" y1="2695.28" x2="897.75" y2="2695.28" style="stroke:#F0F0F0;stroke-width:9.72"/>
	<line x1="930.15" y1="2695.28" x2="994.95" y2="2695.28" style="stroke:#F0F0F0;stroke-width:9.72"/>
	<line x1="1027.35" y1="2695.28" x2="1092.15" y2="2695.28" style="stroke:#F0F0F0;stroke-width:9.72"/>
	<line x1="1124.55" y1="2695.28" x2="1189.35" y2="2695.28" style="stroke:#F0F0F0;stroke-width:9.72"/>
	<line x1="1221.75" y1="2695.28" x2="1286.55" y2="2695.28" style="stroke:#F0F0F0;stroke-width:9.72"/>
	<line x1="1318.95" y1="2695.28" x2="1383.75" y2="2695.28" style="stroke:#F0F0F0;stroke-width:9.72"/>
	<line x1="1416.15" y1="2695.28" x2="1480.95" y2="2695.28" style="stroke:#F0F0F0;stroke-width:9.72"/>
	<line x1="1513.35" y1="2695.28" x2="1578.15" y2="2695.28" style="stroke:#F0F0F0;stroke-width:9.72"/>
	<line x1="1610.55" y1="2695.28" x2="1675.35" y2="2695.28" style="stroke:#F0F0F0;stroke-width:9.72"/>
	<line x1="1707.75" y1="2695.28" x2="1772.55" y2="2695.28" style="stroke:#F0F0F0;stroke-width:9.72"/>
	<line x1="1804.95" y1="2695.28" x2="1869.75" y2="2695.28" style="stroke:#F0F0F0;stroke-width:9.72"/>
	<line x1="1902.15" y1="2695.28" x2="1966.95" y2="2695.28" style="stroke:#F0F0F0;stroke-width:9.72"/>
	<line x1="1999.35" y1="2695.28" x2="2064.15" y2="2695.28" style="stroke:#F0F0F0;stroke-width:9.72"/>
	<line x1="2096.55" y1="2695.28" x2="2161.35" y2="2695.28" style="stroke:#F0F0F0;stroke-width:9.72"/>
	<line x1="2193.75" y1="2695.28" x2="2258.55" y2="2695.28" style="stroke:#F0F0F0;stroke-width:9.72"/>
	<line x1="2290.95" y1="2695.28" x2="2355.75" y2="2695.28" style="stroke:#F0F0F0;stroke-width:9.72"/>
	<line x1="2388.15" y1="2695.28" x2="2452.95" y2="2695.28" style="stroke:#F0F0F0;stroke-width:9.72"/>
	<line x1="2485.35" y1="2695.28" x2="2550.15" y2="2695.28" style="stroke:#F0F0F0;stroke-width:9.72"/>
	<line x1="2582.55" y1="2695.28" x2="2647.35" y2="2695.28" style="stroke:#F0F0F0;stroke-width:9.72"/>
	<line x1="2679.75" y1="2695.28" x2="2744.55" y2="2695.28" style="stroke:#F0F0F0;stroke-width:9.72"/>
	<line x1="2776.95" y1="2695.28" x2="2841.75" y2="2695.28" style="stroke:#F0F0F0;stroke-width:9.72"/>
	<line x1="2874.15" y1="2695.28" x2="2938.95" y2="2695.28" style="stroke:#F0F0F0;stroke-width:9.72"/>
	<line x1="2971.35" y1="2695.28" x2="3036.15" y2="2695.28" style="stroke:#F0F0F0;stroke-width:9.72"/>
	<line x1="3068.55" y1="2695.28" x2="3133.35" y2="2695.28" style="stroke:#F0F0F0;stroke-width:9.72"/>
	<line x1="3165.75" y1="2695.28" x2="3230.55" y2="2695.28" style="stroke:#F0F0F0;stroke-width:9.72"/>
	<line x1="3262.95" y1="2695.28" x2="3327.75" y2="2695.28" style="stroke:#F0F0F0;stroke-width:9.72"/>
	<line x1="3360.15" y1="2695.28" x2="3424.95" y2="2695.28" style="stroke:#F0F0F0;stroke-width:9.72"/>
	<line x1="3457.35" y1="2695.28" x2="3522.15" y2="2695.28" style="stroke:#F0F0F0;stroke-width:9.72"/>
	<line x1="3554.55" y1="2695.28" x2="3619.35" y2="2695.28" style="stroke:#F0F0F0;stroke-width:9.72"/>
	<line x1="3651.75" y1="2695.28" x2="3716.55" y2="2695.28" style="stroke:#F0F0F0;stroke-width:9.72"/>
	<line x1="3748.95" y1="2695.28" x2="3813.75" y2="2695.28" style="stroke:#F0F0F0;stroke-width:9.72"/>
	<line x1="3846.15" y1="2695.28" x2="3910.95" y2="2695.28" style="stroke:#F0F0F0;stroke-width:9.72"/>
	<line x1="3943.35" y1="2695.28" x2="4008.15" y2="2695.28" style="stroke:#F0F0F0;stroke-width:9.72"/>
	<line x1="4040.55" y1="2695.28" x2="4105.35" y2="2695.28" style="stroke:#F0F0F0;stroke-width:9.72"/>
	<line x1="4137.75" y1="2695.28" x2="4202.55" y2="2695.28" style="stroke:#F0F0F0;stroke-width:9.72"/>
	<line x1="4234.95" y1="2695.28" x2="4299.75" y2="2695.28" style="stroke:#F0F0F0;stroke-width:9.72"/>
	<line x1="4332.15" y1="2695.28" x2="4364.72" y2="2695.28" style="stroke:#F0F0F0;stroke-width:9.72"/>
	<line x1="346.95" y1="2067.69" x2="411.75" y2="2067.69" style="stroke:#F0F0F0;stroke-width:9.72"/>
	<line x1="444.15" y1="2067.69" x2="508.95" y2="2067.69" style="stroke:#F0F0F0;stroke-width:9.72"/>
	<line x1="541.35" y1="2067.69" x2="606.15" y2="2067.69" style="stroke:#F0F0F0;stroke-width:9.72"/>
	<line x1="638.55" y1="2067.69" x2="703.35" y2="2067.69" style="stroke:#F0F0F0;stroke-width:9.72"/>
	<line x1="735.75" y1="2067.69" x2="800.55" y2="2067.69" style="stroke:#F0F0F0;stroke-width:9.72"/>
	<line x1="832.95" y1="2067.69" x2="897.75" y2="2067.69" style="stroke:#F0F0F0;stroke-width:9.72"/>
	<line x1="930.15" y1="2067.69" x2="994.95" y2="2067.69" style="stroke:#F0F0F0;stroke-width:9.72"/>
	<line x1="1027.35" y1="2067.69" x2="1092.15" y2="2067.69" style="stroke:#F0F0F0;stroke-width:9.72"/>
	<line x1="1124.55" y1="2067.69" x2="1189.35" y2="2067.69" style="stroke:#F0F0F0;stroke-width:9.72"/>
	<line x1="1221.75" y1="2067.69" x2="1286.55" y2="2067.69" style="stroke:#F0F0F0;stroke-width:9.72"/>
	<line x1="1318.95" y1="2067.69" x2="1383.75" y2="2067.69" style="stroke:#F0F0F0;stroke-width:9.72"/>
	<line x1="1416.15" y1="2067.69" x2="1480.95" y2="2067.69" style="stroke:#F0F0F0;stroke-width:9.72"/>
	<line x1="1513.35" y1="2067.69" x2="1578.15" y2="2067.69" style="stroke:#F0F0F0;stroke-width:9.72"/>
	<line x1="1610.55" y1="2067.69" x2="1675.35" y2="2067.69" style="stroke:#F0F0F0;stroke-width:9.72"/>
	<line x1="1707.75" y1="2067.69" x2="1772.55" y2="2067.69" style="stroke:#F0F0F0;stroke-width:9.72"/>
	<line x1="1804.95" y1="2067.69" x2="1869.75" y2="2067.69" style="stroke:#F0F0F0;stroke-width:9.72"/>
	<line x1="1902.15" y1="2067.69" x2="1966.95" y2="2067.69" style="stroke:#F0F0F0;stroke-width:9.72"/>
	<line x1="1999.35" y1="2067.69" x2="2064.15" y2="2067.69" style="stroke:#F0F0F0;stroke-width:9.72"/>
	<line x1="2096.55" y1="2067.69" x2="2161.35" y2="2067.69" style="stroke:#F0F0F0;stroke-width:9.72"/>
	<line x1="2193.75" y1="2067.69" x2="2258.55" y2="2067.69" style="stroke:#F0F0F0;stroke-width:9.72"/>
	<line x1="2290.95" y1="2067.69" x2="2355.75" y2="2067.69" style="stroke:#F0F0F0;stroke-width:9.72"/>
	<line x1="2388.15" y1="2067.69" x2="2452.95" y2="2067.69" style="stroke:#F0F0F0;stroke-width:9.72"/>
	<line x1="2485.35" y1="2067.69" x2="2550.15" y2="2067.69" style="stroke:#F0F0F0;stroke-width:9.72"/>
	<line x1="2582.55" y1="2067.69" x2="2647.35" y2="2067.69" style="stroke:#F0F0F0;stroke-width:9.72"/>
	<line x1="2679.75" y1="2067.69" x2="2744.55" y2="2067.69" style="stroke:#F0F0F0;stroke-width:9.72"/>
	<line x1="2776.95" y1="2067.69" x2="2841.75" y2="2067.69" style="stroke:#F0F0F0;stroke-width:9.72"/>
	<line x1="2874.15" y1="2067.69" x2="2938.95" y2="2067.69" style="stroke:#F0F0F0;stroke-width:9.72"/>
	<line x1="2971.35" y1="2067.69" x2="3036.15" y2="2067.69" style="stroke:#F0F0F0;stroke-width:9.72"/>
	<line x1="3068.55" y1="2067.69" x2="3133.35" y2="2067.69" style="stroke:#F0F0F0;stroke-width:9.72"/>
	<line x1="3165.75" y1="2067.69" x2="3230.55" y2="2067.69" style="stroke:#F0F0F0;stroke-width:9.72"/>
	<line x1="3262.95" y1="2067.69" x2="3327.75" y2="2067.69" style="stroke:#F0F0F0;stroke-width:9.72"/>
	<line x1="3360.15" y1="2067.69" x2="3424.95" y2="2067.69" style="stroke:#F0F0F0;stroke-width:9.72"/>
	<line x1="3457.35" y1="2067.69" x2="3522.15" y2="2067.69" style="stroke:#F0F0F0;stroke-width:9.72"/>
	<line x1="3554.55" y1="2067.69" x2="3619.35" y2="2067.69" style="stroke:#F0F0F0;stroke-width:9.72"/>
	<line x1="3651.75" y1="2067.69" x2="3716.55" y2="2067.69" style="stroke:#F0F0F0;stroke-width:9.72"/>
	<line x1="3748.95" y1="2067.69" x2="3813.75" y2="2067.69" style="stroke:#F0F0F0;stroke-width:9.72"/>
	<line x1="3846.15" y1="2067.69" x2="3910.95" y2="2067.69" style="stroke:#F0F0F0;stroke-width:9.72"/>
	<line x1="3943.35" y1="2067.69" x2="4008.15" y2="2067.69" style="stroke:#F0F0F0;stroke-width:9.72"/>
	<line x1="4040.55" y1="2067.69" x2="4105.35" y2="2067.69" style="stroke:#F0F0F0;stroke-width:9.72"/>
	<line x1="4137.75" y1="2067.69" x2="4202.55" y2="2067.69" style="stroke:#F0F0F0;stroke-width:9.72"/>
	<line x1="4234.95" y1="2067.69" x2="4299.75" y2="2067.69" style="stroke:#F0F0F0;stroke-width:9.72"/>
	<line x1="4332.15" y1="2067.69" x2="4364.72" y2="2067.69" style="stroke:#F0F0F0;stroke-width:9.72"/>
	<line x1="346.95" y1="1439.94" x2="411.75" y2="1439.94" style="stroke:#F0F0F0;stroke-width:9.72"/>
	<line x1="444.15" y1="1439.94" x2="508.95" y2="1439.94" style="stroke:#F0F0F0;stroke-width:9.72"/>
	<line x1="541.35" y1="1439.94" x2="606.15" y2="1439.94" style="stroke:#F0F0F0;stroke-width:9.72"/>
	<line x1="638.55" y1="1439.94" x2="703.35" y2="1439.94" style="stroke:#F0F0F0;stroke-width:9.72"/>
	<line x1="735.75" y1="1439.94" x2="800.55" y2="1439.94" style="stroke:#F0F0F0;stroke-width:9.72"/>
	<line x1="832.95" y1="1439.94" x2="897.75" y2="1439.94" style="stroke:#F0F0F0;stroke-width:9.72"/>
	<line x1="930.15" y1="1439.94" x2="994.95" y2="1439.94" style="stroke:#F0F0F0;stroke-width:9.72"/>
	<line x1="1027.35" y1="1439.94" x2="1092.15" y2="1439.94" style="stroke:#F0F0F0;stroke-width:9.72"/>
	<line x1="1124.55" y1="1439.94" x2="1189.35" y2="1439.94" style="stroke:#F0F0F0;stroke-width:9.72"/>
	<line x1="1221.75" y1="1439.94" x2="1286.55" y2="1439.94" style="stroke:#F0F0F0;stroke-width:9.72"/>
	<line x1="1318.95" y1="1439.94" x2="1383.75" y2="1439.94" style="stroke:#F0F0F0;stroke-width:9.72"/>
	<line x1="1416.15" y1="1439.94" x2="1480.95" y2="1439.94" style="stroke:#F0F0F0;stroke-width:9.72"/>
	<line x1="1513.35" y1="1439.94" x2="1578.15" y2="1439.94" style="stroke:#F0F0F0;stroke-width:9.72"/>
	<line x1="1610.55" y1="1439.94" x2="1675.35" y2="1439.94" style="stroke:#F0F0F0;stroke-width:9.72"/>
	<line x1="1707.75" y1="1439.94" x2="1772.55" y2="1439.94" style="stroke:#F0F0F0;stroke-width:9.72"/>
	<line x1="1804.95" y1="1439.94" x2="1869.75" y2="1439.94" style="stroke:#F0F0F0;stroke-width:9.72"/>
	<line x1="1902.15" y1="1439.94" x2="1966.95" y2="1439.94" style="stroke:#F0F0F0;stroke-width:9.72"/>
	<line x1="1999.35" y1="1439.94" x2="2064.15" y2="1439.94" style="stroke:#F0F0F0;stroke-width:9.72"/>
	<line x1="2096.55" y1="1439.94" x2="2161.35" y2="1439.94" style="stroke:#F0F0F0;stroke-width:9.72"/>
	<line x1="2193.75" y1="1439.94" x2="2258.55" y2="1439.94" style="stroke:#F0F0F0;stroke-width:9.72"/>
	<line x1="2290.95" y1="1439.94" x2="2355.75" y2="1439.94" style="stroke:#F0F0F0;stroke-width:9.72"/>
	<line x1="2388.15" y1="1439.94" x2="2452.95" y2="1439.94" style="stroke:#F0F0F0;stroke-width:9.72"/>
	<line x1="2485.35" y1="1439.94" x2="2550.15" y2="1439.94" style="stroke:#F0F0F0;stroke-width:9.72"/>
	<line x1="2582.55" y1="1439.94" x2="2647.35" y2="1439.94" style="stroke:#F0F0F0;stroke-width:9.72"/>
	<line x1="2679.75" y1="1439.94" x2="2744.55" y2="1439.94" style="stroke:#F0F0F0;stroke-width:9.72"/>
	<line x1="2776.95" y1="1439.94" x2="2841.75" y2="1439.94" style="stroke:#F0F0F0;stroke-width:9.72"/>
	<line x1="2874.15" y1="1439.94" x2="2938.95" y2="1439.94" style="stroke:#F0F0F0;stroke-width:9.72"/>
	<line x1="2971.35" y1="1439.94" x2="3036.15" y2="1439.94" style="stroke:#F0F0F0;stroke-width:9.72"/>
	<line x1="3068.55" y1="1439.94" x2="3133.35" y2="1439.94" style="stroke:#F0F0F0;stroke-width:9.72"/>
	<line x1="3165.75" y1="1439.94" x2="3230.55" y2="1439.94" style="stroke:#F0F0F0;stroke-width:9.72"/>
	<line x1="3262.95" y1="1439.94" x2="3327.75" y2="1439.94" style="stroke:#F0F0F0;stroke-width:9.72"/>
	<line x1="3360.15" y1="1439.94" x2="3424.95" y2="1439.94" style="stroke:#F0F0F0;stroke-width:9.72"/>
	<line x1="3457.35" y1="1439.94" x2="3522.15" y2="1439.94" style="stroke:#F0F0F0;stroke-width:9.72"/>
	<line x1="3554.55" y1="1439.94" x2="3619.35" y2="1439.94" style="stroke:#F0F0F0;stroke-width:9.72"/>
	<line x1="3651.75" y1="1439.94" x2="3716.55" y2="1439.94" style="stroke:#F0F0F0;stroke-width:9.72"/>
	<line x1="3748.95" y1="1439.94" x2="3813.75" y2="1439.94" style="stroke:#F0F0F0;stroke-width:9.72"/>
	<line x1="3846.15" y1="1439.94" x2="3910.95" y2="1439.94" style="stroke:#F0F0F0;stroke-width:9.72"/>
	<line x1="3943.35" y1="1439.94" x2="4008.15" y2="1439.94" style="stroke:#F0F0F0;stroke-width:9.72"/>
	<line x1="4040.55" y1="1439.94" x2="4105.35" y2="1439.94" style="stroke:#F0F0F0;stroke-width:9.72"/>
	<line x1="4137.75" y1="1439.94" x2="4202.55" y2="1439.94" style="stroke:#F0F0F0;stroke-width:9.72"/>
	<line x1="4234.95" y1="1439.94" x2="4299.75" y2="1439.94" style="stroke:#F0F0F0;stroke-width:9.72"/>
	<line x1="4332.15" y1="1439.94" x2="4364.72" y2="1439.94" style="stroke:#F0F0F0;stroke-width:9.72"/>
	<line x1="346.95" y1="812.36" x2="411.75" y2="812.36" style="stroke:#F0F0F0;stroke-width:9.72"/>
	<line x1="444.15" y1="812.36" x2="508.95" y2="812.36" style="stroke:#F0F0F0;stroke-width:9.72"/>
	<line x1="541.35" y1="812.36" x2="606.15" y2="812.36" style="stroke:#F0F0F0;stroke-width:9.72"/>
	<line x1="638.55" y1="812.36" x2="703.35" y2="812.36" style="stroke:#F0F0F0;stroke-width:9.72"/>
	<line x1="735.75" y1="812.36" x2="800.55" y2="812.36" style="stroke:#F0F0F0;stroke-width:9.72"/>
	<line x1="832.95" y1="812.36" x2="897.75" y2="812.36" style="stroke:#F0F0F0;stroke-width:9.72"/>
	<line x1="930.15" y1="812.36" x2="994.95" y2="812.36" style="stroke:#F0F0F0;stroke-width:9.72"/>
	<line x1="1027.35" y1="812.36" x2="1092.15" y2="812.36" style="stroke:#F0F0F0;stroke-width:9.72"/>
	<line x1="1124.55" y1="812.36" x2="1189.35" y2="812.36" style="stroke:#F0F0F0;stroke-width:9.72"/>
	<line x1="1221.75" y1="812.36" x2="1286.55" y2="812.36" style="stroke:#F0F0F0;stroke-width:9.72"/>
	<line x1="1318.95" y1="812.36" x2="1383.75" y2="812.36" style="stroke:#F0F0F0;stroke-width:9.72"/>
	<line x1="1416.15" y1="812.36" x2="1480.95" y2="812.36" style="stroke:#F0F0F0;stroke-width:9.72"/>
	<line x1="1513.35" y1="812.36" x2="1578.15" y2="812.36" style="stroke:#F0F0F0;stroke-width:9.72"/>
	<line x1="1610.55" y1="812.36" x2="1675.35" y2="812.36" style="stroke:#F0F0F0;stroke-width:9.72"/>
	<line x1="1707.75" y1="812.36" x2="1772.55" y2="812.36" style="stroke:#F0F0F0;stroke-width:9.72"/>
	<line x1="1804.95" y1="812.36" x2="1869.75" y2="812.36" style="stroke:#F0F0F0;stroke-width:9.72"/>
	<line x1="1902.15" y1="812.36" x2="1966.95" y2="812.36" style="stroke:#F0F0F0;stroke-width:9.72"/>
	<line x1="1999.35" y1="812.36" x2="2064.15" y2="812.36" style="stroke:#F0F0F0;stroke-width:9.72"/>
	<line x1="2096.55" y1="812.36" x2="2161.35" y2="812.36" style="stroke:#F0F0F0;stroke-width:9.72"/>
	<line x1="2193.75" y1="812.36" x2="2258.55" y2="812.36" style="stroke:#F0F0F0;stroke-width:9.72"/>
	<line x1="2290.95" y1="812.36" x2="2355.75" y2="812.36" style="stroke:#F0F0F0;stroke-width:9.72"/>
	<line x1="2388.15" y1="812.36" x2="2452.95" y2="812.36" style="stroke:#F0F0F0;stroke-width:9.72"/>
	<line x1="2485.35" y1="812.36" x2="2550.15" y2="812.36" style="stroke:#F0F0F0;stroke-width:9.72"/>
	<line x1="2582.55" y1="812.36" x2="2647.35" y2="812.36" style="stroke:#F0F0F0;stroke-width:9.72"/>
	<line x1="2679.75" y1="812.36" x2="2744.55" y2="812.36" style="stroke:#F0F0F0;stroke-width:9.72"/>
	<line x1="2776.95" y1="812.36" x2="2841.75" y2="812.36" style="stroke:#F0F0F0;stroke-width:9.72"/>
	<line x1="2874.15" y1="812.36" x2="2938.95" y2="812.36" style="stroke:#F0F0F0;stroke-width:9.72"/>
	<line x1="2971.35" y1="812.36" x2="3036.15" y2="812.36" style="stroke:#F0F0F0;stroke-width:9.72"/>
	<line x1="3068.55" y1="812.36" x2="3133.35" y2="812.36" style="stroke:#F0F0F0;stroke-width:9.72"/>
	<line x1="3165.75" y1="812.36" x2="3230.55" y2="812.36" style="stroke:#F0F0F0;stroke-width:9.72"/>
	<line x1="3262.95" y1="812.36" x2="3327.75" y2="812.36" style="stroke:#F0F0F0;stroke-width:9.72"/>
	<line x1="3360.15" y1="812.36" x2="3424.95" y2="812.36" style="stroke:#F0F0F0;stroke-width:9.72"/>
	<line x1="3457.35" y1="812.36" x2="3522.15" y2="812.36" style="stroke:#F0F0F0;stroke-width:9.72"/>
	<line x1="3554.55" y1="812.36" x2="3619.35" y2="812.36" style="stroke:#F0F0F0;stroke-width:9.72"/>
	<line x1="3651.75" y1="812.36" x2="3716.55" y2="812.36" style="stroke:#F0F0F0;stroke-width:9.72"/>
	<line x1="3748.95" y1="812.36" x2="3813.75" y2="812.36" style="stroke:#F0F0F0;stroke-width:9.72"/>
	<line x1="3846.15" y1="812.36" x2="3910.95" y2="812.36" style="stroke:#F0F0F0;stroke-width:9.72"/>
	<line x1="3943.35" y1="812.36" x2="4008.15" y2="812.36" style="stroke:#F0F0F0;stroke-width:9.72"/>
	<line x1="4040.55" y1="812.36" x2="4105.35" y2="812.36" style="stroke:#F0F0F0;stroke-width:9.72"/>
	<line x1="4137.75" y1="812.36" x2="4202.55" y2="812.36" style="stroke:#F0F0F0;stroke-width:9.72"/>
	<line x1="4234.95" y1="812.36" x2="4299.75" y2="812.36" style="stroke:#F0F0F0;stroke-width:9.72"/>
	<line x1="4332.15" y1="812.36" x2="4364.72" y2="812.36" style="stroke:#F0F0F0;stroke-width:9.72"/>
	<line x1="346.95" y1="184.61" x2="411.75" y2="184.61" style="stroke:#F0F0F0;stroke-width:9.72"/>
	<line x1="444.15" y1="184.61" x2="508.95" y2="184.61" style="stroke:#F0F0F0;stroke-width:9.72"/>
	<line x1="541.35" y1="184.61" x2="606.15" y2="184.61" style="stroke:#F0F0F0;stroke-width:9.72"/>
	<line x1="638.55" y1="184.61" x2="703.35" y2="184.61" style="stroke:#F0F0F0;stroke-width:9.72"/>
	<line x1="735.75" y1="184.61" x2="800.55" y2="184.61" style="stroke:#F0F0F0;stroke-width:9.72"/>
	<line x1="832.95" y1="184.61" x2="897.75" y2="184.61" style="stroke:#F0F0F0;stroke-width:9.72"/>
	<line x1="930.15" y1="184.61" x2="994.95" y2="184.61" style="stroke:#F0F0F0;stroke-width:9.72"/>
	<line x1="1027.35" y1="184.61" x2="1092.15" y2="184.61" style="stroke:#F0F0F0;stroke-width:9.72"/>
	<line x1="1124.55" y1="184.61" x2="1189.35" y2="184.61" style="stroke:#F0F0F0;stroke-width:9.72"/>
	<line x1="1221.75" y1="184.61" x2="1286.55" y2="184.61" style="stroke:#F0F0F0;stroke-width:9.72"/>
	<line x1="1318.95" y1="184.61" x2="1383.75" y2="184.61" style="stroke:#F0F0F0;stroke-width:9.72"/>
	<line x1="1416.15" y1="184.61" x2="1480.95" y2="184.61" style="stroke:#F0F0F0;stroke-width:9.72"/>
	<line x1="1513.35" y1="184.61" x2="1578.15" y2="184.61" style="stroke:#F0F0F0;stroke-width:9.72"/>
	<line x1="1610.55" y1="184.61" x2="1675.35" y2="184.61" style="stroke:#F0F0F0;stroke-width:9.72"/>
	<line x1="1707.75" y1="184.61" x2="1772.55" y2="184.61" style="stroke:#F0F0F0;stroke-width:9.72"/>
	<line x1="1804.95" y1="184.61" x2="1869.75" y2="184.61" style="stroke:#F0F0F0;stroke-width:9.72"/>
	<line x1="1902.15" y1="184.61" x2="1966.95" y2="184.61" style="stroke:#F0F0F0;stroke-width:9.72"/>
	<line x1="1999.35" y1="184.61" x2="2064.15" y2="184.61" style="stroke:#F0F0F0;stroke-width:9.72"/>
	<line x1="2096.55" y1="184.61" x2="2161.35" y2="184.61" style="stroke:#F0F0F0;stroke-width:9.72"/>
	<line x1="2193.75" y1="184.61" x2="2258.55" y2="184.61" style="stroke:#F0F0F0;stroke-width:9.72"/>
	<line x1="2290.95" y1="184.61" x2="2355.75" y2="184.61" style="stroke:#F0F0F0;stroke-width:9.72"/>
	<line x1="2388.15" y1="184.61" x2="2452.95" y2="184.61" style="stroke:#F0F0F0;stroke-width:9.72"/>
	<line x1="2485.35" y1="184.61" x2="2550.15" y2="184.61" style="stroke:#F0F0F0;stroke-width:9.72"/>
	<line x1="2582.55" y1="184.61" x2="2647.35" y2="184.61" style="stroke:#F0F0F0;stroke-width:9.72"/>
	<line x1="2679.75" y1="184.61" x2="2744.55" y2="184.61" style="stroke:#F0F0F0;stroke-width:9.72"/>
	<line x1="2776.95" y1="184.61" x2="2841.75" y2="184.61" style="stroke:#F0F0F0;stroke-width:9.72"/>
	<line x1="2874.15" y1="184.61" x2="2938.95" y2="184.61" style="stroke:#F0F0F0;stroke-width:9.72"/>
	<line x1="2971.35" y1="184.61" x2="3036.15" y2="184.61" style="stroke:#F0F0F0;stroke-width:9.72"/>
	<line x1="3068.55" y1="184.61" x2="3133.35" y2="184.61" style="stroke:#F0F0F0;stroke-width:9.72"/>
	<line x1="3165.75" y1="184.61" x2="3230.55" y2="184.61" style="stroke:#F0F0F0;stroke-width:9.72"/>
	<line x1="3262.95" y1="184.61" x2="3327.75" y2="184.61" style="stroke:#F0F0F0;stroke-width:9.72"/>
	<line x1="3360.15" y1="184.61" x2="3424.95" y2="184.61" style="stroke:#F0F0F0;stroke-width:9.72"/>
	<line x1="3457.35" y1="184.61" x2="3522.15" y2="184.61" style="stroke:#F0F0F0;stroke-width:9.72"/>
	<line x1="3554.55" y1="184.61" x2="3619.35" y2="184.61" style="stroke:#F0F0F0;stroke-width:9.72"/>
	<line x1="3651.75" y1="184.61" x2="3716.55" y2="184.61" style="stroke:#F0F0F0;stroke-width:9.72"/>
	<line x1="3748.95" y1="184.61" x2="3813.75" y2="184.61" style="stroke:#F0F0F0;stroke-width:9.72"/>
	<line x1="3846.15" y1="184.61" x2="3910.95" y2="184.61" style="stroke:#F0F0F0;stroke-width:9.72"/>
	<line x1="3943.35" y1="184.61" x2="4008.15" y2="184.61" style="stroke:#F0F0F0;stroke-width:9.72"/>
	<line x1="4040.55" y1="184.61" x2="4105.35" y2="184.61" style="stroke:#F0F0F0;stroke-width:9.72"/>
	<line x1="4137.75" y1="184.61" x2="4202.55" y2="184.61" style="stroke:#F0F0F0;stroke-width:9.72"/>
	<line x1="4234.95" y1="184.61" x2="4299.75" y2="184.61" style="stroke:#F0F0F0;stroke-width:9.72"/>
	<line x1="4332.15" y1="184.61" x2="4364.72" y2="184.61" style="stroke:#F0F0F0;stroke-width:9.72"/>
	<line x1="418.16" y1="2766.66" x2="418.16" y2="2701.86" style="stroke:#F0F0F0;stroke-width:9.72"/>
	<line x1="418.16" y1="2669.46" x2="418.16" y2="2604.66" style="stroke:#F0F0F0;stroke-width:9.72"/>
	<line x1="418.16" y1="2572.26" x2="418.16" y2="2507.46" style="stroke:#F0F0F0;stroke-width:9.72"/>
	<line x1="418.16" y1="2475.06" x2="418.16" y2="2410.26" style="stroke:#F0F0F0;stroke-width:9.72"/>
	<line x1="418.16" y1="2377.86" x2="418.16" y2="2313.06" style="stroke:#F0F0F0;stroke-width:9.72"/>
	<line x1="418.16" y1="2280.66" x2="418.16" y2="2215.86" style="stroke:#F0F0F0;stroke-width:9.72"/>
	<line x1="418.16" y1="2183.46" x2="418.16" y2="2118.66" style="stroke:#F0F0F0;stroke-width:9.72"/>
	<line x1="418.16" y1="2086.26" x2="418.16" y2="2021.46" style="stroke:#F0F0F0;stroke-width:9.72"/>
	<line x1="418.16" y1="1989.06" x2="418.16" y2="1924.26" style="stroke:#F0F0F0;stroke-width:9.72"/>
	<line x1="418.16" y1="1891.86" x2="418.16" y2="1827.06" style="stroke:#F0F0F0;stroke-width:9.72"/>
	<line x1="418.16" y1="1794.66" x2="418.16" y2="1729.86" style="stroke:#F0F0F0;stroke-width:9.72"/>
	<line x1="418.16" y1="1697.46" x2="418.16" y2="1632.66" style="stroke:#F0F0F0;stroke-width:9.72"/>
	<line x1="418.16" y1="1600.26" x2="418.16" y2="1535.46" style="stroke:#F0F0F0;stroke-width:9.72"/>
	<line x1="418.16" y1="1503.06" x2="418.16" y2="1438.26" style="stroke:#F0F0F0;stroke-width:9.72"/>
	<line x1="418.16" y1="1405.86" x2="418.16" y2="1341.06" style="stroke:#F0F0F0;stroke-width:9.72"/>
	<line x1="418.16" y1="1308.66" x2="418.16" y2="1243.86" style="stroke:#F0F0F0;stroke-width:9.72"/>
	<line x1="418.16" y1="1211.46" x2="418.16" y2="1146.66" style="stroke:#F0F0F0;stroke-width:9.72"/>
	<line x1="418.16" y1="1114.26" x2="418.16" y2="1049.46" style="stroke:#F0F0F0;stroke-width:9.72"/>
	<line x1="418.16" y1="1017.06" x2="418.16" y2="952.26" style="stroke:#F0F0F0;stroke-width:9.72"/>
	<line x1="418.16" y1="919.86" x2="418.16" y2="855.06" style="stroke:#F0F0F0;stroke-width:9.72"/>
	<line x1="418.16" y1="822.66" x2="418.16" y2="757.86" style="stroke:#F0F0F0;stroke-width:9.72"/>
	<line x1="418.16" y1="725.46" x2="418.16" y2="660.66" style="stroke:#F0F0F0;stroke-width:9.72"/>
	<line x1="418.16" y1="628.26" x2="418.16" y2="563.46" style="stroke:#F0F0F0;stroke-width:9.72"/>
	<line x1="418.16" y1="531.06" x2="418.16" y2="466.26" style="stroke:#F0F0F0;stroke-width:9.72"/>
	<line x1="418.16" y1="433.86" x2="418.16" y2="369.06" style="stroke:#F0F0F0;stroke-width:9.72"/>
	<line x1="418.16" y1="336.66" x2="418.16" y2="271.86" style="stroke:#F0F0F0;stroke-width:9.72"/>
	<line x1="418.16" y1="239.46" x2="418.16" y2="174.66" style="stroke:#F0F0F0;stroke-width:9.72"/>
	<line x1="418.16" y1="142.26" x2="418.16" y2="113.40" style="stroke:#F0F0F0;stroke-width:9.72"/>
	<line x1="1386.96" y1="2766.66" x2="1386.96" y2="2701.86" style="stroke:#F0F0F0;stroke-width:9.72"/>
	<line x1="1386.96" y1="2669.46" x2="1386.96" y2="2604.66" style="stroke:#F0F0F0;stroke-width:9.72"/>
	<line x1="1386.96" y1="2572.26" x2="1386.96" y2="2507.46" style="stroke:#F0F0F0;stroke-width:9.72"/>
	<line x1="1386.96" y1="2475.06" x2="1386.96" y2="2410.26" style="stroke:#F0F0F0;stroke-width:9.72"/>
	<line x1="1386.96" y1="2377.86" x2="1386.96" y2="2313.06" style="stroke:#F0F0F0;stroke-width:9.72"/>
	<line x1="1386.96" y1="2280.66" x2="1386.96" y2="2215.86" style="stroke:#F0F0F0;stroke-width:9.72"/>
	<line x1="1386.96" y1="2183.46" x2="1386.96" y2="2118.66" style="stroke:#F0F0F0;stroke-width:9.72"/>
	<line x1="1386.96" y1="2086.26" x2="1386.96" y2="2021.46" style="stroke:#F0F0F0;stroke-width:9.72"/>
	<line x1="1386.96" y1="1989.06" x2="1386.96" y2="1924.26" style="stroke:#F0F0F0;stroke-width:9.72"/>
	<line x1="1386.96" y1="1891.86" x2="1386.96" y2="1827.06" style="stroke:#F0F0F0;stroke-width:9.72"/>
	<line x1="1386.96" y1="1794.66" x2="1386.96" y2="1729.86" style="stroke:#F0F0F0;stroke-width:9.72"/>
	<line x1="1386.96" y1="1697.46" x2="1386.96" y2="1632.66" style="stroke:#F0F0F0;stroke-width:9.72"/>
	<line x1="1386.96" y1="1600.26" x2="1386.96" y2="1535.46" style="stroke:#F0F0F0;stroke-width:9.72"/>
	<line x1="1386.96" y1="1503.06" x2="1386.96" y2="1438.26" style="stroke:#F0F0F0;stroke-width:9.72"/>
	<line x1="1386.96" y1="1405.86" x2="1386.96" y2="1341.06" style="stroke:#F0F0F0;stroke-width:9.72"/>
	<line x1="1386.96" y1="1308.66" x2="1386.96" y2="1243.86" style="stroke:#F0F0F0;stroke-width:9.72"/>
	<line x1="1386.96" y1="1211.46" x2="1386.96" y2="1146.66" style="stroke:#F0F0F0;stroke-width:9.72"/>
	<line x1="1386.96" y1="1114.26" x2="1386.96" y2="1049.46" style="stroke:#F0F0F0;stroke-width:9.72"/>
	<line x1="1386.96" y1="1017.06" x2="1386.96" y2="952.26" style="stroke:#F0F0F0;stroke-width:9.72"/>
	<line x1="1386.96" y1="919.86" x2="1386.96" y2="855.06" style="stroke:#F0F0F0;stroke-width:9.72"/>
	<line x1="1386.96" y1="822.66" x2="1386.96" y2="757.86" style="stroke:#F0F0F0;stroke-width:9.72"/>
	<line x1="1386.96" y1="725.46" x2="1386.96" y2="660.66" style="stroke:#F0F0F0;stroke-width:9.72"/>
	<line x1="1386.96" y1="628.26" x2="1386.96" y2="563.46" style="stroke:#F0F0F0;stroke-width:9.72"/>
	<line x1="1386.96" y1="531.06" x2="1386.96" y2="466.26" style="stroke:#F0F0F0;stroke-width:9.72"/>
	<line x1="1386.96" y1="433.86" x2="1386.96" y2="369.06" style="stroke:#F0F0F0;stroke-width:9.72"/>
	<line x1="1386.96" y1="336.66" x2="1386.96" y2="271.86" style="stroke:#F0F0F0;stroke-width:9.72"/>
	<line x1="1386.96" y1="239.46" x2="1386.96" y2="174.66" style="stroke:#F0F0F0;stroke-width:9.72"/>
	<line x1="1386.96" y1="142.26" x2="1386.96" y2="113.40" style="stroke:#F0F0F0;stroke-width:9.72"/>
	<line x1="2355.75" y1="2766.66" x2="2355.75" y2="2701.86" style="stroke:#F0F0F0;stroke-width:9.72"/>
	<line x1="2355.75" y1="2669.46" x2="2355.75" y2="2604.66" style="stroke:#F0F0F0;stroke-width:9.72"/>
	<line x1="2355.75" y1="2572.26" x2="2355.75" y2="2507.46" style="stroke:#F0F0F0;stroke-width:9.72"/>
	<line x1="2355.75" y1="2475.06" x2="2355.75" y2="2410.26" style="stroke:#F0F0F0;stroke-width:9.72"/>
	<line x1="2355.75" y1="2377.86" x2="2355.75" y2="2313.06" style="stroke:#F0F0F0;stroke-width:9.72"/>
	<line x1="2355.75" y1="2280.66" x2="2355.75" y2="2215.86" style="stroke:#F0F0F0;stroke-width:9.72"/>
	<line x1="2355.75" y1="2183.46" x2="2355.75" y2="2118.66" style="stroke:#F0F0F0;stroke-width:9.72"/>
	<line x1="2355.75" y1="2086.26" x2="2355.75" y2="2021.46" style="stroke:#F0F0F0;stroke-width:9.72"/>
	<line x1="2355.75" y1="1989.06" x2="2355.75" y2="1924.26" style="stroke:#F0F0F0;stroke-width:9.72"/>
	<line x1="2355.75" y1="1891.86" x2="2355.75" y2="1827.06" style="stroke:#F0F0F0;stroke-width:9.72"/>
	<line x1="2355.75" y1="1794.66" x2="2355.75" y2="1729.86" style="stroke:#F0F0F0;stroke-width:9.72"/>
	<line x1="2355.75" y1="1697.46" x2="2355.75" y2="1632.66" style="stroke:#F0F0F0;stroke-width:9.72"/>
	<line x1="2355.75" y1="1600.26" x2="2355.75" y2="1535.46" style="stroke:#F0F0F0;stroke-width:9.72"/>
	<line x1="2355.75" y1="1503.06" x2="2355.75" y2="1438.26" style="stroke:#F0F0F0;stroke-width:9.72"/>
	<line x1="2355.75" y1="1405.86" x2="2355.75" y2="1341.06" style="stroke:#F0F0F0;stroke-width:9.72"/>
	<line x1="2355.75" y1="1308.66" x2="2355.75" y2="1243.86" style="stroke:#F0F0F0;stroke-width:9.72"/>
	<line x1="2355.75" y1="1211.46" x2="2355.75" y2="1146.66" style="stroke:#F0F0F0;stroke-width:9.72"/>
	<line x1="2355.75" y1="1114.26" x2="2355.75" y2="1049.46" style="stroke:#F0F0F0;stroke-width:9.72"/>
	<line x1="2355.75" y1="1017.06" x2="2355.75" y2="952.26" style="stroke:#F0F0F0;stroke-width:9.72"/>
	<line x1="2355.75" y1="919.86" x2="2355.75" y2="855.06" style="stroke:#F0F0F0;stroke-width:9.72"/>
	<line x1="2355.75" y1="822.66" x2="2355.75" y2="757.86" style="stroke:#F0F0F0;stroke-width:9.72"/>
	<line x1="2355.75" y1="725.46" x2="2355.75" y2="660.66" style="stroke:#F0F0F0;stroke-width:9.72"/>
	<line x1="2355.75" y1="628.26" x2="2355.75" y2="563.46" style="stroke:#F0F0F0;stroke-width:9.72"/>
	<line x1="2355.75" y1="531.06" x2="2355.75" y2="466.26" style="stroke:#F0F0F0;stroke-width:9.72"/>
	<line x1="2355.75" y1="433.86" x2="2355.75" y2="369.06" style="stroke:#F0F0F0;stroke-width:9.72"/>
	<line x1="2355.75" y1="336.66" x2="2355.75" y2="271.86" style="stroke:#F0F0F0;stroke-width:9.72"/>
	<line x1="2355.75" y1="239.46" x2="2355.75" y2="174.66" style="stroke:#F0F0F0;stroke-width:9.72"/>
	<line x1="2355.75" y1="142.26" x2="2355.75" y2="113.40" style="stroke:#F0F0F0;stroke-width:9.72"/>
	<line x1="3324.54" y1="2766.66" x2="3324.54" y2="2701.86" style="stroke:#F0F0F0;stroke-width:9.72"/>
	<line x1="3324.54" y1="2669.46" x2="3324.54" y2="2604.66" style="stroke:#F0F0F0;stroke-width:9.72"/>
	<line x1="3324.54" y1="2572.26" x2="3324.54" y2="2507.46" style="stroke:#F0F0F0;stroke-width:9.72"/>
	<line x1="3324.54" y1="2475.06" x2="3324.54" y2="2410.26" style="stroke:#F0F0F0;stroke-width:9.72"/>
	<line x1="3324.54" y1="2377.86" x2="3324.54" y2="2313.06" style="stroke:#F0F0F0;stroke-width:9.72"/>
	<line x1="3324.54" y1="2280.66" x2="3324.54" y2="2215.86" style="stroke:#F0F0F0;stroke-width:9.72"/>
	<line x1="3324.54" y1="2183.46" x2="3324.54" y2="2118.66" style="stroke:#F0F0F0;stroke-width:9.72"/>
	<line x1="3324.54" y1="2086.26" x2="3324.54" y2="2021.46" style="stroke:#F0F0F0;stroke-width:9.72"/>
	<line x1="3324.54" y1="1989.06" x2="3324.54" y2="1924.26" style="stroke:#F0F0F0;stroke-width:9.72"/>
	<line x1="3324.54" y1="1891.86" x2="3324.54" y2="1827.06" style="stroke:#F0F0F0;stroke-width:9.72"/>
	<line x1="3324.54" y1="1794.66" x2="3324.54" y2="1729.86" style="stroke:#F0F0F0;stroke-width:9.72"/>
	<line x1="3324.54" y1="1697.46" x2="3324.54" y2="1632.66" style="stroke:#F0F0F0;stroke-width:9.72"/>
	<line x1="3324.54" y1="1600.26" x2="3324.54" y2="1535.46" style="stroke:#F0F0F0;stroke-width:9.72"/>
	<line x1="3324.54" y1="1503.06" x2="3324.54" y2="1438.26" style="stroke:#F0F0F0;stroke-width:9.72"/>
	<line x1="3324.54" y1="1405.86" x2="3324.54" y2="1341.06" style="stroke:#F0F0F0;stroke-width:9.72"/>
	<line x1="3324.54" y1="1308.66" x2="3324.54" y2="1243.86" style="stroke:#F0F0F0;stroke-width:9.72"/>
	<line x1="3324.54" y1="1211.46" x2="3324.54" y2="1146.66" style="stroke:#F0F0F0;stroke-width:9.72"/>
	<line x1="3324.54" y1="1114.26" x2="3324.54" y2="1049.46" style="stroke:#F0F0F0;stroke-width:9.72"/>
	<line x1="3324.54" y1="1017.06" x2="3324.54" y2="952.26" style="stroke:#F0F0F0;stroke-width:9.72"/>
	<line x1="3324.54" y1="919.86" x2="3324.54" y2="855.06" style="stroke:#F0F0F0;stroke-width:9.72"/>
	<line x1="3324.54" y1="822.66" x2="3324.54" y2="757.86" style="stroke:#F0F0F0;stroke-width:9.72"/>
	<line x1="3324.54" y1="725.46" x2="3324.54" y2="660.66" style="stroke:#F0F0F0;stroke-width:9.72"/>
	<line x1="3324.54" y1="628.26" x2="3324.54" y2="563.46" style="stroke:#F0F0F0;stroke-width:9.72"/>
	<line x1="3324.54" y1="531.06" x2="3324.54" y2="466.26" style="stroke:#F0F0F0;stroke-width:9.72"/>
	<line x1="3324.54" y1="433.86" x2="3324.54" y2="369.06" style="stroke:#F0F0F0;stroke-width:9.72"/>
	<line x1="3324.54" y1="336.66" x2="3324.54" y2="271.86" style="stroke:#F0F0F0;stroke-width:9.72"/>
	<line x1="3324.54" y1="239.46" x2="3324.54" y2="174.66" style="stroke:#F0F0F0;stroke-width:9.72"/>
	<line x1="3324.54" y1="142.26" x2="3324.54" y2="113.40" style="stroke:#F0F0F0;stroke-width:9.72"/>
	<line x1="4293.51" y1="2766.66" x2="4293.51" y2="2701.86" style="stroke:#F0F0F0;stroke-width:9.72"/>
	<line x1="4293.51" y1="2669.46" x2="4293.51" y2="2604.66" style="stroke:#F0F0F0;stroke-width:9.72"/>
	<line x1="4293.51" y1="2572.26" x2="4293.51" y2="2507.46" style="stroke:#F0F0F0;stroke-width:9.72"/>
	<line x1="4293.51" y1="2475.06" x2="4293.51" y2="2410.26" style="stroke:#F0F0F0;stroke-width:9.72"/>
	<line x1="4293.51" y1="2377.86" x2="4293.51" y2="2313.06" style="stroke:#F0F0F0;stroke-width:9.72"/>
	<line x1="4293.51" y1="2280.66" x2="4293.51" y2="2215.86" style="stroke:#F0F0F0;stroke-width:9.72"/>
	<line x1="4293.51" y1="2183.46" x2="4293.51" y2="2118.66" style="stroke:#F0F0F0;stroke-width:9.72"/>
	<line x1="4293.51" y1="2086.26" x2="4293.51" y2="2021.46" style="stroke:#F0F0F0;stroke-width:9.72"/>
	<line x1="4293.51" y1="1989.06" x2="4293.51" y2="1924.26" style="stroke:#F0F0F0;stroke-width:9.72"/>
	<line x1="4293.51" y1="1891.86" x2="4293.51" y2="1827.06" style="stroke:#F0F0F0;stroke-width:9.72"/>
	<line x1="4293.51" y1="1794.66" x2="4293.51" y2="1729.86" style="stroke:#F0F0F0;stroke-width:9.72"/>
	<line x1="4293.51" y1="1697.46" x2="4293.51" y2="1632.66" style="stroke:#F0F0F0;stroke-width:9.72"/>
	<line x1="4293.51" y1="1600.26" x2="4293.51" y2="1535.46" style="stroke:#F0F0F0;stroke-width:9.72"/>
	<line x1="4293.51" y1="1503.06" x2="4293.51" y2="1438.26" style="stroke:#F0F0F0;stroke-width:9.72"/>
	<line x1="4293.51" y1="1405.86" x2="4293.51" y2="1341.06" style="stroke:#F0F0F0;stroke-width:9.72"/>
	<line x1="4293.51" y1="1308.66" x2="4293.51" y2="1243.86" style="stroke:#F0F0F0;stroke-width:9.72"/>
	<line x1="4293.51" y1="1211.46" x2="4293.51" y2="1146.66" style="stroke:#F0F0F0;stroke-width:9.72"/>
	<line x1="4293.51" y1="1114.26" x2="4293.51" y2="1049.46" style="stroke:#F0F0F0;stroke-width:9.72"/>
	<line x1="4293.51" y1="1017.06" x2="4293.51" y2="952.26" style="stroke:#F0F0F0;stroke-width:9.72"/>
	<line x1="4293.51" y1="919.86" x2="4293.51" y2="855.06" style="stroke:#F0F0F0;stroke-width:9.72"/>
	<line x1="4293.51" y1="822.66" x2="4293.51" y2="757.86" style="stroke:#F0F0F0;stroke-width:9.72"/>
	<line x1="4293.51" y1="725.46" x2="4293.51" y2="660.66" style="stroke:#F0F0F0;stroke-width:9.72"/>
	<line x1="4293.51" y1="628.26" x2="4293.51" y2="563.46" style="stroke:#F0F0F0;stroke-width:9.72"/>
	<line x1="4293.51" y1="531.06" x2="4293.51" y2="466.26" style="stroke:#F0F0F0;stroke-width:9.72"/>
	<line x1="4293.51" y1="433.86" x2="4293.51" y2="369.06" style="stroke:#F0F0F0;stroke-width:9.72"/>
	<line x1="4293.51" y1="336.66" x2="4293.51" y2="271.86" style="stroke:#F0F0F0;stroke-width:9.72"/>
	<line x1="4293.51" y1="239.46" x2="4293.51" y2="174.66" style="stroke:#F0F0F0;stroke-width:9.72"/>
	<line x1="4293.51" y1="142.26" x2="4293.51" y2="113.40" style="stroke:#F0F0F0;stroke-width:9.72"/>
	<line x1="2355.75" y1="2766.66" x2="2355.75" y2="2701.86" style="stroke:#000000;stroke-width:9.72"/>
	<line x1="2355.75" y1="2669.46" x2="2355.75" y2="2604.66" style="stroke:#000000;stroke-width:9.72"/>
	<line x1="2355.75" y1="2572.26" x2="2355.75" y2="2507.46" style="stroke:#000000;stroke-width:9.72"/>
	<line x1="2355.75" y1="2475.06" x2="2355.75" y2="2410.26" style="stroke:#000000;stroke-width:9.72"/>
	<line x1="2355.75" y1="2377.86" x2="2355.75" y2="2313.06" style="stroke:#000000;stroke-width:9.72"/>
	<line x1="2355.75" y1="2280.66" x2="2355.75" y2="2215.86" style="stroke:#000000;stroke-width:9.72"/>
	<line x1="2355.75" y1="2183.46" x2="2355.75" y2="2118.66" style="stroke:#000000;stroke-width:9.72"/>
	<line x1="2355.75" y1="2086.26" x2="2355.75" y2="2021.46" style="stroke:#000000;stroke-width:9.72"/>
	<line x1="2355.75" y1="1989.06" x2="2355.75" y2="1924.26" style="stroke:#000000;stroke-width:9.72"/>
	<line x1="2355.75" y1="1891.86" x2="2355.75" y2="1827.06" style="stroke:#000000;stroke-width:9.72"/>
	<line x1="2355.75" y1="1794.66" x2="2355.75" y2="1729.86" style="stroke:#000000;stroke-width:9.72"/>
	<line x1="2355.75" y1="1697.46" x2="2355.75" y2="1632.66" style="stroke:#000000;stroke-width:9.72"/>
	<line x1="2355.75" y1="1600.26" x2="2355.75" y2="1535.46" style="stroke:#000000;stroke-width:9.72"/>
	<line x1="2355.75" y1="1503.06" x2="2355.75" y2="1438.26" style="stroke:#000000;stroke-width:9.72"/>
	<line x1="2355.75" y1="1405.86" x2="2355.75" y2="1341.06" style="stroke:#000000;stroke-width:9.72"/>
	<line x1="2355.75" y1="1308.66" x2="2355.75" y2="1243.86" style="stroke:#000000;stroke-width:9.72"/>
	<line x1="2355.75" y1="1211.46" x2="2355.75" y2="1146.66" style="stroke:#000000;stroke-width:9.72"/>
	<line x1="2355.75" y1="1114.26" x2="2355.75" y2="1049.46" style="stroke:#000000;stroke-width:9.72"/>
	<line x1="2355.75" y1="1017.06" x2="2355.75" y2="952.26" style="stroke:#000000;stroke-width:9.72"/>
	<line x1="2355.75" y1="919.86" x2="2355.75" y2="855.06" style="stroke:#000000;stroke-width:9.72"/>
	<line x1="2355.75" y1="822.66" x2="2355.75" y2="757.86" style="stroke:#000000;stroke-width:9.72"/>
	<line x1="2355.75" y1="725.46" x2="2355.75" y2="660.66" style="stroke:#000000;stroke-width:9.72"/>
	<line x1="2355.75" y1="628.26" x2="2355.75" y2="563.46" style="stroke:#000000;stroke-width:9.72"/>
	<line x1="2355.75" y1="531.06" x2="2355.75" y2="466.26" style="stroke:#000000;stroke-width:9.72"/>
	<line x1="2355.75" y1="433.86" x2="2355.75" y2="369.06" style="stroke:#000000;stroke-width:9.72"/>
	<line x1="2355.75" y1="336.66" x2="2355.75" y2="271.86" style="stroke:#000000;stroke-width:9.72"/>
	<line x1="2355.75" y1="239.46" x2="2355.75" y2="174.66" style="stroke:#000000;stroke-width:9.72"/>
	<line x1="2355.75" y1="142.26" x2="2355.75" y2="113.40" style="stroke:#000000;stroke-width:9.72"/>
	<path d=" M1022.96 2323.52 L1032.92 2323.69 L1043.04 2324.03 L1053.00 2324.53 L1062.96 2325.21 L1073.08 2326.05 L1083.04 2327.23 L1093.16 2328.41 L1103.12 2329.93 L1113.08 2323.69 L1123.20 2313.73 L1133.16 2304.11 L1143.11 2294.83 L1153.24 2286.06 L1163.19 2277.62 L1173.15 2269.52 L1183.28 2261.93 L1193.23 2254.67 L1203.36 2247.75 L1213.31 2241.34 L1223.27 2235.26 L1233.39 2229.53 L1243.35 2224.29 L1253.31 2219.40 L1263.43 2215.01 L1273.39 2210.79 L1283.34 2207.08 L1293.47 2203.88 L1303.43 2201.01 L1313.55 2198.48 L1323.51 2196.45 L1333.46 2194.76 L1343.59 2193.41 L1353.54 2192.40 L1363.50 2191.89 L1373.63 2191.89 L1383.58 2192.06 L1393.54 2192.91 L1403.66 2193.92 L1413.62 2195.44 L1423.74 2197.29 L1433.70 2199.49 L1443.66 2202.19 L1453.78 2205.23 L1463.74 2208.77 L1473.69 2212.48 L1483.82 2216.87 L1493.78 2218.73 L1503.73 2207.25 L1513.86 2188.86 L1523.81 2171.31 L1533.94 2154.60 L1543.89 2138.57 L1553.85 2123.55 L1563.98 2109.04 L1573.93 2095.54 L1583.89 2082.71 L1594.01 2069.55 L1603.97 2046.43 L1613.93 2024.16 L1624.05 2002.89 L1634.01 1982.64 L1644.13 1953.79 L1654.09 1923.24 L1664.04 1893.38 L1674.17 1864.35 L1684.13 1836.00 L1694.08 1808.49 L1704.21 1781.83 L1714.16 1755.84 L1724.12 1730.87 L1734.24 1706.57 L1744.20 1681.76 L1754.33 1647.00 L1764.28 1613.25 L1774.24 1580.34 L1784.36 1548.62 L1794.32 1517.91 L1804.28 1488.04 L1814.40 1459.18 L1824.36 1431.51 L1834.48 1404.68 L1844.44 1378.86 L1854.39 1354.05 L1864.52 1330.09 L1874.48 1307.31 L1884.43 1285.37 L1894.56 1264.61 L1904.51 1244.70 L1914.47 1225.80 L1924.59 1207.91 L1934.55 1191.04 L1944.68 1175.18 L1954.63 1160.32 L1964.59 1141.76 L1974.71 1116.79 L1984.67 1093.16 L1994.63 1070.55 L2004.75 1049.29 L2014.71 1029.04 L2024.66 1010.14 L2034.79 992.42 L2044.74 975.88 L2054.87 960.53 L2064.82 946.35 L2074.78 933.36 L2084.91 921.54 L2094.86 910.91 L2104.82 901.46 L2114.94 893.19 L2124.90 886.28 L2134.86 880.37 L2144.98 873.45 L2154.94 857.93 L2165.06 843.92 L2175.02 831.09 L2184.98 813.88 L2195.10 792.11 L2205.06 771.86 L2215.01 753.13 L2225.14 735.92 L2235.09 720.39 L2245.05 706.56 L2255.18 694.24 L2265.13 683.44 L2275.26 674.16 L2285.21 666.56 L2295.17 660.66 L2305.29 656.27 L2315.25 653.40 L2325.21 652.22 L2335.33 649.86 L2345.29 639.56 L2355.24 630.62 L2365.37 623.03 L2375.32 616.78 L2385.45 612.06 L2395.41 608.68 L2405.36 606.66 L2415.49 605.98 L2425.44 606.82 L2435.40 608.85 L2445.53 612.39 L2455.48 617.29 L2465.44 623.70 L2475.56 631.46 L2485.52 640.41 L2495.64 650.87 L2505.60 662.85 L2515.56 676.01 L2525.68 690.69 L2535.64 706.72 L2545.59 724.11 L2555.72 743.01 L2565.68 763.26 L2575.63 784.86 L2585.76 807.81 L2595.71 832.11 L2605.84 857.93 L2615.79 885.09 L2625.75 913.61 L2635.88 943.48 L2645.83 974.87 L2655.79 1007.61 L2665.91 1041.69 L2675.87 1077.13 L2685.99 1113.92 L2695.95 1152.22 L2705.91 1191.88 L2716.03 1232.89 L2725.99 1265.79 L2735.94 1285.71 L2746.07 1305.96 L2756.03 1327.05 L2765.98 1349.16 L2776.11 1372.28 L2786.06 1396.41 L2796.19 1421.55 L2806.14 1447.71 L2816.10 1474.88 L2826.23 1494.96 L2836.18 1511.66 L2846.14 1529.21 L2856.26 1547.44 L2866.22 1566.51 L2876.18 1586.42 L2886.30 1607.18 L2896.26 1628.61 L2906.38 1650.88 L2916.34 1674.00 L2926.29 1697.79 L2936.42 1722.60 L2946.38 1747.91 L2956.33 1774.24 L2966.46 1801.24 L2976.41 1820.98 L2986.37 1837.18 L2996.49 1854.06 L3006.45 1871.44 L3016.58 1889.49 L3026.53 1908.23 L3036.49 1927.46 L3046.61 1947.21 L3056.57 1967.63 L3066.53 1988.72 L3076.65 2010.32 L3086.61 2032.43 L3096.56 2055.21 L3106.69 2078.66 L3116.64 2102.63 L3126.77 2127.26 L3136.73 2152.41 L3146.68 2178.23 L3156.81 2204.55 L3166.76 2231.55 L3176.72 2259.06 L3186.84 2287.24 L3196.80 2304.45 L3206.76 2321.32 L3216.88 2338.71 L3226.84 2356.26 L3236.96 2374.48 L3246.92 2392.88 L3256.88 2411.78 L3267.00 2431.18 L3276.96 2450.76 L3286.91 2470.84 L3297.04 2491.43 L3306.99 2512.18 L3316.95 2533.61 L3327.08 2555.21 L3337.03 2577.32 L3347.16 2599.76 L3357.11 2622.54 L3367.07 2645.83 L3377.19 2660.34 L3387.15 2671.99 L3397.11 2683.97 L3407.23 2692.74 L3417.19 2680.76 L3427.14 2668.95 L3437.27 2657.31 L3447.23 2646.00 L3457.35 2634.69 L3467.31 2623.73 L3477.26 2612.93 L3487.39 2602.29 L3497.34 2591.83 L3507.30 2581.71 L3517.43 2571.58 L3527.38 2561.79 L3537.34 2552.18 L3547.46 2542.73 L3557.42 2533.44 L3567.54 2524.50 L3577.50 2515.73 L3587.46 2506.95 L3597.58 2498.68 L3607.54 2490.41 L3617.49 2482.31 L3627.62 2474.55 L3637.58 2466.79 L3647.70 2459.36 L3657.66 2452.11 L3667.61 2445.19 L3677.74 2438.27 L3687.69 2431.69 L3697.65 2425.11 L3707.78 2418.86 L3717.73 2412.96 L3727.69 2407.05 L3737.81 2401.31 L3747.77 2395.91 L3757.89 2390.68 L3767.85 2385.62 L3777.81 2380.73 L3787.93 2376.00 L3797.89 2371.61 L3807.84 2367.39 L3817.97 2363.34 L3827.93 2359.46 L3837.88 2355.75 L3848.01 2352.21 L3857.96 2349.00 L3868.09 2345.96 L3878.04 2343.09 L3888.00 2340.39 L3898.13 2337.86 L3908.08 2335.67 L3918.04 2333.48 L3928.16 2331.62 L3938.12 2329.93 L3948.08 2328.41 L3958.20 2327.23 L3968.16 2326.05 L3978.28 2325.21 L3988.24 2324.53 L3998.19 2324.03 L4008.32 2323.69 L4018.28 2323.52" stroke-linejoin="round" style="fill:none;stroke:#1A85FF;stroke-width:9.72"/>
	<path d=" M995.63 2317.61 L1005.41 2317.78 L1015.20 2317.95 L1025.16 2318.46 L1034.94 2319.13 L1044.90 2320.14 L1054.69 2321.16 L1064.64 2322.51 L1074.43 2324.03 L1084.22 2314.91 L1094.18 2304.79 L1103.96 2295.00 L1113.92 2285.72 L1123.71 2276.78 L1133.66 2268.17 L1143.45 2260.07 L1153.24 2252.31 L1163.19 2245.05 L1172.98 2238.13 L1182.94 2231.55 L1192.72 2225.48 L1202.68 2219.74 L1212.47 2214.51 L1222.26 2209.44 L1232.21 2205.06 L1242.00 2201.01 L1251.96 2197.29 L1261.74 2193.92 L1271.70 2191.05 L1281.49 2188.52 L1291.28 2186.49 L1301.23 2184.81 L1311.02 2183.46 L1320.98 2182.61 L1330.76 2182.11 L1340.72 2182.11 L1350.51 2182.44 L1360.29 2183.12 L1370.25 2184.30 L1380.04 2185.82 L1389.99 2187.84 L1399.78 2190.21 L1409.74 2192.91 L1419.53 2196.11 L1429.31 2199.66 L1439.27 2203.71 L1449.06 2207.93 L1459.01 2209.78 L1468.80 2190.54 L1478.76 2172.15 L1488.54 2154.43 L1498.33 2137.56 L1508.29 2121.53 L1518.08 2106.34 L1528.03 2091.99 L1537.82 2078.32 L1547.78 2065.50 L1557.56 2047.11 L1567.35 2023.82 L1577.31 2001.54 L1587.09 1980.28 L1597.05 1959.86 L1606.84 1930.84 L1616.79 1899.96 L1626.58 1869.92 L1636.37 1840.56 L1646.33 1812.04 L1656.11 1784.36 L1666.07 1757.53 L1675.86 1731.54 L1685.81 1706.23 L1695.60 1681.76 L1705.39 1649.03 L1715.34 1614.09 L1725.13 1580.18 L1735.09 1547.27 L1744.88 1515.38 L1754.83 1484.49 L1764.62 1454.63 L1774.41 1425.77 L1784.36 1397.93 L1794.15 1371.09 L1804.11 1345.11 L1813.89 1320.30 L1823.85 1296.51 L1833.64 1273.72 L1843.43 1251.79 L1853.38 1231.03 L1863.17 1211.29 L1873.13 1192.39 L1882.91 1174.67 L1892.87 1157.96 L1902.66 1142.10 L1912.44 1127.42 L1922.40 1113.58 L1932.19 1094.18 L1942.14 1070.21 L1951.93 1047.60 L1961.89 1026.17 L1971.68 1005.92 L1981.46 986.85 L1991.42 969.13 L2001.21 952.43 L2011.16 937.07 L2020.95 922.89 L2030.91 909.90 L2040.69 898.09 L2050.48 887.63 L2060.44 878.18 L2070.23 870.07 L2080.18 863.16 L2089.97 857.42 L2099.93 850.33 L2109.71 834.81 L2119.50 820.80 L2129.46 805.11 L2139.24 781.65 L2149.20 759.71 L2158.99 739.46 L2168.94 720.90 L2178.73 703.86 L2188.52 688.50 L2198.48 674.66 L2208.26 662.51 L2218.22 652.05 L2228.01 643.11 L2237.96 635.85 L2247.75 630.11 L2257.54 625.89 L2267.49 623.53 L2277.28 622.69 L2287.24 617.63 L2297.03 607.50 L2306.98 598.72 L2316.77 591.30 L2326.56 585.39 L2336.51 580.84 L2346.30 577.80 L2356.26 576.11 L2366.04 575.78 L2376.00 576.79 L2385.79 579.32 L2395.57 583.37 L2405.53 588.60 L2415.32 595.35 L2425.28 603.62 L2435.06 613.24 L2445.02 624.21 L2454.81 636.53 L2464.59 650.36 L2474.55 665.55 L2484.34 682.26 L2494.29 700.31 L2504.08 719.72 L2514.04 740.64 L2523.82 762.92 L2533.61 786.54 L2543.57 811.69 L2553.36 838.18 L2563.31 866.19 L2573.10 895.56 L2583.06 926.27 L2592.84 958.50 L2602.63 992.08 L2612.59 1027.01 L2622.38 1063.46 L2632.33 1101.26 L2642.12 1140.41 L2652.08 1181.08 L2661.86 1223.10 L2671.65 1249.43 L2681.61 1269.17 L2691.39 1289.76 L2701.35 1311.53 L2711.14 1334.31 L2721.09 1357.93 L2730.88 1382.74 L2740.67 1408.56 L2750.63 1435.22 L2760.41 1461.88 L2770.37 1478.25 L2780.16 1495.29 L2790.11 1513.35 L2799.90 1532.08 L2809.69 1551.49 L2819.64 1571.91 L2829.43 1593.00 L2839.39 1615.11 L2849.18 1637.72 L2859.13 1661.34 L2868.92 1685.81 L2878.71 1710.96 L2888.66 1736.94 L2898.45 1763.78 L2908.41 1787.40 L2918.19 1803.26 L2928.15 1819.80 L2937.94 1837.01 L2947.73 1854.73 L2957.68 1872.96 L2967.47 1891.86 L2977.43 1911.43 L2987.21 1931.51 L2997.17 1952.27 L3006.96 1973.70 L3016.74 1995.64 L3026.70 2018.25 L3036.49 2041.37 L3046.44 2065.16 L3056.23 2089.46 L3066.19 2114.44 L3075.98 2140.09 L3085.76 2166.24 L3095.72 2193.07 L3105.51 2220.41 L3115.46 2248.43 L3125.25 2277.11 L3135.21 2304.79 L3144.99 2322.17 L3154.78 2339.89 L3164.74 2357.94 L3174.53 2376.51 L3184.48 2395.57 L3194.27 2414.81 L3204.23 2434.73 L3214.01 2454.81 L3223.80 2475.39 L3233.76 2496.32 L3243.54 2517.75 L3253.50 2539.52 L3263.29 2561.79 L3273.24 2584.24 L3283.03 2607.36 L3292.82 2630.64 L3302.78 2654.44 L3312.56 2668.95 L3322.52 2680.93 L3332.31 2693.25 L3342.26 2692.74 L3352.05 2680.59 L3361.84 2668.61 L3371.79 2656.80 L3381.58 2645.16 L3391.54 2633.85 L3401.33 2622.54 L3411.28 2611.57 L3421.07 2600.78 L3430.86 2590.31 L3440.81 2579.85 L3450.60 2569.73 L3460.56 2559.77 L3470.34 2549.98 L3480.30 2540.36 L3490.09 2530.91 L3499.88 2521.80 L3509.83 2512.86 L3519.62 2504.08 L3529.58 2495.48 L3539.36 2487.04 L3549.32 2478.94 L3559.11 2471.01 L3568.89 2463.24 L3578.85 2455.65 L3588.64 2448.23 L3598.59 2441.14 L3608.38 2434.22 L3618.34 2427.47 L3628.13 2420.89 L3637.91 2414.48 L3647.87 2408.40 L3657.66 2402.32 L3667.61 2396.59 L3677.40 2391.19 L3687.36 2385.79 L3697.14 2380.56 L3706.93 2375.66 L3716.89 2370.94 L3726.68 2366.38 L3736.63 2361.99 L3746.42 2357.94 L3756.38 2354.06 L3766.16 2350.35 L3775.95 2346.81 L3785.91 2343.43 L3795.69 2340.23 L3805.65 2337.36 L3815.44 2334.66 L3825.39 2332.13 L3835.18 2329.76 L3844.97 2327.74 L3854.93 2325.71 L3864.71 2324.03 L3874.67 2322.51 L3884.46 2321.16 L3894.41 2320.14 L3904.20 2319.13 L3913.99 2318.46 L3923.94 2317.95 L3933.73 2317.78 L3943.69 2317.61" stroke-linejoin="round" style="fill:none;stroke:#D41159;stroke-width:9.72"/>
	<line x1="346.95" y1="2766.66" x2="346.95" y2="113.40" style="stroke:#000000;stroke-width:6.48"/>
	<line x1="346.95" y1="2695.28" x2="301.89" y2="2695.28" style="stroke:#000000;stroke-width:6.48"/>
	<text x="279.45" y="2734.71" style="font-family:'Helvetica';font-size:112.56px;fill:#000000" text-anchor="end">0</text>
	<line x1="346.95" y1="2067.69" x2="301.89" y2="2067.69" style="stroke:#000000;stroke-width:6.48"/>
	<text x="279.45" y="2107.13" style="font-family:'Helvetica';font-size:112.56px;fill:#000000" text-anchor="end">2</text>
	<line x1="346.95" y1="1439.94" x2="301.89" y2="1439.94" style="stroke:#000000;stroke-width:6.48"/>
	<text x="279.45" y="1479.38" style="font-family:'Helvetica';font-size:112.56px;fill:#000000" text-anchor="end">4</text>
	<line x1="346.95" y1="812.36" x2="301.89" y2="812.36" style="stroke:#000000;stroke-width:6.48"/>
	<text x="279.45" y="851.80" style="font-family:'Helvetica';font-size:112.56px;fill:#000000" text-anchor="end">6</text>
	<line x1="346.95" y1="184.61" x2="301.89" y2="184.61" style="stroke:#000000;stroke-width:6.48"/>
	<text x="279.45" y="224.05" style="font-family:'Helvetica';font-size:112.56px;fill:#000000" text-anchor="end">8</text>
	<line x1="346.95" y1="2766.66" x2="4364.72" y2="2766.66" style="stroke:#000000;stroke-width:6.48"/>
	<line x1="418.16" y1="2766.66" x2="418.16" y2="2811.54" style="stroke:#000000;stroke-width:6.48"/>
	<text x="418.16" y="2912.86" style="font-family:'Helvetica';font-size:112.56px;fill:#000000" text-anchor="middle">.2</text>
	<line x1="1386.96" y1="2766.66" x2="1386.96" y2="2811.54" style="stroke:#000000;stroke-width:6.48"/>
	<text x="1386.96" y="2912.86" style="font-family:'Helvetica';font-size:112.56px;fill:#000000" text-anchor="middle">.3</text>
	<line x1="2355.75" y1="2766.66" x2="2355.75" y2="2811.54" style="stroke:#000000;stroke-width:6.48"/>
	<text x="2355.75" y="2912.86" style="font-family:'Helvetica';font-size:112.56px;fill:#000000" text-anchor="middle">.4</text>
	<line x1="3324.54" y1="2766.66" x2="3324.54" y2="2811.54" style="stroke:#000000;stroke-width:6.48"/>
	<text x="3324.54" y="2912.86" style="font-family:'Helvetica';font-size:112.56px;fill:#000000" text-anchor="middle">.5</text>
	<line x1="4293.51" y1="2766.66" x2="4293.51" y2="2811.54" style="stroke:#000000;stroke-width:6.48"/>
	<text x="4293.51" y="2912.86" style="font-family:'Helvetica';font-size:112.56px;fill:#000000" text-anchor="middle">.6</text>
	<text x="2355.75" y="3070.31" style="font-family:'Helvetica';font-size:112.56px;fill:#000000" text-anchor="middle">x</text>
	<rect x="4403.53" y="1256.34" width="844.26" height="367.20" style="fill:#FFFFFF"/>
	<rect x="4406.77" y="1259.58" width="837.78" height="360.72" style="fill:none;stroke:#FFFFFF;stroke-width:6.48"/>
	<line x1="4452.13" y1="1361.31" x2="4711.33" y2="1361.31" style="stroke:#1A85FF;stroke-width:9.72"/>
	<line x1="4452.13" y1="1518.75" x2="4711.33" y2="1518.75" style="stroke:#D41159;stroke-width:9.72"/>
	<text x="4778.83" y="1400.74" style="font-family:'Helvetica';font-size:112.56px;fill:#000000">Logistic</text>
	<text x="4778.83" y="1558.19" style="font-family:'Helvetica';font-size:112.56px;fill:#000000">Poisson</text>
</svg>
