<?xml version="1.0" encoding="UTF-8" standalone="no"?>
<!-- This is a Stata 18.0 generated SVG file (http://www.stata.com) -->

<svg version="1.1" width="7.500in" height="4.500in" viewBox="0 0 5400 3240" xmlns="http://www.w3.org/2000/svg" xmlns:xlink="http://www.w3.org/1999/xlink">
	<desc>Stata Graph - Graph</desc>
	<rect x="0" y="0" width="5400" height="3240" style="fill:#FFFFFF;stroke:none"/>
	<rect x="0.00" y="0.00" width="5400.00" height="3240.00" style="fill:#FFFFFF"/>
	<rect x="3.24" y="3.24" width="5393.52" height="3233.52" style="fill:none;stroke:#FFFFFF;stroke-width:6.48"/>
	<rect x="410.23" y="113.40" width="3962.42" height="2653.26" style="fill:#FFFFFF"/>
	<rect x="413.47" y="116.64" width="3955.94" height="2646.78" style="fill:none;stroke:#FFFFFF;stroke-width:6.48"/>
	<line x1="410.23" y1="2695.28" x2="475.03" y2="2695.28" style="stroke:#F0F0F0;stroke-width:9.72"/>
	<line x1="507.43" y1="2695.28" x2="572.23" y2="2695.28" style="stroke:#F0F0F0;stroke-width:9.72"/>
	<line x1="604.63" y1="2695.28" x2="669.43" y2="2695.28" style="stroke:#F0F0F0;stroke-width:9.72"/>
	<line x1="701.83" y1="2695.28" x2="766.63" y2="2695.28" style="stroke:#F0F0F0;stroke-width:9.72"/>
	<line x1="799.03" y1="2695.28" x2="863.83" y2="2695.28" style="stroke:#F0F0F0;stroke-width:9.72"/>
	<line x1="896.23" y1="2695.28" x2="961.03" y2="2695.28" style="stroke:#F0F0F0;stroke-width:9.72"/>
	<line x1="993.43" y1="2695.28" x2="1058.23" y2="2695.28" style="stroke:#F0F0F0;stroke-width:9.72"/>
	<line x1="1090.63" y1="2695.28" x2="1155.43" y2="2695.28" style="stroke:#F0F0F0;stroke-width:9.72"/>
	<line x1="1187.83" y1="2695.28" x2="1252.63" y2="2695.28" style="stroke:#F0F0F0;stroke-width:9.72"/>
	<line x1="1285.03" y1="2695.28" x2="1349.83" y2="2695.28" style="stroke:#F0F0F0;stroke-width:9.72"/>
	<line x1="1382.23" y1="2695.28" x2="1447.03" y2="2695.28" style="stroke:#F0F0F0;stroke-width:9.72"/>
	<line x1="1479.43" y1="2695.28" x2="1544.23" y2="2695.28" style="stroke:#F0F0F0;stroke-width:9.72"/>
	<line x1="1576.63" y1="2695.28" x2="1641.43" y2="2695.28" style="stroke:#F0F0F0;stroke-width:9.72"/>
	<line x1="1673.83" y1="2695.28" x2="1738.63" y2="2695.28" style="stroke:#F0F0F0;stroke-width:9.72"/>
	<line x1="1771.03" y1="2695.28" x2="1835.83" y2="2695.28" style="stroke:#F0F0F0;stroke-width:9.72"/>
	<line x1="1868.23" y1="2695.28" x2="1933.03" y2="2695.28" style="stroke:#F0F0F0;stroke-width:9.72"/>
	<line x1="1965.43" y1="2695.28" x2="2030.23" y2="2695.28" style="stroke:#F0F0F0;stroke-width:9.72"/>
	<line x1="2062.63" y1="2695.28" x2="2127.43" y2="2695.28" style="stroke:#F0F0F0;stroke-width:9.72"/>
	<line x1="2159.83" y1="2695.28" x2="2224.63" y2="2695.28" style="stroke:#F0F0F0;stroke-width:9.72"/>
	<line x1="2257.03" y1="2695.28" x2="2321.83" y2="2695.28" style="stroke:#F0F0F0;stroke-width:9.72"/>
	<line x1="2354.23" y1="2695.28" x2="2419.03" y2="2695.28" style="stroke:#F0F0F0;stroke-width:9.72"/>
	<line x1="2451.43" y1="2695.28" x2="2516.23" y2="2695.28" style="stroke:#F0F0F0;stroke-width:9.72"/>
	<line x1="2548.63" y1="2695.28" x2="2613.43" y2="2695.28" style="stroke:#F0F0F0;stroke-width:9.72"/>
	<line x1="2645.83" y1="2695.28" x2="2710.63" y2="2695.28" style="stroke:#F0F0F0;stroke-width:9.72"/>
	<line x1="2743.03" y1="2695.28" x2="2807.83" y2="2695.28" style="stroke:#F0F0F0;stroke-width:9.72"/>
	<line x1="2840.23" y1="2695.28" x2="2905.03" y2="2695.28" style="stroke:#F0F0F0;stroke-width:9.72"/>
	<line x1="2937.43" y1="2695.28" x2="3002.23" y2="2695.28" style="stroke:#F0F0F0;stroke-width:9.72"/>
	<line x1="3034.63" y1="2695.28" x2="3099.43" y2="2695.28" style="stroke:#F0F0F0;stroke-width:9.72"/>
	<line x1="3131.83" y1="2695.28" x2="3196.63" y2="2695.28" style="stroke:#F0F0F0;stroke-width:9.72"/>
	<line x1="3229.03" y1="2695.28" x2="3293.83" y2="2695.28" style="stroke:#F0F0F0;stroke-width:9.72"/>
	<line x1="3326.23" y1="2695.28" x2="3391.03" y2="2695.28" style="stroke:#F0F0F0;stroke-width:9.72"/>
	<line x1="3423.43" y1="2695.28" x2="3488.23" y2="2695.28" style="stroke:#F0F0F0;stroke-width:9.72"/>
	<line x1="3520.63" y1="2695.28" x2="3585.43" y2="2695.28" style="stroke:#F0F0F0;stroke-width:9.72"/>
	<line x1="3617.83" y1="2695.28" x2="3682.63" y2="2695.28" style="stroke:#F0F0F0;stroke-width:9.72"/>
	<line x1="3715.03" y1="2695.28" x2="3779.83" y2="2695.28" style="stroke:#F0F0F0;stroke-width:9.72"/>
	<line x1="3812.23" y1="2695.28" x2="3877.03" y2="2695.28" style="stroke:#F0F0F0;stroke-width:9.72"/>
	<line x1="3909.43" y1="2695.28" x2="3974.23" y2="2695.28" style="stroke:#F0F0F0;stroke-width:9.72"/>
	<line x1="4006.63" y1="2695.28" x2="4071.43" y2="2695.28" style="stroke:#F0F0F0;stroke-width:9.72"/>
	<line x1="4103.83" y1="2695.28" x2="4168.63" y2="2695.28" style="stroke:#F0F0F0;stroke-width:9.72"/>
	<line x1="4201.03" y1="2695.28" x2="4265.83" y2="2695.28" style="stroke:#F0F0F0;stroke-width:9.72"/>
	<line x1="4298.23" y1="2695.28" x2="4363.03" y2="2695.28" style="stroke:#F0F0F0;stroke-width:9.72"/>
	<line x1="410.23" y1="1858.44" x2="475.03" y2="1858.44" style="stroke:#F0F0F0;stroke-width:9.72"/>
	<line x1="507.43" y1="1858.44" x2="572.23" y2="1858.44" style="stroke:#F0F0F0;stroke-width:9.72"/>
	<line x1="604.63" y1="1858.44" x2="669.43" y2="1858.44" style="stroke:#F0F0F0;stroke-width:9.72"/>
	<line x1="701.83" y1="1858.44" x2="766.63" y2="1858.44" style="stroke:#F0F0F0;stroke-width:9.72"/>
	<line x1="799.03" y1="1858.44" x2="863.83" y2="1858.44" style="stroke:#F0F0F0;stroke-width:9.72"/>
	<line x1="896.23" y1="1858.44" x2="961.03" y2="1858.44" style="stroke:#F0F0F0;stroke-width:9.72"/>
	<line x1="993.43" y1="1858.44" x2="1058.23" y2="1858.44" style="stroke:#F0F0F0;stroke-width:9.72"/>
	<line x1="1090.63" y1="1858.44" x2="1155.43" y2="1858.44" style="stroke:#F0F0F0;stroke-width:9.72"/>
	<line x1="1187.83" y1="1858.44" x2="1252.63" y2="1858.44" style="stroke:#F0F0F0;stroke-width:9.72"/>
	<line x1="1285.03" y1="1858.44" x2="1349.83" y2="1858.44" style="stroke:#F0F0F0;stroke-width:9.72"/>
	<line x1="1382.23" y1="1858.44" x2="1447.03" y2="1858.44" style="stroke:#F0F0F0;stroke-width:9.72"/>
	<line x1="1479.43" y1="1858.44" x2="1544.23" y2="1858.44" style="stroke:#F0F0F0;stroke-width:9.72"/>
	<line x1="1576.63" y1="1858.44" x2="1641.43" y2="1858.44" style="stroke:#F0F0F0;stroke-width:9.72"/>
	<line x1="1673.83" y1="1858.44" x2="1738.63" y2="1858.44" style="stroke:#F0F0F0;stroke-width:9.72"/>
	<line x1="1771.03" y1="1858.44" x2="1835.83" y2="1858.44" style="stroke:#F0F0F0;stroke-width:9.72"/>
	<line x1="1868.23" y1="1858.44" x2="1933.03" y2="1858.44" style="stroke:#F0F0F0;stroke-width:9.72"/>
	<line x1="1965.43" y1="1858.44" x2="2030.23" y2="1858.44" style="stroke:#F0F0F0;stroke-width:9.72"/>
	<line x1="2062.63" y1="1858.44" x2="2127.43" y2="1858.44" style="stroke:#F0F0F0;stroke-width:9.72"/>
	<line x1="2159.83" y1="1858.44" x2="2224.63" y2="1858.44" style="stroke:#F0F0F0;stroke-width:9.72"/>
	<line x1="2257.03" y1="1858.44" x2="2321.83" y2="1858.44" style="stroke:#F0F0F0;stroke-width:9.72"/>
	<line x1="2354.23" y1="1858.44" x2="2419.03" y2="1858.44" style="stroke:#F0F0F0;stroke-width:9.72"/>
	<line x1="2451.43" y1="1858.44" x2="2516.23" y2="1858.44" style="stroke:#F0F0F0;stroke-width:9.72"/>
	<line x1="2548.63" y1="1858.44" x2="2613.43" y2="1858.44" style="stroke:#F0F0F0;stroke-width:9.72"/>
	<line x1="2645.83" y1="1858.44" x2="2710.63" y2="1858.44" style="stroke:#F0F0F0;stroke-width:9.72"/>
	<line x1="2743.03" y1="1858.44" x2="2807.83" y2="1858.44" style="stroke:#F0F0F0;stroke-width:9.72"/>
	<line x1="2840.23" y1="1858.44" x2="2905.03" y2="1858.44" style="stroke:#F0F0F0;stroke-width:9.72"/>
	<line x1="2937.43" y1="1858.44" x2="3002.23" y2="1858.44" style="stroke:#F0F0F0;stroke-width:9.72"/>
	<line x1="3034.63" y1="1858.44" x2="3099.43" y2="1858.44" style="stroke:#F0F0F0;stroke-width:9.72"/>
	<line x1="3131.83" y1="1858.44" x2="3196.63" y2="1858.44" style="stroke:#F0F0F0;stroke-width:9.72"/>
	<line x1="3229.03" y1="1858.44" x2="3293.83" y2="1858.44" style="stroke:#F0F0F0;stroke-width:9.72"/>
	<line x1="3326.23" y1="1858.44" x2="3391.03" y2="1858.44" style="stroke:#F0F0F0;stroke-width:9.72"/>
	<line x1="3423.43" y1="1858.44" x2="3488.23" y2="1858.44" style="stroke:#F0F0F0;stroke-width:9.72"/>
	<line x1="3520.63" y1="1858.44" x2="3585.43" y2="1858.44" style="stroke:#F0F0F0;stroke-width:9.72"/>
	<line x1="3617.83" y1="1858.44" x2="3682.63" y2="1858.44" style="stroke:#F0F0F0;stroke-width:9.72"/>
	<line x1="3715.03" y1="1858.44" x2="3779.83" y2="1858.44" style="stroke:#F0F0F0;stroke-width:9.72"/>
	<line x1="3812.23" y1="1858.44" x2="3877.03" y2="1858.44" style="stroke:#F0F0F0;stroke-width:9.72"/>
	<line x1="3909.43" y1="1858.44" x2="3974.23" y2="1858.44" style="stroke:#F0F0F0;stroke-width:9.72"/>
	<line x1="4006.63" y1="1858.44" x2="4071.43" y2="1858.44" style="stroke:#F0F0F0;stroke-width:9.72"/>
	<line x1="4103.83" y1="1858.44" x2="4168.63" y2="1858.44" style="stroke:#F0F0F0;stroke-width:9.72"/>
	<line x1="4201.03" y1="1858.44" x2="4265.83" y2="1858.44" style="stroke:#F0F0F0;stroke-width:9.72"/>
	<line x1="4298.23" y1="1858.44" x2="4363.03" y2="1858.44" style="stroke:#F0F0F0;stroke-width:9.72"/>
	<line x1="410.23" y1="1021.61" x2="475.03" y2="1021.61" style="stroke:#F0F0F0;stroke-width:9.72"/>
	<line x1="507.43" y1="1021.61" x2="572.23" y2="1021.61" style="stroke:#F0F0F0;stroke-width:9.72"/>
	<line x1="604.63" y1="1021.61" x2="669.43" y2="1021.61" style="stroke:#F0F0F0;stroke-width:9.72"/>
	<line x1="701.83" y1="1021.61" x2="766.63" y2="1021.61" style="stroke:#F0F0F0;stroke-width:9.72"/>
	<line x1="799.03" y1="1021.61" x2="863.83" y2="1021.61" style="stroke:#F0F0F0;stroke-width:9.72"/>
	<line x1="896.23" y1="1021.61" x2="961.03" y2="1021.61" style="stroke:#F0F0F0;stroke-width:9.72"/>
	<line x1="993.43" y1="1021.61" x2="1058.23" y2="1021.61" style="stroke:#F0F0F0;stroke-width:9.72"/>
	<line x1="1090.63" y1="1021.61" x2="1155.43" y2="1021.61" style="stroke:#F0F0F0;stroke-width:9.72"/>
	<line x1="1187.83" y1="1021.61" x2="1252.63" y2="1021.61" style="stroke:#F0F0F0;stroke-width:9.72"/>
	<line x1="1285.03" y1="1021.61" x2="1349.83" y2="1021.61" style="stroke:#F0F0F0;stroke-width:9.72"/>
	<line x1="1382.23" y1="1021.61" x2="1447.03" y2="1021.61" style="stroke:#F0F0F0;stroke-width:9.72"/>
	<line x1="1479.43" y1="1021.61" x2="1544.23" y2="1021.61" style="stroke:#F0F0F0;stroke-width:9.72"/>
	<line x1="1576.63" y1="1021.61" x2="1641.43" y2="1021.61" style="stroke:#F0F0F0;stroke-width:9.72"/>
	<line x1="1673.83" y1="1021.61" x2="1738.63" y2="1021.61" style="stroke:#F0F0F0;stroke-width:9.72"/>
	<line x1="1771.03" y1="1021.61" x2="1835.83" y2="1021.61" style="stroke:#F0F0F0;stroke-width:9.72"/>
	<line x1="1868.23" y1="1021.61" x2="1933.03" y2="1021.61" style="stroke:#F0F0F0;stroke-width:9.72"/>
	<line x1="1965.43" y1="1021.61" x2="2030.23" y2="1021.61" style="stroke:#F0F0F0;stroke-width:9.72"/>
	<line x1="2062.63" y1="1021.61" x2="2127.43" y2="1021.61" style="stroke:#F0F0F0;stroke-width:9.72"/>
	<line x1="2159.83" y1="1021.61" x2="2224.63" y2="1021.61" style="stroke:#F0F0F0;stroke-width:9.72"/>
	<line x1="2257.03" y1="1021.61" x2="2321.83" y2="1021.61" style="stroke:#F0F0F0;stroke-width:9.72"/>
	<line x1="2354.23" y1="1021.61" x2="2419.03" y2="1021.61" style="stroke:#F0F0F0;stroke-width:9.72"/>
	<line x1="2451.43" y1="1021.61" x2="2516.23" y2="1021.61" style="stroke:#F0F0F0;stroke-width:9.72"/>
	<line x1="2548.63" y1="1021.61" x2="2613.43" y2="1021.61" style="stroke:#F0F0F0;stroke-width:9.72"/>
	<line x1="2645.83" y1="1021.61" x2="2710.63" y2="1021.61" style="stroke:#F0F0F0;stroke-width:9.72"/>
	<line x1="2743.03" y1="1021.61" x2="2807.83" y2="1021.61" style="stroke:#F0F0F0;stroke-width:9.72"/>
	<line x1="2840.23" y1="1021.61" x2="2905.03" y2="1021.61" style="stroke:#F0F0F0;stroke-width:9.72"/>
	<line x1="2937.43" y1="1021.61" x2="3002.23" y2="1021.61" style="stroke:#F0F0F0;stroke-width:9.72"/>
	<line x1="3034.63" y1="1021.61" x2="3099.43" y2="1021.61" style="stroke:#F0F0F0;stroke-width:9.72"/>
	<line x1="3131.83" y1="1021.61" x2="3196.63" y2="1021.61" style="stroke:#F0F0F0;stroke-width:9.72"/>
	<line x1="3229.03" y1="1021.61" x2="3293.83" y2="1021.61" style="stroke:#F0F0F0;stroke-width:9.72"/>
	<line x1="3326.23" y1="1021.61" x2="3391.03" y2="1021.61" style="stroke:#F0F0F0;stroke-width:9.72"/>
	<line x1="3423.43" y1="1021.61" x2="3488.23" y2="1021.61" style="stroke:#F0F0F0;stroke-width:9.72"/>
	<line x1="3520.63" y1="1021.61" x2="3585.43" y2="1021.61" style="stroke:#F0F0F0;stroke-width:9.72"/>
	<line x1="3617.83" y1="1021.61" x2="3682.63" y2="1021.61" style="stroke:#F0F0F0;stroke-width:9.72"/>
	<line x1="3715.03" y1="1021.61" x2="3779.83" y2="1021.61" style="stroke:#F0F0F0;stroke-width:9.72"/>
	<line x1="3812.23" y1="1021.61" x2="3877.03" y2="1021.61" style="stroke:#F0F0F0;stroke-width:9.72"/>
	<line x1="3909.43" y1="1021.61" x2="3974.23" y2="1021.61" style="stroke:#F0F0F0;stroke-width:9.72"/>
	<line x1="4006.63" y1="1021.61" x2="4071.43" y2="1021.61" style="stroke:#F0F0F0;stroke-width:9.72"/>
	<line x1="4103.83" y1="1021.61" x2="4168.63" y2="1021.61" style="stroke:#F0F0F0;stroke-width:9.72"/>
	<line x1="4201.03" y1="1021.61" x2="4265.83" y2="1021.61" style="stroke:#F0F0F0;stroke-width:9.72"/>
	<line x1="4298.23" y1="1021.61" x2="4363.03" y2="1021.61" style="stroke:#F0F0F0;stroke-width:9.72"/>
	<line x1="410.23" y1="184.61" x2="475.03" y2="184.61" style="stroke:#F0F0F0;stroke-width:9.72"/>
	<line x1="507.43" y1="184.61" x2="572.23" y2="184.61" style="stroke:#F0F0F0;stroke-width:9.72"/>
	<line x1="604.63" y1="184.61" x2="669.43" y2="184.61" style="stroke:#F0F0F0;stroke-width:9.72"/>
	<line x1="701.83" y1="184.61" x2="766.63" y2="184.61" style="stroke:#F0F0F0;stroke-width:9.72"/>
	<line x1="799.03" y1="184.61" x2="863.83" y2="184.61" style="stroke:#F0F0F0;stroke-width:9.72"/>
	<line x1="896.23" y1="184.61" x2="961.03" y2="184.61" style="stroke:#F0F0F0;stroke-width:9.72"/>
	<line x1="993.43" y1="184.61" x2="1058.23" y2="184.61" style="stroke:#F0F0F0;stroke-width:9.72"/>
	<line x1="1090.63" y1="184.61" x2="1155.43" y2="184.61" style="stroke:#F0F0F0;stroke-width:9.72"/>
	<line x1="1187.83" y1="184.61" x2="1252.63" y2="184.61" style="stroke:#F0F0F0;stroke-width:9.72"/>
	<line x1="1285.03" y1="184.61" x2="1349.83" y2="184.61" style="stroke:#F0F0F0;stroke-width:9.72"/>
	<line x1="1382.23" y1="184.61" x2="1447.03" y2="184.61" style="stroke:#F0F0F0;stroke-width:9.72"/>
	<line x1="1479.43" y1="184.61" x2="1544.23" y2="184.61" style="stroke:#F0F0F0;stroke-width:9.72"/>
	<line x1="1576.63" y1="184.61" x2="1641.43" y2="184.61" style="stroke:#F0F0F0;stroke-width:9.72"/>
	<line x1="1673.83" y1="184.61" x2="1738.63" y2="184.61" style="stroke:#F0F0F0;stroke-width:9.72"/>
	<line x1="1771.03" y1="184.61" x2="1835.83" y2="184.61" style="stroke:#F0F0F0;stroke-width:9.72"/>
	<line x1="1868.23" y1="184.61" x2="1933.03" y2="184.61" style="stroke:#F0F0F0;stroke-width:9.72"/>
	<line x1="1965.43" y1="184.61" x2="2030.23" y2="184.61" style="stroke:#F0F0F0;stroke-width:9.72"/>
	<line x1="2062.63" y1="184.61" x2="2127.43" y2="184.61" style="stroke:#F0F0F0;stroke-width:9.72"/>
	<line x1="2159.83" y1="184.61" x2="2224.63" y2="184.61" style="stroke:#F0F0F0;stroke-width:9.72"/>
	<line x1="2257.03" y1="184.61" x2="2321.83" y2="184.61" style="stroke:#F0F0F0;stroke-width:9.72"/>
	<line x1="2354.23" y1="184.61" x2="2419.03" y2="184.61" style="stroke:#F0F0F0;stroke-width:9.72"/>
	<line x1="2451.43" y1="184.61" x2="2516.23" y2="184.61" style="stroke:#F0F0F0;stroke-width:9.72"/>
	<line x1="2548.63" y1="184.61" x2="2613.43" y2="184.61" style="stroke:#F0F0F0;stroke-width:9.72"/>
	<line x1="2645.83" y1="184.61" x2="2710.63" y2="184.61" style="stroke:#F0F0F0;stroke-width:9.72"/>
	<line x1="2743.03" y1="184.61" x2="2807.83" y2="184.61" style="stroke:#F0F0F0;stroke-width:9.72"/>
	<line x1="2840.23" y1="184.61" x2="2905.03" y2="184.61" style="stroke:#F0F0F0;stroke-width:9.72"/>
	<line x1="2937.43" y1="184.61" x2="3002.23" y2="184.61" style="stroke:#F0F0F0;stroke-width:9.72"/>
	<line x1="3034.63" y1="184.61" x2="3099.43" y2="184.61" style="stroke:#F0F0F0;stroke-width:9.72"/>
	<line x1="3131.83" y1="184.61" x2="3196.63" y2="184.61" style="stroke:#F0F0F0;stroke-width:9.72"/>
	<line x1="3229.03" y1="184.61" x2="3293.83" y2="184.61" style="stroke:#F0F0F0;stroke-width:9.72"/>
	<line x1="3326.23" y1="184.61" x2="3391.03" y2="184.61" style="stroke:#F0F0F0;stroke-width:9.72"/>
	<line x1="3423.43" y1="184.61" x2="3488.23" y2="184.61" style="stroke:#F0F0F0;stroke-width:9.72"/>
	<line x1="3520.63" y1="184.61" x2="3585.43" y2="184.61" style="stroke:#F0F0F0;stroke-width:9.72"/>
	<line x1="3617.83" y1="184.61" x2="3682.63" y2="184.61" style="stroke:#F0F0F0;stroke-width:9.72"/>
	<line x1="3715.03" y1="184.61" x2="3779.83" y2="184.61" style="stroke:#F0F0F0;stroke-width:9.72"/>
	<line x1="3812.23" y1="184.61" x2="3877.03" y2="184.61" style="stroke:#F0F0F0;stroke-width:9.72"/>
	<line x1="3909.43" y1="184.61" x2="3974.23" y2="184.61" style="stroke:#F0F0F0;stroke-width:9.72"/>
	<line x1="4006.63" y1="184.61" x2="4071.43" y2="184.61" style="stroke:#F0F0F0;stroke-width:9.72"/>
	<line x1="4103.83" y1="184.61" x2="4168.63" y2="184.61" style="stroke:#F0F0F0;stroke-width:9.72"/>
	<line x1="4201.03" y1="184.61" x2="4265.83" y2="184.61" style="stroke:#F0F0F0;stroke-width:9.72"/>
	<line x1="4298.23" y1="184.61" x2="4363.03" y2="184.61" style="stroke:#F0F0F0;stroke-width:9.72"/>
	<line x1="481.44" y1="2766.66" x2="481.44" y2="2701.86" style="stroke:#F0F0F0;stroke-width:9.72"/>
	<line x1="481.44" y1="2669.46" x2="481.44" y2="2604.66" style="stroke:#F0F0F0;stroke-width:9.72"/>
	<line x1="481.44" y1="2572.26" x2="481.44" y2="2507.46" style="stroke:#F0F0F0;stroke-width:9.72"/>
	<line x1="481.44" y1="2475.06" x2="481.44" y2="2410.26" style="stroke:#F0F0F0;stroke-width:9.72"/>
	<line x1="481.44" y1="2377.86" x2="481.44" y2="2313.06" style="stroke:#F0F0F0;stroke-width:9.72"/>
	<line x1="481.44" y1="2280.66" x2="481.44" y2="2215.86" style="stroke:#F0F0F0;stroke-width:9.72"/>
	<line x1="481.44" y1="2183.46" x2="481.44" y2="2118.66" style="stroke:#F0F0F0;stroke-width:9.72"/>
	<line x1="481.44" y1="2086.26" x2="481.44" y2="2021.46" style="stroke:#F0F0F0;stroke-width:9.72"/>
	<line x1="481.44" y1="1989.06" x2="481.44" y2="1924.26" style="stroke:#F0F0F0;stroke-width:9.72"/>
	<line x1="481.44" y1="1891.86" x2="481.44" y2="1827.06" style="stroke:#F0F0F0;stroke-width:9.72"/>
	<line x1="481.44" y1="1794.66" x2="481.44" y2="1729.86" style="stroke:#F0F0F0;stroke-width:9.72"/>
	<line x1="481.44" y1="1697.46" x2="481.44" y2="1632.66" style="stroke:#F0F0F0;stroke-width:9.72"/>
	<line x1="481.44" y1="1600.26" x2="481.44" y2="1535.46" style="stroke:#F0F0F0;stroke-width:9.72"/>
	<line x1="481.44" y1="1503.06" x2="481.44" y2="1438.26" style="stroke:#F0F0F0;stroke-width:9.72"/>
	<line x1="481.44" y1="1405.86" x2="481.44" y2="1341.06" style="stroke:#F0F0F0;stroke-width:9.72"/>
	<line x1="481.44" y1="1308.66" x2="481.44" y2="1243.86" style="stroke:#F0F0F0;stroke-width:9.72"/>
	<line x1="481.44" y1="1211.46" x2="481.44" y2="1146.66" style="stroke:#F0F0F0;stroke-width:9.72"/>
	<line x1="481.44" y1="1114.26" x2="481.44" y2="1049.46" style="stroke:#F0F0F0;stroke-width:9.72"/>
	<line x1="481.44" y1="1017.06" x2="481.44" y2="952.26" style="stroke:#F0F0F0;stroke-width:9.72"/>
	<line x1="481.44" y1="919.86" x2="481.44" y2="855.06" style="stroke:#F0F0F0;stroke-width:9.72"/>
	<line x1="481.44" y1="822.66" x2="481.44" y2="757.86" style="stroke:#F0F0F0;stroke-width:9.72"/>
	<line x1="481.44" y1="725.46" x2="481.44" y2="660.66" style="stroke:#F0F0F0;stroke-width:9.72"/>
	<line x1="481.44" y1="628.26" x2="481.44" y2="563.46" style="stroke:#F0F0F0;stroke-width:9.72"/>
	<line x1="481.44" y1="531.06" x2="481.44" y2="466.26" style="stroke:#F0F0F0;stroke-width:9.72"/>
	<line x1="481.44" y1="433.86" x2="481.44" y2="369.06" style="stroke:#F0F0F0;stroke-width:9.72"/>
	<line x1="481.44" y1="336.66" x2="481.44" y2="271.86" style="stroke:#F0F0F0;stroke-width:9.72"/>
	<line x1="481.44" y1="239.46" x2="481.44" y2="174.66" style="stroke:#F0F0F0;stroke-width:9.72"/>
	<line x1="481.44" y1="142.26" x2="481.44" y2="113.40" style="stroke:#F0F0F0;stroke-width:9.72"/>
	<line x1="1219.56" y1="2766.66" x2="1219.56" y2="2701.86" style="stroke:#F0F0F0;stroke-width:9.72"/>
	<line x1="1219.56" y1="2669.46" x2="1219.56" y2="2604.66" style="stroke:#F0F0F0;stroke-width:9.72"/>
	<line x1="1219.56" y1="2572.26" x2="1219.56" y2="2507.46" style="stroke:#F0F0F0;stroke-width:9.72"/>
	<line x1="1219.56" y1="2475.06" x2="1219.56" y2="2410.26" style="stroke:#F0F0F0;stroke-width:9.72"/>
	<line x1="1219.56" y1="2377.86" x2="1219.56" y2="2313.06" style="stroke:#F0F0F0;stroke-width:9.72"/>
	<line x1="1219.56" y1="2280.66" x2="1219.56" y2="2215.86" style="stroke:#F0F0F0;stroke-width:9.72"/>
	<line x1="1219.56" y1="2183.46" x2="1219.56" y2="2118.66" style="stroke:#F0F0F0;stroke-width:9.72"/>
	<line x1="1219.56" y1="2086.26" x2="1219.56" y2="2021.46" style="stroke:#F0F0F0;stroke-width:9.72"/>
	<line x1="1219.56" y1="1989.06" x2="1219.56" y2="1924.26" style="stroke:#F0F0F0;stroke-width:9.72"/>
	<line x1="1219.56" y1="1891.86" x2="1219.56" y2="1827.06" style="stroke:#F0F0F0;stroke-width:9.72"/>
	<line x1="1219.56" y1="1794.66" x2="1219.56" y2="1729.86" style="stroke:#F0F0F0;stroke-width:9.72"/>
	<line x1="1219.56" y1="1697.46" x2="1219.56" y2="1632.66" style="stroke:#F0F0F0;stroke-width:9.72"/>
	<line x1="1219.56" y1="1600.26" x2="1219.56" y2="1535.46" style="stroke:#F0F0F0;stroke-width:9.72"/>
	<line x1="1219.56" y1="1503.06" x2="1219.56" y2="1438.26" style="stroke:#F0F0F0;stroke-width:9.72"/>
	<line x1="1219.56" y1="1405.86" x2="1219.56" y2="1341.06" style="stroke:#F0F0F0;stroke-width:9.72"/>
	<line x1="1219.56" y1="1308.66" x2="1219.56" y2="1243.86" style="stroke:#F0F0F0;stroke-width:9.72"/>
	<line x1="1219.56" y1="1211.46" x2="1219.56" y2="1146.66" style="stroke:#F0F0F0;stroke-width:9.72"/>
	<line x1="1219.56" y1="1114.26" x2="1219.56" y2="1049.46" style="stroke:#F0F0F0;stroke-width:9.72"/>
	<line x1="1219.56" y1="1017.06" x2="1219.56" y2="952.26" style="stroke:#F0F0F0;stroke-width:9.72"/>
	<line x1="1219.56" y1="919.86" x2="1219.56" y2="855.06" style="stroke:#F0F0F0;stroke-width:9.72"/>
	<line x1="1219.56" y1="822.66" x2="1219.56" y2="757.86" style="stroke:#F0F0F0;stroke-width:9.72"/>
	<line x1="1219.56" y1="725.46" x2="1219.56" y2="660.66" style="stroke:#F0F0F0;stroke-width:9.72"/>
	<line x1="1219.56" y1="628.26" x2="1219.56" y2="563.46" style="stroke:#F0F0F0;stroke-width:9.72"/>
	<line x1="1219.56" y1="531.06" x2="1219.56" y2="466.26" style="stroke:#F0F0F0;stroke-width:9.72"/>
	<line x1="1219.56" y1="433.86" x2="1219.56" y2="369.06" style="stroke:#F0F0F0;stroke-width:9.72"/>
	<line x1="1219.56" y1="336.66" x2="1219.56" y2="271.86" style="stroke:#F0F0F0;stroke-width:9.72"/>
	<line x1="1219.56" y1="239.46" x2="1219.56" y2="174.66" style="stroke:#F0F0F0;stroke-width:9.72"/>
	<line x1="1219.56" y1="142.26" x2="1219.56" y2="113.40" style="stroke:#F0F0F0;stroke-width:9.72"/>
	<line x1="1957.50" y1="2766.66" x2="1957.50" y2="2701.86" style="stroke:#F0F0F0;stroke-width:9.72"/>
	<line x1="1957.50" y1="2669.46" x2="1957.50" y2="2604.66" style="stroke:#F0F0F0;stroke-width:9.72"/>
	<line x1="1957.50" y1="2572.26" x2="1957.50" y2="2507.46" style="stroke:#F0F0F0;stroke-width:9.72"/>
	<line x1="1957.50" y1="2475.06" x2="1957.50" y2="2410.26" style="stroke:#F0F0F0;stroke-width:9.72"/>
	<line x1="1957.50" y1="2377.86" x2="1957.50" y2="2313.06" style="stroke:#F0F0F0;stroke-width:9.72"/>
	<line x1="1957.50" y1="2280.66" x2="1957.50" y2="2215.86" style="stroke:#F0F0F0;stroke-width:9.72"/>
	<line x1="1957.50" y1="2183.46" x2="1957.50" y2="2118.66" style="stroke:#F0F0F0;stroke-width:9.72"/>
	<line x1="1957.50" y1="2086.26" x2="1957.50" y2="2021.46" style="stroke:#F0F0F0;stroke-width:9.72"/>
	<line x1="1957.50" y1="1989.06" x2="1957.50" y2="1924.26" style="stroke:#F0F0F0;stroke-width:9.72"/>
	<line x1="1957.50" y1="1891.86" x2="1957.50" y2="1827.06" style="stroke:#F0F0F0;stroke-width:9.72"/>
	<line x1="1957.50" y1="1794.66" x2="1957.50" y2="1729.86" style="stroke:#F0F0F0;stroke-width:9.72"/>
	<line x1="1957.50" y1="1697.46" x2="1957.50" y2="1632.66" style="stroke:#F0F0F0;stroke-width:9.72"/>
	<line x1="1957.50" y1="1600.26" x2="1957.50" y2="1535.46" style="stroke:#F0F0F0;stroke-width:9.72"/>
	<line x1="1957.50" y1="1503.06" x2="1957.50" y2="1438.26" style="stroke:#F0F0F0;stroke-width:9.72"/>
	<line x1="1957.50" y1="1405.86" x2="1957.50" y2="1341.06" style="stroke:#F0F0F0;stroke-width:9.72"/>
	<line x1="1957.50" y1="1308.66" x2="1957.50" y2="1243.86" style="stroke:#F0F0F0;stroke-width:9.72"/>
	<line x1="1957.50" y1="1211.46" x2="1957.50" y2="1146.66" style="stroke:#F0F0F0;stroke-width:9.72"/>
	<line x1="1957.50" y1="1114.26" x2="1957.50" y2="1049.46" style="stroke:#F0F0F0;stroke-width:9.72"/>
	<line x1="1957.50" y1="1017.06" x2="1957.50" y2="952.26" style="stroke:#F0F0F0;stroke-width:9.72"/>
	<line x1="1957.50" y1="919.86" x2="1957.50" y2="855.06" style="stroke:#F0F0F0;stroke-width:9.72"/>
	<line x1="1957.50" y1="822.66" x2="1957.50" y2="757.86" style="stroke:#F0F0F0;stroke-width:9.72"/>
	<line x1="1957.50" y1="725.46" x2="1957.50" y2="660.66" style="stroke:#F0F0F0;stroke-width:9.72"/>
	<line x1="1957.50" y1="628.26" x2="1957.50" y2="563.46" style="stroke:#F0F0F0;stroke-width:9.72"/>
	<line x1="1957.50" y1="531.06" x2="1957.50" y2="466.26" style="stroke:#F0F0F0;stroke-width:9.72"/>
	<line x1="1957.50" y1="433.86" x2="1957.50" y2="369.06" style="stroke:#F0F0F0;stroke-width:9.72"/>
	<line x1="1957.50" y1="336.66" x2="1957.50" y2="271.86" style="stroke:#F0F0F0;stroke-width:9.72"/>
	<line x1="1957.50" y1="239.46" x2="1957.50" y2="174.66" style="stroke:#F0F0F0;stroke-width:9.72"/>
	<line x1="1957.50" y1="142.26" x2="1957.50" y2="113.40" style="stroke:#F0F0F0;stroke-width:9.72"/>
	<line x1="2695.61" y1="2766.66" x2="2695.61" y2="2701.86" style="stroke:#F0F0F0;stroke-width:9.72"/>
	<line x1="2695.61" y1="2669.46" x2="2695.61" y2="2604.66" style="stroke:#F0F0F0;stroke-width:9.72"/>
	<line x1="2695.61" y1="2572.26" x2="2695.61" y2="2507.46" style="stroke:#F0F0F0;stroke-width:9.72"/>
	<line x1="2695.61" y1="2475.06" x2="2695.61" y2="2410.26" style="stroke:#F0F0F0;stroke-width:9.72"/>
	<line x1="2695.61" y1="2377.86" x2="2695.61" y2="2313.06" style="stroke:#F0F0F0;stroke-width:9.72"/>
	<line x1="2695.61" y1="2280.66" x2="2695.61" y2="2215.86" style="stroke:#F0F0F0;stroke-width:9.72"/>
	<line x1="2695.61" y1="2183.46" x2="2695.61" y2="2118.66" style="stroke:#F0F0F0;stroke-width:9.72"/>
	<line x1="2695.61" y1="2086.26" x2="2695.61" y2="2021.46" style="stroke:#F0F0F0;stroke-width:9.72"/>
	<line x1="2695.61" y1="1989.06" x2="2695.61" y2="1924.26" style="stroke:#F0F0F0;stroke-width:9.72"/>
	<line x1="2695.61" y1="1891.86" x2="2695.61" y2="1827.06" style="stroke:#F0F0F0;stroke-width:9.72"/>
	<line x1="2695.61" y1="1794.66" x2="2695.61" y2="1729.86" style="stroke:#F0F0F0;stroke-width:9.72"/>
	<line x1="2695.61" y1="1697.46" x2="2695.61" y2="1632.66" style="stroke:#F0F0F0;stroke-width:9.72"/>
	<line x1="2695.61" y1="1600.26" x2="2695.61" y2="1535.46" style="stroke:#F0F0F0;stroke-width:9.72"/>
	<line x1="2695.61" y1="1503.06" x2="2695.61" y2="1438.26" style="stroke:#F0F0F0;stroke-width:9.72"/>
	<line x1="2695.61" y1="1405.86" x2="2695.61" y2="1341.06" style="stroke:#F0F0F0;stroke-width:9.72"/>
	<line x1="2695.61" y1="1308.66" x2="2695.61" y2="1243.86" style="stroke:#F0F0F0;stroke-width:9.72"/>
	<line x1="2695.61" y1="1211.46" x2="2695.61" y2="1146.66" style="stroke:#F0F0F0;stroke-width:9.72"/>
	<line x1="2695.61" y1="1114.26" x2="2695.61" y2="1049.46" style="stroke:#F0F0F0;stroke-width:9.72"/>
	<line x1="2695.61" y1="1017.06" x2="2695.61" y2="952.26" style="stroke:#F0F0F0;stroke-width:9.72"/>
	<line x1="2695.61" y1="919.86" x2="2695.61" y2="855.06" style="stroke:#F0F0F0;stroke-width:9.72"/>
	<line x1="2695.61" y1="822.66" x2="2695.61" y2="757.86" style="stroke:#F0F0F0;stroke-width:9.72"/>
	<line x1="2695.61" y1="725.46" x2="2695.61" y2="660.66" style="stroke:#F0F0F0;stroke-width:9.72"/>
	<line x1="2695.61" y1="628.26" x2="2695.61" y2="563.46" style="stroke:#F0F0F0;stroke-width:9.72"/>
	<line x1="2695.61" y1="531.06" x2="2695.61" y2="466.26" style="stroke:#F0F0F0;stroke-width:9.72"/>
	<line x1="2695.61" y1="433.86" x2="2695.61" y2="369.06" style="stroke:#F0F0F0;stroke-width:9.72"/>
	<line x1="2695.61" y1="336.66" x2="2695.61" y2="271.86" style="stroke:#F0F0F0;stroke-width:9.72"/>
	<line x1="2695.61" y1="239.46" x2="2695.61" y2="174.66" style="stroke:#F0F0F0;stroke-width:9.72"/>
	<line x1="2695.61" y1="142.26" x2="2695.61" y2="113.40" style="stroke:#F0F0F0;stroke-width:9.72"/>
	<line x1="3433.56" y1="2766.66" x2="3433.56" y2="2701.86" style="stroke:#F0F0F0;stroke-width:9.72"/>
	<line x1="3433.56" y1="2669.46" x2="3433.56" y2="2604.66" style="stroke:#F0F0F0;stroke-width:9.72"/>
	<line x1="3433.56" y1="2572.26" x2="3433.56" y2="2507.46" style="stroke:#F0F0F0;stroke-width:9.72"/>
	<line x1="3433.56" y1="2475.06" x2="3433.56" y2="2410.26" style="stroke:#F0F0F0;stroke-width:9.72"/>
	<line x1="3433.56" y1="2377.86" x2="3433.56" y2="2313.06" style="stroke:#F0F0F0;stroke-width:9.72"/>
	<line x1="3433.56" y1="2280.66" x2="3433.56" y2="2215.86" style="stroke:#F0F0F0;stroke-width:9.72"/>
	<line x1="3433.56" y1="2183.46" x2="3433.56" y2="2118.66" style="stroke:#F0F0F0;stroke-width:9.72"/>
	<line x1="3433.56" y1="2086.26" x2="3433.56" y2="2021.46" style="stroke:#F0F0F0;stroke-width:9.72"/>
	<line x1="3433.56" y1="1989.06" x2="3433.56" y2="1924.26" style="stroke:#F0F0F0;stroke-width:9.72"/>
	<line x1="3433.56" y1="1891.86" x2="3433.56" y2="1827.06" style="stroke:#F0F0F0;stroke-width:9.72"/>
	<line x1="3433.56" y1="1794.66" x2="3433.56" y2="1729.86" style="stroke:#F0F0F0;stroke-width:9.72"/>
	<line x1="3433.56" y1="1697.46" x2="3433.56" y2="1632.66" style="stroke:#F0F0F0;stroke-width:9.72"/>
	<line x1="3433.56" y1="1600.26" x2="3433.56" y2="1535.46" style="stroke:#F0F0F0;stroke-width:9.72"/>
	<line x1="3433.56" y1="1503.06" x2="3433.56" y2="1438.26" style="stroke:#F0F0F0;stroke-width:9.72"/>
	<line x1="3433.56" y1="1405.86" x2="3433.56" y2="1341.06" style="stroke:#F0F0F0;stroke-width:9.72"/>
	<line x1="3433.56" y1="1308.66" x2="3433.56" y2="1243.86" style="stroke:#F0F0F0;stroke-width:9.72"/>
	<line x1="3433.56" y1="1211.46" x2="3433.56" y2="1146.66" style="stroke:#F0F0F0;stroke-width:9.72"/>
	<line x1="3433.56" y1="1114.26" x2="3433.56" y2="1049.46" style="stroke:#F0F0F0;stroke-width:9.72"/>
	<line x1="3433.56" y1="1017.06" x2="3433.56" y2="952.26" style="stroke:#F0F0F0;stroke-width:9.72"/>
	<line x1="3433.56" y1="919.86" x2="3433.56" y2="855.06" style="stroke:#F0F0F0;stroke-width:9.72"/>
	<line x1="3433.56" y1="822.66" x2="3433.56" y2="757.86" style="stroke:#F0F0F0;stroke-width:9.72"/>
	<line x1="3433.56" y1="725.46" x2="3433.56" y2="660.66" style="stroke:#F0F0F0;stroke-width:9.72"/>
	<line x1="3433.56" y1="628.26" x2="3433.56" y2="563.46" style="stroke:#F0F0F0;stroke-width:9.72"/>
	<line x1="3433.56" y1="531.06" x2="3433.56" y2="466.26" style="stroke:#F0F0F0;stroke-width:9.72"/>
	<line x1="3433.56" y1="433.86" x2="3433.56" y2="369.06" style="stroke:#F0F0F0;stroke-width:9.72"/>
	<line x1="3433.56" y1="336.66" x2="3433.56" y2="271.86" style="stroke:#F0F0F0;stroke-width:9.72"/>
	<line x1="3433.56" y1="239.46" x2="3433.56" y2="174.66" style="stroke:#F0F0F0;stroke-width:9.72"/>
	<line x1="3433.56" y1="142.26" x2="3433.56" y2="113.40" style="stroke:#F0F0F0;stroke-width:9.72"/>
	<line x1="4171.67" y1="2766.66" x2="4171.67" y2="2701.86" style="stroke:#F0F0F0;stroke-width:9.72"/>
	<line x1="4171.67" y1="2669.46" x2="4171.67" y2="2604.66" style="stroke:#F0F0F0;stroke-width:9.72"/>
	<line x1="4171.67" y1="2572.26" x2="4171.67" y2="2507.46" style="stroke:#F0F0F0;stroke-width:9.72"/>
	<line x1="4171.67" y1="2475.06" x2="4171.67" y2="2410.26" style="stroke:#F0F0F0;stroke-width:9.72"/>
	<line x1="4171.67" y1="2377.86" x2="4171.67" y2="2313.06" style="stroke:#F0F0F0;stroke-width:9.72"/>
	<line x1="4171.67" y1="2280.66" x2="4171.67" y2="2215.86" style="stroke:#F0F0F0;stroke-width:9.72"/>
	<line x1="4171.67" y1="2183.46" x2="4171.67" y2="2118.66" style="stroke:#F0F0F0;stroke-width:9.72"/>
	<line x1="4171.67" y1="2086.26" x2="4171.67" y2="2021.46" style="stroke:#F0F0F0;stroke-width:9.72"/>
	<line x1="4171.67" y1="1989.06" x2="4171.67" y2="1924.26" style="stroke:#F0F0F0;stroke-width:9.72"/>
	<line x1="4171.67" y1="1891.86" x2="4171.67" y2="1827.06" style="stroke:#F0F0F0;stroke-width:9.72"/>
	<line x1="4171.67" y1="1794.66" x2="4171.67" y2="1729.86" style="stroke:#F0F0F0;stroke-width:9.72"/>
	<line x1="4171.67" y1="1697.46" x2="4171.67" y2="1632.66" style="stroke:#F0F0F0;stroke-width:9.72"/>
	<line x1="4171.67" y1="1600.26" x2="4171.67" y2="1535.46" style="stroke:#F0F0F0;stroke-width:9.72"/>
	<line x1="4171.67" y1="1503.06" x2="4171.67" y2="1438.26" style="stroke:#F0F0F0;stroke-width:9.72"/>
	<line x1="4171.67" y1="1405.86" x2="4171.67" y2="1341.06" style="stroke:#F0F0F0;stroke-width:9.72"/>
	<line x1="4171.67" y1="1308.66" x2="4171.67" y2="1243.86" style="stroke:#F0F0F0;stroke-width:9.72"/>
	<line x1="4171.67" y1="1211.46" x2="4171.67" y2="1146.66" style="stroke:#F0F0F0;stroke-width:9.72"/>
	<line x1="4171.67" y1="1114.26" x2="4171.67" y2="1049.46" style="stroke:#F0F0F0;stroke-width:9.72"/>
	<line x1="4171.67" y1="1017.06" x2="4171.67" y2="952.26" style="stroke:#F0F0F0;stroke-width:9.72"/>
	<line x1="4171.67" y1="919.86" x2="4171.67" y2="855.06" style="stroke:#F0F0F0;stroke-width:9.72"/>
	<line x1="4171.67" y1="822.66" x2="4171.67" y2="757.86" style="stroke:#F0F0F0;stroke-width:9.72"/>
	<line x1="4171.67" y1="725.46" x2="4171.67" y2="660.66" style="stroke:#F0F0F0;stroke-width:9.72"/>
	<line x1="4171.67" y1="628.26" x2="4171.67" y2="563.46" style="stroke:#F0F0F0;stroke-width:9.72"/>
	<line x1="4171.67" y1="531.06" x2="4171.67" y2="466.26" style="stroke:#F0F0F0;stroke-width:9.72"/>
	<line x1="4171.67" y1="433.86" x2="4171.67" y2="369.06" style="stroke:#F0F0F0;stroke-width:9.72"/>
	<line x1="4171.67" y1="336.66" x2="4171.67" y2="271.86" style="stroke:#F0F0F0;stroke-width:9.72"/>
	<line x1="4171.67" y1="239.46" x2="4171.67" y2="174.66" style="stroke:#F0F0F0;stroke-width:9.72"/>
	<line x1="4171.67" y1="142.26" x2="4171.67" y2="113.40" style="stroke:#F0F0F0;stroke-width:9.72"/>
	<line x1="2695.61" y1="2766.66" x2="2695.61" y2="2701.86" style="stroke:#000000;stroke-width:9.72"/>
	<line x1="2695.61" y1="2669.46" x2="2695.61" y2="2604.66" style="stroke:#000000;stroke-width:9.72"/>
	<line x1="2695.61" y1="2572.26" x2="2695.61" y2="2507.46" style="stroke:#000000;stroke-width:9.72"/>
	<line x1="2695.61" y1="2475.06" x2="2695.61" y2="2410.26" style="stroke:#000000;stroke-width:9.72"/>
	<line x1="2695.61" y1="2377.86" x2="2695.61" y2="2313.06" style="stroke:#000000;stroke-width:9.72"/>
	<line x1="2695.61" y1="2280.66" x2="2695.61" y2="2215.86" style="stroke:#000000;stroke-width:9.72"/>
	<line x1="2695.61" y1="2183.46" x2="2695.61" y2="2118.66" style="stroke:#000000;stroke-width:9.72"/>
	<line x1="2695.61" y1="2086.26" x2="2695.61" y2="2021.46" style="stroke:#000000;stroke-width:9.72"/>
	<line x1="2695.61" y1="1989.06" x2="2695.61" y2="1924.26" style="stroke:#000000;stroke-width:9.72"/>
	<line x1="2695.61" y1="1891.86" x2="2695.61" y2="1827.06" style="stroke:#000000;stroke-width:9.72"/>
	<line x1="2695.61" y1="1794.66" x2="2695.61" y2="1729.86" style="stroke:#000000;stroke-width:9.72"/>
	<line x1="2695.61" y1="1697.46" x2="2695.61" y2="1632.66" style="stroke:#000000;stroke-width:9.72"/>
	<line x1="2695.61" y1="1600.26" x2="2695.61" y2="1535.46" style="stroke:#000000;stroke-width:9.72"/>
	<line x1="2695.61" y1="1503.06" x2="2695.61" y2="1438.26" style="stroke:#000000;stroke-width:9.72"/>
	<line x1="2695.61" y1="1405.86" x2="2695.61" y2="1341.06" style="stroke:#000000;stroke-width:9.72"/>
	<line x1="2695.61" y1="1308.66" x2="2695.61" y2="1243.86" style="stroke:#000000;stroke-width:9.72"/>
	<line x1="2695.61" y1="1211.46" x2="2695.61" y2="1146.66" style="stroke:#000000;stroke-width:9.72"/>
	<line x1="2695.61" y1="1114.26" x2="2695.61" y2="1049.46" style="stroke:#000000;stroke-width:9.72"/>
	<line x1="2695.61" y1="1017.06" x2="2695.61" y2="952.26" style="stroke:#000000;stroke-width:9.72"/>
	<line x1="2695.61" y1="919.86" x2="2695.61" y2="855.06" style="stroke:#000000;stroke-width:9.72"/>
	<line x1="2695.61" y1="822.66" x2="2695.61" y2="757.86" style="stroke:#000000;stroke-width:9.72"/>
	<line x1="2695.61" y1="725.46" x2="2695.61" y2="660.66" style="stroke:#000000;stroke-width:9.72"/>
	<line x1="2695.61" y1="628.26" x2="2695.61" y2="563.46" style="stroke:#000000;stroke-width:9.72"/>
	<line x1="2695.61" y1="531.06" x2="2695.61" y2="466.26" style="stroke:#000000;stroke-width:9.72"/>
	<line x1="2695.61" y1="433.86" x2="2695.61" y2="369.06" style="stroke:#000000;stroke-width:9.72"/>
	<line x1="2695.61" y1="336.66" x2="2695.61" y2="271.86" style="stroke:#000000;stroke-width:9.72"/>
	<line x1="2695.61" y1="239.46" x2="2695.61" y2="174.66" style="stroke:#000000;stroke-width:9.72"/>
	<line x1="2695.61" y1="142.26" x2="2695.61" y2="113.40" style="stroke:#000000;stroke-width:9.72"/>
	<path d=" M1006.59 2685.83 L1017.56 2684.98 L1028.70 2683.80 L1039.67 2682.62 L1050.64 2681.44 L1061.78 2680.59 L1072.74 2679.75 L1083.71 2678.91 L1094.85 2678.23 L1105.82 2677.73 L1116.79 2677.39 L1127.76 2677.05 L1138.89 2676.71 L1149.86 2676.71 L1160.83 2676.21 L1171.97 2674.86 L1182.94 2673.51 L1193.91 2671.82 L1205.04 2669.79 L1216.01 2666.76 L1226.98 2663.21 L1237.95 2659.67 L1249.09 2655.96 L1260.06 2652.24 L1271.03 2649.04 L1282.16 2645.49 L1293.13 2642.12 L1304.10 2639.08 L1315.24 2635.88 L1326.21 2631.32 L1337.18 2627.44 L1348.14 2623.73 L1359.28 2619.51 L1370.25 2615.29 L1381.22 2610.23 L1392.36 2604.15 L1403.33 2597.57 L1414.29 2591.66 L1425.43 2586.60 L1436.40 2582.21 L1447.37 2577.82 L1458.34 2572.43 L1469.48 2565.00 L1480.44 2556.39 L1491.41 2547.28 L1502.55 2536.82 L1513.52 2526.53 L1524.49 2516.40 L1535.46 2506.28 L1546.59 2496.82 L1557.56 2487.71 L1568.53 2478.26 L1579.67 2468.98 L1590.64 2460.38 L1601.61 2452.44 L1612.74 2445.86 L1623.71 2440.80 L1634.68 2435.40 L1645.65 2429.83 L1656.79 2420.55 L1667.76 2410.09 L1678.73 2397.94 L1689.86 2384.94 L1700.83 2372.12 L1711.80 2360.48 L1722.94 2349.17 L1733.91 2337.69 L1744.88 2327.74 L1755.84 2318.12 L1766.98 2310.02 L1777.95 2301.24 L1788.92 2291.46 L1800.06 2282.51 L1811.03 2274.24 L1821.99 2265.98 L1833.13 2257.20 L1844.10 2248.59 L1855.07 2239.14 L1866.04 2229.36 L1877.18 2219.74 L1888.14 2211.13 L1899.11 2201.18 L1910.25 2189.19 L1921.22 2176.37 L1932.19 2163.21 L1943.33 2146.33 L1954.29 2128.28 L1965.26 2109.38 L1976.23 2088.79 L1987.37 2068.37 L1998.34 2046.09 L2009.31 2024.83 L2020.44 2004.08 L2031.41 1982.31 L2042.38 1958.34 L2053.52 1935.90 L2064.49 1913.63 L2075.46 1892.70 L2086.43 1874.31 L2097.56 1856.59 L2108.53 1837.69 L2119.50 1815.08 L2130.64 1789.93 L2141.61 1761.41 L2152.57 1729.18 L2163.54 1695.60 L2174.68 1660.84 L2185.65 1626.75 L2196.62 1591.65 L2207.76 1554.02 L2218.73 1516.05 L2229.69 1479.94 L2240.83 1446.69 L2251.80 1412.61 L2262.77 1381.73 L2273.74 1351.35 L2284.88 1321.99 L2295.84 1291.44 L2306.81 1260.06 L2317.95 1231.54 L2328.92 1202.68 L2339.89 1175.85 L2351.03 1148.01 L2361.99 1121.34 L2372.96 1093.33 L2383.93 1065.82 L2395.07 1039.16 L2406.04 1016.55 L2417.01 993.94 L2428.14 967.95 L2439.11 944.32 L2450.08 920.70 L2461.22 895.39 L2472.19 872.27 L2483.16 850.67 L2494.13 832.44 L2505.26 814.89 L2516.23 797.68 L2527.20 781.65 L2538.34 767.98 L2549.31 756.51 L2560.28 747.39 L2571.41 740.98 L2582.38 735.92 L2593.35 733.22 L2604.32 732.04 L2615.46 728.49 L2626.43 722.42 L2637.39 716.01 L2648.53 709.59 L2659.50 704.19 L2670.47 698.12 L2681.61 689.34 L2692.58 681.41 L2703.54 675.34 L2714.51 670.44 L2725.65 667.91 L2736.62 668.93 L2747.59 668.25 L2758.73 668.42 L2769.69 668.59 L2780.66 671.29 L2791.63 677.36 L2802.77 684.62 L2813.74 695.59 L2824.71 704.19 L2835.84 711.96 L2846.81 719.55 L2857.78 730.35 L2868.92 744.53 L2879.89 762.24 L2890.86 778.95 L2901.83 794.81 L2912.96 814.22 L2923.93 833.96 L2934.90 852.86 L2946.04 871.76 L2957.01 892.69 L2967.98 916.31 L2979.11 941.12 L2990.08 965.59 L3001.05 989.55 L3012.02 1011.32 L3023.16 1030.72 L3034.13 1049.12 L3045.09 1070.72 L3056.23 1095.69 L3067.20 1123.20 L3078.17 1153.24 L3089.31 1184.12 L3100.28 1216.35 L3111.24 1247.74 L3122.21 1281.32 L3133.35 1313.04 L3144.32 1344.43 L3155.29 1376.33 L3166.43 1407.71 L3177.39 1437.92 L3188.36 1466.94 L3199.50 1494.79 L3210.47 1524.15 L3221.44 1550.64 L3232.41 1576.46 L3243.54 1601.61 L3254.51 1628.44 L3265.48 1657.46 L3276.62 1688.34 L3287.59 1719.73 L3298.56 1749.77 L3309.69 1776.43 L3320.66 1803.09 L3331.63 1832.12 L3342.60 1862.49 L3353.74 1891.69 L3364.71 1920.21 L3375.68 1949.57 L3386.81 1981.46 L3397.78 2011.33 L3408.75 2040.36 L3419.72 2068.54 L3430.86 2096.72 L3441.83 2123.89 L3452.79 2150.72 L3463.93 2177.72 L3474.90 2200.84 L3485.87 2222.27 L3497.01 2240.49 L3507.98 2255.85 L3518.94 2270.19 L3529.91 2284.54 L3541.05 2299.73 L3552.02 2316.09 L3562.99 2333.81 L3574.13 2350.52 L3585.09 2367.06 L3596.06 2383.93 L3607.20 2398.95 L3618.17 2414.48 L3629.14 2430.17 L3640.11 2445.53 L3651.24 2459.19 L3662.21 2471.85 L3673.18 2484.34 L3684.32 2494.80 L3695.29 2503.74 L3706.26 2510.49 L3717.39 2516.06 L3728.36 2521.29 L3739.33 2527.03 L3750.30 2532.09 L3761.44 2535.81 L3772.41 2539.52 L3783.38 2543.57 L3794.51 2548.29 L3805.48 2553.36 L3816.45 2558.59 L3827.59 2562.47 L3838.56 2566.69 L3849.53 2571.24 L3860.49 2576.64 L3871.63 2580.86 L3882.60 2585.59 L3893.57 2590.65 L3904.71 2594.53 L3915.68 2597.74 L3926.64 2600.61 L3937.61 2603.64 L3948.75 2606.68 L3959.72 2609.89 L3970.69 2613.43 L3981.83 2615.79 L3992.79 2617.48 L4003.76 2619.51 L4014.90 2621.53 L4025.87 2623.73 L4036.84 2626.26 L4047.81 2627.94 L4058.94 2630.14 L4069.91 2632.33 L4080.88 2634.36 L4092.02 2636.89 L4102.99 2639.93 L4113.96 2643.13 L4125.09 2647.01 L4136.06 2651.23 L4147.03 2654.94 L4158.00 2657.31 L4169.14 2659.50 L4180.11 2661.36 L4191.08 2662.71 L4202.21 2664.06 L4213.18 2665.74 L4224.15 2667.26 L4235.29 2668.61 L4246.26 2669.96 L4257.23 2671.65 L4268.19 2673.51 L4279.33 2675.03 L4290.30 2676.21 L4301.27 2677.05" stroke-linejoin="round" style="fill:none;stroke:#1A85FF;stroke-width:9.72"/>
	<path d=" M535.44 2683.63 L544.89 2682.96 L554.34 2681.61 L563.79 2680.26 L573.08 2678.91 L582.53 2677.89 L591.98 2676.88 L601.42 2676.04 L610.88 2675.36 L620.33 2674.69 L629.61 2674.18 L639.06 2673.84 L648.51 2673.51 L657.96 2673.51 L667.41 2673.51 L676.69 2673.51 L686.14 2672.16 L695.59 2670.30 L705.04 2668.44 L714.49 2666.25 L723.94 2662.88 L733.22 2658.32 L742.67 2653.76 L752.12 2649.21 L761.57 2645.16 L771.02 2640.60 L780.47 2636.38 L789.75 2632.50 L799.20 2628.11 L808.65 2623.39 L818.10 2618.83 L827.55 2614.28 L836.83 2609.04 L846.28 2603.14 L855.73 2597.91 L865.18 2592.17 L874.63 2585.93 L884.08 2579.51 L893.36 2572.93 L902.81 2567.19 L912.26 2561.79 L921.71 2554.37 L931.16 2547.28 L940.44 2539.35 L949.89 2530.24 L959.34 2518.93 L968.79 2506.95 L978.24 2495.81 L987.69 2484.00 L996.98 2473.03 L1006.43 2462.23 L1015.88 2452.44 L1025.33 2441.64 L1034.78 2429.66 L1044.22 2418.69 L1053.51 2408.74 L1062.96 2400.64 L1072.41 2393.89 L1081.86 2385.79 L1091.31 2377.52 L1100.59 2366.89 L1110.04 2355.92 L1119.49 2344.78 L1128.94 2330.27 L1138.39 2315.25 L1147.84 2300.91 L1157.12 2287.57 L1166.57 2273.91 L1176.02 2261.42 L1185.47 2250.96 L1194.92 2240.16 L1204.20 2230.71 L1213.65 2222.61 L1223.10 2213.16 L1232.55 2203.20 L1242.00 2191.05 L1251.45 2180.08 L1260.73 2171.14 L1270.18 2163.21 L1279.63 2154.94 L1289.08 2143.46 L1298.53 2130.47 L1307.81 2118.49 L1317.26 2107.52 L1326.71 2095.54 L1336.16 2083.56 L1345.61 2066.34 L1355.06 2048.12 L1364.34 2026.69 L1373.79 2004.24 L1383.24 1979.10 L1392.69 1951.93 L1402.14 1926.62 L1411.59 1901.98 L1420.88 1879.20 L1430.33 1852.71 L1439.78 1826.04 L1449.23 1799.72 L1458.68 1775.42 L1467.96 1751.29 L1477.41 1726.99 L1486.86 1701.00 L1496.31 1673.16 L1505.76 1639.24 L1515.21 1605.99 L1524.49 1569.38 L1533.94 1524.83 L1543.39 1479.09 L1552.84 1436.91 L1562.29 1393.20 L1571.57 1349.83 L1581.02 1307.14 L1590.47 1265.12 L1599.92 1225.29 L1609.37 1187.49 L1618.82 1149.36 L1628.10 1110.21 L1637.55 1071.06 L1647.00 1032.92 L1656.45 999.17 L1665.90 967.78 L1675.35 934.37 L1684.63 902.98 L1694.08 866.70 L1703.53 833.79 L1712.98 805.95 L1722.43 778.61 L1731.71 753.13 L1741.16 725.63 L1750.61 695.59 L1760.06 670.44 L1769.51 645.30 L1778.96 623.03 L1788.24 597.88 L1797.69 572.57 L1807.14 549.96 L1816.59 529.03 L1826.04 510.30 L1835.33 492.58 L1844.78 476.04 L1854.23 460.35 L1863.68 448.71 L1873.13 440.10 L1882.58 434.19 L1891.86 427.11 L1901.31 419.01 L1910.76 412.76 L1920.21 408.71 L1929.66 404.16 L1939.11 395.38 L1948.39 387.62 L1957.84 382.22 L1967.29 378.34 L1976.74 373.28 L1986.19 366.53 L1995.47 359.27 L2004.92 353.03 L2014.37 349.14 L2023.82 344.08 L2033.27 337.67 L2042.72 334.29 L2052.00 335.14 L2061.45 335.14 L2070.90 337.16 L2080.35 338.85 L2089.80 341.21 L2099.08 347.12 L2108.53 357.58 L2117.98 372.77 L2127.43 390.32 L2136.88 405.34 L2146.33 420.69 L2155.61 440.44 L2165.06 462.21 L2174.51 484.65 L2183.96 510.81 L2193.41 537.13 L2202.69 564.13 L2212.14 591.30 L2221.59 617.29 L2231.04 640.41 L2240.49 666.22 L2249.94 691.88 L2259.23 717.69 L2268.68 741.82 L2278.13 765.28 L2287.57 788.23 L2297.03 811.35 L2306.48 837.51 L2315.76 868.22 L2325.21 905.34 L2334.66 944.49 L2344.11 982.46 L2353.56 1019.25 L2362.84 1057.22 L2372.29 1098.22 L2381.74 1137.38 L2391.19 1172.64 L2400.64 1205.38 L2410.09 1238.29 L2419.37 1272.88 L2428.82 1304.10 L2438.27 1333.63 L2447.72 1365.36 L2457.17 1395.06 L2466.45 1425.94 L2475.90 1458.51 L2485.35 1491.24 L2494.80 1523.48 L2504.25 1558.58 L2513.70 1594.35 L2522.98 1632.83 L2532.43 1670.29 L2541.88 1706.57 L2551.33 1744.71 L2560.78 1782.84 L2570.23 1820.14 L2579.51 1856.76 L2588.96 1892.70 L2598.41 1928.14 L2607.86 1964.76 L2617.31 2000.36 L2626.59 2032.26 L2636.04 2064.32 L2645.49 2096.04 L2654.94 2126.59 L2664.39 2153.93 L2673.84 2177.21 L2683.13 2194.59 L2692.58 2211.30 L2702.03 2227.84 L2711.48 2245.39 L2720.93 2265.81 L2730.21 2287.74 L2739.66 2307.66 L2749.11 2325.88 L2758.56 2342.76 L2768.01 2360.31 L2777.46 2379.04 L2786.74 2396.76 L2796.19 2411.44 L2805.64 2425.11 L2815.09 2438.10 L2824.54 2451.09 L2833.99 2460.71 L2843.27 2468.64 L2852.72 2474.72 L2862.17 2481.64 L2871.62 2489.40 L2881.07 2495.64 L2890.35 2501.89 L2899.80 2508.30 L2909.25 2515.05 L2918.70 2521.29 L2928.15 2527.03 L2937.60 2533.11 L2946.88 2539.18 L2956.33 2544.41 L2965.78 2549.14 L2975.23 2554.54 L2984.68 2560.44 L2993.96 2564.49 L3003.41 2568.21 L3012.86 2572.59 L3022.31 2577.15 L3031.76 2582.04 L3041.21 2587.28 L3050.49 2591.32 L3059.94 2594.03 L3069.39 2596.56 L3078.84 2598.92 L3088.29 2600.78 L3097.58 2603.14 L3107.03 2605.16 L3116.48 2607.69 L3125.93 2610.73 L3135.38 2614.28 L3144.83 2617.48 L3154.11 2620.52 L3163.56 2623.05 L3173.01 2625.92 L3182.46 2629.29 L3191.91 2633.18 L3201.36 2637.56 L3210.64 2642.12 L3220.09 2646.51 L3229.54 2651.06 L3238.99 2654.10 L3248.44 2656.13 L3257.72 2657.64 L3267.17 2659.33 L3276.62 2661.02 L3286.07 2662.37 L3295.52 2663.89 L3304.97 2665.74 L3314.25 2667.60 L3323.70 2669.29 L3333.15 2670.64 L3342.60 2672.33 L3352.05 2673.51" stroke-linejoin="round" style="fill:none;stroke:#D41159;stroke-width:9.72"/>
	<line x1="410.23" y1="2766.66" x2="410.23" y2="113.40" style="stroke:#000000;stroke-width:6.48"/>
	<line x1="410.23" y1="2695.28" x2="365.18" y2="2695.28" style="stroke:#000000;stroke-width:6.48"/>
	<text x="342.73" y="2734.71" style="font-family:'Helvetica';font-size:112.56px;fill:#000000" text-anchor="end">0</text>
	<line x1="410.23" y1="1858.44" x2="365.18" y2="1858.44" style="stroke:#000000;stroke-width:6.48"/>
	<text x="342.73" y="1897.88" style="font-family:'Helvetica';font-size:112.56px;fill:#000000" text-anchor="end">5</text>
	<line x1="410.23" y1="1021.61" x2="365.18" y2="1021.61" style="stroke:#000000;stroke-width:6.48"/>
	<text x="342.73" y="1061.05" style="font-family:'Helvetica';font-size:112.56px;fill:#000000" text-anchor="end">10</text>
	<line x1="410.23" y1="184.61" x2="365.18" y2="184.61" style="stroke:#000000;stroke-width:6.48"/>
	<text x="342.73" y="224.05" style="font-family:'Helvetica';font-size:112.56px;fill:#000000" text-anchor="end">15</text>
	<line x1="410.23" y1="2766.66" x2="4372.65" y2="2766.66" style="stroke:#000000;stroke-width:6.48"/>
	<line x1="481.44" y1="2766.66" x2="481.44" y2="2811.54" style="stroke:#000000;stroke-width:6.48"/>
	<text x="481.44" y="2912.86" style="font-family:'Helvetica';font-size:112.56px;fill:#000000" text-anchor="middle">.25</text>
	<line x1="1219.56" y1="2766.66" x2="1219.56" y2="2811.54" style="stroke:#000000;stroke-width:6.48"/>
	<text x="1219.56" y="2912.86" style="font-family:'Helvetica';font-size:112.56px;fill:#000000" text-anchor="middle">.3</text>
	<line x1="1957.50" y1="2766.66" x2="1957.50" y2="2811.54" style="stroke:#000000;stroke-width:6.48"/>
	<text x="1957.50" y="2912.86" style="font-family:'Helvetica';font-size:112.56px;fill:#000000" text-anchor="middle">.35</text>
	<line x1="2695.61" y1="2766.66" x2="2695.61" y2="2811.54" style="stroke:#000000;stroke-width:6.48"/>
	<text x="2695.61" y="2912.86" style="font-family:'Helvetica';font-size:112.56px;fill:#000000" text-anchor="middle">.4</text>
	<line x1="3433.56" y1="2766.66" x2="3433.56" y2="2811.54" style="stroke:#000000;stroke-width:6.48"/>
	<text x="3433.56" y="2912.86" style="font-family:'Helvetica';font-size:112.56px;fill:#000000" text-anchor="middle">.45</text>
	<line x1="4171.67" y1="2766.66" x2="4171.67" y2="2811.54" style="stroke:#000000;stroke-width:6.48"/>
	<text x="4171.67" y="2912.86" style="font-family:'Helvetica';font-size:112.56px;fill:#000000" text-anchor="middle">.5</text>
	<text x="2391.53" y="3070.31" style="font-family:'Helvetica';font-size:112.56px;fill:#000000" text-anchor="middle">x</text>
	<rect x="4411.63" y="1256.34" width="836.16" height="367.20" style="fill:#FFFFFF"/>
	<rect x="4414.87" y="1259.58" width="829.68" height="360.72" style="fill:none;stroke:#FFFFFF;stroke-width:6.48"/>
	<line x1="4460.23" y1="1361.31" x2="4719.43" y2="1361.31" style="stroke:#1A85FF;stroke-width:9.72"/>
	<line x1="4460.23" y1="1518.75" x2="4719.43" y2="1518.75" style="stroke:#D41159;stroke-width:9.72"/>
	<text x="4786.93" y="1400.74" style="font-family:'Helvetica';font-size:112.56px;fill:#000000">Logistic</text>
	<text x="4786.93" y="1558.19" style="font-family:'Helvetica';font-size:112.56px;fill:#000000">Poisson</text>
</svg>
